<?xml version="1.0" encoding="UTF-8"?>
<svg id="Layer_1" xmlns="http://www.w3.org/2000/svg" version="1.1" viewBox="0 0 524.47 345.22">
  <!-- Generator: Adobe Illustrator 30.1.0, SVG Export Plug-In . SVG Version: 2.1.1 Build 136)  -->
  <defs>
    <style>
      .st0 {
        fill: #009e73;
      }

      .st0, .st1, .st2, .st3, .st4 {
        stroke: #444;
        stroke-width: .5px;
      }

      .st5, .st6 {
        fill-opacity: .2;
      }

      .st1 {
        fill: #d55e00;
      }

      .st2 {
        fill: #f0e442;
      }

      .st3 {
        fill: #56b4e9;
      }

      .st6 {
        stroke: #000;
        stroke-opacity: .2;
      }

      .st4 {
        fill: #e69f00;
      }
    </style>
  </defs>
  <g>
    <path class="st5" d="M29.33,188.24c71,0,71,21.76,142,21.76v1.07c-71,0-71-21.76-142-21.76v-1.07Z"/>
    <path class="st5" d="M29.33,186.63c71,0,71-1.31,142-1.31v1.61c-71,0-71,1.31-142,1.31v-1.61Z"/>
    <path class="st5" d="M29.33,183.41c71,0,71-57.68,142-57.68v1.61c-71,0-71,57.68-142,57.68v-1.61Z"/>
    <path class="st5" d="M29.33,185.02c71,0,71-23.92,142-23.92v1.61c-71,0-71,23.92-142,23.92v-1.61Z"/>
    <path class="st5" d="M191.33,238.81c71,0,71,46.74,142,46.74v2.14c-71,0-71-46.74-142-46.74v-2.14Z"/>
    <path class="st5" d="M191.33,240.96c71,0,71-3.95,142-3.95v2.14c-71,0-71,3.95-142,3.95v-2.14Z"/>
    <path class="st5" d="M191.33,233.99c71,0,71-228.28,142-228.28v1.61c-71,0-71,228.28-142,228.28v-1.61Z"/>
    <path class="st5" d="M191.33,235.6c71,0,71-78.01,142-78.01v3.22c-71,0-71,78.01-142,78.01v-3.22Z"/>
    <path class="st5" d="M191.33,210c71,0,71-46.52,142-46.52v1.61c-71,0-71,46.52-142,46.52v-1.61Z"/>
    <path class="st5" d="M191.33,185.32c71,0,71-24.52,142-24.52v2.68c-71,0-71,24.52-142,24.52v-2.68Z"/>
    <path class="st5" d="M191.33,134.31c71,0,71,150.18,142,150.18v1.07c-71,0-71-150.18-142-150.18v-1.07Z"/>
    <path class="st5" d="M191.33,135.38c71,0,71,100.02,142,100.02v1.61c-71,0-71-100.02-142-100.02v-1.61Z"/>
    <path class="st5" d="M191.33,125.73c71,0,71,23.28,142,23.28v8.58c-71,0-71-23.28-142-23.28v-8.58Z"/>
    <path class="st6" d="M191.33,162.18c71,0,71,125.53,142,125.53v.54c-71,0-71-125.53-142-125.53v-.54Z"/>
    <path class="st5" d="M191.33,162.71c71,0,71,76.44,142,76.44v1.61c-71,0-71-76.44-142-76.44v-1.61Z"/>
    <path class="st5" d="M191.33,161.1c71,0,71-153.78,142-153.78v1.07c-71,0-71,153.78-142,153.78v-1.07Z"/>
    <path class="st5" d="M353.33,337.57c71,0,71-9.09,142-9.09v1.07c-71,0-71,9.09-142,9.09v-1.07Z"/>
    <path class="st5" d="M353.33,336.5c71,0,71-59.11,142-59.11v1.07c-71,0-71,59.11-142,59.11v-1.07Z"/>
    <path class="st5" d="M353.33,338.64c71,0,71-313.08,142-313.08v1.07c-71,0-71,313.08-142,313.08v-1.07Z"/>
    <path class="st5" d="M353.33,335.42c71,0,71-135.4,142-135.4v1.07c-71,0-71,135.4-142,135.4v-1.07Z"/>
    <path class="st5" d="M353.33,316.65c71,0,71-40.88,142-40.88v1.61c-71,0-71,40.88-142,40.88v-1.61Z"/>
    <path class="st5" d="M353.33,318.26c71,0,71-295.92,142-295.92v2.14c-71,0-71,295.92-142,295.92v-2.14Z"/>
    <path class="st5" d="M353.33,284.49c71,0,71-145.04,142-145.04v32.16c-71,0-71,145.04-142,145.04v-32.16Z"/>
    <path class="st6" d="M353.33,263.81c71,0,71,64.12,142,64.12v.54c-71,0-71-64.12-142-64.12v-.54Z"/>
    <path class="st5" d="M353.33,264.35c71,0,71-239.87,142-239.87v1.07c-71,0-71,239.87-142,239.87v-1.07Z"/>
    <path class="st5" d="M353.33,235.4c71,0,71-63.79,142-63.79v28.41c-71,0-71,63.79-142,63.79v-28.41Z"/>
    <path class="st5" d="M353.33,115.07c71,0,71,183.38,142,183.38v13.94c-71,0-71-183.38-142-183.38v-13.94Z"/>
    <path class="st5" d="M353.33,99.53c71,0,71,121.57,142,121.57v15.55c-71,0-71-121.57-142-121.57v-15.55Z"/>
    <path class="st5" d="M353.33,5.71c71,0,71,39.92,142,39.92v93.81c-71,0-71-39.92-142-39.92V5.71Z"/>
    <path class="st5" d="M353.33,188.14c71,0,71,124.25,142,124.25v15.55c-71,0-71-124.25-142-124.25v-15.55Z"/>
    <path class="st5" d="M353.33,149.01c71,0,71,87.63,142,87.63v39.13c-71,0-71-87.63-142-87.63v-39.13Z"/>
    <path class="st5" d="M353.33,203.69c71,0,71-193.14,142-193.14v11.79c-71,0-71,193.14-142,193.14v-11.79Z"/>
  </g>
  <g>
    <rect class="st2" x="9.33" y="183.41" width="20" height="5.9"/>
    <rect class="st2" x="171.33" y="233.99" width="20" height="9.11"/>
    <rect class="st0" x="171.33" y="210" width="20" height="1.61"/>
    <rect class="st1" x="171.33" y="185.32" width="20" height="2.68"/>
    <rect class="st4" x="171.33" y="125.73" width="20" height="11.26"/>
    <rect class="st3" x="171.33" y="161.1" width="20" height="3.22"/>
    <rect class="st2" x="333.33" y="335.42" width="20" height="4.29"/>
    <rect class="st0" x="333.33" y="284.49" width="20" height="35.92"/>
    <rect class="st1" x="333.33" y="235.4" width="20" height="30.02"/>
    <rect class="st4" x="333.33" y="5.71" width="20" height="123.3"/>
    <rect class="st3" x="333.33" y="149.01" width="20" height="66.47"/>
    <rect class="st0" x="495.33" y="298.45" width="20" height="31.09"/>
    <rect class="st1" x="495.33" y="221.09" width="20" height="57.36"/>
    <rect class="st4" x="495.33" y="10.55" width="20" height="16.08"/>
    <rect class="st3" x="495.33" y="45.63" width="20" height="155.46"/>
  </g>
</svg>