<svg class="main-svg" xmlns="http://www.w3.org/2000/svg" xmlns:xlink="http://www.w3.org/1999/xlink" width="700" height="500" style="" viewBox="0 0 700 500"><rect x="0" y="0" width="700" height="500" style="fill: rgb(255, 255, 255); fill-opacity: 1;"/><defs id="defs-7e40e5"><g class="clips"/><g class="gradients"/><g class="patterns"/></defs><g class="bglayer"/><g class="layer-below"><g class="imagelayer"/><g class="shapelayer"/></g><g class="cartesianlayer"/><g class="polarlayer"/><g class="smithlayer"/><g class="ternarylayer"/><g class="geolayer"/><g class="funnelarealayer"/><g class="pielayer"/><g class="iciclelayer"/><g class="treemaplayer"/><g class="sunburstlayer"/><g class="glimages"/><g class="sankey" transform="translate(80,100)matrix(1 0 0 1 0 0)" style="box-sizing: content-box; position: absolute; left: 0px; shape-rendering: geometricprecision; pointer-events: none;"><g class="sankey-links" style="fill: none;"><path class="sankey-link" d="M64,178.67598253275133C135,178.67598253275133 135,215.09170305672006 206,215.09170305672006L206,219.28384279470953C135,219.28384279470953 135,182.8681222707408 64,182.8681222707408Z" style="stroke: rgb(68, 68, 68); stroke-opacity: 1; fill: rgb(0, 0, 0); fill-opacity: 0.2; stroke-width: 0; opacity: 1;"/><path class="sankey-link" d="M64,182.86812227074074C135,182.86812227074074 135,261.29257641915405 206,261.29257641915405L206,265.4847161571435C135,265.4847161571435 135,187.0602620087302 64,187.0602620087302Z" style="stroke: rgb(68, 68, 68); stroke-opacity: 1; fill: rgb(0, 0, 0); fill-opacity: 0.2; stroke-width: 0; opacity: 1;"/><path class="sankey-link" d="M64,175.53187772925926C135,175.53187772925926 135,96.5764192139683 206,96.5764192139683L206,99.72052401746036C135,99.72052401746036 135,178.67598253275136 64,178.67598253275136Z" style="stroke: rgb(68, 68, 68); stroke-opacity: 1; fill: rgb(0, 0, 0); fill-opacity: 0.2; stroke-width: 0; opacity: 1;"/><path class="sankey-link" d="M64,171.33973799126983C135,171.33973799126983 135,51.42358078603171 206,51.42358078603171L206,55.61572052402114C135,55.61572052402114 135,175.5318777292593 64,175.5318777292593Z" style="stroke: rgb(68, 68, 68); stroke-opacity: 1; fill: rgb(0, 0, 0); fill-opacity: 0.2; stroke-width: 0; opacity: 1;"/><path class="sankey-link" d="M64,228.10829694385635C135,228.10829694385635 135,290.7248908298399 206,290.7248908298399L206,290.72489082994474C135,290.72489082994474 135,228.10829694396116 64,228.10829694396116Z" style="stroke: rgb(0, 0, 0); stroke-opacity: 0.2; fill: rgb(0, 0, 0); fill-opacity: 0.2; stroke-width: 1; opacity: 1;"/><path class="sankey-link" d="M64,228.10829694375155C135,228.10829694375155 135,265.4847161572483 206,265.4847161572483L206,265.4847161573531C135,265.4847161573531 135,228.10829694385637 64,228.10829694385637Z" style="stroke: rgb(0, 0, 0); stroke-opacity: 0.2; fill: rgb(0, 0, 0); fill-opacity: 0.2; stroke-width: 1; opacity: 1;"/><path class="sankey-link" d="M64,228.10829694364676C135,228.10829694364676 135,99.72052401746038 206,99.72052401746038L206,99.72052401756517C135,99.72052401756517 135,228.10829694375158 64,228.10829694375158Z" style="stroke: rgb(0, 0, 0); stroke-opacity: 0.2; fill: rgb(0, 0, 0); fill-opacity: 0.2; stroke-width: 1; opacity: 1;"/><path class="sankey-link" d="M64,228.10829694354197C135,228.10829694354197 135,56.6637554585185 206,56.6637554585185L206,56.66375545862331C135,56.66375545862331 135,228.1082969436468 64,228.1082969436468Z" style="stroke: rgb(0, 0, 0); stroke-opacity: 0.2; fill: rgb(0, 0, 0); fill-opacity: 0.2; stroke-width: 1; opacity: 1;"/><path class="sankey-link" d="M64,248.10829694427557C135,248.10829694427557 135,290.72489082994474 206,290.72489082994474L206,290.72489083004956C135,290.72489083004956 135,248.10829694438038 64,248.10829694438038Z" style="stroke: rgb(0, 0, 0); stroke-opacity: 0.2; fill: rgb(0, 0, 0); fill-opacity: 0.2; stroke-width: 1; opacity: 1;"/><path class="sankey-link" d="M64,248.10829694417077C135,248.10829694417077 135,219.2838427948143 206,219.2838427948143L206,219.2838427949191C135,219.2838427949191 135,248.1082969442756 64,248.1082969442756Z" style="stroke: rgb(0, 0, 0); stroke-opacity: 0.2; fill: rgb(0, 0, 0); fill-opacity: 0.2; stroke-width: 1; opacity: 1;"/><path class="sankey-link" d="M64,248.10829694406598C135,248.10829694406598 135,99.72052401756518 206,99.72052401756518L206,99.72052401766997C135,99.72052401766997 135,248.1082969441708 64,248.1082969441708Z" style="stroke: rgb(0, 0, 0); stroke-opacity: 0.2; fill: rgb(0, 0, 0); fill-opacity: 0.2; stroke-width: 1; opacity: 1;"/><path class="sankey-link" d="M64,248.1082969439612C135,248.1082969439612 135,56.66375545862331 206,56.66375545862331L206,56.66375545872811C135,56.66375545872811 135,248.108296944066 64,248.108296944066Z" style="stroke: rgb(0, 0, 0); stroke-opacity: 0.2; fill: rgb(0, 0, 0); fill-opacity: 0.2; stroke-width: 1; opacity: 1;"/><path class="sankey-link" d="M64,208.10829694343715C135,208.10829694343715 135,290.7248908297351 206,290.7248908297351L206,290.7248908298399C135,290.7248908298399 135,208.10829694354197 64,208.10829694354197Z" style="stroke: rgb(0, 0, 0); stroke-opacity: 0.2; fill: rgb(0, 0, 0); fill-opacity: 0.2; stroke-width: 1; opacity: 1;"/><path class="sankey-link" d="M64,208.10829694322757C135,208.10829694322757 135,219.2838427947095 206,219.2838427947095L206,219.28384279481432C135,219.28384279481432 135,208.1082969433324 64,208.1082969433324Z" style="stroke: rgb(0, 0, 0); stroke-opacity: 0.2; fill: rgb(0, 0, 0); fill-opacity: 0.2; stroke-width: 1; opacity: 1;"/><path class="sankey-link" d="M64,208.10829694333236C135,208.10829694333236 135,265.48471615714345 206,265.48471615714345L206,265.4847161572483C135,265.4847161572483 135,208.10829694343718 64,208.10829694343718Z" style="stroke: rgb(0, 0, 0); stroke-opacity: 0.2; fill: rgb(0, 0, 0); fill-opacity: 0.2; stroke-width: 1; opacity: 1;"/><path class="sankey-link" d="M64,207.0602620087302C135,207.0602620087302 135,55.61572052402114 206,55.61572052402114L206,56.66375545851851C135,56.66375545851851 135,208.10829694322757 64,208.10829694322757Z" style="stroke: rgb(68, 68, 68); stroke-opacity: 1; fill: rgb(0, 0, 0); fill-opacity: 0.2; stroke-width: 0; opacity: 1;"/><path class="sankey-link" d="M64,268.10829694469487C135,268.10829694469487 135,290.72489083004956 206,290.72489083004956L206,290.7248908301544C135,290.7248908301544 135,268.1082969447997 64,268.1082969447997Z" style="stroke: rgb(0, 0, 0); stroke-opacity: 0.2; fill: rgb(0, 0, 0); fill-opacity: 0.2; stroke-width: 1; opacity: 1;"/><path class="sankey-link" d="M64,268.10829694448523C135,268.10829694448523 135,219.28384279491908 206,219.28384279491908L206,219.2838427950239C135,219.2838427950239 135,268.10829694459005 64,268.10829694459005Z" style="stroke: rgb(0, 0, 0); stroke-opacity: 0.2; fill: rgb(0, 0, 0); fill-opacity: 0.2; stroke-width: 1; opacity: 1;"/><path class="sankey-link" d="M64,268.10829694459005C135,268.10829694459005 135,265.4847161573531 206,265.4847161573531L206,265.4847161574579C135,265.4847161574579 135,268.10829694469487 64,268.10829694469487Z" style="stroke: rgb(0, 0, 0); stroke-opacity: 0.2; fill: rgb(0, 0, 0); fill-opacity: 0.2; stroke-width: 1; opacity: 1;"/><path class="sankey-link" d="M64,268.1082969443804C135,268.1082969443804 135,99.72052401766999 206,99.72052401766999L206,99.72052401777478C135,99.72052401777478 135,268.10829694448523 64,268.10829694448523Z" style="stroke: rgb(0, 0, 0); stroke-opacity: 0.2; fill: rgb(0, 0, 0); fill-opacity: 0.2; stroke-width: 1; opacity: 1;"/><path class="sankey-link" d="M226,297.01310043671924C297,297.01310043671924 297,232.24454148465685 368,232.24454148465685L368,235.38864628814895C297,235.38864628814895 297,300.1572052402113 226,300.1572052402113Z" style="stroke: rgb(68, 68, 68); stroke-opacity: 1; fill: rgb(0, 0, 0); fill-opacity: 0.2; stroke-width: 0; opacity: 1;"/><path class="sankey-link" d="M226,300.15720524021134C297,300.15720524021134 297,309.8864628820117 368,309.8864628820117L368,314.07860262000116C297,314.07860262000116 297,304.3493449782008 226,304.3493449782008Z" style="stroke: rgb(68, 68, 68); stroke-opacity: 1; fill: rgb(0, 0, 0); fill-opacity: 0.2; stroke-width: 0; opacity: 1;"/><path class="sankey-link" d="M226,295.9650655022219C297,295.9650655022219 297,130.4978165938628 368,130.4978165938628L368,131.54585152836017C297,131.54585152836017 297,297.0131004367192 226,297.0131004367192Z" style="stroke: rgb(68, 68, 68); stroke-opacity: 1; fill: rgb(0, 0, 0); fill-opacity: 0.2; stroke-width: 0; opacity: 1;"/><path class="sankey-link" d="M226,290.7248908297351C297,290.7248908297351 297,89.53711790391533 368,89.53711790391533L368,94.77729257640213C297,94.77729257640213 297,295.9650655022219 226,295.9650655022219Z" style="stroke: rgb(68, 68, 68); stroke-opacity: 1; fill: rgb(0, 0, 0); fill-opacity: 0.2; stroke-width: 0; opacity: 1;"/><path class="sankey-link" d="M226,240.2445414846567C297,240.2445414846567 297,336.174672488996 368,336.174672488996L368,337.2227074234933C297,337.2227074234933 297,241.29257641915407 226,241.29257641915407Z" style="stroke: rgb(68, 68, 68); stroke-opacity: 1; fill: rgb(0, 0, 0); fill-opacity: 0.2; stroke-width: 0; opacity: 1;"/><path class="sankey-link" d="M226,235.0043668121699C297,235.0043668121699 297,304.6462882095249 368,304.6462882095249L368,309.8864628820117C297,309.8864628820117 297,240.24454148465668 226,240.24454148465668Z" style="stroke: rgb(68, 68, 68); stroke-opacity: 1; fill: rgb(0, 0, 0); fill-opacity: 0.2; stroke-width: 0; opacity: 1;"/><path class="sankey-link" d="M226,228.71615720518574C297,228.71615720518574 297,122.11353711788394 368,122.11353711788394L368,128.40174672486808C297,128.40174672486808 297,235.00436681216988 226,235.00436681216988Z" style="stroke: rgb(68, 68, 68); stroke-opacity: 1; fill: rgb(0, 0, 0); fill-opacity: 0.2; stroke-width: 0; opacity: 1;"/><path class="sankey-link" d="M226,215.09170305672006C297,215.09170305672006 297,69.62445414846552 368,69.62445414846552L368,83.24890829693119C297,83.24890829693119 297,228.7161572051857 226,228.7161572051857Z" style="stroke: rgb(68, 68, 68); stroke-opacity: 1; fill: rgb(0, 0, 0); fill-opacity: 0.2; stroke-width: 0; opacity: 1;"/><path class="sankey-link" d="M226,270.7248908296303C297,270.7248908296303 297,337.2227074234934 368,337.2227074234934L368,337.2227074235982C297,337.2227074235982 297,270.7248908297351 226,270.7248908297351Z" style="stroke: rgb(0, 0, 0); stroke-opacity: 0.2; fill: rgb(0, 0, 0); fill-opacity: 0.2; stroke-width: 1; opacity: 1;"/><path class="sankey-link" d="M226,269.6768558951329C297,269.6768558951329 297,231.19650655015948 368,231.19650655015948L368,232.24454148465685C297,232.24454148465685 297,270.7248908296302 226,270.7248908296302Z" style="stroke: rgb(68, 68, 68); stroke-opacity: 1; fill: rgb(0, 0, 0); fill-opacity: 0.2; stroke-width: 0; opacity: 1;"/><path class="sankey-link" d="M226,267.5807860261382C297,267.5807860261382 297,128.40174672486808 368,128.40174672486808L368,130.4978165938628C297,130.4978165938628 297,269.6768558951329 226,269.6768558951329Z" style="stroke: rgb(68, 68, 68); stroke-opacity: 1; fill: rgb(0, 0, 0); fill-opacity: 0.2; stroke-width: 0; opacity: 1;"/><path class="sankey-link" d="M226,261.29257641915405C297,261.29257641915405 297,83.24890829693118 368,83.24890829693118L368,89.53711790391532C297,89.53711790391532 297,267.58078602613824 226,267.58078602613824Z" style="stroke: rgb(68, 68, 68); stroke-opacity: 1; fill: rgb(0, 0, 0); fill-opacity: 0.2; stroke-width: 0; opacity: 1;"/><path class="sankey-link" d="M226,194.04366812222267C297,194.04366812222267 297,335.12663755449864 368,335.12663755449864L368,336.17467248899595C297,336.17467248899595 297,195.09170305672004 226,195.09170305672004Z" style="stroke: rgb(68, 68, 68); stroke-opacity: 1; fill: rgb(0, 0, 0); fill-opacity: 0.2; stroke-width: 0; opacity: 1;"/><path class="sankey-link" d="M226,148.97816593883624C297,148.97816593883624 297,208.1397379912176 368,208.1397379912176L368,231.19650655015948C297,231.19650655015948 297,172.03493449777812 226,172.03493449777812Z" style="stroke: rgb(68, 68, 68); stroke-opacity: 1; fill: rgb(0, 0, 0); fill-opacity: 0.2; stroke-width: 0; opacity: 1;"/><path class="sankey-link" d="M226,172.03493449777812C297,172.03493449777812 297,282.6375545850804 368,282.6375545850804L368,304.6462882095249C297,304.6462882095249 297,194.04366812222264 226,194.04366812222264Z" style="stroke: rgb(68, 68, 68); stroke-opacity: 1; fill: rgb(0, 0, 0); fill-opacity: 0.2; stroke-width: 0; opacity: 1;"/><path class="sankey-link" d="M226,96.57641921396828C297,96.57641921396828 297,17.22270742359757 368,17.22270742359757L368,69.62445414846552C297,69.62445414846552 297,148.97816593883624 226,148.97816593883624Z" style="stroke: rgb(68, 68, 68); stroke-opacity: 1; fill: rgb(0, 0, 0); fill-opacity: 0.2; stroke-width: 0; opacity: 1;"/><path class="sankey-link" d="M226,75.52838427947097C297,75.52838427947097 297,334.0786026200013 368,334.0786026200013L368,335.1266375544986C297,335.1266375544986 297,76.57641921396834 226,76.57641921396834Z" style="stroke: rgb(68, 68, 68); stroke-opacity: 1; fill: rgb(0, 0, 0); fill-opacity: 0.2; stroke-width: 0; opacity: 1;"/><path class="sankey-link" d="M226,58.75982532751323C297,58.75982532751323 297,200.8034934497361 368,200.8034934497361L368,208.1397379912176C297,208.1397379912176 297,66.09606986899473 226,66.09606986899473Z" style="stroke: rgb(68, 68, 68); stroke-opacity: 1; fill: rgb(0, 0, 0); fill-opacity: 0.2; stroke-width: 0; opacity: 1;"/><path class="sankey-link" d="M226,66.09606986899473C297,66.09606986899473 297,273.20524017460417 368,273.20524017460417L368,282.6375545850804C297,282.6375545850804 297,75.52838427947097 226,75.52838427947097Z" style="stroke: rgb(68, 68, 68); stroke-opacity: 1; fill: rgb(0, 0, 0); fill-opacity: 0.2; stroke-width: 0; opacity: 1;"/><path class="sankey-link" d="M226,51.42358078603171C297,51.42358078603171 297,114.77729257640243 368,114.77729257640243L368,122.11353711788394C297,122.11353711788394 297,58.75982532751321 226,58.75982532751321Z" style="stroke: rgb(68, 68, 68); stroke-opacity: 1; fill: rgb(0, 0, 0); fill-opacity: 0.2; stroke-width: 0; opacity: 1;"/><path class="sankey-link" d="M388,334.0786026202109C459,334.0786026202109 459,209.36244541497237 530,209.36244541497237L530,210.41048034946974C459,210.41048034946974 459,335.1266375547082 388,335.1266375547082Z" style="stroke: rgb(68, 68, 68); stroke-opacity: 1; fill: rgb(0, 0, 0); fill-opacity: 0.2; stroke-width: 0; opacity: 1;"/><path class="sankey-link" d="M388,335.1266375547083C459,335.1266375547083 459,270.23580786036933 530,270.23580786036933L530,271.28384279486664C459,271.28384279486664 459,336.1746724892056 388,336.1746724892056Z" style="stroke: rgb(68, 68, 68); stroke-opacity: 1; fill: rgb(0, 0, 0); fill-opacity: 0.2; stroke-width: 0; opacity: 1;"/><path class="sankey-link" d="M388,334.0786026201061C459,334.0786026201061 459,165.2576419214283 530,165.2576419214283L530,165.25764192153312C459,165.25764192153312 459,334.0786026202109 388,334.0786026202109Z" style="stroke: rgb(0, 0, 0); stroke-opacity: 0.2; fill: rgb(0, 0, 0); fill-opacity: 0.2; stroke-width: 1; opacity: 1;"/><path class="sankey-link" d="M388,334.0786026200013C459,334.0786026200013 459,131.6331877728578 530,131.6331877728578L530,131.63318777296263C459,131.63318777296263 459,334.0786026201061 388,334.0786026201061Z" style="stroke: rgb(0, 0, 0); stroke-opacity: 0.2; fill: rgb(0, 0, 0); fill-opacity: 0.2; stroke-width: 1; opacity: 1;"/><path class="sankey-link" d="M388,250.06113537111196C459,250.06113537111196 459,294.4279475983587 530,294.4279475983587L530,297.5720524018507C459,297.5720524018507 459,253.20524017460406 388,253.20524017460406Z" style="stroke: rgb(68, 68, 68); stroke-opacity: 1; fill: rgb(0, 0, 0); fill-opacity: 0.2; stroke-width: 0; opacity: 1;"/><path class="sankey-link" d="M388,238.53275109164102C459,238.53275109164102 459,258.70742358089836 530,258.70742358089836L530,270.23580786036933C459,270.23580786036933 459,250.061135371112 388,250.061135371112Z" style="stroke: rgb(68, 68, 68); stroke-opacity: 1; fill: rgb(0, 0, 0); fill-opacity: 0.2; stroke-width: 0; opacity: 1;"/><path class="sankey-link" d="M388,231.1965065501595C459,231.1965065501595 459,156.87336244544943 530,156.87336244544943L530,164.20960698693094C459,164.20960698693094 459,238.53275109164102 388,238.53275109164102Z" style="stroke: rgb(68, 68, 68); stroke-opacity: 1; fill: rgb(0, 0, 0); fill-opacity: 0.2; stroke-width: 0; opacity: 1;"/><path class="sankey-link" d="M388,200.8034934497361C459,200.8034934497361 459,95.99999999994759 530,95.99999999994759L530,126.39301310037101C459,126.39301310037101 459,231.19650655015948 388,231.19650655015948Z" style="stroke: rgb(68, 68, 68); stroke-opacity: 1; fill: rgb(0, 0, 0); fill-opacity: 0.2; stroke-width: 0; opacity: 1;"/><path class="sankey-link" d="M388,280.5414847160857C459,280.5414847160857 459,297.5720524018508 530,297.5720524018508L530,297.5720524019556C459,297.5720524019556 459,280.5414847161905 388,280.5414847161905Z" style="stroke: rgb(0, 0, 0); stroke-opacity: 0.2; fill: rgb(0, 0, 0); fill-opacity: 0.2; stroke-width: 1; opacity: 1;"/><path class="sankey-link" d="M388,279.4934497815883C459,279.4934497815883 459,208.314410480475 530,208.314410480475L530,209.36244541497237C459,209.36244541497237 459,280.5414847160856 388,280.5414847160856Z" style="stroke: rgb(68, 68, 68); stroke-opacity: 1; fill: rgb(0, 0, 0); fill-opacity: 0.2; stroke-width: 0; opacity: 1;"/><path class="sankey-link" d="M388,278.44541484709094C459,278.44541484709094 459,164.20960698693094 530,164.20960698693094L530,165.2576419214283C459,165.2576419214283 459,279.49344978158825 388,279.49344978158825Z" style="stroke: rgb(68, 68, 68); stroke-opacity: 1; fill: rgb(0, 0, 0); fill-opacity: 0.2; stroke-width: 0; opacity: 1;"/><path class="sankey-link" d="M388,273.20524017460417C459,273.20524017460417 459,126.393013100371 530,126.393013100371L530,131.63318777285778C459,131.63318777285778 459,278.44541484709094 388,278.44541484709094Z" style="stroke: rgb(68, 68, 68); stroke-opacity: 1; fill: rgb(0, 0, 0); fill-opacity: 0.2; stroke-width: 0; opacity: 1;"/><path class="sankey-link" d="M388,179.7554585152387C459,179.7554585152387 459,293.3799126638613 530,293.3799126638613L530,294.4279475983586C459,294.4279475983586 459,180.80349344973607 388,180.80349344973607Z" style="stroke: rgb(68, 68, 68); stroke-opacity: 1; fill: rgb(0, 0, 0); fill-opacity: 0.2; stroke-width: 0; opacity: 1;"/><path class="sankey-link" d="M388,150.41048034931265C459,150.41048034931265 459,194.68995633200933 530,194.68995633200933L530,208.31441048047498C459,208.31441048047498 459,164.0349344977783 388,164.0349344977783Z" style="stroke: rgb(68, 68, 68); stroke-opacity: 1; fill: rgb(0, 0, 0); fill-opacity: 0.2; stroke-width: 0; opacity: 1;"/><path class="sankey-link" d="M388,164.03493449777832C459,164.03493449777832 459,242.986899563438 530,242.986899563438L530,258.70742358089836C459,258.70742358089836 459,179.7554585152387 388,179.7554585152387Z" style="stroke: rgb(68, 68, 68); stroke-opacity: 1; fill: rgb(0, 0, 0); fill-opacity: 0.2; stroke-width: 0; opacity: 1;"/><path class="sankey-link" d="M388,114.77729257640243C459,114.77729257640243 459,60.36681222703738 530,60.36681222703738L530,95.99999999994759C459,95.99999999994759 459,150.41048034931265 388,150.41048034931265Z" style="stroke: rgb(68, 68, 68); stroke-opacity: 1; fill: rgb(0, 0, 0); fill-opacity: 0.2; stroke-width: 0; opacity: 1;"/><path class="sankey-link" d="M388,44.4716157205289C459,44.4716157205289 459,291.2838427948666 530,291.2838427948666L530,293.3799126638613C459,293.3799126638613 459,46.56768558952362 388,46.56768558952362Z" style="stroke: rgb(68, 68, 68); stroke-opacity: 1; fill: rgb(0, 0, 0); fill-opacity: 0.2; stroke-width: 0; opacity: 1;"/><path class="sankey-link" d="M388,22.462882096084364C459,22.462882096084364 459,185.2576419215331 530,185.2576419215331L530,194.68995633200933C459,194.68995633200933 459,31.895196506560595 388,31.895196506560595Z" style="stroke: rgb(68, 68, 68); stroke-opacity: 1; fill: rgb(0, 0, 0); fill-opacity: 0.2; stroke-width: 0; opacity: 1;"/><path class="sankey-link" d="M388,31.895196506560595C459,31.895196506560595 459,230.4104803494697 530,230.4104803494697L530,242.986899563438C459,242.986899563438 459,44.4716157205289 388,44.4716157205289Z" style="stroke: rgb(68, 68, 68); stroke-opacity: 1; fill: rgb(0, 0, 0); fill-opacity: 0.2; stroke-width: 0; opacity: 1;"/><path class="sankey-link" d="M388,17.22270742359757C459,17.22270742359757 459,151.63318777296263 530,151.63318777296263L530,156.8733624454494C459,156.8733624454494 459,22.462882096084364 388,22.462882096084364Z" style="stroke: rgb(68, 68, 68); stroke-opacity: 1; fill: rgb(0, 0, 0); fill-opacity: 0.2; stroke-width: 0; opacity: 1;"/></g><g class="sankey-node-set" style="cursor: move;"><g class="sankey-node" transform="translate(44.000,171.340)" style="opacity: 1;"><rect class="node-rect" width="20" height="15.720524017460377" style="stroke-width: 0.5; stroke: rgb(68, 68, 68); stroke-opacity: 1; fill: rgb(240, 228, 66); fill-opacity: 1;"/><text class="node-label" data-notex="1" x="0" y="0" text-anchor="start" transform="translate(23.25,12.060262008730188)" style="cursor: default; font-family: 'Open Sans', verdana, arial, sans-serif; font-size: 12px; fill: rgb(42, 63, 95); fill-opacity: 1; text-shadow: rgb(255, 255, 255) 1px 1px 1px, rgb(255, 255, 255) -1px -1px 1px, rgb(255, 255, 255) 1px -1px 1px, rgb(255, 255, 255) -1px 1px 1px; white-space: pre;"></text></g><g class="sankey-node" transform="translate(44.000,228.108)" style="opacity: 1;"><rect class="node-rect" width="20" height="0.5" style="stroke-width: 0.5; stroke: rgb(68, 68, 68); stroke-opacity: 1; fill: rgb(0, 158, 115); fill-opacity: 1;"/><text class="node-label" data-notex="1" x="0" y="0" text-anchor="start" transform="translate(23.25,4.449999999999999)" style="cursor: default; font-family: 'Open Sans', verdana, arial, sans-serif; font-size: 12px; fill: rgb(42, 63, 95); fill-opacity: 1; text-shadow: rgb(255, 255, 255) 1px 1px 1px, rgb(255, 255, 255) -1px -1px 1px, rgb(255, 255, 255) 1px -1px 1px, rgb(255, 255, 255) -1px 1px 1px; white-space: pre;"></text></g><g class="sankey-node" transform="translate(44.000,248.108)" style="opacity: 1;"><rect class="node-rect" width="20" height="0.5" style="stroke-width: 0.5; stroke: rgb(68, 68, 68); stroke-opacity: 1; fill: rgb(213, 94, 0); fill-opacity: 1;"/><text class="node-label" data-notex="1" x="0" y="0" text-anchor="start" transform="translate(23.25,4.449999999999999)" style="cursor: default; font-family: 'Open Sans', verdana, arial, sans-serif; font-size: 12px; fill: rgb(42, 63, 95); fill-opacity: 1; text-shadow: rgb(255, 255, 255) 1px 1px 1px, rgb(255, 255, 255) -1px -1px 1px, rgb(255, 255, 255) 1px -1px 1px, rgb(255, 255, 255) -1px 1px 1px; white-space: pre;"></text></g><g class="sankey-node" transform="translate(44.000,207.060)" style="opacity: 1;"><rect class="node-rect" width="20" height="1.048034934811767" style="stroke-width: 0.5; stroke: rgb(68, 68, 68); stroke-opacity: 1; fill: rgb(230, 159, 0); fill-opacity: 1;"/><text class="node-label" data-notex="1" x="0" y="0" text-anchor="start" transform="translate(23.25,4.724017467405883)" style="cursor: default; font-family: 'Open Sans', verdana, arial, sans-serif; font-size: 12px; fill: rgb(42, 63, 95); fill-opacity: 1; text-shadow: rgb(255, 255, 255) 1px 1px 1px, rgb(255, 255, 255) -1px -1px 1px, rgb(255, 255, 255) 1px -1px 1px, rgb(255, 255, 255) -1px 1px 1px; white-space: pre;"></text></g><g class="sankey-node" transform="translate(44.000,268.108)" style="opacity: 1;"><rect class="node-rect" width="20" height="0.5" style="stroke-width: 0.5; stroke: rgb(68, 68, 68); stroke-opacity: 1; fill: rgb(86, 180, 233); fill-opacity: 1;"/><text class="node-label" data-notex="1" x="0" y="0" text-anchor="start" transform="translate(23.25,4.449999999999999)" style="cursor: default; font-family: 'Open Sans', verdana, arial, sans-serif; font-size: 12px; fill: rgb(42, 63, 95); fill-opacity: 1; text-shadow: rgb(255, 255, 255) 1px 1px 1px, rgb(255, 255, 255) -1px -1px 1px, rgb(255, 255, 255) 1px -1px 1px, rgb(255, 255, 255) -1px 1px 1px; white-space: pre;"></text></g><g class="sankey-node" transform="translate(206.000,290.725)" style="opacity: 1;"><rect class="node-rect" width="20" height="13.624454148465702" style="stroke-width: 0.5; stroke: rgb(68, 68, 68); stroke-opacity: 1; fill: rgb(240, 228, 66); fill-opacity: 1;"/><text class="node-label" data-notex="1" x="0" y="0" text-anchor="start" transform="translate(23.25,11.01222707423285)" style="cursor: default; font-family: 'Open Sans', verdana, arial, sans-serif; font-size: 12px; fill: rgb(42, 63, 95); fill-opacity: 1; text-shadow: rgb(255, 255, 255) 1px 1px 1px, rgb(255, 255, 255) -1px -1px 1px, rgb(255, 255, 255) 1px -1px 1px, rgb(255, 255, 255) -1px 1px 1px; white-space: pre;"></text></g><g class="sankey-node" transform="translate(206.000,215.092)" style="opacity: 1;"><rect class="node-rect" width="20" height="26.20087336243398" style="stroke-width: 0.5; stroke: rgb(68, 68, 68); stroke-opacity: 1; fill: rgb(0, 158, 115); fill-opacity: 1;"/><text class="node-label" data-notex="1" x="0" y="0" text-anchor="start" transform="translate(23.25,17.30043668121699)" style="cursor: default; font-family: 'Open Sans', verdana, arial, sans-serif; font-size: 12px; fill: rgb(42, 63, 95); fill-opacity: 1; text-shadow: rgb(255, 255, 255) 1px 1px 1px, rgb(255, 255, 255) -1px -1px 1px, rgb(255, 255, 255) 1px -1px 1px, rgb(255, 255, 255) -1px 1px 1px; white-space: pre;"></text></g><g class="sankey-node" transform="translate(206.000,261.293)" style="opacity: 1;"><rect class="node-rect" width="20" height="9.432314410581057" style="stroke-width: 0.5; stroke: rgb(68, 68, 68); stroke-opacity: 1; fill: rgb(213, 94, 0); fill-opacity: 1;"/><text class="node-label" data-notex="1" x="0" y="0" text-anchor="start" transform="translate(23.25,8.916157205290528)" style="cursor: default; font-family: 'Open Sans', verdana, arial, sans-serif; font-size: 12px; fill: rgb(42, 63, 95); fill-opacity: 1; text-shadow: rgb(255, 255, 255) 1px 1px 1px, rgb(255, 255, 255) -1px -1px 1px, rgb(255, 255, 255) 1px -1px 1px, rgb(255, 255, 255) -1px 1px 1px; white-space: pre;"></text></g><g class="sankey-node" transform="translate(206.000,96.576)" style="opacity: 1;"><rect class="node-rect" width="20" height="98.51528384275177" style="stroke-width: 0.5; stroke: rgb(68, 68, 68); stroke-opacity: 1; fill: rgb(230, 159, 0); fill-opacity: 1;"/><text class="node-label" data-notex="1" x="0" y="0" text-anchor="start" transform="translate(23.25,53.45764192137588)" style="cursor: default; font-family: 'Open Sans', verdana, arial, sans-serif; font-size: 12px; fill: rgb(42, 63, 95); fill-opacity: 1; text-shadow: rgb(255, 255, 255) 1px 1px 1px, rgb(255, 255, 255) -1px -1px 1px, rgb(255, 255, 255) 1px -1px 1px, rgb(255, 255, 255) -1px 1px 1px; white-space: pre;"></text></g><g class="sankey-node" transform="translate(206.000,51.424)" style="opacity: 1;"><rect class="node-rect" width="20" height="25.152838427936587" style="stroke-width: 0.5; stroke: rgb(68, 68, 68); stroke-opacity: 1; fill: rgb(86, 180, 233); fill-opacity: 1;"/><text class="node-label" data-notex="1" x="0" y="0" text-anchor="start" transform="translate(23.25,16.776419213968293)" style="cursor: default; font-family: 'Open Sans', verdana, arial, sans-serif; font-size: 12px; fill: rgb(42, 63, 95); fill-opacity: 1; text-shadow: rgb(255, 255, 255) 1px 1px 1px, rgb(255, 255, 255) -1px -1px 1px, rgb(255, 255, 255) 1px -1px 1px, rgb(255, 255, 255) -1px 1px 1px; white-space: pre;"></text></g><g class="sankey-node" transform="translate(368.000,334.079)" style="opacity: 1;"><rect class="node-rect" width="20" height="3.1441048035968606" style="stroke-width: 0.5; stroke: rgb(68, 68, 68); stroke-opacity: 1; fill: rgb(240, 228, 66); fill-opacity: 1;"/><text class="node-label" data-notex="1" x="0" y="0" text-anchor="start" transform="translate(23.25,5.77205240179843)" style="cursor: default; font-family: 'Open Sans', verdana, arial, sans-serif; font-size: 12px; fill: rgb(42, 63, 95); fill-opacity: 1; text-shadow: rgb(255, 255, 255) 1px 1px 1px, rgb(255, 255, 255) -1px -1px 1px, rgb(255, 255, 255) 1px -1px 1px, rgb(255, 255, 255) -1px 1px 1px; white-space: pre;"></text></g><g class="sankey-node" transform="translate(368.000,200.803)" style="opacity: 1;"><rect class="node-rect" width="20" height="52.401746724868076" style="stroke-width: 0.5; stroke: rgb(68, 68, 68); stroke-opacity: 1; fill: rgb(0, 158, 115); fill-opacity: 1;"/><text class="node-label" data-notex="1" x="0" y="0" text-anchor="start" transform="translate(23.25,30.400873362434037)" style="cursor: default; font-family: 'Open Sans', verdana, arial, sans-serif; font-size: 12px; fill: rgb(42, 63, 95); fill-opacity: 1; text-shadow: rgb(255, 255, 255) 1px 1px 1px, rgb(255, 255, 255) -1px -1px 1px, rgb(255, 255, 255) 1px -1px 1px, rgb(255, 255, 255) -1px 1px 1px; white-space: pre;"></text></g><g class="sankey-node" transform="translate(368.000,273.205)" style="opacity: 1;"><rect class="node-rect" width="20" height="40.873362445397106" style="stroke-width: 0.5; stroke: rgb(68, 68, 68); stroke-opacity: 1; fill: rgb(213, 94, 0); fill-opacity: 1;"/><text class="node-label" data-notex="1" x="0" y="0" text-anchor="start" transform="translate(23.25,24.636681222698552)" style="cursor: default; font-family: 'Open Sans', verdana, arial, sans-serif; font-size: 12px; fill: rgb(42, 63, 95); fill-opacity: 1; text-shadow: rgb(255, 255, 255) 1px 1px 1px, rgb(255, 255, 255) -1px -1px 1px, rgb(255, 255, 255) 1px -1px 1px, rgb(255, 255, 255) -1px 1px 1px; white-space: pre;"></text></g><g class="sankey-node" transform="translate(368.000,114.777)" style="opacity: 1;"><rect class="node-rect" width="20" height="66.02620087333364" style="stroke-width: 0.5; stroke: rgb(68, 68, 68); stroke-opacity: 1; fill: rgb(230, 159, 0); fill-opacity: 1;"/><text class="node-label" data-notex="1" x="0" y="0" text-anchor="start" transform="translate(23.25,37.21310043666682)" style="cursor: default; font-family: 'Open Sans', verdana, arial, sans-serif; font-size: 12px; fill: rgb(42, 63, 95); fill-opacity: 1; text-shadow: rgb(255, 255, 255) 1px 1px 1px, rgb(255, 255, 255) -1px -1px 1px, rgb(255, 255, 255) 1px -1px 1px, rgb(255, 255, 255) -1px 1px 1px; white-space: pre;"></text></g><g class="sankey-node" transform="translate(368.000,17.223)" style="opacity: 1;"><rect class="node-rect" width="20" height="77.55458515280486" style="stroke-width: 0.5; stroke: rgb(68, 68, 68); stroke-opacity: 1; fill: rgb(86, 180, 233); fill-opacity: 1;"/><text class="node-label" data-notex="1" x="0" y="0" text-anchor="start" transform="translate(23.25,42.977292576402434)" style="cursor: default; font-family: 'Open Sans', verdana, arial, sans-serif; font-size: 12px; fill: rgb(42, 63, 95); fill-opacity: 1; text-shadow: rgb(255, 255, 255) 1px 1px 1px, rgb(255, 255, 255) -1px -1px 1px, rgb(255, 255, 255) 1px -1px 1px, rgb(255, 255, 255) -1px 1px 1px; white-space: pre;"></text></g><g class="sankey-node" transform="translate(530.000,291.284)" style="opacity: 1;"><rect class="node-rect" width="20" height="6.288209607088959" style="stroke-width: 0.5; stroke: rgb(68, 68, 68); stroke-opacity: 1; fill: rgb(240, 228, 66); fill-opacity: 1;"/><text class="node-label" data-notex="1" x="0" y="0" text-anchor="end" transform="translate(-3.25,7.344104803544479)" style="cursor: default; font-family: 'Open Sans', verdana, arial, sans-serif; font-size: 12px; fill: rgb(42, 63, 95); fill-opacity: 1; text-shadow: rgb(255, 255, 255) 1px 1px 1px, rgb(255, 255, 255) -1px -1px 1px, rgb(255, 255, 255) 1px -1px 1px, rgb(255, 255, 255) -1px 1px 1px; white-space: pre;"></text></g><g class="sankey-node" transform="translate(530.000,185.258)" style="opacity: 1;"><rect class="node-rect" width="20" height="25.152838427936587" style="stroke-width: 0.5; stroke: rgb(68, 68, 68); stroke-opacity: 1; fill: rgb(0, 158, 115); fill-opacity: 1;"/><text class="node-label" data-notex="1" x="0" y="0" text-anchor="end" transform="translate(-3.25,16.776419213968293)" style="cursor: default; font-family: 'Open Sans', verdana, arial, sans-serif; font-size: 12px; fill: rgb(42, 63, 95); fill-opacity: 1; text-shadow: rgb(255, 255, 255) 1px 1px 1px, rgb(255, 255, 255) -1px -1px 1px, rgb(255, 255, 255) 1px -1px 1px, rgb(255, 255, 255) -1px 1px 1px; white-space: pre;"></text></g><g class="sankey-node" transform="translate(530.000,230.410)" style="opacity: 1;"><rect class="node-rect" width="20" height="40.87336244539691" style="stroke-width: 0.5; stroke: rgb(68, 68, 68); stroke-opacity: 1; fill: rgb(213, 94, 0); fill-opacity: 1;"/><text class="node-label" data-notex="1" x="0" y="0" text-anchor="end" transform="translate(-3.25,24.636681222698453)" style="cursor: default; font-family: 'Open Sans', verdana, arial, sans-serif; font-size: 12px; fill: rgb(42, 63, 95); fill-opacity: 1; text-shadow: rgb(255, 255, 255) 1px 1px 1px, rgb(255, 255, 255) -1px -1px 1px, rgb(255, 255, 255) 1px -1px 1px, rgb(255, 255, 255) -1px 1px 1px; white-space: pre;"></text></g><g class="sankey-node" transform="translate(530.000,151.633)" style="opacity: 1;"><rect class="node-rect" width="20" height="13.624454148570464" style="stroke-width: 0.5; stroke: rgb(68, 68, 68); stroke-opacity: 1; fill: rgb(230, 159, 0); fill-opacity: 1;"/><text class="node-label" data-notex="1" x="0" y="0" text-anchor="end" transform="translate(-3.25,11.012227074285232)" style="cursor: default; font-family: 'Open Sans', verdana, arial, sans-serif; font-size: 12px; fill: rgb(42, 63, 95); fill-opacity: 1; text-shadow: rgb(255, 255, 255) 1px 1px 1px, rgb(255, 255, 255) -1px -1px 1px, rgb(255, 255, 255) 1px -1px 1px, rgb(255, 255, 255) -1px 1px 1px; white-space: pre;"></text></g><g class="sankey-node" transform="translate(530.000,60.367)" style="opacity: 1;"><rect class="node-rect" width="20" height="71.26637554592524" style="stroke-width: 0.5; stroke: rgb(68, 68, 68); stroke-opacity: 1; fill: rgb(86, 180, 233); fill-opacity: 1;"/><text class="node-label" data-notex="1" x="0" y="0" text-anchor="end" transform="translate(-3.25,39.83318777296262)" style="cursor: default; font-family: 'Open Sans', verdana, arial, sans-serif; font-size: 12px; fill: rgb(42, 63, 95); fill-opacity: 1; text-shadow: rgb(255, 255, 255) 1px 1px 1px, rgb(255, 255, 255) -1px -1px 1px, rgb(255, 255, 255) 1px -1px 1px, rgb(255, 255, 255) -1px 1px 1px; white-space: pre;"></text></g></g></g><defs id="topdefs-7e40e5"><g class="clips"/></defs><g class="layer-above"><g class="imagelayer"/><g class="shapelayer"/></g><g class="infolayer"><g class="g-gtitle"/><g class="first-render"/></g></svg>