<svg class="main-svg" xmlns="http://www.w3.org/2000/svg" xmlns:xlink="http://www.w3.org/1999/xlink" width="700" height="500" style="" viewBox="0 0 700 500"><rect x="0" y="0" width="700" height="500" style="fill: rgb(255, 255, 255); fill-opacity: 1;"/><defs id="defs-cd8674"><g class="clips"/><g class="gradients"/><g class="patterns"/></defs><g class="bglayer"/><g class="layer-below"><g class="imagelayer"/><g class="shapelayer"/></g><g class="cartesianlayer"/><g class="polarlayer"/><g class="smithlayer"/><g class="ternarylayer"/><g class="geolayer"/><g class="funnelarealayer"/><g class="pielayer"/><g class="iciclelayer"/><g class="treemaplayer"/><g class="sunburstlayer"/><g class="glimages"/><g class="sankey" transform="translate(80,100)matrix(1 0 0 1 0 0)" style="box-sizing: content-box; position: absolute; left: 0px; shape-rendering: geometricprecision; pointer-events: none;"><g class="sankey-links" style="fill: none;"><path class="sankey-link" d="M64,179.2C135,179.2 135,215.09170305672006 206,215.09170305672006L206,219.28384279470953C135,219.28384279470953 135,183.39213973798945 64,183.39213973798945Z" style="stroke: rgb(68, 68, 68); stroke-opacity: 1; fill: rgb(0, 0, 0); fill-opacity: 0.2; stroke-width: 0; opacity: 1;"/><path class="sankey-link" d="M64,183.39213973798945C135,183.39213973798945 135,261.29257641915405 206,261.29257641915405L206,265.4847161571435C135,265.4847161571435 135,187.58427947597892 64,187.58427947597892Z" style="stroke: rgb(68, 68, 68); stroke-opacity: 1; fill: rgb(0, 0, 0); fill-opacity: 0.2; stroke-width: 0; opacity: 1;"/><path class="sankey-link" d="M64,176.05589519650795C135,176.05589519650795 135,96.5764192139683 206,96.5764192139683L206,99.72052401746036C135,99.72052401746036 135,179.20000000000005 64,179.20000000000005Z" style="stroke: rgb(68, 68, 68); stroke-opacity: 1; fill: rgb(0, 0, 0); fill-opacity: 0.2; stroke-width: 0; opacity: 1;"/><path class="sankey-link" d="M64,170.81572052402115C135,170.81572052402115 135,51.42358078603171 206,51.42358078603171L206,56.66375545851851C135,56.66375545851851 135,176.05589519650792 64,176.05589519650792Z" style="stroke: rgb(68, 68, 68); stroke-opacity: 1; fill: rgb(0, 0, 0); fill-opacity: 0.2; stroke-width: 0; opacity: 1;"/><path class="sankey-link" d="M64,228.63231441110503C135,228.63231441110503 135,290.72489082983986 206,290.72489082983986L206,290.7248908299447C135,290.7248908299447 135,228.63231441120985 64,228.63231441120985Z" style="stroke: rgb(0, 0, 0); stroke-opacity: 0.2; fill: rgb(0, 0, 0); fill-opacity: 0.2; stroke-width: 1; opacity: 1;"/><path class="sankey-link" d="M64,228.63231441100024C135,228.63231441100024 135,265.4847161572483 206,265.4847161572483L206,265.4847161573531C135,265.4847161573531 135,228.63231441110506 64,228.63231441110506Z" style="stroke: rgb(0, 0, 0); stroke-opacity: 0.2; fill: rgb(0, 0, 0); fill-opacity: 0.2; stroke-width: 1; opacity: 1;"/><path class="sankey-link" d="M64,228.63231441089545C135,228.63231441089545 135,99.72052401746038 206,99.72052401746038L206,99.72052401756517C135,99.72052401756517 135,228.63231441100027 64,228.63231441100027Z" style="stroke: rgb(0, 0, 0); stroke-opacity: 0.2; fill: rgb(0, 0, 0); fill-opacity: 0.2; stroke-width: 1; opacity: 1;"/><path class="sankey-link" d="M64,228.63231441079066C135,228.63231441079066 135,57.71179039301586 206,57.71179039301586L206,57.711790393120665C135,57.711790393120665 135,228.63231441089548 64,228.63231441089548Z" style="stroke: rgb(0, 0, 0); stroke-opacity: 0.2; fill: rgb(0, 0, 0); fill-opacity: 0.2; stroke-width: 1; opacity: 1;"/><path class="sankey-link" d="M64,248.63231441152425C135,248.63231441152425 135,290.7248908299447 206,290.7248908299447L206,290.7248908300495C135,290.7248908300495 135,248.63231441162907 64,248.63231441162907Z" style="stroke: rgb(0, 0, 0); stroke-opacity: 0.2; fill: rgb(0, 0, 0); fill-opacity: 0.2; stroke-width: 1; opacity: 1;"/><path class="sankey-link" d="M64,248.63231441141946C135,248.63231441141946 135,219.2838427948143 206,219.2838427948143L206,219.2838427949191C135,219.2838427949191 135,248.63231441152428 64,248.63231441152428Z" style="stroke: rgb(0, 0, 0); stroke-opacity: 0.2; fill: rgb(0, 0, 0); fill-opacity: 0.2; stroke-width: 1; opacity: 1;"/><path class="sankey-link" d="M64,248.63231441131467C135,248.63231441131467 135,99.72052401756518 206,99.72052401756518L206,99.72052401766997C135,99.72052401766997 135,248.6323144114195 64,248.6323144114195Z" style="stroke: rgb(0, 0, 0); stroke-opacity: 0.2; fill: rgb(0, 0, 0); fill-opacity: 0.2; stroke-width: 1; opacity: 1;"/><path class="sankey-link" d="M64,248.63231441120988C135,248.63231441120988 135,57.711790393120665 206,57.711790393120665L206,57.71179039322547C135,57.71179039322547 135,248.6323144113147 64,248.6323144113147Z" style="stroke: rgb(0, 0, 0); stroke-opacity: 0.2; fill: rgb(0, 0, 0); fill-opacity: 0.2; stroke-width: 1; opacity: 1;"/><path class="sankey-link" d="M64,208.63231441068584C135,208.63231441068584 135,290.72489082973505 206,290.72489082973505L206,290.72489082983986C135,290.72489082983986 135,208.63231441079066 64,208.63231441079066Z" style="stroke: rgb(0, 0, 0); stroke-opacity: 0.2; fill: rgb(0, 0, 0); fill-opacity: 0.2; stroke-width: 1; opacity: 1;"/><path class="sankey-link" d="M64,208.63231441047625C135,208.63231441047625 135,219.2838427947095 206,219.2838427947095L206,219.28384279481432C135,219.28384279481432 135,208.63231441058107 64,208.63231441058107Z" style="stroke: rgb(0, 0, 0); stroke-opacity: 0.2; fill: rgb(0, 0, 0); fill-opacity: 0.2; stroke-width: 1; opacity: 1;"/><path class="sankey-link" d="M64,208.63231441058105C135,208.63231441058105 135,265.48471615714345 206,265.48471615714345L206,265.4847161572483C135,265.4847161572483 135,208.63231441068586 64,208.63231441068586Z" style="stroke: rgb(0, 0, 0); stroke-opacity: 0.2; fill: rgb(0, 0, 0); fill-opacity: 0.2; stroke-width: 1; opacity: 1;"/><path class="sankey-link" d="M64,207.5842794759789C135,207.5842794759789 135,56.663755458518494 206,56.663755458518494L206,57.71179039301586C135,57.71179039301586 135,208.63231441047625 64,208.63231441047625Z" style="stroke: rgb(68, 68, 68); stroke-opacity: 1; fill: rgb(0, 0, 0); fill-opacity: 0.2; stroke-width: 0; opacity: 1;"/><path class="sankey-link" d="M64,268.6323144119435C135,268.6323144119435 135,290.7248908300495 206,290.7248908300495L206,290.7248908301543C135,290.7248908301543 135,268.63231441204834 64,268.63231441204834Z" style="stroke: rgb(0, 0, 0); stroke-opacity: 0.2; fill: rgb(0, 0, 0); fill-opacity: 0.2; stroke-width: 1; opacity: 1;"/><path class="sankey-link" d="M64,268.6323144117339C135,268.6323144117339 135,219.28384279491908 206,219.28384279491908L206,219.2838427950239C135,219.2838427950239 135,268.6323144118387 64,268.6323144118387Z" style="stroke: rgb(0, 0, 0); stroke-opacity: 0.2; fill: rgb(0, 0, 0); fill-opacity: 0.2; stroke-width: 1; opacity: 1;"/><path class="sankey-link" d="M64,268.6323144118387C135,268.6323144118387 135,265.4847161573531 206,265.4847161573531L206,265.4847161574579C135,265.4847161574579 135,268.6323144119435 64,268.6323144119435Z" style="stroke: rgb(0, 0, 0); stroke-opacity: 0.2; fill: rgb(0, 0, 0); fill-opacity: 0.2; stroke-width: 1; opacity: 1;"/><path class="sankey-link" d="M64,268.63231441162907C135,268.63231441162907 135,99.72052401766999 206,99.72052401766999L206,99.72052401777478C135,99.72052401777478 135,268.6323144117339 64,268.6323144117339Z" style="stroke: rgb(0, 0, 0); stroke-opacity: 0.2; fill: rgb(0, 0, 0); fill-opacity: 0.2; stroke-width: 1; opacity: 1;"/><path class="sankey-link" d="M226,297.0131004367192C297,297.0131004367192 297,232.2445414846565 368,232.2445414846565L368,235.3886462881486C297,235.3886462881486 297,300.1572052402112 226,300.1572052402112Z" style="stroke: rgb(68, 68, 68); stroke-opacity: 1; fill: rgb(0, 0, 0); fill-opacity: 0.2; stroke-width: 0; opacity: 1;"/><path class="sankey-link" d="M226,300.1572052402113C297,300.1572052402113 297,309.8864628820111 368,309.8864628820111L368,314.07860262000054C297,314.07860262000054 297,304.34934497820075 226,304.34934497820075Z" style="stroke: rgb(68, 68, 68); stroke-opacity: 1; fill: rgb(0, 0, 0); fill-opacity: 0.2; stroke-width: 0; opacity: 1;"/><path class="sankey-link" d="M226,295.9650655022218C297,295.9650655022218 297,130.49781659386264 368,130.49781659386264L368,131.54585152836C297,131.54585152836 297,297.0131004367191 226,297.0131004367191Z" style="stroke: rgb(68, 68, 68); stroke-opacity: 1; fill: rgb(0, 0, 0); fill-opacity: 0.2; stroke-width: 0; opacity: 1;"/><path class="sankey-link" d="M226,290.72489082973505C297,290.72489082973505 297,89.5371179039155 368,89.5371179039155L368,94.7772925764023C297,94.7772925764023 297,295.9650655022218 226,295.9650655022218Z" style="stroke: rgb(68, 68, 68); stroke-opacity: 1; fill: rgb(0, 0, 0); fill-opacity: 0.2; stroke-width: 0; opacity: 1;"/><path class="sankey-link" d="M226,240.2445414846567C297,240.2445414846567 297,336.17467248899516 368,336.17467248899516L368,337.22270742349247C297,337.22270742349247 297,241.29257641915407 226,241.29257641915407Z" style="stroke: rgb(68, 68, 68); stroke-opacity: 1; fill: rgb(0, 0, 0); fill-opacity: 0.2; stroke-width: 0; opacity: 1;"/><path class="sankey-link" d="M226,235.0043668121699C297,235.0043668121699 297,304.6462882095243 368,304.6462882095243L368,309.8864628820111C297,309.8864628820111 297,240.24454148465668 226,240.24454148465668Z" style="stroke: rgb(68, 68, 68); stroke-opacity: 1; fill: rgb(0, 0, 0); fill-opacity: 0.2; stroke-width: 0; opacity: 1;"/><path class="sankey-link" d="M226,228.71615720518574C297,228.71615720518574 297,122.11353711788377 368,122.11353711788377L368,128.4017467248679C297,128.4017467248679 297,235.00436681216988 226,235.00436681216988Z" style="stroke: rgb(68, 68, 68); stroke-opacity: 1; fill: rgb(0, 0, 0); fill-opacity: 0.2; stroke-width: 0; opacity: 1;"/><path class="sankey-link" d="M226,215.09170305672006C297,215.09170305672006 297,69.62445414846569 368,69.62445414846569L368,83.24890829693136C297,83.24890829693136 297,228.7161572051857 226,228.7161572051857Z" style="stroke: rgb(68, 68, 68); stroke-opacity: 1; fill: rgb(0, 0, 0); fill-opacity: 0.2; stroke-width: 0; opacity: 1;"/><path class="sankey-link" d="M226,270.7248908296303C297,270.7248908296303 297,337.2227074234925 368,337.2227074234925L368,337.22270742359734C297,337.22270742359734 297,270.7248908297351 226,270.7248908297351Z" style="stroke: rgb(0, 0, 0); stroke-opacity: 0.2; fill: rgb(0, 0, 0); fill-opacity: 0.2; stroke-width: 1; opacity: 1;"/><path class="sankey-link" d="M226,269.6768558951329C297,269.6768558951329 297,231.19650655015914 368,231.19650655015914L368,232.2445414846565C297,232.2445414846565 297,270.7248908296302 226,270.7248908296302Z" style="stroke: rgb(68, 68, 68); stroke-opacity: 1; fill: rgb(0, 0, 0); fill-opacity: 0.2; stroke-width: 0; opacity: 1;"/><path class="sankey-link" d="M226,267.5807860261382C297,267.5807860261382 297,128.4017467248679 368,128.4017467248679L368,130.49781659386264C297,130.49781659386264 297,269.6768558951329 226,269.6768558951329Z" style="stroke: rgb(68, 68, 68); stroke-opacity: 1; fill: rgb(0, 0, 0); fill-opacity: 0.2; stroke-width: 0; opacity: 1;"/><path class="sankey-link" d="M226,261.29257641915405C297,261.29257641915405 297,83.24890829693135 368,83.24890829693135L368,89.53711790391549C297,89.53711790391549 297,267.58078602613824 226,267.58078602613824Z" style="stroke: rgb(68, 68, 68); stroke-opacity: 1; fill: rgb(0, 0, 0); fill-opacity: 0.2; stroke-width: 0; opacity: 1;"/><path class="sankey-link" d="M226,194.04366812222267C297,194.04366812222267 297,335.1266375544978 368,335.1266375544978L368,336.1746724889951C297,336.1746724889951 297,195.09170305672004 226,195.09170305672004Z" style="stroke: rgb(68, 68, 68); stroke-opacity: 1; fill: rgb(0, 0, 0); fill-opacity: 0.2; stroke-width: 0; opacity: 1;"/><path class="sankey-link" d="M226,148.97816593883624C297,148.97816593883624 297,208.13973799121726 368,208.13973799121726L368,231.19650655015914C297,231.19650655015914 297,172.03493449777812 226,172.03493449777812Z" style="stroke: rgb(68, 68, 68); stroke-opacity: 1; fill: rgb(0, 0, 0); fill-opacity: 0.2; stroke-width: 0; opacity: 1;"/><path class="sankey-link" d="M226,172.03493449777812C297,172.03493449777812 297,282.6375545850798 368,282.6375545850798L368,304.6462882095243C297,304.6462882095243 297,194.04366812222264 226,194.04366812222264Z" style="stroke: rgb(68, 68, 68); stroke-opacity: 1; fill: rgb(0, 0, 0); fill-opacity: 0.2; stroke-width: 0; opacity: 1;"/><path class="sankey-link" d="M226,96.57641921396828C297,96.57641921396828 297,17.22270742359774 368,17.22270742359774L368,69.62445414846569C297,69.62445414846569 297,148.97816593883624 226,148.97816593883624Z" style="stroke: rgb(68, 68, 68); stroke-opacity: 1; fill: rgb(0, 0, 0); fill-opacity: 0.2; stroke-width: 0; opacity: 1;"/><path class="sankey-link" d="M226,75.52838427947097C297,75.52838427947097 297,334.0786026200004 368,334.0786026200004L368,335.12663755449773C297,335.12663755449773 297,76.57641921396834 226,76.57641921396834Z" style="stroke: rgb(68, 68, 68); stroke-opacity: 1; fill: rgb(0, 0, 0); fill-opacity: 0.2; stroke-width: 0; opacity: 1;"/><path class="sankey-link" d="M226,58.75982532751323C297,58.75982532751323 297,200.80349344973575 368,200.80349344973575L368,208.13973799121726C297,208.13973799121726 297,66.09606986899473 226,66.09606986899473Z" style="stroke: rgb(68, 68, 68); stroke-opacity: 1; fill: rgb(0, 0, 0); fill-opacity: 0.2; stroke-width: 0; opacity: 1;"/><path class="sankey-link" d="M226,66.09606986899473C297,66.09606986899473 297,273.20524017460355 368,273.20524017460355L368,282.6375545850798C297,282.6375545850798 297,75.52838427947097 226,75.52838427947097Z" style="stroke: rgb(68, 68, 68); stroke-opacity: 1; fill: rgb(0, 0, 0); fill-opacity: 0.2; stroke-width: 0; opacity: 1;"/><path class="sankey-link" d="M226,51.42358078603171C297,51.42358078603171 297,114.77729257640226 368,114.77729257640226L368,122.11353711788377C297,122.11353711788377 297,58.75982532751321 226,58.75982532751321Z" style="stroke: rgb(68, 68, 68); stroke-opacity: 1; fill: rgb(0, 0, 0); fill-opacity: 0.2; stroke-width: 0; opacity: 1;"/><path class="sankey-link" d="M388,334.07860262021006C459,334.07860262021006 459,209.36244541497229 530,209.36244541497229L530,210.41048034946965C459,210.41048034946965 459,335.1266375547074 388,335.1266375547074Z" style="stroke: rgb(68, 68, 68); stroke-opacity: 1; fill: rgb(0, 0, 0); fill-opacity: 0.2; stroke-width: 0; opacity: 1;"/><path class="sankey-link" d="M388,335.12663755470743C459,335.12663755470743 459,270.2358078603693 530,270.2358078603693L530,271.2838427948666C459,271.2838427948666 459,336.17467248920474 388,336.17467248920474Z" style="stroke: rgb(68, 68, 68); stroke-opacity: 1; fill: rgb(0, 0, 0); fill-opacity: 0.2; stroke-width: 0; opacity: 1;"/><path class="sankey-link" d="M388,334.07860262010524C459,334.07860262010524 459,165.25764192142822 530,165.25764192142822L530,165.25764192153304C459,165.25764192153304 459,334.07860262021006 388,334.07860262021006Z" style="stroke: rgb(0, 0, 0); stroke-opacity: 0.2; fill: rgb(0, 0, 0); fill-opacity: 0.2; stroke-width: 1; opacity: 1;"/><path class="sankey-link" d="M388,334.0786026200004C459,334.0786026200004 459,131.63318777285787 530,131.63318777285787L530,131.63318777296269C459,131.63318777296269 459,334.07860262010524 388,334.07860262010524Z" style="stroke: rgb(0, 0, 0); stroke-opacity: 0.2; fill: rgb(0, 0, 0); fill-opacity: 0.2; stroke-width: 1; opacity: 1;"/><path class="sankey-link" d="M388,250.06113537111162C459,250.06113537111162 459,294.42794759835874 530,294.42794759835874L530,297.5720524018508C459,297.5720524018508 459,253.20524017460372 388,253.20524017460372Z" style="stroke: rgb(68, 68, 68); stroke-opacity: 1; fill: rgb(0, 0, 0); fill-opacity: 0.2; stroke-width: 0; opacity: 1;"/><path class="sankey-link" d="M388,238.53275109164068C459,238.53275109164068 459,258.7074235808983 530,258.7074235808983L530,270.2358078603693C459,270.2358078603693 459,250.06113537111165 388,250.06113537111165Z" style="stroke: rgb(68, 68, 68); stroke-opacity: 1; fill: rgb(0, 0, 0); fill-opacity: 0.2; stroke-width: 0; opacity: 1;"/><path class="sankey-link" d="M388,231.19650655015917C459,231.19650655015917 459,156.87336244544935 530,156.87336244544935L530,164.20960698693085C459,164.20960698693085 459,238.53275109164068 388,238.53275109164068Z" style="stroke: rgb(68, 68, 68); stroke-opacity: 1; fill: rgb(0, 0, 0); fill-opacity: 0.2; stroke-width: 0; opacity: 1;"/><path class="sankey-link" d="M388,200.80349344973575C459,200.80349344973575 459,95.99999999994766 530,95.99999999994766L530,126.39301310037108C459,126.39301310037108 459,231.19650655015914 388,231.19650655015914Z" style="stroke: rgb(68, 68, 68); stroke-opacity: 1; fill: rgb(0, 0, 0); fill-opacity: 0.2; stroke-width: 0; opacity: 1;"/><path class="sankey-link" d="M388,280.54148471608505C459,280.54148471608505 459,297.57205240185084 530,297.57205240185084L530,297.57205240195566C459,297.57205240195566 459,280.54148471618987 388,280.54148471618987Z" style="stroke: rgb(0, 0, 0); stroke-opacity: 0.2; fill: rgb(0, 0, 0); fill-opacity: 0.2; stroke-width: 1; opacity: 1;"/><path class="sankey-link" d="M388,279.4934497815877C459,279.4934497815877 459,208.31441048047492 530,208.31441048047492L530,209.36244541497229C459,209.36244541497229 459,280.541484716085 388,280.541484716085Z" style="stroke: rgb(68, 68, 68); stroke-opacity: 1; fill: rgb(0, 0, 0); fill-opacity: 0.2; stroke-width: 0; opacity: 1;"/><path class="sankey-link" d="M388,278.4454148470903C459,278.4454148470903 459,164.20960698693085 530,164.20960698693085L530,165.25764192142822C459,165.25764192142822 459,279.49344978158763 388,279.49344978158763Z" style="stroke: rgb(68, 68, 68); stroke-opacity: 1; fill: rgb(0, 0, 0); fill-opacity: 0.2; stroke-width: 0; opacity: 1;"/><path class="sankey-link" d="M388,273.20524017460355C459,273.20524017460355 459,126.39301310037105 530,126.39301310037105L530,131.63318777285784C459,131.63318777285784 459,278.4454148470903 388,278.4454148470903Z" style="stroke: rgb(68, 68, 68); stroke-opacity: 1; fill: rgb(0, 0, 0); fill-opacity: 0.2; stroke-width: 0; opacity: 1;"/><path class="sankey-link" d="M388,179.75545851523853C459,179.75545851523853 459,293.3799126638614 530,293.3799126638614L530,294.4279475983587C459,294.4279475983587 459,180.8034934497359 388,180.8034934497359Z" style="stroke: rgb(68, 68, 68); stroke-opacity: 1; fill: rgb(0, 0, 0); fill-opacity: 0.2; stroke-width: 0; opacity: 1;"/><path class="sankey-link" d="M388,150.41048034931248C459,150.41048034931248 459,194.68995633200925 530,194.68995633200925L530,208.3144104804749C459,208.3144104804749 459,164.03493449777812 388,164.03493449777812Z" style="stroke: rgb(68, 68, 68); stroke-opacity: 1; fill: rgb(0, 0, 0); fill-opacity: 0.2; stroke-width: 0; opacity: 1;"/><path class="sankey-link" d="M388,164.03493449777815C459,164.03493449777815 459,242.9868995634379 530,242.9868995634379L530,258.7074235808983C459,258.7074235808983 459,179.75545851523853 388,179.75545851523853Z" style="stroke: rgb(68, 68, 68); stroke-opacity: 1; fill: rgb(0, 0, 0); fill-opacity: 0.2; stroke-width: 0; opacity: 1;"/><path class="sankey-link" d="M388,114.77729257640226C459,114.77729257640226 459,60.366812227037464 530,60.366812227037464L530,95.99999999994768C459,95.99999999994768 459,150.41048034931248 388,150.41048034931248Z" style="stroke: rgb(68, 68, 68); stroke-opacity: 1; fill: rgb(0, 0, 0); fill-opacity: 0.2; stroke-width: 0; opacity: 1;"/><path class="sankey-link" d="M388,44.47161572052907C459,44.47161572052907 459,291.28384279486664 530,291.28384279486664L530,293.3799126638614C459,293.3799126638614 459,46.56768558952379 388,46.56768558952379Z" style="stroke: rgb(68, 68, 68); stroke-opacity: 1; fill: rgb(0, 0, 0); fill-opacity: 0.2; stroke-width: 0; opacity: 1;"/><path class="sankey-link" d="M388,22.462882096084535C459,22.462882096084535 459,185.257641921533 530,185.257641921533L530,194.68995633200925C459,194.68995633200925 459,31.895196506560765 388,31.895196506560765Z" style="stroke: rgb(68, 68, 68); stroke-opacity: 1; fill: rgb(0, 0, 0); fill-opacity: 0.2; stroke-width: 0; opacity: 1;"/><path class="sankey-link" d="M388,31.895196506560765C459,31.895196506560765 459,230.4104803494696 530,230.4104803494696L530,242.98689956343787C459,242.98689956343787 459,44.47161572052907 388,44.47161572052907Z" style="stroke: rgb(68, 68, 68); stroke-opacity: 1; fill: rgb(0, 0, 0); fill-opacity: 0.2; stroke-width: 0; opacity: 1;"/><path class="sankey-link" d="M388,17.22270742359774C459,17.22270742359774 459,151.63318777296254 530,151.63318777296254L530,156.87336244544932C459,156.87336244544932 459,22.462882096084535 388,22.462882096084535Z" style="stroke: rgb(68, 68, 68); stroke-opacity: 1; fill: rgb(0, 0, 0); fill-opacity: 0.2; stroke-width: 0; opacity: 1;"/></g><g class="sankey-node-set" style="cursor: move;"><g class="sankey-node" transform="translate(44.000,170.816)" style="opacity: 1;"><rect class="node-rect" width="20" height="16.768558951957743" style="stroke-width: 0.5; stroke: rgb(68, 68, 68); stroke-opacity: 1; fill: rgb(240, 228, 66); fill-opacity: 1;"/><text class="node-label" data-notex="1" x="0" y="0" text-anchor="start" transform="translate(23.25,12.584279475978871)" style="cursor: default; font-family: 'Open Sans', verdana, arial, sans-serif; font-size: 12px; fill: rgb(42, 63, 95); fill-opacity: 1; text-shadow: rgb(255, 255, 255) 1px 1px 1px, rgb(255, 255, 255) -1px -1px 1px, rgb(255, 255, 255) 1px -1px 1px, rgb(255, 255, 255) -1px 1px 1px; white-space: pre;"></text></g><g class="sankey-node" transform="translate(44.000,228.632)" style="opacity: 1;"><rect class="node-rect" width="20" height="0.5" style="stroke-width: 0.5; stroke: rgb(68, 68, 68); stroke-opacity: 1; fill: rgb(0, 158, 115); fill-opacity: 1;"/><text class="node-label" data-notex="1" x="0" y="0" text-anchor="start" transform="translate(23.25,4.449999999999999)" style="cursor: default; font-family: 'Open Sans', verdana, arial, sans-serif; font-size: 12px; fill: rgb(42, 63, 95); fill-opacity: 1; text-shadow: rgb(255, 255, 255) 1px 1px 1px, rgb(255, 255, 255) -1px -1px 1px, rgb(255, 255, 255) 1px -1px 1px, rgb(255, 255, 255) -1px 1px 1px; white-space: pre;"></text></g><g class="sankey-node" transform="translate(44.000,248.632)" style="opacity: 1;"><rect class="node-rect" width="20" height="0.5" style="stroke-width: 0.5; stroke: rgb(68, 68, 68); stroke-opacity: 1; fill: rgb(213, 94, 0); fill-opacity: 1;"/><text class="node-label" data-notex="1" x="0" y="0" text-anchor="start" transform="translate(23.25,4.449999999999999)" style="cursor: default; font-family: 'Open Sans', verdana, arial, sans-serif; font-size: 12px; fill: rgb(42, 63, 95); fill-opacity: 1; text-shadow: rgb(255, 255, 255) 1px 1px 1px, rgb(255, 255, 255) -1px -1px 1px, rgb(255, 255, 255) 1px -1px 1px, rgb(255, 255, 255) -1px 1px 1px; white-space: pre;"></text></g><g class="sankey-node" transform="translate(44.000,207.584)" style="opacity: 1;"><rect class="node-rect" width="20" height="1.048034934811767" style="stroke-width: 0.5; stroke: rgb(68, 68, 68); stroke-opacity: 1; fill: rgb(230, 159, 0); fill-opacity: 1;"/><text class="node-label" data-notex="1" x="0" y="0" text-anchor="start" transform="translate(23.25,4.724017467405883)" style="cursor: default; font-family: 'Open Sans', verdana, arial, sans-serif; font-size: 12px; fill: rgb(42, 63, 95); fill-opacity: 1; text-shadow: rgb(255, 255, 255) 1px 1px 1px, rgb(255, 255, 255) -1px -1px 1px, rgb(255, 255, 255) 1px -1px 1px, rgb(255, 255, 255) -1px 1px 1px; white-space: pre;"></text></g><g class="sankey-node" transform="translate(44.000,268.632)" style="opacity: 1;"><rect class="node-rect" width="20" height="0.5" style="stroke-width: 0.5; stroke: rgb(68, 68, 68); stroke-opacity: 1; fill: rgb(86, 180, 233); fill-opacity: 1;"/><text class="node-label" data-notex="1" x="0" y="0" text-anchor="start" transform="translate(23.25,4.449999999999999)" style="cursor: default; font-family: 'Open Sans', verdana, arial, sans-serif; font-size: 12px; fill: rgb(42, 63, 95); fill-opacity: 1; text-shadow: rgb(255, 255, 255) 1px 1px 1px, rgb(255, 255, 255) -1px -1px 1px, rgb(255, 255, 255) 1px -1px 1px, rgb(255, 255, 255) -1px 1px 1px; white-space: pre;"></text></g><g class="sankey-node" transform="translate(206.000,290.725)" style="opacity: 1;"><rect class="node-rect" width="20" height="13.624454148465645" style="stroke-width: 0.5; stroke: rgb(68, 68, 68); stroke-opacity: 1; fill: rgb(240, 228, 66); fill-opacity: 1;"/><text class="node-label" data-notex="1" x="0" y="0" text-anchor="start" transform="translate(23.25,11.012227074232822)" style="cursor: default; font-family: 'Open Sans', verdana, arial, sans-serif; font-size: 12px; fill: rgb(42, 63, 95); fill-opacity: 1; text-shadow: rgb(255, 255, 255) 1px 1px 1px, rgb(255, 255, 255) -1px -1px 1px, rgb(255, 255, 255) 1px -1px 1px, rgb(255, 255, 255) -1px 1px 1px; white-space: pre;"></text></g><g class="sankey-node" transform="translate(206.000,215.092)" style="opacity: 1;"><rect class="node-rect" width="20" height="26.20087336243398" style="stroke-width: 0.5; stroke: rgb(68, 68, 68); stroke-opacity: 1; fill: rgb(0, 158, 115); fill-opacity: 1;"/><text class="node-label" data-notex="1" x="0" y="0" text-anchor="start" transform="translate(23.25,17.30043668121699)" style="cursor: default; font-family: 'Open Sans', verdana, arial, sans-serif; font-size: 12px; fill: rgb(42, 63, 95); fill-opacity: 1; text-shadow: rgb(255, 255, 255) 1px 1px 1px, rgb(255, 255, 255) -1px -1px 1px, rgb(255, 255, 255) 1px -1px 1px, rgb(255, 255, 255) -1px 1px 1px; white-space: pre;"></text></g><g class="sankey-node" transform="translate(206.000,261.293)" style="opacity: 1;"><rect class="node-rect" width="20" height="9.432314410581" style="stroke-width: 0.5; stroke: rgb(68, 68, 68); stroke-opacity: 1; fill: rgb(213, 94, 0); fill-opacity: 1;"/><text class="node-label" data-notex="1" x="0" y="0" text-anchor="start" transform="translate(23.25,8.9161572052905)" style="cursor: default; font-family: 'Open Sans', verdana, arial, sans-serif; font-size: 12px; fill: rgb(42, 63, 95); fill-opacity: 1; text-shadow: rgb(255, 255, 255) 1px 1px 1px, rgb(255, 255, 255) -1px -1px 1px, rgb(255, 255, 255) 1px -1px 1px, rgb(255, 255, 255) -1px 1px 1px; white-space: pre;"></text></g><g class="sankey-node" transform="translate(206.000,96.576)" style="opacity: 1;"><rect class="node-rect" width="20" height="98.51528384275177" style="stroke-width: 0.5; stroke: rgb(68, 68, 68); stroke-opacity: 1; fill: rgb(230, 159, 0); fill-opacity: 1;"/><text class="node-label" data-notex="1" x="0" y="0" text-anchor="start" transform="translate(23.25,53.45764192137588)" style="cursor: default; font-family: 'Open Sans', verdana, arial, sans-serif; font-size: 12px; fill: rgb(42, 63, 95); fill-opacity: 1; text-shadow: rgb(255, 255, 255) 1px 1px 1px, rgb(255, 255, 255) -1px -1px 1px, rgb(255, 255, 255) 1px -1px 1px, rgb(255, 255, 255) -1px 1px 1px; white-space: pre;"></text></g><g class="sankey-node" transform="translate(206.000,51.424)" style="opacity: 1;"><rect class="node-rect" width="20" height="25.152838427936587" style="stroke-width: 0.5; stroke: rgb(68, 68, 68); stroke-opacity: 1; fill: rgb(86, 180, 233); fill-opacity: 1;"/><text class="node-label" data-notex="1" x="0" y="0" text-anchor="start" transform="translate(23.25,16.776419213968293)" style="cursor: default; font-family: 'Open Sans', verdana, arial, sans-serif; font-size: 12px; fill: rgb(42, 63, 95); fill-opacity: 1; text-shadow: rgb(255, 255, 255) 1px 1px 1px, rgb(255, 255, 255) -1px -1px 1px, rgb(255, 255, 255) 1px -1px 1px, rgb(255, 255, 255) -1px 1px 1px; white-space: pre;"></text></g><g class="sankey-node" transform="translate(368.000,334.079)" style="opacity: 1;"><rect class="node-rect" width="20" height="3.1441048035969743" style="stroke-width: 0.5; stroke: rgb(68, 68, 68); stroke-opacity: 1; fill: rgb(240, 228, 66); fill-opacity: 1;"/><text class="node-label" data-notex="1" x="0" y="0" text-anchor="start" transform="translate(23.25,5.772052401798486)" style="cursor: default; font-family: 'Open Sans', verdana, arial, sans-serif; font-size: 12px; fill: rgb(42, 63, 95); fill-opacity: 1; text-shadow: rgb(255, 255, 255) 1px 1px 1px, rgb(255, 255, 255) -1px -1px 1px, rgb(255, 255, 255) 1px -1px 1px, rgb(255, 255, 255) -1px 1px 1px; white-space: pre;"></text></g><g class="sankey-node" transform="translate(368.000,200.803)" style="opacity: 1;"><rect class="node-rect" width="20" height="52.40174672486779" style="stroke-width: 0.5; stroke: rgb(68, 68, 68); stroke-opacity: 1; fill: rgb(0, 158, 115); fill-opacity: 1;"/><text class="node-label" data-notex="1" x="0" y="0" text-anchor="start" transform="translate(23.25,30.400873362433895)" style="cursor: default; font-family: 'Open Sans', verdana, arial, sans-serif; font-size: 12px; fill: rgb(42, 63, 95); fill-opacity: 1; text-shadow: rgb(255, 255, 255) 1px 1px 1px, rgb(255, 255, 255) -1px -1px 1px, rgb(255, 255, 255) 1px -1px 1px, rgb(255, 255, 255) -1px 1px 1px; white-space: pre;"></text></g><g class="sankey-node" transform="translate(368.000,273.205)" style="opacity: 1;"><rect class="node-rect" width="20" height="40.87336244539688" style="stroke-width: 0.5; stroke: rgb(68, 68, 68); stroke-opacity: 1; fill: rgb(213, 94, 0); fill-opacity: 1;"/><text class="node-label" data-notex="1" x="0" y="0" text-anchor="start" transform="translate(23.25,24.63668122269844)" style="cursor: default; font-family: 'Open Sans', verdana, arial, sans-serif; font-size: 12px; fill: rgb(42, 63, 95); fill-opacity: 1; text-shadow: rgb(255, 255, 255) 1px 1px 1px, rgb(255, 255, 255) -1px -1px 1px, rgb(255, 255, 255) 1px -1px 1px, rgb(255, 255, 255) -1px 1px 1px; white-space: pre;"></text></g><g class="sankey-node" transform="translate(368.000,114.777)" style="opacity: 1;"><rect class="node-rect" width="20" height="66.0262008733335" style="stroke-width: 0.5; stroke: rgb(68, 68, 68); stroke-opacity: 1; fill: rgb(230, 159, 0); fill-opacity: 1;"/><text class="node-label" data-notex="1" x="0" y="0" text-anchor="start" transform="translate(23.25,37.21310043666675)" style="cursor: default; font-family: 'Open Sans', verdana, arial, sans-serif; font-size: 12px; fill: rgb(42, 63, 95); fill-opacity: 1; text-shadow: rgb(255, 255, 255) 1px 1px 1px, rgb(255, 255, 255) -1px -1px 1px, rgb(255, 255, 255) 1px -1px 1px, rgb(255, 255, 255) -1px 1px 1px; white-space: pre;"></text></g><g class="sankey-node" transform="translate(368.000,17.223)" style="opacity: 1;"><rect class="node-rect" width="20" height="77.55458515280452" style="stroke-width: 0.5; stroke: rgb(68, 68, 68); stroke-opacity: 1; fill: rgb(86, 180, 233); fill-opacity: 1;"/><text class="node-label" data-notex="1" x="0" y="0" text-anchor="start" transform="translate(23.25,42.97729257640226)" style="cursor: default; font-family: 'Open Sans', verdana, arial, sans-serif; font-size: 12px; fill: rgb(42, 63, 95); fill-opacity: 1; text-shadow: rgb(255, 255, 255) 1px 1px 1px, rgb(255, 255, 255) -1px -1px 1px, rgb(255, 255, 255) 1px -1px 1px, rgb(255, 255, 255) -1px 1px 1px; white-space: pre;"></text></g><g class="sankey-node" transform="translate(530.000,291.284)" style="opacity: 1;"><rect class="node-rect" width="20" height="6.288209607088959" style="stroke-width: 0.5; stroke: rgb(68, 68, 68); stroke-opacity: 1; fill: rgb(240, 228, 66); fill-opacity: 1;"/><text class="node-label" data-notex="1" x="0" y="0" text-anchor="end" transform="translate(-3.25,7.344104803544479)" style="cursor: default; font-family: 'Open Sans', verdana, arial, sans-serif; font-size: 12px; fill: rgb(42, 63, 95); fill-opacity: 1; text-shadow: rgb(255, 255, 255) 1px 1px 1px, rgb(255, 255, 255) -1px -1px 1px, rgb(255, 255, 255) 1px -1px 1px, rgb(255, 255, 255) -1px 1px 1px; white-space: pre;"></text></g><g class="sankey-node" transform="translate(530.000,185.258)" style="opacity: 1;"><rect class="node-rect" width="20" height="25.152838427936587" style="stroke-width: 0.5; stroke: rgb(68, 68, 68); stroke-opacity: 1; fill: rgb(0, 158, 115); fill-opacity: 1;"/><text class="node-label" data-notex="1" x="0" y="0" text-anchor="end" transform="translate(-3.25,16.776419213968293)" style="cursor: default; font-family: 'Open Sans', verdana, arial, sans-serif; font-size: 12px; fill: rgb(42, 63, 95); fill-opacity: 1; text-shadow: rgb(255, 255, 255) 1px 1px 1px, rgb(255, 255, 255) -1px -1px 1px, rgb(255, 255, 255) 1px -1px 1px, rgb(255, 255, 255) -1px 1px 1px; white-space: pre;"></text></g><g class="sankey-node" transform="translate(530.000,230.410)" style="opacity: 1;"><rect class="node-rect" width="20" height="40.87336244539705" style="stroke-width: 0.5; stroke: rgb(68, 68, 68); stroke-opacity: 1; fill: rgb(213, 94, 0); fill-opacity: 1;"/><text class="node-label" data-notex="1" x="0" y="0" text-anchor="end" transform="translate(-3.25,24.636681222698524)" style="cursor: default; font-family: 'Open Sans', verdana, arial, sans-serif; font-size: 12px; fill: rgb(42, 63, 95); fill-opacity: 1; text-shadow: rgb(255, 255, 255) 1px 1px 1px, rgb(255, 255, 255) -1px -1px 1px, rgb(255, 255, 255) 1px -1px 1px, rgb(255, 255, 255) -1px 1px 1px; white-space: pre;"></text></g><g class="sankey-node" transform="translate(530.000,151.633)" style="opacity: 1;"><rect class="node-rect" width="20" height="13.624454148570464" style="stroke-width: 0.5; stroke: rgb(68, 68, 68); stroke-opacity: 1; fill: rgb(230, 159, 0); fill-opacity: 1;"/><text class="node-label" data-notex="1" x="0" y="0" text-anchor="end" transform="translate(-3.25,11.012227074285232)" style="cursor: default; font-family: 'Open Sans', verdana, arial, sans-serif; font-size: 12px; fill: rgb(42, 63, 95); fill-opacity: 1; text-shadow: rgb(255, 255, 255) 1px 1px 1px, rgb(255, 255, 255) -1px -1px 1px, rgb(255, 255, 255) 1px -1px 1px, rgb(255, 255, 255) -1px 1px 1px; white-space: pre;"></text></g><g class="sankey-node" transform="translate(530.000,60.367)" style="opacity: 1;"><rect class="node-rect" width="20" height="71.26637554592509" style="stroke-width: 0.5; stroke: rgb(68, 68, 68); stroke-opacity: 1; fill: rgb(86, 180, 233); fill-opacity: 1;"/><text class="node-label" data-notex="1" x="0" y="0" text-anchor="end" transform="translate(-3.25,39.833187772962546)" style="cursor: default; font-family: 'Open Sans', verdana, arial, sans-serif; font-size: 12px; fill: rgb(42, 63, 95); fill-opacity: 1; text-shadow: rgb(255, 255, 255) 1px 1px 1px, rgb(255, 255, 255) -1px -1px 1px, rgb(255, 255, 255) 1px -1px 1px, rgb(255, 255, 255) -1px 1px 1px; white-space: pre;"></text></g></g></g><defs id="topdefs-cd8674"><g class="clips"/></defs><g class="layer-above"><g class="imagelayer"/><g class="shapelayer"/></g><g class="infolayer"><g class="g-gtitle"/><g class="first-render"/></g></svg>