<svg class="main-svg" xmlns="http://www.w3.org/2000/svg" xmlns:xlink="http://www.w3.org/1999/xlink" width="700" height="500" style="" viewBox="0 0 700 500"><rect x="0" y="0" width="700" height="500" style="fill: rgb(255, 255, 255); fill-opacity: 1;"/><defs id="defs-307938"><g class="clips"/><g class="gradients"/><g class="patterns"/></defs><g class="bglayer"/><g class="layer-below"><g class="imagelayer"/><g class="shapelayer"/></g><g class="cartesianlayer"/><g class="polarlayer"/><g class="smithlayer"/><g class="ternarylayer"/><g class="geolayer"/><g class="funnelarealayer"/><g class="pielayer"/><g class="iciclelayer"/><g class="treemaplayer"/><g class="sunburstlayer"/><g class="glimages"/><g class="sankey" transform="translate(80,100)matrix(1 0 0 1 0 0)" style="box-sizing: content-box; position: absolute; left: 0px; shape-rendering: geometricprecision; pointer-events: none;"><g class="sankey-links" style="fill: none;"><path class="sankey-link" d="M64,181.16721311475408C135,181.16721311475408 135,279.0276346605621 206,279.0276346605621L206,281.8379391102108C135,281.8379391102108 135,183.97751756440277 64,183.97751756440277Z" style="stroke: rgb(68, 68, 68); stroke-opacity: 1; fill: rgb(0, 0, 0); fill-opacity: 0.2; stroke-width: 0; opacity: 1;"/><path class="sankey-link" d="M64,178.91896955503512C135,178.91896955503512 135,237.10725995324577 206,237.10725995324577L206,239.35550351296473C135,239.35550351296473 135,181.16721311475408 64,181.16721311475408Z" style="stroke: rgb(68, 68, 68); stroke-opacity: 1; fill: rgb(0, 0, 0); fill-opacity: 0.2; stroke-width: 0; opacity: 1;"/><path class="sankey-link" d="M64,174.4224824355972C135,174.4224824355972 135,36.357845433227226 206,36.357845433227226L206,38.6060889929462C135,38.6060889929462 135,176.67072599531616 64,176.67072599531616Z" style="stroke: rgb(68, 68, 68); stroke-opacity: 1; fill: rgb(0, 0, 0); fill-opacity: 0.2; stroke-width: 0; opacity: 1;"/><path class="sankey-link" d="M64,176.67072599531616C135,176.67072599531616 135,188.44215456677279 206,188.44215456677279L206,190.69039812649174C135,190.69039812649174 135,178.91896955503512 64,178.91896955503512Z" style="stroke: rgb(68, 68, 68); stroke-opacity: 1; fill: rgb(0, 0, 0); fill-opacity: 0.2; stroke-width: 0; opacity: 1;"/><path class="sankey-link" d="M64,225.10163934459962C135,225.10163934459962 135,319.2618266981453 206,319.2618266981453L206,319.26182669820145C135,319.26182669820145 135,225.10163934465584 64,225.10163934465584Z" style="stroke: rgb(0, 0, 0); stroke-opacity: 0.2; fill: rgb(0, 0, 0); fill-opacity: 0.2; stroke-width: 1; opacity: 1;"/><path class="sankey-link" d="M64,225.1016393445434C135,225.1016393445434 135,239.35550351302095 206,239.35550351302095L206,239.35550351307717C135,239.35550351307717 135,225.10163934459962 64,225.10163934459962Z" style="stroke: rgb(0, 0, 0); stroke-opacity: 0.2; fill: rgb(0, 0, 0); fill-opacity: 0.2; stroke-width: 1; opacity: 1;"/><path class="sankey-link" d="M64,225.10163934443096C135,225.10163934443096 135,38.6060889929462 206,38.6060889929462L206,38.6060889930024C135,38.6060889930024 135,225.10163934448718 64,225.10163934448718Z" style="stroke: rgb(0, 0, 0); stroke-opacity: 0.2; fill: rgb(0, 0, 0); fill-opacity: 0.2; stroke-width: 1; opacity: 1;"/><path class="sankey-link" d="M64,225.10163934448718C135,225.10163934448718 135,191.81451990635122 206,191.81451990635122L206,191.81451990640744C135,191.81451990640744 135,225.1016393445434 64,225.1016393445434Z" style="stroke: rgb(0, 0, 0); stroke-opacity: 0.2; fill: rgb(0, 0, 0); fill-opacity: 0.2; stroke-width: 1; opacity: 1;"/><path class="sankey-link" d="M64,245.10163934482443C135,245.10163934482443 135,319.2618266982015 206,319.2618266982015L206,319.26182669825766C135,319.26182669825766 135,245.10163934488065 64,245.10163934488065Z" style="stroke: rgb(0, 0, 0); stroke-opacity: 0.2; fill: rgb(0, 0, 0); fill-opacity: 0.2; stroke-width: 1; opacity: 1;"/><path class="sankey-link" d="M64,245.10163934476822C135,245.10163934476822 135,281.83793911026703 206,281.83793911026703L206,281.8379391103232C135,281.8379391103232 135,245.10163934482443 64,245.10163934482443Z" style="stroke: rgb(0, 0, 0); stroke-opacity: 0.2; fill: rgb(0, 0, 0); fill-opacity: 0.2; stroke-width: 1; opacity: 1;"/><path class="sankey-link" d="M64,245.10163934465578C135,245.10163934465578 135,38.6060889930024 206,38.6060889930024L206,38.606088993058606C135,38.606088993058606 135,245.101639344712 64,245.101639344712Z" style="stroke: rgb(0, 0, 0); stroke-opacity: 0.2; fill: rgb(0, 0, 0); fill-opacity: 0.2; stroke-width: 1; opacity: 1;"/><path class="sankey-link" d="M64,245.101639344712C135,245.101639344712 135,191.81451990640744 206,191.81451990640744L206,191.81451990646366C135,191.81451990646366 135,245.10163934476822 64,245.10163934476822Z" style="stroke: rgb(0, 0, 0); stroke-opacity: 0.2; fill: rgb(0, 0, 0); fill-opacity: 0.2; stroke-width: 1; opacity: 1;"/><path class="sankey-link" d="M64,205.10163934437475C135,205.10163934437475 135,319.26182669808907 206,319.26182669808907L206,319.2618266981452C135,319.2618266981452 135,205.10163934443096 64,205.10163934443096Z" style="stroke: rgb(0, 0, 0); stroke-opacity: 0.2; fill: rgb(0, 0, 0); fill-opacity: 0.2; stroke-width: 1; opacity: 1;"/><path class="sankey-link" d="M64,205.10163934431853C135,205.10163934431853 135,281.8379391102108 206,281.8379391102108L206,281.837939110267C135,281.837939110267 135,205.10163934437475 64,205.10163934437475Z" style="stroke: rgb(0, 0, 0); stroke-opacity: 0.2; fill: rgb(0, 0, 0); fill-opacity: 0.2; stroke-width: 1; opacity: 1;"/><path class="sankey-link" d="M64,205.1016393442623C135,205.1016393442623 135,239.35550351296473 206,239.35550351296473L206,239.35550351302095C135,239.35550351302095 135,205.10163934431853 64,205.10163934431853Z" style="stroke: rgb(0, 0, 0); stroke-opacity: 0.2; fill: rgb(0, 0, 0); fill-opacity: 0.2; stroke-width: 1; opacity: 1;"/><path class="sankey-link" d="M64,203.97751756440283C135,203.97751756440283 135,190.69039812649174 206,190.69039812649174L206,191.81451990635122C135,191.81451990635122 135,205.1016393442623 64,205.1016393442623Z" style="stroke: rgb(68, 68, 68); stroke-opacity: 1; fill: rgb(0, 0, 0); fill-opacity: 0.2; stroke-width: 0; opacity: 1;"/><path class="sankey-link" d="M64,265.10163934504925C135,265.10163934504925 135,319.2618266982577 206,319.2618266982577L206,319.2618266983139C135,319.2618266983139 135,265.1016393451054 64,265.1016393451054Z" style="stroke: rgb(0, 0, 0); stroke-opacity: 0.2; fill: rgb(0, 0, 0); fill-opacity: 0.2; stroke-width: 1; opacity: 1;"/><path class="sankey-link" d="M64,265.10163934499303C135,265.10163934499303 135,281.83793911032325 206,281.83793911032325L206,281.8379391103794C135,281.8379391103794 135,265.1016393450492 64,265.1016393450492Z" style="stroke: rgb(0, 0, 0); stroke-opacity: 0.2; fill: rgb(0, 0, 0); fill-opacity: 0.2; stroke-width: 1; opacity: 1;"/><path class="sankey-link" d="M64,265.1016393449368C135,265.1016393449368 135,239.35550351307717 206,239.35550351307717L206,239.35550351313339C135,239.35550351313339 135,265.101639344993 64,265.101639344993Z" style="stroke: rgb(0, 0, 0); stroke-opacity: 0.2; fill: rgb(0, 0, 0); fill-opacity: 0.2; stroke-width: 1; opacity: 1;"/><path class="sankey-link" d="M64,265.1016393448806C135,265.1016393448806 135,38.606088993058606 206,38.606088993058606L206,38.60608899311481C135,38.60608899311481 135,265.10163934493676 64,265.10163934493676Z" style="stroke: rgb(0, 0, 0); stroke-opacity: 0.2; fill: rgb(0, 0, 0); fill-opacity: 0.2; stroke-width: 1; opacity: 1;"/><path class="sankey-link" d="M226,333.31334894633255C297,333.31334894633255 297,289.8829039812648 368,289.8829039812648L368,293.25526932084324C297,293.25526932084324 297,336.685714285911 226,336.685714285911Z" style="stroke: rgb(68, 68, 68); stroke-opacity: 1; fill: rgb(0, 0, 0); fill-opacity: 0.2; stroke-width: 0; opacity: 1;"/><path class="sankey-link" d="M226,324.3203747074567C297,324.3203747074567 297,197.04918032786884 368,197.04918032786884L368,202.1077283372365C297,202.1077283372365 297,329.3789227168244 226,329.3789227168244Z" style="stroke: rgb(68, 68, 68); stroke-opacity: 1; fill: rgb(0, 0, 0); fill-opacity: 0.2; stroke-width: 0; opacity: 1;"/><path class="sankey-link" d="M226,329.3789227168244C297,329.3789227168244 297,233.3489461358313 368,233.3489461358313L368,237.2833723653395C297,237.2833723653395 297,333.31334894633255 226,333.31334894633255Z" style="stroke: rgb(68, 68, 68); stroke-opacity: 1; fill: rgb(0, 0, 0); fill-opacity: 0.2; stroke-width: 0; opacity: 1;"/><path class="sankey-link" d="M226,319.26182669808907C297,319.26182669808907 297,144.44964871194378 368,144.44964871194378L368,149.50819672131144C297,149.50819672131144 297,324.3203747074567 226,324.3203747074567Z" style="stroke: rgb(68, 68, 68); stroke-opacity: 1; fill: rgb(0, 0, 0); fill-opacity: 0.2; stroke-width: 0; opacity: 1;"/><path class="sankey-link" d="M226,299.2618266980328C297,299.2618266980328 297,313.2552693210119 368,313.2552693210119L368,313.25526932106806C297,313.25526932106806 297,299.26182669808895 226,299.26182669808895Z" style="stroke: rgb(0, 0, 0); stroke-opacity: 0.2; fill: rgb(0, 0, 0); fill-opacity: 0.2; stroke-width: 1; opacity: 1;"/><path class="sankey-link" d="M226,295.88946135845435C297,295.88946135845435 297,195.92505854800936 368,195.92505854800936L368,197.04918032786884C297,197.04918032786884 297,297.01358313831383 226,297.01358313831383Z" style="stroke: rgb(68, 68, 68); stroke-opacity: 1; fill: rgb(0, 0, 0); fill-opacity: 0.2; stroke-width: 0; opacity: 1;"/><path class="sankey-link" d="M226,297.01358313831383C297,297.01358313831383 297,231.10070257611235 368,231.10070257611235L368,233.3489461358313C297,233.3489461358313 297,299.2618266980328 226,299.2618266980328Z" style="stroke: rgb(68, 68, 68); stroke-opacity: 1; fill: rgb(0, 0, 0); fill-opacity: 0.2; stroke-width: 0; opacity: 1;"/><path class="sankey-link" d="M226,279.0276346605621C297,279.0276346605621 297,127.5878220140515 368,127.5878220140515L368,144.44964871194378C297,144.44964871194378 297,295.8894613584544 226,295.8894613584544Z" style="stroke: rgb(68, 68, 68); stroke-opacity: 1; fill: rgb(0, 0, 0); fill-opacity: 0.2; stroke-width: 0; opacity: 1;"/><path class="sankey-link" d="M226,259.0276346605057C297,259.0276346605057 297,313.2552693209557 368,313.2552693209557L368,313.25526932101184C297,313.25526932101184 297,259.0276346605619 226,259.0276346605619Z" style="stroke: rgb(0, 0, 0); stroke-opacity: 0.2; fill: rgb(0, 0, 0); fill-opacity: 0.2; stroke-width: 1; opacity: 1;"/><path class="sankey-link" d="M226,258.465573770576C297,258.465573770576 297,289.32084309133506 368,289.32084309133506L368,289.8829039812648C297,289.8829039812648 297,259.0276346605057 226,259.0276346605057Z" style="stroke: rgb(0, 0, 0); stroke-opacity: 0.2; fill: rgb(0, 0, 0); fill-opacity: 0.2; stroke-width: 1; opacity: 1;"/><path class="sankey-link" d="M226,257.3414519907165C297,257.3414519907165 297,229.97658079625288 368,229.97658079625288L368,231.10070257611235C297,231.10070257611235 297,258.465573770576 226,258.465573770576Z" style="stroke: rgb(68, 68, 68); stroke-opacity: 1; fill: rgb(0, 0, 0); fill-opacity: 0.2; stroke-width: 0; opacity: 1;"/><path class="sankey-link" d="M226,237.10725995324577C297,237.10725995324577 297,107.35362997658079 368,107.35362997658079L368,127.58782201405153C297,127.58782201405153 297,257.3414519907165 226,257.3414519907165Z" style="stroke: rgb(68, 68, 68); stroke-opacity: 1; fill: rgb(0, 0, 0); fill-opacity: 0.2; stroke-width: 0; opacity: 1;"/><path class="sankey-link" d="M226,168.44215456671668C297,168.44215456671668 297,313.25526932084324 368,313.25526932084324L368,313.2552693208994C297,313.2552693208994 297,168.4421545667729 226,168.4421545667729Z" style="stroke: rgb(0, 0, 0); stroke-opacity: 0.2; fill: rgb(0, 0, 0); fill-opacity: 0.2; stroke-width: 1; opacity: 1;"/><path class="sankey-link" d="M226,156.6388758781921C297,156.6388758781921 297,270.2107728337238 368,270.2107728337238L368,282.01405152224845C297,282.01405152224845 297,168.44215456671668 226,168.44215456671668Z" style="stroke: rgb(68, 68, 68); stroke-opacity: 1; fill: rgb(0, 0, 0); fill-opacity: 0.2; stroke-width: 0; opacity: 1;"/><path class="sankey-link" d="M226,143.71147540980803C297,143.71147540980803 297,169.5081967213115 368,169.5081967213115L368,182.43559718969556C297,182.43559718969556 297,156.6388758781921 226,156.6388758781921Z" style="stroke: rgb(68, 68, 68); stroke-opacity: 1; fill: rgb(0, 0, 0); fill-opacity: 0.2; stroke-width: 0; opacity: 1;"/><path class="sankey-link" d="M226,36.35784543322723C297,36.35784543322723 297,0 368,0L368,107.35362997658079C297,107.35362997658079 297,143.71147540980803 226,143.71147540980803Z" style="stroke: rgb(68, 68, 68); stroke-opacity: 1; fill: rgb(0, 0, 0); fill-opacity: 0.2; stroke-width: 0; opacity: 1;"/><path class="sankey-link" d="M226,217.1072599531896C297,217.1072599531896 297,313.25526932089946 368,313.25526932089946L368,313.2552693209556C297,313.2552693209556 297,217.10725995324583 226,217.10725995324583Z" style="stroke: rgb(0, 0, 0); stroke-opacity: 0.2; fill: rgb(0, 0, 0); fill-opacity: 0.2; stroke-width: 1; opacity: 1;"/><path class="sankey-link" d="M226,209.80046838410297C297,209.80046838410297 297,282.0140515222484 368,282.0140515222484L368,289.320843091335C297,289.320843091335 297,217.10725995318964 226,217.10725995318964Z" style="stroke: rgb(68, 68, 68); stroke-opacity: 1; fill: rgb(0, 0, 0); fill-opacity: 0.2; stroke-width: 0; opacity: 1;"/><path class="sankey-link" d="M226,188.44215456677279C297,188.44215456677279 297,182.43559718969556 368,182.43559718969556L368,195.92505854800936C297,195.92505854800936 297,201.9316159250866 226,201.9316159250866Z" style="stroke: rgb(68, 68, 68); stroke-opacity: 1; fill: rgb(0, 0, 0); fill-opacity: 0.2; stroke-width: 0; opacity: 1;"/><path class="sankey-link" d="M226,201.9316159250866C297,201.9316159250866 297,222.1077283372365 368,222.1077283372365L368,229.9765807962529C297,229.9765807962529 297,209.800468384103 226,209.800468384103Z" style="stroke: rgb(68, 68, 68); stroke-opacity: 1; fill: rgb(0, 0, 0); fill-opacity: 0.2; stroke-width: 0; opacity: 1;"/><path class="sankey-link" d="M388,316.6276346604217C459,316.6276346604217 459,173.91288056208919 530,173.91288056208919L530,175.5990632318784C459,175.5990632318784 459,318.3138173302109 388,318.3138173302109Z" style="stroke: rgb(68, 68, 68); stroke-opacity: 1; fill: rgb(0, 0, 0); fill-opacity: 0.2; stroke-width: 0; opacity: 1;"/><path class="sankey-link" d="M388,318.3138173302109C459,318.3138173302109 459,235.83325526946155 530,235.83325526946155L530,237.51943793925076C459,237.51943793925076 459,320.0000000000001 388,320.0000000000001Z" style="stroke: rgb(68, 68, 68); stroke-opacity: 1; fill: rgb(0, 0, 0); fill-opacity: 0.2; stroke-width: 0; opacity: 1;"/><path class="sankey-link" d="M388,313.25526932084324C459,313.25526932084324 459,70.96206088995785 530,70.96206088995785L530,72.64824355974707C459,72.64824355974707 459,314.94145199063246 388,314.94145199063246Z" style="stroke: rgb(68, 68, 68); stroke-opacity: 1; fill: rgb(0, 0, 0); fill-opacity: 0.2; stroke-width: 0; opacity: 1;"/><path class="sankey-link" d="M388,314.94145199063246C459,314.94145199063246 459,141.54754098363466 530,141.54754098363466L530,143.23372365342388C459,143.23372365342388 459,316.6276346604217 388,316.6276346604217Z" style="stroke: rgb(68, 68, 68); stroke-opacity: 1; fill: rgb(0, 0, 0); fill-opacity: 0.2; stroke-width: 0; opacity: 1;"/><path class="sankey-link" d="M388,289.32084309133506C459,289.32084309133506 459,196.7231850117941 530,196.7231850117941L530,196.72318501185032C459,196.72318501185032 459,289.3208430913912 388,289.3208430913912Z" style="stroke: rgb(0, 0, 0); stroke-opacity: 0.2; fill: rgb(0, 0, 0); fill-opacity: 0.2; stroke-width: 1; opacity: 1;"/><path class="sankey-link" d="M388,289.3208430913913C459,289.3208430913913 459,234.14707259967233 530,234.14707259967233L530,235.83325526946155C459,235.83325526946155 459,291.0070257611805 388,291.0070257611805Z" style="stroke: rgb(68, 68, 68); stroke-opacity: 1; fill: rgb(0, 0, 0); fill-opacity: 0.2; stroke-width: 0; opacity: 1;"/><path class="sankey-link" d="M388,270.2107728337238C459,270.2107728337238 459,70.40000000002811 530,70.40000000002811L530,70.96206088995785C459,70.96206088995785 459,270.77283372365355 388,270.77283372365355Z" style="stroke: rgb(0, 0, 0); stroke-opacity: 0.2; fill: rgb(0, 0, 0); fill-opacity: 0.2; stroke-width: 1; opacity: 1;"/><path class="sankey-link" d="M388,270.77283372365355C459,270.77283372365355 459,122.99953161595319 530,122.99953161595319L530,141.5475409836347C459,141.5475409836347 459,289.32084309133506 388,289.32084309133506Z" style="stroke: rgb(68, 68, 68); stroke-opacity: 1; fill: rgb(0, 0, 0); fill-opacity: 0.2; stroke-width: 0; opacity: 1;"/><path class="sankey-link" d="M388,179.62529274010308C459,179.62529274010308 459,196.16112412180814 530,196.16112412180814L530,196.16112412186436C459,196.16112412186436 459,179.6252927401593 388,179.6252927401593Z" style="stroke: rgb(0, 0, 0); stroke-opacity: 0.2; fill: rgb(0, 0, 0); fill-opacity: 0.2; stroke-width: 1; opacity: 1;"/><path class="sankey-link" d="M388,179.06323185017334C459,179.06323185017334 459,170.54051522251072 530,170.54051522251072L530,171.10257611244046C459,171.10257611244046 459,179.62529274010308 388,179.62529274010308Z" style="stroke: rgb(0, 0, 0); stroke-opacity: 0.2; fill: rgb(0, 0, 0); fill-opacity: 0.2; stroke-width: 1; opacity: 1;"/><path class="sankey-link" d="M388,169.5081967213115C459,169.5081967213115 459,70.39999999997191 530,70.39999999997191L530,70.40000000002813C459,70.40000000002813 459,169.5081967213677 388,169.5081967213677Z" style="stroke: rgb(0, 0, 0); stroke-opacity: 0.2; fill: rgb(0, 0, 0); fill-opacity: 0.2; stroke-width: 1; opacity: 1;"/><path class="sankey-link" d="M388,169.5081967213677C459,169.5081967213677 459,92.64824355974707 530,92.64824355974707L530,102.2032786885527C459,102.2032786885527 459,179.06323185017334 388,179.06323185017334Z" style="stroke: rgb(68, 68, 68); stroke-opacity: 1; fill: rgb(0, 0, 0); fill-opacity: 0.2; stroke-width: 0; opacity: 1;"/><path class="sankey-link" d="M388,245.71428571428567C459,245.71428571428567 459,196.16112412186436 530,196.16112412186436L530,196.7231850117941C459,196.7231850117941 459,246.2763466042154 388,246.2763466042154Z" style="stroke: rgb(0, 0, 0); stroke-opacity: 0.2; fill: rgb(0, 0, 0); fill-opacity: 0.2; stroke-width: 1; opacity: 1;"/><path class="sankey-link" d="M388,242.90398126463697C459,242.90398126463697 459,171.10257611244046 530,171.10257611244046L530,173.91288056208916C459,173.91288056208916 459,245.71428571428567 388,245.71428571428567Z" style="stroke: rgb(68, 68, 68); stroke-opacity: 1; fill: rgb(0, 0, 0); fill-opacity: 0.2; stroke-width: 0; opacity: 1;"/><path class="sankey-link" d="M388,246.2763466042154C459,246.2763466042154 459,230.21264637016412 530,230.21264637016412L530,234.1470725996723C459,234.1470725996723 459,250.21077283372358 388,250.21077283372358Z" style="stroke: rgb(68, 68, 68); stroke-opacity: 1; fill: rgb(0, 0, 0); fill-opacity: 0.2; stroke-width: 0; opacity: 1;"/><path class="sankey-link" d="M388,222.1077283372365C459,222.1077283372365 459,102.2032786885527 530,102.2032786885527L530,122.99953161595317C459,122.99953161595317 459,242.90398126463697 388,242.90398126463697Z" style="stroke: rgb(68, 68, 68); stroke-opacity: 1; fill: rgb(0, 0, 0); fill-opacity: 0.2; stroke-width: 0; opacity: 1;"/><path class="sankey-link" d="M388,9.55503512880562C459,9.55503512880562 459,195.5990632318784 530,195.5990632318784L530,196.16112412180814C459,196.16112412180814 459,10.117096018735364 388,10.117096018735364Z" style="stroke: rgb(0, 0, 0); stroke-opacity: 0.2; fill: rgb(0, 0, 0); fill-opacity: 0.2; stroke-width: 1; opacity: 1;"/><path class="sankey-link" d="M388,2.2482435597189694C459,2.2482435597189694 459,163.23372365342408 530,163.23372365342408L530,170.54051522251075C459,170.54051522251075 459,9.55503512880562 388,9.55503512880562Z" style="stroke: rgb(68, 68, 68); stroke-opacity: 1; fill: rgb(0, 0, 0); fill-opacity: 0.2; stroke-width: 0; opacity: 1;"/><path class="sankey-link" d="M388,10.117096018735364C459,10.117096018735364 459,216.72318501185032 530,216.72318501185032L530,230.21264637016412C459,230.21264637016412 459,23.60655737704918 388,23.60655737704918Z" style="stroke: rgb(68, 68, 68); stroke-opacity: 1; fill: rgb(0, 0, 0); fill-opacity: 0.2; stroke-width: 0; opacity: 1;"/><path class="sankey-link" d="M388,0C459,0 459,68.15175644025294 530,68.15175644025294L530,70.3999999999719C459,70.3999999999719 459,2.2482435597189694 388,2.2482435597189694Z" style="stroke: rgb(68, 68, 68); stroke-opacity: 1; fill: rgb(0, 0, 0); fill-opacity: 0.2; stroke-width: 0; opacity: 1;"/></g><g class="sankey-node-set" style="cursor: move;"><g class="sankey-node" transform="translate(44.000,174.422)" style="opacity: 1;"><rect class="node-rect" width="20" height="9.555035128805628" style="stroke-width: 0.5; stroke: rgb(68, 68, 68); stroke-opacity: 1; fill: rgb(240, 228, 66); fill-opacity: 1;"/><text class="node-label" data-notex="1" x="0" y="0" text-anchor="start" transform="translate(23.25,8.977517564402813)" style="cursor: default; font-family: 'Open Sans', verdana, arial, sans-serif; font-size: 12px; fill: rgb(42, 63, 95); fill-opacity: 1; text-shadow: rgb(255, 255, 255) 1px 1px 1px, rgb(255, 255, 255) -1px -1px 1px, rgb(255, 255, 255) 1px -1px 1px, rgb(255, 255, 255) -1px 1px 1px; white-space: pre;"></text></g><g class="sankey-node" transform="translate(44.000,225.102)" style="opacity: 1;"><rect class="node-rect" width="20" height="0.5" style="stroke-width: 0.5; stroke: rgb(68, 68, 68); stroke-opacity: 1; fill: rgb(0, 158, 115); fill-opacity: 1;"/><text class="node-label" data-notex="1" x="0" y="0" text-anchor="start" transform="translate(23.25,4.449999999999999)" style="cursor: default; font-family: 'Open Sans', verdana, arial, sans-serif; font-size: 12px; fill: rgb(42, 63, 95); fill-opacity: 1; text-shadow: rgb(255, 255, 255) 1px 1px 1px, rgb(255, 255, 255) -1px -1px 1px, rgb(255, 255, 255) 1px -1px 1px, rgb(255, 255, 255) -1px 1px 1px; white-space: pre;"></text></g><g class="sankey-node" transform="translate(44.000,245.102)" style="opacity: 1;"><rect class="node-rect" width="20" height="0.5" style="stroke-width: 0.5; stroke: rgb(68, 68, 68); stroke-opacity: 1; fill: rgb(213, 94, 0); fill-opacity: 1;"/><text class="node-label" data-notex="1" x="0" y="0" text-anchor="start" transform="translate(23.25,4.449999999999999)" style="cursor: default; font-family: 'Open Sans', verdana, arial, sans-serif; font-size: 12px; fill: rgb(42, 63, 95); fill-opacity: 1; text-shadow: rgb(255, 255, 255) 1px 1px 1px, rgb(255, 255, 255) -1px -1px 1px, rgb(255, 255, 255) 1px -1px 1px, rgb(255, 255, 255) -1px 1px 1px; white-space: pre;"></text></g><g class="sankey-node" transform="translate(44.000,203.978)" style="opacity: 1;"><rect class="node-rect" width="20" height="1.1241217800281333" style="stroke-width: 0.5; stroke: rgb(68, 68, 68); stroke-opacity: 1; fill: rgb(230, 159, 0); fill-opacity: 1;"/><text class="node-label" data-notex="1" x="0" y="0" text-anchor="start" transform="translate(23.25,4.762060890014066)" style="cursor: default; font-family: 'Open Sans', verdana, arial, sans-serif; font-size: 12px; fill: rgb(42, 63, 95); fill-opacity: 1; text-shadow: rgb(255, 255, 255) 1px 1px 1px, rgb(255, 255, 255) -1px -1px 1px, rgb(255, 255, 255) 1px -1px 1px, rgb(255, 255, 255) -1px 1px 1px; white-space: pre;"></text></g><g class="sankey-node" transform="translate(44.000,265.102)" style="opacity: 1;"><rect class="node-rect" width="20" height="0.5" style="stroke-width: 0.5; stroke: rgb(68, 68, 68); stroke-opacity: 1; fill: rgb(86, 180, 233); fill-opacity: 1;"/><text class="node-label" data-notex="1" x="0" y="0" text-anchor="start" transform="translate(23.25,4.449999999999999)" style="cursor: default; font-family: 'Open Sans', verdana, arial, sans-serif; font-size: 12px; fill: rgb(42, 63, 95); fill-opacity: 1; text-shadow: rgb(255, 255, 255) 1px 1px 1px, rgb(255, 255, 255) -1px -1px 1px, rgb(255, 255, 255) 1px -1px 1px, rgb(255, 255, 255) -1px 1px 1px; white-space: pre;"></text></g><g class="sankey-node" transform="translate(206.000,319.262)" style="opacity: 1;"><rect class="node-rect" width="20" height="17.423887587822037" style="stroke-width: 0.5; stroke: rgb(68, 68, 68); stroke-opacity: 1; fill: rgb(240, 228, 66); fill-opacity: 1;"/><text class="node-label" data-notex="1" x="0" y="0" text-anchor="start" transform="translate(23.25,12.911943793911018)" style="cursor: default; font-family: 'Open Sans', verdana, arial, sans-serif; font-size: 12px; fill: rgb(42, 63, 95); fill-opacity: 1; text-shadow: rgb(255, 255, 255) 1px 1px 1px, rgb(255, 255, 255) -1px -1px 1px, rgb(255, 255, 255) 1px -1px 1px, rgb(255, 255, 255) -1px 1px 1px; white-space: pre;"></text></g><g class="sankey-node" transform="translate(206.000,279.028)" style="opacity: 1;"><rect class="node-rect" width="20" height="20.234192037526952" style="stroke-width: 0.5; stroke: rgb(68, 68, 68); stroke-opacity: 1; fill: rgb(0, 158, 115); fill-opacity: 1;"/><text class="node-label" data-notex="1" x="0" y="0" text-anchor="start" transform="translate(23.25,14.317096018763475)" style="cursor: default; font-family: 'Open Sans', verdana, arial, sans-serif; font-size: 12px; fill: rgb(42, 63, 95); fill-opacity: 1; text-shadow: rgb(255, 255, 255) 1px 1px 1px, rgb(255, 255, 255) -1px -1px 1px, rgb(255, 255, 255) 1px -1px 1px, rgb(255, 255, 255) -1px 1px 1px; white-space: pre;"></text></g><g class="sankey-node" transform="translate(206.000,237.107)" style="opacity: 1;"><rect class="node-rect" width="20" height="21.92037470731634" style="stroke-width: 0.5; stroke: rgb(68, 68, 68); stroke-opacity: 1; fill: rgb(213, 94, 0); fill-opacity: 1;"/><text class="node-label" data-notex="1" x="0" y="0" text-anchor="start" transform="translate(23.25,15.16018735365817)" style="cursor: default; font-family: 'Open Sans', verdana, arial, sans-serif; font-size: 12px; fill: rgb(42, 63, 95); fill-opacity: 1; text-shadow: rgb(255, 255, 255) 1px 1px 1px, rgb(255, 255, 255) -1px -1px 1px, rgb(255, 255, 255) 1px -1px 1px, rgb(255, 255, 255) -1px 1px 1px; white-space: pre;"></text></g><g class="sankey-node" transform="translate(206.000,36.358)" style="opacity: 1;"><rect class="node-rect" width="20" height="132.08430913354556" style="stroke-width: 0.5; stroke: rgb(68, 68, 68); stroke-opacity: 1; fill: rgb(230, 159, 0); fill-opacity: 1;"/><text class="node-label" data-notex="1" x="0" y="0" text-anchor="start" transform="translate(23.25,70.24215456677278)" style="cursor: default; font-family: 'Open Sans', verdana, arial, sans-serif; font-size: 12px; fill: rgb(42, 63, 95); fill-opacity: 1; text-shadow: rgb(255, 255, 255) 1px 1px 1px, rgb(255, 255, 255) -1px -1px 1px, rgb(255, 255, 255) 1px -1px 1px, rgb(255, 255, 255) -1px 1px 1px; white-space: pre;"></text></g><g class="sankey-node" transform="translate(206.000,188.442)" style="opacity: 1;"><rect class="node-rect" width="20" height="28.665105386472987" style="stroke-width: 0.5; stroke: rgb(68, 68, 68); stroke-opacity: 1; fill: rgb(86, 180, 233); fill-opacity: 1;"/><text class="node-label" data-notex="1" x="0" y="0" text-anchor="start" transform="translate(23.25,18.532552693236493)" style="cursor: default; font-family: 'Open Sans', verdana, arial, sans-serif; font-size: 12px; fill: rgb(42, 63, 95); fill-opacity: 1; text-shadow: rgb(255, 255, 255) 1px 1px 1px, rgb(255, 255, 255) -1px -1px 1px, rgb(255, 255, 255) 1px -1px 1px, rgb(255, 255, 255) -1px 1px 1px; white-space: pre;"></text></g><g class="sankey-node" transform="translate(368.000,313.255)" style="opacity: 1;"><rect class="node-rect" width="20" height="6.7447306791568735" style="stroke-width: 0.5; stroke: rgb(68, 68, 68); stroke-opacity: 1; fill: rgb(240, 228, 66); fill-opacity: 1;"/><text class="node-label" data-notex="1" x="0" y="0" text-anchor="start" transform="translate(23.25,7.572365339578436)" style="cursor: default; font-family: 'Open Sans', verdana, arial, sans-serif; font-size: 12px; fill: rgb(42, 63, 95); fill-opacity: 1; text-shadow: rgb(255, 255, 255) 1px 1px 1px, rgb(255, 255, 255) -1px -1px 1px, rgb(255, 255, 255) 1px -1px 1px, rgb(255, 255, 255) -1px 1px 1px; white-space: pre;"></text></g><g class="sankey-node" transform="translate(368.000,270.211)" style="opacity: 1;"><rect class="node-rect" width="20" height="23.04449648711943" style="stroke-width: 0.5; stroke: rgb(68, 68, 68); stroke-opacity: 1; fill: rgb(0, 158, 115); fill-opacity: 1;"/><text class="node-label" data-notex="1" x="0" y="0" text-anchor="start" transform="translate(23.25,15.722248243559715)" style="cursor: default; font-family: 'Open Sans', verdana, arial, sans-serif; font-size: 12px; fill: rgb(42, 63, 95); fill-opacity: 1; text-shadow: rgb(255, 255, 255) 1px 1px 1px, rgb(255, 255, 255) -1px -1px 1px, rgb(255, 255, 255) 1px -1px 1px, rgb(255, 255, 255) -1px 1px 1px; white-space: pre;"></text></g><g class="sankey-node" transform="translate(368.000,169.508)" style="opacity: 1;"><rect class="node-rect" width="20" height="32.599531615925" style="stroke-width: 0.5; stroke: rgb(68, 68, 68); stroke-opacity: 1; fill: rgb(213, 94, 0); fill-opacity: 1;"/><text class="node-label" data-notex="1" x="0" y="0" text-anchor="start" transform="translate(23.25,20.4997658079625)" style="cursor: default; font-family: 'Open Sans', verdana, arial, sans-serif; font-size: 12px; fill: rgb(42, 63, 95); fill-opacity: 1; text-shadow: rgb(255, 255, 255) 1px 1px 1px, rgb(255, 255, 255) -1px -1px 1px, rgb(255, 255, 255) 1px -1px 1px, rgb(255, 255, 255) -1px 1px 1px; white-space: pre;"></text></g><g class="sankey-node" transform="translate(368.000,222.108)" style="opacity: 1;"><rect class="node-rect" width="20" height="28.103044496487314" style="stroke-width: 0.5; stroke: rgb(68, 68, 68); stroke-opacity: 1; fill: rgb(230, 159, 0); fill-opacity: 1;"/><text class="node-label" data-notex="1" x="0" y="0" text-anchor="start" transform="translate(23.25,18.251522248243656)" style="cursor: default; font-family: 'Open Sans', verdana, arial, sans-serif; font-size: 12px; fill: rgb(42, 63, 95); fill-opacity: 1; text-shadow: rgb(255, 255, 255) 1px 1px 1px, rgb(255, 255, 255) -1px -1px 1px, rgb(255, 255, 255) 1px -1px 1px, rgb(255, 255, 255) -1px 1px 1px; white-space: pre;"></text></g><g class="sankey-node" transform="translate(368.000,0.000)" style="opacity: 1;"><rect class="node-rect" width="20" height="149.5081967213115" style="stroke-width: 0.5; stroke: rgb(68, 68, 68); stroke-opacity: 1; fill: rgb(86, 180, 233); fill-opacity: 1;"/><text class="node-label" data-notex="1" x="0" y="0" text-anchor="start" transform="translate(23.25,78.95409836065575)" style="cursor: default; font-family: 'Open Sans', verdana, arial, sans-serif; font-size: 12px; fill: rgb(42, 63, 95); fill-opacity: 1; text-shadow: rgb(255, 255, 255) 1px 1px 1px, rgb(255, 255, 255) -1px -1px 1px, rgb(255, 255, 255) 1px -1px 1px, rgb(255, 255, 255) -1px 1px 1px; white-space: pre;"></text></g><g class="sankey-node" transform="translate(530.000,195.599)" style="opacity: 1;"><rect class="node-rect" width="20" height="1.1241217799719152" style="stroke-width: 0.5; stroke: rgb(68, 68, 68); stroke-opacity: 1; fill: rgb(240, 228, 66); fill-opacity: 1;"/><text class="node-label" data-notex="1" x="0" y="0" text-anchor="end" transform="translate(-3.25,4.762060889985957)" style="cursor: default; font-family: 'Open Sans', verdana, arial, sans-serif; font-size: 12px; fill: rgb(42, 63, 95); fill-opacity: 1; text-shadow: rgb(255, 255, 255) 1px 1px 1px, rgb(255, 255, 255) -1px -1px 1px, rgb(255, 255, 255) 1px -1px 1px, rgb(255, 255, 255) -1px 1px 1px; white-space: pre;"></text></g><g class="sankey-node" transform="translate(530.000,163.234)" style="opacity: 1;"><rect class="node-rect" width="20" height="12.365339578454325" style="stroke-width: 0.5; stroke: rgb(68, 68, 68); stroke-opacity: 1; fill: rgb(0, 158, 115); fill-opacity: 1;"/><text class="node-label" data-notex="1" x="0" y="0" text-anchor="end" transform="translate(-3.25,10.382669789227162)" style="cursor: default; font-family: 'Open Sans', verdana, arial, sans-serif; font-size: 12px; fill: rgb(42, 63, 95); fill-opacity: 1; text-shadow: rgb(255, 255, 255) 1px 1px 1px, rgb(255, 255, 255) -1px -1px 1px, rgb(255, 255, 255) 1px -1px 1px, rgb(255, 255, 255) -1px 1px 1px; white-space: pre;"></text></g><g class="sankey-node" transform="translate(530.000,216.723)" style="opacity: 1;"><rect class="node-rect" width="20" height="20.796252927400474" style="stroke-width: 0.5; stroke: rgb(68, 68, 68); stroke-opacity: 1; fill: rgb(213, 94, 0); fill-opacity: 1;"/><text class="node-label" data-notex="1" x="0" y="0" text-anchor="end" transform="translate(-3.25,14.598126463700236)" style="cursor: default; font-family: 'Open Sans', verdana, arial, sans-serif; font-size: 12px; fill: rgb(42, 63, 95); fill-opacity: 1; text-shadow: rgb(255, 255, 255) 1px 1px 1px, rgb(255, 255, 255) -1px -1px 1px, rgb(255, 255, 255) 1px -1px 1px, rgb(255, 255, 255) -1px 1px 1px; white-space: pre;"></text></g><g class="sankey-node" transform="translate(530.000,68.152)" style="opacity: 1;"><rect class="node-rect" width="20" height="4.496487119494134" style="stroke-width: 0.5; stroke: rgb(68, 68, 68); stroke-opacity: 1; fill: rgb(230, 159, 0); fill-opacity: 1;"/><text class="node-label" data-notex="1" x="0" y="0" text-anchor="end" transform="translate(-3.25,6.448243559747066)" style="cursor: default; font-family: 'Open Sans', verdana, arial, sans-serif; font-size: 12px; fill: rgb(42, 63, 95); fill-opacity: 1; text-shadow: rgb(255, 255, 255) 1px 1px 1px, rgb(255, 255, 255) -1px -1px 1px, rgb(255, 255, 255) 1px -1px 1px, rgb(255, 255, 255) -1px 1px 1px; white-space: pre;"></text></g><g class="sankey-node" transform="translate(530.000,92.648)" style="opacity: 1;"><rect class="node-rect" width="20" height="50.585480093677006" style="stroke-width: 0.5; stroke: rgb(68, 68, 68); stroke-opacity: 1; fill: rgb(86, 180, 233); fill-opacity: 1;"/><text class="node-label" data-notex="1" x="0" y="0" text-anchor="end" transform="translate(-3.25,29.492740046838502)" style="cursor: default; font-family: 'Open Sans', verdana, arial, sans-serif; font-size: 12px; fill: rgb(42, 63, 95); fill-opacity: 1; text-shadow: rgb(255, 255, 255) 1px 1px 1px, rgb(255, 255, 255) -1px -1px 1px, rgb(255, 255, 255) 1px -1px 1px, rgb(255, 255, 255) -1px 1px 1px; white-space: pre;"></text></g></g></g><defs id="topdefs-307938"><g class="clips"/></defs><g class="layer-above"><g class="imagelayer"/><g class="shapelayer"/></g><g class="infolayer"><g class="g-gtitle"/><g class="first-render"/></g></svg>