<svg class="main-svg" xmlns="http://www.w3.org/2000/svg" xmlns:xlink="http://www.w3.org/1999/xlink" width="700" height="500" style="" viewBox="0 0 700 500"><rect x="0" y="0" width="700" height="500" style="fill: rgb(255, 255, 255); fill-opacity: 1;"/><defs id="defs-a97a92"><g class="clips"/><g class="gradients"/><g class="patterns"/></defs><g class="bglayer"/><g class="layer-below"><g class="imagelayer"/><g class="shapelayer"/></g><g class="cartesianlayer"/><g class="polarlayer"/><g class="smithlayer"/><g class="ternarylayer"/><g class="geolayer"/><g class="funnelarealayer"/><g class="pielayer"/><g class="iciclelayer"/><g class="treemaplayer"/><g class="sunburstlayer"/><g class="glimages"/><g class="sankey" transform="translate(80,100)matrix(1 0 0 1 0 0)" style="box-sizing: content-box; position: absolute; left: 0px; shape-rendering: geometricprecision; pointer-events: none;"><g class="sankey-links" style="fill: none;"><path class="sankey-link" d="M64,179.2000000000001C135,179.2000000000001 135,224.7008849558585 206,224.7008849558585L206,228.94867256647797C135,228.94867256647797 135,183.44778761061957 64,183.44778761061957Z" style="stroke: rgb(68, 68, 68); stroke-opacity: 1; fill: rgb(0, 0, 0); fill-opacity: 0.2; stroke-width: 0; opacity: 1;"/><path class="sankey-link" d="M64,183.44778761061957C135,183.44778761061957 135,271.2495575222299 206,271.2495575222299L206,274.43539823019455C135,274.43539823019455 135,186.63362831858416 64,186.63362831858416Z" style="stroke: rgb(68, 68, 68); stroke-opacity: 1; fill: rgb(0, 0, 0); fill-opacity: 0.2; stroke-width: 0; opacity: 1;"/><path class="sankey-link" d="M64,171.76637168141602C135,171.76637168141602 135,42.39999999999996 206,42.39999999999996L206,46.64778761061943C135,46.64778761061943 135,176.0141592920355 64,176.0141592920355Z" style="stroke: rgb(68, 68, 68); stroke-opacity: 1; fill: rgb(0, 0, 0); fill-opacity: 0.2; stroke-width: 0; opacity: 1;"/><path class="sankey-link" d="M64,176.0141592920355C135,176.0141592920355 135,182.40000000000003 206,182.40000000000003L206,185.58584070796462C135,185.58584070796462 135,179.20000000000007 64,179.20000000000007Z" style="stroke: rgb(68, 68, 68); stroke-opacity: 1; fill: rgb(0, 0, 0); fill-opacity: 0.2; stroke-width: 0; opacity: 1;"/><path class="sankey-link" d="M64,228.7575221244247C135,228.7575221244247 135,301.869026548991 206,301.869026548991L206,301.86902654909716C135,301.86902654909716 135,228.75752212453088 64,228.75752212453088Z" style="stroke: rgb(0, 0, 0); stroke-opacity: 0.2; fill: rgb(0, 0, 0); fill-opacity: 0.2; stroke-width: 1; opacity: 1;"/><path class="sankey-link" d="M64,228.7575221243185C135,228.7575221243185 135,275.4973451328494 206,275.4973451328494L206,275.49734513295556C135,275.49734513295556 135,228.7575221244247 64,228.7575221244247Z" style="stroke: rgb(0, 0, 0); stroke-opacity: 0.2; fill: rgb(0, 0, 0); fill-opacity: 0.2; stroke-width: 1; opacity: 1;"/><path class="sankey-link" d="M64,228.75752212410615C135,228.75752212410615 135,46.64778761061943 206,46.64778761061943L206,46.64778761072563C135,46.64778761072563 135,228.75752212421233 64,228.75752212421233Z" style="stroke: rgb(0, 0, 0); stroke-opacity: 0.2; fill: rgb(0, 0, 0); fill-opacity: 0.2; stroke-width: 1; opacity: 1;"/><path class="sankey-link" d="M64,228.75752212421233C135,228.75752212421233 135,186.64778761061953 206,186.64778761061953L206,186.64778761072571C135,186.64778761072571 135,228.7575221243185 64,228.7575221243185Z" style="stroke: rgb(0, 0, 0); stroke-opacity: 0.2; fill: rgb(0, 0, 0); fill-opacity: 0.2; stroke-width: 1; opacity: 1;"/><path class="sankey-link" d="M64,248.7575221248495C135,248.7575221248495 135,301.86902654909716 206,301.86902654909716L206,301.86902654920334C135,301.86902654920334 135,248.75752212495567 64,248.75752212495567Z" style="stroke: rgb(0, 0, 0); stroke-opacity: 0.2; fill: rgb(0, 0, 0); fill-opacity: 0.2; stroke-width: 1; opacity: 1;"/><path class="sankey-link" d="M64,248.7575221247433C135,248.7575221247433 135,228.94867256658415 206,228.94867256658415L206,228.94867256669033C135,228.94867256669033 135,248.7575221248495 64,248.7575221248495Z" style="stroke: rgb(0, 0, 0); stroke-opacity: 0.2; fill: rgb(0, 0, 0); fill-opacity: 0.2; stroke-width: 1; opacity: 1;"/><path class="sankey-link" d="M64,248.75752212453094C135,248.75752212453094 135,46.64778761072563 206,46.64778761072563L206,46.64778761083183C135,46.64778761083183 135,248.75752212463712 64,248.75752212463712Z" style="stroke: rgb(0, 0, 0); stroke-opacity: 0.2; fill: rgb(0, 0, 0); fill-opacity: 0.2; stroke-width: 1; opacity: 1;"/><path class="sankey-link" d="M64,248.75752212463712C135,248.75752212463712 135,186.64778761072571 206,186.64778761072571L206,186.6477876108319C135,186.6477876108319 135,248.7575221247433 64,248.7575221247433Z" style="stroke: rgb(0, 0, 0); stroke-opacity: 0.2; fill: rgb(0, 0, 0); fill-opacity: 0.2; stroke-width: 1; opacity: 1;"/><path class="sankey-link" d="M64,208.75752212399996C135,208.75752212399996 135,301.8690265488848 206,301.8690265488848L206,301.869026548991C135,301.869026548991 135,208.75752212410615 64,208.75752212410615Z" style="stroke: rgb(0, 0, 0); stroke-opacity: 0.2; fill: rgb(0, 0, 0); fill-opacity: 0.2; stroke-width: 1; opacity: 1;"/><path class="sankey-link" d="M64,207.6955752212389C135,207.6955752212389 135,228.94867256647797 206,228.94867256647797L206,228.94867256658415C135,228.94867256658415 135,207.69557522134508 64,207.69557522134508Z" style="stroke: rgb(0, 0, 0); stroke-opacity: 0.2; fill: rgb(0, 0, 0); fill-opacity: 0.2; stroke-width: 1; opacity: 1;"/><path class="sankey-link" d="M64,207.69557522134508C135,207.69557522134508 135,274.4353982301945 206,274.4353982301945L206,275.4973451328494C135,275.4973451328494 135,208.75752212399996 64,208.75752212399996Z" style="stroke: rgb(68, 68, 68); stroke-opacity: 1; fill: rgb(0, 0, 0); fill-opacity: 0.2; stroke-width: 0; opacity: 1;"/><path class="sankey-link" d="M64,206.63362831858402C135,206.63362831858402 135,185.58584070796465 206,185.58584070796465L206,186.64778761061953C135,186.64778761061953 135,207.6955752212389 64,207.6955752212389Z" style="stroke: rgb(68, 68, 68); stroke-opacity: 1; fill: rgb(0, 0, 0); fill-opacity: 0.2; stroke-width: 0; opacity: 1;"/><path class="sankey-link" d="M64,268.75752212527425C135,268.75752212527425 135,301.86902654920334 206,301.86902654920334L206,301.8690265493095C135,301.8690265493095 135,268.75752212538043 64,268.75752212538043Z" style="stroke: rgb(0, 0, 0); stroke-opacity: 0.2; fill: rgb(0, 0, 0); fill-opacity: 0.2; stroke-width: 1; opacity: 1;"/><path class="sankey-link" d="M64,268.7575221250619C135,268.7575221250619 135,228.94867256669033 206,228.94867256669033L206,228.94867256679652C135,228.94867256679652 135,268.75752212516807 64,268.75752212516807Z" style="stroke: rgb(0, 0, 0); stroke-opacity: 0.2; fill: rgb(0, 0, 0); fill-opacity: 0.2; stroke-width: 1; opacity: 1;"/><path class="sankey-link" d="M64,268.75752212516807C135,268.75752212516807 135,275.49734513295556 206,275.49734513295556L206,275.49734513306174C135,275.49734513306174 135,268.75752212527425 64,268.75752212527425Z" style="stroke: rgb(0, 0, 0); stroke-opacity: 0.2; fill: rgb(0, 0, 0); fill-opacity: 0.2; stroke-width: 1; opacity: 1;"/><path class="sankey-link" d="M64,268.7575221249557C135,268.7575221249557 135,46.64778761083183 206,46.64778761083183L206,46.647787610938025C135,46.647787610938025 135,268.7575221250619 64,268.7575221250619Z" style="stroke: rgb(0, 0, 0); stroke-opacity: 0.2; fill: rgb(0, 0, 0); fill-opacity: 0.2; stroke-width: 1; opacity: 1;"/><path class="sankey-link" d="M226,313.55044247808837C297,313.55044247808837 297,222.9026548672569 368,222.9026548672569L368,227.15044247787637C297,227.15044247787637 297,317.7982300887079 226,317.7982300887079Z" style="stroke: rgb(68, 68, 68); stroke-opacity: 1; fill: rgb(0, 0, 0); fill-opacity: 0.2; stroke-width: 0; opacity: 1;"/><path class="sankey-link" d="M226,317.79823008870784C297,317.79823008870784 297,289.628318584071 368,289.628318584071L368,296.00000000000017C297,296.00000000000017 297,324.169911504637 226,324.169911504637Z" style="stroke: rgb(68, 68, 68); stroke-opacity: 1; fill: rgb(0, 0, 0); fill-opacity: 0.2; stroke-width: 0; opacity: 1;"/><path class="sankey-link" d="M226,308.240707964814C297,308.240707964814 297,143.43362831858408 368,143.43362831858408L368,148.74336283185843C297,148.74336283185843 297,313.5504424780883 226,313.5504424780883Z" style="stroke: rgb(68, 68, 68); stroke-opacity: 1; fill: rgb(0, 0, 0); fill-opacity: 0.2; stroke-width: 0; opacity: 1;"/><path class="sankey-link" d="M226,301.8690265488848C297,301.8690265488848 297,105.38053097345131 368,105.38053097345131L368,111.75221238938052C297,111.75221238938052 297,308.24070796481396 226,308.24070796481396Z" style="stroke: rgb(68, 68, 68); stroke-opacity: 1; fill: rgb(0, 0, 0); fill-opacity: 0.2; stroke-width: 0; opacity: 1;"/><path class="sankey-link" d="M226,250.18761061957534C297,250.18761061957534 297,318.12389380541623 368,318.12389380541623L368,319.1858407080711C297,319.1858407080711 297,251.24955752223022 226,251.24955752223022Z" style="stroke: rgb(68, 68, 68); stroke-opacity: 1; fill: rgb(0, 0, 0); fill-opacity: 0.2; stroke-width: 0; opacity: 1;"/><path class="sankey-link" d="M226,247.00176991161072C297,247.00176991161072 297,286.4424778761064 368,286.4424778761064L368,289.62831858407105C297,289.62831858407105 297,250.1876106195753 226,250.1876106195753Z" style="stroke: rgb(68, 68, 68); stroke-opacity: 1; fill: rgb(0, 0, 0); fill-opacity: 0.2; stroke-width: 0; opacity: 1;"/><path class="sankey-link" d="M226,242.75398230099125C297,242.75398230099125 297,138.12389380530973 368,138.12389380530973L368,142.3716814159292C297,142.3716814159292 297,247.00176991161072 226,247.00176991161072Z" style="stroke: rgb(68, 68, 68); stroke-opacity: 1; fill: rgb(0, 0, 0); fill-opacity: 0.2; stroke-width: 0; opacity: 1;"/><path class="sankey-link" d="M226,224.7008849558585C297,224.7008849558585 297,78.83185840707964 368,78.83185840707964L368,96.88495575221239C297,96.88495575221239 297,242.75398230099125 226,242.75398230099125Z" style="stroke: rgb(68, 68, 68); stroke-opacity: 1; fill: rgb(0, 0, 0); fill-opacity: 0.2; stroke-width: 0; opacity: 1;"/><path class="sankey-link" d="M226,281.8690265487786C297,281.8690265487786 297,319.1858407080711 368,319.1858407080711L368,319.1858407081773C297,319.1858407081773 297,281.8690265488848 226,281.8690265488848Z" style="stroke: rgb(0, 0, 0); stroke-opacity: 0.2; fill: rgb(0, 0, 0); fill-opacity: 0.2; stroke-width: 1; opacity: 1;"/><path class="sankey-link" d="M226,280.8070796461237C297,280.8070796461237 297,221.84070796460202 368,221.84070796460202L368,222.9026548672569C297,222.9026548672569 297,281.8690265487786 226,281.8690265487786Z" style="stroke: rgb(68, 68, 68); stroke-opacity: 1; fill: rgb(0, 0, 0); fill-opacity: 0.2; stroke-width: 0; opacity: 1;"/><path class="sankey-link" d="M226,279.74513274346884C297,279.74513274346884 297,142.3716814159292 368,142.3716814159292L368,143.43362831858408C297,143.43362831858408 297,280.8070796461237 226,280.8070796461237Z" style="stroke: rgb(68, 68, 68); stroke-opacity: 1; fill: rgb(0, 0, 0); fill-opacity: 0.2; stroke-width: 0; opacity: 1;"/><path class="sankey-link" d="M226,271.2495575222299C297,271.2495575222299 297,96.88495575221238 368,96.88495575221238L368,105.38053097345131C297,105.38053097345131 297,279.74513274346884 226,279.74513274346884Z" style="stroke: rgb(68, 68, 68); stroke-opacity: 1; fill: rgb(0, 0, 0); fill-opacity: 0.2; stroke-width: 0; opacity: 1;"/><path class="sankey-link" d="M226,160.27610619469024C297,160.27610619469024 297,316.0000000000003 368,316.0000000000003L368,318.12389380531005C297,318.12389380531005 297,162.4 226,162.4Z" style="stroke: rgb(68, 68, 68); stroke-opacity: 1; fill: rgb(0, 0, 0); fill-opacity: 0.2; stroke-width: 0; opacity: 1;"/><path class="sankey-link" d="M226,120.98407079646016C297,120.98407079646016 297,196.3539823008852 368,196.3539823008852L368,215.46902654867284C297,215.46902654867284 297,140.09911504424778 226,140.09911504424778Z" style="stroke: rgb(68, 68, 68); stroke-opacity: 1; fill: rgb(0, 0, 0); fill-opacity: 0.2; stroke-width: 0; opacity: 1;"/><path class="sankey-link" d="M226,140.09911504424775C297,140.09911504424775 297,256.70796460177013 368,256.70796460177013L368,276.88495575221265C297,276.88495575221265 297,160.27610619469021 226,160.27610619469021Z" style="stroke: rgb(68, 68, 68); stroke-opacity: 1; fill: rgb(0, 0, 0); fill-opacity: 0.2; stroke-width: 0; opacity: 1;"/><path class="sankey-link" d="M226,42.399999999999956C297,42.399999999999956 297,0.2477876106194543 368,0.2477876106194543L368,78.83185840707964C297,78.83185840707964 297,120.98407079646014 226,120.98407079646014Z" style="stroke: rgb(68, 68, 68); stroke-opacity: 1; fill: rgb(0, 0, 0); fill-opacity: 0.2; stroke-width: 0; opacity: 1;"/><path class="sankey-link" d="M226,204.70088495575226C297,204.70088495575226 297,318.12389380531005 368,318.12389380531005L368,318.12389380541623C297,318.12389380541623 297,204.70088495585844 226,204.70088495585844Z" style="stroke: rgb(0, 0, 0); stroke-opacity: 0.2; fill: rgb(0, 0, 0); fill-opacity: 0.2; stroke-width: 1; opacity: 1;"/><path class="sankey-link" d="M226,188.77168141592924C297,188.77168141592924 297,215.46902654867282 368,215.46902654867282L368,221.84070796460205C297,221.84070796460205 297,195.14336283185847 226,195.14336283185847Z" style="stroke: rgb(68, 68, 68); stroke-opacity: 1; fill: rgb(0, 0, 0); fill-opacity: 0.2; stroke-width: 0; opacity: 1;"/><path class="sankey-link" d="M226,195.14336283185844C297,195.14336283185844 297,276.8849557522126 368,276.8849557522126L368,286.4424778761064C297,286.4424778761064 297,204.70088495575226 226,204.70088495575226Z" style="stroke: rgb(68, 68, 68); stroke-opacity: 1; fill: rgb(0, 0, 0); fill-opacity: 0.2; stroke-width: 0; opacity: 1;"/><path class="sankey-link" d="M226,182.40000000000003C297,182.40000000000003 297,131.75221238938053 368,131.75221238938053L368,138.12389380530976C297,138.12389380530976 297,188.77168141592927 226,188.77168141592927Z" style="stroke: rgb(68, 68, 68); stroke-opacity: 1; fill: rgb(0, 0, 0); fill-opacity: 0.2; stroke-width: 0; opacity: 1;"/><path class="sankey-link" d="M388,318.12389380531005C459,318.12389380531005 459,186.97345132764605 530,186.97345132764605L530,188.03539823030093C459,188.03539823030093 459,319.1858407079649 388,319.1858407079649Z" style="stroke: rgb(68, 68, 68); stroke-opacity: 1; fill: rgb(0, 0, 0); fill-opacity: 0.2; stroke-width: 0; opacity: 1;"/><path class="sankey-link" d="M388,319.1858407079649C459,319.1858407079649 459,254.5840707967788 530,254.5840707967788L530,255.64601769943368C459,255.64601769943368 459,320.2477876106198 388,320.2477876106198Z" style="stroke: rgb(68, 68, 68); stroke-opacity: 1; fill: rgb(0, 0, 0); fill-opacity: 0.2; stroke-width: 0; opacity: 1;"/><path class="sankey-link" d="M388,317.06194690265517C459,317.06194690265517 459,153.16814159302655 530,153.16814159302655L530,154.23008849568143C459,154.23008849568143 459,318.12389380531005 388,318.12389380531005Z" style="stroke: rgb(68, 68, 68); stroke-opacity: 1; fill: rgb(0, 0, 0); fill-opacity: 0.2; stroke-width: 0; opacity: 1;"/><path class="sankey-link" d="M388,316.0000000000003C459,316.0000000000003 459,126.79646017699118 530,126.79646017699118L530,127.85840707964606C459,127.85840707964606 459,317.06194690265517 388,317.06194690265517Z" style="stroke: rgb(68, 68, 68); stroke-opacity: 1; fill: rgb(0, 0, 0); fill-opacity: 0.2; stroke-width: 0; opacity: 1;"/><path class="sankey-link" d="M388,230.33628318584098C459,230.33628318584098 459,212.2831858409204 530,212.2831858409204L530,214.40707964623016C459,214.40707964623016 459,232.46017699115075 388,232.46017699115075Z" style="stroke: rgb(68, 68, 68); stroke-opacity: 1; fill: rgb(0, 0, 0); fill-opacity: 0.2; stroke-width: 0; opacity: 1;"/><path class="sankey-link" d="M388,232.46017699115072C459,232.46017699115072 459,250.33628318615933 530,250.33628318615933L530,254.5840707967788C459,254.5840707967788 459,236.7079646017702 388,236.7079646017702Z" style="stroke: rgb(68, 68, 68); stroke-opacity: 1; fill: rgb(0, 0, 0); fill-opacity: 0.2; stroke-width: 0; opacity: 1;"/><path class="sankey-link" d="M388,227.15044247787637C459,227.15044247787637 459,149.98230088495575 530,149.98230088495575L530,153.16814159292034C459,153.16814159292034 459,230.33628318584095 388,230.33628318584095Z" style="stroke: rgb(68, 68, 68); stroke-opacity: 1; fill: rgb(0, 0, 0); fill-opacity: 0.2; stroke-width: 0; opacity: 1;"/><path class="sankey-link" d="M388,196.3539823008852C459,196.3539823008852 459,90.69026548672568 530,90.69026548672568L530,121.48672566371684C459,121.48672566371684 459,227.15044247787637 388,227.15044247787637Z" style="stroke: rgb(68, 68, 68); stroke-opacity: 1; fill: rgb(0, 0, 0); fill-opacity: 0.2; stroke-width: 0; opacity: 1;"/><path class="sankey-link" d="M388,262.01769911525685C459,262.01769911525685 459,214.40707964623013 530,214.40707964623013L530,214.4070796463363C459,214.4070796463363 459,262.01769911536303 388,262.01769911536303Z" style="stroke: rgb(0, 0, 0); stroke-opacity: 0.2; fill: rgb(0, 0, 0); fill-opacity: 0.2; stroke-width: 1; opacity: 1;"/><path class="sankey-link" d="M388,262.01769911515066C459,262.01769911515066 459,186.97345132753986 530,186.97345132753986L530,186.97345132764605C459,186.97345132764605 459,262.01769911525685 388,262.01769911525685Z" style="stroke: rgb(0, 0, 0); stroke-opacity: 0.2; fill: rgb(0, 0, 0); fill-opacity: 0.2; stroke-width: 1; opacity: 1;"/><path class="sankey-link" d="M388,262.0176991150445C459,262.0176991150445 459,153.16814159292036 530,153.16814159292036L530,153.16814159302655C459,153.16814159302655 459,262.01769911515066 388,262.01769911515066Z" style="stroke: rgb(0, 0, 0); stroke-opacity: 0.2; fill: rgb(0, 0, 0); fill-opacity: 0.2; stroke-width: 1; opacity: 1;"/><path class="sankey-link" d="M388,256.70796460177013C459,256.70796460177013 459,121.48672566371684 530,121.48672566371684L530,126.79646017699119C459,126.79646017699119 459,262.0176991150444 388,262.0176991150444Z" style="stroke: rgb(68, 68, 68); stroke-opacity: 1; fill: rgb(0, 0, 0); fill-opacity: 0.2; stroke-width: 0; opacity: 1;"/><path class="sankey-link" d="M388,165.7345132743363C459,165.7345132743363 459,209.09734513295578 530,209.09734513295578L530,212.28318584092037C459,212.28318584092037 459,168.9203539823009 388,168.9203539823009Z" style="stroke: rgb(68, 68, 68); stroke-opacity: 1; fill: rgb(0, 0, 0); fill-opacity: 0.2; stroke-width: 0; opacity: 1;"/><path class="sankey-link" d="M388,158.30088495575222C459,158.30088495575222 459,179.53982300895578 530,179.53982300895578L530,186.97345132753983C459,186.97345132753983 459,165.73451327433628 388,165.73451327433628Z" style="stroke: rgb(68, 68, 68); stroke-opacity: 1; fill: rgb(0, 0, 0); fill-opacity: 0.2; stroke-width: 0; opacity: 1;"/><path class="sankey-link" d="M388,168.92035398230092C459,168.92035398230092 459,242.90265486757525 530,242.90265486757525L530,250.3362831861593C459,250.3362831861593 459,176.35398230088498 388,176.35398230088498Z" style="stroke: rgb(68, 68, 68); stroke-opacity: 1; fill: rgb(0, 0, 0); fill-opacity: 0.2; stroke-width: 0; opacity: 1;"/><path class="sankey-link" d="M388,131.75221238938053C459,131.75221238938053 459,64.14159292035399 530,64.14159292035399L530,90.69026548672568C459,90.69026548672568 459,158.30088495575222 388,158.30088495575222Z" style="stroke: rgb(68, 68, 68); stroke-opacity: 1; fill: rgb(0, 0, 0); fill-opacity: 0.2; stroke-width: 0; opacity: 1;"/><path class="sankey-link" d="M388,7.681415929203526C459,7.681415929203526 459,208.0353982303009 530,208.0353982303009L530,209.09734513295578C459,209.09734513295578 459,8.743362831858393 388,8.743362831858393Z" style="stroke: rgb(68, 68, 68); stroke-opacity: 1; fill: rgb(0, 0, 0); fill-opacity: 0.2; stroke-width: 0; opacity: 1;"/><path class="sankey-link" d="M388,2.371681415929189C459,2.371681415929189 459,174.23008849568143 530,174.23008849568143L530,179.53982300895578C459,179.53982300895578 459,7.681415929203526 388,7.681415929203526Z" style="stroke: rgb(68, 68, 68); stroke-opacity: 1; fill: rgb(0, 0, 0); fill-opacity: 0.2; stroke-width: 0; opacity: 1;"/><path class="sankey-link" d="M388,8.743362831858395C459,8.743362831858395 459,234.4070796463363 530,234.4070796463363L530,242.90265486757525C459,242.90265486757525 459,17.238938053097332 388,17.238938053097332Z" style="stroke: rgb(68, 68, 68); stroke-opacity: 1; fill: rgb(0, 0, 0); fill-opacity: 0.2; stroke-width: 0; opacity: 1;"/><path class="sankey-link" d="M388,0.2477876106194543C459,0.2477876106194543 459,147.858407079646 530,147.858407079646L530,149.98230088495578C459,149.98230088495578 459,2.371681415929189 388,2.371681415929189Z" style="stroke: rgb(68, 68, 68); stroke-opacity: 1; fill: rgb(0, 0, 0); fill-opacity: 0.2; stroke-width: 0; opacity: 1;"/></g><g class="sankey-node-set" style="cursor: move;"><g class="sankey-node" transform="translate(44.000,171.766)" style="opacity: 1;"><rect class="node-rect" width="20" height="14.867256637167998" style="stroke-width: 0.5; stroke: rgb(68, 68, 68); stroke-opacity: 1; fill: rgb(240, 228, 66); fill-opacity: 1;"/><text class="node-label" data-notex="1" x="0" y="0" text-anchor="start" transform="translate(23.25,11.633628318583998)" style="cursor: default; font-family: 'Open Sans', verdana, arial, sans-serif; font-size: 12px; fill: rgb(42, 63, 95); fill-opacity: 1; text-shadow: rgb(255, 255, 255) 1px 1px 1px, rgb(255, 255, 255) -1px -1px 1px, rgb(255, 255, 255) 1px -1px 1px, rgb(255, 255, 255) -1px 1px 1px; white-space: pre;"></text></g><g class="sankey-node" transform="translate(44.000,228.758)" style="opacity: 1;"><rect class="node-rect" width="20" height="0.5" style="stroke-width: 0.5; stroke: rgb(68, 68, 68); stroke-opacity: 1; fill: rgb(0, 158, 115); fill-opacity: 1;"/><text class="node-label" data-notex="1" x="0" y="0" text-anchor="start" transform="translate(23.25,4.449999999999999)" style="cursor: default; font-family: 'Open Sans', verdana, arial, sans-serif; font-size: 12px; fill: rgb(42, 63, 95); fill-opacity: 1; text-shadow: rgb(255, 255, 255) 1px 1px 1px, rgb(255, 255, 255) -1px -1px 1px, rgb(255, 255, 255) 1px -1px 1px, rgb(255, 255, 255) -1px 1px 1px; white-space: pre;"></text></g><g class="sankey-node" transform="translate(44.000,248.758)" style="opacity: 1;"><rect class="node-rect" width="20" height="0.5" style="stroke-width: 0.5; stroke: rgb(68, 68, 68); stroke-opacity: 1; fill: rgb(213, 94, 0); fill-opacity: 1;"/><text class="node-label" data-notex="1" x="0" y="0" text-anchor="start" transform="translate(23.25,4.449999999999999)" style="cursor: default; font-family: 'Open Sans', verdana, arial, sans-serif; font-size: 12px; fill: rgb(42, 63, 95); fill-opacity: 1; text-shadow: rgb(255, 255, 255) 1px 1px 1px, rgb(255, 255, 255) -1px -1px 1px, rgb(255, 255, 255) 1px -1px 1px, rgb(255, 255, 255) -1px 1px 1px; white-space: pre;"></text></g><g class="sankey-node" transform="translate(44.000,206.634)" style="opacity: 1;"><rect class="node-rect" width="20" height="2.1238938055221297" style="stroke-width: 0.5; stroke: rgb(68, 68, 68); stroke-opacity: 1; fill: rgb(230, 159, 0); fill-opacity: 1;"/><text class="node-label" data-notex="1" x="0" y="0" text-anchor="start" transform="translate(23.25,5.261946902761064)" style="cursor: default; font-family: 'Open Sans', verdana, arial, sans-serif; font-size: 12px; fill: rgb(42, 63, 95); fill-opacity: 1; text-shadow: rgb(255, 255, 255) 1px 1px 1px, rgb(255, 255, 255) -1px -1px 1px, rgb(255, 255, 255) 1px -1px 1px, rgb(255, 255, 255) -1px 1px 1px; white-space: pre;"></text></g><g class="sankey-node" transform="translate(44.000,268.758)" style="opacity: 1;"><rect class="node-rect" width="20" height="0.5" style="stroke-width: 0.5; stroke: rgb(68, 68, 68); stroke-opacity: 1; fill: rgb(86, 180, 233); fill-opacity: 1;"/><text class="node-label" data-notex="1" x="0" y="0" text-anchor="start" transform="translate(23.25,4.449999999999999)" style="cursor: default; font-family: 'Open Sans', verdana, arial, sans-serif; font-size: 12px; fill: rgb(42, 63, 95); fill-opacity: 1; text-shadow: rgb(255, 255, 255) 1px 1px 1px, rgb(255, 255, 255) -1px -1px 1px, rgb(255, 255, 255) 1px -1px 1px, rgb(255, 255, 255) -1px 1px 1px; white-space: pre;"></text></g><g class="sankey-node" transform="translate(206.000,301.869)" style="opacity: 1;"><rect class="node-rect" width="20" height="22.300884955752167" style="stroke-width: 0.5; stroke: rgb(68, 68, 68); stroke-opacity: 1; fill: rgb(240, 228, 66); fill-opacity: 1;"/><text class="node-label" data-notex="1" x="0" y="0" text-anchor="start" transform="translate(23.25,15.350442477876083)" style="cursor: default; font-family: 'Open Sans', verdana, arial, sans-serif; font-size: 12px; fill: rgb(42, 63, 95); fill-opacity: 1; text-shadow: rgb(255, 255, 255) 1px 1px 1px, rgb(255, 255, 255) -1px -1px 1px, rgb(255, 255, 255) 1px -1px 1px, rgb(255, 255, 255) -1px 1px 1px; white-space: pre;"></text></g><g class="sankey-node" transform="translate(206.000,224.701)" style="opacity: 1;"><rect class="node-rect" width="20" height="26.54867256637141" style="stroke-width: 0.5; stroke: rgb(68, 68, 68); stroke-opacity: 1; fill: rgb(0, 158, 115); fill-opacity: 1;"/><text class="node-label" data-notex="1" x="0" y="0" text-anchor="start" transform="translate(23.25,17.474336283185703)" style="cursor: default; font-family: 'Open Sans', verdana, arial, sans-serif; font-size: 12px; fill: rgb(42, 63, 95); fill-opacity: 1; text-shadow: rgb(255, 255, 255) 1px 1px 1px, rgb(255, 255, 255) -1px -1px 1px, rgb(255, 255, 255) 1px -1px 1px, rgb(255, 255, 255) -1px 1px 1px; white-space: pre;"></text></g><g class="sankey-node" transform="translate(206.000,271.250)" style="opacity: 1;"><rect class="node-rect" width="20" height="10.619469026654883" style="stroke-width: 0.5; stroke: rgb(68, 68, 68); stroke-opacity: 1; fill: rgb(213, 94, 0); fill-opacity: 1;"/><text class="node-label" data-notex="1" x="0" y="0" text-anchor="start" transform="translate(23.25,9.509734513327441)" style="cursor: default; font-family: 'Open Sans', verdana, arial, sans-serif; font-size: 12px; fill: rgb(42, 63, 95); fill-opacity: 1; text-shadow: rgb(255, 255, 255) 1px 1px 1px, rgb(255, 255, 255) -1px -1px 1px, rgb(255, 255, 255) 1px -1px 1px, rgb(255, 255, 255) -1px 1px 1px; white-space: pre;"></text></g><g class="sankey-node" transform="translate(206.000,42.400)" style="opacity: 1;"><rect class="node-rect" width="20" height="120.00000000000007" style="stroke-width: 0.5; stroke: rgb(68, 68, 68); stroke-opacity: 1; fill: rgb(230, 159, 0); fill-opacity: 1;"/><text class="node-label" data-notex="1" x="0" y="0" text-anchor="start" transform="translate(23.25,64.20000000000003)" style="cursor: default; font-family: 'Open Sans', verdana, arial, sans-serif; font-size: 12px; fill: rgb(42, 63, 95); fill-opacity: 1; text-shadow: rgb(255, 255, 255) 1px 1px 1px, rgb(255, 255, 255) -1px -1px 1px, rgb(255, 255, 255) 1px -1px 1px, rgb(255, 255, 255) -1px 1px 1px; white-space: pre;"></text></g><g class="sankey-node" transform="translate(206.000,182.400)" style="opacity: 1;"><rect class="node-rect" width="20" height="22.300884955858464" style="stroke-width: 0.5; stroke: rgb(68, 68, 68); stroke-opacity: 1; fill: rgb(86, 180, 233); fill-opacity: 1;"/><text class="node-label" data-notex="1" x="0" y="0" text-anchor="start" transform="translate(23.25,15.350442477929231)" style="cursor: default; font-family: 'Open Sans', verdana, arial, sans-serif; font-size: 12px; fill: rgb(42, 63, 95); fill-opacity: 1; text-shadow: rgb(255, 255, 255) 1px 1px 1px, rgb(255, 255, 255) -1px -1px 1px, rgb(255, 255, 255) 1px -1px 1px, rgb(255, 255, 255) -1px 1px 1px; white-space: pre;"></text></g><g class="sankey-node" transform="translate(368.000,316.000)" style="opacity: 1;"><rect class="node-rect" width="20" height="4.247787610619525" style="stroke-width: 0.5; stroke: rgb(68, 68, 68); stroke-opacity: 1; fill: rgb(240, 228, 66); fill-opacity: 1;"/><text class="node-label" data-notex="1" x="0" y="0" text-anchor="start" transform="translate(23.25,6.323893805309762)" style="cursor: default; font-family: 'Open Sans', verdana, arial, sans-serif; font-size: 12px; fill: rgb(42, 63, 95); fill-opacity: 1; text-shadow: rgb(255, 255, 255) 1px 1px 1px, rgb(255, 255, 255) -1px -1px 1px, rgb(255, 255, 255) 1px -1px 1px, rgb(255, 255, 255) -1px 1px 1px; white-space: pre;"></text></g><g class="sankey-node" transform="translate(368.000,196.354)" style="opacity: 1;"><rect class="node-rect" width="20" height="40.35398230088492" style="stroke-width: 0.5; stroke: rgb(68, 68, 68); stroke-opacity: 1; fill: rgb(0, 158, 115); fill-opacity: 1;"/><text class="node-label" data-notex="1" x="0" y="0" text-anchor="start" transform="translate(23.25,24.37699115044246)" style="cursor: default; font-family: 'Open Sans', verdana, arial, sans-serif; font-size: 12px; fill: rgb(42, 63, 95); fill-opacity: 1; text-shadow: rgb(255, 255, 255) 1px 1px 1px, rgb(255, 255, 255) -1px -1px 1px, rgb(255, 255, 255) 1px -1px 1px, rgb(255, 255, 255) -1px 1px 1px; white-space: pre;"></text></g><g class="sankey-node" transform="translate(368.000,256.708)" style="opacity: 1;"><rect class="node-rect" width="20" height="39.292035398230155" style="stroke-width: 0.5; stroke: rgb(68, 68, 68); stroke-opacity: 1; fill: rgb(213, 94, 0); fill-opacity: 1;"/><text class="node-label" data-notex="1" x="0" y="0" text-anchor="start" transform="translate(23.25,23.846017699115077)" style="cursor: default; font-family: 'Open Sans', verdana, arial, sans-serif; font-size: 12px; fill: rgb(42, 63, 95); fill-opacity: 1; text-shadow: rgb(255, 255, 255) 1px 1px 1px, rgb(255, 255, 255) -1px -1px 1px, rgb(255, 255, 255) 1px -1px 1px, rgb(255, 255, 255) -1px 1px 1px; white-space: pre;"></text></g><g class="sankey-node" transform="translate(368.000,131.752)" style="opacity: 1;"><rect class="node-rect" width="20" height="44.601769911504675" style="stroke-width: 0.5; stroke: rgb(68, 68, 68); stroke-opacity: 1; fill: rgb(230, 159, 0); fill-opacity: 1;"/><text class="node-label" data-notex="1" x="0" y="0" text-anchor="start" transform="translate(23.25,26.500884955752337)" style="cursor: default; font-family: 'Open Sans', verdana, arial, sans-serif; font-size: 12px; fill: rgb(42, 63, 95); fill-opacity: 1; text-shadow: rgb(255, 255, 255) 1px 1px 1px, rgb(255, 255, 255) -1px -1px 1px, rgb(255, 255, 255) 1px -1px 1px, rgb(255, 255, 255) -1px 1px 1px; white-space: pre;"></text></g><g class="sankey-node" transform="translate(368.000,0.248)" style="opacity: 1;"><rect class="node-rect" width="20" height="111.50442477876109" style="stroke-width: 0.5; stroke: rgb(68, 68, 68); stroke-opacity: 1; fill: rgb(86, 180, 233); fill-opacity: 1;"/><text class="node-label" data-notex="1" x="0" y="0" text-anchor="start" transform="translate(23.25,59.95221238938055)" style="cursor: default; font-family: 'Open Sans', verdana, arial, sans-serif; font-size: 12px; fill: rgb(42, 63, 95); fill-opacity: 1; text-shadow: rgb(255, 255, 255) 1px 1px 1px, rgb(255, 255, 255) -1px -1px 1px, rgb(255, 255, 255) 1px -1px 1px, rgb(255, 255, 255) -1px 1px 1px; white-space: pre;"></text></g><g class="sankey-node" transform="translate(530.000,208.035)" style="opacity: 1;"><rect class="node-rect" width="20" height="6.371681416035415" style="stroke-width: 0.5; stroke: rgb(68, 68, 68); stroke-opacity: 1; fill: rgb(240, 228, 66); fill-opacity: 1;"/><text class="node-label" data-notex="1" x="0" y="0" text-anchor="end" transform="translate(-3.25,7.385840708017707)" style="cursor: default; font-family: 'Open Sans', verdana, arial, sans-serif; font-size: 12px; fill: rgb(42, 63, 95); fill-opacity: 1; text-shadow: rgb(255, 255, 255) 1px 1px 1px, rgb(255, 255, 255) -1px -1px 1px, rgb(255, 255, 255) 1px -1px 1px, rgb(255, 255, 255) -1px 1px 1px; white-space: pre;"></text></g><g class="sankey-node" transform="translate(530.000,174.230)" style="opacity: 1;"><rect class="node-rect" width="20" height="13.80530973461947" style="stroke-width: 0.5; stroke: rgb(68, 68, 68); stroke-opacity: 1; fill: rgb(0, 158, 115); fill-opacity: 1;"/><text class="node-label" data-notex="1" x="0" y="0" text-anchor="end" transform="translate(-3.25,11.102654867309734)" style="cursor: default; font-family: 'Open Sans', verdana, arial, sans-serif; font-size: 12px; fill: rgb(42, 63, 95); fill-opacity: 1; text-shadow: rgb(255, 255, 255) 1px 1px 1px, rgb(255, 255, 255) -1px -1px 1px, rgb(255, 255, 255) 1px -1px 1px, rgb(255, 255, 255) -1px 1px 1px; white-space: pre;"></text></g><g class="sankey-node" transform="translate(530.000,234.407)" style="opacity: 1;"><rect class="node-rect" width="20" height="21.2389380530974" style="stroke-width: 0.5; stroke: rgb(68, 68, 68); stroke-opacity: 1; fill: rgb(213, 94, 0); fill-opacity: 1;"/><text class="node-label" data-notex="1" x="0" y="0" text-anchor="end" transform="translate(-3.25,14.819469026548699)" style="cursor: default; font-family: 'Open Sans', verdana, arial, sans-serif; font-size: 12px; fill: rgb(42, 63, 95); fill-opacity: 1; text-shadow: rgb(255, 255, 255) 1px 1px 1px, rgb(255, 255, 255) -1px -1px 1px, rgb(255, 255, 255) 1px -1px 1px, rgb(255, 255, 255) -1px 1px 1px; white-space: pre;"></text></g><g class="sankey-node" transform="translate(530.000,147.858)" style="opacity: 1;"><rect class="node-rect" width="20" height="6.371681416035415" style="stroke-width: 0.5; stroke: rgb(68, 68, 68); stroke-opacity: 1; fill: rgb(230, 159, 0); fill-opacity: 1;"/><text class="node-label" data-notex="1" x="0" y="0" text-anchor="end" transform="translate(-3.25,7.385840708017707)" style="cursor: default; font-family: 'Open Sans', verdana, arial, sans-serif; font-size: 12px; fill: rgb(42, 63, 95); fill-opacity: 1; text-shadow: rgb(255, 255, 255) 1px 1px 1px, rgb(255, 255, 255) -1px -1px 1px, rgb(255, 255, 255) 1px -1px 1px, rgb(255, 255, 255) -1px 1px 1px; white-space: pre;"></text></g><g class="sankey-node" transform="translate(530.000,64.142)" style="opacity: 1;"><rect class="node-rect" width="20" height="63.71681415929203" style="stroke-width: 0.5; stroke: rgb(68, 68, 68); stroke-opacity: 1; fill: rgb(86, 180, 233); fill-opacity: 1;"/><text class="node-label" data-notex="1" x="0" y="0" text-anchor="end" transform="translate(-3.25,36.05840707964602)" style="cursor: default; font-family: 'Open Sans', verdana, arial, sans-serif; font-size: 12px; fill: rgb(42, 63, 95); fill-opacity: 1; text-shadow: rgb(255, 255, 255) 1px 1px 1px, rgb(255, 255, 255) -1px -1px 1px, rgb(255, 255, 255) 1px -1px 1px, rgb(255, 255, 255) -1px 1px 1px; white-space: pre;"></text></g></g></g><defs id="topdefs-a97a92"><g class="clips"/></defs><g class="layer-above"><g class="imagelayer"/><g class="shapelayer"/></g><g class="infolayer"><g class="g-gtitle"/><g class="first-render"/></g></svg>