<svg class="main-svg" xmlns="http://www.w3.org/2000/svg" xmlns:xlink="http://www.w3.org/1999/xlink" width="700" height="500" style="" viewBox="0 0 700 500"><rect x="0" y="0" width="700" height="500" style="fill: rgb(255, 255, 255); fill-opacity: 1;"/><defs id="defs-8f5b8c"><g class="clips"/><g class="gradients"/><g class="patterns"/></defs><g class="bglayer"/><g class="layer-below"><g class="imagelayer"/><g class="shapelayer"/></g><g class="cartesianlayer"/><g class="polarlayer"/><g class="smithlayer"/><g class="ternarylayer"/><g class="geolayer"/><g class="funnelarealayer"/><g class="pielayer"/><g class="iciclelayer"/><g class="treemaplayer"/><g class="sunburstlayer"/><g class="glimages"/><g class="sankey" transform="translate(80,100)matrix(1 0 0 1 0 0)" style="box-sizing: content-box; position: absolute; left: 0px; shape-rendering: geometricprecision; pointer-events: none;"><g class="sankey-links" style="fill: none;"><path class="sankey-link" d="M64,33.876288659793836C135,33.876288659793836 135,164.63917525773198 206,164.63917525773198L206,165.7113402061856C135,165.7113402061856 135,34.94845360824744 64,34.94845360824744Z" style="stroke: rgb(68, 68, 68); stroke-opacity: 1; fill: rgb(0, 0, 0); fill-opacity: 0.2; stroke-width: 0; opacity: 1;"/><path class="sankey-link" d="M64,32.26804123711342C135,32.26804123711342 135,141.95876288659795 206,141.95876288659795L206,143.56701030927834C135,143.56701030927834 135,33.87628865979383 64,33.87628865979383Z" style="stroke: rgb(68, 68, 68); stroke-opacity: 1; fill: rgb(0, 0, 0); fill-opacity: 0.2; stroke-width: 0; opacity: 1;"/><path class="sankey-link" d="M64,29.051546391752595C135,29.051546391752595 135,58.37113402061857 206,58.37113402061857L206,59.979381443298976C135,59.979381443298976 135,30.65979381443301 64,30.65979381443301Z" style="stroke: rgb(68, 68, 68); stroke-opacity: 1; fill: rgb(0, 0, 0); fill-opacity: 0.2; stroke-width: 0; opacity: 1;"/><path class="sankey-link" d="M64,30.65979381443301C135,30.65979381443301 135,118.74226804123711 206,118.74226804123711L206,120.35051546391753C135,120.35051546391753 135,32.26804123711342 64,32.26804123711342Z" style="stroke: rgb(68, 68, 68); stroke-opacity: 1; fill: rgb(0, 0, 0); fill-opacity: 0.2; stroke-width: 0; opacity: 1;"/><path class="sankey-link" d="M226,94.45360824742266C297,94.45360824742266 297,265.19587628866003 368,265.19587628866003L368,267.3402061855673C297,267.3402061855673 297,96.59793814432987 226,96.59793814432987Z" style="stroke: rgb(68, 68, 68); stroke-opacity: 1; fill: rgb(0, 0, 0); fill-opacity: 0.2; stroke-width: 0; opacity: 1;"/><path class="sankey-link" d="M226,96.59793814432989C297,96.59793814432989 297,321.64948453608287 368,321.64948453608287L368,323.79381443299013C297,323.79381443299013 297,98.7422680412371 226,98.7422680412371Z" style="stroke: rgb(68, 68, 68); stroke-opacity: 1; fill: rgb(0, 0, 0); fill-opacity: 0.2; stroke-width: 0; opacity: 1;"/><path class="sankey-link" d="M226,89.62886597938143C297,89.62886597938143 297,34.35051546391749 368,34.35051546391749L368,35.958762886597896C297,35.958762886597896 297,91.23711340206185 226,91.23711340206185Z" style="stroke: rgb(68, 68, 68); stroke-opacity: 1; fill: rgb(0, 0, 0); fill-opacity: 0.2; stroke-width: 0; opacity: 1;"/><path class="sankey-link" d="M226,91.23711340206184C297,91.23711340206184 297,186.2268041237114 368,186.2268041237114L368,189.44329896907223C297,189.44329896907223 297,94.45360824742265 226,94.45360824742265Z" style="stroke: rgb(68, 68, 68); stroke-opacity: 1; fill: rgb(0, 0, 0); fill-opacity: 0.2; stroke-width: 0; opacity: 1;"/><path class="sankey-link" d="M226,164.63917525773198C297,164.63917525773198 297,192.12371134020623 368,192.12371134020623L368,193.73195876288662C297,193.73195876288662 297,166.24742268041237 226,166.24742268041237Z" style="stroke: rgb(68, 68, 68); stroke-opacity: 1; fill: rgb(0, 0, 0); fill-opacity: 0.2; stroke-width: 0; opacity: 1;"/><path class="sankey-link" d="M226,141.95876288659795C297,141.95876288659795 297,189.4432989690722 368,189.4432989690722L368,192.12371134020623C297,192.12371134020623 297,144.63917525773198 226,144.63917525773198Z" style="stroke: rgb(68, 68, 68); stroke-opacity: 1; fill: rgb(0, 0, 0); fill-opacity: 0.2; stroke-width: 0; opacity: 1;"/><path class="sankey-link" d="M226,66.94845360824743C297,66.94845360824743 297,264.1237113402064 368,264.1237113402064L368,265.19587628866003C297,265.19587628866003 297,68.02061855670104 226,68.02061855670104Z" style="stroke: rgb(68, 68, 68); stroke-opacity: 1; fill: rgb(0, 0, 0); fill-opacity: 0.2; stroke-width: 0; opacity: 1;"/><path class="sankey-link" d="M226,68.02061855670104C297,68.02061855670104 297,320.0412371134025 368,320.0412371134025L368,321.64948453608287C297,321.64948453608287 297,69.62886597938146 226,69.62886597938146Z" style="stroke: rgb(68, 68, 68); stroke-opacity: 1; fill: rgb(0, 0, 0); fill-opacity: 0.2; stroke-width: 0; opacity: 1;"/><path class="sankey-link" d="M226,58.37113402061857C297,58.37113402061857 297,177.64948453608253 368,177.64948453608253L368,186.22680412371142C297,186.22680412371142 297,66.94845360824743 226,66.94845360824743Z" style="stroke: rgb(68, 68, 68); stroke-opacity: 1; fill: rgb(0, 0, 0); fill-opacity: 0.2; stroke-width: 0; opacity: 1;"/><path class="sankey-link" d="M226,119.81443298969072C297,119.81443298969072 297,267.34020618556724 368,267.34020618556724L368,267.876288659794C297,267.876288659794 297,120.35051546391753 226,120.35051546391753Z" style="stroke: rgb(0, 0, 0); stroke-opacity: 0.2; fill: rgb(0, 0, 0); fill-opacity: 0.2; stroke-width: 1; opacity: 1;"/><path class="sankey-link" d="M226,120.35051546391752C297,120.35051546391752 297,323.7938144329901 368,323.7938144329901L368,325.40206185567047C297,325.40206185567047 297,121.95876288659794 226,121.95876288659794Z" style="stroke: rgb(68, 68, 68); stroke-opacity: 1; fill: rgb(0, 0, 0); fill-opacity: 0.2; stroke-width: 0; opacity: 1;"/><path class="sankey-link" d="M226,118.74226804123711C297,118.74226804123711 297,35.9587628865979 368,35.9587628865979L368,37.03092783505151C297,37.03092783505151 297,119.81443298969072 226,119.81443298969072Z" style="stroke: rgb(68, 68, 68); stroke-opacity: 1; fill: rgb(0, 0, 0); fill-opacity: 0.2; stroke-width: 0; opacity: 1;"/><path class="sankey-link" d="M388,372.2061855670106C459,372.2061855670106 459,333.11340206185594 530,333.11340206185594L530,334.18556701030957C459,334.18556701030957 459,373.27835051546424 388,373.27835051546424Z" style="stroke: rgb(68, 68, 68); stroke-opacity: 1; fill: rgb(0, 0, 0); fill-opacity: 0.2; stroke-width: 0; opacity: 1;"/><path class="sankey-link" d="M388,371.134020618557C459,371.134020618557 459,282.02061855670104 530,282.02061855670104L530,283.09278350515467C459,283.09278350515467 459,372.2061855670106 388,372.2061855670106Z" style="stroke: rgb(68, 68, 68); stroke-opacity: 1; fill: rgb(0, 0, 0); fill-opacity: 0.2; stroke-width: 0; opacity: 1;"/><path class="sankey-link" d="M388,373.27835051546424C459,373.27835051546424 459,369.1958762886601 530,369.1958762886601L530,370.2680412371137C459,370.2680412371137 459,374.3505154639179 388,374.3505154639179Z" style="stroke: rgb(68, 68, 68); stroke-opacity: 1; fill: rgb(0, 0, 0); fill-opacity: 0.2; stroke-width: 0; opacity: 1;"/><path class="sankey-link" d="M388,370.06185567010334C459,370.06185567010334 459,204.65979381443296 530,204.65979381443296L530,205.7319587628866C459,205.7319587628866 459,371.134020618557 388,371.134020618557Z" style="stroke: rgb(68, 68, 68); stroke-opacity: 1; fill: rgb(0, 0, 0); fill-opacity: 0.2; stroke-width: 0; opacity: 1;"/><path class="sankey-link" d="M388,296.28865979381465C459,296.28865979381465 459,280.41237113402065 530,280.41237113402065L530,282.02061855670104C459,282.02061855670104 459,297.89690721649504 388,297.89690721649504Z" style="stroke: rgb(68, 68, 68); stroke-opacity: 1; fill: rgb(0, 0, 0); fill-opacity: 0.2; stroke-width: 0; opacity: 1;"/><path class="sankey-link" d="M388,297.89690721649504C459,297.89690721649504 459,365.97938144329925 530,365.97938144329925L530,368.1237113402065C459,368.1237113402065 459,300.0412371134023 388,300.0412371134023Z" style="stroke: rgb(68, 68, 68); stroke-opacity: 1; fill: rgb(0, 0, 0); fill-opacity: 0.2; stroke-width: 0; opacity: 1;"/><path class="sankey-link" d="M388,264.12371134020634C459,264.12371134020634 459,144.0824742268041 530,144.0824742268041L530,176.24742268041234C459,176.24742268041234 459,296.28865979381465 388,296.28865979381465Z" style="stroke: rgb(68, 68, 68); stroke-opacity: 1; fill: rgb(0, 0, 0); fill-opacity: 0.2; stroke-width: 0; opacity: 1;"/><path class="sankey-link" d="M388,348.45360824742306C459,348.45360824742306 459,332.5773195876291 530,332.5773195876291L530,333.1134020618559C459,333.1134020618559 459,348.9896907216498 388,348.9896907216498Z" style="stroke: rgb(0, 0, 0); stroke-opacity: 0.2; fill: rgb(0, 0, 0); fill-opacity: 0.2; stroke-width: 1; opacity: 1;"/><path class="sankey-link" d="M388,348.9896907216499C459,348.9896907216499 459,368.12371134020646 530,368.12371134020646L530,369.1958762886601C459,369.1958762886601 459,350.0618556701035 388,350.0618556701035Z" style="stroke: rgb(68, 68, 68); stroke-opacity: 1; fill: rgb(0, 0, 0); fill-opacity: 0.2; stroke-width: 0; opacity: 1;"/><path class="sankey-link" d="M388,320.0412371134025C459,320.0412371134025 459,176.24742268041234 530,176.24742268041234L530,204.659793814433C459,204.659793814433 459,348.4536082474231 388,348.4536082474231Z" style="stroke: rgb(68, 68, 68); stroke-opacity: 1; fill: rgb(0, 0, 0); fill-opacity: 0.2; stroke-width: 0; opacity: 1;"/><path class="sankey-link" d="M388,143.7113402061855C459,143.7113402061855 459,303.0927835051549 530,303.0927835051549L530,317.0309278350518C459,317.0309278350518 459,157.64948453608238 388,157.64948453608238Z" style="stroke: rgb(68, 68, 68); stroke-opacity: 1; fill: rgb(0, 0, 0); fill-opacity: 0.2; stroke-width: 0; opacity: 1;"/><path class="sankey-link" d="M388,128.1649484536082C459,128.1649484536082 459,225.73195876288662 530,225.73195876288662L530,241.27835051546396C459,241.27835051546396 459,143.71134020618553 388,143.71134020618553Z" style="stroke: rgb(68, 68, 68); stroke-opacity: 1; fill: rgb(0, 0, 0); fill-opacity: 0.2; stroke-width: 0; opacity: 1;"/><path class="sankey-link" d="M388,34.35051546391749C459,34.35051546391749 459,50.26804123711338 530,50.26804123711338L530,144.0824742268041C459,144.0824742268041 459,128.1649484536082 388,128.1649484536082Z" style="stroke: rgb(68, 68, 68); stroke-opacity: 1; fill: rgb(0, 0, 0); fill-opacity: 0.2; stroke-width: 0; opacity: 1;"/><path class="sankey-link" d="M388,216.78350515463922C459,216.78350515463922 459,317.0309278350518 530,317.0309278350518L530,332.57731958762906C459,332.57731958762906 459,232.32989690721655 388,232.32989690721655Z" style="stroke: rgb(68, 68, 68); stroke-opacity: 1; fill: rgb(0, 0, 0); fill-opacity: 0.2; stroke-width: 0; opacity: 1;"/><path class="sankey-link" d="M388,177.64948453608253C459,177.64948453608253 459,241.27835051546393 530,241.27835051546393L530,280.41237113402065C459,280.41237113402065 459,216.78350515463922 388,216.78350515463922Z" style="stroke: rgb(68, 68, 68); stroke-opacity: 1; fill: rgb(0, 0, 0); fill-opacity: 0.2; stroke-width: 0; opacity: 1;"/><path class="sankey-link" d="M388,232.32989690721652C459,232.32989690721652 459,354.18556701030957 530,354.18556701030957L530,365.9793814432993C459,365.9793814432993 459,244.1237113402062 388,244.1237113402062Z" style="stroke: rgb(68, 68, 68); stroke-opacity: 1; fill: rgb(0, 0, 0); fill-opacity: 0.2; stroke-width: 0; opacity: 1;"/></g><g class="sankey-node-set" style="cursor: move;"><g class="sankey-node" transform="translate(44.000,29.052)" style="opacity: 1;"><rect class="node-rect" width="20" height="5.89690721649481" style="stroke-width: 0.5; stroke: rgb(68, 68, 68); stroke-opacity: 1; fill: rgb(240, 228, 66); fill-opacity: 1;"/><text class="node-label" data-notex="1" x="0" y="0" text-anchor="start" transform="translate(23.25,7.148453608247404)" style="cursor: default; font-family: 'Open Sans', verdana, arial, sans-serif; font-size: 12px; fill: rgb(42, 63, 95); fill-opacity: 1; text-shadow: rgb(255, 255, 255) 1px 1px 1px, rgb(255, 255, 255) -1px -1px 1px, rgb(255, 255, 255) 1px -1px 1px, rgb(255, 255, 255) -1px 1px 1px; white-space: pre;"></text></g><g class="sankey-node" transform="translate(206.000,89.629)" style="opacity: 1;"><rect class="node-rect" width="20" height="9.11340206185568" style="stroke-width: 0.5; stroke: rgb(68, 68, 68); stroke-opacity: 1; fill: rgb(240, 228, 66); fill-opacity: 1;"/><text class="node-label" data-notex="1" x="0" y="0" text-anchor="start" transform="translate(23.25,8.75670103092784)" style="cursor: default; font-family: 'Open Sans', verdana, arial, sans-serif; font-size: 12px; fill: rgb(42, 63, 95); fill-opacity: 1; text-shadow: rgb(255, 255, 255) 1px 1px 1px, rgb(255, 255, 255) -1px -1px 1px, rgb(255, 255, 255) 1px -1px 1px, rgb(255, 255, 255) -1px 1px 1px; white-space: pre;"></text></g><g class="sankey-node" transform="translate(206.000,164.639)" style="opacity: 1;"><rect class="node-rect" width="20" height="1.6082474226803924" style="stroke-width: 0.5; stroke: rgb(68, 68, 68); stroke-opacity: 1; fill: rgb(0, 158, 115); fill-opacity: 1;"/><text class="node-label" data-notex="1" x="0" y="0" text-anchor="start" transform="translate(23.25,5.0041237113401955)" style="cursor: default; font-family: 'Open Sans', verdana, arial, sans-serif; font-size: 12px; fill: rgb(42, 63, 95); fill-opacity: 1; text-shadow: rgb(255, 255, 255) 1px 1px 1px, rgb(255, 255, 255) -1px -1px 1px, rgb(255, 255, 255) 1px -1px 1px, rgb(255, 255, 255) -1px 1px 1px; white-space: pre;"></text></g><g class="sankey-node" transform="translate(206.000,141.959)" style="opacity: 1;"><rect class="node-rect" width="20" height="2.6804123711340253" style="stroke-width: 0.5; stroke: rgb(68, 68, 68); stroke-opacity: 1; fill: rgb(213, 94, 0); fill-opacity: 1;"/><text class="node-label" data-notex="1" x="0" y="0" text-anchor="start" transform="translate(23.25,5.540206185567012)" style="cursor: default; font-family: 'Open Sans', verdana, arial, sans-serif; font-size: 12px; fill: rgb(42, 63, 95); fill-opacity: 1; text-shadow: rgb(255, 255, 255) 1px 1px 1px, rgb(255, 255, 255) -1px -1px 1px, rgb(255, 255, 255) 1px -1px 1px, rgb(255, 255, 255) -1px 1px 1px; white-space: pre;"></text></g><g class="sankey-node" transform="translate(206.000,58.371)" style="opacity: 1;"><rect class="node-rect" width="20" height="11.25773195876286" style="stroke-width: 0.5; stroke: rgb(68, 68, 68); stroke-opacity: 1; fill: rgb(230, 159, 0); fill-opacity: 1;"/><text class="node-label" data-notex="1" x="0" y="0" text-anchor="start" transform="translate(23.25,9.82886597938143)" style="cursor: default; font-family: 'Open Sans', verdana, arial, sans-serif; font-size: 12px; fill: rgb(42, 63, 95); fill-opacity: 1; text-shadow: rgb(255, 255, 255) 1px 1px 1px, rgb(255, 255, 255) -1px -1px 1px, rgb(255, 255, 255) 1px -1px 1px, rgb(255, 255, 255) -1px 1px 1px; white-space: pre;"></text></g><g class="sankey-node" transform="translate(206.000,118.742)" style="opacity: 1;"><rect class="node-rect" width="20" height="3.2164948453608417" style="stroke-width: 0.5; stroke: rgb(68, 68, 68); stroke-opacity: 1; fill: rgb(86, 180, 233); fill-opacity: 1;"/><text class="node-label" data-notex="1" x="0" y="0" text-anchor="start" transform="translate(23.25,5.80824742268042)" style="cursor: default; font-family: 'Open Sans', verdana, arial, sans-serif; font-size: 12px; fill: rgb(42, 63, 95); fill-opacity: 1; text-shadow: rgb(255, 255, 255) 1px 1px 1px, rgb(255, 255, 255) -1px -1px 1px, rgb(255, 255, 255) 1px -1px 1px, rgb(255, 255, 255) -1px 1px 1px; white-space: pre;"></text></g><g class="sankey-node" transform="translate(368.000,370.062)" style="opacity: 1;"><rect class="node-rect" width="20" height="4.288659793814531" style="stroke-width: 0.5; stroke: rgb(68, 68, 68); stroke-opacity: 1; fill: rgb(240, 228, 66); fill-opacity: 1;"/><text class="node-label" data-notex="1" x="0" y="0" text-anchor="start" transform="translate(23.25,6.344329896907265)" style="cursor: default; font-family: 'Open Sans', verdana, arial, sans-serif; font-size: 12px; fill: rgb(42, 63, 95); fill-opacity: 1; text-shadow: rgb(255, 255, 255) 1px 1px 1px, rgb(255, 255, 255) -1px -1px 1px, rgb(255, 255, 255) 1px -1px 1px, rgb(255, 255, 255) -1px 1px 1px; white-space: pre;"></text></g><g class="sankey-node" transform="translate(368.000,264.124)" style="opacity: 1;"><rect class="node-rect" width="20" height="35.917525773196076" style="stroke-width: 0.5; stroke: rgb(68, 68, 68); stroke-opacity: 1; fill: rgb(0, 158, 115); fill-opacity: 1;"/><text class="node-label" data-notex="1" x="0" y="0" text-anchor="start" transform="translate(23.25,22.158762886598037)" style="cursor: default; font-family: 'Open Sans', verdana, arial, sans-serif; font-size: 12px; fill: rgb(42, 63, 95); fill-opacity: 1; text-shadow: rgb(255, 255, 255) 1px 1px 1px, rgb(255, 255, 255) -1px -1px 1px, rgb(255, 255, 255) 1px -1px 1px, rgb(255, 255, 255) -1px 1px 1px; white-space: pre;"></text></g><g class="sankey-node" transform="translate(368.000,320.041)" style="opacity: 1;"><rect class="node-rect" width="20" height="30.020618556700924" style="stroke-width: 0.5; stroke: rgb(68, 68, 68); stroke-opacity: 1; fill: rgb(213, 94, 0); fill-opacity: 1;"/><text class="node-label" data-notex="1" x="0" y="0" text-anchor="start" transform="translate(23.25,19.21030927835046)" style="cursor: default; font-family: 'Open Sans', verdana, arial, sans-serif; font-size: 12px; fill: rgb(42, 63, 95); fill-opacity: 1; text-shadow: rgb(255, 255, 255) 1px 1px 1px, rgb(255, 255, 255) -1px -1px 1px, rgb(255, 255, 255) 1px -1px 1px, rgb(255, 255, 255) -1px 1px 1px; white-space: pre;"></text></g><g class="sankey-node" transform="translate(368.000,34.351)" style="opacity: 1;"><rect class="node-rect" width="20" height="123.29896907216504" style="stroke-width: 0.5; stroke: rgb(68, 68, 68); stroke-opacity: 1; fill: rgb(230, 159, 0); fill-opacity: 1;"/><text class="node-label" data-notex="1" x="0" y="0" text-anchor="start" transform="translate(23.25,65.84948453608251)" style="cursor: default; font-family: 'Open Sans', verdana, arial, sans-serif; font-size: 12px; fill: rgb(42, 63, 95); fill-opacity: 1; text-shadow: rgb(255, 255, 255) 1px 1px 1px, rgb(255, 255, 255) -1px -1px 1px, rgb(255, 255, 255) 1px -1px 1px, rgb(255, 255, 255) -1px 1px 1px; white-space: pre;"></text></g><g class="sankey-node" transform="translate(368.000,177.649)" style="opacity: 1;"><rect class="node-rect" width="20" height="66.47422680412387" style="stroke-width: 0.5; stroke: rgb(68, 68, 68); stroke-opacity: 1; fill: rgb(86, 180, 233); fill-opacity: 1;"/><text class="node-label" data-notex="1" x="0" y="0" text-anchor="start" transform="translate(23.25,37.43711340206194)" style="cursor: default; font-family: 'Open Sans', verdana, arial, sans-serif; font-size: 12px; fill: rgb(42, 63, 95); fill-opacity: 1; text-shadow: rgb(255, 255, 255) 1px 1px 1px, rgb(255, 255, 255) -1px -1px 1px, rgb(255, 255, 255) 1px -1px 1px, rgb(255, 255, 255) -1px 1px 1px; white-space: pre;"></text></g><g class="sankey-node" transform="translate(530.000,303.093)" style="opacity: 1;"><rect class="node-rect" width="20" height="31.09278350515467" style="stroke-width: 0.5; stroke: rgb(68, 68, 68); stroke-opacity: 1; fill: rgb(0, 158, 115); fill-opacity: 1;"/><text class="node-label" data-notex="1" x="0" y="0" text-anchor="end" transform="translate(-3.25,19.746391752577335)" style="cursor: default; font-family: 'Open Sans', verdana, arial, sans-serif; font-size: 12px; fill: rgb(42, 63, 95); fill-opacity: 1; text-shadow: rgb(255, 255, 255) 1px 1px 1px, rgb(255, 255, 255) -1px -1px 1px, rgb(255, 255, 255) 1px -1px 1px, rgb(255, 255, 255) -1px 1px 1px; white-space: pre;"></text></g><g class="sankey-node" transform="translate(530.000,225.732)" style="opacity: 1;"><rect class="node-rect" width="20" height="57.36082474226828" style="stroke-width: 0.5; stroke: rgb(68, 68, 68); stroke-opacity: 1; fill: rgb(213, 94, 0); fill-opacity: 1;"/><text class="node-label" data-notex="1" x="0" y="0" text-anchor="end" transform="translate(-3.25,32.88041237113414)" style="cursor: default; font-family: 'Open Sans', verdana, arial, sans-serif; font-size: 12px; fill: rgb(42, 63, 95); fill-opacity: 1; text-shadow: rgb(255, 255, 255) 1px 1px 1px, rgb(255, 255, 255) -1px -1px 1px, rgb(255, 255, 255) 1px -1px 1px, rgb(255, 255, 255) -1px 1px 1px; white-space: pre;"></text></g><g class="sankey-node" transform="translate(530.000,354.186)" style="opacity: 1;"><rect class="node-rect" width="20" height="16.082474226804152" style="stroke-width: 0.5; stroke: rgb(68, 68, 68); stroke-opacity: 1; fill: rgb(230, 159, 0); fill-opacity: 1;"/><text class="node-label" data-notex="1" x="0" y="0" text-anchor="end" transform="translate(-3.25,12.241237113402075)" style="cursor: default; font-family: 'Open Sans', verdana, arial, sans-serif; font-size: 12px; fill: rgb(42, 63, 95); fill-opacity: 1; text-shadow: rgb(255, 255, 255) 1px 1px 1px, rgb(255, 255, 255) -1px -1px 1px, rgb(255, 255, 255) 1px -1px 1px, rgb(255, 255, 255) -1px 1px 1px; white-space: pre;"></text></g><g class="sankey-node" transform="translate(530.000,50.268)" style="opacity: 1;"><rect class="node-rect" width="20" height="155.46391752577324" style="stroke-width: 0.5; stroke: rgb(68, 68, 68); stroke-opacity: 1; fill: rgb(86, 180, 233); fill-opacity: 1;"/><text class="node-label" data-notex="1" x="0" y="0" text-anchor="end" transform="translate(-3.25,81.93195876288662)" style="cursor: default; font-family: 'Open Sans', verdana, arial, sans-serif; font-size: 12px; fill: rgb(42, 63, 95); fill-opacity: 1; text-shadow: rgb(255, 255, 255) 1px 1px 1px, rgb(255, 255, 255) -1px -1px 1px, rgb(255, 255, 255) 1px -1px 1px, rgb(255, 255, 255) -1px 1px 1px; white-space: pre;"></text></g></g></g><defs id="topdefs-8f5b8c"><g class="clips"/></defs><g class="layer-above"><g class="imagelayer"/><g class="shapelayer"/></g><g class="infolayer"><g class="g-gtitle"/><g class="first-render"/></g></svg>