<svg class="main-svg" xmlns="http://www.w3.org/2000/svg" xmlns:xlink="http://www.w3.org/1999/xlink" width="700" height="500" style="" viewBox="0 0 700 500"><rect x="0" y="0" width="700" height="500" style="fill: rgb(255, 255, 255); fill-opacity: 1;"/><defs id="defs-a23de0"><g class="clips"/><g class="gradients"/><g class="patterns"/></defs><g class="bglayer"/><g class="layer-below"><g class="imagelayer"/><g class="shapelayer"/></g><g class="cartesianlayer"/><g class="polarlayer"/><g class="smithlayer"/><g class="ternarylayer"/><g class="geolayer"/><g class="funnelarealayer"/><g class="pielayer"/><g class="iciclelayer"/><g class="treemaplayer"/><g class="sunburstlayer"/><g class="glimages"/><g class="sankey" transform="translate(80,100)matrix(1 0 0 1 0 0)" style="box-sizing: content-box; position: absolute; left: 0px; shape-rendering: geometricprecision; pointer-events: none;"><g class="sankey-links" style="fill: none;"><path class="sankey-link" d="M64,34.040358744394624C135,34.040358744394624 135,170.23318385650205 206,170.23318385650205L206,171.98206278026888C135,171.98206278026888 135,35.789237668161434 64,35.789237668161434Z" style="stroke: rgb(68, 68, 68); stroke-opacity: 1; fill: rgb(0, 0, 0); fill-opacity: 0.2; stroke-width: 0; opacity: 1;"/><path class="sankey-link" d="M64,29.959641255605383C135,29.959641255605383 135,123.23766816143498 206,123.23766816143498L206,124.9865470852018C135,124.9865470852018 135,31.7085201793722 64,31.7085201793722Z" style="stroke: rgb(68, 68, 68); stroke-opacity: 1; fill: rgb(0, 0, 0); fill-opacity: 0.2; stroke-width: 0; opacity: 1;"/><path class="sankey-link" d="M64,28.210762331838566C135,28.210762331838566 135,56.42152466367713 206,56.42152466367713L206,58.17040358744394C135,58.17040358744394 135,29.959641255605383 64,29.959641255605383Z" style="stroke: rgb(68, 68, 68); stroke-opacity: 1; fill: rgb(0, 0, 0); fill-opacity: 0.2; stroke-width: 0; opacity: 1;"/><path class="sankey-link" d="M64,31.7085201793722C135,31.7085201793722 135,147.3183856502241 206,147.3183856502241L206,149.65022421524648C135,149.65022421524648 135,34.040358744394624 64,34.040358744394624Z" style="stroke: rgb(68, 68, 68); stroke-opacity: 1; fill: rgb(0, 0, 0); fill-opacity: 0.2; stroke-width: 0; opacity: 1;"/><path class="sankey-link" d="M226,100.32286995515693C297,100.32286995515693 297,313.3991031390133 368,313.3991031390133L368,316.31390134529136C297,316.31390134529136 297,103.23766816143495 226,103.23766816143495Z" style="stroke: rgb(68, 68, 68); stroke-opacity: 1; fill: rgb(0, 0, 0); fill-opacity: 0.2; stroke-width: 0; opacity: 1;"/><path class="sankey-link" d="M226,97.40807174887891C297,97.40807174887891 297,261.9192825112105 368,261.9192825112105L368,264.8340807174886C297,264.8340807174886 297,100.32286995515693 226,100.32286995515693Z" style="stroke: rgb(68, 68, 68); stroke-opacity: 1; fill: rgb(0, 0, 0); fill-opacity: 0.2; stroke-width: 0; opacity: 1;"/><path class="sankey-link" d="M226,91.57847533632287C297,91.57847533632287 297,24.295964125560502 368,24.295964125560502L368,26.04484304932732C297,26.04484304932732 297,93.32735426008969 226,93.32735426008969Z" style="stroke: rgb(68, 68, 68); stroke-opacity: 1; fill: rgb(0, 0, 0); fill-opacity: 0.2; stroke-width: 0; opacity: 1;"/><path class="sankey-link" d="M226,93.32735426008968C297,93.32735426008968 297,200.52914798206282 368,200.52914798206282L368,204.60986547085204C297,204.60986547085204 297,97.40807174887892 226,97.40807174887892Z" style="stroke: rgb(68, 68, 68); stroke-opacity: 1; fill: rgb(0, 0, 0); fill-opacity: 0.2; stroke-width: 0; opacity: 1;"/><path class="sankey-link" d="M226,170.23318385650205C297,170.23318385650205 297,208.69058295964132 368,208.69058295964132L368,210.43946188340814C297,210.43946188340814 297,171.98206278026888 226,171.98206278026888Z" style="stroke: rgb(68, 68, 68); stroke-opacity: 1; fill: rgb(0, 0, 0); fill-opacity: 0.2; stroke-width: 0; opacity: 1;"/><path class="sankey-link" d="M226,123.23766816143498C297,123.23766816143498 297,204.60986547085207 368,204.60986547085207L368,208.6905829596413C297,208.6905829596413 297,127.31838565022423 226,127.31838565022423Z" style="stroke: rgb(68, 68, 68); stroke-opacity: 1; fill: rgb(0, 0, 0); fill-opacity: 0.2; stroke-width: 0; opacity: 1;"/><path class="sankey-link" d="M226,70.41255605381166C297,70.41255605381166 297,312.2331838565021 368,312.2331838565021L368,313.39910313901333C297,313.39910313901333 297,71.57847533632285 226,71.57847533632285Z" style="stroke: rgb(68, 68, 68); stroke-opacity: 1; fill: rgb(0, 0, 0); fill-opacity: 0.2; stroke-width: 0; opacity: 1;"/><path class="sankey-link" d="M226,69.24663677130044C297,69.24663677130044 297,260.7533632286993 368,260.7533632286993L368,261.91928251121055C297,261.91928251121055 297,70.41255605381164 226,70.41255605381164Z" style="stroke: rgb(68, 68, 68); stroke-opacity: 1; fill: rgb(0, 0, 0); fill-opacity: 0.2; stroke-width: 0; opacity: 1;"/><path class="sankey-link" d="M226,56.42152466367713C297,56.42152466367713 297,187.7040358744395 368,187.7040358744395L368,200.52914798206285C297,200.52914798206285 297,69.24663677130044 226,69.24663677130044Z" style="stroke: rgb(68, 68, 68); stroke-opacity: 1; fill: rgb(0, 0, 0); fill-opacity: 0.2; stroke-width: 0; opacity: 1;"/><path class="sankey-link" d="M226,149.6502242152465C297,149.6502242152465 297,316.3139013452913 368,316.3139013452913L368,316.89686098654687C297,316.89686098654687 297,150.23318385650214 226,150.23318385650214Z" style="stroke: rgb(0, 0, 0); stroke-opacity: 0.2; fill: rgb(0, 0, 0); fill-opacity: 0.2; stroke-width: 1; opacity: 1;"/><path class="sankey-link" d="M226,147.90134529147969C297,147.90134529147969 297,264.8340807174885 368,264.8340807174885L368,266.58295964125534C297,266.58295964125534 297,149.6502242152465 226,149.6502242152465Z" style="stroke: rgb(68, 68, 68); stroke-opacity: 1; fill: rgb(0, 0, 0); fill-opacity: 0.2; stroke-width: 0; opacity: 1;"/><path class="sankey-link" d="M226,147.3183856502241C297,147.3183856502241 297,26.04484304932732 368,26.04484304932732L368,26.627802690582925C297,26.627802690582925 297,147.9013452914797 226,147.9013452914797Z" style="stroke: rgb(0, 0, 0); stroke-opacity: 0.2; fill: rgb(0, 0, 0); fill-opacity: 0.2; stroke-width: 1; opacity: 1;"/><path class="sankey-link" d="M388,361.96412556053804C459,361.96412556053804 459,325.9820627802691 530,325.9820627802691L530,327.14798206278033C459,327.14798206278033 459,363.1300448430493 388,363.1300448430493Z" style="stroke: rgb(68, 68, 68); stroke-opacity: 1; fill: rgb(0, 0, 0); fill-opacity: 0.2; stroke-width: 0; opacity: 1;"/><path class="sankey-link" d="M388,360.79820627802684C459,360.79820627802684 459,278.5829596412556 530,278.5829596412556L530,279.7488789237669C459,279.7488789237669 459,361.9641255605381 388,361.9641255605381Z" style="stroke: rgb(68, 68, 68); stroke-opacity: 1; fill: rgb(0, 0, 0); fill-opacity: 0.2; stroke-width: 0; opacity: 1;"/><path class="sankey-link" d="M388,363.13004484304923C459,363.13004484304923 459,359.9730941704036 530,359.9730941704036L530,361.13901345291487C459,361.13901345291487 459,364.2959641255605 388,364.2959641255605Z" style="stroke: rgb(68, 68, 68); stroke-opacity: 1; fill: rgb(0, 0, 0); fill-opacity: 0.2; stroke-width: 0; opacity: 1;"/><path class="sankey-link" d="M388,359.63228699551564C459,359.63228699551564 459,213.695067264574 530,213.695067264574L530,214.8609865470852C459,214.8609865470852 459,360.7982062780269 388,360.7982062780269Z" style="stroke: rgb(68, 68, 68); stroke-opacity: 1; fill: rgb(0, 0, 0); fill-opacity: 0.2; stroke-width: 0; opacity: 1;"/><path class="sankey-link" d="M388,336.1345291479819C459,336.1345291479819 459,276.8340807174888 530,276.8340807174888L530,278.5829596412556C459,278.5829596412556 459,337.8834080717487 388,337.8834080717487Z" style="stroke: rgb(68, 68, 68); stroke-opacity: 1; fill: rgb(0, 0, 0); fill-opacity: 0.2; stroke-width: 0; opacity: 1;"/><path class="sankey-link" d="M388,337.8834080717487C459,337.8834080717487 459,358.2242152466368 530,358.2242152466368L530,359.9730941704036C459,359.9730941704036 459,339.6322869955155 388,339.6322869955155Z" style="stroke: rgb(68, 68, 68); stroke-opacity: 1; fill: rgb(0, 0, 0); fill-opacity: 0.2; stroke-width: 0; opacity: 1;"/><path class="sankey-link" d="M388,312.2331838565021C459,312.2331838565021 459,189.79372197309416 530,189.79372197309416L530,213.69506726457396C459,213.69506726457396 459,336.13452914798194 388,336.13452914798194Z" style="stroke: rgb(68, 68, 68); stroke-opacity: 1; fill: rgb(0, 0, 0); fill-opacity: 0.2; stroke-width: 0; opacity: 1;"/><path class="sankey-link" d="M388,289.9013452914796C459,289.9013452914796 459,324.8161434977579 530,324.8161434977579L530,325.98206278026913C459,325.98206278026913 459,291.0672645739908 388,291.0672645739908Z" style="stroke: rgb(68, 68, 68); stroke-opacity: 1; fill: rgb(0, 0, 0); fill-opacity: 0.2; stroke-width: 0; opacity: 1;"/><path class="sankey-link" d="M388,291.06726457399077C459,291.06726457399077 459,357.0582959641256 530,357.0582959641256L530,358.22421524663685C459,358.22421524663685 459,292.233183856502 388,292.233183856502Z" style="stroke: rgb(68, 68, 68); stroke-opacity: 1; fill: rgb(0, 0, 0); fill-opacity: 0.2; stroke-width: 0; opacity: 1;"/><path class="sankey-link" d="M388,260.7533632286993C459,260.7533632286993 459,160.6457399103139 530,160.6457399103139L530,189.79372197309416C459,189.79372197309416 459,289.9013452914795 388,289.9013452914795Z" style="stroke: rgb(68, 68, 68); stroke-opacity: 1; fill: rgb(0, 0, 0); fill-opacity: 0.2; stroke-width: 0; opacity: 1;"/><path class="sankey-link" d="M388,156.6278026905829C459,156.6278026905829 459,299.7488789237668 530,299.7488789237668L530,310.82511210762334C459,310.82511210762334 459,167.70403587443943 388,167.70403587443943Z" style="stroke: rgb(68, 68, 68); stroke-opacity: 1; fill: rgb(0, 0, 0); fill-opacity: 0.2; stroke-width: 0; opacity: 1;"/><path class="sankey-link" d="M388,143.8026905829596C459,143.8026905829596 459,234.86098654708522 530,234.86098654708522L530,247.68609865470856C459,247.68609865470856 459,156.62780269058294 388,156.62780269058294Z" style="stroke: rgb(68, 68, 68); stroke-opacity: 1; fill: rgb(0, 0, 0); fill-opacity: 0.2; stroke-width: 0; opacity: 1;"/><path class="sankey-link" d="M388,24.295964125560502C459,24.295964125560502 459,41.13901345291478 530,41.13901345291478L530,160.6457399103139C459,160.6457399103139 459,143.8026905829596 388,143.8026905829596Z" style="stroke: rgb(68, 68, 68); stroke-opacity: 1; fill: rgb(0, 0, 0); fill-opacity: 0.2; stroke-width: 0; opacity: 1;"/><path class="sankey-link" d="M388,216.85201793721978C459,216.85201793721978 459,310.82511210762334 530,310.82511210762334L530,324.8161434977578C459,324.8161434977578 459,230.84304932735432 388,230.84304932735432Z" style="stroke: rgb(68, 68, 68); stroke-opacity: 1; fill: rgb(0, 0, 0); fill-opacity: 0.2; stroke-width: 0; opacity: 1;"/><path class="sankey-link" d="M388,187.7040358744395C459,187.7040358744395 459,247.6860986547085 530,247.6860986547085L530,276.83408071748875C459,276.83408071748875 459,216.85201793721978 388,216.85201793721978Z" style="stroke: rgb(68, 68, 68); stroke-opacity: 1; fill: rgb(0, 0, 0); fill-opacity: 0.2; stroke-width: 0; opacity: 1;"/><path class="sankey-link" d="M388,230.84304932735432C459,230.84304932735432 459,347.1479820627803 530,347.1479820627803L530,357.05829596412553C459,357.05829596412553 459,240.75336322869964 388,240.75336322869964Z" style="stroke: rgb(68, 68, 68); stroke-opacity: 1; fill: rgb(0, 0, 0); fill-opacity: 0.2; stroke-width: 0; opacity: 1;"/></g><g class="sankey-node-set" style="cursor: move;"><g class="sankey-node" transform="translate(44.000,28.211)" style="opacity: 1;"><rect class="node-rect" width="20" height="7.578475336322867" style="stroke-width: 0.5; stroke: rgb(68, 68, 68); stroke-opacity: 1; fill: rgb(240, 228, 66); fill-opacity: 1;"/><text class="node-label" data-notex="1" x="0" y="0" text-anchor="start" transform="translate(23.25,7.989237668161433)" style="cursor: default; font-family: 'Open Sans', verdana, arial, sans-serif; font-size: 12px; fill: rgb(42, 63, 95); fill-opacity: 1; text-shadow: rgb(255, 255, 255) 1px 1px 1px, rgb(255, 255, 255) -1px -1px 1px, rgb(255, 255, 255) 1px -1px 1px, rgb(255, 255, 255) -1px 1px 1px; white-space: pre;"></text></g><g class="sankey-node" transform="translate(206.000,91.578)" style="opacity: 1;"><rect class="node-rect" width="20" height="11.659192825112115" style="stroke-width: 0.5; stroke: rgb(68, 68, 68); stroke-opacity: 1; fill: rgb(240, 228, 66); fill-opacity: 1;"/><text class="node-label" data-notex="1" x="0" y="0" text-anchor="start" transform="translate(23.25,10.029596412556057)" style="cursor: default; font-family: 'Open Sans', verdana, arial, sans-serif; font-size: 12px; fill: rgb(42, 63, 95); fill-opacity: 1; text-shadow: rgb(255, 255, 255) 1px 1px 1px, rgb(255, 255, 255) -1px -1px 1px, rgb(255, 255, 255) 1px -1px 1px, rgb(255, 255, 255) -1px 1px 1px; white-space: pre;"></text></g><g class="sankey-node" transform="translate(206.000,170.233)" style="opacity: 1;"><rect class="node-rect" width="20" height="1.7488789237668243" style="stroke-width: 0.5; stroke: rgb(68, 68, 68); stroke-opacity: 1; fill: rgb(0, 158, 115); fill-opacity: 1;"/><text class="node-label" data-notex="1" x="0" y="0" text-anchor="start" transform="translate(23.25,5.074439461883411)" style="cursor: default; font-family: 'Open Sans', verdana, arial, sans-serif; font-size: 12px; fill: rgb(42, 63, 95); fill-opacity: 1; text-shadow: rgb(255, 255, 255) 1px 1px 1px, rgb(255, 255, 255) -1px -1px 1px, rgb(255, 255, 255) 1px -1px 1px, rgb(255, 255, 255) -1px 1px 1px; white-space: pre;"></text></g><g class="sankey-node" transform="translate(206.000,123.238)" style="opacity: 1;"><rect class="node-rect" width="20" height="4.080717488789105" style="stroke-width: 0.5; stroke: rgb(68, 68, 68); stroke-opacity: 1; fill: rgb(213, 94, 0); fill-opacity: 1;"/><text class="node-label" data-notex="1" x="0" y="0" text-anchor="start" transform="translate(23.25,6.240358744394552)" style="cursor: default; font-family: 'Open Sans', verdana, arial, sans-serif; font-size: 12px; fill: rgb(42, 63, 95); fill-opacity: 1; text-shadow: rgb(255, 255, 255) 1px 1px 1px, rgb(255, 255, 255) -1px -1px 1px, rgb(255, 255, 255) 1px -1px 1px, rgb(255, 255, 255) -1px 1px 1px; white-space: pre;"></text></g><g class="sankey-node" transform="translate(206.000,56.422)" style="opacity: 1;"><rect class="node-rect" width="20" height="15.156950672645735" style="stroke-width: 0.5; stroke: rgb(68, 68, 68); stroke-opacity: 1; fill: rgb(230, 159, 0); fill-opacity: 1;"/><text class="node-label" data-notex="1" x="0" y="0" text-anchor="start" transform="translate(23.25,11.778475336322867)" style="cursor: default; font-family: 'Open Sans', verdana, arial, sans-serif; font-size: 12px; fill: rgb(42, 63, 95); fill-opacity: 1; text-shadow: rgb(255, 255, 255) 1px 1px 1px, rgb(255, 255, 255) -1px -1px 1px, rgb(255, 255, 255) 1px -1px 1px, rgb(255, 255, 255) -1px 1px 1px; white-space: pre;"></text></g><g class="sankey-node" transform="translate(206.000,147.318)" style="opacity: 1;"><rect class="node-rect" width="20" height="2.9147982062779647" style="stroke-width: 0.5; stroke: rgb(68, 68, 68); stroke-opacity: 1; fill: rgb(86, 180, 233); fill-opacity: 1;"/><text class="node-label" data-notex="1" x="0" y="0" text-anchor="start" transform="translate(23.25,5.657399103138982)" style="cursor: default; font-family: 'Open Sans', verdana, arial, sans-serif; font-size: 12px; fill: rgb(42, 63, 95); fill-opacity: 1; text-shadow: rgb(255, 255, 255) 1px 1px 1px, rgb(255, 255, 255) -1px -1px 1px, rgb(255, 255, 255) 1px -1px 1px, rgb(255, 255, 255) -1px 1px 1px; white-space: pre;"></text></g><g class="sankey-node" transform="translate(368.000,359.632)" style="opacity: 1;"><rect class="node-rect" width="20" height="4.663677130044789" style="stroke-width: 0.5; stroke: rgb(68, 68, 68); stroke-opacity: 1; fill: rgb(240, 228, 66); fill-opacity: 1;"/><text class="node-label" data-notex="1" x="0" y="0" text-anchor="start" transform="translate(23.25,6.531838565022394)" style="cursor: default; font-family: 'Open Sans', verdana, arial, sans-serif; font-size: 12px; fill: rgb(42, 63, 95); fill-opacity: 1; text-shadow: rgb(255, 255, 255) 1px 1px 1px, rgb(255, 255, 255) -1px -1px 1px, rgb(255, 255, 255) 1px -1px 1px, rgb(255, 255, 255) -1px 1px 1px; white-space: pre;"></text></g><g class="sankey-node" transform="translate(368.000,312.233)" style="opacity: 1;"><rect class="node-rect" width="20" height="27.399103139013505" style="stroke-width: 0.5; stroke: rgb(68, 68, 68); stroke-opacity: 1; fill: rgb(0, 158, 115); fill-opacity: 1;"/><text class="node-label" data-notex="1" x="0" y="0" text-anchor="start" transform="translate(23.25,17.89955156950675)" style="cursor: default; font-family: 'Open Sans', verdana, arial, sans-serif; font-size: 12px; fill: rgb(42, 63, 95); fill-opacity: 1; text-shadow: rgb(255, 255, 255) 1px 1px 1px, rgb(255, 255, 255) -1px -1px 1px, rgb(255, 255, 255) 1px -1px 1px, rgb(255, 255, 255) -1px 1px 1px; white-space: pre;"></text></g><g class="sankey-node" transform="translate(368.000,260.753)" style="opacity: 1;"><rect class="node-rect" width="20" height="31.47982062780278" style="stroke-width: 0.5; stroke: rgb(68, 68, 68); stroke-opacity: 1; fill: rgb(213, 94, 0); fill-opacity: 1;"/><text class="node-label" data-notex="1" x="0" y="0" text-anchor="start" transform="translate(23.25,19.93991031390139)" style="cursor: default; font-family: 'Open Sans', verdana, arial, sans-serif; font-size: 12px; fill: rgb(42, 63, 95); fill-opacity: 1; text-shadow: rgb(255, 255, 255) 1px 1px 1px, rgb(255, 255, 255) -1px -1px 1px, rgb(255, 255, 255) 1px -1px 1px, rgb(255, 255, 255) -1px 1px 1px; white-space: pre;"></text></g><g class="sankey-node" transform="translate(368.000,24.296)" style="opacity: 1;"><rect class="node-rect" width="20" height="143.40807174887902" style="stroke-width: 0.5; stroke: rgb(68, 68, 68); stroke-opacity: 1; fill: rgb(230, 159, 0); fill-opacity: 1;"/><text class="node-label" data-notex="1" x="0" y="0" text-anchor="start" transform="translate(23.25,75.90403587443951)" style="cursor: default; font-family: 'Open Sans', verdana, arial, sans-serif; font-size: 12px; fill: rgb(42, 63, 95); fill-opacity: 1; text-shadow: rgb(255, 255, 255) 1px 1px 1px, rgb(255, 255, 255) -1px -1px 1px, rgb(255, 255, 255) 1px -1px 1px, rgb(255, 255, 255) -1px 1px 1px; white-space: pre;"></text></g><g class="sankey-node" transform="translate(368.000,187.704)" style="opacity: 1;"><rect class="node-rect" width="20" height="53.04932735425979" style="stroke-width: 0.5; stroke: rgb(68, 68, 68); stroke-opacity: 1; fill: rgb(86, 180, 233); fill-opacity: 1;"/><text class="node-label" data-notex="1" x="0" y="0" text-anchor="start" transform="translate(23.25,30.724663677129893)" style="cursor: default; font-family: 'Open Sans', verdana, arial, sans-serif; font-size: 12px; fill: rgb(42, 63, 95); fill-opacity: 1; text-shadow: rgb(255, 255, 255) 1px 1px 1px, rgb(255, 255, 255) -1px -1px 1px, rgb(255, 255, 255) 1px -1px 1px, rgb(255, 255, 255) -1px 1px 1px; white-space: pre;"></text></g><g class="sankey-node" transform="translate(530.000,299.749)" style="opacity: 1;"><rect class="node-rect" width="20" height="27.399103139013448" style="stroke-width: 0.5; stroke: rgb(68, 68, 68); stroke-opacity: 1; fill: rgb(0, 158, 115); fill-opacity: 1;"/><text class="node-label" data-notex="1" x="0" y="0" text-anchor="end" transform="translate(-3.25,17.899551569506723)" style="cursor: default; font-family: 'Open Sans', verdana, arial, sans-serif; font-size: 12px; fill: rgb(42, 63, 95); fill-opacity: 1; text-shadow: rgb(255, 255, 255) 1px 1px 1px, rgb(255, 255, 255) -1px -1px 1px, rgb(255, 255, 255) 1px -1px 1px, rgb(255, 255, 255) -1px 1px 1px; white-space: pre;"></text></g><g class="sankey-node" transform="translate(530.000,234.861)" style="opacity: 1;"><rect class="node-rect" width="20" height="44.887892376681606" style="stroke-width: 0.5; stroke: rgb(68, 68, 68); stroke-opacity: 1; fill: rgb(213, 94, 0); fill-opacity: 1;"/><text class="node-label" data-notex="1" x="0" y="0" text-anchor="end" transform="translate(-3.25,26.643946188340802)" style="cursor: default; font-family: 'Open Sans', verdana, arial, sans-serif; font-size: 12px; fill: rgb(42, 63, 95); fill-opacity: 1; text-shadow: rgb(255, 255, 255) 1px 1px 1px, rgb(255, 255, 255) -1px -1px 1px, rgb(255, 255, 255) 1px -1px 1px, rgb(255, 255, 255) -1px 1px 1px; white-space: pre;"></text></g><g class="sankey-node" transform="translate(530.000,347.148)" style="opacity: 1;"><rect class="node-rect" width="20" height="13.99103139013448" style="stroke-width: 0.5; stroke: rgb(68, 68, 68); stroke-opacity: 1; fill: rgb(230, 159, 0); fill-opacity: 1;"/><text class="node-label" data-notex="1" x="0" y="0" text-anchor="end" transform="translate(-3.25,11.19551569506724)" style="cursor: default; font-family: 'Open Sans', verdana, arial, sans-serif; font-size: 12px; fill: rgb(42, 63, 95); fill-opacity: 1; text-shadow: rgb(255, 255, 255) 1px 1px 1px, rgb(255, 255, 255) -1px -1px 1px, rgb(255, 255, 255) 1px -1px 1px, rgb(255, 255, 255) -1px 1px 1px; white-space: pre;"></text></g><g class="sankey-node" transform="translate(530.000,41.139)" style="opacity: 1;"><rect class="node-rect" width="20" height="173.72197309417044" style="stroke-width: 0.5; stroke: rgb(68, 68, 68); stroke-opacity: 1; fill: rgb(86, 180, 233); fill-opacity: 1;"/><text class="node-label" data-notex="1" x="0" y="0" text-anchor="end" transform="translate(-3.25,91.06098654708522)" style="cursor: default; font-family: 'Open Sans', verdana, arial, sans-serif; font-size: 12px; fill: rgb(42, 63, 95); fill-opacity: 1; text-shadow: rgb(255, 255, 255) 1px 1px 1px, rgb(255, 255, 255) -1px -1px 1px, rgb(255, 255, 255) 1px -1px 1px, rgb(255, 255, 255) -1px 1px 1px; white-space: pre;"></text></g></g></g><defs id="topdefs-a23de0"><g class="clips"/></defs><g class="layer-above"><g class="imagelayer"/><g class="shapelayer"/></g><g class="infolayer"><g class="g-gtitle"/><g class="first-render"/></g></svg>