<?xml version="1.0" encoding="UTF-8"?>
<svg id="Layer_1" xmlns="http://www.w3.org/2000/svg" version="1.1" viewBox="0 0 527.04 355.87">
  <!-- Generator: Adobe Illustrator 30.1.0, SVG Export Plug-In . SVG Version: 2.1.1 Build 136)  -->
  <defs>
    <style>
      .st0 {
        fill: #009e73;
      }

      .st0, .st1, .st2, .st3, .st4 {
        stroke: #444;
        stroke-width: .5px;
      }

      .st5, .st6 {
        fill-opacity: .2;
      }

      .st1 {
        fill: #d55e00;
      }

      .st2 {
        fill: #f0e442;
      }

      .st3 {
        fill: #56b4e9;
      }

      .st6 {
        stroke: #000;
        stroke-opacity: .2;
      }

      .st4 {
        fill: #e69f00;
      }
    </style>
  </defs>
  <g>
    <path class="st5" d="M30.04,166.78c71,0,71,23.19,142,23.19v1.75c-71,0-71-23.19-142-23.19v-1.75Z"/>
    <path class="st5" d="M30.04,162.7c71,0,71,5.28,142,5.28v1.75c-71,0-71-5.28-142-5.28v-1.75Z"/>
    <path class="st5" d="M30.04,160.95c71,0,71-48.79,142-48.79v1.75c-71,0-71,48.79-142,48.79v-1.75Z"/>
    <path class="st5" d="M30.04,164.44c71,0,71-17.39,142-17.39v2.33c-71,0-71,17.39-142,17.39v-2.33Z"/>
    <path class="st5" d="M192.04,218.06c71,0,71,81.08,142,81.08v2.91c-71,0-71-81.08-142-81.08v-2.91Z"/>
    <path class="st5" d="M192.04,215.14c71,0,71,32.51,142,32.51v2.91c-71,0-71-32.51-142-32.51v-2.91Z"/>
    <path class="st5" d="M192.04,209.31c71,0,71-199.28,142-199.28v1.75c-71,0-71,199.28-142,199.28v-1.75Z"/>
    <path class="st5" d="M192.04,211.06c71,0,71-24.8,142-24.8v4.08c-71,0-71,24.8-142,24.8v-4.08Z"/>
    <path class="st5" d="M192.04,189.97c71,0,71,4.46,142,4.46v1.75c-71,0-71-4.46-142-4.46v-1.75Z"/>
    <path class="st5" d="M192.04,167.97c71,0,71,22.37,142,22.37v4.08c-71,0-71-22.37-142-22.37v-4.08Z"/>
    <path class="st5" d="M192.04,126.15c71,0,71,171.82,142,171.82v1.17c-71,0-71-171.82-142-171.82v-1.17Z"/>
    <path class="st5" d="M192.04,124.98c71,0,71,121.51,142,121.51v1.17c-71,0-71-121.51-142-121.51v-1.17Z"/>
    <path class="st5" d="M192.04,112.16c71,0,71,61.28,142,61.28v12.83c-71,0-71-61.28-142-61.28v-12.83Z"/>
    <path class="st6" d="M192.04,149.39c71,0,71,152.66,142,152.66v.58c-71,0-71-152.66-142-152.66v-.58Z"/>
    <path class="st5" d="M192.04,147.64c71,0,71,102.93,142,102.93v1.75c-71,0-71-102.93-142-102.93v-1.75Z"/>
    <path class="st6" d="M192.04,147.05c71,0,71-135.27,142-135.27v.58c-71,0-71,135.27-142,135.27v-.58Z"/>
    <path class="st5" d="M354.04,344.7c71,0,71-12.98,142-12.98v1.17c-71,0-71,12.98-142,12.98v-1.17Z"/>
    <path class="st5" d="M354.04,343.53c71,0,71-59.22,142-59.22v1.17c-71,0-71,59.22-142,59.22v-1.17Z"/>
    <path class="st5" d="M354.04,345.87c71,0,71-319.16,142-319.16v1.17c-71,0-71,319.16-142,319.16v-1.17Z"/>
    <path class="st5" d="M354.04,342.37c71,0,71-122.94,142-122.94v1.17c-71,0-71,122.94-142,122.94v-1.17Z"/>
    <path class="st5" d="M354.04,321.87c71,0,71-39.3,142-39.3v1.75c-71,0-71,39.3-142,39.3v-1.75Z"/>
    <path class="st5" d="M354.04,323.62c71,0,71-298.66,142-298.66v1.75c-71,0-71,298.66-142,298.66v-1.75Z"/>
    <path class="st5" d="M354.04,297.97c71,0,71-102.44,142-102.44v23.9c-71,0-71,102.44-142,102.44v-23.9Z"/>
    <path class="st5" d="M354.04,275.64c71,0,71,54.91,142,54.91v1.17c-71,0-71-54.91-142-54.91v-1.17Z"/>
    <path class="st5" d="M354.04,276.8c71,0,71-253.01,142-253.01v1.17c-71,0-71,253.01-142,253.01v-1.17Z"/>
    <path class="st5" d="M354.04,246.49c71,0,71-80.11,142-80.11v29.15c-71,0-71,80.11-142,80.11v-29.15Z"/>
    <path class="st5" d="M354.04,142.36c71,0,71,163.12,142,163.12v11.08c-71,0-71-163.12-142-163.12v-11.08Z"/>
    <path class="st5" d="M354.04,129.54c71,0,71,111.06,142,111.06v12.83c-71,0-71-111.06-142-111.06v-12.83Z"/>
    <path class="st5" d="M354.04,10.03c71,0,71,36.84,142,36.84v119.51c-71,0-71-36.84-142-36.84V10.03Z"/>
    <path class="st5" d="M354.04,202.59c71,0,71,113.97,142,113.97v13.99c-71,0-71-113.97-142-113.97v-13.99Z"/>
    <path class="st5" d="M354.04,173.44c71,0,71,79.98,142,79.98v29.15c-71,0-71-79.98-142-79.98v-29.15Z"/>
    <path class="st5" d="M354.04,216.58c71,0,71-202.7,142-202.7v9.91c-71,0-71,202.7-142,202.7v-9.91Z"/>
  </g>
  <g>
    <rect class="st2" x="10.04" y="160.95" width="20" height="7.58"/>
    <rect class="st2" x="172.04" y="209.31" width="20" height="11.66"/>
    <rect class="st0" x="172.04" y="189.97" width="20" height="1.75"/>
    <rect class="st1" x="172.04" y="167.97" width="20" height="4.08"/>
    <rect class="st4" x="172.04" y="112.16" width="20" height="15.16"/>
    <rect class="st3" x="172.04" y="147.05" width="20" height="2.91"/>
    <rect class="st2" x="334.04" y="342.37" width="20" height="4.66"/>
    <rect class="st0" x="334.04" y="297.97" width="20" height="27.4"/>
    <rect class="st1" x="334.04" y="246.49" width="20" height="31.48"/>
    <rect class="st4" x="334.04" y="10.03" width="20" height="143.41"/>
    <rect class="st3" x="334.04" y="173.44" width="20" height="53.05"/>
    <rect class="st0" x="496.04" y="305.48" width="20" height="27.4"/>
    <rect class="st1" x="496.04" y="240.6" width="20" height="44.89"/>
    <rect class="st4" x="496.04" y="13.88" width="20" height="13.99"/>
    <rect class="st3" x="496.04" y="46.87" width="20" height="173.72"/>
  </g>
</svg>