<?xml version="1.0" encoding="utf-8" standalone="no"?>
<!DOCTYPE svg PUBLIC "-//W3C//DTD SVG 1.1//EN"
  "http://www.w3.org/Graphics/SVG/1.1/DTD/svg11.dtd">
<svg xmlns:xlink="http://www.w3.org/1999/xlink" width="460.8pt" height="345.6pt" viewBox="0 0 460.8 345.6" xmlns="http://www.w3.org/2000/svg" version="1.1">
 <metadata>
  <rdf:RDF xmlns:dc="http://purl.org/dc/elements/1.1/" xmlns:cc="http://creativecommons.org/ns#" xmlns:rdf="http://www.w3.org/1999/02/22-rdf-syntax-ns#">
   <cc:Work>
    <dc:type rdf:resource="http://purl.org/dc/dcmitype/StillImage"/>
    <dc:date>2025-12-05T23:32:42.599109</dc:date>
    <dc:format>image/svg+xml</dc:format>
    <dc:creator>
     <cc:Agent>
      <dc:title>Matplotlib v3.10.7, https://matplotlib.org/</dc:title>
     </cc:Agent>
    </dc:creator>
   </cc:Work>
  </rdf:RDF>
 </metadata>
 <defs>
  <style type="text/css">*{stroke-linejoin: round; stroke-linecap: butt}</style>
 </defs>
 <g id="figure_1">
  <g id="patch_1">
   <path d="M 0 345.6 
L 460.8 345.6 
L 460.8 0 
L 0 0 
z
" style="fill: #ffffff"/>
  </g>
  <g id="axes_1">
   <g id="patch_2">
    <path d="M 71.447115 294.784135 
L 451.701451 294.784135 
L 451.701451 4.658224 
L 71.447115 4.658224 
z
" style="fill: #ffffff"/>
   </g>
   <g id="matplotlib.axis_1">
    <g id="xtick_1">
     <g id="line2d_1">
      <defs>
       <path id="m26ed994a85" d="M 0 0 
L 0 3.5 
" style="stroke: #000000; stroke-width: 0.8"/>
      </defs>
      <g>
       <use xlink:href="#m26ed994a85" x="159.317457" y="294.784135" style="stroke: #000000; stroke-width: 0.8"/>
      </g>
     </g>
     <g id="text_1">
      <!-- −0.5 -->
      <g transform="translate(139.576832 316.09976) scale(0.2 -0.2)">
       <defs>
        <path id="ArialMT-2212" d="M 3381 1997 
L 356 1997 
L 356 2522 
L 3381 2522 
L 3381 1997 
z
" transform="scale(0.015625)"/>
        <path id="ArialMT-30" d="M 266 2259 
Q 266 3072 433 3567 
Q 600 4063 929 4331 
Q 1259 4600 1759 4600 
Q 2128 4600 2406 4451 
Q 2684 4303 2865 4023 
Q 3047 3744 3150 3342 
Q 3253 2941 3253 2259 
Q 3253 1453 3087 958 
Q 2922 463 2592 192 
Q 2263 -78 1759 -78 
Q 1097 -78 719 397 
Q 266 969 266 2259 
z
M 844 2259 
Q 844 1131 1108 757 
Q 1372 384 1759 384 
Q 2147 384 2411 759 
Q 2675 1134 2675 2259 
Q 2675 3391 2411 3762 
Q 2147 4134 1753 4134 
Q 1366 4134 1134 3806 
Q 844 3388 844 2259 
z
" transform="scale(0.015625)"/>
        <path id="ArialMT-2e" d="M 581 0 
L 581 641 
L 1222 641 
L 1222 0 
L 581 0 
z
" transform="scale(0.015625)"/>
        <path id="ArialMT-35" d="M 266 1200 
L 856 1250 
Q 922 819 1161 601 
Q 1400 384 1738 384 
Q 2144 384 2425 690 
Q 2706 997 2706 1503 
Q 2706 1984 2436 2262 
Q 2166 2541 1728 2541 
Q 1456 2541 1237 2417 
Q 1019 2294 894 2097 
L 366 2166 
L 809 4519 
L 3088 4519 
L 3088 3981 
L 1259 3981 
L 1013 2750 
Q 1425 3038 1878 3038 
Q 2478 3038 2890 2622 
Q 3303 2206 3303 1553 
Q 3303 931 2941 478 
Q 2500 -78 1738 -78 
Q 1113 -78 717 272 
Q 322 622 266 1200 
z
" transform="scale(0.015625)"/>
       </defs>
       <use xlink:href="#ArialMT-2212"/>
       <use xlink:href="#ArialMT-30" transform="translate(58.398438 0)"/>
       <use xlink:href="#ArialMT-2e" transform="translate(114.013672 0)"/>
       <use xlink:href="#ArialMT-35" transform="translate(141.796875 0)"/>
      </g>
     </g>
    </g>
    <g id="xtick_2">
     <g id="line2d_2">
      <g>
       <use xlink:href="#m26ed994a85" x="254.098063" y="294.784135" style="stroke: #000000; stroke-width: 0.8"/>
      </g>
     </g>
     <g id="text_2">
      <!-- 0.0 -->
      <g transform="translate(240.198063 316.09976) scale(0.2 -0.2)">
       <use xlink:href="#ArialMT-30"/>
       <use xlink:href="#ArialMT-2e" transform="translate(55.615234 0)"/>
       <use xlink:href="#ArialMT-30" transform="translate(83.398438 0)"/>
      </g>
     </g>
    </g>
    <g id="xtick_3">
     <g id="line2d_3">
      <g>
       <use xlink:href="#m26ed994a85" x="348.87867" y="294.784135" style="stroke: #000000; stroke-width: 0.8"/>
      </g>
     </g>
     <g id="text_3">
      <!-- 0.5 -->
      <g transform="translate(334.97867 316.09976) scale(0.2 -0.2)">
       <use xlink:href="#ArialMT-30"/>
       <use xlink:href="#ArialMT-2e" transform="translate(55.615234 0)"/>
       <use xlink:href="#ArialMT-35" transform="translate(83.398438 0)"/>
      </g>
     </g>
    </g>
    <g id="xtick_4">
     <g id="line2d_4">
      <g>
       <use xlink:href="#m26ed994a85" x="443.659276" y="294.784135" style="stroke: #000000; stroke-width: 0.8"/>
      </g>
     </g>
     <g id="text_4">
      <!-- 1.0 -->
      <g transform="translate(429.759276 316.09976) scale(0.2 -0.2)">
       <defs>
        <path id="ArialMT-31" d="M 2384 0 
L 1822 0 
L 1822 3584 
Q 1619 3391 1289 3197 
Q 959 3003 697 2906 
L 697 3450 
Q 1169 3672 1522 3987 
Q 1875 4303 2022 4600 
L 2384 4600 
L 2384 0 
z
" transform="scale(0.015625)"/>
       </defs>
       <use xlink:href="#ArialMT-31"/>
       <use xlink:href="#ArialMT-2e" transform="translate(55.615234 0)"/>
       <use xlink:href="#ArialMT-30" transform="translate(83.398438 0)"/>
      </g>
     </g>
    </g>
    <g id="text_5">
     <!-- Migration predictor -->
     <g transform="translate(178.768033 338.390385) scale(0.2 -0.2)">
      <defs>
       <path id="ArialMT-4d" d="M 475 0 
L 475 4581 
L 1388 4581 
L 2472 1338 
Q 2622 884 2691 659 
Q 2769 909 2934 1394 
L 4031 4581 
L 4847 4581 
L 4847 0 
L 4263 0 
L 4263 3834 
L 2931 0 
L 2384 0 
L 1059 3900 
L 1059 0 
L 475 0 
z
" transform="scale(0.015625)"/>
       <path id="ArialMT-69" d="M 425 3934 
L 425 4581 
L 988 4581 
L 988 3934 
L 425 3934 
z
M 425 0 
L 425 3319 
L 988 3319 
L 988 0 
L 425 0 
z
" transform="scale(0.015625)"/>
       <path id="ArialMT-67" d="M 319 -275 
L 866 -356 
Q 900 -609 1056 -725 
Q 1266 -881 1628 -881 
Q 2019 -881 2231 -725 
Q 2444 -569 2519 -288 
Q 2563 -116 2559 434 
Q 2191 0 1641 0 
Q 956 0 581 494 
Q 206 988 206 1678 
Q 206 2153 378 2554 
Q 550 2956 876 3175 
Q 1203 3394 1644 3394 
Q 2231 3394 2613 2919 
L 2613 3319 
L 3131 3319 
L 3131 450 
Q 3131 -325 2973 -648 
Q 2816 -972 2473 -1159 
Q 2131 -1347 1631 -1347 
Q 1038 -1347 672 -1080 
Q 306 -813 319 -275 
z
M 784 1719 
Q 784 1066 1043 766 
Q 1303 466 1694 466 
Q 2081 466 2343 764 
Q 2606 1063 2606 1700 
Q 2606 2309 2336 2618 
Q 2066 2928 1684 2928 
Q 1309 2928 1046 2623 
Q 784 2319 784 1719 
z
" transform="scale(0.015625)"/>
       <path id="ArialMT-72" d="M 416 0 
L 416 3319 
L 922 3319 
L 922 2816 
Q 1116 3169 1280 3281 
Q 1444 3394 1641 3394 
Q 1925 3394 2219 3213 
L 2025 2691 
Q 1819 2813 1613 2813 
Q 1428 2813 1281 2702 
Q 1134 2591 1072 2394 
Q 978 2094 978 1738 
L 978 0 
L 416 0 
z
" transform="scale(0.015625)"/>
       <path id="ArialMT-61" d="M 2588 409 
Q 2275 144 1986 34 
Q 1697 -75 1366 -75 
Q 819 -75 525 192 
Q 231 459 231 875 
Q 231 1119 342 1320 
Q 453 1522 633 1644 
Q 813 1766 1038 1828 
Q 1203 1872 1538 1913 
Q 2219 1994 2541 2106 
Q 2544 2222 2544 2253 
Q 2544 2597 2384 2738 
Q 2169 2928 1744 2928 
Q 1347 2928 1158 2789 
Q 969 2650 878 2297 
L 328 2372 
Q 403 2725 575 2942 
Q 747 3159 1072 3276 
Q 1397 3394 1825 3394 
Q 2250 3394 2515 3294 
Q 2781 3194 2906 3042 
Q 3031 2891 3081 2659 
Q 3109 2516 3109 2141 
L 3109 1391 
Q 3109 606 3145 398 
Q 3181 191 3288 0 
L 2700 0 
Q 2613 175 2588 409 
z
M 2541 1666 
Q 2234 1541 1622 1453 
Q 1275 1403 1131 1340 
Q 988 1278 909 1158 
Q 831 1038 831 891 
Q 831 666 1001 516 
Q 1172 366 1500 366 
Q 1825 366 2078 508 
Q 2331 650 2450 897 
Q 2541 1088 2541 1459 
L 2541 1666 
z
" transform="scale(0.015625)"/>
       <path id="ArialMT-74" d="M 1650 503 
L 1731 6 
Q 1494 -44 1306 -44 
Q 1000 -44 831 53 
Q 663 150 594 308 
Q 525 466 525 972 
L 525 2881 
L 113 2881 
L 113 3319 
L 525 3319 
L 525 4141 
L 1084 4478 
L 1084 3319 
L 1650 3319 
L 1650 2881 
L 1084 2881 
L 1084 941 
Q 1084 700 1114 631 
Q 1144 563 1211 522 
Q 1278 481 1403 481 
Q 1497 481 1650 503 
z
" transform="scale(0.015625)"/>
       <path id="ArialMT-6f" d="M 213 1659 
Q 213 2581 725 3025 
Q 1153 3394 1769 3394 
Q 2453 3394 2887 2945 
Q 3322 2497 3322 1706 
Q 3322 1066 3130 698 
Q 2938 331 2570 128 
Q 2203 -75 1769 -75 
Q 1072 -75 642 372 
Q 213 819 213 1659 
z
M 791 1659 
Q 791 1022 1069 705 
Q 1347 388 1769 388 
Q 2188 388 2466 706 
Q 2744 1025 2744 1678 
Q 2744 2294 2464 2611 
Q 2184 2928 1769 2928 
Q 1347 2928 1069 2612 
Q 791 2297 791 1659 
z
" transform="scale(0.015625)"/>
       <path id="ArialMT-6e" d="M 422 0 
L 422 3319 
L 928 3319 
L 928 2847 
Q 1294 3394 1984 3394 
Q 2284 3394 2536 3286 
Q 2788 3178 2913 3003 
Q 3038 2828 3088 2588 
Q 3119 2431 3119 2041 
L 3119 0 
L 2556 0 
L 2556 2019 
Q 2556 2363 2490 2533 
Q 2425 2703 2258 2804 
Q 2091 2906 1866 2906 
Q 1506 2906 1245 2678 
Q 984 2450 984 1813 
L 984 0 
L 422 0 
z
" transform="scale(0.015625)"/>
       <path id="ArialMT-20" transform="scale(0.015625)"/>
       <path id="ArialMT-70" d="M 422 -1272 
L 422 3319 
L 934 3319 
L 934 2888 
Q 1116 3141 1344 3267 
Q 1572 3394 1897 3394 
Q 2322 3394 2647 3175 
Q 2972 2956 3137 2557 
Q 3303 2159 3303 1684 
Q 3303 1175 3120 767 
Q 2938 359 2589 142 
Q 2241 -75 1856 -75 
Q 1575 -75 1351 44 
Q 1128 163 984 344 
L 984 -1272 
L 422 -1272 
z
M 931 1641 
Q 931 1000 1190 694 
Q 1450 388 1819 388 
Q 2194 388 2461 705 
Q 2728 1022 2728 1688 
Q 2728 2322 2467 2637 
Q 2206 2953 1844 2953 
Q 1484 2953 1207 2617 
Q 931 2281 931 1641 
z
" transform="scale(0.015625)"/>
       <path id="ArialMT-65" d="M 2694 1069 
L 3275 997 
Q 3138 488 2766 206 
Q 2394 -75 1816 -75 
Q 1088 -75 661 373 
Q 234 822 234 1631 
Q 234 2469 665 2931 
Q 1097 3394 1784 3394 
Q 2450 3394 2872 2941 
Q 3294 2488 3294 1666 
Q 3294 1616 3291 1516 
L 816 1516 
Q 847 969 1125 678 
Q 1403 388 1819 388 
Q 2128 388 2347 550 
Q 2566 713 2694 1069 
z
M 847 1978 
L 2700 1978 
Q 2663 2397 2488 2606 
Q 2219 2931 1791 2931 
Q 1403 2931 1139 2672 
Q 875 2413 847 1978 
z
" transform="scale(0.015625)"/>
       <path id="ArialMT-64" d="M 2575 0 
L 2575 419 
Q 2259 -75 1647 -75 
Q 1250 -75 917 144 
Q 584 363 401 755 
Q 219 1147 219 1656 
Q 219 2153 384 2558 
Q 550 2963 881 3178 
Q 1213 3394 1622 3394 
Q 1922 3394 2156 3267 
Q 2391 3141 2538 2938 
L 2538 4581 
L 3097 4581 
L 3097 0 
L 2575 0 
z
M 797 1656 
Q 797 1019 1065 703 
Q 1334 388 1700 388 
Q 2069 388 2326 689 
Q 2584 991 2584 1609 
Q 2584 2291 2321 2609 
Q 2059 2928 1675 2928 
Q 1300 2928 1048 2622 
Q 797 2316 797 1656 
z
" transform="scale(0.015625)"/>
       <path id="ArialMT-63" d="M 2588 1216 
L 3141 1144 
Q 3050 572 2676 248 
Q 2303 -75 1759 -75 
Q 1078 -75 664 370 
Q 250 816 250 1647 
Q 250 2184 428 2587 
Q 606 2991 970 3192 
Q 1334 3394 1763 3394 
Q 2303 3394 2647 3120 
Q 2991 2847 3088 2344 
L 2541 2259 
Q 2463 2594 2264 2762 
Q 2066 2931 1784 2931 
Q 1359 2931 1093 2626 
Q 828 2322 828 1663 
Q 828 994 1084 691 
Q 1341 388 1753 388 
Q 2084 388 2306 591 
Q 2528 794 2588 1216 
z
" transform="scale(0.015625)"/>
      </defs>
      <use xlink:href="#ArialMT-4d"/>
      <use xlink:href="#ArialMT-69" transform="translate(83.300781 0)"/>
      <use xlink:href="#ArialMT-67" transform="translate(105.517578 0)"/>
      <use xlink:href="#ArialMT-72" transform="translate(161.132812 0)"/>
      <use xlink:href="#ArialMT-61" transform="translate(194.433594 0)"/>
      <use xlink:href="#ArialMT-74" transform="translate(250.048828 0)"/>
      <use xlink:href="#ArialMT-69" transform="translate(277.832031 0)"/>
      <use xlink:href="#ArialMT-6f" transform="translate(300.048828 0)"/>
      <use xlink:href="#ArialMT-6e" transform="translate(355.664062 0)"/>
      <use xlink:href="#ArialMT-20" transform="translate(411.279297 0)"/>
      <use xlink:href="#ArialMT-70" transform="translate(439.0625 0)"/>
      <use xlink:href="#ArialMT-72" transform="translate(494.677734 0)"/>
      <use xlink:href="#ArialMT-65" transform="translate(527.978516 0)"/>
      <use xlink:href="#ArialMT-64" transform="translate(583.59375 0)"/>
      <use xlink:href="#ArialMT-69" transform="translate(639.208984 0)"/>
      <use xlink:href="#ArialMT-63" transform="translate(661.425781 0)"/>
      <use xlink:href="#ArialMT-74" transform="translate(711.425781 0)"/>
      <use xlink:href="#ArialMT-6f" transform="translate(739.208984 0)"/>
      <use xlink:href="#ArialMT-72" transform="translate(794.824219 0)"/>
     </g>
    </g>
   </g>
   <g id="matplotlib.axis_2">
    <g id="ytick_1">
     <g id="line2d_5">
      <defs>
       <path id="m3d6e374f30" d="M 0 0 
L -3.5 0 
" style="stroke: #000000; stroke-width: 0.8"/>
      </defs>
      <g>
       <use xlink:href="#m3d6e374f30" x="71.447115" y="281.596594" style="stroke: #000000; stroke-width: 0.8"/>
      </g>
     </g>
     <g id="text_6">
      <!-- 0.00 -->
      <g transform="translate(25.52524 288.754406) scale(0.2 -0.2)">
       <use xlink:href="#ArialMT-30"/>
       <use xlink:href="#ArialMT-2e" transform="translate(55.615234 0)"/>
       <use xlink:href="#ArialMT-30" transform="translate(83.398438 0)"/>
       <use xlink:href="#ArialMT-30" transform="translate(139.013672 0)"/>
      </g>
     </g>
    </g>
    <g id="ytick_2">
     <g id="line2d_6">
      <g>
       <use xlink:href="#m3d6e374f30" x="71.447115" y="236.351628" style="stroke: #000000; stroke-width: 0.8"/>
      </g>
     </g>
     <g id="text_7">
      <!-- 0.02 -->
      <g transform="translate(25.52524 243.509441) scale(0.2 -0.2)">
       <defs>
        <path id="ArialMT-32" d="M 3222 541 
L 3222 0 
L 194 0 
Q 188 203 259 391 
Q 375 700 629 1000 
Q 884 1300 1366 1694 
Q 2113 2306 2375 2664 
Q 2638 3022 2638 3341 
Q 2638 3675 2398 3904 
Q 2159 4134 1775 4134 
Q 1369 4134 1125 3890 
Q 881 3647 878 3216 
L 300 3275 
Q 359 3922 746 4261 
Q 1134 4600 1788 4600 
Q 2447 4600 2831 4234 
Q 3216 3869 3216 3328 
Q 3216 3053 3103 2787 
Q 2991 2522 2730 2228 
Q 2469 1934 1863 1422 
Q 1356 997 1212 845 
Q 1069 694 975 541 
L 3222 541 
z
" transform="scale(0.015625)"/>
       </defs>
       <use xlink:href="#ArialMT-30"/>
       <use xlink:href="#ArialMT-2e" transform="translate(55.615234 0)"/>
       <use xlink:href="#ArialMT-30" transform="translate(83.398438 0)"/>
       <use xlink:href="#ArialMT-32" transform="translate(139.013672 0)"/>
      </g>
     </g>
    </g>
    <g id="ytick_3">
     <g id="line2d_7">
      <g>
       <use xlink:href="#m3d6e374f30" x="71.447115" y="191.106663" style="stroke: #000000; stroke-width: 0.8"/>
      </g>
     </g>
     <g id="text_8">
      <!-- 0.04 -->
      <g transform="translate(25.52524 198.264475) scale(0.2 -0.2)">
       <defs>
        <path id="ArialMT-34" d="M 2069 0 
L 2069 1097 
L 81 1097 
L 81 1613 
L 2172 4581 
L 2631 4581 
L 2631 1613 
L 3250 1613 
L 3250 1097 
L 2631 1097 
L 2631 0 
L 2069 0 
z
M 2069 1613 
L 2069 3678 
L 634 1613 
L 2069 1613 
z
" transform="scale(0.015625)"/>
       </defs>
       <use xlink:href="#ArialMT-30"/>
       <use xlink:href="#ArialMT-2e" transform="translate(55.615234 0)"/>
       <use xlink:href="#ArialMT-30" transform="translate(83.398438 0)"/>
       <use xlink:href="#ArialMT-34" transform="translate(139.013672 0)"/>
      </g>
     </g>
    </g>
    <g id="ytick_4">
     <g id="line2d_8">
      <g>
       <use xlink:href="#m3d6e374f30" x="71.447115" y="145.861697" style="stroke: #000000; stroke-width: 0.8"/>
      </g>
     </g>
     <g id="text_9">
      <!-- 0.06 -->
      <g transform="translate(25.52524 153.01951) scale(0.2 -0.2)">
       <defs>
        <path id="ArialMT-36" d="M 3184 3459 
L 2625 3416 
Q 2550 3747 2413 3897 
Q 2184 4138 1850 4138 
Q 1581 4138 1378 3988 
Q 1113 3794 959 3422 
Q 806 3050 800 2363 
Q 1003 2672 1297 2822 
Q 1591 2972 1913 2972 
Q 2475 2972 2870 2558 
Q 3266 2144 3266 1488 
Q 3266 1056 3080 686 
Q 2894 316 2569 119 
Q 2244 -78 1831 -78 
Q 1128 -78 684 439 
Q 241 956 241 2144 
Q 241 3472 731 4075 
Q 1159 4600 1884 4600 
Q 2425 4600 2770 4297 
Q 3116 3994 3184 3459 
z
M 888 1484 
Q 888 1194 1011 928 
Q 1134 663 1356 523 
Q 1578 384 1822 384 
Q 2178 384 2434 671 
Q 2691 959 2691 1453 
Q 2691 1928 2437 2201 
Q 2184 2475 1800 2475 
Q 1419 2475 1153 2201 
Q 888 1928 888 1484 
z
" transform="scale(0.015625)"/>
       </defs>
       <use xlink:href="#ArialMT-30"/>
       <use xlink:href="#ArialMT-2e" transform="translate(55.615234 0)"/>
       <use xlink:href="#ArialMT-30" transform="translate(83.398438 0)"/>
       <use xlink:href="#ArialMT-36" transform="translate(139.013672 0)"/>
      </g>
     </g>
    </g>
    <g id="ytick_5">
     <g id="line2d_9">
      <g>
       <use xlink:href="#m3d6e374f30" x="71.447115" y="100.616732" style="stroke: #000000; stroke-width: 0.8"/>
      </g>
     </g>
     <g id="text_10">
      <!-- 0.08 -->
      <g transform="translate(25.52524 107.774544) scale(0.2 -0.2)">
       <defs>
        <path id="ArialMT-38" d="M 1131 2484 
Q 781 2613 612 2850 
Q 444 3088 444 3419 
Q 444 3919 803 4259 
Q 1163 4600 1759 4600 
Q 2359 4600 2725 4251 
Q 3091 3903 3091 3403 
Q 3091 3084 2923 2848 
Q 2756 2613 2416 2484 
Q 2838 2347 3058 2040 
Q 3278 1734 3278 1309 
Q 3278 722 2862 322 
Q 2447 -78 1769 -78 
Q 1091 -78 675 323 
Q 259 725 259 1325 
Q 259 1772 486 2073 
Q 713 2375 1131 2484 
z
M 1019 3438 
Q 1019 3113 1228 2906 
Q 1438 2700 1772 2700 
Q 2097 2700 2305 2904 
Q 2513 3109 2513 3406 
Q 2513 3716 2298 3927 
Q 2084 4138 1766 4138 
Q 1444 4138 1231 3931 
Q 1019 3725 1019 3438 
z
M 838 1322 
Q 838 1081 952 856 
Q 1066 631 1291 507 
Q 1516 384 1775 384 
Q 2178 384 2440 643 
Q 2703 903 2703 1303 
Q 2703 1709 2433 1975 
Q 2163 2241 1756 2241 
Q 1359 2241 1098 1978 
Q 838 1716 838 1322 
z
" transform="scale(0.015625)"/>
       </defs>
       <use xlink:href="#ArialMT-30"/>
       <use xlink:href="#ArialMT-2e" transform="translate(55.615234 0)"/>
       <use xlink:href="#ArialMT-30" transform="translate(83.398438 0)"/>
       <use xlink:href="#ArialMT-38" transform="translate(139.013672 0)"/>
      </g>
     </g>
    </g>
    <g id="ytick_6">
     <g id="line2d_10">
      <g>
       <use xlink:href="#m3d6e374f30" x="71.447115" y="55.371767" style="stroke: #000000; stroke-width: 0.8"/>
      </g>
     </g>
     <g id="text_11">
      <!-- 0.10 -->
      <g transform="translate(25.52524 62.529579) scale(0.2 -0.2)">
       <use xlink:href="#ArialMT-30"/>
       <use xlink:href="#ArialMT-2e" transform="translate(55.615234 0)"/>
       <use xlink:href="#ArialMT-31" transform="translate(83.398438 0)"/>
       <use xlink:href="#ArialMT-30" transform="translate(139.013672 0)"/>
      </g>
     </g>
    </g>
    <g id="ytick_7">
     <g id="line2d_11">
      <g>
       <use xlink:href="#m3d6e374f30" x="71.447115" y="10.126801" style="stroke: #000000; stroke-width: 0.8"/>
      </g>
     </g>
     <g id="text_12">
      <!-- 0.12 -->
      <g transform="translate(25.52524 17.284614) scale(0.2 -0.2)">
       <use xlink:href="#ArialMT-30"/>
       <use xlink:href="#ArialMT-2e" transform="translate(55.615234 0)"/>
       <use xlink:href="#ArialMT-31" transform="translate(83.398438 0)"/>
       <use xlink:href="#ArialMT-32" transform="translate(139.013672 0)"/>
      </g>
     </g>
    </g>
    <g id="text_13">
     <!-- Migration rate -->
     <g transform="translate(17.315865 210.853992) rotate(-90) scale(0.2 -0.2)">
      <use xlink:href="#ArialMT-4d"/>
      <use xlink:href="#ArialMT-69" transform="translate(83.300781 0)"/>
      <use xlink:href="#ArialMT-67" transform="translate(105.517578 0)"/>
      <use xlink:href="#ArialMT-72" transform="translate(161.132812 0)"/>
      <use xlink:href="#ArialMT-61" transform="translate(194.433594 0)"/>
      <use xlink:href="#ArialMT-74" transform="translate(250.048828 0)"/>
      <use xlink:href="#ArialMT-69" transform="translate(277.832031 0)"/>
      <use xlink:href="#ArialMT-6f" transform="translate(300.048828 0)"/>
      <use xlink:href="#ArialMT-6e" transform="translate(355.664062 0)"/>
      <use xlink:href="#ArialMT-20" transform="translate(411.279297 0)"/>
      <use xlink:href="#ArialMT-72" transform="translate(439.0625 0)"/>
      <use xlink:href="#ArialMT-61" transform="translate(472.363281 0)"/>
      <use xlink:href="#ArialMT-74" transform="translate(527.978516 0)"/>
      <use xlink:href="#ArialMT-65" transform="translate(555.761719 0)"/>
     </g>
    </g>
   </g>
   <g id="LineCollection_1">
    <path d="M 88.731403 281.596594 
L 88.731403 237.216346 
" clip-path="url(#p016bf841fb)" style="fill: none; stroke: #2ca02c; stroke-width: 2"/>
    <path d="M 100.241595 281.596594 
L 100.241595 243.260918 
" clip-path="url(#p016bf841fb)" style="fill: none; stroke: #2ca02c; stroke-width: 2"/>
    <path d="M 113.107601 281.596594 
L 113.107601 251.03163 
" clip-path="url(#p016bf841fb)" style="fill: none; stroke: #2ca02c; stroke-width: 2"/>
    <path d="M 150.688146 281.596584 
L 150.688146 241.663766 
" clip-path="url(#p016bf841fb)" style="fill: none; stroke: #2ca02c; stroke-width: 2"/>
    <path d="M 205.114697 281.588528 
L 205.114697 230.518632 
" clip-path="url(#p016bf841fb)" style="fill: none; stroke: #2ca02c; stroke-width: 2"/>
    <path d="M 230.925509 281.53799 
L 230.925509 195.675879 
" clip-path="url(#p016bf841fb)" style="fill: none; stroke: #2ca02c; stroke-width: 2"/>
    <path d="M 232.645117 281.431693 
L 232.645117 206.472414 
" clip-path="url(#p016bf841fb)" style="fill: none; stroke: #2ca02c; stroke-width: 2"/>
    <path d="M 235.28826 280.95543 
L 235.28826 212.946475 
" clip-path="url(#p016bf841fb)" style="fill: none; stroke: #2ca02c; stroke-width: 2"/>
    <path d="M 274.79238 267.234774 
L 274.79238 176.828397 
" clip-path="url(#p016bf841fb)" style="fill: none; stroke: #2ca02c; stroke-width: 2"/>
    <path d="M 304.01499 252.376072 
L 304.01499 145.174928 
" clip-path="url(#p016bf841fb)" style="fill: none; stroke: #2ca02c; stroke-width: 2"/>
    <path d="M 308.640557 258.67303 
L 308.640557 138.886534 
" clip-path="url(#p016bf841fb)" style="fill: none; stroke: #2ca02c; stroke-width: 2"/>
    <path d="M 328.924709 252.788312 
L 328.924709 114.753907 
" clip-path="url(#p016bf841fb)" style="fill: none; stroke: #2ca02c; stroke-width: 2"/>
    <path d="M 353.101981 248.510665 
L 353.101981 89.509958 
" clip-path="url(#p016bf841fb)" style="fill: none; stroke: #2ca02c; stroke-width: 2"/>
    <path d="M 357.960945 251.413026 
L 357.960945 92.692561 
" clip-path="url(#p016bf841fb)" style="fill: none; stroke: #2ca02c; stroke-width: 2"/>
    <path d="M 362.551457 243.184634 
L 362.551457 95.963742 
" clip-path="url(#p016bf841fb)" style="fill: none; stroke: #2ca02c; stroke-width: 2"/>
    <path d="M 376.464229 242.456588 
L 376.464229 91.009337 
" clip-path="url(#p016bf841fb)" style="fill: none; stroke: #2ca02c; stroke-width: 2"/>
    <path d="M 378.310388 239.445439 
L 378.310388 71.711875 
" clip-path="url(#p016bf841fb)" style="fill: none; stroke: #2ca02c; stroke-width: 2"/>
    <path d="M 390.050577 246.043431 
L 390.050577 49.910116 
" clip-path="url(#p016bf841fb)" style="fill: none; stroke: #2ca02c; stroke-width: 2"/>
    <path d="M 415.894241 246.820371 
L 415.894241 81.520408 
" clip-path="url(#p016bf841fb)" style="fill: none; stroke: #2ca02c; stroke-width: 2"/>
    <path d="M 434.417163 255.497552 
L 434.417163 17.845765 
" clip-path="url(#p016bf841fb)" style="fill: none; stroke: #2ca02c; stroke-width: 2"/>
   </g>
   <g id="line2d_12">
    <defs>
     <path id="m84e6445a9e" d="M 5 0 
L -5 -0 
" style="stroke: #2ca02c"/>
    </defs>
    <g clip-path="url(#p016bf841fb)">
     <use xlink:href="#m84e6445a9e" x="88.731403" y="281.596594" style="fill: #2ca02c; stroke: #2ca02c"/>
     <use xlink:href="#m84e6445a9e" x="100.241595" y="281.596594" style="fill: #2ca02c; stroke: #2ca02c"/>
     <use xlink:href="#m84e6445a9e" x="113.107601" y="281.596594" style="fill: #2ca02c; stroke: #2ca02c"/>
     <use xlink:href="#m84e6445a9e" x="150.688146" y="281.596584" style="fill: #2ca02c; stroke: #2ca02c"/>
     <use xlink:href="#m84e6445a9e" x="205.114697" y="281.588528" style="fill: #2ca02c; stroke: #2ca02c"/>
     <use xlink:href="#m84e6445a9e" x="230.925509" y="281.53799" style="fill: #2ca02c; stroke: #2ca02c"/>
     <use xlink:href="#m84e6445a9e" x="232.645117" y="281.431693" style="fill: #2ca02c; stroke: #2ca02c"/>
     <use xlink:href="#m84e6445a9e" x="235.28826" y="280.95543" style="fill: #2ca02c; stroke: #2ca02c"/>
     <use xlink:href="#m84e6445a9e" x="274.79238" y="267.234774" style="fill: #2ca02c; stroke: #2ca02c"/>
     <use xlink:href="#m84e6445a9e" x="304.01499" y="252.376072" style="fill: #2ca02c; stroke: #2ca02c"/>
     <use xlink:href="#m84e6445a9e" x="308.640557" y="258.67303" style="fill: #2ca02c; stroke: #2ca02c"/>
     <use xlink:href="#m84e6445a9e" x="328.924709" y="252.788312" style="fill: #2ca02c; stroke: #2ca02c"/>
     <use xlink:href="#m84e6445a9e" x="353.101981" y="248.510665" style="fill: #2ca02c; stroke: #2ca02c"/>
     <use xlink:href="#m84e6445a9e" x="357.960945" y="251.413026" style="fill: #2ca02c; stroke: #2ca02c"/>
     <use xlink:href="#m84e6445a9e" x="362.551457" y="243.184634" style="fill: #2ca02c; stroke: #2ca02c"/>
     <use xlink:href="#m84e6445a9e" x="376.464229" y="242.456588" style="fill: #2ca02c; stroke: #2ca02c"/>
     <use xlink:href="#m84e6445a9e" x="378.310388" y="239.445439" style="fill: #2ca02c; stroke: #2ca02c"/>
     <use xlink:href="#m84e6445a9e" x="390.050577" y="246.043431" style="fill: #2ca02c; stroke: #2ca02c"/>
     <use xlink:href="#m84e6445a9e" x="415.894241" y="246.820371" style="fill: #2ca02c; stroke: #2ca02c"/>
     <use xlink:href="#m84e6445a9e" x="434.417163" y="255.497552" style="fill: #2ca02c; stroke: #2ca02c"/>
    </g>
   </g>
   <g id="line2d_13">
    <g clip-path="url(#p016bf841fb)">
     <use xlink:href="#m84e6445a9e" x="88.731403" y="237.216346" style="fill: #2ca02c; stroke: #2ca02c"/>
     <use xlink:href="#m84e6445a9e" x="100.241595" y="243.260918" style="fill: #2ca02c; stroke: #2ca02c"/>
     <use xlink:href="#m84e6445a9e" x="113.107601" y="251.03163" style="fill: #2ca02c; stroke: #2ca02c"/>
     <use xlink:href="#m84e6445a9e" x="150.688146" y="241.663766" style="fill: #2ca02c; stroke: #2ca02c"/>
     <use xlink:href="#m84e6445a9e" x="205.114697" y="230.518632" style="fill: #2ca02c; stroke: #2ca02c"/>
     <use xlink:href="#m84e6445a9e" x="230.925509" y="195.675879" style="fill: #2ca02c; stroke: #2ca02c"/>
     <use xlink:href="#m84e6445a9e" x="232.645117" y="206.472414" style="fill: #2ca02c; stroke: #2ca02c"/>
     <use xlink:href="#m84e6445a9e" x="235.28826" y="212.946475" style="fill: #2ca02c; stroke: #2ca02c"/>
     <use xlink:href="#m84e6445a9e" x="274.79238" y="176.828397" style="fill: #2ca02c; stroke: #2ca02c"/>
     <use xlink:href="#m84e6445a9e" x="304.01499" y="145.174928" style="fill: #2ca02c; stroke: #2ca02c"/>
     <use xlink:href="#m84e6445a9e" x="308.640557" y="138.886534" style="fill: #2ca02c; stroke: #2ca02c"/>
     <use xlink:href="#m84e6445a9e" x="328.924709" y="114.753907" style="fill: #2ca02c; stroke: #2ca02c"/>
     <use xlink:href="#m84e6445a9e" x="353.101981" y="89.509958" style="fill: #2ca02c; stroke: #2ca02c"/>
     <use xlink:href="#m84e6445a9e" x="357.960945" y="92.692561" style="fill: #2ca02c; stroke: #2ca02c"/>
     <use xlink:href="#m84e6445a9e" x="362.551457" y="95.963742" style="fill: #2ca02c; stroke: #2ca02c"/>
     <use xlink:href="#m84e6445a9e" x="376.464229" y="91.009337" style="fill: #2ca02c; stroke: #2ca02c"/>
     <use xlink:href="#m84e6445a9e" x="378.310388" y="71.711875" style="fill: #2ca02c; stroke: #2ca02c"/>
     <use xlink:href="#m84e6445a9e" x="390.050577" y="49.910116" style="fill: #2ca02c; stroke: #2ca02c"/>
     <use xlink:href="#m84e6445a9e" x="415.894241" y="81.520408" style="fill: #2ca02c; stroke: #2ca02c"/>
     <use xlink:href="#m84e6445a9e" x="434.417163" y="17.845765" style="fill: #2ca02c; stroke: #2ca02c"/>
    </g>
   </g>
   <g id="line2d_14">
    <path d="M 88.731403 273.475944 
L 92.223178 274.477618 
L 95.714954 275.37216 
L 99.206729 276.161652 
L 102.698504 276.848175 
L 106.19028 277.43381 
L 109.682055 277.920639 
L 113.173831 278.310743 
L 116.665606 278.606205 
L 120.157381 278.809106 
L 123.649157 278.921527 
L 127.140932 278.94555 
L 130.632707 278.883257 
L 134.124483 278.736729 
L 137.616258 278.508047 
L 141.108033 278.199294 
L 144.599809 277.812551 
L 148.091584 277.349899 
L 151.583359 276.813419 
L 155.075135 276.205195 
L 158.56691 275.527307 
L 162.058685 274.781836 
L 165.550461 273.970865 
L 169.042236 273.096475 
L 172.534012 272.160747 
L 176.025787 271.165763 
L 179.517562 270.113605 
L 183.009338 269.006354 
L 186.501113 267.846092 
L 189.992888 266.6349 
L 193.484664 265.37486 
L 196.976439 264.068054 
L 200.468214 262.716562 
L 203.95999 261.322468 
L 207.451765 259.887851 
L 210.94354 258.414795 
L 214.435316 256.90538 
L 217.927091 255.361688 
L 221.418867 253.7858 
L 224.910642 252.179798 
L 228.402417 250.545765 
L 231.894193 248.88578 
L 235.385968 247.201927 
L 238.877743 245.496286 
L 242.369519 243.770939 
L 245.861294 242.027967 
L 249.353069 240.269453 
L 252.844845 238.497477 
L 256.33662 236.714122 
L 259.828395 234.921469 
L 263.320171 233.121599 
L 266.811946 231.316594 
L 270.303722 229.508536 
L 273.795497 227.699507 
L 277.287272 225.891587 
L 280.779048 224.086858 
L 284.270823 222.287402 
L 287.762598 220.495301 
L 291.254374 218.712636 
L 294.746149 216.941489 
L 298.237924 215.183941 
L 301.7297 213.442074 
L 305.221475 211.717969 
L 308.71325 210.013708 
L 312.205026 208.331373 
L 315.696801 206.673045 
L 319.188576 205.040806 
L 322.680352 203.436737 
L 326.172127 201.86292 
L 329.663903 200.321437 
L 333.155678 198.814368 
L 336.647453 197.343796 
L 340.139229 195.911803 
L 343.631004 194.520469 
L 347.122779 193.171877 
L 350.614555 191.868107 
L 354.10633 190.611242 
L 357.598105 189.403363 
L 361.089881 188.246552 
L 364.581656 187.14289 
L 368.073431 186.094459 
L 371.565207 185.10334 
L 375.056982 184.171615 
L 378.548758 183.301366 
L 382.040533 182.494674 
L 385.532308 181.753621 
L 389.024084 181.080288 
L 392.515859 180.476757 
L 396.007634 179.945109 
L 399.49941 179.487427 
L 402.991185 179.105791 
L 406.48296 178.802283 
L 409.974736 178.578985 
L 413.466511 178.437978 
L 416.958286 178.381344 
L 420.450062 178.411165 
L 423.941837 178.529522 
L 427.433613 178.738496 
L 430.925388 179.04017 
L 434.417163 179.436625 
" clip-path="url(#p016bf841fb)" style="fill: none; stroke: #2ca02c; stroke-opacity: 0.7; stroke-width: 4; stroke-linecap: square"/>
   </g>
   <g id="line2d_15">
    <path d="M 88.731403 281.512398 
L 100.241595 281.459821 
L 113.107601 281.361447 
L 150.688146 280.459571 
L 205.114697 271.432514 
L 230.925509 256.865719 
L 232.645117 255.540232 
L 235.28826 253.422738 
L 274.79238 217.761046 
L 304.01499 200.920662 
L 308.640557 199.33858 
L 328.924709 194.796985 
L 353.101981 192.472536 
L 357.960945 192.222422 
L 362.551457 192.027913 
L 376.464229 191.621117 
L 378.310388 191.582759 
L 390.050577 191.397339 
L 415.894241 191.204536 
L 434.417163 191.151478 
" clip-path="url(#p016bf841fb)" style="fill: none; stroke-dasharray: 14.8,6.4; stroke-dashoffset: 0; stroke: #000000; stroke-width: 4"/>
    <defs>
     <path id="m05fb488422" d="M 0 3 
C 0.795609 3 1.55874 2.683901 2.12132 2.12132 
C 2.683901 1.55874 3 0.795609 3 0 
C 3 -0.795609 2.683901 -1.55874 2.12132 -2.12132 
C 1.55874 -2.683901 0.795609 -3 0 -3 
C -0.795609 -3 -1.55874 -2.683901 -2.12132 -2.12132 
C -2.683901 -1.55874 -3 -0.795609 -3 0 
C -3 0.795609 -2.683901 1.55874 -2.12132 2.12132 
C -1.55874 2.683901 -0.795609 3 0 3 
z
" style="stroke: #000000"/>
    </defs>
    <g clip-path="url(#p016bf841fb)">
     <use xlink:href="#m05fb488422" x="88.731403" y="281.512398" style="stroke: #000000"/>
     <use xlink:href="#m05fb488422" x="100.241595" y="281.459821" style="stroke: #000000"/>
     <use xlink:href="#m05fb488422" x="113.107601" y="281.361447" style="stroke: #000000"/>
     <use xlink:href="#m05fb488422" x="150.688146" y="280.459571" style="stroke: #000000"/>
     <use xlink:href="#m05fb488422" x="205.114697" y="271.432514" style="stroke: #000000"/>
     <use xlink:href="#m05fb488422" x="230.925509" y="256.865719" style="stroke: #000000"/>
     <use xlink:href="#m05fb488422" x="232.645117" y="255.540232" style="stroke: #000000"/>
     <use xlink:href="#m05fb488422" x="235.28826" y="253.422738" style="stroke: #000000"/>
     <use xlink:href="#m05fb488422" x="274.79238" y="217.761046" style="stroke: #000000"/>
     <use xlink:href="#m05fb488422" x="304.01499" y="200.920662" style="stroke: #000000"/>
     <use xlink:href="#m05fb488422" x="308.640557" y="199.33858" style="stroke: #000000"/>
     <use xlink:href="#m05fb488422" x="328.924709" y="194.796985" style="stroke: #000000"/>
     <use xlink:href="#m05fb488422" x="353.101981" y="192.472536" style="stroke: #000000"/>
     <use xlink:href="#m05fb488422" x="357.960945" y="192.222422" style="stroke: #000000"/>
     <use xlink:href="#m05fb488422" x="362.551457" y="192.027913" style="stroke: #000000"/>
     <use xlink:href="#m05fb488422" x="376.464229" y="191.621117" style="stroke: #000000"/>
     <use xlink:href="#m05fb488422" x="378.310388" y="191.582759" style="stroke: #000000"/>
     <use xlink:href="#m05fb488422" x="390.050577" y="191.397339" style="stroke: #000000"/>
     <use xlink:href="#m05fb488422" x="415.894241" y="191.204536" style="stroke: #000000"/>
     <use xlink:href="#m05fb488422" x="434.417163" y="191.151478" style="stroke: #000000"/>
    </g>
   </g>
   <g id="line2d_16">
    <defs>
     <path id="m8797fc9d10" d="M 0 3 
C 0.795609 3 1.55874 2.683901 2.12132 2.12132 
C 2.683901 1.55874 3 0.795609 3 0 
C 3 -0.795609 2.683901 -1.55874 2.12132 -2.12132 
C 1.55874 -2.683901 0.795609 -3 0 -3 
C -0.795609 -3 -1.55874 -2.683901 -2.12132 -2.12132 
C -2.683901 -1.55874 -3 -0.795609 -3 0 
C -3 0.795609 -2.683901 1.55874 -2.12132 2.12132 
C -1.55874 2.683901 -0.795609 3 0 3 
z
" style="stroke: #2ca02c"/>
    </defs>
    <g clip-path="url(#p016bf841fb)">
     <use xlink:href="#m8797fc9d10" x="88.731403" y="276.594367" style="fill: #2ca02c; stroke: #2ca02c"/>
     <use xlink:href="#m8797fc9d10" x="100.241595" y="276.573067" style="fill: #2ca02c; stroke: #2ca02c"/>
     <use xlink:href="#m8797fc9d10" x="113.107601" y="275.978632" style="fill: #2ca02c; stroke: #2ca02c"/>
     <use xlink:href="#m8797fc9d10" x="150.688146" y="271.912475" style="fill: #2ca02c; stroke: #2ca02c"/>
     <use xlink:href="#m8797fc9d10" x="205.114697" y="260.972202" style="fill: #2ca02c; stroke: #2ca02c"/>
     <use xlink:href="#m8797fc9d10" x="230.925509" y="250.933954" style="fill: #2ca02c; stroke: #2ca02c"/>
     <use xlink:href="#m8797fc9d10" x="232.645117" y="250.284611" style="fill: #2ca02c; stroke: #2ca02c"/>
     <use xlink:href="#m8797fc9d10" x="235.28826" y="252.05708" style="fill: #2ca02c; stroke: #2ca02c"/>
     <use xlink:href="#m8797fc9d10" x="274.79238" y="226.834111" style="fill: #2ca02c; stroke: #2ca02c"/>
     <use xlink:href="#m8797fc9d10" x="304.01499" y="207.71331" style="fill: #2ca02c; stroke: #2ca02c"/>
     <use xlink:href="#m8797fc9d10" x="308.640557" y="210.336884" style="fill: #2ca02c; stroke: #2ca02c"/>
     <use xlink:href="#m8797fc9d10" x="328.924709" y="199.719623" style="fill: #2ca02c; stroke: #2ca02c"/>
     <use xlink:href="#m8797fc9d10" x="353.101981" y="191.111428" style="fill: #2ca02c; stroke: #2ca02c"/>
     <use xlink:href="#m8797fc9d10" x="357.960945" y="192.1618" style="fill: #2ca02c; stroke: #2ca02c"/>
     <use xlink:href="#m8797fc9d10" x="362.551457" y="189.064422" style="fill: #2ca02c; stroke: #2ca02c"/>
     <use xlink:href="#m8797fc9d10" x="376.464229" y="187.032822" style="fill: #2ca02c; stroke: #2ca02c"/>
     <use xlink:href="#m8797fc9d10" x="378.310388" y="178.490801" style="fill: #2ca02c; stroke: #2ca02c"/>
     <use xlink:href="#m8797fc9d10" x="390.050577" y="174.832885" style="fill: #2ca02c; stroke: #2ca02c"/>
     <use xlink:href="#m8797fc9d10" x="415.894241" y="184.889145" style="fill: #2ca02c; stroke: #2ca02c"/>
     <use xlink:href="#m8797fc9d10" x="434.417163" y="177.705404" style="fill: #2ca02c; stroke: #2ca02c"/>
    </g>
   </g>
   <g id="patch_3">
    <path d="M 71.447115 294.784135 
L 71.447115 4.658224 
" style="fill: none; stroke: #000000; stroke-width: 0.8; stroke-linejoin: miter; stroke-linecap: square"/>
   </g>
   <g id="patch_4">
    <path d="M 451.701451 294.784135 
L 451.701451 4.658224 
" style="fill: none; stroke: #000000; stroke-width: 0.8; stroke-linejoin: miter; stroke-linecap: square"/>
   </g>
   <g id="patch_5">
    <path d="M 71.447115 294.784135 
L 451.701451 294.784135 
" style="fill: none; stroke: #000000; stroke-width: 0.8; stroke-linejoin: miter; stroke-linecap: square"/>
   </g>
   <g id="patch_6">
    <path d="M 71.447115 4.658224 
L 451.701451 4.658224 
" style="fill: none; stroke: #000000; stroke-width: 0.8; stroke-linejoin: miter; stroke-linecap: square"/>
   </g>
  </g>
 </g>
 <defs>
  <clipPath id="p016bf841fb">
   <rect x="71.447115" y="4.658224" width="380.254336" height="290.125911"/>
  </clipPath>
 </defs>
</svg>
