<?xml version="1.0" encoding="utf-8" standalone="no"?>
<!DOCTYPE svg PUBLIC "-//W3C//DTD SVG 1.1//EN"
  "http://www.w3.org/Graphics/SVG/1.1/DTD/svg11.dtd">
<svg xmlns:xlink="http://www.w3.org/1999/xlink" width="460.8pt" height="345.6pt" viewBox="0 0 460.8 345.6" xmlns="http://www.w3.org/2000/svg" version="1.1">
 <metadata>
  <rdf:RDF xmlns:dc="http://purl.org/dc/elements/1.1/" xmlns:cc="http://creativecommons.org/ns#" xmlns:rdf="http://www.w3.org/1999/02/22-rdf-syntax-ns#">
   <cc:Work>
    <dc:type rdf:resource="http://purl.org/dc/dcmitype/StillImage"/>
    <dc:date>2025-12-05T23:32:42.558735</dc:date>
    <dc:format>image/svg+xml</dc:format>
    <dc:creator>
     <cc:Agent>
      <dc:title>Matplotlib v3.10.7, https://matplotlib.org/</dc:title>
     </cc:Agent>
    </dc:creator>
   </cc:Work>
  </rdf:RDF>
 </metadata>
 <defs>
  <style type="text/css">*{stroke-linejoin: round; stroke-linecap: butt}</style>
 </defs>
 <g id="figure_1">
  <g id="patch_1">
   <path d="M 0 345.6 
L 460.8 345.6 
L 460.8 0 
L 0 0 
z
" style="fill: #ffffff"/>
  </g>
  <g id="axes_1">
   <g id="patch_2">
    <path d="M 71.447115 294.784135 
L 451.936673 294.784135 
L 451.936673 3.00024 
L 71.447115 3.00024 
z
" style="fill: #ffffff"/>
   </g>
   <g id="matplotlib.axis_1">
    <g id="xtick_1">
     <g id="line2d_1">
      <defs>
       <path id="mcf6da6f87a" d="M 0 0 
L 0 3.5 
" style="stroke: #000000; stroke-width: 0.8"/>
      </defs>
      <g>
       <use xlink:href="#mcf6da6f87a" x="159.371812" y="294.784135" style="stroke: #000000; stroke-width: 0.8"/>
      </g>
     </g>
     <g id="text_1">
      <!-- −0.5 -->
      <g transform="translate(139.631187 316.09976) scale(0.2 -0.2)">
       <defs>
        <path id="ArialMT-2212" d="M 3381 1997 
L 356 1997 
L 356 2522 
L 3381 2522 
L 3381 1997 
z
" transform="scale(0.015625)"/>
        <path id="ArialMT-30" d="M 266 2259 
Q 266 3072 433 3567 
Q 600 4063 929 4331 
Q 1259 4600 1759 4600 
Q 2128 4600 2406 4451 
Q 2684 4303 2865 4023 
Q 3047 3744 3150 3342 
Q 3253 2941 3253 2259 
Q 3253 1453 3087 958 
Q 2922 463 2592 192 
Q 2263 -78 1759 -78 
Q 1097 -78 719 397 
Q 266 969 266 2259 
z
M 844 2259 
Q 844 1131 1108 757 
Q 1372 384 1759 384 
Q 2147 384 2411 759 
Q 2675 1134 2675 2259 
Q 2675 3391 2411 3762 
Q 2147 4134 1753 4134 
Q 1366 4134 1134 3806 
Q 844 3388 844 2259 
z
" transform="scale(0.015625)"/>
        <path id="ArialMT-2e" d="M 581 0 
L 581 641 
L 1222 641 
L 1222 0 
L 581 0 
z
" transform="scale(0.015625)"/>
        <path id="ArialMT-35" d="M 266 1200 
L 856 1250 
Q 922 819 1161 601 
Q 1400 384 1738 384 
Q 2144 384 2425 690 
Q 2706 997 2706 1503 
Q 2706 1984 2436 2262 
Q 2166 2541 1728 2541 
Q 1456 2541 1237 2417 
Q 1019 2294 894 2097 
L 366 2166 
L 809 4519 
L 3088 4519 
L 3088 3981 
L 1259 3981 
L 1013 2750 
Q 1425 3038 1878 3038 
Q 2478 3038 2890 2622 
Q 3303 2206 3303 1553 
Q 3303 931 2941 478 
Q 2500 -78 1738 -78 
Q 1113 -78 717 272 
Q 322 622 266 1200 
z
" transform="scale(0.015625)"/>
       </defs>
       <use xlink:href="#ArialMT-2212"/>
       <use xlink:href="#ArialMT-30" transform="translate(58.398438 0)"/>
       <use xlink:href="#ArialMT-2e" transform="translate(114.013672 0)"/>
       <use xlink:href="#ArialMT-35" transform="translate(141.796875 0)"/>
      </g>
     </g>
    </g>
    <g id="xtick_2">
     <g id="line2d_2">
      <g>
       <use xlink:href="#mcf6da6f87a" x="254.211049" y="294.784135" style="stroke: #000000; stroke-width: 0.8"/>
      </g>
     </g>
     <g id="text_2">
      <!-- 0.0 -->
      <g transform="translate(240.311049 316.09976) scale(0.2 -0.2)">
       <use xlink:href="#ArialMT-30"/>
       <use xlink:href="#ArialMT-2e" transform="translate(55.615234 0)"/>
       <use xlink:href="#ArialMT-30" transform="translate(83.398438 0)"/>
      </g>
     </g>
    </g>
    <g id="xtick_3">
     <g id="line2d_3">
      <g>
       <use xlink:href="#mcf6da6f87a" x="349.050286" y="294.784135" style="stroke: #000000; stroke-width: 0.8"/>
      </g>
     </g>
     <g id="text_3">
      <!-- 0.5 -->
      <g transform="translate(335.150286 316.09976) scale(0.2 -0.2)">
       <use xlink:href="#ArialMT-30"/>
       <use xlink:href="#ArialMT-2e" transform="translate(55.615234 0)"/>
       <use xlink:href="#ArialMT-35" transform="translate(83.398438 0)"/>
      </g>
     </g>
    </g>
    <g id="xtick_4">
     <g id="line2d_4">
      <g>
       <use xlink:href="#mcf6da6f87a" x="443.889523" y="294.784135" style="stroke: #000000; stroke-width: 0.8"/>
      </g>
     </g>
     <g id="text_4">
      <!-- 1.0 -->
      <g transform="translate(429.989523 316.09976) scale(0.2 -0.2)">
       <defs>
        <path id="ArialMT-31" d="M 2384 0 
L 1822 0 
L 1822 3584 
Q 1619 3391 1289 3197 
Q 959 3003 697 2906 
L 697 3450 
Q 1169 3672 1522 3987 
Q 1875 4303 2022 4600 
L 2384 4600 
L 2384 0 
z
" transform="scale(0.015625)"/>
       </defs>
       <use xlink:href="#ArialMT-31"/>
       <use xlink:href="#ArialMT-2e" transform="translate(55.615234 0)"/>
       <use xlink:href="#ArialMT-30" transform="translate(83.398438 0)"/>
      </g>
     </g>
    </g>
    <g id="text_5">
     <!-- Migration predictor -->
     <g transform="translate(178.885644 338.390385) scale(0.2 -0.2)">
      <defs>
       <path id="ArialMT-4d" d="M 475 0 
L 475 4581 
L 1388 4581 
L 2472 1338 
Q 2622 884 2691 659 
Q 2769 909 2934 1394 
L 4031 4581 
L 4847 4581 
L 4847 0 
L 4263 0 
L 4263 3834 
L 2931 0 
L 2384 0 
L 1059 3900 
L 1059 0 
L 475 0 
z
" transform="scale(0.015625)"/>
       <path id="ArialMT-69" d="M 425 3934 
L 425 4581 
L 988 4581 
L 988 3934 
L 425 3934 
z
M 425 0 
L 425 3319 
L 988 3319 
L 988 0 
L 425 0 
z
" transform="scale(0.015625)"/>
       <path id="ArialMT-67" d="M 319 -275 
L 866 -356 
Q 900 -609 1056 -725 
Q 1266 -881 1628 -881 
Q 2019 -881 2231 -725 
Q 2444 -569 2519 -288 
Q 2563 -116 2559 434 
Q 2191 0 1641 0 
Q 956 0 581 494 
Q 206 988 206 1678 
Q 206 2153 378 2554 
Q 550 2956 876 3175 
Q 1203 3394 1644 3394 
Q 2231 3394 2613 2919 
L 2613 3319 
L 3131 3319 
L 3131 450 
Q 3131 -325 2973 -648 
Q 2816 -972 2473 -1159 
Q 2131 -1347 1631 -1347 
Q 1038 -1347 672 -1080 
Q 306 -813 319 -275 
z
M 784 1719 
Q 784 1066 1043 766 
Q 1303 466 1694 466 
Q 2081 466 2343 764 
Q 2606 1063 2606 1700 
Q 2606 2309 2336 2618 
Q 2066 2928 1684 2928 
Q 1309 2928 1046 2623 
Q 784 2319 784 1719 
z
" transform="scale(0.015625)"/>
       <path id="ArialMT-72" d="M 416 0 
L 416 3319 
L 922 3319 
L 922 2816 
Q 1116 3169 1280 3281 
Q 1444 3394 1641 3394 
Q 1925 3394 2219 3213 
L 2025 2691 
Q 1819 2813 1613 2813 
Q 1428 2813 1281 2702 
Q 1134 2591 1072 2394 
Q 978 2094 978 1738 
L 978 0 
L 416 0 
z
" transform="scale(0.015625)"/>
       <path id="ArialMT-61" d="M 2588 409 
Q 2275 144 1986 34 
Q 1697 -75 1366 -75 
Q 819 -75 525 192 
Q 231 459 231 875 
Q 231 1119 342 1320 
Q 453 1522 633 1644 
Q 813 1766 1038 1828 
Q 1203 1872 1538 1913 
Q 2219 1994 2541 2106 
Q 2544 2222 2544 2253 
Q 2544 2597 2384 2738 
Q 2169 2928 1744 2928 
Q 1347 2928 1158 2789 
Q 969 2650 878 2297 
L 328 2372 
Q 403 2725 575 2942 
Q 747 3159 1072 3276 
Q 1397 3394 1825 3394 
Q 2250 3394 2515 3294 
Q 2781 3194 2906 3042 
Q 3031 2891 3081 2659 
Q 3109 2516 3109 2141 
L 3109 1391 
Q 3109 606 3145 398 
Q 3181 191 3288 0 
L 2700 0 
Q 2613 175 2588 409 
z
M 2541 1666 
Q 2234 1541 1622 1453 
Q 1275 1403 1131 1340 
Q 988 1278 909 1158 
Q 831 1038 831 891 
Q 831 666 1001 516 
Q 1172 366 1500 366 
Q 1825 366 2078 508 
Q 2331 650 2450 897 
Q 2541 1088 2541 1459 
L 2541 1666 
z
" transform="scale(0.015625)"/>
       <path id="ArialMT-74" d="M 1650 503 
L 1731 6 
Q 1494 -44 1306 -44 
Q 1000 -44 831 53 
Q 663 150 594 308 
Q 525 466 525 972 
L 525 2881 
L 113 2881 
L 113 3319 
L 525 3319 
L 525 4141 
L 1084 4478 
L 1084 3319 
L 1650 3319 
L 1650 2881 
L 1084 2881 
L 1084 941 
Q 1084 700 1114 631 
Q 1144 563 1211 522 
Q 1278 481 1403 481 
Q 1497 481 1650 503 
z
" transform="scale(0.015625)"/>
       <path id="ArialMT-6f" d="M 213 1659 
Q 213 2581 725 3025 
Q 1153 3394 1769 3394 
Q 2453 3394 2887 2945 
Q 3322 2497 3322 1706 
Q 3322 1066 3130 698 
Q 2938 331 2570 128 
Q 2203 -75 1769 -75 
Q 1072 -75 642 372 
Q 213 819 213 1659 
z
M 791 1659 
Q 791 1022 1069 705 
Q 1347 388 1769 388 
Q 2188 388 2466 706 
Q 2744 1025 2744 1678 
Q 2744 2294 2464 2611 
Q 2184 2928 1769 2928 
Q 1347 2928 1069 2612 
Q 791 2297 791 1659 
z
" transform="scale(0.015625)"/>
       <path id="ArialMT-6e" d="M 422 0 
L 422 3319 
L 928 3319 
L 928 2847 
Q 1294 3394 1984 3394 
Q 2284 3394 2536 3286 
Q 2788 3178 2913 3003 
Q 3038 2828 3088 2588 
Q 3119 2431 3119 2041 
L 3119 0 
L 2556 0 
L 2556 2019 
Q 2556 2363 2490 2533 
Q 2425 2703 2258 2804 
Q 2091 2906 1866 2906 
Q 1506 2906 1245 2678 
Q 984 2450 984 1813 
L 984 0 
L 422 0 
z
" transform="scale(0.015625)"/>
       <path id="ArialMT-20" transform="scale(0.015625)"/>
       <path id="ArialMT-70" d="M 422 -1272 
L 422 3319 
L 934 3319 
L 934 2888 
Q 1116 3141 1344 3267 
Q 1572 3394 1897 3394 
Q 2322 3394 2647 3175 
Q 2972 2956 3137 2557 
Q 3303 2159 3303 1684 
Q 3303 1175 3120 767 
Q 2938 359 2589 142 
Q 2241 -75 1856 -75 
Q 1575 -75 1351 44 
Q 1128 163 984 344 
L 984 -1272 
L 422 -1272 
z
M 931 1641 
Q 931 1000 1190 694 
Q 1450 388 1819 388 
Q 2194 388 2461 705 
Q 2728 1022 2728 1688 
Q 2728 2322 2467 2637 
Q 2206 2953 1844 2953 
Q 1484 2953 1207 2617 
Q 931 2281 931 1641 
z
" transform="scale(0.015625)"/>
       <path id="ArialMT-65" d="M 2694 1069 
L 3275 997 
Q 3138 488 2766 206 
Q 2394 -75 1816 -75 
Q 1088 -75 661 373 
Q 234 822 234 1631 
Q 234 2469 665 2931 
Q 1097 3394 1784 3394 
Q 2450 3394 2872 2941 
Q 3294 2488 3294 1666 
Q 3294 1616 3291 1516 
L 816 1516 
Q 847 969 1125 678 
Q 1403 388 1819 388 
Q 2128 388 2347 550 
Q 2566 713 2694 1069 
z
M 847 1978 
L 2700 1978 
Q 2663 2397 2488 2606 
Q 2219 2931 1791 2931 
Q 1403 2931 1139 2672 
Q 875 2413 847 1978 
z
" transform="scale(0.015625)"/>
       <path id="ArialMT-64" d="M 2575 0 
L 2575 419 
Q 2259 -75 1647 -75 
Q 1250 -75 917 144 
Q 584 363 401 755 
Q 219 1147 219 1656 
Q 219 2153 384 2558 
Q 550 2963 881 3178 
Q 1213 3394 1622 3394 
Q 1922 3394 2156 3267 
Q 2391 3141 2538 2938 
L 2538 4581 
L 3097 4581 
L 3097 0 
L 2575 0 
z
M 797 1656 
Q 797 1019 1065 703 
Q 1334 388 1700 388 
Q 2069 388 2326 689 
Q 2584 991 2584 1609 
Q 2584 2291 2321 2609 
Q 2059 2928 1675 2928 
Q 1300 2928 1048 2622 
Q 797 2316 797 1656 
z
" transform="scale(0.015625)"/>
       <path id="ArialMT-63" d="M 2588 1216 
L 3141 1144 
Q 3050 572 2676 248 
Q 2303 -75 1759 -75 
Q 1078 -75 664 370 
Q 250 816 250 1647 
Q 250 2184 428 2587 
Q 606 2991 970 3192 
Q 1334 3394 1763 3394 
Q 2303 3394 2647 3120 
Q 2991 2847 3088 2344 
L 2541 2259 
Q 2463 2594 2264 2762 
Q 2066 2931 1784 2931 
Q 1359 2931 1093 2626 
Q 828 2322 828 1663 
Q 828 994 1084 691 
Q 1341 388 1753 388 
Q 2084 388 2306 591 
Q 2528 794 2588 1216 
z
" transform="scale(0.015625)"/>
      </defs>
      <use xlink:href="#ArialMT-4d"/>
      <use xlink:href="#ArialMT-69" transform="translate(83.300781 0)"/>
      <use xlink:href="#ArialMT-67" transform="translate(105.517578 0)"/>
      <use xlink:href="#ArialMT-72" transform="translate(161.132812 0)"/>
      <use xlink:href="#ArialMT-61" transform="translate(194.433594 0)"/>
      <use xlink:href="#ArialMT-74" transform="translate(250.048828 0)"/>
      <use xlink:href="#ArialMT-69" transform="translate(277.832031 0)"/>
      <use xlink:href="#ArialMT-6f" transform="translate(300.048828 0)"/>
      <use xlink:href="#ArialMT-6e" transform="translate(355.664062 0)"/>
      <use xlink:href="#ArialMT-20" transform="translate(411.279297 0)"/>
      <use xlink:href="#ArialMT-70" transform="translate(439.0625 0)"/>
      <use xlink:href="#ArialMT-72" transform="translate(494.677734 0)"/>
      <use xlink:href="#ArialMT-65" transform="translate(527.978516 0)"/>
      <use xlink:href="#ArialMT-64" transform="translate(583.59375 0)"/>
      <use xlink:href="#ArialMT-69" transform="translate(639.208984 0)"/>
      <use xlink:href="#ArialMT-63" transform="translate(661.425781 0)"/>
      <use xlink:href="#ArialMT-74" transform="translate(711.425781 0)"/>
      <use xlink:href="#ArialMT-6f" transform="translate(739.208984 0)"/>
      <use xlink:href="#ArialMT-72" transform="translate(794.824219 0)"/>
     </g>
    </g>
   </g>
   <g id="matplotlib.axis_2">
    <g id="ytick_1">
     <g id="line2d_5">
      <defs>
       <path id="ma3d870236d" d="M 0 0 
L -3.5 0 
" style="stroke: #000000; stroke-width: 0.8"/>
      </defs>
      <g>
       <use xlink:href="#ma3d870236d" x="71.447115" y="281.625044" style="stroke: #000000; stroke-width: 0.8"/>
      </g>
     </g>
     <g id="text_6">
      <!-- 0.00 -->
      <g transform="translate(25.52524 288.782856) scale(0.2 -0.2)">
       <use xlink:href="#ArialMT-30"/>
       <use xlink:href="#ArialMT-2e" transform="translate(55.615234 0)"/>
       <use xlink:href="#ArialMT-30" transform="translate(83.398438 0)"/>
       <use xlink:href="#ArialMT-30" transform="translate(139.013672 0)"/>
      </g>
     </g>
    </g>
    <g id="ytick_2">
     <g id="line2d_6">
      <g>
       <use xlink:href="#ma3d870236d" x="71.447115" y="225.837839" style="stroke: #000000; stroke-width: 0.8"/>
      </g>
     </g>
     <g id="text_7">
      <!-- 0.02 -->
      <g transform="translate(25.52524 232.995652) scale(0.2 -0.2)">
       <defs>
        <path id="ArialMT-32" d="M 3222 541 
L 3222 0 
L 194 0 
Q 188 203 259 391 
Q 375 700 629 1000 
Q 884 1300 1366 1694 
Q 2113 2306 2375 2664 
Q 2638 3022 2638 3341 
Q 2638 3675 2398 3904 
Q 2159 4134 1775 4134 
Q 1369 4134 1125 3890 
Q 881 3647 878 3216 
L 300 3275 
Q 359 3922 746 4261 
Q 1134 4600 1788 4600 
Q 2447 4600 2831 4234 
Q 3216 3869 3216 3328 
Q 3216 3053 3103 2787 
Q 2991 2522 2730 2228 
Q 2469 1934 1863 1422 
Q 1356 997 1212 845 
Q 1069 694 975 541 
L 3222 541 
z
" transform="scale(0.015625)"/>
       </defs>
       <use xlink:href="#ArialMT-30"/>
       <use xlink:href="#ArialMT-2e" transform="translate(55.615234 0)"/>
       <use xlink:href="#ArialMT-30" transform="translate(83.398438 0)"/>
       <use xlink:href="#ArialMT-32" transform="translate(139.013672 0)"/>
      </g>
     </g>
    </g>
    <g id="ytick_3">
     <g id="line2d_7">
      <g>
       <use xlink:href="#ma3d870236d" x="71.447115" y="170.050635" style="stroke: #000000; stroke-width: 0.8"/>
      </g>
     </g>
     <g id="text_8">
      <!-- 0.04 -->
      <g transform="translate(25.52524 177.208447) scale(0.2 -0.2)">
       <defs>
        <path id="ArialMT-34" d="M 2069 0 
L 2069 1097 
L 81 1097 
L 81 1613 
L 2172 4581 
L 2631 4581 
L 2631 1613 
L 3250 1613 
L 3250 1097 
L 2631 1097 
L 2631 0 
L 2069 0 
z
M 2069 1613 
L 2069 3678 
L 634 1613 
L 2069 1613 
z
" transform="scale(0.015625)"/>
       </defs>
       <use xlink:href="#ArialMT-30"/>
       <use xlink:href="#ArialMT-2e" transform="translate(55.615234 0)"/>
       <use xlink:href="#ArialMT-30" transform="translate(83.398438 0)"/>
       <use xlink:href="#ArialMT-34" transform="translate(139.013672 0)"/>
      </g>
     </g>
    </g>
    <g id="ytick_4">
     <g id="line2d_8">
      <g>
       <use xlink:href="#ma3d870236d" x="71.447115" y="114.263431" style="stroke: #000000; stroke-width: 0.8"/>
      </g>
     </g>
     <g id="text_9">
      <!-- 0.06 -->
      <g transform="translate(25.52524 121.421243) scale(0.2 -0.2)">
       <defs>
        <path id="ArialMT-36" d="M 3184 3459 
L 2625 3416 
Q 2550 3747 2413 3897 
Q 2184 4138 1850 4138 
Q 1581 4138 1378 3988 
Q 1113 3794 959 3422 
Q 806 3050 800 2363 
Q 1003 2672 1297 2822 
Q 1591 2972 1913 2972 
Q 2475 2972 2870 2558 
Q 3266 2144 3266 1488 
Q 3266 1056 3080 686 
Q 2894 316 2569 119 
Q 2244 -78 1831 -78 
Q 1128 -78 684 439 
Q 241 956 241 2144 
Q 241 3472 731 4075 
Q 1159 4600 1884 4600 
Q 2425 4600 2770 4297 
Q 3116 3994 3184 3459 
z
M 888 1484 
Q 888 1194 1011 928 
Q 1134 663 1356 523 
Q 1578 384 1822 384 
Q 2178 384 2434 671 
Q 2691 959 2691 1453 
Q 2691 1928 2437 2201 
Q 2184 2475 1800 2475 
Q 1419 2475 1153 2201 
Q 888 1928 888 1484 
z
" transform="scale(0.015625)"/>
       </defs>
       <use xlink:href="#ArialMT-30"/>
       <use xlink:href="#ArialMT-2e" transform="translate(55.615234 0)"/>
       <use xlink:href="#ArialMT-30" transform="translate(83.398438 0)"/>
       <use xlink:href="#ArialMT-36" transform="translate(139.013672 0)"/>
      </g>
     </g>
    </g>
    <g id="ytick_5">
     <g id="line2d_9">
      <g>
       <use xlink:href="#ma3d870236d" x="71.447115" y="58.476226" style="stroke: #000000; stroke-width: 0.8"/>
      </g>
     </g>
     <g id="text_10">
      <!-- 0.08 -->
      <g transform="translate(25.52524 65.634039) scale(0.2 -0.2)">
       <defs>
        <path id="ArialMT-38" d="M 1131 2484 
Q 781 2613 612 2850 
Q 444 3088 444 3419 
Q 444 3919 803 4259 
Q 1163 4600 1759 4600 
Q 2359 4600 2725 4251 
Q 3091 3903 3091 3403 
Q 3091 3084 2923 2848 
Q 2756 2613 2416 2484 
Q 2838 2347 3058 2040 
Q 3278 1734 3278 1309 
Q 3278 722 2862 322 
Q 2447 -78 1769 -78 
Q 1091 -78 675 323 
Q 259 725 259 1325 
Q 259 1772 486 2073 
Q 713 2375 1131 2484 
z
M 1019 3438 
Q 1019 3113 1228 2906 
Q 1438 2700 1772 2700 
Q 2097 2700 2305 2904 
Q 2513 3109 2513 3406 
Q 2513 3716 2298 3927 
Q 2084 4138 1766 4138 
Q 1444 4138 1231 3931 
Q 1019 3725 1019 3438 
z
M 838 1322 
Q 838 1081 952 856 
Q 1066 631 1291 507 
Q 1516 384 1775 384 
Q 2178 384 2440 643 
Q 2703 903 2703 1303 
Q 2703 1709 2433 1975 
Q 2163 2241 1756 2241 
Q 1359 2241 1098 1978 
Q 838 1716 838 1322 
z
" transform="scale(0.015625)"/>
       </defs>
       <use xlink:href="#ArialMT-30"/>
       <use xlink:href="#ArialMT-2e" transform="translate(55.615234 0)"/>
       <use xlink:href="#ArialMT-30" transform="translate(83.398438 0)"/>
       <use xlink:href="#ArialMT-38" transform="translate(139.013672 0)"/>
      </g>
     </g>
    </g>
    <g id="text_11">
     <!-- Migration rate -->
     <g transform="translate(17.315865 210.025) rotate(-90) scale(0.2 -0.2)">
      <use xlink:href="#ArialMT-4d"/>
      <use xlink:href="#ArialMT-69" transform="translate(83.300781 0)"/>
      <use xlink:href="#ArialMT-67" transform="translate(105.517578 0)"/>
      <use xlink:href="#ArialMT-72" transform="translate(161.132812 0)"/>
      <use xlink:href="#ArialMT-61" transform="translate(194.433594 0)"/>
      <use xlink:href="#ArialMT-74" transform="translate(250.048828 0)"/>
      <use xlink:href="#ArialMT-69" transform="translate(277.832031 0)"/>
      <use xlink:href="#ArialMT-6f" transform="translate(300.048828 0)"/>
      <use xlink:href="#ArialMT-6e" transform="translate(355.664062 0)"/>
      <use xlink:href="#ArialMT-20" transform="translate(411.279297 0)"/>
      <use xlink:href="#ArialMT-72" transform="translate(439.0625 0)"/>
      <use xlink:href="#ArialMT-61" transform="translate(472.363281 0)"/>
      <use xlink:href="#ArialMT-74" transform="translate(527.978516 0)"/>
      <use xlink:href="#ArialMT-65" transform="translate(555.761719 0)"/>
     </g>
    </g>
   </g>
   <g id="LineCollection_1">
    <path d="M 88.742095 271.981115 
L 88.742095 244.526118 
" clip-path="url(#p8bdd013174)" style="fill: none; stroke: #ff7f0e; stroke-width: 2"/>
    <path d="M 100.259407 271.974529 
L 100.259407 240.043239 
" clip-path="url(#p8bdd013174)" style="fill: none; stroke: #ff7f0e; stroke-width: 2"/>
    <path d="M 113.133372 270.809563 
L 113.133372 240.458837 
" clip-path="url(#p8bdd013174)" style="fill: none; stroke: #ff7f0e; stroke-width: 2"/>
    <path d="M 150.737163 266.437418 
L 150.737163 231.936546 
" clip-path="url(#p8bdd013174)" style="fill: none; stroke: #ff7f0e; stroke-width: 2"/>
    <path d="M 205.197382 259.45466 
L 205.197382 219.26149 
" clip-path="url(#p8bdd013174)" style="fill: none; stroke: #ff7f0e; stroke-width: 2"/>
    <path d="M 231.024161 254.962169 
L 231.024161 210.693983 
" clip-path="url(#p8bdd013174)" style="fill: none; stroke: #ff7f0e; stroke-width: 2"/>
    <path d="M 232.744833 254.547571 
L 232.744833 206.192505 
" clip-path="url(#p8bdd013174)" style="fill: none; stroke: #ff7f0e; stroke-width: 2"/>
    <path d="M 235.38961 254.329137 
L 235.38961 205.219151 
" clip-path="url(#p8bdd013174)" style="fill: none; stroke: #ff7f0e; stroke-width: 2"/>
    <path d="M 274.918168 243.39183 
L 274.918168 183.990894 
" clip-path="url(#p8bdd013174)" style="fill: none; stroke: #ff7f0e; stroke-width: 2"/>
    <path d="M 304.158854 238.104246 
L 304.158854 168.783732 
" clip-path="url(#p8bdd013174)" style="fill: none; stroke: #ff7f0e; stroke-width: 2"/>
    <path d="M 308.787282 239.551328 
L 308.787282 169.980391 
" clip-path="url(#p8bdd013174)" style="fill: none; stroke: #ff7f0e; stroke-width: 2"/>
    <path d="M 329.083982 233.927183 
L 329.083982 150.538626 
" clip-path="url(#p8bdd013174)" style="fill: none; stroke: #ff7f0e; stroke-width: 2"/>
    <path d="M 353.27621 229.638199 
L 353.27621 130.655977 
" clip-path="url(#p8bdd013174)" style="fill: none; stroke: #ff7f0e; stroke-width: 2"/>
    <path d="M 358.13818 227.367494 
L 358.13818 126.995405 
" clip-path="url(#p8bdd013174)" style="fill: none; stroke: #ff7f0e; stroke-width: 2"/>
    <path d="M 362.731531 230.004669 
L 362.731531 118.900447 
" clip-path="url(#p8bdd013174)" style="fill: none; stroke: #ff7f0e; stroke-width: 2"/>
    <path d="M 376.65291 220.891568 
L 376.65291 93.666381 
" clip-path="url(#p8bdd013174)" style="fill: none; stroke: #ff7f0e; stroke-width: 2"/>
    <path d="M 378.500211 219.132268 
L 378.500211 95.558975 
" clip-path="url(#p8bdd013174)" style="fill: none; stroke: #ff7f0e; stroke-width: 2"/>
    <path d="M 390.247662 218.979699 
L 390.247662 72.626468 
" clip-path="url(#p8bdd013174)" style="fill: none; stroke: #ff7f0e; stroke-width: 2"/>
    <path d="M 416.107313 219.50385 
L 416.107313 67.041238 
" clip-path="url(#p8bdd013174)" style="fill: none; stroke: #ff7f0e; stroke-width: 2"/>
    <path d="M 434.641693 208.626284 
L 434.641693 16.263144 
" clip-path="url(#p8bdd013174)" style="fill: none; stroke: #ff7f0e; stroke-width: 2"/>
   </g>
   <g id="line2d_10">
    <defs>
     <path id="m55af0fdd73" d="M 5 0 
L -5 -0 
" style="stroke: #ff7f0e"/>
    </defs>
    <g clip-path="url(#p8bdd013174)">
     <use xlink:href="#m55af0fdd73" x="88.742095" y="271.981115" style="fill: #ff7f0e; stroke: #ff7f0e"/>
     <use xlink:href="#m55af0fdd73" x="100.259407" y="271.974529" style="fill: #ff7f0e; stroke: #ff7f0e"/>
     <use xlink:href="#m55af0fdd73" x="113.133372" y="270.809563" style="fill: #ff7f0e; stroke: #ff7f0e"/>
     <use xlink:href="#m55af0fdd73" x="150.737163" y="266.437418" style="fill: #ff7f0e; stroke: #ff7f0e"/>
     <use xlink:href="#m55af0fdd73" x="205.197382" y="259.45466" style="fill: #ff7f0e; stroke: #ff7f0e"/>
     <use xlink:href="#m55af0fdd73" x="231.024161" y="254.962169" style="fill: #ff7f0e; stroke: #ff7f0e"/>
     <use xlink:href="#m55af0fdd73" x="232.744833" y="254.547571" style="fill: #ff7f0e; stroke: #ff7f0e"/>
     <use xlink:href="#m55af0fdd73" x="235.38961" y="254.329137" style="fill: #ff7f0e; stroke: #ff7f0e"/>
     <use xlink:href="#m55af0fdd73" x="274.918168" y="243.39183" style="fill: #ff7f0e; stroke: #ff7f0e"/>
     <use xlink:href="#m55af0fdd73" x="304.158854" y="238.104246" style="fill: #ff7f0e; stroke: #ff7f0e"/>
     <use xlink:href="#m55af0fdd73" x="308.787282" y="239.551328" style="fill: #ff7f0e; stroke: #ff7f0e"/>
     <use xlink:href="#m55af0fdd73" x="329.083982" y="233.927183" style="fill: #ff7f0e; stroke: #ff7f0e"/>
     <use xlink:href="#m55af0fdd73" x="353.27621" y="229.638199" style="fill: #ff7f0e; stroke: #ff7f0e"/>
     <use xlink:href="#m55af0fdd73" x="358.13818" y="227.367494" style="fill: #ff7f0e; stroke: #ff7f0e"/>
     <use xlink:href="#m55af0fdd73" x="362.731531" y="230.004669" style="fill: #ff7f0e; stroke: #ff7f0e"/>
     <use xlink:href="#m55af0fdd73" x="376.65291" y="220.891568" style="fill: #ff7f0e; stroke: #ff7f0e"/>
     <use xlink:href="#m55af0fdd73" x="378.500211" y="219.132268" style="fill: #ff7f0e; stroke: #ff7f0e"/>
     <use xlink:href="#m55af0fdd73" x="390.247662" y="218.979699" style="fill: #ff7f0e; stroke: #ff7f0e"/>
     <use xlink:href="#m55af0fdd73" x="416.107313" y="219.50385" style="fill: #ff7f0e; stroke: #ff7f0e"/>
     <use xlink:href="#m55af0fdd73" x="434.641693" y="208.626284" style="fill: #ff7f0e; stroke: #ff7f0e"/>
    </g>
   </g>
   <g id="line2d_11">
    <g clip-path="url(#p8bdd013174)">
     <use xlink:href="#m55af0fdd73" x="88.742095" y="244.526118" style="fill: #ff7f0e; stroke: #ff7f0e"/>
     <use xlink:href="#m55af0fdd73" x="100.259407" y="240.043239" style="fill: #ff7f0e; stroke: #ff7f0e"/>
     <use xlink:href="#m55af0fdd73" x="113.133372" y="240.458837" style="fill: #ff7f0e; stroke: #ff7f0e"/>
     <use xlink:href="#m55af0fdd73" x="150.737163" y="231.936546" style="fill: #ff7f0e; stroke: #ff7f0e"/>
     <use xlink:href="#m55af0fdd73" x="205.197382" y="219.26149" style="fill: #ff7f0e; stroke: #ff7f0e"/>
     <use xlink:href="#m55af0fdd73" x="231.024161" y="210.693983" style="fill: #ff7f0e; stroke: #ff7f0e"/>
     <use xlink:href="#m55af0fdd73" x="232.744833" y="206.192505" style="fill: #ff7f0e; stroke: #ff7f0e"/>
     <use xlink:href="#m55af0fdd73" x="235.38961" y="205.219151" style="fill: #ff7f0e; stroke: #ff7f0e"/>
     <use xlink:href="#m55af0fdd73" x="274.918168" y="183.990894" style="fill: #ff7f0e; stroke: #ff7f0e"/>
     <use xlink:href="#m55af0fdd73" x="304.158854" y="168.783732" style="fill: #ff7f0e; stroke: #ff7f0e"/>
     <use xlink:href="#m55af0fdd73" x="308.787282" y="169.980391" style="fill: #ff7f0e; stroke: #ff7f0e"/>
     <use xlink:href="#m55af0fdd73" x="329.083982" y="150.538626" style="fill: #ff7f0e; stroke: #ff7f0e"/>
     <use xlink:href="#m55af0fdd73" x="353.27621" y="130.655977" style="fill: #ff7f0e; stroke: #ff7f0e"/>
     <use xlink:href="#m55af0fdd73" x="358.13818" y="126.995405" style="fill: #ff7f0e; stroke: #ff7f0e"/>
     <use xlink:href="#m55af0fdd73" x="362.731531" y="118.900447" style="fill: #ff7f0e; stroke: #ff7f0e"/>
     <use xlink:href="#m55af0fdd73" x="376.65291" y="93.666381" style="fill: #ff7f0e; stroke: #ff7f0e"/>
     <use xlink:href="#m55af0fdd73" x="378.500211" y="95.558975" style="fill: #ff7f0e; stroke: #ff7f0e"/>
     <use xlink:href="#m55af0fdd73" x="390.247662" y="72.626468" style="fill: #ff7f0e; stroke: #ff7f0e"/>
     <use xlink:href="#m55af0fdd73" x="416.107313" y="67.041238" style="fill: #ff7f0e; stroke: #ff7f0e"/>
     <use xlink:href="#m55af0fdd73" x="434.641693" y="16.263144" style="fill: #ff7f0e; stroke: #ff7f0e"/>
    </g>
   </g>
   <g id="line2d_12">
    <path d="M 88.742095 261.280396 
L 92.23603 260.695724 
L 95.729966 260.117202 
L 99.223901 259.544167 
L 102.717836 258.975957 
L 106.211772 258.411911 
L 109.705707 257.851366 
L 113.199642 257.293661 
L 116.693578 256.738132 
L 120.187513 256.184118 
L 123.681448 255.630957 
L 127.175384 255.077987 
L 130.669319 254.524546 
L 134.163254 253.969971 
L 137.65719 253.413601 
L 141.151125 252.854773 
L 144.64506 252.292825 
L 148.138996 251.727096 
L 151.632931 251.156923 
L 155.126866 250.581644 
L 158.620802 250.000597 
L 162.114737 249.413119 
L 165.608672 248.81855 
L 169.102608 248.216226 
L 172.596543 247.605486 
L 176.090478 246.985667 
L 179.584414 246.356108 
L 183.078349 245.716146 
L 186.572284 245.065119 
L 190.06622 244.402366 
L 193.560155 243.727223 
L 197.05409 243.03903 
L 200.548026 242.337123 
L 204.041961 241.620841 
L 207.535896 240.889522 
L 211.029832 240.142503 
L 214.523767 239.379123 
L 218.017702 238.59872 
L 221.511638 237.80063 
L 225.005573 236.984193 
L 228.499508 236.148746 
L 231.993444 235.293628 
L 235.487379 234.418175 
L 238.981314 233.521726 
L 242.47525 232.603619 
L 245.969185 231.663191 
L 249.46312 230.699781 
L 252.957056 229.712727 
L 256.450991 228.701366 
L 259.944926 227.665036 
L 263.438862 226.603076 
L 266.932797 225.514823 
L 270.426732 224.399615 
L 273.920668 223.256789 
L 277.414603 222.085685 
L 280.908538 220.88564 
L 284.402474 219.655991 
L 287.896409 218.396077 
L 291.390344 217.105235 
L 294.88428 215.782804 
L 298.378215 214.428121 
L 301.87215 213.040525 
L 305.366086 211.619352 
L 308.860021 210.163942 
L 312.353956 208.673632 
L 315.847892 207.147759 
L 319.341827 205.585662 
L 322.835762 203.986679 
L 326.329698 202.350148 
L 329.823633 200.675406 
L 333.317568 198.961792 
L 336.811504 197.208643 
L 340.305439 195.415297 
L 343.799374 193.581093 
L 347.29331 191.705367 
L 350.787245 189.787459 
L 354.28118 187.826705 
L 357.775116 185.822444 
L 361.269051 183.774014 
L 364.762986 181.680753 
L 368.256922 179.541998 
L 371.750857 177.357087 
L 375.244792 175.125359 
L 378.738728 172.846151 
L 382.232663 170.518801 
L 385.726598 168.142648 
L 389.220534 165.717028 
L 392.714469 163.24128 
L 396.208404 160.714742 
L 399.70234 158.136752 
L 403.196275 155.506648 
L 406.69021 152.823767 
L 410.184146 150.087447 
L 413.678081 147.297027 
L 417.172016 144.451844 
L 420.665952 141.551236 
L 424.159887 138.594541 
L 427.653822 135.581098 
L 431.147758 132.510243 
L 434.641693 129.381315 
" clip-path="url(#p8bdd013174)" style="fill: none; stroke: #ff7f0e; stroke-opacity: 0.7; stroke-width: 4; stroke-linecap: square"/>
   </g>
   <g id="line2d_13">
    <path d="M 88.742095 281.521231 
L 100.259407 281.456403 
L 113.133372 281.335107 
L 150.737163 280.223091 
L 205.197382 269.092697 
L 231.024161 251.131787 
L 232.744833 249.497457 
L 235.38961 246.886579 
L 274.918168 202.915585 
L 304.158854 182.151332 
L 308.787282 180.200618 
L 329.083982 174.600815 
L 353.27621 171.734762 
L 358.13818 171.42637 
L 362.731531 171.18654 
L 376.65291 170.684959 
L 378.500211 170.637663 
L 390.247662 170.40904 
L 416.107313 170.171313 
L 434.641693 170.105892 
" clip-path="url(#p8bdd013174)" style="fill: none; stroke-dasharray: 14.8,6.4; stroke-dashoffset: 0; stroke: #000000; stroke-width: 4"/>
    <defs>
     <path id="m3905e213cc" d="M 0 3 
C 0.795609 3 1.55874 2.683901 2.12132 2.12132 
C 2.683901 1.55874 3 0.795609 3 0 
C 3 -0.795609 2.683901 -1.55874 2.12132 -2.12132 
C 1.55874 -2.683901 0.795609 -3 0 -3 
C -0.795609 -3 -1.55874 -2.683901 -2.12132 -2.12132 
C -2.683901 -1.55874 -3 -0.795609 -3 0 
C -3 0.795609 -2.683901 1.55874 -2.12132 2.12132 
C -1.55874 2.683901 -0.795609 3 0 3 
z
" style="stroke: #000000"/>
    </defs>
    <g clip-path="url(#p8bdd013174)">
     <use xlink:href="#m3905e213cc" x="88.742095" y="281.521231" style="stroke: #000000"/>
     <use xlink:href="#m3905e213cc" x="100.259407" y="281.456403" style="stroke: #000000"/>
     <use xlink:href="#m3905e213cc" x="113.133372" y="281.335107" style="stroke: #000000"/>
     <use xlink:href="#m3905e213cc" x="150.737163" y="280.223091" style="stroke: #000000"/>
     <use xlink:href="#m3905e213cc" x="205.197382" y="269.092697" style="stroke: #000000"/>
     <use xlink:href="#m3905e213cc" x="231.024161" y="251.131787" style="stroke: #000000"/>
     <use xlink:href="#m3905e213cc" x="232.744833" y="249.497457" style="stroke: #000000"/>
     <use xlink:href="#m3905e213cc" x="235.38961" y="246.886579" style="stroke: #000000"/>
     <use xlink:href="#m3905e213cc" x="274.918168" y="202.915585" style="stroke: #000000"/>
     <use xlink:href="#m3905e213cc" x="304.158854" y="182.151332" style="stroke: #000000"/>
     <use xlink:href="#m3905e213cc" x="308.787282" y="180.200618" style="stroke: #000000"/>
     <use xlink:href="#m3905e213cc" x="329.083982" y="174.600815" style="stroke: #000000"/>
     <use xlink:href="#m3905e213cc" x="353.27621" y="171.734762" style="stroke: #000000"/>
     <use xlink:href="#m3905e213cc" x="358.13818" y="171.42637" style="stroke: #000000"/>
     <use xlink:href="#m3905e213cc" x="362.731531" y="171.18654" style="stroke: #000000"/>
     <use xlink:href="#m3905e213cc" x="376.65291" y="170.684959" style="stroke: #000000"/>
     <use xlink:href="#m3905e213cc" x="378.500211" y="170.637663" style="stroke: #000000"/>
     <use xlink:href="#m3905e213cc" x="390.247662" y="170.40904" style="stroke: #000000"/>
     <use xlink:href="#m3905e213cc" x="416.107313" y="170.171313" style="stroke: #000000"/>
     <use xlink:href="#m3905e213cc" x="434.641693" y="170.105892" style="stroke: #000000"/>
    </g>
   </g>
   <g id="line2d_14">
    <defs>
     <path id="mb257e64bd3" d="M 0 3 
C 0.795609 3 1.55874 2.683901 2.12132 2.12132 
C 2.683901 1.55874 3 0.795609 3 0 
C 3 -0.795609 2.683901 -1.55874 2.12132 -2.12132 
C 1.55874 -2.683901 0.795609 -3 0 -3 
C -0.795609 -3 -1.55874 -2.683901 -2.12132 -2.12132 
C -2.683901 -1.55874 -3 -0.795609 -3 0 
C -3 0.795609 -2.683901 1.55874 -2.12132 2.12132 
C -1.55874 2.683901 -0.795609 3 0 3 
z
" style="stroke: #ff7f0e"/>
    </defs>
    <g clip-path="url(#p8bdd013174)">
     <use xlink:href="#mb257e64bd3" x="88.742095" y="260.766315" style="fill: #ff7f0e; stroke: #ff7f0e"/>
     <use xlink:href="#mb257e64bd3" x="100.259407" y="258.654588" style="fill: #ff7f0e; stroke: #ff7f0e"/>
     <use xlink:href="#mb257e64bd3" x="113.133372" y="258.526693" style="fill: #ff7f0e; stroke: #ff7f0e"/>
     <use xlink:href="#mb257e64bd3" x="150.737163" y="251.513715" style="fill: #ff7f0e; stroke: #ff7f0e"/>
     <use xlink:href="#mb257e64bd3" x="205.197382" y="242.556945" style="fill: #ff7f0e; stroke: #ff7f0e"/>
     <use xlink:href="#mb257e64bd3" x="231.024161" y="236.882508" style="fill: #ff7f0e; stroke: #ff7f0e"/>
     <use xlink:href="#mb257e64bd3" x="232.744833" y="234.008789" style="fill: #ff7f0e; stroke: #ff7f0e"/>
     <use xlink:href="#mb257e64bd3" x="235.38961" y="233.719337" style="fill: #ff7f0e; stroke: #ff7f0e"/>
     <use xlink:href="#mb257e64bd3" x="274.918168" y="219.690381" style="fill: #ff7f0e; stroke: #ff7f0e"/>
     <use xlink:href="#mb257e64bd3" x="304.158854" y="212.50816" style="fill: #ff7f0e; stroke: #ff7f0e"/>
     <use xlink:href="#mb257e64bd3" x="308.787282" y="213.021673" style="fill: #ff7f0e; stroke: #ff7f0e"/>
     <use xlink:href="#mb257e64bd3" x="329.083982" y="198.77696" style="fill: #ff7f0e; stroke: #ff7f0e"/>
     <use xlink:href="#mb257e64bd3" x="353.27621" y="190.04291" style="fill: #ff7f0e; stroke: #ff7f0e"/>
     <use xlink:href="#mb257e64bd3" x="358.13818" y="188.040673" style="fill: #ff7f0e; stroke: #ff7f0e"/>
     <use xlink:href="#mb257e64bd3" x="362.731531" y="185.410932" style="fill: #ff7f0e; stroke: #ff7f0e"/>
     <use xlink:href="#mb257e64bd3" x="376.65291" y="170.58295" style="fill: #ff7f0e; stroke: #ff7f0e"/>
     <use xlink:href="#mb257e64bd3" x="378.500211" y="169.236197" style="fill: #ff7f0e; stroke: #ff7f0e"/>
     <use xlink:href="#mb257e64bd3" x="390.247662" y="161.095312" style="fill: #ff7f0e; stroke: #ff7f0e"/>
     <use xlink:href="#mb257e64bd3" x="416.107313" y="157.725542" style="fill: #ff7f0e; stroke: #ff7f0e"/>
     <use xlink:href="#mb257e64bd3" x="434.641693" y="123.060205" style="fill: #ff7f0e; stroke: #ff7f0e"/>
    </g>
   </g>
   <g id="patch_3">
    <path d="M 71.447115 294.784135 
L 71.447115 3.00024 
" style="fill: none; stroke: #000000; stroke-width: 0.8; stroke-linejoin: miter; stroke-linecap: square"/>
   </g>
   <g id="patch_4">
    <path d="M 451.936673 294.784135 
L 451.936673 3.00024 
" style="fill: none; stroke: #000000; stroke-width: 0.8; stroke-linejoin: miter; stroke-linecap: square"/>
   </g>
   <g id="patch_5">
    <path d="M 71.447115 294.784135 
L 451.936673 294.784135 
" style="fill: none; stroke: #000000; stroke-width: 0.8; stroke-linejoin: miter; stroke-linecap: square"/>
   </g>
   <g id="patch_6">
    <path d="M 71.447115 3.00024 
L 451.936673 3.00024 
" style="fill: none; stroke: #000000; stroke-width: 0.8; stroke-linejoin: miter; stroke-linecap: square"/>
   </g>
  </g>
 </g>
 <defs>
  <clipPath id="p8bdd013174">
   <rect x="71.447115" y="3.00024" width="380.489558" height="291.783895"/>
  </clipPath>
 </defs>
</svg>
