<?xml version="1.0" encoding="utf-8" standalone="no"?>
<!DOCTYPE svg PUBLIC "-//W3C//DTD SVG 1.1//EN"
  "http://www.w3.org/Graphics/SVG/1.1/DTD/svg11.dtd">
<svg xmlns:xlink="http://www.w3.org/1999/xlink" width="460.8pt" height="345.6pt" viewBox="0 0 460.8 345.6" xmlns="http://www.w3.org/2000/svg" version="1.1">
 <metadata>
  <rdf:RDF xmlns:dc="http://purl.org/dc/elements/1.1/" xmlns:cc="http://creativecommons.org/ns#" xmlns:rdf="http://www.w3.org/1999/02/22-rdf-syntax-ns#">
   <cc:Work>
    <dc:type rdf:resource="http://purl.org/dc/dcmitype/StillImage"/>
    <dc:date>2025-12-05T23:32:42.517211</dc:date>
    <dc:format>image/svg+xml</dc:format>
    <dc:creator>
     <cc:Agent>
      <dc:title>Matplotlib v3.10.7, https://matplotlib.org/</dc:title>
     </cc:Agent>
    </dc:creator>
   </cc:Work>
  </rdf:RDF>
 </metadata>
 <defs>
  <style type="text/css">*{stroke-linejoin: round; stroke-linecap: butt}</style>
 </defs>
 <g id="figure_1">
  <g id="patch_1">
   <path d="M 0 345.6 
L 460.8 345.6 
L 460.8 0 
L 0 0 
z
" style="fill: #ffffff"/>
  </g>
  <g id="axes_1">
   <g id="patch_2">
    <path d="M 71.447115 294.784135 
L 451.936673 294.784135 
L 451.936673 3.00024 
L 71.447115 3.00024 
z
" style="fill: #ffffff"/>
   </g>
   <g id="matplotlib.axis_1">
    <g id="xtick_1">
     <g id="line2d_1">
      <defs>
       <path id="md042bab532" d="M 0 0 
L 0 3.5 
" style="stroke: #000000; stroke-width: 0.8"/>
      </defs>
      <g>
       <use xlink:href="#md042bab532" x="159.371812" y="294.784135" style="stroke: #000000; stroke-width: 0.8"/>
      </g>
     </g>
     <g id="text_1">
      <!-- −0.5 -->
      <g transform="translate(139.631187 316.09976) scale(0.2 -0.2)">
       <defs>
        <path id="ArialMT-2212" d="M 3381 1997 
L 356 1997 
L 356 2522 
L 3381 2522 
L 3381 1997 
z
" transform="scale(0.015625)"/>
        <path id="ArialMT-30" d="M 266 2259 
Q 266 3072 433 3567 
Q 600 4063 929 4331 
Q 1259 4600 1759 4600 
Q 2128 4600 2406 4451 
Q 2684 4303 2865 4023 
Q 3047 3744 3150 3342 
Q 3253 2941 3253 2259 
Q 3253 1453 3087 958 
Q 2922 463 2592 192 
Q 2263 -78 1759 -78 
Q 1097 -78 719 397 
Q 266 969 266 2259 
z
M 844 2259 
Q 844 1131 1108 757 
Q 1372 384 1759 384 
Q 2147 384 2411 759 
Q 2675 1134 2675 2259 
Q 2675 3391 2411 3762 
Q 2147 4134 1753 4134 
Q 1366 4134 1134 3806 
Q 844 3388 844 2259 
z
" transform="scale(0.015625)"/>
        <path id="ArialMT-2e" d="M 581 0 
L 581 641 
L 1222 641 
L 1222 0 
L 581 0 
z
" transform="scale(0.015625)"/>
        <path id="ArialMT-35" d="M 266 1200 
L 856 1250 
Q 922 819 1161 601 
Q 1400 384 1738 384 
Q 2144 384 2425 690 
Q 2706 997 2706 1503 
Q 2706 1984 2436 2262 
Q 2166 2541 1728 2541 
Q 1456 2541 1237 2417 
Q 1019 2294 894 2097 
L 366 2166 
L 809 4519 
L 3088 4519 
L 3088 3981 
L 1259 3981 
L 1013 2750 
Q 1425 3038 1878 3038 
Q 2478 3038 2890 2622 
Q 3303 2206 3303 1553 
Q 3303 931 2941 478 
Q 2500 -78 1738 -78 
Q 1113 -78 717 272 
Q 322 622 266 1200 
z
" transform="scale(0.015625)"/>
       </defs>
       <use xlink:href="#ArialMT-2212"/>
       <use xlink:href="#ArialMT-30" transform="translate(58.398438 0)"/>
       <use xlink:href="#ArialMT-2e" transform="translate(114.013672 0)"/>
       <use xlink:href="#ArialMT-35" transform="translate(141.796875 0)"/>
      </g>
     </g>
    </g>
    <g id="xtick_2">
     <g id="line2d_2">
      <g>
       <use xlink:href="#md042bab532" x="254.211049" y="294.784135" style="stroke: #000000; stroke-width: 0.8"/>
      </g>
     </g>
     <g id="text_2">
      <!-- 0.0 -->
      <g transform="translate(240.311049 316.09976) scale(0.2 -0.2)">
       <use xlink:href="#ArialMT-30"/>
       <use xlink:href="#ArialMT-2e" transform="translate(55.615234 0)"/>
       <use xlink:href="#ArialMT-30" transform="translate(83.398438 0)"/>
      </g>
     </g>
    </g>
    <g id="xtick_3">
     <g id="line2d_3">
      <g>
       <use xlink:href="#md042bab532" x="349.050286" y="294.784135" style="stroke: #000000; stroke-width: 0.8"/>
      </g>
     </g>
     <g id="text_3">
      <!-- 0.5 -->
      <g transform="translate(335.150286 316.09976) scale(0.2 -0.2)">
       <use xlink:href="#ArialMT-30"/>
       <use xlink:href="#ArialMT-2e" transform="translate(55.615234 0)"/>
       <use xlink:href="#ArialMT-35" transform="translate(83.398438 0)"/>
      </g>
     </g>
    </g>
    <g id="xtick_4">
     <g id="line2d_4">
      <g>
       <use xlink:href="#md042bab532" x="443.889523" y="294.784135" style="stroke: #000000; stroke-width: 0.8"/>
      </g>
     </g>
     <g id="text_4">
      <!-- 1.0 -->
      <g transform="translate(429.989523 316.09976) scale(0.2 -0.2)">
       <defs>
        <path id="ArialMT-31" d="M 2384 0 
L 1822 0 
L 1822 3584 
Q 1619 3391 1289 3197 
Q 959 3003 697 2906 
L 697 3450 
Q 1169 3672 1522 3987 
Q 1875 4303 2022 4600 
L 2384 4600 
L 2384 0 
z
" transform="scale(0.015625)"/>
       </defs>
       <use xlink:href="#ArialMT-31"/>
       <use xlink:href="#ArialMT-2e" transform="translate(55.615234 0)"/>
       <use xlink:href="#ArialMT-30" transform="translate(83.398438 0)"/>
      </g>
     </g>
    </g>
    <g id="text_5">
     <!-- Migration predictor -->
     <g transform="translate(178.885644 338.390385) scale(0.2 -0.2)">
      <defs>
       <path id="ArialMT-4d" d="M 475 0 
L 475 4581 
L 1388 4581 
L 2472 1338 
Q 2622 884 2691 659 
Q 2769 909 2934 1394 
L 4031 4581 
L 4847 4581 
L 4847 0 
L 4263 0 
L 4263 3834 
L 2931 0 
L 2384 0 
L 1059 3900 
L 1059 0 
L 475 0 
z
" transform="scale(0.015625)"/>
       <path id="ArialMT-69" d="M 425 3934 
L 425 4581 
L 988 4581 
L 988 3934 
L 425 3934 
z
M 425 0 
L 425 3319 
L 988 3319 
L 988 0 
L 425 0 
z
" transform="scale(0.015625)"/>
       <path id="ArialMT-67" d="M 319 -275 
L 866 -356 
Q 900 -609 1056 -725 
Q 1266 -881 1628 -881 
Q 2019 -881 2231 -725 
Q 2444 -569 2519 -288 
Q 2563 -116 2559 434 
Q 2191 0 1641 0 
Q 956 0 581 494 
Q 206 988 206 1678 
Q 206 2153 378 2554 
Q 550 2956 876 3175 
Q 1203 3394 1644 3394 
Q 2231 3394 2613 2919 
L 2613 3319 
L 3131 3319 
L 3131 450 
Q 3131 -325 2973 -648 
Q 2816 -972 2473 -1159 
Q 2131 -1347 1631 -1347 
Q 1038 -1347 672 -1080 
Q 306 -813 319 -275 
z
M 784 1719 
Q 784 1066 1043 766 
Q 1303 466 1694 466 
Q 2081 466 2343 764 
Q 2606 1063 2606 1700 
Q 2606 2309 2336 2618 
Q 2066 2928 1684 2928 
Q 1309 2928 1046 2623 
Q 784 2319 784 1719 
z
" transform="scale(0.015625)"/>
       <path id="ArialMT-72" d="M 416 0 
L 416 3319 
L 922 3319 
L 922 2816 
Q 1116 3169 1280 3281 
Q 1444 3394 1641 3394 
Q 1925 3394 2219 3213 
L 2025 2691 
Q 1819 2813 1613 2813 
Q 1428 2813 1281 2702 
Q 1134 2591 1072 2394 
Q 978 2094 978 1738 
L 978 0 
L 416 0 
z
" transform="scale(0.015625)"/>
       <path id="ArialMT-61" d="M 2588 409 
Q 2275 144 1986 34 
Q 1697 -75 1366 -75 
Q 819 -75 525 192 
Q 231 459 231 875 
Q 231 1119 342 1320 
Q 453 1522 633 1644 
Q 813 1766 1038 1828 
Q 1203 1872 1538 1913 
Q 2219 1994 2541 2106 
Q 2544 2222 2544 2253 
Q 2544 2597 2384 2738 
Q 2169 2928 1744 2928 
Q 1347 2928 1158 2789 
Q 969 2650 878 2297 
L 328 2372 
Q 403 2725 575 2942 
Q 747 3159 1072 3276 
Q 1397 3394 1825 3394 
Q 2250 3394 2515 3294 
Q 2781 3194 2906 3042 
Q 3031 2891 3081 2659 
Q 3109 2516 3109 2141 
L 3109 1391 
Q 3109 606 3145 398 
Q 3181 191 3288 0 
L 2700 0 
Q 2613 175 2588 409 
z
M 2541 1666 
Q 2234 1541 1622 1453 
Q 1275 1403 1131 1340 
Q 988 1278 909 1158 
Q 831 1038 831 891 
Q 831 666 1001 516 
Q 1172 366 1500 366 
Q 1825 366 2078 508 
Q 2331 650 2450 897 
Q 2541 1088 2541 1459 
L 2541 1666 
z
" transform="scale(0.015625)"/>
       <path id="ArialMT-74" d="M 1650 503 
L 1731 6 
Q 1494 -44 1306 -44 
Q 1000 -44 831 53 
Q 663 150 594 308 
Q 525 466 525 972 
L 525 2881 
L 113 2881 
L 113 3319 
L 525 3319 
L 525 4141 
L 1084 4478 
L 1084 3319 
L 1650 3319 
L 1650 2881 
L 1084 2881 
L 1084 941 
Q 1084 700 1114 631 
Q 1144 563 1211 522 
Q 1278 481 1403 481 
Q 1497 481 1650 503 
z
" transform="scale(0.015625)"/>
       <path id="ArialMT-6f" d="M 213 1659 
Q 213 2581 725 3025 
Q 1153 3394 1769 3394 
Q 2453 3394 2887 2945 
Q 3322 2497 3322 1706 
Q 3322 1066 3130 698 
Q 2938 331 2570 128 
Q 2203 -75 1769 -75 
Q 1072 -75 642 372 
Q 213 819 213 1659 
z
M 791 1659 
Q 791 1022 1069 705 
Q 1347 388 1769 388 
Q 2188 388 2466 706 
Q 2744 1025 2744 1678 
Q 2744 2294 2464 2611 
Q 2184 2928 1769 2928 
Q 1347 2928 1069 2612 
Q 791 2297 791 1659 
z
" transform="scale(0.015625)"/>
       <path id="ArialMT-6e" d="M 422 0 
L 422 3319 
L 928 3319 
L 928 2847 
Q 1294 3394 1984 3394 
Q 2284 3394 2536 3286 
Q 2788 3178 2913 3003 
Q 3038 2828 3088 2588 
Q 3119 2431 3119 2041 
L 3119 0 
L 2556 0 
L 2556 2019 
Q 2556 2363 2490 2533 
Q 2425 2703 2258 2804 
Q 2091 2906 1866 2906 
Q 1506 2906 1245 2678 
Q 984 2450 984 1813 
L 984 0 
L 422 0 
z
" transform="scale(0.015625)"/>
       <path id="ArialMT-20" transform="scale(0.015625)"/>
       <path id="ArialMT-70" d="M 422 -1272 
L 422 3319 
L 934 3319 
L 934 2888 
Q 1116 3141 1344 3267 
Q 1572 3394 1897 3394 
Q 2322 3394 2647 3175 
Q 2972 2956 3137 2557 
Q 3303 2159 3303 1684 
Q 3303 1175 3120 767 
Q 2938 359 2589 142 
Q 2241 -75 1856 -75 
Q 1575 -75 1351 44 
Q 1128 163 984 344 
L 984 -1272 
L 422 -1272 
z
M 931 1641 
Q 931 1000 1190 694 
Q 1450 388 1819 388 
Q 2194 388 2461 705 
Q 2728 1022 2728 1688 
Q 2728 2322 2467 2637 
Q 2206 2953 1844 2953 
Q 1484 2953 1207 2617 
Q 931 2281 931 1641 
z
" transform="scale(0.015625)"/>
       <path id="ArialMT-65" d="M 2694 1069 
L 3275 997 
Q 3138 488 2766 206 
Q 2394 -75 1816 -75 
Q 1088 -75 661 373 
Q 234 822 234 1631 
Q 234 2469 665 2931 
Q 1097 3394 1784 3394 
Q 2450 3394 2872 2941 
Q 3294 2488 3294 1666 
Q 3294 1616 3291 1516 
L 816 1516 
Q 847 969 1125 678 
Q 1403 388 1819 388 
Q 2128 388 2347 550 
Q 2566 713 2694 1069 
z
M 847 1978 
L 2700 1978 
Q 2663 2397 2488 2606 
Q 2219 2931 1791 2931 
Q 1403 2931 1139 2672 
Q 875 2413 847 1978 
z
" transform="scale(0.015625)"/>
       <path id="ArialMT-64" d="M 2575 0 
L 2575 419 
Q 2259 -75 1647 -75 
Q 1250 -75 917 144 
Q 584 363 401 755 
Q 219 1147 219 1656 
Q 219 2153 384 2558 
Q 550 2963 881 3178 
Q 1213 3394 1622 3394 
Q 1922 3394 2156 3267 
Q 2391 3141 2538 2938 
L 2538 4581 
L 3097 4581 
L 3097 0 
L 2575 0 
z
M 797 1656 
Q 797 1019 1065 703 
Q 1334 388 1700 388 
Q 2069 388 2326 689 
Q 2584 991 2584 1609 
Q 2584 2291 2321 2609 
Q 2059 2928 1675 2928 
Q 1300 2928 1048 2622 
Q 797 2316 797 1656 
z
" transform="scale(0.015625)"/>
       <path id="ArialMT-63" d="M 2588 1216 
L 3141 1144 
Q 3050 572 2676 248 
Q 2303 -75 1759 -75 
Q 1078 -75 664 370 
Q 250 816 250 1647 
Q 250 2184 428 2587 
Q 606 2991 970 3192 
Q 1334 3394 1763 3394 
Q 2303 3394 2647 3120 
Q 2991 2847 3088 2344 
L 2541 2259 
Q 2463 2594 2264 2762 
Q 2066 2931 1784 2931 
Q 1359 2931 1093 2626 
Q 828 2322 828 1663 
Q 828 994 1084 691 
Q 1341 388 1753 388 
Q 2084 388 2306 591 
Q 2528 794 2588 1216 
z
" transform="scale(0.015625)"/>
      </defs>
      <use xlink:href="#ArialMT-4d"/>
      <use xlink:href="#ArialMT-69" transform="translate(83.300781 0)"/>
      <use xlink:href="#ArialMT-67" transform="translate(105.517578 0)"/>
      <use xlink:href="#ArialMT-72" transform="translate(161.132812 0)"/>
      <use xlink:href="#ArialMT-61" transform="translate(194.433594 0)"/>
      <use xlink:href="#ArialMT-74" transform="translate(250.048828 0)"/>
      <use xlink:href="#ArialMT-69" transform="translate(277.832031 0)"/>
      <use xlink:href="#ArialMT-6f" transform="translate(300.048828 0)"/>
      <use xlink:href="#ArialMT-6e" transform="translate(355.664062 0)"/>
      <use xlink:href="#ArialMT-20" transform="translate(411.279297 0)"/>
      <use xlink:href="#ArialMT-70" transform="translate(439.0625 0)"/>
      <use xlink:href="#ArialMT-72" transform="translate(494.677734 0)"/>
      <use xlink:href="#ArialMT-65" transform="translate(527.978516 0)"/>
      <use xlink:href="#ArialMT-64" transform="translate(583.59375 0)"/>
      <use xlink:href="#ArialMT-69" transform="translate(639.208984 0)"/>
      <use xlink:href="#ArialMT-63" transform="translate(661.425781 0)"/>
      <use xlink:href="#ArialMT-74" transform="translate(711.425781 0)"/>
      <use xlink:href="#ArialMT-6f" transform="translate(739.208984 0)"/>
      <use xlink:href="#ArialMT-72" transform="translate(794.824219 0)"/>
     </g>
    </g>
   </g>
   <g id="matplotlib.axis_2">
    <g id="ytick_1">
     <g id="line2d_5">
      <defs>
       <path id="m4ba215c252" d="M 0 0 
L -3.5 0 
" style="stroke: #000000; stroke-width: 0.8"/>
      </defs>
      <g>
       <use xlink:href="#m4ba215c252" x="71.447115" y="281.527827" style="stroke: #000000; stroke-width: 0.8"/>
      </g>
     </g>
     <g id="text_6">
      <!-- 0.00 -->
      <g transform="translate(25.52524 288.685639) scale(0.2 -0.2)">
       <use xlink:href="#ArialMT-30"/>
       <use xlink:href="#ArialMT-2e" transform="translate(55.615234 0)"/>
       <use xlink:href="#ArialMT-30" transform="translate(83.398438 0)"/>
       <use xlink:href="#ArialMT-30" transform="translate(139.013672 0)"/>
      </g>
     </g>
    </g>
    <g id="ytick_2">
     <g id="line2d_6">
      <g>
       <use xlink:href="#m4ba215c252" x="71.447115" y="215.202826" style="stroke: #000000; stroke-width: 0.8"/>
      </g>
     </g>
     <g id="text_7">
      <!-- 0.05 -->
      <g transform="translate(25.52524 222.360638) scale(0.2 -0.2)">
       <use xlink:href="#ArialMT-30"/>
       <use xlink:href="#ArialMT-2e" transform="translate(55.615234 0)"/>
       <use xlink:href="#ArialMT-30" transform="translate(83.398438 0)"/>
       <use xlink:href="#ArialMT-35" transform="translate(139.013672 0)"/>
      </g>
     </g>
    </g>
    <g id="ytick_3">
     <g id="line2d_7">
      <g>
       <use xlink:href="#m4ba215c252" x="71.447115" y="148.877825" style="stroke: #000000; stroke-width: 0.8"/>
      </g>
     </g>
     <g id="text_8">
      <!-- 0.10 -->
      <g transform="translate(25.52524 156.035637) scale(0.2 -0.2)">
       <use xlink:href="#ArialMT-30"/>
       <use xlink:href="#ArialMT-2e" transform="translate(55.615234 0)"/>
       <use xlink:href="#ArialMT-31" transform="translate(83.398438 0)"/>
       <use xlink:href="#ArialMT-30" transform="translate(139.013672 0)"/>
      </g>
     </g>
    </g>
    <g id="ytick_4">
     <g id="line2d_8">
      <g>
       <use xlink:href="#m4ba215c252" x="71.447115" y="82.552824" style="stroke: #000000; stroke-width: 0.8"/>
      </g>
     </g>
     <g id="text_9">
      <!-- 0.15 -->
      <g transform="translate(25.52524 89.710636) scale(0.2 -0.2)">
       <use xlink:href="#ArialMT-30"/>
       <use xlink:href="#ArialMT-2e" transform="translate(55.615234 0)"/>
       <use xlink:href="#ArialMT-31" transform="translate(83.398438 0)"/>
       <use xlink:href="#ArialMT-35" transform="translate(139.013672 0)"/>
      </g>
     </g>
    </g>
    <g id="ytick_5">
     <g id="line2d_9">
      <g>
       <use xlink:href="#m4ba215c252" x="71.447115" y="16.227823" style="stroke: #000000; stroke-width: 0.8"/>
      </g>
     </g>
     <g id="text_10">
      <!-- 0.20 -->
      <g transform="translate(25.52524 23.385635) scale(0.2 -0.2)">
       <defs>
        <path id="ArialMT-32" d="M 3222 541 
L 3222 0 
L 194 0 
Q 188 203 259 391 
Q 375 700 629 1000 
Q 884 1300 1366 1694 
Q 2113 2306 2375 2664 
Q 2638 3022 2638 3341 
Q 2638 3675 2398 3904 
Q 2159 4134 1775 4134 
Q 1369 4134 1125 3890 
Q 881 3647 878 3216 
L 300 3275 
Q 359 3922 746 4261 
Q 1134 4600 1788 4600 
Q 2447 4600 2831 4234 
Q 3216 3869 3216 3328 
Q 3216 3053 3103 2787 
Q 2991 2522 2730 2228 
Q 2469 1934 1863 1422 
Q 1356 997 1212 845 
Q 1069 694 975 541 
L 3222 541 
z
" transform="scale(0.015625)"/>
       </defs>
       <use xlink:href="#ArialMT-30"/>
       <use xlink:href="#ArialMT-2e" transform="translate(55.615234 0)"/>
       <use xlink:href="#ArialMT-32" transform="translate(83.398438 0)"/>
       <use xlink:href="#ArialMT-30" transform="translate(139.013672 0)"/>
      </g>
     </g>
    </g>
    <g id="text_11">
     <!-- Migration rate -->
     <g transform="translate(17.315865 210.025) rotate(-90) scale(0.2 -0.2)">
      <use xlink:href="#ArialMT-4d"/>
      <use xlink:href="#ArialMT-69" transform="translate(83.300781 0)"/>
      <use xlink:href="#ArialMT-67" transform="translate(105.517578 0)"/>
      <use xlink:href="#ArialMT-72" transform="translate(161.132812 0)"/>
      <use xlink:href="#ArialMT-61" transform="translate(194.433594 0)"/>
      <use xlink:href="#ArialMT-74" transform="translate(250.048828 0)"/>
      <use xlink:href="#ArialMT-69" transform="translate(277.832031 0)"/>
      <use xlink:href="#ArialMT-6f" transform="translate(300.048828 0)"/>
      <use xlink:href="#ArialMT-6e" transform="translate(355.664062 0)"/>
      <use xlink:href="#ArialMT-20" transform="translate(411.279297 0)"/>
      <use xlink:href="#ArialMT-72" transform="translate(439.0625 0)"/>
      <use xlink:href="#ArialMT-61" transform="translate(472.363281 0)"/>
      <use xlink:href="#ArialMT-74" transform="translate(527.978516 0)"/>
      <use xlink:href="#ArialMT-65" transform="translate(555.761719 0)"/>
     </g>
    </g>
   </g>
   <g id="LineCollection_1">
    <path d="M 88.742095 281.516878 
L 88.742095 87.652648 
" clip-path="url(#pdea540a91d)" style="fill: none; stroke: #1f77b4; stroke-width: 2"/>
    <path d="M 100.259407 281.407055 
L 100.259407 34.410985 
" clip-path="url(#pdea540a91d)" style="fill: none; stroke: #1f77b4; stroke-width: 2"/>
    <path d="M 113.133372 281.521215 
L 113.133372 142.662398 
" clip-path="url(#pdea540a91d)" style="fill: none; stroke: #1f77b4; stroke-width: 2"/>
    <path d="M 150.737163 281.493483 
L 150.737163 41.936749 
" clip-path="url(#pdea540a91d)" style="fill: none; stroke: #1f77b4; stroke-width: 2"/>
    <path d="M 205.197382 281.518159 
L 205.197382 61.436715 
" clip-path="url(#pdea540a91d)" style="fill: none; stroke: #1f77b4; stroke-width: 2"/>
    <path d="M 231.024161 256.773747 
L 231.024161 16.263144 
" clip-path="url(#pdea540a91d)" style="fill: none; stroke: #1f77b4; stroke-width: 2"/>
    <path d="M 232.744833 281.484127 
L 232.744833 38.474898 
" clip-path="url(#pdea540a91d)" style="fill: none; stroke: #1f77b4; stroke-width: 2"/>
    <path d="M 235.38961 281.521231 
L 235.38961 113.402168 
" clip-path="url(#pdea540a91d)" style="fill: none; stroke: #1f77b4; stroke-width: 2"/>
    <path d="M 274.918168 281.518065 
L 274.918168 105.325742 
" clip-path="url(#pdea540a91d)" style="fill: none; stroke: #1f77b4; stroke-width: 2"/>
    <path d="M 304.158854 281.458477 
L 304.158854 38.885338 
" clip-path="url(#pdea540a91d)" style="fill: none; stroke: #1f77b4; stroke-width: 2"/>
    <path d="M 308.787282 281.519613 
L 308.787282 92.732973 
" clip-path="url(#pdea540a91d)" style="fill: none; stroke: #1f77b4; stroke-width: 2"/>
    <path d="M 329.083982 258.666961 
L 329.083982 16.267826 
" clip-path="url(#pdea540a91d)" style="fill: none; stroke: #1f77b4; stroke-width: 2"/>
    <path d="M 353.27621 258.755914 
L 353.27621 16.272202 
" clip-path="url(#pdea540a91d)" style="fill: none; stroke: #1f77b4; stroke-width: 2"/>
    <path d="M 358.13818 260.937262 
L 358.13818 16.304086 
" clip-path="url(#pdea540a91d)" style="fill: none; stroke: #1f77b4; stroke-width: 2"/>
    <path d="M 362.731531 263.645989 
L 362.731531 16.30974 
" clip-path="url(#pdea540a91d)" style="fill: none; stroke: #1f77b4; stroke-width: 2"/>
    <path d="M 376.65291 281.513383 
L 376.65291 65.281303 
" clip-path="url(#pdea540a91d)" style="fill: none; stroke: #1f77b4; stroke-width: 2"/>
    <path d="M 378.500211 281.365673 
L 378.500211 36.127864 
" clip-path="url(#pdea540a91d)" style="fill: none; stroke: #1f77b4; stroke-width: 2"/>
    <path d="M 390.247662 255.727211 
L 390.247662 16.266033 
" clip-path="url(#pdea540a91d)" style="fill: none; stroke: #1f77b4; stroke-width: 2"/>
    <path d="M 416.107313 281.495927 
L 416.107313 56.372761 
" clip-path="url(#pdea540a91d)" style="fill: none; stroke: #1f77b4; stroke-width: 2"/>
    <path d="M 434.641693 260.735755 
L 434.641693 16.321957 
" clip-path="url(#pdea540a91d)" style="fill: none; stroke: #1f77b4; stroke-width: 2"/>
   </g>
   <g id="line2d_10">
    <defs>
     <path id="m27e80aaa0d" d="M 5 0 
L -5 -0 
" style="stroke: #1f77b4"/>
    </defs>
    <g clip-path="url(#pdea540a91d)">
     <use xlink:href="#m27e80aaa0d" x="88.742095" y="281.516878" style="fill: #1f77b4; stroke: #1f77b4"/>
     <use xlink:href="#m27e80aaa0d" x="100.259407" y="281.407055" style="fill: #1f77b4; stroke: #1f77b4"/>
     <use xlink:href="#m27e80aaa0d" x="113.133372" y="281.521215" style="fill: #1f77b4; stroke: #1f77b4"/>
     <use xlink:href="#m27e80aaa0d" x="150.737163" y="281.493483" style="fill: #1f77b4; stroke: #1f77b4"/>
     <use xlink:href="#m27e80aaa0d" x="205.197382" y="281.518159" style="fill: #1f77b4; stroke: #1f77b4"/>
     <use xlink:href="#m27e80aaa0d" x="231.024161" y="256.773747" style="fill: #1f77b4; stroke: #1f77b4"/>
     <use xlink:href="#m27e80aaa0d" x="232.744833" y="281.484127" style="fill: #1f77b4; stroke: #1f77b4"/>
     <use xlink:href="#m27e80aaa0d" x="235.38961" y="281.521231" style="fill: #1f77b4; stroke: #1f77b4"/>
     <use xlink:href="#m27e80aaa0d" x="274.918168" y="281.518065" style="fill: #1f77b4; stroke: #1f77b4"/>
     <use xlink:href="#m27e80aaa0d" x="304.158854" y="281.458477" style="fill: #1f77b4; stroke: #1f77b4"/>
     <use xlink:href="#m27e80aaa0d" x="308.787282" y="281.519613" style="fill: #1f77b4; stroke: #1f77b4"/>
     <use xlink:href="#m27e80aaa0d" x="329.083982" y="258.666961" style="fill: #1f77b4; stroke: #1f77b4"/>
     <use xlink:href="#m27e80aaa0d" x="353.27621" y="258.755914" style="fill: #1f77b4; stroke: #1f77b4"/>
     <use xlink:href="#m27e80aaa0d" x="358.13818" y="260.937262" style="fill: #1f77b4; stroke: #1f77b4"/>
     <use xlink:href="#m27e80aaa0d" x="362.731531" y="263.645989" style="fill: #1f77b4; stroke: #1f77b4"/>
     <use xlink:href="#m27e80aaa0d" x="376.65291" y="281.513383" style="fill: #1f77b4; stroke: #1f77b4"/>
     <use xlink:href="#m27e80aaa0d" x="378.500211" y="281.365673" style="fill: #1f77b4; stroke: #1f77b4"/>
     <use xlink:href="#m27e80aaa0d" x="390.247662" y="255.727211" style="fill: #1f77b4; stroke: #1f77b4"/>
     <use xlink:href="#m27e80aaa0d" x="416.107313" y="281.495927" style="fill: #1f77b4; stroke: #1f77b4"/>
     <use xlink:href="#m27e80aaa0d" x="434.641693" y="260.735755" style="fill: #1f77b4; stroke: #1f77b4"/>
    </g>
   </g>
   <g id="line2d_11">
    <g clip-path="url(#pdea540a91d)">
     <use xlink:href="#m27e80aaa0d" x="88.742095" y="87.652648" style="fill: #1f77b4; stroke: #1f77b4"/>
     <use xlink:href="#m27e80aaa0d" x="100.259407" y="34.410985" style="fill: #1f77b4; stroke: #1f77b4"/>
     <use xlink:href="#m27e80aaa0d" x="113.133372" y="142.662398" style="fill: #1f77b4; stroke: #1f77b4"/>
     <use xlink:href="#m27e80aaa0d" x="150.737163" y="41.936749" style="fill: #1f77b4; stroke: #1f77b4"/>
     <use xlink:href="#m27e80aaa0d" x="205.197382" y="61.436715" style="fill: #1f77b4; stroke: #1f77b4"/>
     <use xlink:href="#m27e80aaa0d" x="231.024161" y="16.263144" style="fill: #1f77b4; stroke: #1f77b4"/>
     <use xlink:href="#m27e80aaa0d" x="232.744833" y="38.474898" style="fill: #1f77b4; stroke: #1f77b4"/>
     <use xlink:href="#m27e80aaa0d" x="235.38961" y="113.402168" style="fill: #1f77b4; stroke: #1f77b4"/>
     <use xlink:href="#m27e80aaa0d" x="274.918168" y="105.325742" style="fill: #1f77b4; stroke: #1f77b4"/>
     <use xlink:href="#m27e80aaa0d" x="304.158854" y="38.885338" style="fill: #1f77b4; stroke: #1f77b4"/>
     <use xlink:href="#m27e80aaa0d" x="308.787282" y="92.732973" style="fill: #1f77b4; stroke: #1f77b4"/>
     <use xlink:href="#m27e80aaa0d" x="329.083982" y="16.267826" style="fill: #1f77b4; stroke: #1f77b4"/>
     <use xlink:href="#m27e80aaa0d" x="353.27621" y="16.272202" style="fill: #1f77b4; stroke: #1f77b4"/>
     <use xlink:href="#m27e80aaa0d" x="358.13818" y="16.304086" style="fill: #1f77b4; stroke: #1f77b4"/>
     <use xlink:href="#m27e80aaa0d" x="362.731531" y="16.30974" style="fill: #1f77b4; stroke: #1f77b4"/>
     <use xlink:href="#m27e80aaa0d" x="376.65291" y="65.281303" style="fill: #1f77b4; stroke: #1f77b4"/>
     <use xlink:href="#m27e80aaa0d" x="378.500211" y="36.127864" style="fill: #1f77b4; stroke: #1f77b4"/>
     <use xlink:href="#m27e80aaa0d" x="390.247662" y="16.266033" style="fill: #1f77b4; stroke: #1f77b4"/>
     <use xlink:href="#m27e80aaa0d" x="416.107313" y="56.372761" style="fill: #1f77b4; stroke: #1f77b4"/>
     <use xlink:href="#m27e80aaa0d" x="434.641693" y="16.321957" style="fill: #1f77b4; stroke: #1f77b4"/>
    </g>
   </g>
   <g id="line2d_12">
    <path d="M 88.742095 201.277571 
L 92.23603 201.632473 
L 95.729966 201.941446 
L 99.223901 202.205327 
L 102.717836 202.42495 
L 106.211772 202.601151 
L 109.705707 202.734766 
L 113.199642 202.826629 
L 116.693578 202.877576 
L 120.187513 202.888443 
L 123.681448 202.860064 
L 127.175384 202.793275 
L 130.669319 202.688912 
L 134.163254 202.54781 
L 137.65719 202.370803 
L 141.151125 202.158729 
L 144.64506 201.912421 
L 148.138996 201.632715 
L 151.632931 201.320447 
L 155.126866 200.976453 
L 158.620802 200.601566 
L 162.114737 200.196623 
L 165.608672 199.762459 
L 169.102608 199.29991 
L 172.596543 198.80981 
L 176.090478 198.292995 
L 179.584414 197.750301 
L 183.078349 197.182563 
L 186.572284 196.590616 
L 190.06622 195.975296 
L 193.560155 195.337437 
L 197.05409 194.677876 
L 200.548026 193.997447 
L 204.041961 193.296987 
L 207.535896 192.57733 
L 211.029832 191.839311 
L 214.523767 191.083767 
L 218.017702 190.311532 
L 221.511638 189.523442 
L 225.005573 188.720332 
L 228.499508 187.903037 
L 231.993444 187.072394 
L 235.487379 186.229237 
L 238.981314 185.374401 
L 242.47525 184.508722 
L 245.969185 183.633036 
L 249.46312 182.748177 
L 252.957056 181.854982 
L 256.450991 180.954284 
L 259.944926 180.046921 
L 263.438862 179.133727 
L 266.932797 178.215537 
L 270.426732 177.293187 
L 273.920668 176.367512 
L 277.414603 175.439348 
L 280.908538 174.509529 
L 284.402474 173.578892 
L 287.896409 172.648272 
L 291.390344 171.718504 
L 294.88428 170.790423 
L 298.378215 169.864864 
L 301.87215 168.942664 
L 305.366086 168.024657 
L 308.860021 167.111679 
L 312.353956 166.204566 
L 315.847892 165.304151 
L 319.341827 164.411272 
L 322.835762 163.526763 
L 326.329698 162.651459 
L 329.823633 161.786197 
L 333.317568 160.93181 
L 336.811504 160.089136 
L 340.305439 159.259008 
L 343.799374 158.442263 
L 347.29331 157.639736 
L 350.787245 156.852262 
L 354.28118 156.080676 
L 357.775116 155.325814 
L 361.269051 154.588511 
L 364.762986 153.869603 
L 368.256922 153.169925 
L 371.750857 152.490312 
L 375.244792 151.8316 
L 378.738728 151.194623 
L 382.232663 150.580218 
L 385.726598 149.98922 
L 389.220534 149.422464 
L 392.714469 148.880785 
L 396.208404 148.365019 
L 399.70234 147.876001 
L 403.196275 147.414567 
L 406.69021 146.981552 
L 410.184146 146.577791 
L 413.678081 146.204119 
L 417.172016 145.861373 
L 420.665952 145.550386 
L 424.159887 145.271996 
L 427.653822 145.027036 
L 431.147758 144.816343 
L 434.641693 144.640752 
" clip-path="url(#pdea540a91d)" style="fill: none; stroke: #1f77b4; stroke-opacity: 0.7; stroke-width: 4; stroke-linecap: square"/>
   </g>
   <g id="line2d_13">
    <path d="M 88.742095 281.478458 
L 100.259407 281.447629 
L 113.133372 281.389945 
L 150.737163 280.861118 
L 205.197382 275.567981 
L 231.024161 267.026543 
L 232.744833 266.249325 
L 235.38961 265.007704 
L 274.918168 244.096986 
L 304.158854 234.222398 
L 308.787282 233.294722 
L 329.083982 230.631696 
L 353.27621 229.268725 
L 358.13818 229.122067 
L 362.731531 229.008014 
L 376.65291 228.769483 
L 378.500211 228.746992 
L 390.247662 228.638268 
L 416.107313 228.525215 
L 434.641693 228.494104 
" clip-path="url(#pdea540a91d)" style="fill: none; stroke-dasharray: 14.8,6.4; stroke-dashoffset: 0; stroke: #000000; stroke-width: 4"/>
    <defs>
     <path id="m53dfa88af2" d="M 0 3 
C 0.795609 3 1.55874 2.683901 2.12132 2.12132 
C 2.683901 1.55874 3 0.795609 3 0 
C 3 -0.795609 2.683901 -1.55874 2.12132 -2.12132 
C 1.55874 -2.683901 0.795609 -3 0 -3 
C -0.795609 -3 -1.55874 -2.683901 -2.12132 -2.12132 
C -2.683901 -1.55874 -3 -0.795609 -3 0 
C -3 0.795609 -2.683901 1.55874 -2.12132 2.12132 
C -1.55874 2.683901 -0.795609 3 0 3 
z
" style="stroke: #000000"/>
    </defs>
    <g clip-path="url(#pdea540a91d)">
     <use xlink:href="#m53dfa88af2" x="88.742095" y="281.478458" style="stroke: #000000"/>
     <use xlink:href="#m53dfa88af2" x="100.259407" y="281.447629" style="stroke: #000000"/>
     <use xlink:href="#m53dfa88af2" x="113.133372" y="281.389945" style="stroke: #000000"/>
     <use xlink:href="#m53dfa88af2" x="150.737163" y="280.861118" style="stroke: #000000"/>
     <use xlink:href="#m53dfa88af2" x="205.197382" y="275.567981" style="stroke: #000000"/>
     <use xlink:href="#m53dfa88af2" x="231.024161" y="267.026543" style="stroke: #000000"/>
     <use xlink:href="#m53dfa88af2" x="232.744833" y="266.249325" style="stroke: #000000"/>
     <use xlink:href="#m53dfa88af2" x="235.38961" y="265.007704" style="stroke: #000000"/>
     <use xlink:href="#m53dfa88af2" x="274.918168" y="244.096986" style="stroke: #000000"/>
     <use xlink:href="#m53dfa88af2" x="304.158854" y="234.222398" style="stroke: #000000"/>
     <use xlink:href="#m53dfa88af2" x="308.787282" y="233.294722" style="stroke: #000000"/>
     <use xlink:href="#m53dfa88af2" x="329.083982" y="230.631696" style="stroke: #000000"/>
     <use xlink:href="#m53dfa88af2" x="353.27621" y="229.268725" style="stroke: #000000"/>
     <use xlink:href="#m53dfa88af2" x="358.13818" y="229.122067" style="stroke: #000000"/>
     <use xlink:href="#m53dfa88af2" x="362.731531" y="229.008014" style="stroke: #000000"/>
     <use xlink:href="#m53dfa88af2" x="376.65291" y="228.769483" style="stroke: #000000"/>
     <use xlink:href="#m53dfa88af2" x="378.500211" y="228.746992" style="stroke: #000000"/>
     <use xlink:href="#m53dfa88af2" x="390.247662" y="228.638268" style="stroke: #000000"/>
     <use xlink:href="#m53dfa88af2" x="416.107313" y="228.525215" style="stroke: #000000"/>
     <use xlink:href="#m53dfa88af2" x="434.641693" y="228.494104" style="stroke: #000000"/>
    </g>
   </g>
   <g id="line2d_14">
    <defs>
     <path id="md958f39f46" d="M 0 3 
C 0.795609 3 1.55874 2.683901 2.12132 2.12132 
C 2.683901 1.55874 3 0.795609 3 0 
C 3 -0.795609 2.683901 -1.55874 2.12132 -2.12132 
C 1.55874 -2.683901 0.795609 -3 0 -3 
C -0.795609 -3 -1.55874 -2.683901 -2.12132 -2.12132 
C -2.683901 -1.55874 -3 -0.795609 -3 0 
C -3 0.795609 -2.683901 1.55874 -2.12132 2.12132 
C -1.55874 2.683901 -0.795609 3 0 3 
z
" style="stroke: #1f77b4"/>
    </defs>
    <g clip-path="url(#pdea540a91d)">
     <use xlink:href="#md958f39f46" x="88.742095" y="217.489624" style="fill: #1f77b4; stroke: #1f77b4"/>
     <use xlink:href="#md958f39f46" x="100.259407" y="162.29994" style="fill: #1f77b4; stroke: #1f77b4"/>
     <use xlink:href="#md958f39f46" x="113.133372" y="241.07018" style="fill: #1f77b4; stroke: #1f77b4"/>
     <use xlink:href="#md958f39f46" x="150.737163" y="179.465656" style="fill: #1f77b4; stroke: #1f77b4"/>
     <use xlink:href="#md958f39f46" x="205.197382" y="210.813327" style="fill: #1f77b4; stroke: #1f77b4"/>
     <use xlink:href="#md958f39f46" x="231.024161" y="113.150354" style="fill: #1f77b4; stroke: #1f77b4"/>
     <use xlink:href="#md958f39f46" x="232.744833" y="175.30282" style="fill: #1f77b4; stroke: #1f77b4"/>
     <use xlink:href="#md958f39f46" x="235.38961" y="229.13421" style="fill: #1f77b4; stroke: #1f77b4"/>
     <use xlink:href="#md958f39f46" x="274.918168" y="223.419317" style="fill: #1f77b4; stroke: #1f77b4"/>
     <use xlink:href="#md958f39f46" x="304.158854" y="173.976854" style="fill: #1f77b4; stroke: #1f77b4"/>
     <use xlink:href="#md958f39f46" x="308.787282" y="216.329923" style="fill: #1f77b4; stroke: #1f77b4"/>
     <use xlink:href="#md958f39f46" x="329.083982" y="118.386955" style="fill: #1f77b4; stroke: #1f77b4"/>
     <use xlink:href="#md958f39f46" x="353.27621" y="122.157434" style="fill: #1f77b4; stroke: #1f77b4"/>
     <use xlink:href="#md958f39f46" x="358.13818" y="126.134753" style="fill: #1f77b4; stroke: #1f77b4"/>
     <use xlink:href="#md958f39f46" x="362.731531" y="131.341771" style="fill: #1f77b4; stroke: #1f77b4"/>
     <use xlink:href="#md958f39f46" x="376.65291" y="199.477888" style="fill: #1f77b4; stroke: #1f77b4"/>
     <use xlink:href="#md958f39f46" x="378.500211" y="171.586166" style="fill: #1f77b4; stroke: #1f77b4"/>
     <use xlink:href="#md958f39f46" x="390.247662" y="114.094882" style="fill: #1f77b4; stroke: #1f77b4"/>
     <use xlink:href="#md958f39f46" x="416.107313" y="195.841085" style="fill: #1f77b4; stroke: #1f77b4"/>
     <use xlink:href="#md958f39f46" x="434.641693" y="121.869797" style="fill: #1f77b4; stroke: #1f77b4"/>
    </g>
   </g>
   <g id="patch_3">
    <path d="M 71.447115 294.784135 
L 71.447115 3.00024 
" style="fill: none; stroke: #000000; stroke-width: 0.8; stroke-linejoin: miter; stroke-linecap: square"/>
   </g>
   <g id="patch_4">
    <path d="M 451.936673 294.784135 
L 451.936673 3.00024 
" style="fill: none; stroke: #000000; stroke-width: 0.8; stroke-linejoin: miter; stroke-linecap: square"/>
   </g>
   <g id="patch_5">
    <path d="M 71.447115 294.784135 
L 451.936673 294.784135 
" style="fill: none; stroke: #000000; stroke-width: 0.8; stroke-linejoin: miter; stroke-linecap: square"/>
   </g>
   <g id="patch_6">
    <path d="M 71.447115 3.00024 
L 451.936673 3.00024 
" style="fill: none; stroke: #000000; stroke-width: 0.8; stroke-linejoin: miter; stroke-linecap: square"/>
   </g>
  </g>
 </g>
 <defs>
  <clipPath id="pdea540a91d">
   <rect x="71.447115" y="3.00024" width="380.489558" height="291.783895"/>
  </clipPath>
 </defs>
</svg>
