<?xml version="1.0" encoding="utf-8" standalone="no"?>
<!DOCTYPE svg PUBLIC "-//W3C//DTD SVG 1.1//EN"
  "http://www.w3.org/Graphics/SVG/1.1/DTD/svg11.dtd">
<svg xmlns:xlink="http://www.w3.org/1999/xlink" width="460.8pt" height="345.6pt" viewBox="0 0 460.8 345.6" xmlns="http://www.w3.org/2000/svg" version="1.1">
 <metadata>
  <rdf:RDF xmlns:dc="http://purl.org/dc/elements/1.1/" xmlns:cc="http://creativecommons.org/ns#" xmlns:rdf="http://www.w3.org/1999/02/22-rdf-syntax-ns#">
   <cc:Work>
    <dc:type rdf:resource="http://purl.org/dc/dcmitype/StillImage"/>
    <dc:date>2025-12-29T14:13:43.582526</dc:date>
    <dc:format>image/svg+xml</dc:format>
    <dc:creator>
     <cc:Agent>
      <dc:title>Matplotlib v3.10.7, https://matplotlib.org/</dc:title>
     </cc:Agent>
    </dc:creator>
   </cc:Work>
  </rdf:RDF>
 </metadata>
 <defs>
  <style type="text/css">*{stroke-linejoin: round; stroke-linecap: butt}</style>
 </defs>
 <g id="figure_1">
  <g id="patch_1">
   <path d="M 0 345.6 
L 460.8 345.6 
L 460.8 0 
L 0 0 
z
" style="fill: #ffffff"/>
  </g>
  <g id="axes_1">
   <g id="patch_2">
    <path d="M 71.772115 294.540385 
L 457.79976 294.540385 
L 457.79976 3.00024 
L 71.772115 3.00024 
z
" style="fill: #ffffff"/>
   </g>
   <g id="FillBetweenPolyCollection_1">
    <defs>
     <path id="m48fbf0a9da" d="M 89.318826 -240.465268 
L 89.318826 -189.906555 
L 89.318826 -189.906555 
L 170.852544 -189.906555 
L 170.852544 -184.440368 
L 201.149865 -184.440368 
L 201.149865 -160.403163 
L 253.439064 -160.403163 
L 253.439064 -151.175054 
L 278.58935 -151.175054 
L 278.58935 -136.069436 
L 304.207549 -136.069436 
L 304.207549 -108.182703 
L 355.490736 -108.182703 
L 355.490736 -160.595055 
L 377.868642 -160.595055 
L 377.868642 -217.283969 
L 398.140942 -217.283969 
L 398.140942 -234.217929 
L 410.072706 -234.217929 
L 410.072706 -243.512613 
L 419.196996 -243.512613 
L 419.196996 -250.324234 
L 431.117061 -250.324234 
L 431.117061 -253.342524 
L 438.779125 -253.342524 
L 438.779125 -253.946062 
L 440.253049 -253.946062 
L 440.253049 -300.092899 
L 440.253049 -300.092899 
L 438.779125 -300.092899 
L 438.779125 -297.711485 
L 431.117061 -297.711485 
L 431.117061 -286.364173 
L 419.196996 -286.364173 
L 419.196996 -269.029719 
L 410.072706 -269.029719 
L 410.072706 -255.679208 
L 398.140942 -255.679208 
L 398.140942 -237.087805 
L 377.868642 -237.087805 
L 377.868642 -208.602595 
L 355.490736 -208.602595 
L 355.490736 -181.159386 
L 304.207549 -181.159386 
L 304.207549 -170.509287 
L 278.58935 -170.509287 
L 278.58935 -187.044378 
L 253.439064 -187.044378 
L 253.439064 -202.328507 
L 201.149865 -202.328507 
L 201.149865 -226.736416 
L 170.852544 -226.736416 
L 170.852544 -240.465268 
L 89.318826 -240.465268 
L 89.318826 -240.465268 
z
" style="stroke: #58b668; stroke-opacity: 0.25"/>
    </defs>
    <g clip-path="url(#p1b8aac085a)">
     <use xlink:href="#m48fbf0a9da" x="0" y="345.6" style="fill: #58b668; fill-opacity: 0.25; stroke: #58b668; stroke-opacity: 0.25"/>
    </g>
   </g>
   <g id="matplotlib.axis_1">
    <g id="xtick_1">
     <g id="line2d_1">
      <defs>
       <path id="m0e12236187" d="M 0 0 
L 0 3.5 
" style="stroke: #000000; stroke-width: 0.8"/>
      </defs>
      <g>
       <use xlink:href="#m0e12236187" x="440.253049" y="294.540385" style="stroke: #000000; stroke-width: 0.8"/>
      </g>
     </g>
     <g id="text_1">
      <!-- 0 -->
      <g transform="translate(434.692111 315.85601) scale(0.2 -0.2)">
       <defs>
        <path id="ArialMT-30" d="M 266 2259 
Q 266 3072 433 3567 
Q 600 4063 929 4331 
Q 1259 4600 1759 4600 
Q 2128 4600 2406 4451 
Q 2684 4303 2865 4023 
Q 3047 3744 3150 3342 
Q 3253 2941 3253 2259 
Q 3253 1453 3087 958 
Q 2922 463 2592 192 
Q 2263 -78 1759 -78 
Q 1097 -78 719 397 
Q 266 969 266 2259 
z
M 844 2259 
Q 844 1131 1108 757 
Q 1372 384 1759 384 
Q 2147 384 2411 759 
Q 2675 1134 2675 2259 
Q 2675 3391 2411 3762 
Q 2147 4134 1753 4134 
Q 1366 4134 1134 3806 
Q 844 3388 844 2259 
z
" transform="scale(0.015625)"/>
       </defs>
       <use xlink:href="#ArialMT-30"/>
      </g>
     </g>
    </g>
    <g id="xtick_2">
     <g id="line2d_2">
      <g>
       <use xlink:href="#m0e12236187" x="323.274975" y="294.540385" style="stroke: #000000; stroke-width: 0.8"/>
      </g>
     </g>
     <g id="text_2">
      <!-- 10 -->
      <g transform="translate(312.1531 315.85601) scale(0.2 -0.2)">
       <defs>
        <path id="ArialMT-31" d="M 2384 0 
L 1822 0 
L 1822 3584 
Q 1619 3391 1289 3197 
Q 959 3003 697 2906 
L 697 3450 
Q 1169 3672 1522 3987 
Q 1875 4303 2022 4600 
L 2384 4600 
L 2384 0 
z
" transform="scale(0.015625)"/>
       </defs>
       <use xlink:href="#ArialMT-31"/>
       <use xlink:href="#ArialMT-30" transform="translate(55.615234 0)"/>
      </g>
     </g>
    </g>
    <g id="xtick_3">
     <g id="line2d_3">
      <g>
       <use xlink:href="#m0e12236187" x="206.2969" y="294.540385" style="stroke: #000000; stroke-width: 0.8"/>
      </g>
     </g>
     <g id="text_3">
      <!-- 20 -->
      <g transform="translate(195.175025 315.85601) scale(0.2 -0.2)">
       <defs>
        <path id="ArialMT-32" d="M 3222 541 
L 3222 0 
L 194 0 
Q 188 203 259 391 
Q 375 700 629 1000 
Q 884 1300 1366 1694 
Q 2113 2306 2375 2664 
Q 2638 3022 2638 3341 
Q 2638 3675 2398 3904 
Q 2159 4134 1775 4134 
Q 1369 4134 1125 3890 
Q 881 3647 878 3216 
L 300 3275 
Q 359 3922 746 4261 
Q 1134 4600 1788 4600 
Q 2447 4600 2831 4234 
Q 3216 3869 3216 3328 
Q 3216 3053 3103 2787 
Q 2991 2522 2730 2228 
Q 2469 1934 1863 1422 
Q 1356 997 1212 845 
Q 1069 694 975 541 
L 3222 541 
z
" transform="scale(0.015625)"/>
       </defs>
       <use xlink:href="#ArialMT-32"/>
       <use xlink:href="#ArialMT-30" transform="translate(55.615234 0)"/>
      </g>
     </g>
    </g>
    <g id="xtick_4">
     <g id="line2d_4">
      <g>
       <use xlink:href="#m0e12236187" x="89.318826" y="294.540385" style="stroke: #000000; stroke-width: 0.8"/>
      </g>
     </g>
     <g id="text_4">
      <!-- 30 -->
      <g transform="translate(78.196951 315.85601) scale(0.2 -0.2)">
       <defs>
        <path id="ArialMT-33" d="M 269 1209 
L 831 1284 
Q 928 806 1161 595 
Q 1394 384 1728 384 
Q 2125 384 2398 659 
Q 2672 934 2672 1341 
Q 2672 1728 2419 1979 
Q 2166 2231 1775 2231 
Q 1616 2231 1378 2169 
L 1441 2663 
Q 1497 2656 1531 2656 
Q 1891 2656 2178 2843 
Q 2466 3031 2466 3422 
Q 2466 3731 2256 3934 
Q 2047 4138 1716 4138 
Q 1388 4138 1169 3931 
Q 950 3725 888 3313 
L 325 3413 
Q 428 3978 793 4289 
Q 1159 4600 1703 4600 
Q 2078 4600 2393 4439 
Q 2709 4278 2876 4000 
Q 3044 3722 3044 3409 
Q 3044 3113 2884 2869 
Q 2725 2625 2413 2481 
Q 2819 2388 3044 2092 
Q 3269 1797 3269 1353 
Q 3269 753 2831 336 
Q 2394 -81 1725 -81 
Q 1122 -81 723 278 
Q 325 638 269 1209 
z
" transform="scale(0.015625)"/>
       </defs>
       <use xlink:href="#ArialMT-33"/>
       <use xlink:href="#ArialMT-30" transform="translate(55.615234 0)"/>
      </g>
     </g>
    </g>
    <g id="text_5">
     <!-- Time (mya) -->
     <g transform="translate(214.6125 338.390385) scale(0.2 -0.2)">
      <defs>
       <path id="ArialMT-54" d="M 1659 0 
L 1659 4041 
L 150 4041 
L 150 4581 
L 3781 4581 
L 3781 4041 
L 2266 4041 
L 2266 0 
L 1659 0 
z
" transform="scale(0.015625)"/>
       <path id="ArialMT-69" d="M 425 3934 
L 425 4581 
L 988 4581 
L 988 3934 
L 425 3934 
z
M 425 0 
L 425 3319 
L 988 3319 
L 988 0 
L 425 0 
z
" transform="scale(0.015625)"/>
       <path id="ArialMT-6d" d="M 422 0 
L 422 3319 
L 925 3319 
L 925 2853 
Q 1081 3097 1340 3245 
Q 1600 3394 1931 3394 
Q 2300 3394 2536 3241 
Q 2772 3088 2869 2813 
Q 3263 3394 3894 3394 
Q 4388 3394 4653 3120 
Q 4919 2847 4919 2278 
L 4919 0 
L 4359 0 
L 4359 2091 
Q 4359 2428 4304 2576 
Q 4250 2725 4106 2815 
Q 3963 2906 3769 2906 
Q 3419 2906 3187 2673 
Q 2956 2441 2956 1928 
L 2956 0 
L 2394 0 
L 2394 2156 
Q 2394 2531 2256 2718 
Q 2119 2906 1806 2906 
Q 1569 2906 1367 2781 
Q 1166 2656 1075 2415 
Q 984 2175 984 1722 
L 984 0 
L 422 0 
z
" transform="scale(0.015625)"/>
       <path id="ArialMT-65" d="M 2694 1069 
L 3275 997 
Q 3138 488 2766 206 
Q 2394 -75 1816 -75 
Q 1088 -75 661 373 
Q 234 822 234 1631 
Q 234 2469 665 2931 
Q 1097 3394 1784 3394 
Q 2450 3394 2872 2941 
Q 3294 2488 3294 1666 
Q 3294 1616 3291 1516 
L 816 1516 
Q 847 969 1125 678 
Q 1403 388 1819 388 
Q 2128 388 2347 550 
Q 2566 713 2694 1069 
z
M 847 1978 
L 2700 1978 
Q 2663 2397 2488 2606 
Q 2219 2931 1791 2931 
Q 1403 2931 1139 2672 
Q 875 2413 847 1978 
z
" transform="scale(0.015625)"/>
       <path id="ArialMT-20" transform="scale(0.015625)"/>
       <path id="ArialMT-28" d="M 1497 -1347 
Q 1031 -759 709 28 
Q 388 816 388 1659 
Q 388 2403 628 3084 
Q 909 3875 1497 4659 
L 1900 4659 
Q 1522 4009 1400 3731 
Q 1209 3300 1100 2831 
Q 966 2247 966 1656 
Q 966 153 1900 -1347 
L 1497 -1347 
z
" transform="scale(0.015625)"/>
       <path id="ArialMT-79" d="M 397 -1278 
L 334 -750 
Q 519 -800 656 -800 
Q 844 -800 956 -737 
Q 1069 -675 1141 -563 
Q 1194 -478 1313 -144 
Q 1328 -97 1363 -6 
L 103 3319 
L 709 3319 
L 1400 1397 
Q 1534 1031 1641 628 
Q 1738 1016 1872 1384 
L 2581 3319 
L 3144 3319 
L 1881 -56 
Q 1678 -603 1566 -809 
Q 1416 -1088 1222 -1217 
Q 1028 -1347 759 -1347 
Q 597 -1347 397 -1278 
z
" transform="scale(0.015625)"/>
       <path id="ArialMT-61" d="M 2588 409 
Q 2275 144 1986 34 
Q 1697 -75 1366 -75 
Q 819 -75 525 192 
Q 231 459 231 875 
Q 231 1119 342 1320 
Q 453 1522 633 1644 
Q 813 1766 1038 1828 
Q 1203 1872 1538 1913 
Q 2219 1994 2541 2106 
Q 2544 2222 2544 2253 
Q 2544 2597 2384 2738 
Q 2169 2928 1744 2928 
Q 1347 2928 1158 2789 
Q 969 2650 878 2297 
L 328 2372 
Q 403 2725 575 2942 
Q 747 3159 1072 3276 
Q 1397 3394 1825 3394 
Q 2250 3394 2515 3294 
Q 2781 3194 2906 3042 
Q 3031 2891 3081 2659 
Q 3109 2516 3109 2141 
L 3109 1391 
Q 3109 606 3145 398 
Q 3181 191 3288 0 
L 2700 0 
Q 2613 175 2588 409 
z
M 2541 1666 
Q 2234 1541 1622 1453 
Q 1275 1403 1131 1340 
Q 988 1278 909 1158 
Q 831 1038 831 891 
Q 831 666 1001 516 
Q 1172 366 1500 366 
Q 1825 366 2078 508 
Q 2331 650 2450 897 
Q 2541 1088 2541 1459 
L 2541 1666 
z
" transform="scale(0.015625)"/>
       <path id="ArialMT-29" d="M 791 -1347 
L 388 -1347 
Q 1322 153 1322 1656 
Q 1322 2244 1188 2822 
Q 1081 3291 891 3722 
Q 769 4003 388 4659 
L 791 4659 
Q 1378 3875 1659 3084 
Q 1900 2403 1900 1659 
Q 1900 816 1576 28 
Q 1253 -759 791 -1347 
z
" transform="scale(0.015625)"/>
      </defs>
      <use xlink:href="#ArialMT-54"/>
      <use xlink:href="#ArialMT-69" transform="translate(57.333984 0)"/>
      <use xlink:href="#ArialMT-6d" transform="translate(79.550781 0)"/>
      <use xlink:href="#ArialMT-65" transform="translate(162.851562 0)"/>
      <use xlink:href="#ArialMT-20" transform="translate(218.466797 0)"/>
      <use xlink:href="#ArialMT-28" transform="translate(246.25 0)"/>
      <use xlink:href="#ArialMT-6d" transform="translate(279.550781 0)"/>
      <use xlink:href="#ArialMT-79" transform="translate(362.851562 0)"/>
      <use xlink:href="#ArialMT-61" transform="translate(412.851562 0)"/>
      <use xlink:href="#ArialMT-29" transform="translate(468.466797 0)"/>
     </g>
    </g>
   </g>
   <g id="matplotlib.axis_2">
    <g id="ytick_1">
     <g id="line2d_5">
      <defs>
       <path id="m71321bd40a" d="M 0 0 
L -3.5 0 
" style="stroke: #000000; stroke-width: 0.8"/>
      </defs>
      <g>
       <use xlink:href="#m71321bd40a" x="71.772115" y="258.097867" style="stroke: #000000; stroke-width: 0.8"/>
      </g>
     </g>
     <g id="text_6">
      <!-- −0.2 -->
      <g transform="translate(25.290865 265.255679) scale(0.2 -0.2)">
       <defs>
        <path id="ArialMT-2212" d="M 3381 1997 
L 356 1997 
L 356 2522 
L 3381 2522 
L 3381 1997 
z
" transform="scale(0.015625)"/>
        <path id="ArialMT-2e" d="M 581 0 
L 581 641 
L 1222 641 
L 1222 0 
L 581 0 
z
" transform="scale(0.015625)"/>
       </defs>
       <use xlink:href="#ArialMT-2212"/>
       <use xlink:href="#ArialMT-30" transform="translate(58.398438 0)"/>
       <use xlink:href="#ArialMT-2e" transform="translate(114.013672 0)"/>
       <use xlink:href="#ArialMT-32" transform="translate(141.796875 0)"/>
      </g>
     </g>
    </g>
    <g id="ytick_2">
     <g id="line2d_6">
      <g>
       <use xlink:href="#m71321bd40a" x="71.772115" y="185.212831" style="stroke: #000000; stroke-width: 0.8"/>
      </g>
     </g>
     <g id="text_7">
      <!-- 0.0 -->
      <g transform="translate(36.972115 192.370643) scale(0.2 -0.2)">
       <use xlink:href="#ArialMT-30"/>
       <use xlink:href="#ArialMT-2e" transform="translate(55.615234 0)"/>
       <use xlink:href="#ArialMT-30" transform="translate(83.398438 0)"/>
      </g>
     </g>
    </g>
    <g id="ytick_3">
     <g id="line2d_7">
      <g>
       <use xlink:href="#m71321bd40a" x="71.772115" y="112.327794" style="stroke: #000000; stroke-width: 0.8"/>
      </g>
     </g>
     <g id="text_8">
      <!-- 0.2 -->
      <g transform="translate(36.972115 119.485607) scale(0.2 -0.2)">
       <use xlink:href="#ArialMT-30"/>
       <use xlink:href="#ArialMT-2e" transform="translate(55.615234 0)"/>
       <use xlink:href="#ArialMT-32" transform="translate(83.398438 0)"/>
      </g>
     </g>
    </g>
    <g id="ytick_4">
     <g id="line2d_8">
      <g>
       <use xlink:href="#m71321bd40a" x="71.772115" y="39.442758" style="stroke: #000000; stroke-width: 0.8"/>
      </g>
     </g>
     <g id="text_9">
      <!-- 0.4 -->
      <g transform="translate(36.972115 46.600571) scale(0.2 -0.2)">
       <defs>
        <path id="ArialMT-34" d="M 2069 0 
L 2069 1097 
L 81 1097 
L 81 1613 
L 2172 4581 
L 2631 4581 
L 2631 1613 
L 3250 1613 
L 3250 1097 
L 2631 1097 
L 2631 0 
L 2069 0 
z
M 2069 1613 
L 2069 3678 
L 634 1613 
L 2069 1613 
z
" transform="scale(0.015625)"/>
       </defs>
       <use xlink:href="#ArialMT-30"/>
       <use xlink:href="#ArialMT-2e" transform="translate(55.615234 0)"/>
       <use xlink:href="#ArialMT-34" transform="translate(83.398438 0)"/>
      </g>
     </g>
    </g>
    <g id="text_10">
     <!-- $d$ -->
     <g transform="translate(17.315865 155.170312) rotate(-90) scale(0.2 -0.2)">
      <defs>
       <path id="DejaVuSans-Oblique-64" d="M 2675 525 
Q 2444 222 2128 65 
Q 1813 -91 1428 -91 
Q 903 -91 598 267 
Q 294 625 294 1247 
Q 294 1766 478 2236 
Q 663 2706 1013 3078 
Q 1244 3325 1534 3454 
Q 1825 3584 2144 3584 
Q 2481 3584 2739 3421 
Q 2997 3259 3138 2956 
L 3513 4863 
L 4091 4863 
L 3144 0 
L 2566 0 
L 2675 525 
z
M 891 1350 
Q 891 897 1095 644 
Q 1300 391 1663 391 
Q 1931 391 2161 520 
Q 2391 650 2566 903 
Q 2750 1166 2856 1509 
Q 2963 1853 2963 2188 
Q 2963 2622 2758 2865 
Q 2553 3109 2194 3109 
Q 1922 3109 1687 2981 
Q 1453 2853 1288 2613 
Q 1106 2353 998 2009 
Q 891 1666 891 1350 
z
" transform="scale(0.015625)"/>
      </defs>
      <use xlink:href="#DejaVuSans-Oblique-64" transform="translate(0 0.015625)"/>
     </g>
    </g>
   </g>
   <g id="line2d_9">
    <path d="M 89.318826 123.846774 
L 89.318826 123.846774 
L 170.852544 123.846774 
L 170.852544 136.797289 
L 201.149865 136.797289 
L 201.149865 160.50597 
L 253.439064 160.50597 
L 253.439064 172.504554 
L 278.58935 172.504554 
L 278.58935 185.092361 
L 304.207549 185.092361 
L 304.207549 186.417776 
L 355.490736 186.417776 
L 355.490736 155.450835 
L 377.868642 155.450835 
L 377.868642 119.456738 
L 398.140942 119.456738 
L 398.140942 99.075449 
L 410.072706 99.075449 
L 410.072706 83.498485 
L 419.196996 83.498485 
L 419.196996 63.058918 
L 431.117061 63.058918 
L 431.117061 50.359099 
L 438.779125 50.359099 
L 438.779125 48.015463 
L 440.253049 48.015463 
" clip-path="url(#p1b8aac085a)" style="fill: none; stroke: #58b668; stroke-opacity: 0.25; stroke-linecap: square"/>
   </g>
   <g id="line2d_10">
    <path d="M 89.318826 143.152095 
L 89.318826 143.152095 
L 170.852544 143.152095 
L 170.852544 149.805097 
L 201.149865 149.805097 
L 201.149865 161.453313 
L 253.439064 161.453313 
L 253.439064 167.777823 
L 278.58935 167.777823 
L 278.58935 175.038579 
L 304.207549 175.038579 
L 304.207549 166.763603 
L 355.490736 166.763603 
L 355.490736 142.834379 
L 377.868642 142.834379 
L 377.868642 113.499676 
L 398.140942 113.499676 
L 398.140942 95.258024 
L 410.072706 95.258024 
L 410.072706 80.787258 
L 419.196996 80.787258 
L 419.196996 61.619947 
L 431.117061 61.619947 
L 431.117061 49.427103 
L 438.779125 49.427103 
L 438.779125 46.826511 
L 440.253049 46.826511 
" clip-path="url(#p1b8aac085a)" style="fill: none; stroke: #58b668; stroke-opacity: 0.25; stroke-linecap: square"/>
   </g>
   <g id="line2d_11">
    <path d="M 89.318826 111.344659 
L 89.318826 111.344659 
L 170.852544 111.344659 
L 170.852544 120.718176 
L 201.149865 120.718176 
L 201.149865 147.528108 
L 253.439064 147.528108 
L 253.439064 168.701228 
L 278.58935 168.701228 
L 278.58935 195.568957 
L 304.207549 195.568957 
L 304.207549 225.823072 
L 355.490736 225.823072 
L 355.490736 164.316692 
L 377.868642 164.316692 
L 377.868642 116.202088 
L 398.140942 116.202088 
L 398.140942 100.273128 
L 410.072706 100.273128 
L 410.072706 91.947167 
L 419.196996 91.947167 
L 419.196996 84.790294 
L 431.117061 84.790294 
L 431.117061 81.652457 
L 438.779125 81.652457 
L 438.779125 81.095334 
L 440.253049 81.095334 
" clip-path="url(#p1b8aac085a)" style="fill: none; stroke: #58b668; stroke-opacity: 0.25; stroke-linecap: square"/>
   </g>
   <g id="line2d_12">
    <path d="M 89.318826 147.575552 
L 89.318826 147.575552 
L 170.852544 147.575552 
L 170.852544 149.365395 
L 201.149865 149.365395 
L 201.149865 160.983403 
L 253.439064 160.983403 
L 253.439064 173.4102 
L 278.58935 173.4102 
L 278.58935 189.463291 
L 304.207549 189.463291 
L 304.207549 210.339996 
L 355.490736 210.339996 
L 355.490736 162.308183 
L 377.868642 162.308183 
L 377.868642 115.74638 
L 398.140942 115.74638 
L 398.140942 100.706076 
L 410.072706 100.706076 
L 410.072706 92.991261 
L 419.196996 92.991261 
L 419.196996 86.913399 
L 431.117061 86.913399 
L 431.117061 84.211537 
L 438.779125 84.211537 
L 438.779125 83.823667 
L 440.253049 83.823667 
" clip-path="url(#p1b8aac085a)" style="fill: none; stroke: #58b668; stroke-opacity: 0.25; stroke-linecap: square"/>
   </g>
   <g id="line2d_13">
    <path d="M 89.318826 141.790253 
L 89.318826 141.790253 
L 170.852544 141.790253 
L 170.852544 149.240771 
L 201.149865 149.240771 
L 201.149865 170.779036 
L 253.439064 170.779036 
L 253.439064 184.674015 
L 278.58935 184.674015 
L 278.58935 200.119312 
L 304.207549 200.119312 
L 304.207549 217.449065 
L 355.490736 217.449065 
L 355.490736 169.39035 
L 377.868642 169.39035 
L 377.868642 115.904295 
L 398.140942 115.904295 
L 398.140942 96.136594 
L 410.072706 96.136594 
L 410.072706 85.289765 
L 419.196996 85.289765 
L 419.196996 75.377383 
L 431.117061 75.377383 
L 431.117061 70.924399 
L 438.779125 70.924399 
L 438.779125 70.156621 
L 440.253049 70.156621 
" clip-path="url(#p1b8aac085a)" style="fill: none; stroke: #58b668; stroke-opacity: 0.25; stroke-linecap: square"/>
   </g>
   <g id="line2d_14">
    <path d="M 89.318826 125.288254 
L 89.318826 125.288254 
L 170.852544 125.288254 
L 170.852544 134.066427 
L 201.149865 134.066427 
L 201.149865 154.620011 
L 253.439064 154.620011 
L 253.439064 166.175842 
L 278.58935 166.175842 
L 278.58935 180.40023 
L 304.207549 180.40023 
L 304.207549 193.518472 
L 355.490736 193.518472 
L 355.490736 153.47618 
L 377.868642 153.47618 
L 377.868642 115.711419 
L 398.140942 115.711419 
L 398.140942 101.575456 
L 410.072706 101.575456 
L 410.072706 93.845745 
L 419.196996 93.845745 
L 419.196996 86.094094 
L 431.117061 86.094094 
L 431.117061 82.435671 
L 438.779125 82.435671 
L 438.779125 81.800492 
L 440.253049 81.800492 
" clip-path="url(#p1b8aac085a)" style="fill: none; stroke: #58b668; stroke-opacity: 0.25; stroke-linecap: square"/>
   </g>
   <g id="line2d_15">
    <path d="M 89.318826 125.930125 
L 89.318826 125.930125 
L 170.852544 125.930125 
L 170.852544 132.933897 
L 201.149865 132.933897 
L 201.149865 155.96875 
L 253.439064 155.96875 
L 253.439064 174.103535 
L 278.58935 174.103535 
L 278.58935 197.280349 
L 304.207549 197.280349 
L 304.207549 227.846982 
L 355.490736 227.846982 
L 355.490736 174.313253 
L 377.868642 174.313253 
L 377.868642 116.548027 
L 398.140942 116.548027 
L 398.140942 96.207398 
L 410.072706 96.207398 
L 410.072706 85.653155 
L 419.196996 85.653155 
L 419.196996 76.714915 
L 431.117061 76.714915 
L 431.117061 72.741499 
L 438.779125 72.741499 
L 438.779125 72.117392 
L 440.253049 72.117392 
" clip-path="url(#p1b8aac085a)" style="fill: none; stroke: #58b668; stroke-opacity: 0.25; stroke-linecap: square"/>
   </g>
   <g id="line2d_16">
    <path d="M 89.318826 153.618999 
L 89.318826 153.618999 
L 170.852544 153.618999 
L 170.852544 160.260227 
L 201.149865 160.260227 
L 201.149865 176.904042 
L 253.439064 176.904042 
L 253.439064 185.342392 
L 278.58935 185.342392 
L 278.58935 192.687479 
L 304.207549 192.687479 
L 304.207549 178.823911 
L 355.490736 178.823911 
L 355.490736 143.448185 
L 377.868642 143.448185 
L 377.868642 111.567397 
L 398.140942 111.567397 
L 398.140942 95.423532 
L 410.072706 95.423532 
L 410.072706 84.396117 
L 419.196996 84.396117 
L 419.196996 71.409284 
L 431.117061 71.409284 
L 431.117061 63.961225 
L 438.779125 63.961225 
L 438.779125 62.645704 
L 440.253049 62.645704 
" clip-path="url(#p1b8aac085a)" style="fill: none; stroke: #58b668; stroke-opacity: 0.25; stroke-linecap: square"/>
   </g>
   <g id="line2d_17">
    <path d="M 89.318826 131.614284 
L 89.318826 131.614284 
L 170.852544 131.614284 
L 170.852544 139.94539 
L 201.149865 139.94539 
L 201.149865 160.796361 
L 253.439064 160.796361 
L 253.439064 175.533036 
L 278.58935 175.533036 
L 278.58935 192.426204 
L 304.207549 192.426204 
L 304.207549 209.771391 
L 355.490736 209.771391 
L 355.490736 162.05122 
L 377.868642 162.05122 
L 377.868642 112.325533 
L 398.140942 112.325533 
L 398.140942 93.700034 
L 410.072706 93.700034 
L 410.072706 84.368748 
L 419.196996 84.368748 
L 419.196996 75.805358 
L 431.117061 75.805358 
L 431.117061 71.89536 
L 438.779125 71.89536 
L 438.779125 71.297189 
L 440.253049 71.297189 
" clip-path="url(#p1b8aac085a)" style="fill: none; stroke: #58b668; stroke-opacity: 0.25; stroke-linecap: square"/>
   </g>
   <g id="line2d_18">
    <path d="M 89.318826 138.056103 
L 89.318826 138.056103 
L 170.852544 138.056103 
L 170.852544 143.795723 
L 201.149865 143.795723 
L 201.149865 156.706892 
L 253.439064 156.706892 
L 253.439064 163.544127 
L 278.58935 163.544127 
L 278.58935 170.222545 
L 304.207549 170.222545 
L 304.207549 162.338862 
L 355.490736 162.338862 
L 355.490736 136.872707 
L 377.868642 136.872707 
L 377.868642 108.170683 
L 398.140942 108.170683 
L 398.140942 90.71714 
L 410.072706 90.71714 
L 410.072706 76.980109 
L 419.196996 76.980109 
L 419.196996 58.346045 
L 431.117061 58.346045 
L 431.117061 46.641988 
L 438.779125 46.641988 
L 438.779125 44.313349 
L 440.253049 44.313349 
" clip-path="url(#p1b8aac085a)" style="fill: none; stroke: #58b668; stroke-opacity: 0.25; stroke-linecap: square"/>
   </g>
   <g id="line2d_19">
    <path d="M 89.318826 131.636239 
L 89.318826 131.636239 
L 170.852544 131.636239 
L 170.852544 138.675533 
L 201.149865 138.675533 
L 201.149865 157.149398 
L 253.439064 157.149398 
L 253.439064 168.303658 
L 278.58935 168.303658 
L 278.58935 179.079234 
L 304.207549 179.079234 
L 304.207549 171.789133 
L 355.490736 171.789133 
L 355.490736 145.028482 
L 377.868642 145.028482 
L 377.868642 115.783834 
L 398.140942 115.783834 
L 398.140942 98.514687 
L 410.072706 98.514687 
L 410.072706 85.838221 
L 419.196996 85.838221 
L 419.196996 69.413055 
L 431.117061 69.413055 
L 431.117061 58.76659 
L 438.779125 58.76659 
L 438.779125 56.959695 
L 440.253049 56.959695 
" clip-path="url(#p1b8aac085a)" style="fill: none; stroke: #58b668; stroke-opacity: 0.25; stroke-linecap: square"/>
   </g>
   <g id="line2d_20">
    <path d="M 89.318826 132.152474 
L 89.318826 132.152474 
L 170.852544 132.152474 
L 170.852544 142.7465 
L 201.149865 142.7465 
L 201.149865 164.520674 
L 253.439064 164.520674 
L 253.439064 177.067794 
L 278.58935 177.067794 
L 278.58935 188.565906 
L 304.207549 188.565906 
L 304.207549 181.41875 
L 355.490736 181.41875 
L 355.490736 148.472273 
L 377.868642 148.472273 
L 377.868642 117.308018 
L 398.140942 117.308018 
L 398.140942 101.0793 
L 410.072706 101.0793 
L 410.072706 89.606982 
L 419.196996 89.606982 
L 419.196996 75.661879 
L 431.117061 75.661879 
L 431.117061 67.42001 
L 438.779125 67.42001 
L 438.779125 66.045788 
L 440.253049 66.045788 
" clip-path="url(#p1b8aac085a)" style="fill: none; stroke: #58b668; stroke-opacity: 0.25; stroke-linecap: square"/>
   </g>
   <g id="line2d_21">
    <path d="M 89.318826 144.857747 
L 89.318826 144.857747 
L 170.852544 144.857747 
L 170.852544 161.86067 
L 201.149865 161.86067 
L 201.149865 187.79117 
L 253.439064 187.79117 
L 253.439064 198.00055 
L 278.58935 198.00055 
L 278.58935 204.116715 
L 304.207549 204.116715 
L 304.207549 186.547065 
L 355.490736 186.547065 
L 355.490736 159.926829 
L 377.868642 159.926829 
L 377.868642 130.040221 
L 398.140942 130.040221 
L 398.140942 109.936987 
L 410.072706 109.936987 
L 410.072706 92.865413 
L 419.196996 92.865413 
L 419.196996 68.676813 
L 431.117061 68.676813 
L 431.117061 51.574531 
L 438.779125 51.574531 
L 438.779125 48.154658 
L 440.253049 48.154658 
" clip-path="url(#p1b8aac085a)" style="fill: none; stroke: #58b668; stroke-opacity: 0.25; stroke-linecap: square"/>
   </g>
   <g id="line2d_22">
    <path d="M 89.318826 140.087363 
L 89.318826 140.087363 
L 170.852544 140.087363 
L 170.852544 145.911266 
L 201.149865 145.911266 
L 201.149865 169.864369 
L 253.439064 169.864369 
L 253.439064 186.966232 
L 278.58935 186.966232 
L 278.58935 206.748873 
L 304.207549 206.748873 
L 304.207549 226.784623 
L 355.490736 226.784623 
L 355.490736 175.858166 
L 377.868642 175.858166 
L 377.868642 110.944376 
L 398.140942 110.944376 
L 398.140942 87.80172 
L 410.072706 87.80172 
L 410.072706 76.199485 
L 419.196996 76.199485 
L 419.196996 66.341063 
L 431.117061 66.341063 
L 431.117061 62.497015 
L 438.779125 62.497015 
L 438.779125 61.755102 
L 440.253049 61.755102 
" clip-path="url(#p1b8aac085a)" style="fill: none; stroke: #58b668; stroke-opacity: 0.25; stroke-linecap: square"/>
   </g>
   <g id="line2d_23">
    <path d="M 89.318826 141.178034 
L 89.318826 141.178034 
L 170.852544 141.178034 
L 170.852544 145.94021 
L 201.149865 145.94021 
L 201.149865 159.332106 
L 253.439064 159.332106 
L 253.439064 170.545875 
L 278.58935 170.545875 
L 278.58935 185.555881 
L 304.207549 185.555881 
L 304.207549 207.149052 
L 355.490736 207.149052 
L 355.490736 165.255028 
L 377.868642 165.255028 
L 377.868642 125.765708 
L 398.140942 125.765708 
L 398.140942 112.08369 
L 410.072706 112.08369 
L 410.072706 104.838237 
L 419.196996 104.838237 
L 419.196996 98.522296 
L 431.117061 98.522296 
L 431.117061 95.743825 
L 438.779125 95.743825 
L 438.779125 95.301143 
L 440.253049 95.301143 
" clip-path="url(#p1b8aac085a)" style="fill: none; stroke: #58b668; stroke-opacity: 0.25; stroke-linecap: square"/>
   </g>
   <g id="line2d_24">
    <path d="M 89.318826 120.228982 
L 89.318826 120.228982 
L 170.852544 120.228982 
L 170.852544 127.88215 
L 201.149865 127.88215 
L 201.149865 147.598023 
L 253.439064 147.598023 
L 253.439064 160.815686 
L 278.58935 160.815686 
L 278.58935 175.600929 
L 304.207549 175.600929 
L 304.207549 180.968598 
L 355.490736 180.968598 
L 355.490736 148.561278 
L 377.868642 148.561278 
L 377.868642 116.711727 
L 398.140942 116.711727 
L 398.140942 101.442947 
L 410.072706 101.442947 
L 410.072706 91.398887 
L 419.196996 91.398887 
L 419.196996 79.698477 
L 431.117061 79.698477 
L 431.117061 73.176587 
L 438.779125 73.176587 
L 438.779125 71.910435 
L 440.253049 71.910435 
" clip-path="url(#p1b8aac085a)" style="fill: none; stroke: #58b668; stroke-opacity: 0.25; stroke-linecap: square"/>
   </g>
   <g id="line2d_25">
    <path d="M 89.318826 123.290012 
L 89.318826 123.290012 
L 170.852544 123.290012 
L 170.852544 136.492128 
L 201.149865 136.492128 
L 201.149865 167.407962 
L 253.439064 167.407962 
L 253.439064 188.210492 
L 278.58935 188.210492 
L 278.58935 209.702003 
L 304.207549 209.702003 
L 304.207549 238.652697 
L 355.490736 238.652697 
L 355.490736 189.443861 
L 377.868642 189.443861 
L 377.868642 121.537551 
L 398.140942 121.537551 
L 398.140942 95.8059 
L 410.072706 95.8059 
L 410.072706 81.950279 
L 419.196996 81.950279 
L 419.196996 70.40199 
L 431.117061 70.40199 
L 431.117061 65.561118 
L 438.779125 65.561118 
L 438.779125 64.76169 
L 440.253049 64.76169 
" clip-path="url(#p1b8aac085a)" style="fill: none; stroke: #58b668; stroke-opacity: 0.25; stroke-linecap: square"/>
   </g>
   <g id="line2d_26">
    <path d="M 89.318826 122.991293 
L 89.318826 122.991293 
L 170.852544 122.991293 
L 170.852544 132.424249 
L 201.149865 132.424249 
L 201.149865 154.703919 
L 253.439064 154.703919 
L 253.439064 168.29633 
L 278.58935 168.29633 
L 278.58935 182.373079 
L 304.207549 182.373079 
L 304.207549 188.359495 
L 355.490736 188.359495 
L 355.490736 149.603845 
L 377.868642 149.603845 
L 377.868642 109.216517 
L 398.140942 109.216517 
L 398.140942 89.200287 
L 410.072706 89.200287 
L 410.072706 75.501935 
L 419.196996 75.501935 
L 419.196996 59.981193 
L 431.117061 59.981193 
L 431.117061 50.973083 
L 438.779125 50.973083 
L 438.779125 49.437548 
L 440.253049 49.437548 
" clip-path="url(#p1b8aac085a)" style="fill: none; stroke: #58b668; stroke-opacity: 0.25; stroke-linecap: square"/>
   </g>
   <g id="line2d_27">
    <path d="M 89.318826 133.415049 
L 89.318826 133.415049 
L 170.852544 133.415049 
L 170.852544 147.173366 
L 201.149865 147.173366 
L 201.149865 173.29017 
L 253.439064 173.29017 
L 253.439064 184.515826 
L 278.58935 184.515826 
L 278.58935 193.860632 
L 304.207549 193.860632 
L 304.207549 177.589015 
L 355.490736 177.589015 
L 355.490736 141.709217 
L 377.868642 141.709217 
L 377.868642 108.889656 
L 398.140942 108.889656 
L 398.140942 91.14051 
L 410.072706 91.14051 
L 410.072706 78.007627 
L 419.196996 78.007627 
L 419.196996 61.876312 
L 431.117061 61.876312 
L 431.117061 51.88193 
L 438.779125 51.88193 
L 438.779125 49.872858 
L 440.253049 49.872858 
" clip-path="url(#p1b8aac085a)" style="fill: none; stroke: #58b668; stroke-opacity: 0.25; stroke-linecap: square"/>
   </g>
   <g id="line2d_28">
    <path d="M 89.318826 130.759076 
L 89.318826 130.759076 
L 170.852544 130.759076 
L 170.852544 135.753634 
L 201.149865 135.753634 
L 201.149865 153.897267 
L 253.439064 153.897267 
L 253.439064 167.458528 
L 278.58935 167.458528 
L 278.58935 183.469465 
L 304.207549 183.469465 
L 304.207549 198.96738 
L 355.490736 198.96738 
L 355.490736 157.186491 
L 377.868642 157.186491 
L 377.868642 114.81892 
L 398.140942 114.81892 
L 398.140942 98.061027 
L 410.072706 98.061027 
L 410.072706 88.365143 
L 419.196996 88.365143 
L 419.196996 78.717981 
L 431.117061 78.717981 
L 431.117061 74.229267 
L 438.779125 74.229267 
L 438.779125 73.512909 
L 440.253049 73.512909 
" clip-path="url(#p1b8aac085a)" style="fill: none; stroke: #58b668; stroke-opacity: 0.25; stroke-linecap: square"/>
   </g>
   <g id="line2d_29">
    <path d="M 89.318826 118.961083 
L 89.318826 118.961083 
L 170.852544 118.961083 
L 170.852544 140.897917 
L 201.149865 140.897917 
L 201.149865 171.284005 
L 253.439064 171.284005 
L 253.439064 182.902337 
L 278.58935 182.902337 
L 278.58935 191.111599 
L 304.207549 191.111599 
L 304.207549 173.378242 
L 355.490736 173.378242 
L 355.490736 144.431501 
L 377.868642 144.431501 
L 377.868642 116.122154 
L 398.140942 116.122154 
L 398.140942 100.922337 
L 410.072706 100.922337 
L 410.072706 89.713544 
L 419.196996 89.713544 
L 419.196996 75.684542 
L 431.117061 75.684542 
L 431.117061 66.575735 
L 438.779125 66.575735 
L 438.779125 64.796442 
L 440.253049 64.796442 
" clip-path="url(#p1b8aac085a)" style="fill: none; stroke: #58b668; stroke-opacity: 0.25; stroke-linecap: square"/>
   </g>
   <g id="line2d_30">
    <path d="M 89.318826 132.258973 
L 89.318826 132.258973 
L 170.852544 132.258973 
L 170.852544 145.342272 
L 201.149865 145.342272 
L 201.149865 174.36256 
L 253.439064 174.36256 
L 253.439064 192.828 
L 278.58935 192.828 
L 278.58935 209.993039 
L 304.207549 209.993039 
L 304.207549 218.637765 
L 355.490736 218.637765 
L 355.490736 174.46644 
L 377.868642 174.46644 
L 377.868642 124.421683 
L 398.140942 124.421683 
L 398.140942 101.546348 
L 410.072706 101.546348 
L 410.072706 87.386423 
L 419.196996 87.386423 
L 419.196996 73.029339 
L 431.117061 73.029339 
L 431.117061 65.611784 
L 438.779125 65.611784 
L 438.779125 64.248498 
L 440.253049 64.248498 
" clip-path="url(#p1b8aac085a)" style="fill: none; stroke: #58b668; stroke-opacity: 0.25; stroke-linecap: square"/>
   </g>
   <g id="line2d_31">
    <path d="M 89.318826 128.013299 
L 89.318826 128.013299 
L 170.852544 128.013299 
L 170.852544 143.440823 
L 201.149865 143.440823 
L 201.149865 166.967197 
L 253.439064 166.967197 
L 253.439064 176.092313 
L 278.58935 176.092313 
L 278.58935 179.192667 
L 304.207549 179.192667 
L 304.207549 158.844607 
L 355.490736 158.844607 
L 355.490736 136.84568 
L 377.868642 136.84568 
L 377.868642 114.951594 
L 398.140942 114.951594 
L 398.140942 102.149798 
L 410.072706 102.149798 
L 410.072706 91.967963 
L 419.196996 91.967963 
L 419.196996 78.717555 
L 431.117061 78.717555 
L 431.117061 70.6155 
L 438.779125 70.6155 
L 438.779125 69.03165 
L 440.253049 69.03165 
" clip-path="url(#p1b8aac085a)" style="fill: none; stroke: #58b668; stroke-opacity: 0.25; stroke-linecap: square"/>
   </g>
   <g id="line2d_32">
    <path d="M 89.318826 146.678318 
L 89.318826 146.678318 
L 170.852544 146.678318 
L 170.852544 151.702139 
L 201.149865 151.702139 
L 201.149865 169.779278 
L 253.439064 169.779278 
L 253.439064 183.873471 
L 278.58935 183.873471 
L 278.58935 199.009509 
L 304.207549 199.009509 
L 304.207549 208.460197 
L 355.490736 208.460197 
L 355.490736 167.74243 
L 377.868642 167.74243 
L 377.868642 126.410348 
L 398.140942 126.410348 
L 398.140942 105.730655 
L 410.072706 105.730655 
L 410.072706 91.871012 
L 419.196996 91.871012 
L 419.196996 76.078042 
L 431.117061 76.078042 
L 431.117061 67.046637 
L 438.779125 67.046637 
L 438.779125 65.370758 
L 440.253049 65.370758 
" clip-path="url(#p1b8aac085a)" style="fill: none; stroke: #58b668; stroke-opacity: 0.25; stroke-linecap: square"/>
   </g>
   <g id="line2d_33">
    <path d="M 89.318826 126.237935 
L 89.318826 126.237935 
L 170.852544 126.237935 
L 170.852544 133.12946 
L 201.149865 133.12946 
L 201.149865 154.21244 
L 253.439064 154.21244 
L 253.439064 169.731032 
L 278.58935 169.731032 
L 278.58935 187.453871 
L 304.207549 187.453871 
L 304.207549 209.401315 
L 355.490736 209.401315 
L 355.490736 162.863358 
L 377.868642 162.863358 
L 377.868642 113.9738 
L 398.140942 113.9738 
L 398.140942 94.615249 
L 410.072706 94.615249 
L 410.072706 83.171251 
L 419.196996 83.171251 
L 419.196996 71.528424 
L 431.117061 71.528424 
L 431.117061 65.528858 
L 438.779125 65.528858 
L 438.779125 64.435214 
L 440.253049 64.435214 
" clip-path="url(#p1b8aac085a)" style="fill: none; stroke: #58b668; stroke-opacity: 0.25; stroke-linecap: square"/>
   </g>
   <g id="line2d_34">
    <path d="M 89.318826 149.270373 
L 89.318826 149.270373 
L 170.852544 149.270373 
L 170.852544 159.475625 
L 201.149865 159.475625 
L 201.149865 180.417698 
L 253.439064 180.417698 
L 253.439064 189.364433 
L 278.58935 189.364433 
L 278.58935 194.899639 
L 304.207549 194.899639 
L 304.207549 170.879504 
L 355.490736 170.879504 
L 355.490736 137.135229 
L 377.868642 137.135229 
L 377.868642 110.604056 
L 398.140942 110.604056 
L 398.140942 99.181118 
L 410.072706 99.181118 
L 410.072706 91.848868 
L 419.196996 91.848868 
L 419.196996 84.389337 
L 431.117061 84.389337 
L 431.117061 80.391088 
L 438.779125 80.391088 
L 438.779125 79.731256 
L 440.253049 79.731256 
" clip-path="url(#p1b8aac085a)" style="fill: none; stroke: #58b668; stroke-opacity: 0.25; stroke-linecap: square"/>
   </g>
   <g id="line2d_35">
    <path d="M 89.318826 127.835769 
L 89.318826 127.835769 
L 170.852544 127.835769 
L 170.852544 140.035826 
L 201.149865 140.035826 
L 201.149865 162.980151 
L 253.439064 162.980151 
L 253.439064 176.5116 
L 278.58935 176.5116 
L 278.58935 191.293168 
L 304.207549 191.293168 
L 304.207549 192.713012 
L 355.490736 192.713012 
L 355.490736 153.456915 
L 377.868642 153.456915 
L 377.868642 119.901976 
L 398.140942 119.901976 
L 398.140942 105.336402 
L 410.072706 105.336402 
L 410.072706 95.930196 
L 419.196996 95.930196 
L 419.196996 85.508149 
L 431.117061 85.508149 
L 431.117061 79.995284 
L 438.779125 79.995284 
L 438.779125 79.06576 
L 440.253049 79.06576 
" clip-path="url(#p1b8aac085a)" style="fill: none; stroke: #58b668; stroke-opacity: 0.25; stroke-linecap: square"/>
   </g>
   <g id="line2d_36">
    <path d="M 89.318826 150.267217 
L 89.318826 150.267217 
L 170.852544 150.267217 
L 170.852544 151.786167 
L 201.149865 151.786167 
L 201.149865 162.929957 
L 253.439064 162.929957 
L 253.439064 173.20805 
L 278.58935 173.20805 
L 278.58935 186.027505 
L 304.207549 186.027505 
L 304.207549 202.633752 
L 355.490736 202.633752 
L 355.490736 162.876068 
L 377.868642 162.876068 
L 377.868642 114.224925 
L 398.140942 114.224925 
L 398.140942 92.195729 
L 410.072706 92.195729 
L 410.072706 78.086673 
L 419.196996 78.086673 
L 419.196996 62.821875 
L 431.117061 62.821875 
L 431.117061 54.597498 
L 438.779125 54.597498 
L 438.779125 53.357613 
L 440.253049 53.357613 
" clip-path="url(#p1b8aac085a)" style="fill: none; stroke: #58b668; stroke-opacity: 0.25; stroke-linecap: square"/>
   </g>
   <g id="line2d_37">
    <path d="M 89.318826 136.927209 
L 89.318826 136.927209 
L 170.852544 136.927209 
L 170.852544 148.213419 
L 201.149865 148.213419 
L 201.149865 173.57722 
L 253.439064 173.57722 
L 253.439064 188.139026 
L 278.58935 188.139026 
L 278.58935 202.252916 
L 304.207549 202.252916 
L 304.207549 199.160769 
L 355.490736 199.160769 
L 355.490736 160.33896 
L 377.868642 160.33896 
L 377.868642 122.664097 
L 398.140942 122.664097 
L 398.140942 105.001014 
L 410.072706 105.001014 
L 410.072706 93.389086 
L 419.196996 93.389086 
L 419.196996 80.450734 
L 431.117061 80.450734 
L 431.117061 73.173797 
L 438.779125 73.173797 
L 438.779125 71.818529 
L 440.253049 71.818529 
" clip-path="url(#p1b8aac085a)" style="fill: none; stroke: #58b668; stroke-opacity: 0.25; stroke-linecap: square"/>
   </g>
   <g id="line2d_38">
    <path d="M 89.318826 111.048838 
L 89.318826 111.048838 
L 170.852544 111.048838 
L 170.852544 119.444406 
L 201.149865 119.444406 
L 201.149865 142.937009 
L 253.439064 142.937009 
L 253.439064 159.742839 
L 278.58935 159.742839 
L 278.58935 179.622034 
L 304.207549 179.622034 
L 304.207549 198.938748 
L 355.490736 198.938748 
L 355.490736 159.237834 
L 377.868642 159.237834 
L 377.868642 114.923712 
L 398.140942 114.923712 
L 398.140942 93.393415 
L 410.072706 93.393415 
L 410.072706 79.174729 
L 419.196996 79.174729 
L 419.196996 62.997277 
L 431.117061 62.997277 
L 431.117061 54.104835 
L 438.779125 54.104835 
L 438.779125 52.511329 
L 440.253049 52.511329 
" clip-path="url(#p1b8aac085a)" style="fill: none; stroke: #58b668; stroke-opacity: 0.25; stroke-linecap: square"/>
   </g>
   <g id="line2d_39">
    <path d="M 89.318826 126.527079 
L 89.318826 126.527079 
L 170.852544 126.527079 
L 170.852544 138.377702 
L 201.149865 138.377702 
L 201.149865 162.046313 
L 253.439064 162.046313 
L 253.439064 175.601625 
L 278.58935 175.601625 
L 278.58935 188.305244 
L 304.207549 188.305244 
L 304.207549 181.586245 
L 355.490736 181.586245 
L 355.490736 150.072679 
L 377.868642 150.072679 
L 377.868642 118.345924 
L 398.140942 118.345924 
L 398.140942 101.35935 
L 410.072706 101.35935 
L 410.072706 89.435866 
L 419.196996 89.435866 
L 419.196996 74.512025 
L 431.117061 74.512025 
L 431.117061 64.90395 
L 438.779125 64.90395 
L 438.779125 63.108435 
L 440.253049 63.108435 
" clip-path="url(#p1b8aac085a)" style="fill: none; stroke: #58b668; stroke-opacity: 0.25; stroke-linecap: square"/>
   </g>
   <g id="line2d_40">
    <path d="M 89.318826 157.290111 
L 89.318826 157.290111 
L 170.852544 157.290111 
L 170.852544 159.738018 
L 201.149865 159.738018 
L 201.149865 169.805339 
L 253.439064 169.805339 
L 253.439064 177.48259 
L 278.58935 177.48259 
L 278.58935 186.859713 
L 304.207549 186.859713 
L 304.207549 186.690155 
L 355.490736 186.690155 
L 355.490736 154.326431 
L 377.868642 154.326431 
L 377.868642 115.821615 
L 398.140942 115.821615 
L 398.140942 94.902901 
L 410.072706 94.902901 
L 410.072706 80.870745 
L 419.196996 80.870745 
L 419.196996 63.737591 
L 431.117061 63.737591 
L 431.117061 54.369314 
L 438.779125 54.369314 
L 438.779125 52.796253 
L 440.253049 52.796253 
" clip-path="url(#p1b8aac085a)" style="fill: none; stroke: #58b668; stroke-opacity: 0.25; stroke-linecap: square"/>
   </g>
   <g id="line2d_41">
    <path d="M 89.318826 106.807062 
L 89.318826 106.807062 
L 170.852544 106.807062 
L 170.852544 127.222866 
L 201.149865 127.222866 
L 201.149865 162.690338 
L 253.439064 162.690338 
L 253.439064 177.772287 
L 278.58935 177.772287 
L 278.58935 189.568808 
L 304.207549 189.568808 
L 304.207549 179.16598 
L 355.490736 179.16598 
L 355.490736 150.428062 
L 377.868642 150.428062 
L 377.868642 120.030463 
L 398.140942 120.030463 
L 398.140942 103.118122 
L 410.072706 103.118122 
L 410.072706 90.772807 
L 419.196996 90.772807 
L 419.196996 75.243509 
L 431.117061 75.243509 
L 431.117061 65.900732 
L 438.779125 65.900732 
L 438.779125 64.083397 
L 440.253049 64.083397 
" clip-path="url(#p1b8aac085a)" style="fill: none; stroke: #58b668; stroke-opacity: 0.25; stroke-linecap: square"/>
   </g>
   <g id="line2d_42">
    <path d="M 89.318826 139.043188 
L 89.318826 139.043188 
L 170.852544 139.043188 
L 170.852544 146.151994 
L 201.149865 146.151994 
L 201.149865 163.323236 
L 253.439064 163.323236 
L 253.439064 175.834042 
L 278.58935 175.834042 
L 278.58935 190.963068 
L 304.207549 190.963068 
L 304.207549 200.466407 
L 355.490736 200.466407 
L 355.490736 155.835347 
L 377.868642 155.835347 
L 377.868642 121.517083 
L 398.140942 121.517083 
L 398.140942 108.396809 
L 410.072706 108.396809 
L 410.072706 100.646209 
L 419.196996 100.646209 
L 419.196996 92.464446 
L 431.117061 92.464446 
L 431.117061 88.347837 
L 438.779125 88.347837 
L 438.779125 87.624946 
L 440.253049 87.624946 
" clip-path="url(#p1b8aac085a)" style="fill: none; stroke: #58b668; stroke-opacity: 0.25; stroke-linecap: square"/>
   </g>
   <g id="line2d_43">
    <path d="M 89.318826 156.530974 
L 89.318826 156.530974 
L 170.852544 156.530974 
L 170.852544 162.389319 
L 201.149865 162.389319 
L 201.149865 180.565417 
L 253.439064 180.565417 
L 253.439064 192.738401 
L 278.58935 192.738401 
L 278.58935 209.341079 
L 304.207549 209.341079 
L 304.207549 210.907646 
L 355.490736 210.907646 
L 355.490736 168.561821 
L 377.868642 168.561821 
L 377.868642 123.930406 
L 398.140942 123.930406 
L 398.140942 104.141556 
L 410.072706 104.141556 
L 410.072706 91.522629 
L 419.196996 91.522629 
L 419.196996 78.259303 
L 431.117061 78.259303 
L 431.117061 71.485952 
L 438.779125 71.485952 
L 438.779125 70.168699 
L 440.253049 70.168699 
" clip-path="url(#p1b8aac085a)" style="fill: none; stroke: #58b668; stroke-opacity: 0.25; stroke-linecap: square"/>
   </g>
   <g id="line2d_44">
    <path d="M 89.318826 148.513136 
L 89.318826 148.513136 
L 170.852544 148.513136 
L 170.852544 153.730814 
L 201.149865 153.730814 
L 201.149865 167.929865 
L 253.439064 167.929865 
L 253.439064 179.104794 
L 278.58935 179.104794 
L 278.58935 193.136219 
L 304.207549 193.136219 
L 304.207549 199.226569 
L 355.490736 199.226569 
L 355.490736 160.665661 
L 377.868642 160.665661 
L 377.868642 120.156747 
L 398.140942 120.156747 
L 398.140942 100.665088 
L 410.072706 100.665088 
L 410.072706 87.838424 
L 419.196996 87.838424 
L 419.196996 73.243194 
L 431.117061 73.243194 
L 431.117061 64.824679 
L 438.779125 64.824679 
L 438.779125 63.403199 
L 440.253049 63.403199 
" clip-path="url(#p1b8aac085a)" style="fill: none; stroke: #58b668; stroke-opacity: 0.25; stroke-linecap: square"/>
   </g>
   <g id="line2d_45">
    <path d="M 89.318826 150.857832 
L 89.318826 150.857832 
L 170.852544 150.857832 
L 170.852544 154.626433 
L 201.149865 154.626433 
L 201.149865 163.990549 
L 253.439064 163.990549 
L 253.439064 170.227415 
L 278.58935 170.227415 
L 278.58935 176.356234 
L 304.207549 176.356234 
L 304.207549 169.973891 
L 355.490736 169.973891 
L 355.490736 147.486089 
L 377.868642 147.486089 
L 377.868642 122.209478 
L 398.140942 122.209478 
L 398.140942 107.536299 
L 410.072706 107.536299 
L 410.072706 96.837203 
L 419.196996 96.837203 
L 419.196996 82.461817 
L 431.117061 82.461817 
L 431.117061 73.704846 
L 438.779125 73.704846 
L 438.779125 72.074175 
L 440.253049 72.074175 
" clip-path="url(#p1b8aac085a)" style="fill: none; stroke: #58b668; stroke-opacity: 0.25; stroke-linecap: square"/>
   </g>
   <g id="line2d_46">
    <path d="M 89.318826 128.609097 
L 89.318826 128.609097 
L 170.852544 128.609097 
L 170.852544 153.212519 
L 201.149865 153.212519 
L 201.149865 185.919121 
L 253.439064 185.919121 
L 253.439064 193.401303 
L 278.58935 193.401303 
L 278.58935 193.898261 
L 304.207549 193.898261 
L 304.207549 168.014988 
L 355.490736 168.014988 
L 355.490736 145.623071 
L 377.868642 145.623071 
L 377.868642 120.611184 
L 398.140942 120.611184 
L 398.140942 103.992195 
L 410.072706 103.992195 
L 410.072706 89.757106 
L 419.196996 89.757106 
L 419.196996 69.595039 
L 431.117061 69.595039 
L 431.117061 55.492435 
L 438.779125 55.492435 
L 438.779125 52.750778 
L 440.253049 52.750778 
" clip-path="url(#p1b8aac085a)" style="fill: none; stroke: #58b668; stroke-opacity: 0.25; stroke-linecap: square"/>
   </g>
   <g id="line2d_47">
    <path d="M 89.318826 138.138364 
L 89.318826 138.138364 
L 170.852544 138.138364 
L 170.852544 149.685691 
L 201.149865 149.685691 
L 201.149865 174.487499 
L 253.439064 174.487499 
L 253.439064 189.609646 
L 278.58935 189.609646 
L 278.58935 205.250774 
L 304.207549 205.250774 
L 304.207549 209.70172 
L 355.490736 209.70172 
L 355.490736 160.716647 
L 377.868642 160.716647 
L 377.868642 121.142607 
L 398.140942 121.142607 
L 398.140942 106.501287 
L 410.072706 106.501287 
L 410.072706 98.326384 
L 419.196996 98.326384 
L 419.196996 90.617643 
L 431.117061 90.617643 
L 431.117061 86.990043 
L 438.779125 86.990043 
L 438.779125 86.38187 
L 440.253049 86.38187 
" clip-path="url(#p1b8aac085a)" style="fill: none; stroke: #58b668; stroke-opacity: 0.25; stroke-linecap: square"/>
   </g>
   <g id="line2d_48">
    <path d="M 89.318826 140.170522 
L 89.318826 140.170522 
L 170.852544 140.170522 
L 170.852544 145.487917 
L 201.149865 145.487917 
L 201.149865 165.745674 
L 253.439064 165.745674 
L 253.439064 179.536294 
L 278.58935 179.536294 
L 278.58935 193.388192 
L 304.207549 193.388192 
L 304.207549 191.014479 
L 355.490736 191.014479 
L 355.490736 146.288506 
L 377.868642 146.288506 
L 377.868642 111.067202 
L 398.140942 111.067202 
L 398.140942 98.153671 
L 410.072706 98.153671 
L 410.072706 91.045074 
L 419.196996 91.045074 
L 419.196996 83.814243 
L 431.117061 83.814243 
L 431.117061 80.567207 
L 438.779125 80.567207 
L 438.779125 80.02655 
L 440.253049 80.02655 
" clip-path="url(#p1b8aac085a)" style="fill: none; stroke: #58b668; stroke-opacity: 0.25; stroke-linecap: square"/>
   </g>
   <g id="line2d_49">
    <path d="M 89.318826 110.382777 
L 89.318826 110.382777 
L 170.852544 110.382777 
L 170.852544 125.942855 
L 201.149865 125.942855 
L 201.149865 158.478511 
L 253.439064 158.478511 
L 253.439064 176.821828 
L 278.58935 176.821828 
L 278.58935 195.616399 
L 304.207549 195.616399 
L 304.207549 204.030619 
L 355.490736 204.030619 
L 355.490736 165.706371 
L 377.868642 165.706371 
L 377.868642 124.644567 
L 398.140942 124.644567 
L 398.140942 101.376304 
L 410.072706 101.376304 
L 410.072706 84.099949 
L 419.196996 84.099949 
L 419.196996 61.834137 
L 431.117061 61.834137 
L 431.117061 47.09937 
L 438.779125 47.09937 
L 438.779125 44.278923 
L 440.253049 44.278923 
" clip-path="url(#p1b8aac085a)" style="fill: none; stroke: #58b668; stroke-opacity: 0.25; stroke-linecap: square"/>
   </g>
   <g id="line2d_50">
    <path d="M 89.318826 114.936587 
L 89.318826 114.936587 
L 170.852544 114.936587 
L 170.852544 127.789086 
L 201.149865 127.789086 
L 201.149865 157.923301 
L 253.439064 157.923301 
L 253.439064 176.586093 
L 278.58935 176.586093 
L 278.58935 198.025901 
L 304.207549 198.025901 
L 304.207549 213.700304 
L 355.490736 213.700304 
L 355.490736 166.676917 
L 377.868642 166.676917 
L 377.868642 122.327006 
L 398.140942 122.327006 
L 398.140942 101.861582 
L 410.072706 101.861582 
L 410.072706 88.46759 
L 419.196996 88.46759 
L 419.196996 73.555225 
L 431.117061 73.555225 
L 431.117061 65.117473 
L 438.779125 65.117473 
L 438.779125 63.656147 
L 440.253049 63.656147 
" clip-path="url(#p1b8aac085a)" style="fill: none; stroke: #58b668; stroke-opacity: 0.25; stroke-linecap: square"/>
   </g>
   <g id="line2d_51">
    <path d="M 89.318826 140.347074 
L 89.318826 140.347074 
L 170.852544 140.347074 
L 170.852544 141.124543 
L 201.149865 141.124543 
L 201.149865 154.24343 
L 253.439064 154.24343 
L 253.439064 167.272196 
L 278.58935 167.272196 
L 278.58935 182.320944 
L 304.207549 182.320944 
L 304.207549 196.172442 
L 355.490736 196.172442 
L 355.490736 153.91287 
L 377.868642 153.91287 
L 377.868642 111.766537 
L 398.140942 111.766537 
L 398.140942 95.697355 
L 410.072706 95.697355 
L 410.072706 86.682764 
L 419.196996 86.682764 
L 419.196996 78.619085 
L 431.117061 78.619085 
L 431.117061 74.825593 
L 438.779125 74.825593 
L 438.779125 74.294696 
L 440.253049 74.294696 
" clip-path="url(#p1b8aac085a)" style="fill: none; stroke: #58b668; stroke-opacity: 0.25; stroke-linecap: square"/>
   </g>
   <g id="line2d_52">
    <path d="M 89.318826 123.763994 
L 89.318826 123.763994 
L 170.852544 123.763994 
L 170.852544 131.156033 
L 201.149865 131.156033 
L 201.149865 154.49948 
L 253.439064 154.49948 
L 253.439064 169.647196 
L 278.58935 169.647196 
L 278.58935 188.299588 
L 304.207549 188.299588 
L 304.207549 203.192904 
L 355.490736 203.192904 
L 355.490736 161.016504 
L 377.868642 161.016504 
L 377.868642 119.846614 
L 398.140942 119.846614 
L 398.140942 103.371826 
L 410.072706 103.371826 
L 410.072706 93.652114 
L 419.196996 93.652114 
L 419.196996 83.844178 
L 431.117061 83.844178 
L 431.117061 78.775248 
L 438.779125 78.775248 
L 438.779125 77.840609 
L 440.253049 77.840609 
" clip-path="url(#p1b8aac085a)" style="fill: none; stroke: #58b668; stroke-opacity: 0.25; stroke-linecap: square"/>
   </g>
   <g id="line2d_53">
    <path d="M 89.318826 99.76185 
L 89.318826 99.76185 
L 170.852544 99.76185 
L 170.852544 115.175103 
L 201.149865 115.175103 
L 201.149865 148.695631 
L 253.439064 148.695631 
L 253.439064 165.133365 
L 278.58935 165.133365 
L 278.58935 182.087022 
L 304.207549 182.087022 
L 304.207549 196.866261 
L 355.490736 196.866261 
L 355.490736 160.204575 
L 377.868642 160.204575 
L 377.868642 119.707132 
L 398.140942 119.707132 
L 398.140942 101.61617 
L 410.072706 101.61617 
L 410.072706 90.385346 
L 419.196996 90.385346 
L 419.196996 78.328325 
L 431.117061 78.328325 
L 431.117061 71.787151 
L 438.779125 71.787151 
L 438.779125 70.655315 
L 440.253049 70.655315 
" clip-path="url(#p1b8aac085a)" style="fill: none; stroke: #58b668; stroke-opacity: 0.25; stroke-linecap: square"/>
   </g>
   <g id="line2d_54">
    <path d="M 89.318826 123.630981 
L 89.318826 123.630981 
L 170.852544 123.630981 
L 170.852544 142.431816 
L 201.149865 142.431816 
L 201.149865 176.137984 
L 253.439064 176.137984 
L 253.439064 194.290712 
L 278.58935 194.290712 
L 278.58935 208.125652 
L 304.207549 208.125652 
L 304.207549 197.479266 
L 355.490736 197.479266 
L 355.490736 156.449914 
L 377.868642 156.449914 
L 377.868642 120.672861 
L 398.140942 120.672861 
L 398.140942 103.829949 
L 410.072706 103.829949 
L 410.072706 92.108251 
L 419.196996 92.108251 
L 419.196996 78.341213 
L 431.117061 78.341213 
L 431.117061 70.602159 
L 438.779125 70.602159 
L 438.779125 69.097863 
L 440.253049 69.097863 
" clip-path="url(#p1b8aac085a)" style="fill: none; stroke: #58b668; stroke-opacity: 0.25; stroke-linecap: square"/>
   </g>
   <g id="line2d_55">
    <path d="M 89.318826 121.946529 
L 89.318826 121.946529 
L 170.852544 121.946529 
L 170.852544 132.539691 
L 201.149865 132.539691 
L 201.149865 158.141847 
L 253.439064 158.141847 
L 253.439064 174.20607 
L 278.58935 174.20607 
L 278.58935 194.00942 
L 304.207549 194.00942 
L 304.207549 214.682624 
L 355.490736 214.682624 
L 355.490736 168.188813 
L 377.868642 168.188813 
L 377.868642 120.405319 
L 398.140942 120.405319 
L 398.140942 98.574039 
L 410.072706 98.574039 
L 410.072706 84.330355 
L 419.196996 84.330355 
L 419.196996 68.039369 
L 431.117061 68.039369 
L 431.117061 58.187638 
L 438.779125 58.187638 
L 438.779125 56.433061 
L 440.253049 56.433061 
" clip-path="url(#p1b8aac085a)" style="fill: none; stroke: #58b668; stroke-opacity: 0.25; stroke-linecap: square"/>
   </g>
   <g id="line2d_56">
    <path d="M 89.318826 144.059221 
L 89.318826 144.059221 
L 170.852544 144.059221 
L 170.852544 155.19632 
L 201.149865 155.19632 
L 201.149865 177.513336 
L 253.439064 177.513336 
L 253.439064 190.661667 
L 278.58935 190.661667 
L 278.58935 204.127763 
L 304.207549 204.127763 
L 304.207549 199.061549 
L 355.490736 199.061549 
L 355.490736 147.783402 
L 377.868642 147.783402 
L 377.868642 107.393431 
L 398.140942 107.393431 
L 398.140942 92.727894 
L 410.072706 92.727894 
L 410.072706 84.480746 
L 419.196996 84.480746 
L 419.196996 77.178376 
L 431.117061 77.178376 
L 431.117061 73.753814 
L 438.779125 73.753814 
L 438.779125 73.241881 
L 440.253049 73.241881 
" clip-path="url(#p1b8aac085a)" style="fill: none; stroke: #58b668; stroke-opacity: 0.25; stroke-linecap: square"/>
   </g>
   <g id="line2d_57">
    <path d="M 89.318826 137.315888 
L 89.318826 137.315888 
L 170.852544 137.315888 
L 170.852544 151.832716 
L 201.149865 151.832716 
L 201.149865 175.915492 
L 253.439064 175.915492 
L 253.439064 185.128535 
L 278.58935 185.128535 
L 278.58935 191.067156 
L 304.207549 191.067156 
L 304.207549 172.513117 
L 355.490736 172.513117 
L 355.490736 143.310761 
L 377.868642 143.310761 
L 377.868642 115.242825 
L 398.140942 115.242825 
L 398.140942 99.634158 
L 410.072706 99.634158 
L 410.072706 88.162639 
L 419.196996 88.162639 
L 419.196996 73.815358 
L 431.117061 73.815358 
L 431.117061 64.621992 
L 438.779125 64.621992 
L 438.779125 63.00685 
L 440.253049 63.00685 
" clip-path="url(#p1b8aac085a)" style="fill: none; stroke: #58b668; stroke-opacity: 0.25; stroke-linecap: square"/>
   </g>
   <g id="line2d_58">
    <path d="M 89.318826 138.338909 
L 89.318826 138.338909 
L 170.852544 138.338909 
L 170.852544 146.814782 
L 201.149865 146.814782 
L 201.149865 166.689213 
L 253.439064 166.689213 
L 253.439064 177.898075 
L 278.58935 177.898075 
L 278.58935 190.212773 
L 304.207549 190.212773 
L 304.207549 197.943947 
L 355.490736 197.943947 
L 355.490736 163.035833 
L 377.868642 163.035833 
L 377.868642 118.543686 
L 398.140942 118.543686 
L 398.140942 98.114054 
L 410.072706 98.114054 
L 410.072706 85.382995 
L 419.196996 85.382995 
L 419.196996 71.423375 
L 431.117061 71.423375 
L 431.117061 64.120538 
L 438.779125 64.120538 
L 438.779125 62.972592 
L 440.253049 62.972592 
" clip-path="url(#p1b8aac085a)" style="fill: none; stroke: #58b668; stroke-opacity: 0.25; stroke-linecap: square"/>
   </g>
   <g id="line2d_59">
    <path d="M 89.318826 116.976395 
L 89.318826 116.976395 
L 170.852544 116.976395 
L 170.852544 123.253688 
L 201.149865 123.253688 
L 201.149865 146.189231 
L 253.439064 146.189231 
L 253.439064 165.625494 
L 278.58935 165.625494 
L 278.58935 192.003337 
L 304.207549 192.003337 
L 304.207549 238.733034 
L 355.490736 238.733034 
L 355.490736 183.946819 
L 377.868642 183.946819 
L 377.868642 123.951567 
L 398.140942 123.951567 
L 398.140942 101.002327 
L 410.072706 101.002327 
L 410.072706 88.509826 
L 419.196996 88.509826 
L 419.196996 76.249435 
L 431.117061 76.249435 
L 431.117061 70.465928 
L 438.779125 70.465928 
L 438.779125 69.518806 
L 440.253049 69.518806 
" clip-path="url(#p1b8aac085a)" style="fill: none; stroke: #58b668; stroke-opacity: 0.25; stroke-linecap: square"/>
   </g>
   <g id="line2d_60">
    <path d="M 89.318826 109.61333 
L 89.318826 109.61333 
L 170.852544 109.61333 
L 170.852544 123.301101 
L 201.149865 123.301101 
L 201.149865 152.661757 
L 253.439064 152.661757 
L 253.439064 171.741255 
L 278.58935 171.741255 
L 278.58935 194.144896 
L 304.207549 194.144896 
L 304.207549 220.947416 
L 355.490736 220.947416 
L 355.490736 170.044173 
L 377.868642 170.044173 
L 377.868642 119.17729 
L 398.140942 119.17729 
L 398.140942 99.944069 
L 410.072706 99.944069 
L 410.072706 88.914331 
L 419.196996 88.914331 
L 419.196996 78.254314 
L 431.117061 78.254314 
L 431.117061 72.75729 
L 438.779125 72.75729 
L 438.779125 71.833852 
L 440.253049 71.833852 
" clip-path="url(#p1b8aac085a)" style="fill: none; stroke: #58b668; stroke-opacity: 0.25; stroke-linecap: square"/>
   </g>
   <g id="line2d_61">
    <path d="M 89.318826 135.677118 
L 89.318826 135.677118 
L 170.852544 135.677118 
L 170.852544 142.731841 
L 201.149865 142.731841 
L 201.149865 161.603376 
L 253.439064 161.603376 
L 253.439064 173.276646 
L 278.58935 173.276646 
L 278.58935 185.798447 
L 304.207549 185.798447 
L 304.207549 182.592832 
L 355.490736 182.592832 
L 355.490736 146.651231 
L 377.868642 146.651231 
L 377.868642 113.0517 
L 398.140942 113.0517 
L 398.140942 96.123811 
L 410.072706 96.123811 
L 410.072706 85.087224 
L 419.196996 85.087224 
L 419.196996 72.132479 
L 431.117061 72.132479 
L 431.117061 64.989374 
L 438.779125 64.989374 
L 438.779125 63.744088 
L 440.253049 63.744088 
" clip-path="url(#p1b8aac085a)" style="fill: none; stroke: #58b668; stroke-opacity: 0.25; stroke-linecap: square"/>
   </g>
   <g id="line2d_62">
    <path d="M 89.318826 147.140374 
L 89.318826 147.140374 
L 170.852544 147.140374 
L 170.852544 149.755308 
L 201.149865 149.755308 
L 201.149865 165.681845 
L 253.439064 165.681845 
L 253.439064 179.037296 
L 278.58935 179.037296 
L 278.58935 194.822723 
L 304.207549 194.822723 
L 304.207549 212.034866 
L 355.490736 212.034866 
L 355.490736 162.55239 
L 377.868642 162.55239 
L 377.868642 118.732439 
L 398.140942 118.732439 
L 398.140942 103.828742 
L 410.072706 103.828742 
L 410.072706 96.367296 
L 419.196996 96.367296 
L 419.196996 89.69188 
L 431.117061 89.69188 
L 431.117061 86.737116 
L 438.779125 86.737116 
L 438.779125 86.331224 
L 440.253049 86.331224 
" clip-path="url(#p1b8aac085a)" style="fill: none; stroke: #58b668; stroke-opacity: 0.25; stroke-linecap: square"/>
   </g>
   <g id="line2d_63">
    <path d="M 89.318826 103.621671 
L 89.318826 103.621671 
L 170.852544 103.621671 
L 170.852544 119.468958 
L 201.149865 119.468958 
L 201.149865 153.412268 
L 253.439064 153.412268 
L 253.439064 173.727369 
L 278.58935 173.727369 
L 278.58935 194.987143 
L 304.207549 194.987143 
L 304.207549 217.621669 
L 355.490736 217.621669 
L 355.490736 163.958973 
L 377.868642 163.958973 
L 377.868642 114.246016 
L 398.140942 114.246016 
L 398.140942 97.278097 
L 410.072706 97.278097 
L 410.072706 88.514732 
L 419.196996 88.514732 
L 419.196996 80.387511 
L 431.117061 80.387511 
L 431.117061 76.903209 
L 438.779125 76.903209 
L 438.779125 76.335523 
L 440.253049 76.335523 
" clip-path="url(#p1b8aac085a)" style="fill: none; stroke: #58b668; stroke-opacity: 0.25; stroke-linecap: square"/>
   </g>
   <g id="line2d_64">
    <path d="M 89.318826 129.368373 
L 89.318826 129.368373 
L 170.852544 129.368373 
L 170.852544 136.756276 
L 201.149865 136.756276 
L 201.149865 158.216676 
L 253.439064 158.216676 
L 253.439064 174.694361 
L 278.58935 174.694361 
L 278.58935 196.679829 
L 304.207549 196.679829 
L 304.207549 233.9903 
L 355.490736 233.9903 
L 355.490736 178.743672 
L 377.868642 178.743672 
L 377.868642 120.856584 
L 398.140942 120.856584 
L 398.140942 99.177204 
L 410.072706 99.177204 
L 410.072706 86.61776 
L 419.196996 86.61776 
L 419.196996 74.826677 
L 431.117061 74.826677 
L 431.117061 68.710122 
L 438.779125 68.710122 
L 438.779125 67.614874 
L 440.253049 67.614874 
" clip-path="url(#p1b8aac085a)" style="fill: none; stroke: #58b668; stroke-opacity: 0.25; stroke-linecap: square"/>
   </g>
   <g id="line2d_65">
    <path d="M 89.318826 117.669315 
L 89.318826 117.669315 
L 170.852544 117.669315 
L 170.852544 129.171582 
L 201.149865 129.171582 
L 201.149865 155.898678 
L 253.439064 155.898678 
L 253.439064 172.197429 
L 278.58935 172.197429 
L 278.58935 187.821463 
L 304.207549 187.821463 
L 304.207549 197.814766 
L 355.490736 197.814766 
L 355.490736 157.794871 
L 377.868642 157.794871 
L 377.868642 114.606826 
L 398.140942 114.606826 
L 398.140942 96.280112 
L 410.072706 96.280112 
L 410.072706 85.379746 
L 419.196996 85.379746 
L 419.196996 74.285072 
L 431.117061 74.285072 
L 431.117061 68.655341 
L 438.779125 68.655341 
L 438.779125 67.699644 
L 440.253049 67.699644 
" clip-path="url(#p1b8aac085a)" style="fill: none; stroke: #58b668; stroke-opacity: 0.25; stroke-linecap: square"/>
   </g>
   <g id="line2d_66">
    <path d="M 89.318826 117.809477 
L 89.318826 117.809477 
L 170.852544 117.809477 
L 170.852544 128.215508 
L 201.149865 128.215508 
L 201.149865 154.021842 
L 253.439064 154.021842 
L 253.439064 170.496962 
L 278.58935 170.496962 
L 278.58935 191.489762 
L 304.207549 191.489762 
L 304.207549 215.201164 
L 355.490736 215.201164 
L 355.490736 173.535818 
L 377.868642 173.535818 
L 377.868642 120.3142 
L 398.140942 120.3142 
L 398.140942 100.267997 
L 410.072706 100.267997 
L 410.072706 90.038648 
L 419.196996 90.038648 
L 419.196996 80.773471 
L 431.117061 80.773471 
L 431.117061 76.526458 
L 438.779125 76.526458 
L 438.779125 75.914538 
L 440.253049 75.914538 
" clip-path="url(#p1b8aac085a)" style="fill: none; stroke: #58b668; stroke-opacity: 0.25; stroke-linecap: square"/>
   </g>
   <g id="line2d_67">
    <path d="M 89.318826 143.797272 
L 89.318826 143.797272 
L 170.852544 143.797272 
L 170.852544 149.101756 
L 201.149865 149.101756 
L 201.149865 166.41938 
L 253.439064 166.41938 
L 253.439064 178.761127 
L 278.58935 178.761127 
L 278.58935 191.175186 
L 304.207549 191.175186 
L 304.207549 189.706849 
L 355.490736 189.706849 
L 355.490736 152.646496 
L 377.868642 152.646496 
L 377.868642 113.713015 
L 398.140942 113.713015 
L 398.140942 94.114555 
L 410.072706 94.114555 
L 410.072706 80.39259 
L 419.196996 80.39259 
L 419.196996 64.398858 
L 431.117061 64.398858 
L 431.117061 55.09915 
L 438.779125 55.09915 
L 438.779125 53.419119 
L 440.253049 53.419119 
" clip-path="url(#p1b8aac085a)" style="fill: none; stroke: #58b668; stroke-opacity: 0.25; stroke-linecap: square"/>
   </g>
   <g id="line2d_68">
    <path d="M 89.318826 136.661194 
L 89.318826 136.661194 
L 170.852544 136.661194 
L 170.852544 149.578703 
L 201.149865 149.578703 
L 201.149865 176.00076 
L 253.439064 176.00076 
L 253.439064 187.933969 
L 278.58935 187.933969 
L 278.58935 195.767509 
L 304.207549 195.767509 
L 304.207549 180.898081 
L 355.490736 180.898081 
L 355.490736 150.20757 
L 377.868642 150.20757 
L 377.868642 123.778276 
L 398.140942 123.778276 
L 398.140942 110.606597 
L 410.072706 110.606597 
L 410.072706 101.458475 
L 419.196996 101.458475 
L 419.196996 91.089113 
L 431.117061 91.089113 
L 431.117061 85.328747 
L 438.779125 85.328747 
L 438.779125 84.249321 
L 440.253049 84.249321 
" clip-path="url(#p1b8aac085a)" style="fill: none; stroke: #58b668; stroke-opacity: 0.25; stroke-linecap: square"/>
   </g>
   <g id="line2d_69">
    <path d="M 89.318826 154.767755 
L 89.318826 154.767755 
L 170.852544 154.767755 
L 170.852544 151.709202 
L 201.149865 151.709202 
L 201.149865 154.630269 
L 253.439064 154.630269 
L 253.439064 163.582927 
L 278.58935 163.582927 
L 278.58935 177.06202 
L 304.207549 177.06202 
L 304.207549 188.839249 
L 355.490736 188.839249 
L 355.490736 157.584038 
L 377.868642 157.584038 
L 377.868642 114.820636 
L 398.140942 114.820636 
L 398.140942 93.313504 
L 410.072706 93.313504 
L 410.072706 77.521583 
L 419.196996 77.521583 
L 419.196996 59.36612 
L 431.117061 59.36612 
L 431.117061 49.167986 
L 438.779125 49.167986 
L 438.779125 47.325528 
L 440.253049 47.325528 
" clip-path="url(#p1b8aac085a)" style="fill: none; stroke: #58b668; stroke-opacity: 0.25; stroke-linecap: square"/>
   </g>
   <g id="line2d_70">
    <path d="M 89.318826 117.659478 
L 89.318826 117.659478 
L 170.852544 117.659478 
L 170.852544 128.003755 
L 201.149865 128.003755 
L 201.149865 154.055071 
L 253.439064 154.055071 
L 253.439064 170.518937 
L 278.58935 170.518937 
L 278.58935 189.845005 
L 304.207549 189.845005 
L 304.207549 206.786588 
L 355.490736 206.786588 
L 355.490736 162.98432 
L 377.868642 162.98432 
L 377.868642 123.046603 
L 398.140942 123.046603 
L 398.140942 107.430542 
L 410.072706 107.430542 
L 410.072706 98.489289 
L 419.196996 98.489289 
L 419.196996 89.816117 
L 431.117061 89.816117 
L 431.117061 85.635319 
L 438.779125 85.635319 
L 438.779125 84.932159 
L 440.253049 84.932159 
" clip-path="url(#p1b8aac085a)" style="fill: none; stroke: #58b668; stroke-opacity: 0.25; stroke-linecap: square"/>
   </g>
   <g id="line2d_71">
    <path d="M 89.318826 126.827314 
L 89.318826 126.827314 
L 170.852544 126.827314 
L 170.852544 132.558754 
L 201.149865 132.558754 
L 201.149865 149.383391 
L 253.439064 149.383391 
L 253.439064 161.114377 
L 278.58935 161.114377 
L 278.58935 175.614154 
L 304.207549 175.614154 
L 304.207549 193.986241 
L 355.490736 193.986241 
L 355.490736 158.581287 
L 377.868642 158.581287 
L 377.868642 119.801816 
L 398.140942 119.801816 
L 398.140942 103.421834 
L 410.072706 103.421834 
L 410.072706 93.8369 
L 419.196996 93.8369 
L 419.196996 83.999232 
L 431.117061 83.999232 
L 431.117061 79.235689 
L 438.779125 79.235689 
L 438.779125 78.365957 
L 440.253049 78.365957 
" clip-path="url(#p1b8aac085a)" style="fill: none; stroke: #58b668; stroke-opacity: 0.25; stroke-linecap: square"/>
   </g>
   <g id="line2d_72">
    <path d="M 89.318826 132.873203 
L 89.318826 132.873203 
L 170.852544 132.873203 
L 170.852544 140.154468 
L 201.149865 140.154468 
L 201.149865 160.613374 
L 253.439064 160.613374 
L 253.439064 176.461328 
L 278.58935 176.461328 
L 278.58935 196.17455 
L 304.207549 196.17455 
L 304.207549 218.000802 
L 355.490736 218.000802 
L 355.490736 164.316485 
L 377.868642 164.316485 
L 377.868642 118.263552 
L 398.140942 118.263552 
L 398.140942 100.612607 
L 410.072706 100.612607 
L 410.072706 90.203917 
L 419.196996 90.203917 
L 419.196996 79.989843 
L 431.117061 79.989843 
L 431.117061 74.985497 
L 438.779125 74.985497 
L 438.779125 73.986259 
L 440.253049 73.986259 
" clip-path="url(#p1b8aac085a)" style="fill: none; stroke: #58b668; stroke-opacity: 0.25; stroke-linecap: square"/>
   </g>
   <g id="line2d_73">
    <path d="M 89.318826 150.461495 
L 89.318826 150.461495 
L 170.852544 150.461495 
L 170.852544 151.030393 
L 201.149865 151.030393 
L 201.149865 153.659175 
L 253.439064 153.659175 
L 253.439064 154.635641 
L 278.58935 154.635641 
L 278.58935 154.647884 
L 304.207549 154.647884 
L 304.207549 144.130166 
L 355.490736 144.130166 
L 355.490736 130.444505 
L 377.868642 130.444505 
L 377.868642 112.335886 
L 398.140942 112.335886 
L 398.140942 98.855503 
L 410.072706 98.855503 
L 410.072706 87.293253 
L 419.196996 87.293253 
L 419.196996 69.593439 
L 431.117061 69.593439 
L 431.117061 57.280875 
L 438.779125 57.280875 
L 438.779125 54.806441 
L 440.253049 54.806441 
" clip-path="url(#p1b8aac085a)" style="fill: none; stroke: #58b668; stroke-opacity: 0.25; stroke-linecap: square"/>
   </g>
   <g id="line2d_74">
    <path d="M 89.318826 151.549698 
L 89.318826 151.549698 
L 170.852544 151.549698 
L 170.852544 160.384802 
L 201.149865 160.384802 
L 201.149865 180.881517 
L 253.439064 180.881517 
L 253.439064 194.546395 
L 278.58935 194.546395 
L 278.58935 209.060831 
L 304.207549 209.060831 
L 304.207549 208.611909 
L 355.490736 208.611909 
L 355.490736 165.321453 
L 377.868642 165.321453 
L 377.868642 131.740284 
L 398.140942 131.740284 
L 398.140942 117.46402 
L 410.072706 117.46402 
L 410.072706 108.748606 
L 419.196996 108.748606 
L 419.196996 99.280666 
L 431.117061 99.280666 
L 431.117061 94.103714 
L 438.779125 94.103714 
L 438.779125 93.130306 
L 440.253049 93.130306 
" clip-path="url(#p1b8aac085a)" style="fill: none; stroke: #58b668; stroke-opacity: 0.25; stroke-linecap: square"/>
   </g>
   <g id="line2d_75">
    <path d="M 89.318826 131.533562 
L 89.318826 131.533562 
L 170.852544 131.533562 
L 170.852544 142.258746 
L 201.149865 142.258746 
L 201.149865 164.306075 
L 253.439064 164.306075 
L 253.439064 176.975605 
L 278.58935 176.975605 
L 278.58935 189.917062 
L 304.207549 189.917062 
L 304.207549 191.861078 
L 355.490736 191.861078 
L 355.490736 159.524218 
L 377.868642 159.524218 
L 377.868642 121.386484 
L 398.140942 121.386484 
L 398.140942 98.49656 
L 410.072706 98.49656 
L 410.072706 80.641803 
L 419.196996 80.641803 
L 419.196996 57.115284 
L 431.117061 57.115284 
L 431.117061 41.485726 
L 438.779125 41.485726 
L 438.779125 38.399657 
L 440.253049 38.399657 
" clip-path="url(#p1b8aac085a)" style="fill: none; stroke: #58b668; stroke-opacity: 0.25; stroke-linecap: square"/>
   </g>
   <g id="line2d_76">
    <path d="M 89.318826 146.57535 
L 89.318826 146.57535 
L 170.852544 146.57535 
L 170.852544 160.150488 
L 201.149865 160.150488 
L 201.149865 184.398522 
L 253.439064 184.398522 
L 253.439064 193.225666 
L 278.58935 193.225666 
L 278.58935 199.616636 
L 304.207549 199.616636 
L 304.207549 180.102338 
L 355.490736 180.102338 
L 355.490736 150.783998 
L 377.868642 150.783998 
L 377.868642 122.309607 
L 398.140942 122.309607 
L 398.140942 106.360829 
L 410.072706 106.360829 
L 410.072706 94.616866 
L 419.196996 94.616866 
L 419.196996 80.100989 
L 431.117061 80.100989 
L 431.117061 70.715986 
L 438.779125 70.715986 
L 438.779125 68.989896 
L 440.253049 68.989896 
" clip-path="url(#p1b8aac085a)" style="fill: none; stroke: #58b668; stroke-opacity: 0.25; stroke-linecap: square"/>
   </g>
   <g id="line2d_77">
    <path d="M 89.318826 129.467467 
L 89.318826 129.467467 
L 170.852544 129.467467 
L 170.852544 138.10305 
L 201.149865 138.10305 
L 201.149865 162.837619 
L 253.439064 162.837619 
L 253.439064 180.68458 
L 278.58935 180.68458 
L 278.58935 200.233539 
L 304.207549 200.233539 
L 304.207549 196.685879 
L 355.490736 196.685879 
L 355.490736 151.648385 
L 377.868642 151.648385 
L 377.868642 119.533039 
L 398.140942 119.533039 
L 398.140942 107.684828 
L 410.072706 107.684828 
L 410.072706 101.654832 
L 419.196996 101.654832 
L 419.196996 96.197369 
L 431.117061 96.197369 
L 431.117061 93.697008 
L 438.779125 93.697008 
L 438.779125 93.181898 
L 440.253049 93.181898 
" clip-path="url(#p1b8aac085a)" style="fill: none; stroke: #58b668; stroke-opacity: 0.25; stroke-linecap: square"/>
   </g>
   <g id="line2d_78">
    <path d="M 89.318826 128.74731 
L 89.318826 128.74731 
L 170.852544 128.74731 
L 170.852544 135.456187 
L 201.149865 135.456187 
L 201.149865 154.477002 
L 253.439064 154.477002 
L 253.439064 167.58463 
L 278.58935 167.58463 
L 278.58935 182.677099 
L 304.207549 182.677099 
L 304.207549 204.665159 
L 355.490736 204.665159 
L 355.490736 169.139226 
L 377.868642 169.139226 
L 377.868642 117.622613 
L 398.140942 117.622613 
L 398.140942 96.894271 
L 410.072706 96.894271 
L 410.072706 85.514327 
L 419.196996 85.514327 
L 419.196996 75.141808 
L 431.117061 75.141808 
L 431.117061 70.40467 
L 438.779125 70.40467 
L 438.779125 69.638486 
L 440.253049 69.638486 
" clip-path="url(#p1b8aac085a)" style="fill: none; stroke: #58b668; stroke-opacity: 0.25; stroke-linecap: square"/>
   </g>
   <g id="line2d_79">
    <path d="M 89.318826 146.225757 
L 89.318826 146.225757 
L 170.852544 146.225757 
L 170.852544 152.289792 
L 201.149865 152.289792 
L 201.149865 165.754975 
L 253.439064 165.754975 
L 253.439064 173.765254 
L 278.58935 173.765254 
L 278.58935 180.208546 
L 304.207549 180.208546 
L 304.207549 168.177349 
L 355.490736 168.177349 
L 355.490736 140.41192 
L 377.868642 140.41192 
L 377.868642 111.076822 
L 398.140942 111.076822 
L 398.140942 95.3874 
L 410.072706 95.3874 
L 410.072706 83.993074 
L 419.196996 83.993074 
L 419.196996 69.65839 
L 431.117061 69.65839 
L 431.117061 61.169185 
L 438.779125 61.169185 
L 438.779125 59.555902 
L 440.253049 59.555902 
" clip-path="url(#p1b8aac085a)" style="fill: none; stroke: #58b668; stroke-opacity: 0.25; stroke-linecap: square"/>
   </g>
   <g id="line2d_80">
    <path d="M 89.318826 122.964803 
L 89.318826 122.964803 
L 170.852544 122.964803 
L 170.852544 132.019396 
L 201.149865 132.019396 
L 201.149865 157.628116 
L 253.439064 157.628116 
L 253.439064 174.732527 
L 278.58935 174.732527 
L 278.58935 194.358 
L 304.207549 194.358 
L 304.207549 208.464367 
L 355.490736 208.464367 
L 355.490736 163.789948 
L 377.868642 163.789948 
L 377.868642 113.767702 
L 398.140942 113.767702 
L 398.140942 91.980753 
L 410.072706 91.980753 
L 410.072706 78.512092 
L 419.196996 78.512092 
L 419.196996 64.925199 
L 431.117061 64.925199 
L 431.117061 58.3426 
L 438.779125 58.3426 
L 438.779125 57.167041 
L 440.253049 57.167041 
" clip-path="url(#p1b8aac085a)" style="fill: none; stroke: #58b668; stroke-opacity: 0.25; stroke-linecap: square"/>
   </g>
   <g id="line2d_81">
    <path d="M 89.318826 133.441796 
L 89.318826 133.441796 
L 170.852544 133.441796 
L 170.852544 148.429152 
L 201.149865 148.429152 
L 201.149865 175.813757 
L 253.439064 175.813757 
L 253.439064 189.311815 
L 278.58935 189.311815 
L 278.58935 200.535596 
L 304.207549 200.535596 
L 304.207549 194.334029 
L 355.490736 194.334029 
L 355.490736 155.032737 
L 377.868642 155.032737 
L 377.868642 121.109679 
L 398.140942 121.109679 
L 398.140942 104.989415 
L 410.072706 104.989415 
L 410.072706 93.996102 
L 419.196996 93.996102 
L 419.196996 81.101986 
L 431.117061 81.101986 
L 431.117061 73.325251 
L 438.779125 73.325251 
L 438.779125 72.083689 
L 440.253049 72.083689 
" clip-path="url(#p1b8aac085a)" style="fill: none; stroke: #58b668; stroke-opacity: 0.25; stroke-linecap: square"/>
   </g>
   <g id="line2d_82">
    <path d="M 89.318826 139.675088 
L 89.318826 139.675088 
L 170.852544 139.675088 
L 170.852544 152.331315 
L 201.149865 152.331315 
L 201.149865 177.833508 
L 253.439064 177.833508 
L 253.439064 189.609351 
L 278.58935 189.609351 
L 278.58935 200.289938 
L 304.207549 200.289938 
L 304.207549 192.575785 
L 355.490736 192.575785 
L 355.490736 152.7402 
L 377.868642 152.7402 
L 377.868642 116.980703 
L 398.140942 116.980703 
L 398.140942 100.366065 
L 410.072706 100.366065 
L 410.072706 89.285538 
L 419.196996 89.285538 
L 419.196996 76.519247 
L 431.117061 76.519247 
L 431.117061 68.997577 
L 438.779125 68.997577 
L 438.779125 67.743465 
L 440.253049 67.743465 
" clip-path="url(#p1b8aac085a)" style="fill: none; stroke: #58b668; stroke-opacity: 0.25; stroke-linecap: square"/>
   </g>
   <g id="line2d_83">
    <path d="M 89.318826 121.963414 
L 89.318826 121.963414 
L 170.852544 121.963414 
L 170.852544 132.694828 
L 201.149865 132.694828 
L 201.149865 158.234466 
L 253.439064 158.234466 
L 253.439064 173.54363 
L 278.58935 173.54363 
L 278.58935 189.672244 
L 304.207549 189.672244 
L 304.207549 198.862362 
L 355.490736 198.862362 
L 355.490736 153.44299 
L 377.868642 153.44299 
L 377.868642 116.888977 
L 398.140942 116.888977 
L 398.140942 102.688205 
L 410.072706 102.688205 
L 410.072706 95.236622 
L 419.196996 95.236622 
L 419.196996 88.299035 
L 431.117061 88.299035 
L 431.117061 85.293743 
L 438.779125 85.293743 
L 438.779125 84.741653 
L 440.253049 84.741653 
" clip-path="url(#p1b8aac085a)" style="fill: none; stroke: #58b668; stroke-opacity: 0.25; stroke-linecap: square"/>
   </g>
   <g id="line2d_84">
    <path d="M 89.318826 132.491835 
L 89.318826 132.491835 
L 170.852544 132.491835 
L 170.852544 144.66561 
L 201.149865 144.66561 
L 201.149865 170.411266 
L 253.439064 170.411266 
L 253.439064 182.172459 
L 278.58935 182.172459 
L 278.58935 192.720489 
L 304.207549 192.720489 
L 304.207549 183.999585 
L 355.490736 183.999585 
L 355.490736 145.809542 
L 377.868642 145.809542 
L 377.868642 112.596312 
L 398.140942 112.596312 
L 398.140942 97.309466 
L 410.072706 97.309466 
L 410.072706 87.528165 
L 419.196996 87.528165 
L 419.196996 76.656217 
L 431.117061 76.656217 
L 431.117061 70.356934 
L 438.779125 70.356934 
L 438.779125 69.450353 
L 440.253049 69.450353 
" clip-path="url(#p1b8aac085a)" style="fill: none; stroke: #58b668; stroke-opacity: 0.25; stroke-linecap: square"/>
   </g>
   <g id="line2d_85">
    <path d="M 89.318826 114.306441 
L 89.318826 114.306441 
L 170.852544 114.306441 
L 170.852544 124.114639 
L 201.149865 124.114639 
L 201.149865 149.433109 
L 253.439064 149.433109 
L 253.439064 165.282013 
L 278.58935 165.282013 
L 278.58935 185.490438 
L 304.207549 185.490438 
L 304.207549 211.441737 
L 355.490736 211.441737 
L 355.490736 167.003431 
L 377.868642 167.003431 
L 377.868642 116.572982 
L 398.140942 116.572982 
L 398.140942 96.467609 
L 410.072706 96.467609 
L 410.072706 85.090468 
L 419.196996 85.090468 
L 419.196996 73.130107 
L 431.117061 73.130107 
L 431.117061 67.200226 
L 438.779125 67.200226 
L 438.779125 66.080417 
L 440.253049 66.080417 
" clip-path="url(#p1b8aac085a)" style="fill: none; stroke: #58b668; stroke-opacity: 0.25; stroke-linecap: square"/>
   </g>
   <g id="line2d_86">
    <path d="M 89.318826 127.891618 
L 89.318826 127.891618 
L 170.852544 127.891618 
L 170.852544 140.761235 
L 201.149865 140.761235 
L 201.149865 169.695529 
L 253.439064 169.695529 
L 253.439064 187.415824 
L 278.58935 187.415824 
L 278.58935 205.420497 
L 304.207549 205.420497 
L 304.207549 200.161003 
L 355.490736 200.161003 
L 355.490736 154.789597 
L 377.868642 154.789597 
L 377.868642 118.414279 
L 398.140942 118.414279 
L 398.140942 103.560579 
L 410.072706 103.560579 
L 410.072706 94.634076 
L 419.196996 94.634076 
L 419.196996 85.425835 
L 431.117061 85.425835 
L 431.117061 80.55624 
L 438.779125 80.55624 
L 438.779125 79.874658 
L 440.253049 79.874658 
" clip-path="url(#p1b8aac085a)" style="fill: none; stroke: #58b668; stroke-opacity: 0.25; stroke-linecap: square"/>
   </g>
   <g id="line2d_87">
    <path d="M 89.318826 111.127734 
L 89.318826 111.127734 
L 170.852544 111.127734 
L 170.852544 118.338078 
L 201.149865 118.338078 
L 201.149865 146.14156 
L 253.439064 146.14156 
L 253.439064 166.606377 
L 278.58935 166.606377 
L 278.58935 192.946304 
L 304.207549 192.946304 
L 304.207549 236.051855 
L 355.490736 236.051855 
L 355.490736 185.962297 
L 377.868642 185.962297 
L 377.868642 123.81203 
L 398.140942 123.81203 
L 398.140942 99.373437 
L 410.072706 99.373437 
L 410.072706 85.559121 
L 419.196996 85.559121 
L 419.196996 71.524922 
L 431.117061 71.524922 
L 431.117061 64.652945 
L 438.779125 64.652945 
L 438.779125 63.418389 
L 440.253049 63.418389 
" clip-path="url(#p1b8aac085a)" style="fill: none; stroke: #58b668; stroke-opacity: 0.25; stroke-linecap: square"/>
   </g>
   <g id="line2d_88">
    <path d="M 89.318826 126.162144 
L 89.318826 126.162144 
L 170.852544 126.162144 
L 170.852544 133.314067 
L 201.149865 133.314067 
L 201.149865 152.389403 
L 253.439064 152.389403 
L 253.439064 168.232552 
L 278.58935 168.232552 
L 278.58935 189.527304 
L 304.207549 189.527304 
L 304.207549 220.557348 
L 355.490736 220.557348 
L 355.490736 171.782337 
L 377.868642 171.782337 
L 377.868642 119.101205 
L 398.140942 119.101205 
L 398.140942 99.596814 
L 410.072706 99.596814 
L 410.072706 89.583039 
L 419.196996 89.583039 
L 419.196996 80.695312 
L 431.117061 80.695312 
L 431.117061 76.869357 
L 438.779125 76.869357 
L 438.779125 76.194405 
L 440.253049 76.194405 
" clip-path="url(#p1b8aac085a)" style="fill: none; stroke: #58b668; stroke-opacity: 0.25; stroke-linecap: square"/>
   </g>
   <g id="line2d_89">
    <path d="M 89.318826 115.571341 
L 89.318826 115.571341 
L 170.852544 115.571341 
L 170.852544 122.608819 
L 201.149865 122.608819 
L 201.149865 146.571705 
L 253.439064 146.571705 
L 253.439064 164.079525 
L 278.58935 164.079525 
L 278.58935 187.631701 
L 304.207549 187.631701 
L 304.207549 220.395748 
L 355.490736 220.395748 
L 355.490736 170.30137 
L 377.868642 170.30137 
L 377.868642 125.005856 
L 398.140942 125.005856 
L 398.140942 105.466121 
L 410.072706 105.466121 
L 410.072706 92.602446 
L 419.196996 92.602446 
L 419.196996 78.271415 
L 431.117061 78.271415 
L 431.117061 69.866595 
L 438.779125 69.866595 
L 438.779125 68.32117 
L 440.253049 68.32117 
" clip-path="url(#p1b8aac085a)" style="fill: none; stroke: #58b668; stroke-opacity: 0.25; stroke-linecap: square"/>
   </g>
   <g id="line2d_90">
    <path d="M 89.318826 152.736573 
L 89.318826 152.736573 
L 170.852544 152.736573 
L 170.852544 148.822047 
L 201.149865 148.822047 
L 201.149865 159.177518 
L 253.439064 159.177518 
L 253.439064 175.122415 
L 278.58935 175.122415 
L 278.58935 192.674066 
L 304.207549 192.674066 
L 304.207549 198.002513 
L 355.490736 198.002513 
L 355.490736 157.034227 
L 377.868642 157.034227 
L 377.868642 114.45368 
L 398.140942 114.45368 
L 398.140942 92.637356 
L 410.072706 92.637356 
L 410.072706 77.468503 
L 419.196996 77.468503 
L 419.196996 59.117943 
L 431.117061 59.117943 
L 431.117061 48.760728 
L 438.779125 48.760728 
L 438.779125 47.113726 
L 440.253049 47.113726 
" clip-path="url(#p1b8aac085a)" style="fill: none; stroke: #58b668; stroke-opacity: 0.25; stroke-linecap: square"/>
   </g>
   <g id="line2d_91">
    <path d="M 89.318826 128.027211 
L 89.318826 128.027211 
L 170.852544 128.027211 
L 170.852544 137.019774 
L 201.149865 137.019774 
L 201.149865 159.51658 
L 253.439064 159.51658 
L 253.439064 174.80292 
L 278.58935 174.80292 
L 278.58935 193.155571 
L 304.207549 193.155571 
L 304.207549 214.254538 
L 355.490736 214.254538 
L 355.490736 167.919848 
L 377.868642 167.919848 
L 377.868642 124.12661 
L 398.140942 124.12661 
L 398.140942 105.624724 
L 410.072706 105.624724 
L 410.072706 93.692619 
L 419.196996 93.692619 
L 419.196996 80.499287 
L 431.117061 80.499287 
L 431.117061 73.3476 
L 438.779125 73.3476 
L 438.779125 71.998341 
L 440.253049 71.998341 
" clip-path="url(#p1b8aac085a)" style="fill: none; stroke: #58b668; stroke-opacity: 0.25; stroke-linecap: square"/>
   </g>
   <g id="line2d_92">
    <path d="M 89.318826 134.362148 
L 89.318826 134.362148 
L 170.852544 134.362148 
L 170.852544 141.284305 
L 201.149865 141.284305 
L 201.149865 159.339252 
L 253.439064 159.339252 
L 253.439064 167.918658 
L 278.58935 167.918658 
L 278.58935 175.561338 
L 304.207549 175.561338 
L 304.207549 168.329567 
L 355.490736 168.329567 
L 355.490736 144.801829 
L 377.868642 144.801829 
L 377.868642 114.514818 
L 398.140942 114.514818 
L 398.140942 96.152659 
L 410.072706 96.152659 
L 410.072706 81.827842 
L 419.196996 81.827842 
L 419.196996 63.087005 
L 431.117061 63.087005 
L 431.117061 50.776016 
L 438.779125 50.776016 
L 438.779125 48.507865 
L 440.253049 48.507865 
" clip-path="url(#p1b8aac085a)" style="fill: none; stroke: #58b668; stroke-opacity: 0.25; stroke-linecap: square"/>
   </g>
   <g id="line2d_93">
    <path d="M 89.318826 150.768571 
L 89.318826 150.768571 
L 170.852544 150.768571 
L 170.852544 155.002145 
L 201.149865 155.002145 
L 201.149865 171.207803 
L 253.439064 171.207803 
L 253.439064 185.881169 
L 278.58935 185.881169 
L 278.58935 203.7083 
L 304.207549 203.7083 
L 304.207549 215.584845 
L 355.490736 215.584845 
L 355.490736 165.462747 
L 377.868642 165.462747 
L 377.868642 122.590787 
L 398.140942 122.590787 
L 398.140942 106.050485 
L 410.072706 106.050485 
L 410.072706 97.264846 
L 419.196996 97.264846 
L 419.196996 88.652115 
L 431.117061 88.652115 
L 431.117061 84.274148 
L 438.779125 84.274148 
L 438.779125 83.611027 
L 440.253049 83.611027 
" clip-path="url(#p1b8aac085a)" style="fill: none; stroke: #58b668; stroke-opacity: 0.25; stroke-linecap: square"/>
   </g>
   <g id="line2d_94">
    <path d="M 89.318826 114.837522 
L 89.318826 114.837522 
L 170.852544 114.837522 
L 170.852544 122.287206 
L 201.149865 122.287206 
L 201.149865 143.641186 
L 253.439064 143.641186 
L 253.439064 160.05929 
L 278.58935 160.05929 
L 278.58935 178.912329 
L 304.207549 178.912329 
L 304.207549 199.689605 
L 355.490736 199.689605 
L 355.490736 158.339179 
L 377.868642 158.339179 
L 377.868642 115.102449 
L 398.140942 115.102449 
L 398.140942 94.243954 
L 410.072706 94.243954 
L 410.072706 79.654736 
L 419.196996 79.654736 
L 419.196996 63.522052 
L 431.117061 63.522052 
L 431.117061 54.282338 
L 438.779125 54.282338 
L 438.779125 52.573948 
L 440.253049 52.573948 
" clip-path="url(#p1b8aac085a)" style="fill: none; stroke: #58b668; stroke-opacity: 0.25; stroke-linecap: square"/>
   </g>
   <g id="line2d_95">
    <path d="M 89.318826 168.556667 
L 89.318826 168.556667 
L 170.852544 168.556667 
L 170.852544 172.073975 
L 201.149865 172.073975 
L 201.149865 186.573656 
L 253.439064 186.573656 
L 253.439064 199.954402 
L 278.58935 199.954402 
L 278.58935 212.678848 
L 304.207549 212.678848 
L 304.207549 215.867219 
L 355.490736 215.867219 
L 355.490736 172.575951 
L 377.868642 172.575951 
L 377.868642 124.033349 
L 398.140942 124.033349 
L 398.140942 99.077837 
L 410.072706 99.077837 
L 410.072706 82.512961 
L 419.196996 82.512961 
L 419.196996 63.482454 
L 431.117061 63.482454 
L 431.117061 51.977483 
L 438.779125 51.977483 
L 438.779125 49.722944 
L 440.253049 49.722944 
" clip-path="url(#p1b8aac085a)" style="fill: none; stroke: #58b668; stroke-opacity: 0.25; stroke-linecap: square"/>
   </g>
   <g id="line2d_96">
    <path d="M 89.318826 91.757635 
L 89.318826 91.757635 
L 170.852544 91.757635 
L 170.852544 112.762322 
L 201.149865 112.762322 
L 201.149865 156.502345 
L 253.439064 156.502345 
L 253.439064 178.636817 
L 278.58935 178.636817 
L 278.58935 202.606575 
L 304.207549 202.606575 
L 304.207549 211.811266 
L 355.490736 211.811266 
L 355.490736 154.177986 
L 377.868642 154.177986 
L 377.868642 110.470388 
L 398.140942 110.470388 
L 398.140942 95.814359 
L 410.072706 95.814359 
L 410.072706 88.102725 
L 419.196996 88.102725 
L 419.196996 81.310922 
L 431.117061 81.310922 
L 431.117061 78.611495 
L 438.779125 78.611495 
L 438.779125 78.135041 
L 440.253049 78.135041 
" clip-path="url(#p1b8aac085a)" style="fill: none; stroke: #58b668; stroke-opacity: 0.25; stroke-linecap: square"/>
   </g>
   <g id="line2d_97">
    <path d="M 89.318826 149.71671 
L 89.318826 149.71671 
L 170.852544 149.71671 
L 170.852544 150.674984 
L 201.149865 150.674984 
L 201.149865 159.991592 
L 253.439064 159.991592 
L 253.439064 170.313126 
L 278.58935 170.313126 
L 278.58935 186.693857 
L 304.207549 186.693857 
L 304.207549 208.358109 
L 355.490736 208.358109 
L 355.490736 161.997444 
L 377.868642 161.997444 
L 377.868642 119.922166 
L 398.140942 119.922166 
L 398.140942 102.371954 
L 410.072706 102.371954 
L 410.072706 91.590483 
L 419.196996 91.590483 
L 419.196996 80.054063 
L 431.117061 80.054063 
L 431.117061 74.387199 
L 438.779125 74.387199 
L 438.779125 73.311387 
L 440.253049 73.311387 
" clip-path="url(#p1b8aac085a)" style="fill: none; stroke: #58b668; stroke-opacity: 0.25; stroke-linecap: square"/>
   </g>
   <g id="line2d_98">
    <path d="M 89.318826 129.18523 
L 89.318826 129.18523 
L 170.852544 129.18523 
L 170.852544 138.716335 
L 201.149865 138.716335 
L 201.149865 161.948047 
L 253.439064 161.948047 
L 253.439064 177.191934 
L 278.58935 177.191934 
L 278.58935 193.889176 
L 304.207549 193.889176 
L 304.207549 202.668933 
L 355.490736 202.668933 
L 355.490736 156.532329 
L 377.868642 156.532329 
L 377.868642 119.449822 
L 398.140942 119.449822 
L 398.140942 105.070111 
L 410.072706 105.070111 
L 410.072706 96.552128 
L 419.196996 96.552128 
L 419.196996 87.830705 
L 431.117061 87.830705 
L 431.117061 83.207126 
L 438.779125 83.207126 
L 438.779125 82.367872 
L 440.253049 82.367872 
" clip-path="url(#p1b8aac085a)" style="fill: none; stroke: #58b668; stroke-opacity: 0.25; stroke-linecap: square"/>
   </g>
   <g id="line2d_99">
    <path d="M 89.318826 135.686995 
L 89.318826 135.686995 
L 170.852544 135.686995 
L 170.852544 138.049577 
L 201.149865 138.049577 
L 201.149865 152.109555 
L 253.439064 152.109555 
L 253.439064 166.10196 
L 278.58935 166.10196 
L 278.58935 185.575047 
L 304.207549 185.575047 
L 304.207549 224.597752 
L 355.490736 224.597752 
L 355.490736 181.052306 
L 377.868642 181.052306 
L 377.868642 120.211733 
L 398.140942 120.211733 
L 398.140942 95.573468 
L 410.072706 95.573468 
L 410.072706 81.466501 
L 419.196996 81.466501 
L 419.196996 67.810545 
L 431.117061 67.810545 
L 431.117061 61.37997 
L 438.779125 61.37997 
L 438.779125 60.352108 
L 440.253049 60.352108 
" clip-path="url(#p1b8aac085a)" style="fill: none; stroke: #58b668; stroke-opacity: 0.25; stroke-linecap: square"/>
   </g>
   <g id="line2d_100">
    <path d="M 89.318826 116.943737 
L 89.318826 116.943737 
L 170.852544 116.943737 
L 170.852544 121.027252 
L 201.149865 121.027252 
L 201.149865 138.244824 
L 253.439064 138.244824 
L 253.439064 153.365238 
L 278.58935 153.365238 
L 278.58935 175.148334 
L 304.207549 175.148334 
L 304.207549 218.87305 
L 355.490736 218.87305 
L 355.490736 174.147698 
L 377.868642 174.147698 
L 377.868642 112.963803 
L 398.140942 112.963803 
L 398.140942 90.920864 
L 410.072706 90.920864 
L 410.072706 79.256381 
L 419.196996 79.256381 
L 419.196996 68.42691 
L 431.117061 68.42691 
L 431.117061 63.664217 
L 438.779125 63.664217 
L 438.779125 62.833134 
L 440.253049 62.833134 
" clip-path="url(#p1b8aac085a)" style="fill: none; stroke: #58b668; stroke-opacity: 0.25; stroke-linecap: square"/>
   </g>
   <g id="line2d_101">
    <path d="M 89.318826 127.943147 
L 89.318826 127.943147 
L 170.852544 127.943147 
L 170.852544 136.968373 
L 201.149865 136.968373 
L 201.149865 156.094786 
L 253.439064 156.094786 
L 253.439064 167.500964 
L 278.58935 167.500964 
L 278.58935 178.72897 
L 304.207549 178.72897 
L 304.207549 179.894219 
L 355.490736 179.894219 
L 355.490736 146.342873 
L 377.868642 146.342873 
L 377.868642 116.198264 
L 398.140942 116.198264 
L 398.140942 102.239187 
L 410.072706 102.239187 
L 410.072706 92.332723 
L 419.196996 92.332723 
L 419.196996 80.12486 
L 431.117061 80.12486 
L 431.117061 72.948264 
L 438.779125 72.948264 
L 438.779125 71.542693 
L 440.253049 71.542693 
" clip-path="url(#p1b8aac085a)" style="fill: none; stroke: #58b668; stroke-opacity: 0.25; stroke-linecap: square"/>
   </g>
   <g id="line2d_102">
    <path d="M 89.318826 131.330532 
L 89.318826 131.330532 
L 170.852544 131.330532 
L 170.852544 140.467579 
L 201.149865 140.467579 
L 201.149865 164.196968 
L 253.439064 164.196968 
L 253.439064 182.840714 
L 278.58935 182.840714 
L 278.58935 206.606347 
L 304.207549 206.606347 
L 304.207549 249.052591 
L 355.490736 249.052591 
L 355.490736 188.841521 
L 377.868642 188.841521 
L 377.868642 131.219029 
L 398.140942 131.219029 
L 398.140942 112.138047 
L 410.072706 112.138047 
L 410.072706 102.478747 
L 419.196996 102.478747 
L 419.196996 94.257151 
L 431.117061 94.257151 
L 431.117061 90.666415 
L 438.779125 90.666415 
L 438.779125 90.022164 
L 440.253049 90.022164 
" clip-path="url(#p1b8aac085a)" style="fill: none; stroke: #58b668; stroke-opacity: 0.25; stroke-linecap: square"/>
   </g>
   <g id="line2d_103">
    <path d="M 89.318826 129.014308 
L 89.318826 129.014308 
L 170.852544 129.014308 
L 170.852544 138.852312 
L 201.149865 138.852312 
L 201.149865 160.511507 
L 253.439064 160.511507 
L 253.439064 173.132515 
L 278.58935 173.132515 
L 278.58935 187.006518 
L 304.207549 187.006518 
L 304.207549 196.094016 
L 355.490736 196.094016 
L 355.490736 156.236065 
L 377.868642 156.236065 
L 377.868642 113.865001 
L 398.140942 113.865001 
L 398.140942 95.322932 
L 410.072706 95.322932 
L 410.072706 84.682862 
L 419.196996 84.682862 
L 419.196996 73.618438 
L 431.117061 73.618438 
L 431.117061 68.02999 
L 438.779125 68.02999 
L 438.779125 67.302966 
L 440.253049 67.302966 
" clip-path="url(#p1b8aac085a)" style="fill: none; stroke: #58b668; stroke-opacity: 0.25; stroke-linecap: square"/>
   </g>
   <g id="line2d_104">
    <path d="M 89.318826 136.984155 
L 89.318826 136.984155 
L 170.852544 136.984155 
L 170.852544 138.015844 
L 201.149865 138.015844 
L 201.149865 154.323877 
L 253.439064 154.323877 
L 253.439064 167.101631 
L 278.58935 167.101631 
L 278.58935 181.051038 
L 304.207549 181.051038 
L 304.207549 187.073441 
L 355.490736 187.073441 
L 355.490736 145.993294 
L 377.868642 145.993294 
L 377.868642 105.198032 
L 398.140942 105.198032 
L 398.140942 86.70214 
L 410.072706 86.70214 
L 410.072706 74.552199 
L 419.196996 74.552199 
L 419.196996 61.301585 
L 431.117061 61.301585 
L 431.117061 54.243662 
L 438.779125 54.243662 
L 438.779125 53.013906 
L 440.253049 53.013906 
" clip-path="url(#p1b8aac085a)" style="fill: none; stroke: #58b668; stroke-opacity: 0.25; stroke-linecap: square"/>
   </g>
   <g id="line2d_105">
    <path d="M 89.318826 127.804306 
L 89.318826 127.804306 
L 170.852544 127.804306 
L 170.852544 132.353544 
L 201.149865 132.353544 
L 201.149865 151.766192 
L 253.439064 151.766192 
L 253.439064 169.284019 
L 278.58935 169.284019 
L 278.58935 192.475978 
L 304.207549 192.475978 
L 304.207549 232.339071 
L 355.490736 232.339071 
L 355.490736 181.212863 
L 377.868642 181.212863 
L 377.868642 122.953484 
L 398.140942 122.953484 
L 398.140942 103.72721 
L 410.072706 103.72721 
L 410.072706 93.35518 
L 419.196996 93.35518 
L 419.196996 84.644976 
L 431.117061 84.644976 
L 431.117061 80.244516 
L 438.779125 80.244516 
L 438.779125 79.522147 
L 440.253049 79.522147 
" clip-path="url(#p1b8aac085a)" style="fill: none; stroke: #58b668; stroke-opacity: 0.25; stroke-linecap: square"/>
   </g>
   <g id="line2d_106">
    <path d="M 89.318826 144.667526 
L 89.318826 144.667526 
L 170.852544 144.667526 
L 170.852544 153.248293 
L 201.149865 153.248293 
L 201.149865 174.156399 
L 253.439064 174.156399 
L 253.439064 186.754941 
L 278.58935 186.754941 
L 278.58935 200.014956 
L 304.207549 200.014956 
L 304.207549 206.890455 
L 355.490736 206.890455 
L 355.490736 169.526094 
L 377.868642 169.526094 
L 377.868642 124.931716 
L 398.140942 124.931716 
L 398.140942 103.43737 
L 410.072706 103.43737 
L 410.072706 89.340628 
L 419.196996 89.340628 
L 419.196996 72.869022 
L 431.117061 72.869022 
L 431.117061 63.570541 
L 438.779125 63.570541 
L 438.779125 62.129151 
L 440.253049 62.129151 
" clip-path="url(#p1b8aac085a)" style="fill: none; stroke: #58b668; stroke-opacity: 0.25; stroke-linecap: square"/>
   </g>
   <g id="line2d_107">
    <path d="M 89.318826 121.925191 
L 89.318826 121.925191 
L 170.852544 121.925191 
L 170.852544 125.520475 
L 201.149865 125.520475 
L 201.149865 142.244697 
L 253.439064 142.244697 
L 253.439064 157.481474 
L 278.58935 157.481474 
L 278.58935 178.439527 
L 304.207549 178.439527 
L 304.207549 205.18166 
L 355.490736 205.18166 
L 355.490736 155.617328 
L 377.868642 155.617328 
L 377.868642 110.025818 
L 398.140942 110.025818 
L 398.140942 91.913499 
L 410.072706 91.913499 
L 410.072706 81.069508 
L 419.196996 81.069508 
L 419.196996 69.362689 
L 431.117061 69.362689 
L 431.117061 63.250786 
L 438.779125 63.250786 
L 438.779125 62.032016 
L 440.253049 62.032016 
" clip-path="url(#p1b8aac085a)" style="fill: none; stroke: #58b668; stroke-opacity: 0.25; stroke-linecap: square"/>
   </g>
   <g id="line2d_108">
    <path d="M 89.318826 145.243688 
L 89.318826 145.243688 
L 170.852544 145.243688 
L 170.852544 157.094348 
L 201.149865 157.094348 
L 201.149865 176.441469 
L 253.439064 176.441469 
L 253.439064 184.675324 
L 278.58935 184.675324 
L 278.58935 190.836344 
L 304.207549 190.836344 
L 304.207549 179.956567 
L 355.490736 179.956567 
L 355.490736 152.744894 
L 377.868642 152.744894 
L 377.868642 124.617955 
L 398.140942 124.617955 
L 398.140942 109.901453 
L 410.072706 109.901453 
L 410.072706 99.57278 
L 419.196996 99.57278 
L 419.196996 87.04125 
L 431.117061 87.04125 
L 431.117061 79.57496 
L 438.779125 79.57496 
L 438.779125 78.294472 
L 440.253049 78.294472 
" clip-path="url(#p1b8aac085a)" style="fill: none; stroke: #58b668; stroke-opacity: 0.25; stroke-linecap: square"/>
   </g>
   <g id="line2d_109">
    <path d="M 89.318826 131.573923 
L 89.318826 131.573923 
L 170.852544 131.573923 
L 170.852544 140.829576 
L 201.149865 140.829576 
L 201.149865 160.889882 
L 253.439064 160.889882 
L 253.439064 174.962667 
L 278.58935 174.962667 
L 278.58935 191.234177 
L 304.207549 191.234177 
L 304.207549 199.111159 
L 355.490736 199.111159 
L 355.490736 158.460233 
L 377.868642 158.460233 
L 377.868642 118.304738 
L 398.140942 118.304738 
L 398.140942 100.106033 
L 410.072706 100.106033 
L 410.072706 88.512279 
L 419.196996 88.512279 
L 419.196996 75.9417 
L 431.117061 75.9417 
L 431.117061 70.111764 
L 438.779125 70.111764 
L 438.779125 68.655533 
L 440.253049 68.655533 
" clip-path="url(#p1b8aac085a)" style="fill: none; stroke: #58b668; stroke-width: 4; stroke-linecap: square"/>
   </g>
   <g id="patch_3">
    <path d="M 71.772115 294.540385 
L 71.772115 3.00024 
" style="fill: none; stroke: #000000; stroke-width: 0.8; stroke-linejoin: miter; stroke-linecap: square"/>
   </g>
   <g id="patch_4">
    <path d="M 457.79976 294.540385 
L 457.79976 3.00024 
" style="fill: none; stroke: #000000; stroke-width: 0.8; stroke-linejoin: miter; stroke-linecap: square"/>
   </g>
   <g id="patch_5">
    <path d="M 71.772115 294.540385 
L 457.79976 294.540385 
" style="fill: none; stroke: #000000; stroke-width: 0.8; stroke-linejoin: miter; stroke-linecap: square"/>
   </g>
   <g id="patch_6">
    <path d="M 71.772115 3.00024 
L 457.79976 3.00024 
" style="fill: none; stroke: #000000; stroke-width: 0.8; stroke-linejoin: miter; stroke-linecap: square"/>
   </g>
  </g>
 </g>
 <defs>
  <clipPath id="p1b8aac085a">
   <rect x="71.772115" y="3.00024" width="386.027645" height="291.540145"/>
  </clipPath>
 </defs>
</svg>
