<?xml version="1.0" encoding="utf-8" standalone="no"?>
<!DOCTYPE svg PUBLIC "-//W3C//DTD SVG 1.1//EN"
  "http://www.w3.org/Graphics/SVG/1.1/DTD/svg11.dtd">
<svg xmlns:xlink="http://www.w3.org/1999/xlink" width="460.8pt" height="345.6pt" viewBox="0 0 460.8 345.6" xmlns="http://www.w3.org/2000/svg" version="1.1">
 <metadata>
  <rdf:RDF xmlns:dc="http://purl.org/dc/elements/1.1/" xmlns:cc="http://creativecommons.org/ns#" xmlns:rdf="http://www.w3.org/1999/02/22-rdf-syntax-ns#">
   <cc:Work>
    <dc:type rdf:resource="http://purl.org/dc/dcmitype/StillImage"/>
    <dc:date>2025-12-29T14:13:43.633234</dc:date>
    <dc:format>image/svg+xml</dc:format>
    <dc:creator>
     <cc:Agent>
      <dc:title>Matplotlib v3.10.7, https://matplotlib.org/</dc:title>
     </cc:Agent>
    </dc:creator>
   </cc:Work>
  </rdf:RDF>
 </metadata>
 <defs>
  <style type="text/css">*{stroke-linejoin: round; stroke-linecap: butt}</style>
 </defs>
 <g id="figure_1">
  <g id="patch_1">
   <path d="M 0 345.6 
L 460.8 345.6 
L 460.8 0 
L 0 0 
z
" style="fill: #ffffff"/>
  </g>
  <g id="axes_1">
   <g id="patch_2">
    <path d="M 71.772115 294.540385 
L 457.79976 294.540385 
L 457.79976 3.00024 
L 71.772115 3.00024 
z
" style="fill: #ffffff"/>
   </g>
   <g id="FillBetweenPolyCollection_1">
    <defs>
     <path id="m53f12cbaa3" d="M 89.318826 -275.839947 
L 89.318826 -211.007968 
L 89.318826 -211.007968 
L 170.852544 -211.007968 
L 170.852544 -205.584387 
L 201.149865 -205.584387 
L 201.149865 -174.525903 
L 253.439064 -174.525903 
L 253.439064 -157.073907 
L 278.58935 -157.073907 
L 278.58935 -136.272893 
L 304.207549 -136.272893 
L 304.207549 -93.501622 
L 355.490736 -93.501622 
L 355.490736 -126.068978 
L 377.868642 -126.068978 
L 377.868642 -201.195346 
L 398.140942 -201.195346 
L 398.140942 -224.907411 
L 410.072706 -224.907411 
L 410.072706 -235.781983 
L 419.196996 -235.781983 
L 419.196996 -246.868114 
L 431.117061 -246.868114 
L 431.117061 -252.80981 
L 438.779125 -252.80981 
L 438.779125 -253.930779 
L 440.253049 -253.930779 
L 440.253049 -299.971191 
L 440.253049 -299.971191 
L 438.779125 -299.971191 
L 438.779125 -297.229428 
L 431.117061 -297.229428 
L 431.117061 -283.055465 
L 419.196996 -283.055465 
L 419.196996 -262.46573 
L 410.072706 -262.46573 
L 410.072706 -246.675193 
L 398.140942 -246.675193 
L 398.140942 -223.505915 
L 377.868642 -223.505915 
L 377.868642 -194.224837 
L 355.490736 -194.224837 
L 355.490736 -172.582521 
L 304.207549 -172.582521 
L 304.207549 -175.066582 
L 278.58935 -175.066582 
L 278.58935 -195.032084 
L 253.439064 -195.032084 
L 253.439064 -216.69005 
L 201.149865 -216.69005 
L 201.149865 -254.47618 
L 170.852544 -254.47618 
L 170.852544 -275.839947 
L 89.318826 -275.839947 
L 89.318826 -275.839947 
z
" style="stroke: #278f48; stroke-opacity: 0.25"/>
    </defs>
    <g clip-path="url(#p0963e53686)">
     <use xlink:href="#m53f12cbaa3" x="0" y="345.6" style="fill: #278f48; fill-opacity: 0.25; stroke: #278f48; stroke-opacity: 0.25"/>
    </g>
   </g>
   <g id="matplotlib.axis_1">
    <g id="xtick_1">
     <g id="line2d_1">
      <defs>
       <path id="mbf81ec1392" d="M 0 0 
L 0 3.5 
" style="stroke: #000000; stroke-width: 0.8"/>
      </defs>
      <g>
       <use xlink:href="#mbf81ec1392" x="440.253049" y="294.540385" style="stroke: #000000; stroke-width: 0.8"/>
      </g>
     </g>
     <g id="text_1">
      <!-- 0 -->
      <g transform="translate(434.692111 315.85601) scale(0.2 -0.2)">
       <defs>
        <path id="ArialMT-30" d="M 266 2259 
Q 266 3072 433 3567 
Q 600 4063 929 4331 
Q 1259 4600 1759 4600 
Q 2128 4600 2406 4451 
Q 2684 4303 2865 4023 
Q 3047 3744 3150 3342 
Q 3253 2941 3253 2259 
Q 3253 1453 3087 958 
Q 2922 463 2592 192 
Q 2263 -78 1759 -78 
Q 1097 -78 719 397 
Q 266 969 266 2259 
z
M 844 2259 
Q 844 1131 1108 757 
Q 1372 384 1759 384 
Q 2147 384 2411 759 
Q 2675 1134 2675 2259 
Q 2675 3391 2411 3762 
Q 2147 4134 1753 4134 
Q 1366 4134 1134 3806 
Q 844 3388 844 2259 
z
" transform="scale(0.015625)"/>
       </defs>
       <use xlink:href="#ArialMT-30"/>
      </g>
     </g>
    </g>
    <g id="xtick_2">
     <g id="line2d_2">
      <g>
       <use xlink:href="#mbf81ec1392" x="323.274975" y="294.540385" style="stroke: #000000; stroke-width: 0.8"/>
      </g>
     </g>
     <g id="text_2">
      <!-- 10 -->
      <g transform="translate(312.1531 315.85601) scale(0.2 -0.2)">
       <defs>
        <path id="ArialMT-31" d="M 2384 0 
L 1822 0 
L 1822 3584 
Q 1619 3391 1289 3197 
Q 959 3003 697 2906 
L 697 3450 
Q 1169 3672 1522 3987 
Q 1875 4303 2022 4600 
L 2384 4600 
L 2384 0 
z
" transform="scale(0.015625)"/>
       </defs>
       <use xlink:href="#ArialMT-31"/>
       <use xlink:href="#ArialMT-30" transform="translate(55.615234 0)"/>
      </g>
     </g>
    </g>
    <g id="xtick_3">
     <g id="line2d_3">
      <g>
       <use xlink:href="#mbf81ec1392" x="206.2969" y="294.540385" style="stroke: #000000; stroke-width: 0.8"/>
      </g>
     </g>
     <g id="text_3">
      <!-- 20 -->
      <g transform="translate(195.175025 315.85601) scale(0.2 -0.2)">
       <defs>
        <path id="ArialMT-32" d="M 3222 541 
L 3222 0 
L 194 0 
Q 188 203 259 391 
Q 375 700 629 1000 
Q 884 1300 1366 1694 
Q 2113 2306 2375 2664 
Q 2638 3022 2638 3341 
Q 2638 3675 2398 3904 
Q 2159 4134 1775 4134 
Q 1369 4134 1125 3890 
Q 881 3647 878 3216 
L 300 3275 
Q 359 3922 746 4261 
Q 1134 4600 1788 4600 
Q 2447 4600 2831 4234 
Q 3216 3869 3216 3328 
Q 3216 3053 3103 2787 
Q 2991 2522 2730 2228 
Q 2469 1934 1863 1422 
Q 1356 997 1212 845 
Q 1069 694 975 541 
L 3222 541 
z
" transform="scale(0.015625)"/>
       </defs>
       <use xlink:href="#ArialMT-32"/>
       <use xlink:href="#ArialMT-30" transform="translate(55.615234 0)"/>
      </g>
     </g>
    </g>
    <g id="xtick_4">
     <g id="line2d_4">
      <g>
       <use xlink:href="#mbf81ec1392" x="89.318826" y="294.540385" style="stroke: #000000; stroke-width: 0.8"/>
      </g>
     </g>
     <g id="text_4">
      <!-- 30 -->
      <g transform="translate(78.196951 315.85601) scale(0.2 -0.2)">
       <defs>
        <path id="ArialMT-33" d="M 269 1209 
L 831 1284 
Q 928 806 1161 595 
Q 1394 384 1728 384 
Q 2125 384 2398 659 
Q 2672 934 2672 1341 
Q 2672 1728 2419 1979 
Q 2166 2231 1775 2231 
Q 1616 2231 1378 2169 
L 1441 2663 
Q 1497 2656 1531 2656 
Q 1891 2656 2178 2843 
Q 2466 3031 2466 3422 
Q 2466 3731 2256 3934 
Q 2047 4138 1716 4138 
Q 1388 4138 1169 3931 
Q 950 3725 888 3313 
L 325 3413 
Q 428 3978 793 4289 
Q 1159 4600 1703 4600 
Q 2078 4600 2393 4439 
Q 2709 4278 2876 4000 
Q 3044 3722 3044 3409 
Q 3044 3113 2884 2869 
Q 2725 2625 2413 2481 
Q 2819 2388 3044 2092 
Q 3269 1797 3269 1353 
Q 3269 753 2831 336 
Q 2394 -81 1725 -81 
Q 1122 -81 723 278 
Q 325 638 269 1209 
z
" transform="scale(0.015625)"/>
       </defs>
       <use xlink:href="#ArialMT-33"/>
       <use xlink:href="#ArialMT-30" transform="translate(55.615234 0)"/>
      </g>
     </g>
    </g>
    <g id="text_5">
     <!-- Time (mya) -->
     <g transform="translate(214.6125 338.390385) scale(0.2 -0.2)">
      <defs>
       <path id="ArialMT-54" d="M 1659 0 
L 1659 4041 
L 150 4041 
L 150 4581 
L 3781 4581 
L 3781 4041 
L 2266 4041 
L 2266 0 
L 1659 0 
z
" transform="scale(0.015625)"/>
       <path id="ArialMT-69" d="M 425 3934 
L 425 4581 
L 988 4581 
L 988 3934 
L 425 3934 
z
M 425 0 
L 425 3319 
L 988 3319 
L 988 0 
L 425 0 
z
" transform="scale(0.015625)"/>
       <path id="ArialMT-6d" d="M 422 0 
L 422 3319 
L 925 3319 
L 925 2853 
Q 1081 3097 1340 3245 
Q 1600 3394 1931 3394 
Q 2300 3394 2536 3241 
Q 2772 3088 2869 2813 
Q 3263 3394 3894 3394 
Q 4388 3394 4653 3120 
Q 4919 2847 4919 2278 
L 4919 0 
L 4359 0 
L 4359 2091 
Q 4359 2428 4304 2576 
Q 4250 2725 4106 2815 
Q 3963 2906 3769 2906 
Q 3419 2906 3187 2673 
Q 2956 2441 2956 1928 
L 2956 0 
L 2394 0 
L 2394 2156 
Q 2394 2531 2256 2718 
Q 2119 2906 1806 2906 
Q 1569 2906 1367 2781 
Q 1166 2656 1075 2415 
Q 984 2175 984 1722 
L 984 0 
L 422 0 
z
" transform="scale(0.015625)"/>
       <path id="ArialMT-65" d="M 2694 1069 
L 3275 997 
Q 3138 488 2766 206 
Q 2394 -75 1816 -75 
Q 1088 -75 661 373 
Q 234 822 234 1631 
Q 234 2469 665 2931 
Q 1097 3394 1784 3394 
Q 2450 3394 2872 2941 
Q 3294 2488 3294 1666 
Q 3294 1616 3291 1516 
L 816 1516 
Q 847 969 1125 678 
Q 1403 388 1819 388 
Q 2128 388 2347 550 
Q 2566 713 2694 1069 
z
M 847 1978 
L 2700 1978 
Q 2663 2397 2488 2606 
Q 2219 2931 1791 2931 
Q 1403 2931 1139 2672 
Q 875 2413 847 1978 
z
" transform="scale(0.015625)"/>
       <path id="ArialMT-20" transform="scale(0.015625)"/>
       <path id="ArialMT-28" d="M 1497 -1347 
Q 1031 -759 709 28 
Q 388 816 388 1659 
Q 388 2403 628 3084 
Q 909 3875 1497 4659 
L 1900 4659 
Q 1522 4009 1400 3731 
Q 1209 3300 1100 2831 
Q 966 2247 966 1656 
Q 966 153 1900 -1347 
L 1497 -1347 
z
" transform="scale(0.015625)"/>
       <path id="ArialMT-79" d="M 397 -1278 
L 334 -750 
Q 519 -800 656 -800 
Q 844 -800 956 -737 
Q 1069 -675 1141 -563 
Q 1194 -478 1313 -144 
Q 1328 -97 1363 -6 
L 103 3319 
L 709 3319 
L 1400 1397 
Q 1534 1031 1641 628 
Q 1738 1016 1872 1384 
L 2581 3319 
L 3144 3319 
L 1881 -56 
Q 1678 -603 1566 -809 
Q 1416 -1088 1222 -1217 
Q 1028 -1347 759 -1347 
Q 597 -1347 397 -1278 
z
" transform="scale(0.015625)"/>
       <path id="ArialMT-61" d="M 2588 409 
Q 2275 144 1986 34 
Q 1697 -75 1366 -75 
Q 819 -75 525 192 
Q 231 459 231 875 
Q 231 1119 342 1320 
Q 453 1522 633 1644 
Q 813 1766 1038 1828 
Q 1203 1872 1538 1913 
Q 2219 1994 2541 2106 
Q 2544 2222 2544 2253 
Q 2544 2597 2384 2738 
Q 2169 2928 1744 2928 
Q 1347 2928 1158 2789 
Q 969 2650 878 2297 
L 328 2372 
Q 403 2725 575 2942 
Q 747 3159 1072 3276 
Q 1397 3394 1825 3394 
Q 2250 3394 2515 3294 
Q 2781 3194 2906 3042 
Q 3031 2891 3081 2659 
Q 3109 2516 3109 2141 
L 3109 1391 
Q 3109 606 3145 398 
Q 3181 191 3288 0 
L 2700 0 
Q 2613 175 2588 409 
z
M 2541 1666 
Q 2234 1541 1622 1453 
Q 1275 1403 1131 1340 
Q 988 1278 909 1158 
Q 831 1038 831 891 
Q 831 666 1001 516 
Q 1172 366 1500 366 
Q 1825 366 2078 508 
Q 2331 650 2450 897 
Q 2541 1088 2541 1459 
L 2541 1666 
z
" transform="scale(0.015625)"/>
       <path id="ArialMT-29" d="M 791 -1347 
L 388 -1347 
Q 1322 153 1322 1656 
Q 1322 2244 1188 2822 
Q 1081 3291 891 3722 
Q 769 4003 388 4659 
L 791 4659 
Q 1378 3875 1659 3084 
Q 1900 2403 1900 1659 
Q 1900 816 1576 28 
Q 1253 -759 791 -1347 
z
" transform="scale(0.015625)"/>
      </defs>
      <use xlink:href="#ArialMT-54"/>
      <use xlink:href="#ArialMT-69" transform="translate(57.333984 0)"/>
      <use xlink:href="#ArialMT-6d" transform="translate(79.550781 0)"/>
      <use xlink:href="#ArialMT-65" transform="translate(162.851562 0)"/>
      <use xlink:href="#ArialMT-20" transform="translate(218.466797 0)"/>
      <use xlink:href="#ArialMT-28" transform="translate(246.25 0)"/>
      <use xlink:href="#ArialMT-6d" transform="translate(279.550781 0)"/>
      <use xlink:href="#ArialMT-79" transform="translate(362.851562 0)"/>
      <use xlink:href="#ArialMT-61" transform="translate(412.851562 0)"/>
      <use xlink:href="#ArialMT-29" transform="translate(468.466797 0)"/>
     </g>
    </g>
   </g>
   <g id="matplotlib.axis_2">
    <g id="ytick_1">
     <g id="line2d_5">
      <defs>
       <path id="ma5e3e1c96f" d="M 0 0 
L -3.5 0 
" style="stroke: #000000; stroke-width: 0.8"/>
      </defs>
      <g>
       <use xlink:href="#ma5e3e1c96f" x="71.772115" y="258.097867" style="stroke: #000000; stroke-width: 0.8"/>
      </g>
     </g>
     <g id="text_6">
      <!-- −0.2 -->
      <g transform="translate(25.290865 265.255679) scale(0.2 -0.2)">
       <defs>
        <path id="ArialMT-2212" d="M 3381 1997 
L 356 1997 
L 356 2522 
L 3381 2522 
L 3381 1997 
z
" transform="scale(0.015625)"/>
        <path id="ArialMT-2e" d="M 581 0 
L 581 641 
L 1222 641 
L 1222 0 
L 581 0 
z
" transform="scale(0.015625)"/>
       </defs>
       <use xlink:href="#ArialMT-2212"/>
       <use xlink:href="#ArialMT-30" transform="translate(58.398438 0)"/>
       <use xlink:href="#ArialMT-2e" transform="translate(114.013672 0)"/>
       <use xlink:href="#ArialMT-32" transform="translate(141.796875 0)"/>
      </g>
     </g>
    </g>
    <g id="ytick_2">
     <g id="line2d_6">
      <g>
       <use xlink:href="#ma5e3e1c96f" x="71.772115" y="185.212831" style="stroke: #000000; stroke-width: 0.8"/>
      </g>
     </g>
     <g id="text_7">
      <!-- 0.0 -->
      <g transform="translate(36.972115 192.370643) scale(0.2 -0.2)">
       <use xlink:href="#ArialMT-30"/>
       <use xlink:href="#ArialMT-2e" transform="translate(55.615234 0)"/>
       <use xlink:href="#ArialMT-30" transform="translate(83.398438 0)"/>
      </g>
     </g>
    </g>
    <g id="ytick_3">
     <g id="line2d_7">
      <g>
       <use xlink:href="#ma5e3e1c96f" x="71.772115" y="112.327794" style="stroke: #000000; stroke-width: 0.8"/>
      </g>
     </g>
     <g id="text_8">
      <!-- 0.2 -->
      <g transform="translate(36.972115 119.485607) scale(0.2 -0.2)">
       <use xlink:href="#ArialMT-30"/>
       <use xlink:href="#ArialMT-2e" transform="translate(55.615234 0)"/>
       <use xlink:href="#ArialMT-32" transform="translate(83.398438 0)"/>
      </g>
     </g>
    </g>
    <g id="ytick_4">
     <g id="line2d_8">
      <g>
       <use xlink:href="#ma5e3e1c96f" x="71.772115" y="39.442758" style="stroke: #000000; stroke-width: 0.8"/>
      </g>
     </g>
     <g id="text_9">
      <!-- 0.4 -->
      <g transform="translate(36.972115 46.600571) scale(0.2 -0.2)">
       <defs>
        <path id="ArialMT-34" d="M 2069 0 
L 2069 1097 
L 81 1097 
L 81 1613 
L 2172 4581 
L 2631 4581 
L 2631 1613 
L 3250 1613 
L 3250 1097 
L 2631 1097 
L 2631 0 
L 2069 0 
z
M 2069 1613 
L 2069 3678 
L 634 1613 
L 2069 1613 
z
" transform="scale(0.015625)"/>
       </defs>
       <use xlink:href="#ArialMT-30"/>
       <use xlink:href="#ArialMT-2e" transform="translate(55.615234 0)"/>
       <use xlink:href="#ArialMT-34" transform="translate(83.398438 0)"/>
      </g>
     </g>
    </g>
    <g id="text_10">
     <!-- $d$ -->
     <g transform="translate(17.315865 155.170312) rotate(-90) scale(0.2 -0.2)">
      <defs>
       <path id="DejaVuSans-Oblique-64" d="M 2675 525 
Q 2444 222 2128 65 
Q 1813 -91 1428 -91 
Q 903 -91 598 267 
Q 294 625 294 1247 
Q 294 1766 478 2236 
Q 663 2706 1013 3078 
Q 1244 3325 1534 3454 
Q 1825 3584 2144 3584 
Q 2481 3584 2739 3421 
Q 2997 3259 3138 2956 
L 3513 4863 
L 4091 4863 
L 3144 0 
L 2566 0 
L 2675 525 
z
M 891 1350 
Q 891 897 1095 644 
Q 1300 391 1663 391 
Q 1931 391 2161 520 
Q 2391 650 2566 903 
Q 2750 1166 2856 1509 
Q 2963 1853 2963 2188 
Q 2963 2622 2758 2865 
Q 2553 3109 2194 3109 
Q 1922 3109 1687 2981 
Q 1453 2853 1288 2613 
Q 1106 2353 998 2009 
Q 891 1666 891 1350 
z
" transform="scale(0.015625)"/>
      </defs>
      <use xlink:href="#DejaVuSans-Oblique-64" transform="translate(0 0.015625)"/>
     </g>
    </g>
   </g>
   <g id="line2d_9">
    <path d="M 89.318826 102.073396 
L 89.318826 102.073396 
L 170.852544 102.073396 
L 170.852544 122.250419 
L 201.149865 122.250419 
L 201.149865 160.912974 
L 253.439064 160.912974 
L 253.439064 179.839325 
L 278.58935 179.839325 
L 278.58935 197.375245 
L 304.207549 197.375245 
L 304.207549 206.94917 
L 355.490736 206.94917 
L 355.490736 174.945543 
L 377.868642 174.945543 
L 377.868642 131.404003 
L 398.140942 131.404003 
L 398.140942 106.779648 
L 410.072706 106.779648 
L 410.072706 88.90231 
L 419.196996 88.90231 
L 419.196996 66.298375 
L 431.117061 66.298375 
L 431.117061 52.31843 
L 438.779125 52.31843 
L 438.779125 49.48573 
L 440.253049 49.48573 
" clip-path="url(#p0963e53686)" style="fill: none; stroke: #278f48; stroke-opacity: 0.25; stroke-linecap: square"/>
   </g>
   <g id="line2d_10">
    <path d="M 89.318826 116.571475 
L 89.318826 116.571475 
L 170.852544 116.571475 
L 170.852544 126.826529 
L 201.149865 126.826529 
L 201.149865 150.165245 
L 253.439064 150.165245 
L 253.439064 163.86523 
L 278.58935 163.86523 
L 278.58935 177.764254 
L 304.207549 177.764254 
L 304.207549 183.999745 
L 355.490736 183.999745 
L 355.490736 159.95426 
L 377.868642 159.95426 
L 377.868642 127.102598 
L 398.140942 127.102598 
L 398.140942 106.889579 
L 410.072706 106.889579 
L 410.072706 90.944687 
L 419.196996 90.944687 
L 419.196996 69.787014 
L 431.117061 69.787014 
L 431.117061 56.030457 
L 438.779125 56.030457 
L 438.779125 53.382035 
L 440.253049 53.382035 
" clip-path="url(#p0963e53686)" style="fill: none; stroke: #278f48; stroke-opacity: 0.25; stroke-linecap: square"/>
   </g>
   <g id="line2d_11">
    <path d="M 89.318826 81.070438 
L 89.318826 81.070438 
L 170.852544 81.070438 
L 170.852544 93.072 
L 201.149865 93.072 
L 201.149865 132.711937 
L 253.439064 132.711937 
L 253.439064 160.562851 
L 278.58935 160.562851 
L 278.58935 192.763357 
L 304.207549 192.763357 
L 304.207549 249.018182 
L 355.490736 249.018182 
L 355.490736 197.993445 
L 377.868642 197.993445 
L 377.868642 131.623928 
L 398.140942 131.623928 
L 398.140942 108.366128 
L 410.072706 108.366128 
L 410.072706 97.038645 
L 419.196996 97.038645 
L 419.196996 87.277141 
L 431.117061 87.277141 
L 431.117061 83.190883 
L 438.779125 83.190883 
L 438.779125 82.575529 
L 440.253049 82.575529 
" clip-path="url(#p0963e53686)" style="fill: none; stroke: #278f48; stroke-opacity: 0.25; stroke-linecap: square"/>
   </g>
   <g id="line2d_12">
    <path d="M 89.318826 121.454976 
L 89.318826 121.454976 
L 170.852544 121.454976 
L 170.852544 126.021692 
L 201.149865 126.021692 
L 201.149865 147.98005 
L 253.439064 147.98005 
L 253.439064 164.371173 
L 278.58935 164.371173 
L 278.58935 183.392062 
L 304.207549 183.392062 
L 304.207549 218.927128 
L 355.490736 218.927128 
L 355.490736 196.945129 
L 377.868642 196.945129 
L 377.868642 133.408144 
L 398.140942 133.408144 
L 398.140942 109.381311 
L 410.072706 109.381311 
L 410.072706 97.495039 
L 419.196996 97.495039 
L 419.196996 87.562682 
L 431.117061 87.562682 
L 431.117061 83.647947 
L 438.779125 83.647947 
L 438.779125 82.957719 
L 440.253049 82.957719 
" clip-path="url(#p0963e53686)" style="fill: none; stroke: #278f48; stroke-opacity: 0.25; stroke-linecap: square"/>
   </g>
   <g id="line2d_13">
    <path d="M 89.318826 108.640307 
L 89.318826 108.640307 
L 170.852544 108.640307 
L 170.852544 119.33617 
L 201.149865 119.33617 
L 201.149865 153.120434 
L 253.439064 153.120434 
L 253.439064 172.058001 
L 278.58935 172.058001 
L 278.58935 192.879984 
L 304.207549 192.879984 
L 304.207549 228.688614 
L 355.490736 228.688614 
L 355.490736 201.016182 
L 377.868642 201.016182 
L 377.868642 134.853493 
L 398.140942 134.853493 
L 398.140942 106.36012 
L 410.072706 106.36012 
L 410.072706 91.256417 
L 419.196996 91.256417 
L 419.196996 77.655349 
L 431.117061 77.655349 
L 431.117061 71.964004 
L 438.779125 71.964004 
L 438.779125 70.947064 
L 440.253049 70.947064 
" clip-path="url(#p0963e53686)" style="fill: none; stroke: #278f48; stroke-opacity: 0.25; stroke-linecap: square"/>
   </g>
   <g id="line2d_14">
    <path d="M 89.318826 113.300324 
L 89.318826 113.300324 
L 170.852544 113.300324 
L 170.852544 124.17338 
L 201.149865 124.17338 
L 201.149865 150.491813 
L 253.439064 150.491813 
L 253.439064 167.068462 
L 278.58935 167.068462 
L 278.58935 187.656867 
L 304.207549 187.656867 
L 304.207549 217.728666 
L 355.490736 217.728666 
L 355.490736 179.848675 
L 377.868642 179.848675 
L 377.868642 130.07276 
L 398.140942 130.07276 
L 398.140942 110.726539 
L 410.072706 110.726539 
L 410.072706 100.335678 
L 419.196996 100.335678 
L 419.196996 91.386843 
L 431.117061 91.386843 
L 431.117061 86.95523 
L 438.779125 86.95523 
L 438.779125 86.218792 
L 440.253049 86.218792 
" clip-path="url(#p0963e53686)" style="fill: none; stroke: #278f48; stroke-opacity: 0.25; stroke-linecap: square"/>
   </g>
   <g id="line2d_15">
    <path d="M 89.318826 87.572739 
L 89.318826 87.572739 
L 170.852544 87.572739 
L 170.852544 96.212286 
L 201.149865 96.212286 
L 201.149865 131.688939 
L 253.439064 131.688939 
L 253.439064 156.351791 
L 278.58935 156.351791 
L 278.58935 186.796857 
L 304.207549 186.796857 
L 304.207549 247.046894 
L 355.490736 247.046894 
L 355.490736 207.783721 
L 377.868642 207.783721 
L 377.868642 134.762228 
L 398.140942 134.762228 
L 398.140942 107.39985 
L 410.072706 107.39985 
L 410.072706 93.849442 
L 419.196996 93.849442 
L 419.196996 81.808028 
L 431.117061 81.808028 
L 431.117061 76.758331 
L 438.779125 76.758331 
L 438.779125 76.089962 
L 440.253049 76.089962 
" clip-path="url(#p0963e53686)" style="fill: none; stroke: #278f48; stroke-opacity: 0.25; stroke-linecap: square"/>
   </g>
   <g id="line2d_16">
    <path d="M 89.318826 124.717597 
L 89.318826 124.717597 
L 170.852544 124.717597 
L 170.852544 131.587842 
L 201.149865 131.587842 
L 201.149865 149.785505 
L 253.439064 149.785505 
L 253.439064 162.164819 
L 278.58935 162.164819 
L 278.58935 176.85214 
L 304.207549 176.85214 
L 304.207549 190.470469 
L 355.490736 190.470469 
L 355.490736 163.133727 
L 377.868642 163.133727 
L 377.868642 126.903062 
L 398.140942 126.903062 
L 398.140942 108.611319 
L 410.072706 108.611319 
L 410.072706 96.155667 
L 419.196996 96.155667 
L 419.196996 80.703886 
L 431.117061 80.703886 
L 431.117061 72.208467 
L 438.779125 72.208467 
L 438.779125 70.69347 
L 440.253049 70.69347 
" clip-path="url(#p0963e53686)" style="fill: none; stroke: #278f48; stroke-opacity: 0.25; stroke-linecap: square"/>
   </g>
   <g id="line2d_17">
    <path d="M 89.318826 100.763127 
L 89.318826 100.763127 
L 170.852544 100.763127 
L 170.852544 111.137877 
L 201.149865 111.137877 
L 201.149865 140.87892 
L 253.439064 140.87892 
L 253.439064 161.110778 
L 278.58935 161.110778 
L 278.58935 182.854311 
L 304.207549 182.854311 
L 304.207549 218.847102 
L 355.490736 218.847102 
L 355.490736 194.900303 
L 377.868642 194.900303 
L 377.868642 129.903526 
L 398.140942 129.903526 
L 398.140942 103.020256 
L 410.072706 103.020256 
L 410.072706 88.757215 
L 419.196996 88.757215 
L 419.196996 76.462946 
L 431.117061 76.462946 
L 431.117061 71.299147 
L 438.779125 71.299147 
L 438.779125 70.398581 
L 440.253049 70.398581 
" clip-path="url(#p0963e53686)" style="fill: none; stroke: #278f48; stroke-opacity: 0.25; stroke-linecap: square"/>
   </g>
   <g id="line2d_18">
    <path d="M 89.318826 126.448636 
L 89.318826 126.448636 
L 170.852544 126.448636 
L 170.852544 132.950805 
L 201.149865 132.950805 
L 201.149865 151.998417 
L 253.439064 151.998417 
L 253.439064 163.695642 
L 278.58935 163.695642 
L 278.58935 174.199578 
L 304.207549 174.199578 
L 304.207549 172.636011 
L 355.490736 172.636011 
L 355.490736 147.38771 
L 377.868642 147.38771 
L 377.868642 116.7881 
L 398.140942 116.7881 
L 398.140942 98.165237 
L 410.072706 98.165237 
L 410.072706 83.493125 
L 419.196996 83.493125 
L 419.196996 64.768966 
L 431.117061 64.768966 
L 431.117061 52.605153 
L 438.779125 52.605153 
L 438.779125 50.347324 
L 440.253049 50.347324 
" clip-path="url(#p0963e53686)" style="fill: none; stroke: #278f48; stroke-opacity: 0.25; stroke-linecap: square"/>
   </g>
   <g id="line2d_19">
    <path d="M 89.318826 96.438437 
L 89.318826 96.438437 
L 170.852544 96.438437 
L 170.852544 106.853786 
L 201.149865 106.853786 
L 201.149865 141.428561 
L 253.439064 141.428561 
L 253.439064 160.272711 
L 278.58935 160.272711 
L 278.58935 177.927441 
L 304.207549 177.927441 
L 304.207549 185.925176 
L 355.490736 185.925176 
L 355.490736 162.096345 
L 377.868642 162.096345 
L 377.868642 129.625887 
L 398.140942 129.625887 
L 398.140942 109.786677 
L 410.072706 109.786677 
L 410.072706 95.355928 
L 419.196996 95.355928 
L 419.196996 77.045915 
L 431.117061 77.045915 
L 431.117061 65.811086 
L 438.779125 65.811086 
L 438.779125 63.66762 
L 440.253049 63.66762 
" clip-path="url(#p0963e53686)" style="fill: none; stroke: #278f48; stroke-opacity: 0.25; stroke-linecap: square"/>
   </g>
   <g id="line2d_20">
    <path d="M 89.318826 105.184391 
L 89.318826 105.184391 
L 170.852544 105.184391 
L 170.852544 120.901468 
L 201.149865 120.901468 
L 201.149865 159.990137 
L 253.439064 159.990137 
L 253.439064 179.289737 
L 278.58935 179.289737 
L 278.58935 196.811466 
L 304.207549 196.811466 
L 304.207549 206.864651 
L 355.490736 206.864651 
L 355.490736 173.283465 
L 377.868642 173.283465 
L 377.868642 129.773408 
L 398.140942 129.773408 
L 398.140942 108.05751 
L 410.072706 108.05751 
L 410.072706 93.408633 
L 419.196996 93.408633 
L 419.196996 77.026104 
L 431.117061 77.026104 
L 431.117061 67.184211 
L 438.779125 67.184211 
L 438.779125 65.429892 
L 440.253049 65.429892 
" clip-path="url(#p0963e53686)" style="fill: none; stroke: #278f48; stroke-opacity: 0.25; stroke-linecap: square"/>
   </g>
   <g id="line2d_21">
    <path d="M 89.318826 97.161707 
L 89.318826 97.161707 
L 170.852544 97.161707 
L 170.852544 121.216616 
L 201.149865 121.216616 
L 201.149865 163.569375 
L 253.439064 163.569375 
L 253.439064 181.560754 
L 278.58935 181.560754 
L 278.58935 197.661868 
L 304.207549 197.661868 
L 304.207549 204.920537 
L 355.490736 204.920537 
L 355.490736 180.13995 
L 377.868642 180.13995 
L 377.868642 141.803811 
L 398.140942 141.803811 
L 398.140942 115.613884 
L 410.072706 115.613884 
L 410.072706 94.305086 
L 419.196996 94.305086 
L 419.196996 63.97342 
L 431.117061 63.97342 
L 431.117061 42.883011 
L 438.779125 42.883011 
L 438.779125 38.720248 
L 440.253049 38.720248 
" clip-path="url(#p0963e53686)" style="fill: none; stroke: #278f48; stroke-opacity: 0.25; stroke-linecap: square"/>
   </g>
   <g id="line2d_22">
    <path d="M 89.318826 103.681946 
L 89.318826 103.681946 
L 170.852544 103.681946 
L 170.852544 113.23875 
L 201.149865 113.23875 
L 201.149865 146.732868 
L 253.439064 146.732868 
L 253.439064 169.71609 
L 278.58935 169.71609 
L 278.58935 195.032442 
L 304.207549 195.032442 
L 304.207549 237.458549 
L 355.490736 237.458549 
L 355.490736 217.838825 
L 377.868642 217.838825 
L 377.868642 139.592685 
L 398.140942 139.592685 
L 398.140942 102.165468 
L 410.072706 102.165468 
L 410.072706 82.809592 
L 419.196996 82.809592 
L 419.196996 66.69136 
L 431.117061 66.69136 
L 431.117061 59.928167 
L 438.779125 59.928167 
L 438.779125 58.790746 
L 440.253049 58.790746 
" clip-path="url(#p0963e53686)" style="fill: none; stroke: #278f48; stroke-opacity: 0.25; stroke-linecap: square"/>
   </g>
   <g id="line2d_23">
    <path d="M 89.318826 132.571381 
L 89.318826 132.571381 
L 170.852544 132.571381 
L 170.852544 137.956377 
L 201.149865 137.956377 
L 201.149865 154.415162 
L 253.439064 154.415162 
L 253.439064 167.06984 
L 278.58935 167.06984 
L 278.58935 184.279393 
L 304.207549 184.279393 
L 304.207549 218.561849 
L 355.490736 218.561849 
L 355.490736 192.817679 
L 377.868642 192.817679 
L 377.868642 142.358823 
L 398.140942 142.358823 
L 398.140942 123.611819 
L 410.072706 123.611819 
L 410.072706 114.024676 
L 419.196996 114.024676 
L 419.196996 105.912275 
L 431.117061 105.912275 
L 431.117061 102.470874 
L 438.779125 102.470874 
L 438.779125 101.900386 
L 440.253049 101.900386 
" clip-path="url(#p0963e53686)" style="fill: none; stroke: #278f48; stroke-opacity: 0.25; stroke-linecap: square"/>
   </g>
   <g id="line2d_24">
    <path d="M 89.318826 102.996685 
L 89.318826 102.996685 
L 170.852544 102.996685 
L 170.852544 112.429218 
L 201.149865 112.429218 
L 201.149865 139.960531 
L 253.439064 139.960531 
L 253.439064 159.172807 
L 278.58935 159.172807 
L 278.58935 181.929348 
L 304.207549 181.929348 
L 304.207549 212.945025 
L 355.490736 212.945025 
L 355.490736 180.10311 
L 377.868642 180.10311 
L 377.868642 131.399609 
L 398.140942 131.399609 
L 398.140942 107.635456 
L 410.072706 107.635456 
L 410.072706 92.044204 
L 419.196996 92.044204 
L 419.196996 75.217618 
L 431.117061 75.217618 
L 431.117061 65.905739 
L 438.779125 65.905739 
L 438.779125 64.225374 
L 440.253049 64.225374 
" clip-path="url(#p0963e53686)" style="fill: none; stroke: #278f48; stroke-opacity: 0.25; stroke-linecap: square"/>
   </g>
   <g id="line2d_25">
    <path d="M 89.318826 81.74858 
L 89.318826 81.74858 
L 170.852544 81.74858 
L 170.852544 94.928093 
L 201.149865 94.928093 
L 201.149865 144.110314 
L 253.439064 144.110314 
L 253.439064 171.601076 
L 278.58935 171.601076 
L 278.58935 201.713604 
L 304.207549 201.713604 
L 304.207549 247.413333 
L 355.490736 247.413333 
L 355.490736 219.609456 
L 377.868642 219.609456 
L 377.868642 143.904372 
L 398.140942 143.904372 
L 398.140942 107.434342 
L 410.072706 107.434342 
L 410.072706 88.742834 
L 419.196996 88.742834 
L 419.196996 72.853618 
L 431.117061 72.853618 
L 431.117061 66.431146 
L 438.779125 66.431146 
L 438.779125 65.368908 
L 440.253049 65.368908 
" clip-path="url(#p0963e53686)" style="fill: none; stroke: #278f48; stroke-opacity: 0.25; stroke-linecap: square"/>
   </g>
   <g id="line2d_26">
    <path d="M 89.318826 101.519873 
L 89.318826 101.519873 
L 170.852544 101.519873 
L 170.852544 114.696029 
L 201.149865 114.696029 
L 201.149865 147.913852 
L 253.439064 147.913852 
L 253.439064 168.379026 
L 278.58935 168.379026 
L 278.58935 190.019501 
L 304.207549 190.019501 
L 304.207549 216.179131 
L 355.490736 216.179131 
L 355.490736 182.187243 
L 377.868642 182.187243 
L 377.868642 130.349094 
L 398.140942 130.349094 
L 398.140942 102.72393 
L 410.072706 102.72393 
L 410.072706 84.412302 
L 419.196996 84.412302 
L 419.196996 63.382205 
L 431.117061 63.382205 
L 431.117061 51.722439 
L 438.779125 51.722439 
L 438.779125 49.509112 
L 440.253049 49.509112 
" clip-path="url(#p0963e53686)" style="fill: none; stroke: #278f48; stroke-opacity: 0.25; stroke-linecap: square"/>
   </g>
   <g id="line2d_27">
    <path d="M 89.318826 96.141436 
L 89.318826 96.141436 
L 170.852544 96.141436 
L 170.852544 113.577609 
L 201.149865 113.577609 
L 201.149865 160.305344 
L 253.439064 160.305344 
L 253.439064 180.377983 
L 278.58935 180.377983 
L 278.58935 195.43506 
L 304.207549 195.43506 
L 304.207549 197.203636 
L 355.490736 197.203636 
L 355.490736 163.937758 
L 377.868642 163.937758 
L 377.868642 123.28581 
L 398.140942 123.28581 
L 398.140942 100.55316 
L 410.072706 100.55316 
L 410.072706 84.554831 
L 419.196996 84.554831 
L 419.196996 65.527268 
L 431.117061 65.527268 
L 431.117061 54.241419 
L 438.779125 54.241419 
L 438.779125 52.047294 
L 440.253049 52.047294 
" clip-path="url(#p0963e53686)" style="fill: none; stroke: #278f48; stroke-opacity: 0.25; stroke-linecap: square"/>
   </g>
   <g id="line2d_28">
    <path d="M 89.318826 106.910457 
L 89.318826 106.910457 
L 170.852544 106.910457 
L 170.852544 112.927624 
L 201.149865 112.927624 
L 201.149865 141.421773 
L 253.439064 141.421773 
L 253.439064 162.719579 
L 278.58935 162.719579 
L 278.58935 185.259874 
L 304.207549 185.259874 
L 304.207549 216.019317 
L 355.490736 216.019317 
L 355.490736 192.955329 
L 377.868642 192.955329 
L 377.868642 135.060483 
L 398.140942 135.060483 
L 398.140942 108.97099 
L 410.072706 108.97099 
L 410.072706 92.985185 
L 419.196996 92.985185 
L 419.196996 78.432111 
L 431.117061 78.432111 
L 431.117061 72.022497 
L 438.779125 72.022497 
L 438.779125 70.983349 
L 440.253049 70.983349 
" clip-path="url(#p0963e53686)" style="fill: none; stroke: #278f48; stroke-opacity: 0.25; stroke-linecap: square"/>
   </g>
   <g id="line2d_29">
    <path d="M 89.318826 96.285817 
L 89.318826 96.285817 
L 170.852544 96.285817 
L 170.852544 124.318161 
L 201.149865 124.318161 
L 201.149865 164.180785 
L 253.439064 164.180785 
L 253.439064 178.913068 
L 278.58935 178.913068 
L 278.58935 188.64829 
L 304.207549 188.64829 
L 304.207549 178.773666 
L 355.490736 178.773666 
L 355.490736 151.960223 
L 377.868642 151.960223 
L 377.868642 122.643848 
L 398.140942 122.643848 
L 398.140942 106.529998 
L 410.072706 106.529998 
L 410.072706 94.602497 
L 419.196996 94.602497 
L 419.196996 80.172963 
L 431.117061 80.172963 
L 431.117061 71.345795 
L 438.779125 71.345795 
L 438.779125 69.690405 
L 440.253049 69.690405 
" clip-path="url(#p0963e53686)" style="fill: none; stroke: #278f48; stroke-opacity: 0.25; stroke-linecap: square"/>
   </g>
   <g id="line2d_30">
    <path d="M 89.318826 105.921999 
L 89.318826 105.921999 
L 170.852544 105.921999 
L 170.852544 123.12094 
L 201.149865 123.12094 
L 201.149865 165.224075 
L 253.439064 165.224075 
L 253.439064 186.637089 
L 278.58935 186.637089 
L 278.58935 205.808301 
L 304.207549 205.808301 
L 304.207549 213.884601 
L 355.490736 213.884601 
L 355.490736 177.26718 
L 377.868642 177.26718 
L 377.868642 132.581742 
L 398.140942 132.581742 
L 398.140942 110.772413 
L 410.072706 110.772413 
L 410.072706 96.697172 
L 419.196996 96.697172 
L 419.196996 81.610153 
L 431.117061 81.610153 
L 431.117061 73.337749 
L 438.779125 73.337749 
L 438.779125 71.758153 
L 440.253049 71.758153 
" clip-path="url(#p0963e53686)" style="fill: none; stroke: #278f48; stroke-opacity: 0.25; stroke-linecap: square"/>
   </g>
   <g id="line2d_31">
    <path d="M 89.318826 121.290568 
L 89.318826 121.290568 
L 170.852544 121.290568 
L 170.852544 135.877171 
L 201.149865 135.877171 
L 201.149865 163.578103 
L 253.439064 163.578103 
L 253.439064 176.178876 
L 278.58935 176.178876 
L 278.58935 187.266511 
L 304.207549 187.266511 
L 304.207549 185.905496 
L 355.490736 185.905496 
L 355.490736 161.35415 
L 377.868642 161.35415 
L 377.868642 132.374636 
L 398.140942 132.374636 
L 398.140942 115.763889 
L 410.072706 115.763889 
L 410.072706 103.170242 
L 419.196996 103.170242 
L 419.196996 87.061082 
L 431.117061 87.061082 
L 431.117061 77.144385 
L 438.779125 77.144385 
L 438.779125 75.19616 
L 440.253049 75.19616 
" clip-path="url(#p0963e53686)" style="fill: none; stroke: #278f48; stroke-opacity: 0.25; stroke-linecap: square"/>
   </g>
   <g id="line2d_32">
    <path d="M 89.318826 111.097656 
L 89.318826 111.097656 
L 170.852544 111.097656 
L 170.852544 121.865296 
L 201.149865 121.865296 
L 201.149865 152.979497 
L 253.439064 152.979497 
L 253.439064 171.378722 
L 278.58935 171.378722 
L 278.58935 190.864394 
L 304.207549 190.864394 
L 304.207549 206.723481 
L 355.490736 206.723481 
L 355.490736 175.893669 
L 377.868642 175.893669 
L 377.868642 132.92808 
L 398.140942 132.92808 
L 398.140942 110.394784 
L 410.072706 110.394784 
L 410.072706 95.448989 
L 419.196996 95.448989 
L 419.196996 77.852609 
L 431.117061 77.852609 
L 431.117061 68.003597 
L 438.779125 68.003597 
L 438.779125 66.175284 
L 440.253049 66.175284 
" clip-path="url(#p0963e53686)" style="fill: none; stroke: #278f48; stroke-opacity: 0.25; stroke-linecap: square"/>
   </g>
   <g id="line2d_33">
    <path d="M 89.318826 96.34573 
L 89.318826 96.34573 
L 170.852544 96.34573 
L 170.852544 108.241183 
L 201.149865 108.241183 
L 201.149865 140.003711 
L 253.439064 140.003711 
L 253.439064 159.321828 
L 278.58935 159.321828 
L 278.58935 180.669194 
L 304.207549 180.669194 
L 304.207549 214.839549 
L 355.490736 214.839549 
L 355.490736 186.583925 
L 377.868642 186.583925 
L 377.868642 129.269892 
L 398.140942 129.269892 
L 398.140942 103.41824 
L 410.072706 103.41824 
L 410.072706 87.706537 
L 419.196996 87.706537 
L 419.196996 72.372474 
L 431.117061 72.372474 
L 431.117061 64.882575 
L 438.779125 64.882575 
L 438.779125 63.481424 
L 440.253049 63.481424 
" clip-path="url(#p0963e53686)" style="fill: none; stroke: #278f48; stroke-opacity: 0.25; stroke-linecap: square"/>
   </g>
   <g id="line2d_34">
    <path d="M 89.318826 120.882713 
L 89.318826 120.882713 
L 170.852544 120.882713 
L 170.852544 132.760637 
L 201.149865 132.760637 
L 201.149865 166.974871 
L 253.439064 166.974871 
L 253.439064 186.668102 
L 278.58935 186.668102 
L 278.58935 204.72828 
L 304.207549 204.72828 
L 304.207549 213.056778 
L 355.490736 213.056778 
L 355.490736 172.218826 
L 377.868642 172.218826 
L 377.868642 128.335038 
L 398.140942 128.335038 
L 398.140942 108.918808 
L 410.072706 108.918808 
L 410.072706 97.88735 
L 419.196996 97.88735 
L 419.196996 86.952058 
L 431.117061 86.952058 
L 431.117061 81.594981 
L 438.779125 81.594981 
L 438.779125 80.565454 
L 440.253049 80.565454 
" clip-path="url(#p0963e53686)" style="fill: none; stroke: #278f48; stroke-opacity: 0.25; stroke-linecap: square"/>
   </g>
   <g id="line2d_35">
    <path d="M 89.318826 93.146899 
L 89.318826 93.146899 
L 170.852544 93.146899 
L 170.852544 109.901704 
L 201.149865 109.901704 
L 201.149865 146.610224 
L 253.439064 146.610224 
L 253.439064 165.191255 
L 278.58935 165.191255 
L 278.58935 184.458481 
L 304.207549 184.458481 
L 304.207549 207.158272 
L 355.490736 207.158272 
L 355.490736 176.607662 
L 377.868642 176.607662 
L 377.868642 134.837399 
L 398.140942 134.837399 
L 398.140942 114.441463 
L 410.072706 114.441463 
L 410.072706 101.48681 
L 419.196996 101.48681 
L 419.196996 87.500795 
L 431.117061 87.500795 
L 431.117061 80.237665 
L 438.779125 80.237665 
L 438.779125 78.900491 
L 440.253049 78.900491 
" clip-path="url(#p0963e53686)" style="fill: none; stroke: #278f48; stroke-opacity: 0.25; stroke-linecap: square"/>
   </g>
   <g id="line2d_36">
    <path d="M 89.318826 111.95137 
L 89.318826 111.95137 
L 170.852544 111.95137 
L 170.852544 119.117643 
L 201.149865 119.117643 
L 201.149865 143.387517 
L 253.439064 143.387517 
L 253.439064 159.048694 
L 278.58935 159.048694 
L 278.58935 177.885463 
L 304.207549 177.885463 
L 304.207549 208.172836 
L 355.490736 208.172836 
L 355.490736 181.100948 
L 377.868642 181.100948 
L 377.868642 127.245609 
L 398.140942 127.245609 
L 398.140942 100.824295 
L 410.072706 100.824295 
L 410.072706 83.762644 
L 419.196996 83.762644 
L 419.196996 65.786546 
L 431.117061 65.786546 
L 431.117061 56.792746 
L 438.779125 56.792746 
L 438.779125 55.215223 
L 440.253049 55.215223 
" clip-path="url(#p0963e53686)" style="fill: none; stroke: #278f48; stroke-opacity: 0.25; stroke-linecap: square"/>
   </g>
   <g id="line2d_37">
    <path d="M 89.318826 107.80418 
L 89.318826 107.80418 
L 170.852544 107.80418 
L 170.852544 125.512686 
L 201.149865 125.512686 
L 201.149865 163.080691 
L 253.439064 163.080691 
L 253.439064 182.872422 
L 278.58935 182.872422 
L 278.58935 202.517671 
L 304.207549 202.517671 
L 304.207549 216.744336 
L 355.490736 216.744336 
L 355.490736 181.010572 
L 377.868642 181.010572 
L 377.868642 136.177328 
L 398.140942 136.177328 
L 398.140942 114.302721 
L 410.072706 114.302721 
L 410.072706 99.794503 
L 419.196996 99.794503 
L 419.196996 84.411309 
L 431.117061 84.411309 
L 431.117061 75.812089 
L 438.779125 75.812089 
L 438.779125 74.247456 
L 440.253049 74.247456 
" clip-path="url(#p0963e53686)" style="fill: none; stroke: #278f48; stroke-opacity: 0.25; stroke-linecap: square"/>
   </g>
   <g id="line2d_38">
    <path d="M 89.318826 100.571676 
L 89.318826 100.571676 
L 170.852544 100.571676 
L 170.852544 109.663229 
L 201.149865 109.663229 
L 201.149865 138.059291 
L 253.439064 138.059291 
L 253.439064 157.185048 
L 278.58935 157.185048 
L 278.58935 181.876191 
L 304.207549 181.876191 
L 304.207549 220.019747 
L 355.490736 220.019747 
L 355.490736 181.094631 
L 377.868642 181.094631 
L 377.868642 128.606356 
L 398.140942 128.606356 
L 398.140942 102.396924 
L 410.072706 102.396924 
L 410.072706 85.002701 
L 419.196996 85.002701 
L 419.196996 65.888976 
L 431.117061 65.888976 
L 431.117061 55.912517 
L 438.779125 55.912517 
L 438.779125 53.957802 
L 440.253049 53.957802 
" clip-path="url(#p0963e53686)" style="fill: none; stroke: #278f48; stroke-opacity: 0.25; stroke-linecap: square"/>
   </g>
   <g id="line2d_39">
    <path d="M 89.318826 98.910368 
L 89.318826 98.910368 
L 170.852544 98.910368 
L 170.852544 116.682813 
L 201.149865 116.682813 
L 201.149865 155.003611 
L 253.439064 155.003611 
L 253.439064 174.761184 
L 278.58935 174.761184 
L 278.58935 193.92561 
L 304.207549 193.92561 
L 304.207549 200.956507 
L 355.490736 200.956507 
L 355.490736 164.844066 
L 377.868642 164.844066 
L 377.868642 127.055736 
L 398.140942 127.055736 
L 398.140942 107.151834 
L 410.072706 107.151834 
L 410.072706 92.919501 
L 419.196996 92.919501 
L 419.196996 75.883557 
L 431.117061 75.883557 
L 431.117061 65.57489 
L 438.779125 65.57489 
L 438.779125 63.722645 
L 440.253049 63.722645 
" clip-path="url(#p0963e53686)" style="fill: none; stroke: #278f48; stroke-opacity: 0.25; stroke-linecap: square"/>
   </g>
   <g id="line2d_40">
    <path d="M 89.318826 131.194539 
L 89.318826 131.194539 
L 170.852544 131.194539 
L 170.852544 136.668451 
L 201.149865 136.668451 
L 201.149865 159.23954 
L 253.439064 159.23954 
L 253.439064 173.694765 
L 278.58935 173.694765 
L 278.58935 188.069818 
L 304.207549 188.069818 
L 304.207549 199.98309 
L 355.490736 199.98309 
L 355.490736 173.421953 
L 377.868642 173.421953 
L 377.868642 131.772877 
L 398.140942 131.772877 
L 398.140942 106.472036 
L 410.072706 106.472036 
L 410.072706 88.708407 
L 419.196996 88.708407 
L 419.196996 68.506914 
L 431.117061 68.506914 
L 431.117061 57.943635 
L 438.779125 57.943635 
L 438.779125 55.811268 
L 440.253049 55.811268 
" clip-path="url(#p0963e53686)" style="fill: none; stroke: #278f48; stroke-opacity: 0.25; stroke-linecap: square"/>
   </g>
   <g id="line2d_41">
    <path d="M 89.318826 96.798917 
L 89.318826 96.798917 
L 170.852544 96.798917 
L 170.852544 123.842611 
L 201.149865 123.842611 
L 201.149865 170.620646 
L 253.439064 170.620646 
L 253.439064 189.87884 
L 278.58935 189.87884 
L 278.58935 203.121216 
L 304.207549 203.121216 
L 304.207549 195.802267 
L 355.490736 195.802267 
L 355.490736 168.566579 
L 377.868642 168.566579 
L 377.868642 136.501605 
L 398.140942 136.501605 
L 398.140942 118.509113 
L 410.072706 118.509113 
L 410.072706 105.608298 
L 419.196996 105.608298 
L 419.196996 90.303179 
L 431.117061 90.303179 
L 431.117061 81.254526 
L 438.779125 81.254526 
L 438.779125 79.617519 
L 440.253049 79.617519 
" clip-path="url(#p0963e53686)" style="fill: none; stroke: #278f48; stroke-opacity: 0.25; stroke-linecap: square"/>
   </g>
   <g id="line2d_42">
    <path d="M 89.318826 96.122329 
L 89.318826 96.122329 
L 170.852544 96.122329 
L 170.852544 112.780275 
L 201.149865 112.780275 
L 201.149865 147.09303 
L 253.439064 147.09303 
L 253.439064 165.592193 
L 278.58935 165.592193 
L 278.58935 185.88115 
L 304.207549 185.88115 
L 304.207549 221.343635 
L 355.490736 221.343635 
L 355.490736 192.323296 
L 377.868642 192.323296 
L 377.868642 138.229342 
L 398.140942 138.229342 
L 398.140942 116.006366 
L 410.072706 116.006366 
L 410.072706 102.936857 
L 419.196996 102.936857 
L 419.196996 90.299828 
L 431.117061 90.299828 
L 431.117061 83.882258 
L 438.779125 83.882258 
L 438.779125 82.858819 
L 440.253049 82.858819 
" clip-path="url(#p0963e53686)" style="fill: none; stroke: #278f48; stroke-opacity: 0.25; stroke-linecap: square"/>
   </g>
   <g id="line2d_43">
    <path d="M 89.318826 111.311233 
L 89.318826 111.311233 
L 170.852544 111.311233 
L 170.852544 122.006046 
L 201.149865 122.006046 
L 201.149865 160.312798 
L 253.439064 160.312798 
L 253.439064 185.588769 
L 278.58935 185.588769 
L 278.58935 212.158008 
L 304.207549 212.158008 
L 304.207549 232.596532 
L 355.490736 232.596532 
L 355.490736 189.350604 
L 377.868642 189.350604 
L 377.868642 138.368154 
L 398.140942 138.368154 
L 398.140942 115.049117 
L 410.072706 115.049117 
L 410.072706 100.860494 
L 419.196996 100.860494 
L 419.196996 85.936242 
L 431.117061 85.936242 
L 431.117061 77.82506 
L 438.779125 77.82506 
L 438.779125 76.430958 
L 440.253049 76.430958 
" clip-path="url(#p0963e53686)" style="fill: none; stroke: #278f48; stroke-opacity: 0.25; stroke-linecap: square"/>
   </g>
   <g id="line2d_44">
    <path d="M 89.318826 125.737934 
L 89.318826 125.737934 
L 170.852544 125.737934 
L 170.852544 131.158758 
L 201.149865 131.158758 
L 201.149865 150.333946 
L 253.439064 150.333946 
L 253.439064 164.277261 
L 278.58935 164.277261 
L 278.58935 180.272245 
L 304.207549 180.272245 
L 304.207549 198.907413 
L 355.490736 198.907413 
L 355.490736 175.545702 
L 377.868642 175.545702 
L 377.868642 134.420427 
L 398.140942 134.420427 
L 398.140942 111.562467 
L 410.072706 111.562467 
L 410.072706 96.147154 
L 419.196996 96.147154 
L 419.196996 78.251021 
L 431.117061 78.251021 
L 431.117061 67.944241 
L 438.779125 67.944241 
L 438.779125 65.949231 
L 440.253049 65.949231 
" clip-path="url(#p0963e53686)" style="fill: none; stroke: #278f48; stroke-opacity: 0.25; stroke-linecap: square"/>
   </g>
   <g id="line2d_45">
    <path d="M 89.318826 139.54194 
L 89.318826 139.54194 
L 170.852544 139.54194 
L 170.852544 146.552352 
L 201.149865 146.552352 
L 201.149865 161.492489 
L 253.439064 161.492489 
L 253.439064 168.219814 
L 278.58935 168.219814 
L 278.58935 173.894803 
L 304.207549 173.894803 
L 304.207549 169.707586 
L 355.490736 169.707586 
L 355.490736 151.551632 
L 377.868642 151.551632 
L 377.868642 128.05634 
L 398.140942 128.05634 
L 398.140942 113.498354 
L 410.072706 113.498354 
L 410.072706 102.522929 
L 419.196996 102.522929 
L 419.196996 88.339317 
L 431.117061 88.339317 
L 431.117061 79.784338 
L 438.779125 79.784338 
L 438.779125 78.015613 
L 440.253049 78.015613 
" clip-path="url(#p0963e53686)" style="fill: none; stroke: #278f48; stroke-opacity: 0.25; stroke-linecap: square"/>
   </g>
   <g id="line2d_46">
    <path d="M 89.318826 78.73921 
L 89.318826 78.73921 
L 170.852544 78.73921 
L 170.852544 117.176391 
L 201.149865 117.176391 
L 201.149865 174.369515 
L 253.439064 174.369515 
L 253.439064 189.274062 
L 278.58935 189.274062 
L 278.58935 193.992983 
L 304.207549 193.992983 
L 304.207549 173.439101 
L 355.490736 173.439101 
L 355.490736 151.215501 
L 377.868642 151.215501 
L 377.868642 125.356991 
L 398.140942 125.356991 
L 398.140942 108.072214 
L 410.072706 108.072214 
L 410.072706 93.657851 
L 419.196996 93.657851 
L 419.196996 72.257117 
L 431.117061 72.257117 
L 431.117061 57.196209 
L 438.779125 57.196209 
L 438.779125 54.439915 
L 440.253049 54.439915 
" clip-path="url(#p0963e53686)" style="fill: none; stroke: #278f48; stroke-opacity: 0.25; stroke-linecap: square"/>
   </g>
   <g id="line2d_47">
    <path d="M 89.318826 112.990993 
L 89.318826 112.990993 
L 170.852544 112.990993 
L 170.852544 124.49607 
L 201.149865 124.49607 
L 201.149865 156.295958 
L 253.439064 156.295958 
L 253.439064 177.204235 
L 278.58935 177.204235 
L 278.58935 201.674621 
L 304.207549 201.674621 
L 304.207549 236.286716 
L 355.490736 236.286716 
L 355.490736 192.090106 
L 377.868642 192.090106 
L 377.868642 134.571992 
L 398.140942 134.571992 
L 398.140942 113.69624 
L 410.072706 113.69624 
L 410.072706 102.290574 
L 419.196996 102.290574 
L 419.196996 92.439059 
L 431.117061 92.439059 
L 431.117061 87.809 
L 438.779125 87.809 
L 438.779125 87.073095 
L 440.253049 87.073095 
" clip-path="url(#p0963e53686)" style="fill: none; stroke: #278f48; stroke-opacity: 0.25; stroke-linecap: square"/>
   </g>
   <g id="line2d_48">
    <path d="M 89.318826 103.791635 
L 89.318826 103.791635 
L 170.852544 103.791635 
L 170.852544 110.451086 
L 201.149865 110.451086 
L 201.149865 149.592964 
L 253.439064 149.592964 
L 253.439064 174.828471 
L 278.58935 174.828471 
L 278.58935 199.850838 
L 304.207549 199.850838 
L 304.207549 229.357073 
L 355.490736 229.357073 
L 355.490736 194.425893 
L 377.868642 194.425893 
L 377.868642 133.757365 
L 398.140942 133.757365 
L 398.140942 109.277643 
L 410.072706 109.277643 
L 410.072706 96.377223 
L 419.196996 96.377223 
L 419.196996 84.960945 
L 431.117061 84.960945 
L 431.117061 79.996712 
L 438.779125 79.996712 
L 438.779125 79.216325 
L 440.253049 79.216325 
" clip-path="url(#p0963e53686)" style="fill: none; stroke: #278f48; stroke-opacity: 0.25; stroke-linecap: square"/>
   </g>
   <g id="line2d_49">
    <path d="M 89.318826 89.591774 
L 89.318826 89.591774 
L 170.852544 89.591774 
L 170.852544 107.101994 
L 201.149865 107.101994 
L 201.149865 145.756476 
L 253.439064 145.756476 
L 253.439064 167.111703 
L 278.58935 167.111703 
L 278.58935 188.529204 
L 304.207549 188.529204 
L 304.207549 209.288948 
L 355.490736 209.288948 
L 355.490736 179.570435 
L 377.868642 179.570435 
L 377.868642 135.76134 
L 398.140942 135.76134 
L 398.140942 109.88246 
L 410.072706 109.88246 
L 410.072706 90.66757 
L 419.196996 90.66757 
L 419.196996 66.272121 
L 431.117061 66.272121 
L 431.117061 50.35564 
L 438.779125 50.35564 
L 438.779125 47.322754 
L 440.253049 47.322754 
" clip-path="url(#p0963e53686)" style="fill: none; stroke: #278f48; stroke-opacity: 0.25; stroke-linecap: square"/>
   </g>
   <g id="line2d_50">
    <path d="M 89.318826 89.051015 
L 89.318826 89.051015 
L 170.852544 89.051015 
L 170.852544 101.99092 
L 201.149865 101.99092 
L 201.149865 137.606792 
L 253.439064 137.606792 
L 253.439064 159.534346 
L 278.58935 159.534346 
L 278.58935 184.874692 
L 304.207549 184.874692 
L 304.207549 224.456456 
L 355.490736 224.456456 
L 355.490736 188.50144 
L 377.868642 188.50144 
L 377.868642 137.957496 
L 398.140942 137.957496 
L 398.140942 112.905429 
L 410.072706 112.905429 
L 410.072706 96.541054 
L 419.196996 96.541054 
L 419.196996 78.315394 
L 431.117061 78.315394 
L 431.117061 68.310855 
L 438.779125 68.310855 
L 438.779125 66.543229 
L 440.253049 66.543229 
" clip-path="url(#p0963e53686)" style="fill: none; stroke: #278f48; stroke-opacity: 0.25; stroke-linecap: square"/>
   </g>
   <g id="line2d_51">
    <path d="M 89.318826 118.024335 
L 89.318826 118.024335 
L 170.852544 118.024335 
L 170.852544 122.956219 
L 201.149865 122.956219 
L 201.149865 154.568072 
L 253.439064 154.568072 
L 253.439064 173.836744 
L 278.58935 173.836744 
L 278.58935 192.630111 
L 304.207549 192.630111 
L 304.207549 208.31016 
L 355.490736 208.31016 
L 355.490736 171.559083 
L 377.868642 171.559083 
L 377.868642 119.757226 
L 398.140942 119.757226 
L 398.140942 99.028864 
L 410.072706 99.028864 
L 410.072706 87.764294 
L 419.196996 87.764294 
L 419.196996 77.768885 
L 431.117061 77.768885 
L 431.117061 73.479581 
L 438.779125 73.479581 
L 438.779125 72.769408 
L 440.253049 72.769408 
" clip-path="url(#p0963e53686)" style="fill: none; stroke: #278f48; stroke-opacity: 0.25; stroke-linecap: square"/>
   </g>
   <g id="line2d_52">
    <path d="M 89.318826 99.382568 
L 89.318826 99.382568 
L 170.852544 99.382568 
L 170.852544 108.866024 
L 201.149865 108.866024 
L 201.149865 141.479092 
L 253.439064 141.479092 
L 253.439064 165.604201 
L 278.58935 165.604201 
L 278.58935 193.909085 
L 304.207549 193.909085 
L 304.207549 232.018047 
L 355.490736 232.018047 
L 355.490736 193.43219 
L 377.868642 193.43219 
L 377.868642 133.536171 
L 398.140942 133.536171 
L 398.140942 109.208505 
L 410.072706 109.208505 
L 410.072706 95.742846 
L 419.196996 95.742846 
L 419.196996 82.586037 
L 431.117061 82.586037 
L 431.117061 76.267319 
L 438.779125 76.267319 
L 438.779125 75.214749 
L 440.253049 75.214749 
" clip-path="url(#p0963e53686)" style="fill: none; stroke: #278f48; stroke-opacity: 0.25; stroke-linecap: square"/>
   </g>
   <g id="line2d_53">
    <path d="M 89.318826 90.59863 
L 89.318826 90.59863 
L 170.852544 90.59863 
L 170.852544 108.536555 
L 201.149865 108.536555 
L 201.149865 151.736914 
L 253.439064 151.736914 
L 253.439064 174.991647 
L 278.58935 174.991647 
L 278.58935 197.899679 
L 304.207549 197.899679 
L 304.207549 226.442886 
L 355.490736 226.442886 
L 355.490736 191.622814 
L 377.868642 191.622814 
L 377.868642 135.986524 
L 398.140942 135.986524 
L 398.140942 110.516635 
L 410.072706 110.516635 
L 410.072706 95.566791 
L 419.196996 95.566791 
L 419.196996 79.311534 
L 431.117061 79.311534 
L 431.117061 71.000343 
L 438.779125 71.000343 
L 438.779125 69.427679 
L 440.253049 69.427679 
" clip-path="url(#p0963e53686)" style="fill: none; stroke: #278f48; stroke-opacity: 0.25; stroke-linecap: square"/>
   </g>
   <g id="line2d_54">
    <path d="M 89.318826 67.675441 
L 89.318826 67.675441 
L 170.852544 67.675441 
L 170.852544 98.957773 
L 201.149865 98.957773 
L 201.149865 158.535918 
L 253.439064 158.535918 
L 253.439064 182.260155 
L 278.58935 182.260155 
L 278.58935 203.075001 
L 304.207549 203.075001 
L 304.207549 211.708464 
L 355.490736 211.708464 
L 355.490736 180.554034 
L 377.868642 180.554034 
L 377.868642 138.621461 
L 398.140942 138.621461 
L 398.140942 116.445915 
L 410.072706 116.445915 
L 410.072706 101.521323 
L 419.196996 101.521323 
L 419.196996 85.107898 
L 431.117061 85.107898 
L 431.117061 76.177907 
L 438.779125 76.177907 
L 438.779125 74.418588 
L 440.253049 74.418588 
" clip-path="url(#p0963e53686)" style="fill: none; stroke: #278f48; stroke-opacity: 0.25; stroke-linecap: square"/>
   </g>
   <g id="line2d_55">
    <path d="M 89.318826 96.656156 
L 89.318826 96.656156 
L 170.852544 96.656156 
L 170.852544 107.062265 
L 201.149865 107.062265 
L 201.149865 139.728737 
L 253.439064 139.728737 
L 253.439064 160.918285 
L 278.58935 160.918285 
L 278.58935 186.768595 
L 304.207549 186.768595 
L 304.207549 235.355981 
L 355.490736 235.355981 
L 355.490736 199.353135 
L 377.868642 199.353135 
L 377.868642 137.606872 
L 398.140942 137.606872 
L 398.140942 110.388741 
L 410.072706 110.388741 
L 410.072706 92.500168 
L 419.196996 92.500168 
L 419.196996 73.440988 
L 431.117061 73.440988 
L 431.117061 63.228339 
L 438.779125 63.228339 
L 438.779125 61.210948 
L 440.253049 61.210948 
" clip-path="url(#p0963e53686)" style="fill: none; stroke: #278f48; stroke-opacity: 0.25; stroke-linecap: square"/>
   </g>
   <g id="line2d_56">
    <path d="M 89.318826 106.037209 
L 89.318826 106.037209 
L 170.852544 106.037209 
L 170.852544 118.280703 
L 201.149865 118.280703 
L 201.149865 153.091878 
L 253.439064 153.091878 
L 253.439064 173.288331 
L 278.58935 173.288331 
L 278.58935 195.195 
L 304.207549 195.195 
L 304.207549 222.927703 
L 355.490736 222.927703 
L 355.490736 191.136056 
L 377.868642 191.136056 
L 377.868642 131.992147 
L 398.140942 131.992147 
L 398.140942 107.655574 
L 410.072706 107.655574 
L 410.072706 94.377689 
L 419.196996 94.377689 
L 419.196996 82.620771 
L 431.117061 82.620771 
L 431.117061 76.914611 
L 438.779125 76.914611 
L 438.779125 76.064247 
L 440.253049 76.064247 
" clip-path="url(#p0963e53686)" style="fill: none; stroke: #278f48; stroke-opacity: 0.25; stroke-linecap: square"/>
   </g>
   <g id="line2d_57">
    <path d="M 89.318826 108.440245 
L 89.318826 108.440245 
L 170.852544 108.440245 
L 170.852544 127.022446 
L 201.149865 127.022446 
L 201.149865 161.808881 
L 253.439064 161.808881 
L 253.439064 176.877624 
L 278.58935 176.877624 
L 278.58935 190.51832 
L 304.207549 190.51832 
L 304.207549 194.995904 
L 355.490736 194.995904 
L 355.490736 167.265496 
L 377.868642 167.265496 
L 377.868642 129.283211 
L 398.140942 129.283211 
L 398.140942 109.153031 
L 410.072706 109.153031 
L 410.072706 95.183017 
L 419.196996 95.183017 
L 419.196996 79.146837 
L 431.117061 79.146837 
L 431.117061 69.087243 
L 438.779125 69.087243 
L 438.779125 67.351697 
L 440.253049 67.351697 
" clip-path="url(#p0963e53686)" style="fill: none; stroke: #278f48; stroke-opacity: 0.25; stroke-linecap: square"/>
   </g>
   <g id="line2d_58">
    <path d="M 89.318826 122.635708 
L 89.318826 122.635708 
L 170.852544 122.635708 
L 170.852544 134.100581 
L 201.149865 134.100581 
L 201.149865 162.079146 
L 253.439064 162.079146 
L 253.439064 177.647003 
L 278.58935 177.647003 
L 278.58935 193.535741 
L 304.207549 193.535741 
L 304.207549 217.144775 
L 355.490736 217.144775 
L 355.490736 197.47872 
L 377.868642 197.47872 
L 377.868642 142.071605 
L 398.140942 142.071605 
L 398.140942 111.079683 
L 410.072706 111.079683 
L 410.072706 91.191516 
L 419.196996 91.191516 
L 419.196996 70.339023 
L 431.117061 70.339023 
L 431.117061 59.914478 
L 438.779125 59.914478 
L 438.779125 58.063545 
L 440.253049 58.063545 
" clip-path="url(#p0963e53686)" style="fill: none; stroke: #278f48; stroke-opacity: 0.25; stroke-linecap: square"/>
   </g>
   <g id="line2d_59">
    <path d="M 89.318826 90.383532 
L 89.318826 90.383532 
L 170.852544 90.383532 
L 170.852544 97.072863 
L 201.149865 97.072863 
L 201.149865 126.395627 
L 253.439064 126.395627 
L 253.439064 148.741551 
L 278.58935 148.741551 
L 278.58935 178.847972 
L 304.207549 178.847972 
L 304.207549 245.946576 
L 355.490736 245.946576 
L 355.490736 217.992321 
L 377.868642 217.992321 
L 377.868642 145.869857 
L 398.140942 145.869857 
L 398.140942 114.582675 
L 410.072706 114.582675 
L 410.072706 97.281471 
L 419.196996 97.281471 
L 419.196996 81.167119 
L 431.117061 81.167119 
L 431.117061 73.577023 
L 438.779125 73.577023 
L 438.779125 72.338695 
L 440.253049 72.338695 
" clip-path="url(#p0963e53686)" style="fill: none; stroke: #278f48; stroke-opacity: 0.25; stroke-linecap: square"/>
   </g>
   <g id="line2d_60">
    <path d="M 89.318826 72.064099 
L 89.318826 72.064099 
L 170.852544 72.064099 
L 170.852544 90.615531 
L 201.149865 90.615531 
L 201.149865 132.546257 
L 253.439064 132.546257 
L 253.439064 159.185832 
L 278.58935 159.185832 
L 278.58935 189.648814 
L 304.207549 189.648814 
L 304.207549 241.988891 
L 355.490736 241.988891 
L 355.490736 209.008175 
L 377.868642 209.008175 
L 377.868642 139.186018 
L 398.140942 139.186018 
L 398.140942 109.762483 
L 410.072706 109.762483 
L 410.072706 93.204676 
L 419.196996 93.204676 
L 419.196996 77.290682 
L 431.117061 77.290682 
L 431.117061 69.878079 
L 438.779125 69.878079 
L 438.779125 68.609601 
L 440.253049 68.609601 
" clip-path="url(#p0963e53686)" style="fill: none; stroke: #278f48; stroke-opacity: 0.25; stroke-linecap: square"/>
   </g>
   <g id="line2d_61">
    <path d="M 89.318826 104.474835 
L 89.318826 104.474835 
L 170.852544 104.474835 
L 170.852544 115.986987 
L 201.149865 115.986987 
L 201.149865 151.214591 
L 253.439064 151.214591 
L 253.439064 172.302113 
L 278.58935 172.302113 
L 278.58935 193.406262 
L 304.207549 193.406262 
L 304.207549 214.672956 
L 355.490736 214.672956 
L 355.490736 175.856464 
L 377.868642 175.856464 
L 377.868642 126.353002 
L 398.140942 126.353002 
L 398.140942 102.972424 
L 410.072706 102.972424 
L 410.072706 87.98802 
L 419.196996 87.98802 
L 419.196996 71.655634 
L 431.117061 71.655634 
L 431.117061 63.026113 
L 438.779125 63.026113 
L 438.779125 61.508226 
L 440.253049 61.508226 
" clip-path="url(#p0963e53686)" style="fill: none; stroke: #278f48; stroke-opacity: 0.25; stroke-linecap: square"/>
   </g>
   <g id="line2d_62">
    <path d="M 89.318826 121.384051 
L 89.318826 121.384051 
L 170.852544 121.384051 
L 170.852544 122.42154 
L 201.149865 122.42154 
L 201.149865 147.276992 
L 253.439064 147.276992 
L 253.439064 166.273636 
L 278.58935 166.273636 
L 278.58935 187.093886 
L 304.207549 187.093886 
L 304.207549 218.123876 
L 355.490736 218.123876 
L 355.490736 182.390874 
L 377.868642 182.390874 
L 377.868642 127.417 
L 398.140942 127.417 
L 398.140942 107.391463 
L 410.072706 107.391463 
L 410.072706 97.430278 
L 419.196996 97.430278 
L 419.196996 89.089982 
L 431.117061 89.089982 
L 431.117061 85.802472 
L 438.779125 85.802472 
L 438.779125 85.37275 
L 440.253049 85.37275 
" clip-path="url(#p0963e53686)" style="fill: none; stroke: #278f48; stroke-opacity: 0.25; stroke-linecap: square"/>
   </g>
   <g id="line2d_63">
    <path d="M 89.318826 79.32349 
L 89.318826 79.32349 
L 170.852544 79.32349 
L 170.852544 99.933543 
L 201.149865 99.933543 
L 201.149865 149.546462 
L 253.439064 149.546462 
L 253.439064 176.795788 
L 278.58935 176.795788 
L 278.58935 204.420247 
L 304.207549 204.420247 
L 304.207549 242.084172 
L 355.490736 242.084172 
L 355.490736 199.501728 
L 377.868642 199.501728 
L 377.868642 129.402769 
L 398.140942 129.402769 
L 398.140942 104.91761 
L 410.072706 104.91761 
L 410.072706 92.393883 
L 419.196996 92.393883 
L 419.196996 81.899603 
L 431.117061 81.899603 
L 431.117061 77.387519 
L 438.779125 77.387519 
L 438.779125 76.768033 
L 440.253049 76.768033 
" clip-path="url(#p0963e53686)" style="fill: none; stroke: #278f48; stroke-opacity: 0.25; stroke-linecap: square"/>
   </g>
   <g id="line2d_64">
    <path d="M 89.318826 106.694005 
L 89.318826 106.694005 
L 170.852544 106.694005 
L 170.852544 114.600367 
L 201.149865 114.600367 
L 201.149865 139.151701 
L 253.439064 139.151701 
L 253.439064 158.549661 
L 278.58935 158.549661 
L 278.58935 184.354802 
L 304.207549 184.354802 
L 304.207549 240.770093 
L 355.490736 240.770093 
L 355.490736 219.444331 
L 377.868642 219.444331 
L 377.868642 145.212115 
L 398.140942 145.212115 
L 398.140942 111.663334 
L 410.072706 111.663334 
L 410.072706 93.136022 
L 419.196996 93.136022 
L 419.196996 75.152742 
L 431.117061 75.152742 
L 431.117061 66.519349 
L 438.779125 66.519349 
L 438.779125 64.87574 
L 440.253049 64.87574 
" clip-path="url(#p0963e53686)" style="fill: none; stroke: #278f48; stroke-opacity: 0.25; stroke-linecap: square"/>
   </g>
   <g id="line2d_65">
    <path d="M 89.318826 101.181345 
L 89.318826 101.181345 
L 170.852544 101.181345 
L 170.852544 116.608473 
L 201.149865 116.608473 
L 201.149865 151.998342 
L 253.439064 151.998342 
L 253.439064 171.676617 
L 278.58935 171.676617 
L 278.58935 191.186965 
L 304.207549 191.186965 
L 304.207549 215.572205 
L 355.490736 215.572205 
L 355.490736 188.919465 
L 377.868642 188.919465 
L 377.868642 131.457647 
L 398.140942 131.457647 
L 398.140942 106.262824 
L 410.072706 106.262824 
L 410.072706 91.728171 
L 419.196996 91.728171 
L 419.196996 77.979744 
L 431.117061 77.979744 
L 431.117061 71.425948 
L 438.779125 71.425948 
L 438.779125 70.297669 
L 440.253049 70.297669 
" clip-path="url(#p0963e53686)" style="fill: none; stroke: #278f48; stroke-opacity: 0.25; stroke-linecap: square"/>
   </g>
   <g id="line2d_66">
    <path d="M 89.318826 101.982558 
L 89.318826 101.982558 
L 170.852544 101.982558 
L 170.852544 115.798294 
L 201.149865 115.798294 
L 201.149865 148.869484 
L 253.439064 148.869484 
L 253.439064 168.707276 
L 278.58935 168.707276 
L 278.58935 193.218071 
L 304.207549 193.218071 
L 304.207549 226.835766 
L 355.490736 226.835766 
L 355.490736 200.648906 
L 377.868642 200.648906 
L 377.868642 139.353783 
L 398.140942 139.353783 
L 398.140942 111.94501 
L 410.072706 111.94501 
L 410.072706 96.792386 
L 419.196996 96.792386 
L 419.196996 83.249063 
L 431.117061 83.249063 
L 431.117061 77.3096 
L 438.779125 77.3096 
L 438.779125 76.442627 
L 440.253049 76.442627 
" clip-path="url(#p0963e53686)" style="fill: none; stroke: #278f48; stroke-opacity: 0.25; stroke-linecap: square"/>
   </g>
   <g id="line2d_67">
    <path d="M 89.318826 111.914955 
L 89.318826 111.914955 
L 170.852544 111.914955 
L 170.852544 120.198077 
L 201.149865 120.198077 
L 201.149865 152.438335 
L 253.439064 152.438335 
L 253.439064 170.33832 
L 278.58935 170.33832 
L 278.58935 186.831533 
L 304.207549 186.831533 
L 304.207549 198.361411 
L 355.490736 198.361411 
L 355.490736 172.177515 
L 377.868642 172.177515 
L 377.868642 132.10508 
L 398.140942 132.10508 
L 398.140942 109.68056 
L 410.072706 109.68056 
L 410.072706 93.370875 
L 419.196996 93.370875 
L 419.196996 73.906026 
L 431.117061 73.906026 
L 431.117061 62.859311 
L 438.779125 62.859311 
L 438.779125 60.838135 
L 440.253049 60.838135 
" clip-path="url(#p0963e53686)" style="fill: none; stroke: #278f48; stroke-opacity: 0.25; stroke-linecap: square"/>
   </g>
   <g id="line2d_68">
    <path d="M 89.318826 126.967928 
L 89.318826 126.967928 
L 170.852544 126.967928 
L 170.852544 140.789399 
L 201.149865 140.789399 
L 201.149865 174.888475 
L 253.439064 174.888475 
L 253.439064 192.689044 
L 278.58935 192.689044 
L 278.58935 206.790856 
L 304.207549 206.790856 
L 304.207549 203.022636 
L 355.490736 203.022636 
L 355.490736 170.022678 
L 377.868642 170.022678 
L 377.868642 136.806729 
L 398.140942 136.806729 
L 398.140942 120.397376 
L 410.072706 120.397376 
L 410.072706 109.382432 
L 419.196996 109.382432 
L 419.196996 97.014442 
L 431.117061 97.014442 
L 431.117061 90.090036 
L 438.779125 90.090036 
L 438.779125 88.880653 
L 440.253049 88.880653 
" clip-path="url(#p0963e53686)" style="fill: none; stroke: #278f48; stroke-opacity: 0.25; stroke-linecap: square"/>
   </g>
   <g id="line2d_69">
    <path d="M 89.318826 121.455234 
L 89.318826 121.455234 
L 170.852544 121.455234 
L 170.852544 116.223583 
L 201.149865 116.223583 
L 201.149865 138.312667 
L 253.439064 138.312667 
L 253.439064 161.082583 
L 278.58935 161.082583 
L 278.58935 182.664817 
L 304.207549 182.664817 
L 304.207549 208.346275 
L 355.490736 208.346275 
L 355.490736 181.458996 
L 377.868642 181.458996 
L 377.868642 132.899179 
L 398.140942 132.899179 
L 398.140942 105.932617 
L 410.072706 105.932617 
L 410.072706 87.454022 
L 419.196996 87.454022 
L 419.196996 66.949739 
L 431.117061 66.949739 
L 431.117061 55.861177 
L 438.779125 55.861177 
L 438.779125 53.788862 
L 440.253049 53.788862 
" clip-path="url(#p0963e53686)" style="fill: none; stroke: #278f48; stroke-opacity: 0.25; stroke-linecap: square"/>
   </g>
   <g id="line2d_70">
    <path d="M 89.318826 97.989107 
L 89.318826 97.989107 
L 170.852544 97.989107 
L 170.852544 112.473404 
L 201.149865 112.473404 
L 201.149865 149.858607 
L 253.439064 149.858607 
L 253.439064 171.814543 
L 278.58935 171.814543 
L 278.58935 194.828213 
L 304.207549 194.828213 
L 304.207549 216.766286 
L 355.490736 216.766286 
L 355.490736 173.099387 
L 377.868642 173.099387 
L 377.868642 125.921124 
L 398.140942 125.921124 
L 398.140942 107.955306 
L 410.072706 107.955306 
L 410.072706 97.95621 
L 419.196996 97.95621 
L 419.196996 87.915822 
L 431.117061 87.915822 
L 431.117061 82.97581 
L 438.779125 82.97581 
L 438.779125 82.238466 
L 440.253049 82.238466 
" clip-path="url(#p0963e53686)" style="fill: none; stroke: #278f48; stroke-opacity: 0.25; stroke-linecap: square"/>
   </g>
   <g id="line2d_71">
    <path d="M 89.318826 107.260897 
L 89.318826 107.260897 
L 170.852544 107.260897 
L 170.852544 114.513221 
L 201.149865 114.513221 
L 201.149865 136.51103 
L 253.439064 136.51103 
L 253.439064 151.778672 
L 278.58935 151.778672 
L 278.58935 169.468876 
L 304.207549 169.468876 
L 304.207549 202.72462 
L 355.490736 202.72462 
L 355.490736 179.915617 
L 377.868642 179.915617 
L 377.868642 133.949887 
L 398.140942 133.949887 
L 398.140942 112.406688 
L 410.072706 112.406688 
L 410.072706 99.274399 
L 419.196996 99.274399 
L 419.196996 85.906857 
L 431.117061 85.906857 
L 431.117061 79.394872 
L 438.779125 79.394872 
L 438.779125 78.616805 
L 440.253049 78.616805 
" clip-path="url(#p0963e53686)" style="fill: none; stroke: #278f48; stroke-opacity: 0.25; stroke-linecap: square"/>
   </g>
   <g id="line2d_72">
    <path d="M 89.318826 107.825846 
L 89.318826 107.825846 
L 170.852544 107.825846 
L 170.852544 114.401093 
L 201.149865 114.401093 
L 201.149865 139.932708 
L 253.439064 139.932708 
L 253.439064 160.029378 
L 278.58935 160.029378 
L 278.58935 186.048583 
L 304.207549 186.048583 
L 304.207549 235.450977 
L 355.490736 235.450977 
L 355.490736 200.041793 
L 377.868642 200.041793 
L 377.868642 139.627293 
L 398.140942 139.627293 
L 398.140942 113.129118 
L 410.072706 113.129118 
L 410.072706 98.234091 
L 419.196996 98.234091 
L 419.196996 83.129831 
L 431.117061 83.129831 
L 431.117061 75.347794 
L 438.779125 75.347794 
L 438.779125 74.11143 
L 440.253049 74.11143 
" clip-path="url(#p0963e53686)" style="fill: none; stroke: #278f48; stroke-opacity: 0.25; stroke-linecap: square"/>
   </g>
   <g id="line2d_73">
    <path d="M 89.318826 138.154902 
L 89.318826 138.154902 
L 170.852544 138.154902 
L 170.852544 140.291526 
L 201.149865 140.291526 
L 201.149865 149.621942 
L 253.439064 149.621942 
L 253.439064 154.764498 
L 278.58935 154.764498 
L 278.58935 158.6703 
L 304.207549 158.6703 
L 304.207549 154.473391 
L 355.490736 154.473391 
L 355.490736 141.422113 
L 377.868642 141.422113 
L 377.868642 122.415452 
L 398.140942 122.415452 
L 398.140942 108.146204 
L 410.072706 108.146204 
L 410.072706 96.157782 
L 419.196996 96.157782 
L 419.196996 79.038376 
L 431.117061 79.038376 
L 431.117061 67.322488 
L 438.779125 67.322488 
L 438.779125 65.103136 
L 440.253049 65.103136 
" clip-path="url(#p0963e53686)" style="fill: none; stroke: #278f48; stroke-opacity: 0.25; stroke-linecap: square"/>
   </g>
   <g id="line2d_74">
    <path d="M 89.318826 117.919188 
L 89.318826 117.919188 
L 170.852544 117.919188 
L 170.852544 124.937155 
L 201.149865 124.937155 
L 201.149865 151.006443 
L 253.439064 151.006443 
L 253.439064 171.668582 
L 278.58935 171.668582 
L 278.58935 198.38296 
L 304.207549 198.38296 
L 304.207549 235.557422 
L 355.490736 235.557422 
L 355.490736 188.883606 
L 377.868642 188.883606 
L 377.868642 143.751974 
L 398.140942 143.751974 
L 398.140942 124.537189 
L 410.072706 124.537189 
L 410.072706 112.824282 
L 419.196996 112.824282 
L 419.196996 100.231664 
L 431.117061 100.231664 
L 431.117061 93.0388 
L 438.779125 93.0388 
L 438.779125 91.577275 
L 440.253049 91.577275 
" clip-path="url(#p0963e53686)" style="fill: none; stroke: #278f48; stroke-opacity: 0.25; stroke-linecap: square"/>
   </g>
   <g id="line2d_75">
    <path d="M 89.318826 92.600165 
L 89.318826 92.600165 
L 170.852544 92.600165 
L 170.852544 112.197123 
L 201.149865 112.197123 
L 201.149865 150.156039 
L 253.439064 150.156039 
L 253.439064 168.118433 
L 278.58935 168.118433 
L 278.58935 186.730273 
L 304.207549 186.730273 
L 304.207549 206.29898 
L 355.490736 206.29898 
L 355.490736 179.938107 
L 377.868642 179.938107 
L 377.868642 137.57869 
L 398.140942 137.57869 
L 398.140942 111.653158 
L 410.072706 111.653158 
L 410.072706 91.525309 
L 419.196996 91.525309 
L 419.196996 65.323785 
L 431.117061 65.323785 
L 431.117061 47.871847 
L 438.779125 47.871847 
L 438.779125 44.413729 
L 440.253049 44.413729 
" clip-path="url(#p0963e53686)" style="fill: none; stroke: #278f48; stroke-opacity: 0.25; stroke-linecap: square"/>
   </g>
   <g id="line2d_76">
    <path d="M 89.318826 109.202345 
L 89.318826 109.202345 
L 170.852544 109.202345 
L 170.852544 131.734717 
L 201.149865 131.734717 
L 201.149865 171.484362 
L 253.439064 171.484362 
L 253.439064 187.69939 
L 278.58935 187.69939 
L 278.58935 200.00108 
L 304.207549 200.00108 
L 304.207549 193.491098 
L 355.490736 193.491098 
L 355.490736 164.05085 
L 377.868642 164.05085 
L 377.868642 131.410327 
L 398.140942 131.410327 
L 398.140942 113.112573 
L 410.072706 113.112573 
L 410.072706 99.132886 
L 419.196996 99.132886 
L 419.196996 82.270841 
L 431.117061 82.270841 
L 431.117061 71.388053 
L 438.779125 71.388053 
L 438.779125 69.48013 
L 440.253049 69.48013 
" clip-path="url(#p0963e53686)" style="fill: none; stroke: #278f48; stroke-opacity: 0.25; stroke-linecap: square"/>
   </g>
   <g id="line2d_77">
    <path d="M 89.318826 111.480108 
L 89.318826 111.480108 
L 170.852544 111.480108 
L 170.852544 117.992343 
L 201.149865 117.992343 
L 201.149865 146.368817 
L 253.439064 146.368817 
L 253.439064 171.110631 
L 278.58935 171.110631 
L 278.58935 202.297498 
L 304.207549 202.297498 
L 304.207549 240.682776 
L 355.490736 240.682776 
L 355.490736 192.394276 
L 377.868642 192.394276 
L 377.868642 141.027217 
L 398.140942 141.027217 
L 398.140942 120.959687 
L 410.072706 120.959687 
L 410.072706 110.212118 
L 419.196996 110.212118 
L 419.196996 100.415044 
L 431.117061 100.415044 
L 431.117061 95.993947 
L 438.779125 95.993947 
L 438.779125 95.314423 
L 440.253049 95.314423 
" clip-path="url(#p0963e53686)" style="fill: none; stroke: #278f48; stroke-opacity: 0.25; stroke-linecap: square"/>
   </g>
   <g id="line2d_78">
    <path d="M 89.318826 118.360693 
L 89.318826 118.360693 
L 170.852544 118.360693 
L 170.852544 126.428745 
L 201.149865 126.428745 
L 201.149865 150.191757 
L 253.439064 150.191757 
L 253.439064 166.481694 
L 278.58935 166.481694 
L 278.58935 186.176917 
L 304.207549 186.176917 
L 304.207549 221.797928 
L 355.490736 221.797928 
L 355.490736 202.467457 
L 377.868642 202.467457 
L 377.868642 138.284075 
L 398.140942 138.284075 
L 398.140942 108.87254 
L 410.072706 108.87254 
L 410.072706 92.715418 
L 419.196996 92.715418 
L 419.196996 78.04735 
L 431.117061 78.04735 
L 431.117061 71.746815 
L 438.779125 71.746815 
L 438.779125 70.684206 
L 440.253049 70.684206 
" clip-path="url(#p0963e53686)" style="fill: none; stroke: #278f48; stroke-opacity: 0.25; stroke-linecap: square"/>
   </g>
   <g id="line2d_79">
    <path d="M 89.318826 123.555804 
L 89.318826 123.555804 
L 170.852544 123.555804 
L 170.852544 128.552917 
L 201.149865 128.552917 
L 201.149865 154.837613 
L 253.439064 154.837613 
L 253.439064 170.881721 
L 278.58935 170.881721 
L 278.58935 186.187935 
L 304.207549 186.187935 
L 304.207549 191.733531 
L 355.490736 191.733531 
L 355.490736 162.119868 
L 377.868642 162.119868 
L 377.868642 123.498288 
L 398.140942 123.498288 
L 398.140942 102.780558 
L 410.072706 102.780558 
L 410.072706 87.882888 
L 419.196996 87.882888 
L 419.196996 70.798332 
L 431.117061 70.798332 
L 431.117061 60.993343 
L 438.779125 60.993343 
L 438.779125 59.210807 
L 440.253049 59.210807 
" clip-path="url(#p0963e53686)" style="fill: none; stroke: #278f48; stroke-opacity: 0.25; stroke-linecap: square"/>
   </g>
   <g id="line2d_80">
    <path d="M 89.318826 64.924299 
L 89.318826 64.924299 
L 170.852544 64.924299 
L 170.852544 83.792481 
L 201.149865 83.792481 
L 201.149865 138.860138 
L 253.439064 138.860138 
L 253.439064 170.008086 
L 278.58935 170.008086 
L 278.58935 200.965653 
L 304.207549 200.965653 
L 304.207549 235.73933 
L 355.490736 235.73933 
L 355.490736 196.231623 
L 377.868642 196.231623 
L 377.868642 133.741599 
L 398.140942 133.741599 
L 398.140942 104.134258 
L 410.072706 104.134258 
L 410.072706 86.742926 
L 419.196996 86.742926 
L 419.196996 69.332851 
L 431.117061 69.332851 
L 431.117061 60.717125 
L 438.779125 60.717125 
L 438.779125 59.300509 
L 440.253049 59.300509 
" clip-path="url(#p0963e53686)" style="fill: none; stroke: #278f48; stroke-opacity: 0.25; stroke-linecap: square"/>
   </g>
   <g id="line2d_81">
    <path d="M 89.318826 107.022571 
L 89.318826 107.022571 
L 170.852544 107.022571 
L 170.852544 128.74737 
L 201.149865 128.74737 
L 201.149865 168.187989 
L 253.439064 168.187989 
L 253.439064 184.421877 
L 278.58935 184.421877 
L 278.58935 198.260015 
L 304.207549 198.260015 
L 304.207549 204.562162 
L 355.490736 204.562162 
L 355.490736 175.780722 
L 377.868642 175.780722 
L 377.868642 137.958879 
L 398.140942 137.958879 
L 398.140942 118.718231 
L 410.072706 118.718231 
L 410.072706 105.875705 
L 419.196996 105.875705 
L 419.196996 90.944896 
L 431.117061 90.944896 
L 431.117061 82.575463 
L 438.779125 82.575463 
L 438.779125 80.984879 
L 440.253049 80.984879 
" clip-path="url(#p0963e53686)" style="fill: none; stroke: #278f48; stroke-opacity: 0.25; stroke-linecap: square"/>
   </g>
   <g id="line2d_82">
    <path d="M 89.318826 116.15406 
L 89.318826 116.15406 
L 170.852544 116.15406 
L 170.852544 129.934994 
L 201.149865 129.934994 
L 201.149865 161.551962 
L 253.439064 161.551962 
L 253.439064 178.062475 
L 278.58935 178.062475 
L 278.58935 191.846449 
L 304.207549 191.846449 
L 304.207549 197.181513 
L 355.490736 197.181513 
L 355.490736 167.23526 
L 377.868642 167.23526 
L 377.868642 130.398333 
L 398.140942 130.398333 
L 398.140942 112.201293 
L 410.072706 112.201293 
L 410.072706 100.23644 
L 419.196996 100.23644 
L 419.196996 86.775688 
L 431.117061 86.775688 
L 431.117061 79.178601 
L 438.779125 79.178601 
L 438.779125 77.846706 
L 440.253049 77.846706 
" clip-path="url(#p0963e53686)" style="fill: none; stroke: #278f48; stroke-opacity: 0.25; stroke-linecap: square"/>
   </g>
   <g id="line2d_83">
    <path d="M 89.318826 104.18751 
L 89.318826 104.18751 
L 170.852544 104.18751 
L 170.852544 117.872633 
L 201.149865 117.872633 
L 201.149865 151.67568 
L 253.439064 151.67568 
L 253.439064 171.552993 
L 278.58935 171.552993 
L 278.58935 192.759478 
L 304.207549 192.759478 
L 304.207549 217.504514 
L 355.490736 217.504514 
L 355.490736 181.328629 
L 377.868642 181.328629 
L 377.868642 131.743494 
L 398.140942 131.743494 
L 398.140942 111.998636 
L 410.072706 111.998636 
L 410.072706 100.946123 
L 419.196996 100.946123 
L 419.196996 90.962071 
L 431.117061 90.962071 
L 431.117061 86.644342 
L 438.779125 86.644342 
L 438.779125 85.840069 
L 440.253049 85.840069 
" clip-path="url(#p0963e53686)" style="fill: none; stroke: #278f48; stroke-opacity: 0.25; stroke-linecap: square"/>
   </g>
   <g id="line2d_84">
    <path d="M 89.318826 105.457939 
L 89.318826 105.457939 
L 170.852544 105.457939 
L 170.852544 123.626246 
L 201.149865 123.626246 
L 201.149865 163.145783 
L 253.439064 163.145783 
L 253.439064 182.611662 
L 278.58935 182.611662 
L 278.58935 198.995212 
L 304.207549 198.995212 
L 304.207549 200.482891 
L 355.490736 200.482891 
L 355.490736 162.49524 
L 377.868642 162.49524 
L 377.868642 123.415516 
L 398.140942 123.415516 
L 398.140942 105.43143 
L 410.072706 105.43143 
L 410.072706 93.726296 
L 419.196996 93.726296 
L 419.196996 80.989197 
L 431.117061 80.989197 
L 431.117061 74.109102 
L 438.779125 74.109102 
L 438.779125 72.879851 
L 440.253049 72.879851 
" clip-path="url(#p0963e53686)" style="fill: none; stroke: #278f48; stroke-opacity: 0.25; stroke-linecap: square"/>
   </g>
   <g id="line2d_85">
    <path d="M 89.318826 92.884815 
L 89.318826 92.884815 
L 170.852544 92.884815 
L 170.852544 107.872582 
L 201.149865 107.872582 
L 201.149865 143.230947 
L 253.439064 143.230947 
L 253.439064 162.752312 
L 278.58935 162.752312 
L 278.58935 184.011598 
L 304.207549 184.011598 
L 304.207549 215.93829 
L 355.490736 215.93829 
L 355.490736 183.417683 
L 377.868642 183.417683 
L 377.868642 131.551022 
L 398.140942 131.551022 
L 398.140942 108.701177 
L 410.072706 108.701177 
L 410.072706 94.996256 
L 419.196996 94.996256 
L 419.196996 81.586643 
L 431.117061 81.586643 
L 431.117061 74.689939 
L 438.779125 74.689939 
L 438.779125 73.55421 
L 440.253049 73.55421 
" clip-path="url(#p0963e53686)" style="fill: none; stroke: #278f48; stroke-opacity: 0.25; stroke-linecap: square"/>
   </g>
   <g id="line2d_86">
    <path d="M 89.318826 101.49584 
L 89.318826 101.49584 
L 170.852544 101.49584 
L 170.852544 115.466504 
L 201.149865 115.466504 
L 201.149865 156.531942 
L 253.439064 156.531942 
L 253.439064 183.110436 
L 278.58935 183.110436 
L 278.58935 211.621809 
L 304.207549 211.621809 
L 304.207549 231.798398 
L 355.490736 231.798398 
L 355.490736 184.629702 
L 377.868642 184.629702 
L 377.868642 133.930568 
L 398.140942 133.930568 
L 398.140942 112.441259 
L 410.072706 112.441259 
L 410.072706 99.671845 
L 419.196996 99.671845 
L 419.196996 86.896397 
L 431.117061 86.896397 
L 431.117061 80.557441 
L 438.779125 80.557441 
L 438.779125 79.538324 
L 440.253049 79.538324 
" clip-path="url(#p0963e53686)" style="fill: none; stroke: #278f48; stroke-opacity: 0.25; stroke-linecap: square"/>
   </g>
   <g id="line2d_87">
    <path d="M 89.318826 84.375744 
L 89.318826 84.375744 
L 170.852544 84.375744 
L 170.852544 91.685613 
L 201.149865 91.685613 
L 201.149865 124.988218 
L 253.439064 124.988218 
L 253.439064 151.127227 
L 278.58935 151.127227 
L 278.58935 184.202042 
L 304.207549 184.202042 
L 304.207549 254.234922 
L 355.490736 254.234922 
L 355.490736 226.744594 
L 377.868642 226.744594 
L 377.868642 144.85729 
L 398.140942 144.85729 
L 398.140942 108.973908 
L 410.072706 108.973908 
L 410.072706 89.298111 
L 419.196996 89.298111 
L 419.196996 71.100675 
L 431.117061 71.100675 
L 431.117061 62.232663 
L 438.779125 62.232663 
L 438.779125 60.926926 
L 440.253049 60.926926 
" clip-path="url(#p0963e53686)" style="fill: none; stroke: #278f48; stroke-opacity: 0.25; stroke-linecap: square"/>
   </g>
   <g id="line2d_88">
    <path d="M 89.318826 113.281914 
L 89.318826 113.281914 
L 170.852544 113.281914 
L 170.852544 120.324867 
L 201.149865 120.324867 
L 201.149865 148.056867 
L 253.439064 148.056867 
L 253.439064 172.066527 
L 278.58935 172.066527 
L 278.58935 202.665945 
L 304.207549 202.665945 
L 304.207549 265.174378 
L 355.490736 265.174378 
L 355.490736 220.701841 
L 377.868642 220.701841 
L 377.868642 141.16114 
L 398.140942 141.16114 
L 398.140942 111.363831 
L 410.072706 111.363831 
L 410.072706 96.49909 
L 419.196996 96.49909 
L 419.196996 84.026689 
L 431.117061 84.026689 
L 431.117061 78.816128 
L 438.779125 78.816128 
L 438.779125 77.937193 
L 440.253049 77.937193 
" clip-path="url(#p0963e53686)" style="fill: none; stroke: #278f48; stroke-opacity: 0.25; stroke-linecap: square"/>
   </g>
   <g id="line2d_89">
    <path d="M 89.318826 111.534597 
L 89.318826 111.534597 
L 170.852544 111.534597 
L 170.852544 119.867701 
L 201.149865 119.867701 
L 201.149865 144.739088 
L 253.439064 144.739088 
L 253.439064 161.961104 
L 278.58935 161.961104 
L 278.58935 184.202812 
L 304.207549 184.202812 
L 304.207549 220.014992 
L 355.490736 220.014992 
L 355.490736 178.630332 
L 377.868642 178.630332 
L 377.868642 131.552209 
L 398.140942 131.552209 
L 398.140942 110.081838 
L 410.072706 110.081838 
L 410.072706 95.731079 
L 419.196996 95.731079 
L 419.196996 79.891779 
L 431.117061 79.891779 
L 431.117061 70.864443 
L 438.779125 70.864443 
L 438.779125 69.204282 
L 440.253049 69.204282 
" clip-path="url(#p0963e53686)" style="fill: none; stroke: #278f48; stroke-opacity: 0.25; stroke-linecap: square"/>
   </g>
   <g id="line2d_90">
    <path d="M 89.318826 123.91635 
L 89.318826 123.91635 
L 170.852544 123.91635 
L 170.852544 116.281059 
L 201.149865 116.281059 
L 201.149865 135.598262 
L 253.439064 135.598262 
L 253.439064 164.722161 
L 278.58935 164.722161 
L 278.58935 193.824961 
L 304.207549 193.824961 
L 304.207549 221.800266 
L 355.490736 221.800266 
L 355.490736 184.884177 
L 377.868642 184.884177 
L 377.868642 128.292914 
L 398.140942 128.292914 
L 398.140942 100.116487 
L 410.072706 100.116487 
L 410.072706 81.461908 
L 419.196996 81.461908 
L 419.196996 59.996396 
L 431.117061 59.996396 
L 431.117061 48.921795 
L 438.779125 48.921795 
L 438.779125 46.971792 
L 440.253049 46.971792 
" clip-path="url(#p0963e53686)" style="fill: none; stroke: #278f48; stroke-opacity: 0.25; stroke-linecap: square"/>
   </g>
   <g id="line2d_91">
    <path d="M 89.318826 132.670434 
L 89.318826 132.670434 
L 170.852544 132.670434 
L 170.852544 139.710656 
L 201.149865 139.710656 
L 201.149865 157.631389 
L 253.439064 157.631389 
L 253.439064 170.650783 
L 278.58935 170.650783 
L 278.58935 188.736187 
L 304.207549 188.736187 
L 304.207549 226.191086 
L 355.490736 226.191086 
L 355.490736 187.103154 
L 377.868642 187.103154 
L 377.868642 137.126686 
L 398.140942 137.126686 
L 398.140942 115.821039 
L 410.072706 115.821039 
L 410.072706 102.916656 
L 419.196996 102.916656 
L 419.196996 88.98188 
L 431.117061 88.98188 
L 431.117061 81.459177 
L 438.779125 81.459177 
L 438.779125 80.075029 
L 440.253049 80.075029 
" clip-path="url(#p0963e53686)" style="fill: none; stroke: #278f48; stroke-opacity: 0.25; stroke-linecap: square"/>
   </g>
   <g id="line2d_92">
    <path d="M 89.318826 106.995114 
L 89.318826 106.995114 
L 170.852544 106.995114 
L 170.852544 118.414564 
L 201.149865 118.414564 
L 201.149865 150.576947 
L 253.439064 150.576947 
L 253.439064 165.234539 
L 278.58935 165.234539 
L 278.58935 178.437517 
L 304.207549 178.437517 
L 304.207549 184.204879 
L 355.490736 184.204879 
L 355.490736 161.595842 
L 377.868642 161.595842 
L 377.868642 127.451792 
L 398.140942 127.451792 
L 398.140942 104.618132 
L 410.072706 104.618132 
L 410.072706 86.270439 
L 419.196996 86.270439 
L 419.196996 61.786642 
L 431.117061 61.786642 
L 431.117061 45.695144 
L 438.779125 45.695144 
L 438.779125 42.690337 
L 440.253049 42.690337 
" clip-path="url(#p0963e53686)" style="fill: none; stroke: #278f48; stroke-opacity: 0.25; stroke-linecap: square"/>
   </g>
   <g id="line2d_93">
    <path d="M 89.318826 120.409833 
L 89.318826 120.409833 
L 170.852544 120.409833 
L 170.852544 122.686459 
L 201.149865 122.686459 
L 201.149865 142.888915 
L 253.439064 142.888915 
L 253.439064 162.757145 
L 278.58935 162.757145 
L 278.58935 188.212338 
L 304.207549 188.212338 
L 304.207549 233.531698 
L 355.490736 233.531698 
L 355.490736 201.631206 
L 377.868642 201.631206 
L 377.868642 141.797443 
L 398.140942 141.797443 
L 398.140942 116.577534 
L 410.072706 116.577534 
L 410.072706 102.782214 
L 419.196996 102.782214 
L 419.196996 90.214482 
L 431.117061 90.214482 
L 431.117061 84.416118 
L 438.779125 84.416118 
L 438.779125 83.395961 
L 440.253049 83.395961 
" clip-path="url(#p0963e53686)" style="fill: none; stroke: #278f48; stroke-opacity: 0.25; stroke-linecap: square"/>
   </g>
   <g id="line2d_94">
    <path d="M 89.318826 99.058383 
L 89.318826 99.058383 
L 170.852544 99.058383 
L 170.852544 107.086754 
L 201.149865 107.086754 
L 201.149865 132.436354 
L 253.439064 132.436354 
L 253.439064 150.061873 
L 278.58935 150.061873 
L 278.58935 172.206745 
L 304.207549 172.206745 
L 304.207549 215.311662 
L 355.490736 215.311662 
L 355.490736 188.127975 
L 377.868642 188.127975 
L 377.868642 135.38563 
L 398.140942 135.38563 
L 398.140942 108.942068 
L 410.072706 108.942068 
L 410.072706 91.302775 
L 419.196996 91.302775 
L 419.196996 71.440087 
L 431.117061 71.440087 
L 431.117061 60.587995 
L 438.779125 60.587995 
L 438.779125 58.635955 
L 440.253049 58.635955 
" clip-path="url(#p0963e53686)" style="fill: none; stroke: #278f48; stroke-opacity: 0.25; stroke-linecap: square"/>
   </g>
   <g id="line2d_95">
    <path d="M 89.318826 110.401788 
L 89.318826 110.401788 
L 170.852544 110.401788 
L 170.852544 117.129749 
L 201.149865 117.129749 
L 201.149865 155.075185 
L 253.439064 155.075185 
L 253.439064 177.2452 
L 278.58935 177.2452 
L 278.58935 199.442219 
L 304.207549 199.442219 
L 304.207549 227.472189 
L 355.490736 227.472189 
L 355.490736 195.851649 
L 377.868642 195.851649 
L 377.868642 141.200931 
L 398.140942 141.200931 
L 398.140942 112.457274 
L 410.072706 112.457274 
L 410.072706 93.545377 
L 419.196996 93.545377 
L 419.196996 72.447173 
L 431.117061 72.447173 
L 431.117061 60.348195 
L 438.779125 60.348195 
L 438.779125 57.981565 
L 440.253049 57.981565 
" clip-path="url(#p0963e53686)" style="fill: none; stroke: #278f48; stroke-opacity: 0.25; stroke-linecap: square"/>
   </g>
   <g id="line2d_96">
    <path d="M 89.318826 60.088041 
L 89.318826 60.088041 
L 170.852544 60.088041 
L 170.852544 89.560623 
L 201.149865 89.560623 
L 201.149865 149.001118 
L 253.439064 149.001118 
L 253.439064 180.036158 
L 278.58935 180.036158 
L 278.58935 212.856036 
L 304.207549 212.856036 
L 304.207549 253.536882 
L 355.490736 253.536882 
L 355.490736 198.703937 
L 377.868642 198.703937 
L 377.868642 130.684662 
L 398.140942 130.684662 
L 398.140942 106.508611 
L 410.072706 106.508611 
L 410.072706 94.313927 
L 419.196996 94.313927 
L 419.196996 84.289406 
L 431.117061 84.289406 
L 431.117061 79.822005 
L 438.779125 79.822005 
L 438.779125 79.299715 
L 440.253049 79.299715 
" clip-path="url(#p0963e53686)" style="fill: none; stroke: #278f48; stroke-opacity: 0.25; stroke-linecap: square"/>
   </g>
   <g id="line2d_97">
    <path d="M 89.318826 136.33062 
L 89.318826 136.33062 
L 170.852544 136.33062 
L 170.852544 137.708923 
L 201.149865 137.708923 
L 201.149865 150.645775 
L 253.439064 150.645775 
L 253.439064 164.542359 
L 278.58935 164.542359 
L 278.58935 183.951117 
L 304.207549 183.951117 
L 304.207549 220.15485 
L 355.490736 220.15485 
L 355.490736 184.829294 
L 377.868642 184.829294 
L 377.868642 132.926775 
L 398.140942 132.926775 
L 398.140942 109.735137 
L 410.072706 109.735137 
L 410.072706 96.251522 
L 419.196996 96.251522 
L 419.196996 81.900234 
L 431.117061 81.900234 
L 431.117061 74.45985 
L 438.779125 74.45985 
L 438.779125 73.187803 
L 440.253049 73.187803 
" clip-path="url(#p0963e53686)" style="fill: none; stroke: #278f48; stroke-opacity: 0.25; stroke-linecap: square"/>
   </g>
   <g id="line2d_98">
    <path d="M 89.318826 109.598439 
L 89.318826 109.598439 
L 170.852544 109.598439 
L 170.852544 119.382532 
L 201.149865 119.382532 
L 201.149865 146.740559 
L 253.439064 146.740559 
L 253.439064 166.121074 
L 278.58935 166.121074 
L 278.58935 189.918139 
L 304.207549 189.918139 
L 304.207549 226.416984 
L 355.490736 226.416984 
L 355.490736 185.801326 
L 377.868642 185.801326 
L 377.868642 132.294613 
L 398.140942 132.294613 
L 398.140942 111.181563 
L 410.072706 111.181563 
L 410.072706 98.833985 
L 419.196996 98.833985 
L 419.196996 87.034044 
L 431.117061 87.034044 
L 431.117061 81.315484 
L 438.779125 81.315484 
L 438.779125 80.389166 
L 440.253049 80.389166 
" clip-path="url(#p0963e53686)" style="fill: none; stroke: #278f48; stroke-opacity: 0.25; stroke-linecap: square"/>
   </g>
   <g id="line2d_99">
    <path d="M 89.318826 110.980592 
L 89.318826 110.980592 
L 170.852544 110.980592 
L 170.852544 117.250129 
L 201.149865 117.250129 
L 201.149865 138.578192 
L 253.439064 138.578192 
L 253.439064 155.471689 
L 278.58935 155.471689 
L 278.58935 177.181421 
L 304.207549 177.181421 
L 304.207549 224.834704 
L 355.490736 224.834704 
L 355.490736 203.405931 
L 377.868642 203.405931 
L 377.868642 140.291379 
L 398.140942 140.291379 
L 398.140942 109.116825 
L 410.072706 109.116825 
L 410.072706 91.007921 
L 419.196996 91.007921 
L 419.196996 73.150646 
L 431.117061 73.150646 
L 431.117061 65.20989 
L 438.779125 65.20989 
L 438.779125 63.748873 
L 440.253049 63.748873 
" clip-path="url(#p0963e53686)" style="fill: none; stroke: #278f48; stroke-opacity: 0.25; stroke-linecap: square"/>
   </g>
   <g id="line2d_100">
    <path d="M 89.318826 104.923885 
L 89.318826 104.923885 
L 170.852544 104.923885 
L 170.852544 108.868004 
L 201.149865 108.868004 
L 201.149865 131.754376 
L 253.439064 131.754376 
L 253.439064 151.142793 
L 278.58935 151.142793 
L 278.58935 177.110352 
L 304.207549 177.110352 
L 304.207549 231.290585 
L 355.490736 231.290585 
L 355.490736 203.366036 
L 377.868642 203.366036 
L 377.868642 128.640889 
L 398.140942 128.640889 
L 398.140942 98.830659 
L 410.072706 98.830659 
L 410.072706 83.539455 
L 419.196996 83.539455 
L 419.196996 69.764642 
L 431.117061 69.764642 
L 431.117061 63.420775 
L 438.779125 63.420775 
L 438.779125 62.458833 
L 440.253049 62.458833 
" clip-path="url(#p0963e53686)" style="fill: none; stroke: #278f48; stroke-opacity: 0.25; stroke-linecap: square"/>
   </g>
   <g id="line2d_101">
    <path d="M 89.318826 110.44564 
L 89.318826 110.44564 
L 170.852544 110.44564 
L 170.852544 119.764976 
L 201.149865 119.764976 
L 201.149865 142.626926 
L 253.439064 142.626926 
L 253.439064 156.447945 
L 278.58935 156.447945 
L 278.58935 171.710017 
L 304.207549 171.710017 
L 304.207549 190.941858 
L 355.490736 190.941858 
L 355.490736 164.946132 
L 377.868642 164.946132 
L 377.868642 127.933947 
L 398.140942 127.933947 
L 398.140942 109.464168 
L 410.072706 109.464168 
L 410.072706 96.715311 
L 419.196996 96.715311 
L 419.196996 81.596389 
L 431.117061 81.596389 
L 431.117061 73.154169 
L 438.779125 73.154169 
L 438.779125 71.524249 
L 440.253049 71.524249 
" clip-path="url(#p0963e53686)" style="fill: none; stroke: #278f48; stroke-opacity: 0.25; stroke-linecap: square"/>
   </g>
   <g id="line2d_102">
    <path d="M 89.318826 105.669983 
L 89.318826 105.669983 
L 170.852544 105.669983 
L 170.852544 115.479048 
L 201.149865 115.479048 
L 201.149865 146.968359 
L 253.439064 146.968359 
L 253.439064 169.592061 
L 278.58935 169.592061 
L 278.58935 197.983894 
L 304.207549 197.983894 
L 304.207549 250.508453 
L 355.490736 250.508453 
L 355.490736 201.684009 
L 377.868642 201.684009 
L 377.868642 140.677885 
L 398.140942 140.677885 
L 398.140942 118.759164 
L 410.072706 118.759164 
L 410.072706 107.295677 
L 419.196996 107.295677 
L 419.196996 97.074236 
L 431.117061 97.074236 
L 431.117061 92.515412 
L 438.779125 92.515412 
L 438.779125 91.75241 
L 440.253049 91.75241 
" clip-path="url(#p0963e53686)" style="fill: none; stroke: #278f48; stroke-opacity: 0.25; stroke-linecap: square"/>
   </g>
   <g id="line2d_103">
    <path d="M 89.318826 114.228953 
L 89.318826 114.228953 
L 170.852544 114.228953 
L 170.852544 124.575698 
L 201.149865 124.575698 
L 201.149865 151.481977 
L 253.439064 151.481977 
L 253.439064 168.142592 
L 278.58935 168.142592 
L 278.58935 185.969479 
L 304.207549 185.969479 
L 304.207549 208.303413 
L 355.490736 208.303413 
L 355.490736 182.986388 
L 377.868642 182.986388 
L 377.868642 132.078642 
L 398.140942 132.078642 
L 398.140942 107.901548 
L 410.072706 107.901548 
L 410.072706 94.21 
L 419.196996 94.21 
L 419.196996 80.841651 
L 431.117061 80.841651 
L 431.117061 74.446479 
L 438.779125 74.446479 
L 438.779125 73.397883 
L 440.253049 73.397883 
" clip-path="url(#p0963e53686)" style="fill: none; stroke: #278f48; stroke-opacity: 0.25; stroke-linecap: square"/>
   </g>
   <g id="line2d_104">
    <path d="M 89.318826 123.880241 
L 89.318826 123.880241 
L 170.852544 123.880241 
L 170.852544 124.895431 
L 201.149865 124.895431 
L 201.149865 154.185133 
L 253.439064 154.185133 
L 253.439064 172.465459 
L 278.58935 172.465459 
L 278.58935 189.907022 
L 304.207549 189.907022 
L 304.207549 210.342699 
L 355.490736 210.342699 
L 355.490736 178.217707 
L 377.868642 178.217707 
L 377.868642 121.803325 
L 398.140942 121.803325 
L 398.140942 94.493037 
L 410.072706 94.493037 
L 410.072706 77.880291 
L 419.196996 77.880291 
L 419.196996 59.39549 
L 431.117061 59.39549 
L 431.117061 50.207232 
L 438.779125 50.207232 
L 438.779125 48.641079 
L 440.253049 48.641079 
" clip-path="url(#p0963e53686)" style="fill: none; stroke: #278f48; stroke-opacity: 0.25; stroke-linecap: square"/>
   </g>
   <g id="line2d_105">
    <path d="M 89.318826 112.72337 
L 89.318826 112.72337 
L 170.852544 112.72337 
L 170.852544 120.065663 
L 201.149865 120.065663 
L 201.149865 147.697953 
L 253.439064 147.697953 
L 253.439064 168.582348 
L 278.58935 168.582348 
L 278.58935 195.279387 
L 304.207549 195.279387 
L 304.207549 244.492971 
L 355.490736 244.492971 
L 355.490736 210.901937 
L 377.868642 210.901937 
L 377.868642 137.119319 
L 398.140942 137.119319 
L 398.140942 109.630456 
L 410.072706 109.630456 
L 410.072706 95.43292 
L 419.196996 95.43292 
L 419.196996 83.219526 
L 431.117061 83.219526 
L 431.117061 77.997183 
L 438.779125 77.997183 
L 438.779125 77.213473 
L 440.253049 77.213473 
" clip-path="url(#p0963e53686)" style="fill: none; stroke: #278f48; stroke-opacity: 0.25; stroke-linecap: square"/>
   </g>
   <g id="line2d_106">
    <path d="M 89.318826 119.214634 
L 89.318826 119.214634 
L 170.852544 119.214634 
L 170.852544 132.032327 
L 201.149865 132.032327 
L 201.149865 163.007405 
L 253.439064 163.007405 
L 253.439064 179.337848 
L 278.58935 179.337848 
L 278.58935 197.351102 
L 304.207549 197.351102 
L 304.207549 221.291112 
L 355.490736 221.291112 
L 355.490736 195.096349 
L 377.868642 195.096349 
L 377.868642 142.666285 
L 398.140942 142.666285 
L 398.140942 115.426726 
L 410.072706 115.426726 
L 410.072706 97.607839 
L 419.196996 97.607839 
L 419.196996 77.96282 
L 431.117061 77.96282 
L 431.117061 67.273143 
L 438.779125 67.273143 
L 438.779125 65.189443 
L 440.253049 65.189443 
" clip-path="url(#p0963e53686)" style="fill: none; stroke: #278f48; stroke-opacity: 0.25; stroke-linecap: square"/>
   </g>
   <g id="line2d_107">
    <path d="M 89.318826 103.933141 
L 89.318826 103.933141 
L 170.852544 103.933141 
L 170.852544 107.029277 
L 201.149865 107.029277 
L 201.149865 126.265196 
L 253.439064 126.265196 
L 253.439064 143.092391 
L 278.58935 143.092391 
L 278.58935 166.33967 
L 304.207549 166.33967 
L 304.207549 218.308786 
L 355.490736 218.308786 
L 355.490736 194.226122 
L 377.868642 194.226122 
L 377.868642 131.144971 
L 398.140942 131.144971 
L 398.140942 101.454819 
L 410.072706 101.454819 
L 410.072706 83.534145 
L 419.196996 83.534145 
L 419.196996 64.80455 
L 431.117061 64.80455 
L 431.117061 54.866961 
L 438.779125 54.866961 
L 438.779125 53.338709 
L 440.253049 53.338709 
" clip-path="url(#p0963e53686)" style="fill: none; stroke: #278f48; stroke-opacity: 0.25; stroke-linecap: square"/>
   </g>
   <g id="line2d_108">
    <path d="M 89.318826 119.093858 
L 89.318826 119.093858 
L 170.852544 119.093858 
L 170.852544 134.727442 
L 201.149865 134.727442 
L 201.149865 164.848568 
L 253.439064 164.848568 
L 253.439064 178.772185 
L 278.58935 178.772185 
L 278.58935 191.192158 
L 304.207549 191.192158 
L 304.207549 191.837549 
L 355.490736 191.837549 
L 355.490736 164.17338 
L 377.868642 164.17338 
L 377.868642 133.423899 
L 398.140942 133.423899 
L 398.140942 116.919763 
L 410.072706 116.919763 
L 410.072706 105.384015 
L 419.196996 105.384015 
L 419.196996 91.369468 
L 431.117061 91.369468 
L 431.117061 83.282123 
L 438.779125 83.282123 
L 438.779125 81.823942 
L 440.253049 81.823942 
" clip-path="url(#p0963e53686)" style="fill: none; stroke: #278f48; stroke-opacity: 0.25; stroke-linecap: square"/>
   </g>
   <g id="line2d_109">
    <path d="M 89.318826 106.952785 
L 89.318826 106.952785 
L 170.852544 106.952785 
L 170.852544 118.347633 
L 201.149865 118.347633 
L 201.149865 150.160642 
L 253.439064 150.160642 
L 253.439064 169.149668 
L 278.58935 169.149668 
L 278.58935 189.91258 
L 304.207549 189.91258 
L 304.207549 216.755311 
L 355.490736 216.755311 
L 355.490736 182.688631 
L 377.868642 182.688631 
L 377.868642 132.912977 
L 398.140942 132.912977 
L 398.140942 109.329477 
L 410.072706 109.329477 
L 410.072706 95.089636 
L 419.196996 95.089636 
L 419.196996 79.601656 
L 431.117061 79.601656 
L 431.117061 71.855409 
L 438.779125 71.855409 
L 438.779125 70.688838 
L 440.253049 70.688838 
" clip-path="url(#p0963e53686)" style="fill: none; stroke: #278f48; stroke-width: 4; stroke-linecap: square"/>
   </g>
   <g id="patch_3">
    <path d="M 71.772115 294.540385 
L 71.772115 3.00024 
" style="fill: none; stroke: #000000; stroke-width: 0.8; stroke-linejoin: miter; stroke-linecap: square"/>
   </g>
   <g id="patch_4">
    <path d="M 457.79976 294.540385 
L 457.79976 3.00024 
" style="fill: none; stroke: #000000; stroke-width: 0.8; stroke-linejoin: miter; stroke-linecap: square"/>
   </g>
   <g id="patch_5">
    <path d="M 71.772115 294.540385 
L 457.79976 294.540385 
" style="fill: none; stroke: #000000; stroke-width: 0.8; stroke-linejoin: miter; stroke-linecap: square"/>
   </g>
   <g id="patch_6">
    <path d="M 71.772115 3.00024 
L 457.79976 3.00024 
" style="fill: none; stroke: #000000; stroke-width: 0.8; stroke-linejoin: miter; stroke-linecap: square"/>
   </g>
  </g>
 </g>
 <defs>
  <clipPath id="p0963e53686">
   <rect x="71.772115" y="3.00024" width="386.027645" height="291.540145"/>
  </clipPath>
 </defs>
</svg>
