<?xml version="1.0" encoding="utf-8" standalone="no"?>
<!DOCTYPE svg PUBLIC "-//W3C//DTD SVG 1.1//EN"
  "http://www.w3.org/Graphics/SVG/1.1/DTD/svg11.dtd">
<svg xmlns:xlink="http://www.w3.org/1999/xlink" width="460.8pt" height="345.6pt" viewBox="0 0 460.8 345.6" xmlns="http://www.w3.org/2000/svg" version="1.1">
 <metadata>
  <rdf:RDF xmlns:dc="http://purl.org/dc/elements/1.1/" xmlns:cc="http://creativecommons.org/ns#" xmlns:rdf="http://www.w3.org/1999/02/22-rdf-syntax-ns#">
   <cc:Work>
    <dc:type rdf:resource="http://purl.org/dc/dcmitype/StillImage"/>
    <dc:date>2025-12-29T14:13:43.683757</dc:date>
    <dc:format>image/svg+xml</dc:format>
    <dc:creator>
     <cc:Agent>
      <dc:title>Matplotlib v3.10.7, https://matplotlib.org/</dc:title>
     </cc:Agent>
    </dc:creator>
   </cc:Work>
  </rdf:RDF>
 </metadata>
 <defs>
  <style type="text/css">*{stroke-linejoin: round; stroke-linecap: butt}</style>
 </defs>
 <g id="figure_1">
  <g id="patch_1">
   <path d="M 0 345.6 
L 460.8 345.6 
L 460.8 0 
L 0 0 
z
" style="fill: #ffffff"/>
  </g>
  <g id="axes_1">
   <g id="patch_2">
    <path d="M 71.772115 294.540385 
L 457.79976 294.540385 
L 457.79976 3.00024 
L 71.772115 3.00024 
z
" style="fill: #ffffff"/>
   </g>
   <g id="FillBetweenPolyCollection_1">
    <defs>
     <path id="m3208611568" d="M 89.318826 -285.436524 
L 89.318826 -203.746986 
L 89.318826 -203.746986 
L 170.852544 -203.746986 
L 170.852544 -195.567115 
L 201.149865 -195.567115 
L 201.149865 -166.770621 
L 253.439064 -166.770621 
L 253.439064 -154.208781 
L 278.58935 -154.208781 
L 278.58935 -144.874374 
L 304.207549 -144.874374 
L 304.207549 -120.498521 
L 355.490736 -120.498521 
L 355.490736 -146.583793 
L 377.868642 -146.583793 
L 377.868642 -197.87694 
L 398.140942 -197.87694 
L 398.140942 -225.752563 
L 410.072706 -225.752563 
L 410.072706 -236.225659 
L 419.196996 -236.225659 
L 419.196996 -250.108534 
L 431.117061 -250.108534 
L 431.117061 -257.574378 
L 438.779125 -257.574378 
L 438.779125 -258.627528 
L 440.253049 -258.627528 
L 440.253049 -315.250576 
L 440.253049 -315.250576 
L 438.779125 -315.250576 
L 438.779125 -313.02699 
L 431.117061 -313.02699 
L 431.117061 -299.012826 
L 419.196996 -299.012826 
L 419.196996 -274.264558 
L 410.072706 -274.264558 
L 410.072706 -257.358973 
L 398.140942 -257.358973 
L 398.140942 -236.99817 
L 377.868642 -236.99817 
L 377.868642 -211.146076 
L 355.490736 -211.146076 
L 355.490736 -190.826075 
L 304.207549 -190.826075 
L 304.207549 -197.888988 
L 278.58935 -197.888988 
L 278.58935 -215.796675 
L 253.439064 -215.796675 
L 253.439064 -233.452367 
L 201.149865 -233.452367 
L 201.149865 -263.642225 
L 170.852544 -263.642225 
L 170.852544 -285.436524 
L 89.318826 -285.436524 
L 89.318826 -285.436524 
z
" style="stroke: #006428; stroke-opacity: 0.25"/>
    </defs>
    <g clip-path="url(#p7423cc5645)">
     <use xlink:href="#m3208611568" x="0" y="345.6" style="fill: #006428; fill-opacity: 0.25; stroke: #006428; stroke-opacity: 0.25"/>
    </g>
   </g>
   <g id="matplotlib.axis_1">
    <g id="xtick_1">
     <g id="line2d_1">
      <defs>
       <path id="m559e80dc53" d="M 0 0 
L 0 3.5 
" style="stroke: #000000; stroke-width: 0.8"/>
      </defs>
      <g>
       <use xlink:href="#m559e80dc53" x="440.253049" y="294.540385" style="stroke: #000000; stroke-width: 0.8"/>
      </g>
     </g>
     <g id="text_1">
      <!-- 0 -->
      <g transform="translate(434.692111 315.85601) scale(0.2 -0.2)">
       <defs>
        <path id="ArialMT-30" d="M 266 2259 
Q 266 3072 433 3567 
Q 600 4063 929 4331 
Q 1259 4600 1759 4600 
Q 2128 4600 2406 4451 
Q 2684 4303 2865 4023 
Q 3047 3744 3150 3342 
Q 3253 2941 3253 2259 
Q 3253 1453 3087 958 
Q 2922 463 2592 192 
Q 2263 -78 1759 -78 
Q 1097 -78 719 397 
Q 266 969 266 2259 
z
M 844 2259 
Q 844 1131 1108 757 
Q 1372 384 1759 384 
Q 2147 384 2411 759 
Q 2675 1134 2675 2259 
Q 2675 3391 2411 3762 
Q 2147 4134 1753 4134 
Q 1366 4134 1134 3806 
Q 844 3388 844 2259 
z
" transform="scale(0.015625)"/>
       </defs>
       <use xlink:href="#ArialMT-30"/>
      </g>
     </g>
    </g>
    <g id="xtick_2">
     <g id="line2d_2">
      <g>
       <use xlink:href="#m559e80dc53" x="323.274975" y="294.540385" style="stroke: #000000; stroke-width: 0.8"/>
      </g>
     </g>
     <g id="text_2">
      <!-- 10 -->
      <g transform="translate(312.1531 315.85601) scale(0.2 -0.2)">
       <defs>
        <path id="ArialMT-31" d="M 2384 0 
L 1822 0 
L 1822 3584 
Q 1619 3391 1289 3197 
Q 959 3003 697 2906 
L 697 3450 
Q 1169 3672 1522 3987 
Q 1875 4303 2022 4600 
L 2384 4600 
L 2384 0 
z
" transform="scale(0.015625)"/>
       </defs>
       <use xlink:href="#ArialMT-31"/>
       <use xlink:href="#ArialMT-30" transform="translate(55.615234 0)"/>
      </g>
     </g>
    </g>
    <g id="xtick_3">
     <g id="line2d_3">
      <g>
       <use xlink:href="#m559e80dc53" x="206.2969" y="294.540385" style="stroke: #000000; stroke-width: 0.8"/>
      </g>
     </g>
     <g id="text_3">
      <!-- 20 -->
      <g transform="translate(195.175025 315.85601) scale(0.2 -0.2)">
       <defs>
        <path id="ArialMT-32" d="M 3222 541 
L 3222 0 
L 194 0 
Q 188 203 259 391 
Q 375 700 629 1000 
Q 884 1300 1366 1694 
Q 2113 2306 2375 2664 
Q 2638 3022 2638 3341 
Q 2638 3675 2398 3904 
Q 2159 4134 1775 4134 
Q 1369 4134 1125 3890 
Q 881 3647 878 3216 
L 300 3275 
Q 359 3922 746 4261 
Q 1134 4600 1788 4600 
Q 2447 4600 2831 4234 
Q 3216 3869 3216 3328 
Q 3216 3053 3103 2787 
Q 2991 2522 2730 2228 
Q 2469 1934 1863 1422 
Q 1356 997 1212 845 
Q 1069 694 975 541 
L 3222 541 
z
" transform="scale(0.015625)"/>
       </defs>
       <use xlink:href="#ArialMT-32"/>
       <use xlink:href="#ArialMT-30" transform="translate(55.615234 0)"/>
      </g>
     </g>
    </g>
    <g id="xtick_4">
     <g id="line2d_4">
      <g>
       <use xlink:href="#m559e80dc53" x="89.318826" y="294.540385" style="stroke: #000000; stroke-width: 0.8"/>
      </g>
     </g>
     <g id="text_4">
      <!-- 30 -->
      <g transform="translate(78.196951 315.85601) scale(0.2 -0.2)">
       <defs>
        <path id="ArialMT-33" d="M 269 1209 
L 831 1284 
Q 928 806 1161 595 
Q 1394 384 1728 384 
Q 2125 384 2398 659 
Q 2672 934 2672 1341 
Q 2672 1728 2419 1979 
Q 2166 2231 1775 2231 
Q 1616 2231 1378 2169 
L 1441 2663 
Q 1497 2656 1531 2656 
Q 1891 2656 2178 2843 
Q 2466 3031 2466 3422 
Q 2466 3731 2256 3934 
Q 2047 4138 1716 4138 
Q 1388 4138 1169 3931 
Q 950 3725 888 3313 
L 325 3413 
Q 428 3978 793 4289 
Q 1159 4600 1703 4600 
Q 2078 4600 2393 4439 
Q 2709 4278 2876 4000 
Q 3044 3722 3044 3409 
Q 3044 3113 2884 2869 
Q 2725 2625 2413 2481 
Q 2819 2388 3044 2092 
Q 3269 1797 3269 1353 
Q 3269 753 2831 336 
Q 2394 -81 1725 -81 
Q 1122 -81 723 278 
Q 325 638 269 1209 
z
" transform="scale(0.015625)"/>
       </defs>
       <use xlink:href="#ArialMT-33"/>
       <use xlink:href="#ArialMT-30" transform="translate(55.615234 0)"/>
      </g>
     </g>
    </g>
    <g id="text_5">
     <!-- Time (mya) -->
     <g transform="translate(214.6125 338.390385) scale(0.2 -0.2)">
      <defs>
       <path id="ArialMT-54" d="M 1659 0 
L 1659 4041 
L 150 4041 
L 150 4581 
L 3781 4581 
L 3781 4041 
L 2266 4041 
L 2266 0 
L 1659 0 
z
" transform="scale(0.015625)"/>
       <path id="ArialMT-69" d="M 425 3934 
L 425 4581 
L 988 4581 
L 988 3934 
L 425 3934 
z
M 425 0 
L 425 3319 
L 988 3319 
L 988 0 
L 425 0 
z
" transform="scale(0.015625)"/>
       <path id="ArialMT-6d" d="M 422 0 
L 422 3319 
L 925 3319 
L 925 2853 
Q 1081 3097 1340 3245 
Q 1600 3394 1931 3394 
Q 2300 3394 2536 3241 
Q 2772 3088 2869 2813 
Q 3263 3394 3894 3394 
Q 4388 3394 4653 3120 
Q 4919 2847 4919 2278 
L 4919 0 
L 4359 0 
L 4359 2091 
Q 4359 2428 4304 2576 
Q 4250 2725 4106 2815 
Q 3963 2906 3769 2906 
Q 3419 2906 3187 2673 
Q 2956 2441 2956 1928 
L 2956 0 
L 2394 0 
L 2394 2156 
Q 2394 2531 2256 2718 
Q 2119 2906 1806 2906 
Q 1569 2906 1367 2781 
Q 1166 2656 1075 2415 
Q 984 2175 984 1722 
L 984 0 
L 422 0 
z
" transform="scale(0.015625)"/>
       <path id="ArialMT-65" d="M 2694 1069 
L 3275 997 
Q 3138 488 2766 206 
Q 2394 -75 1816 -75 
Q 1088 -75 661 373 
Q 234 822 234 1631 
Q 234 2469 665 2931 
Q 1097 3394 1784 3394 
Q 2450 3394 2872 2941 
Q 3294 2488 3294 1666 
Q 3294 1616 3291 1516 
L 816 1516 
Q 847 969 1125 678 
Q 1403 388 1819 388 
Q 2128 388 2347 550 
Q 2566 713 2694 1069 
z
M 847 1978 
L 2700 1978 
Q 2663 2397 2488 2606 
Q 2219 2931 1791 2931 
Q 1403 2931 1139 2672 
Q 875 2413 847 1978 
z
" transform="scale(0.015625)"/>
       <path id="ArialMT-20" transform="scale(0.015625)"/>
       <path id="ArialMT-28" d="M 1497 -1347 
Q 1031 -759 709 28 
Q 388 816 388 1659 
Q 388 2403 628 3084 
Q 909 3875 1497 4659 
L 1900 4659 
Q 1522 4009 1400 3731 
Q 1209 3300 1100 2831 
Q 966 2247 966 1656 
Q 966 153 1900 -1347 
L 1497 -1347 
z
" transform="scale(0.015625)"/>
       <path id="ArialMT-79" d="M 397 -1278 
L 334 -750 
Q 519 -800 656 -800 
Q 844 -800 956 -737 
Q 1069 -675 1141 -563 
Q 1194 -478 1313 -144 
Q 1328 -97 1363 -6 
L 103 3319 
L 709 3319 
L 1400 1397 
Q 1534 1031 1641 628 
Q 1738 1016 1872 1384 
L 2581 3319 
L 3144 3319 
L 1881 -56 
Q 1678 -603 1566 -809 
Q 1416 -1088 1222 -1217 
Q 1028 -1347 759 -1347 
Q 597 -1347 397 -1278 
z
" transform="scale(0.015625)"/>
       <path id="ArialMT-61" d="M 2588 409 
Q 2275 144 1986 34 
Q 1697 -75 1366 -75 
Q 819 -75 525 192 
Q 231 459 231 875 
Q 231 1119 342 1320 
Q 453 1522 633 1644 
Q 813 1766 1038 1828 
Q 1203 1872 1538 1913 
Q 2219 1994 2541 2106 
Q 2544 2222 2544 2253 
Q 2544 2597 2384 2738 
Q 2169 2928 1744 2928 
Q 1347 2928 1158 2789 
Q 969 2650 878 2297 
L 328 2372 
Q 403 2725 575 2942 
Q 747 3159 1072 3276 
Q 1397 3394 1825 3394 
Q 2250 3394 2515 3294 
Q 2781 3194 2906 3042 
Q 3031 2891 3081 2659 
Q 3109 2516 3109 2141 
L 3109 1391 
Q 3109 606 3145 398 
Q 3181 191 3288 0 
L 2700 0 
Q 2613 175 2588 409 
z
M 2541 1666 
Q 2234 1541 1622 1453 
Q 1275 1403 1131 1340 
Q 988 1278 909 1158 
Q 831 1038 831 891 
Q 831 666 1001 516 
Q 1172 366 1500 366 
Q 1825 366 2078 508 
Q 2331 650 2450 897 
Q 2541 1088 2541 1459 
L 2541 1666 
z
" transform="scale(0.015625)"/>
       <path id="ArialMT-29" d="M 791 -1347 
L 388 -1347 
Q 1322 153 1322 1656 
Q 1322 2244 1188 2822 
Q 1081 3291 891 3722 
Q 769 4003 388 4659 
L 791 4659 
Q 1378 3875 1659 3084 
Q 1900 2403 1900 1659 
Q 1900 816 1576 28 
Q 1253 -759 791 -1347 
z
" transform="scale(0.015625)"/>
      </defs>
      <use xlink:href="#ArialMT-54"/>
      <use xlink:href="#ArialMT-69" transform="translate(57.333984 0)"/>
      <use xlink:href="#ArialMT-6d" transform="translate(79.550781 0)"/>
      <use xlink:href="#ArialMT-65" transform="translate(162.851562 0)"/>
      <use xlink:href="#ArialMT-20" transform="translate(218.466797 0)"/>
      <use xlink:href="#ArialMT-28" transform="translate(246.25 0)"/>
      <use xlink:href="#ArialMT-6d" transform="translate(279.550781 0)"/>
      <use xlink:href="#ArialMT-79" transform="translate(362.851562 0)"/>
      <use xlink:href="#ArialMT-61" transform="translate(412.851562 0)"/>
      <use xlink:href="#ArialMT-29" transform="translate(468.466797 0)"/>
     </g>
    </g>
   </g>
   <g id="matplotlib.axis_2">
    <g id="ytick_1">
     <g id="line2d_5">
      <defs>
       <path id="mb3c0893d43" d="M 0 0 
L -3.5 0 
" style="stroke: #000000; stroke-width: 0.8"/>
      </defs>
      <g>
       <use xlink:href="#mb3c0893d43" x="71.772115" y="258.097867" style="stroke: #000000; stroke-width: 0.8"/>
      </g>
     </g>
     <g id="text_6">
      <!-- −0.2 -->
      <g transform="translate(25.290865 265.255679) scale(0.2 -0.2)">
       <defs>
        <path id="ArialMT-2212" d="M 3381 1997 
L 356 1997 
L 356 2522 
L 3381 2522 
L 3381 1997 
z
" transform="scale(0.015625)"/>
        <path id="ArialMT-2e" d="M 581 0 
L 581 641 
L 1222 641 
L 1222 0 
L 581 0 
z
" transform="scale(0.015625)"/>
       </defs>
       <use xlink:href="#ArialMT-2212"/>
       <use xlink:href="#ArialMT-30" transform="translate(58.398438 0)"/>
       <use xlink:href="#ArialMT-2e" transform="translate(114.013672 0)"/>
       <use xlink:href="#ArialMT-32" transform="translate(141.796875 0)"/>
      </g>
     </g>
    </g>
    <g id="ytick_2">
     <g id="line2d_6">
      <g>
       <use xlink:href="#mb3c0893d43" x="71.772115" y="185.212831" style="stroke: #000000; stroke-width: 0.8"/>
      </g>
     </g>
     <g id="text_7">
      <!-- 0.0 -->
      <g transform="translate(36.972115 192.370643) scale(0.2 -0.2)">
       <use xlink:href="#ArialMT-30"/>
       <use xlink:href="#ArialMT-2e" transform="translate(55.615234 0)"/>
       <use xlink:href="#ArialMT-30" transform="translate(83.398438 0)"/>
      </g>
     </g>
    </g>
    <g id="ytick_3">
     <g id="line2d_7">
      <g>
       <use xlink:href="#mb3c0893d43" x="71.772115" y="112.327794" style="stroke: #000000; stroke-width: 0.8"/>
      </g>
     </g>
     <g id="text_8">
      <!-- 0.2 -->
      <g transform="translate(36.972115 119.485607) scale(0.2 -0.2)">
       <use xlink:href="#ArialMT-30"/>
       <use xlink:href="#ArialMT-2e" transform="translate(55.615234 0)"/>
       <use xlink:href="#ArialMT-32" transform="translate(83.398438 0)"/>
      </g>
     </g>
    </g>
    <g id="ytick_4">
     <g id="line2d_8">
      <g>
       <use xlink:href="#mb3c0893d43" x="71.772115" y="39.442758" style="stroke: #000000; stroke-width: 0.8"/>
      </g>
     </g>
     <g id="text_9">
      <!-- 0.4 -->
      <g transform="translate(36.972115 46.600571) scale(0.2 -0.2)">
       <defs>
        <path id="ArialMT-34" d="M 2069 0 
L 2069 1097 
L 81 1097 
L 81 1613 
L 2172 4581 
L 2631 4581 
L 2631 1613 
L 3250 1613 
L 3250 1097 
L 2631 1097 
L 2631 0 
L 2069 0 
z
M 2069 1613 
L 2069 3678 
L 634 1613 
L 2069 1613 
z
" transform="scale(0.015625)"/>
       </defs>
       <use xlink:href="#ArialMT-30"/>
       <use xlink:href="#ArialMT-2e" transform="translate(55.615234 0)"/>
       <use xlink:href="#ArialMT-34" transform="translate(83.398438 0)"/>
      </g>
     </g>
    </g>
    <g id="text_10">
     <!-- $d$ -->
     <g transform="translate(17.315865 155.170312) rotate(-90) scale(0.2 -0.2)">
      <defs>
       <path id="DejaVuSans-Oblique-64" d="M 2675 525 
Q 2444 222 2128 65 
Q 1813 -91 1428 -91 
Q 903 -91 598 267 
Q 294 625 294 1247 
Q 294 1766 478 2236 
Q 663 2706 1013 3078 
Q 1244 3325 1534 3454 
Q 1825 3584 2144 3584 
Q 2481 3584 2739 3421 
Q 2997 3259 3138 2956 
L 3513 4863 
L 4091 4863 
L 3144 0 
L 2566 0 
L 2675 525 
z
M 891 1350 
Q 891 897 1095 644 
Q 1300 391 1663 391 
Q 1931 391 2161 520 
Q 2391 650 2566 903 
Q 2750 1166 2856 1509 
Q 2963 1853 2963 2188 
Q 2963 2622 2758 2865 
Q 2553 3109 2194 3109 
Q 1922 3109 1687 2981 
Q 1453 2853 1288 2613 
Q 1106 2353 998 2009 
Q 891 1666 891 1350 
z
" transform="scale(0.015625)"/>
      </defs>
      <use xlink:href="#DejaVuSans-Oblique-64" transform="translate(0 0.015625)"/>
     </g>
    </g>
   </g>
   <g id="line2d_9">
    <path d="M 89.318826 97.664933 
L 89.318826 97.664933 
L 170.852544 97.664933 
L 170.852544 118.256683 
L 201.149865 118.256683 
L 201.149865 154.446877 
L 253.439064 154.446877 
L 253.439064 169.944319 
L 278.58935 169.944319 
L 278.58935 183.853565 
L 304.207549 183.853565 
L 304.207549 183.471702 
L 355.490736 183.471702 
L 355.490736 155.92399 
L 377.868642 155.92399 
L 377.868642 117.043798 
L 398.140942 117.043798 
L 398.140942 91.947136 
L 410.072706 91.947136 
L 410.072706 72.401966 
L 419.196996 72.401966 
L 419.196996 46.927412 
L 431.117061 46.927412 
L 431.117061 31.290421 
L 438.779125 31.290421 
L 438.779125 28.172996 
L 440.253049 28.172996 
" clip-path="url(#p7423cc5645)" style="fill: none; stroke: #006428; stroke-opacity: 0.25; stroke-linecap: square"/>
   </g>
   <g id="line2d_10">
    <path d="M 89.318826 112.419758 
L 89.318826 112.419758 
L 170.852544 112.419758 
L 170.852544 125.371978 
L 201.149865 125.371978 
L 201.149865 148.733297 
L 253.439064 148.733297 
L 253.439064 160.896915 
L 278.58935 160.896915 
L 278.58935 171.5033 
L 304.207549 171.5033 
L 304.207549 173.418895 
L 355.490736 173.418895 
L 355.490736 151.654123 
L 377.868642 151.654123 
L 377.868642 120.088712 
L 398.140942 120.088712 
L 398.140942 99.418947 
L 410.072706 99.418947 
L 410.072706 82.517396 
L 419.196996 82.517396 
L 419.196996 59.829839 
L 431.117061 59.829839 
L 431.117061 45.55268 
L 438.779125 45.55268 
L 438.779125 42.798392 
L 440.253049 42.798392 
" clip-path="url(#p7423cc5645)" style="fill: none; stroke: #006428; stroke-opacity: 0.25; stroke-linecap: square"/>
   </g>
   <g id="line2d_11">
    <path d="M 89.318826 69.571594 
L 89.318826 69.571594 
L 170.852544 69.571594 
L 170.852544 84.060266 
L 201.149865 84.060266 
L 201.149865 122.400971 
L 253.439064 122.400971 
L 253.439064 146.846602 
L 278.58935 146.846602 
L 278.58935 175.8821 
L 304.207549 175.8821 
L 304.207549 221.362552 
L 355.490736 221.362552 
L 355.490736 193.719806 
L 377.868642 193.719806 
L 377.868642 134.864053 
L 398.140942 134.864053 
L 398.140942 110.195603 
L 410.072706 110.195603 
L 410.072706 97.306605 
L 419.196996 97.306605 
L 419.196996 86.005403 
L 431.117061 86.005403 
L 431.117061 81.409188 
L 438.779125 81.409188 
L 438.779125 80.755357 
L 440.253049 80.755357 
" clip-path="url(#p7423cc5645)" style="fill: none; stroke: #006428; stroke-opacity: 0.25; stroke-linecap: square"/>
   </g>
   <g id="line2d_12">
    <path d="M 89.318826 116.454762 
L 89.318826 116.454762 
L 170.852544 116.454762 
L 170.852544 123.853071 
L 201.149865 123.853071 
L 201.149865 143.904048 
L 253.439064 143.904048 
L 253.439064 157.26678 
L 278.58935 157.26678 
L 278.58935 172.954565 
L 304.207549 172.954565 
L 304.207549 202.416446 
L 355.490736 202.416446 
L 355.490736 198.846709 
L 377.868642 198.846709 
L 377.868642 145.632921 
L 398.140942 145.632921 
L 398.140942 113.993452 
L 410.072706 113.993452 
L 410.072706 96.076381 
L 419.196996 96.076381 
L 419.196996 80.74287 
L 431.117061 80.74287 
L 431.117061 74.383922 
L 438.779125 74.383922 
L 438.779125 73.413394 
L 440.253049 73.413394 
" clip-path="url(#p7423cc5645)" style="fill: none; stroke: #006428; stroke-opacity: 0.25; stroke-linecap: square"/>
   </g>
   <g id="line2d_13">
    <path d="M 89.318826 102.258572 
L 89.318826 102.258572 
L 170.852544 102.258572 
L 170.852544 113.953823 
L 201.149865 113.953823 
L 201.149865 141.71338 
L 253.439064 141.71338 
L 253.439064 159.161602 
L 278.58935 159.161602 
L 278.58935 176.993852 
L 304.207549 176.993852 
L 304.207549 205.008652 
L 355.490736 205.008652 
L 355.490736 187.727355 
L 377.868642 187.727355 
L 377.868642 132.753005 
L 398.140942 132.753005 
L 398.140942 103.931612 
L 410.072706 103.931612 
L 410.072706 88.074312 
L 419.196996 88.074312 
L 419.196996 73.617786 
L 431.117061 73.617786 
L 431.117061 67.607116 
L 438.779125 67.607116 
L 438.779125 66.702936 
L 440.253049 66.702936 
" clip-path="url(#p7423cc5645)" style="fill: none; stroke: #006428; stroke-opacity: 0.25; stroke-linecap: square"/>
   </g>
   <g id="line2d_14">
    <path d="M 89.318826 108.777183 
L 89.318826 108.777183 
L 170.852544 108.777183 
L 170.852544 120.24484 
L 201.149865 120.24484 
L 201.149865 146.931208 
L 253.439064 146.931208 
L 253.439064 164.17502 
L 278.58935 164.17502 
L 278.58935 183.319838 
L 304.207549 183.319838 
L 304.207549 210.87676 
L 355.490736 210.87676 
L 355.490736 183.736453 
L 377.868642 183.736453 
L 377.868642 136.611709 
L 398.140942 136.611709 
L 398.140942 115.913508 
L 410.072706 115.913508 
L 410.072706 104.076513 
L 419.196996 104.076513 
L 419.196996 93.11782 
L 431.117061 93.11782 
L 431.117061 88.173402 
L 438.779125 88.173402 
L 438.779125 87.353361 
L 440.253049 87.353361 
" clip-path="url(#p7423cc5645)" style="fill: none; stroke: #006428; stroke-opacity: 0.25; stroke-linecap: square"/>
   </g>
   <g id="line2d_15">
    <path d="M 89.318826 71.333607 
L 89.318826 71.333607 
L 170.852544 71.333607 
L 170.852544 84.546973 
L 201.149865 84.546973 
L 201.149865 118.91865 
L 253.439064 118.91865 
L 253.439064 142.783749 
L 278.58935 142.783749 
L 278.58935 170.221482 
L 304.207549 170.221482 
L 304.207549 212.653482 
L 355.490736 212.653482 
L 355.490736 187.53205 
L 377.868642 187.53205 
L 377.868642 131.4267 
L 398.140942 131.4267 
L 398.140942 106.21517 
L 410.072706 106.21517 
L 410.072706 93.086342 
L 419.196996 93.086342 
L 419.196996 81.717554 
L 431.117061 81.717554 
L 431.117061 76.745161 
L 438.779125 76.745161 
L 438.779125 76.032388 
L 440.253049 76.032388 
" clip-path="url(#p7423cc5645)" style="fill: none; stroke: #006428; stroke-opacity: 0.25; stroke-linecap: square"/>
   </g>
   <g id="line2d_16">
    <path d="M 89.318826 115.568656 
L 89.318826 115.568656 
L 170.852544 115.568656 
L 170.852544 120.72347 
L 201.149865 120.72347 
L 201.149865 132.909454 
L 253.439064 132.909454 
L 253.439064 140.396362 
L 278.58935 140.396362 
L 278.58935 148.365385 
L 304.207549 148.365385 
L 304.207549 152.666119 
L 355.490736 152.666119 
L 355.490736 136.566414 
L 377.868642 136.566414 
L 377.868642 114.328432 
L 398.140942 114.328432 
L 398.140942 100.593958 
L 410.072706 100.593958 
L 410.072706 89.902529 
L 419.196996 89.902529 
L 419.196996 76.044287 
L 431.117061 76.044287 
L 431.117061 67.746706 
L 438.779125 67.746706 
L 438.779125 66.255697 
L 440.253049 66.255697 
" clip-path="url(#p7423cc5645)" style="fill: none; stroke: #006428; stroke-opacity: 0.25; stroke-linecap: square"/>
   </g>
   <g id="line2d_17">
    <path d="M 89.318826 91.231191 
L 89.318826 91.231191 
L 170.852544 91.231191 
L 170.852544 101.603823 
L 201.149865 101.603823 
L 201.149865 127.496296 
L 253.439064 127.496296 
L 253.439064 143.261257 
L 278.58935 143.261257 
L 278.58935 161.028607 
L 304.207549 161.028607 
L 304.207549 187.017214 
L 355.490736 187.017214 
L 355.490736 174.028516 
L 377.868642 174.028516 
L 377.868642 124.546063 
L 398.140942 124.546063 
L 398.140942 95.858973 
L 410.072706 95.858973 
L 410.072706 79.908811 
L 419.196996 79.908811 
L 419.196996 65.549349 
L 431.117061 65.549349 
L 431.117061 59.53473 
L 438.779125 59.53473 
L 438.779125 58.561674 
L 440.253049 58.561674 
" clip-path="url(#p7423cc5645)" style="fill: none; stroke: #006428; stroke-opacity: 0.25; stroke-linecap: square"/>
   </g>
   <g id="line2d_18">
    <path d="M 89.318826 131.096707 
L 89.318826 131.096707 
L 170.852544 131.096707 
L 170.852544 138.905311 
L 201.149865 138.905311 
L 201.149865 154.838071 
L 253.439064 154.838071 
L 253.439064 162.128477 
L 278.58935 162.128477 
L 278.58935 166.573273 
L 304.207549 166.573273 
L 304.207549 154.580708 
L 355.490736 154.580708 
L 355.490736 132.870851 
L 377.868642 132.870851 
L 377.868642 106.980911 
L 398.140942 106.980911 
L 398.140942 89.091306 
L 410.072706 89.091306 
L 410.072706 75.171418 
L 419.196996 75.171418 
L 419.196996 55.902737 
L 431.117061 55.902737 
L 431.117061 43.758919 
L 438.779125 43.758919 
L 438.779125 41.462777 
L 440.253049 41.462777 
" clip-path="url(#p7423cc5645)" style="fill: none; stroke: #006428; stroke-opacity: 0.25; stroke-linecap: square"/>
   </g>
   <g id="line2d_19">
    <path d="M 89.318826 83.773786 
L 89.318826 83.773786 
L 170.852544 83.773786 
L 170.852544 97.342119 
L 201.149865 97.342119 
L 201.149865 129.594966 
L 253.439064 129.594966 
L 253.439064 145.951976 
L 278.58935 145.951976 
L 278.58935 159.603168 
L 304.207549 159.603168 
L 304.207549 164.892741 
L 355.490736 164.892741 
L 355.490736 147.932957 
L 377.868642 147.932957 
L 377.868642 122.835219 
L 398.140942 122.835219 
L 398.140942 105.048544 
L 410.072706 105.048544 
L 410.072706 91.122228 
L 419.196996 91.122228 
L 419.196996 73.318146 
L 431.117061 73.318146 
L 431.117061 62.440717 
L 438.779125 62.440717 
L 438.779125 60.350376 
L 440.253049 60.350376 
" clip-path="url(#p7423cc5645)" style="fill: none; stroke: #006428; stroke-opacity: 0.25; stroke-linecap: square"/>
   </g>
   <g id="line2d_20">
    <path d="M 89.318826 105.036085 
L 89.318826 105.036085 
L 170.852544 105.036085 
L 170.852544 120.898576 
L 201.149865 120.898576 
L 201.149865 149.498583 
L 253.439064 149.498583 
L 253.439064 162.882569 
L 278.58935 162.882569 
L 278.58935 175.682002 
L 304.207549 175.682002 
L 304.207549 179.832551 
L 355.490736 179.832551 
L 355.490736 156.292396 
L 377.868642 156.292396 
L 377.868642 121.065833 
L 398.140942 121.065833 
L 398.140942 99.779206 
L 410.072706 99.779206 
L 410.072706 84.711279 
L 419.196996 84.711279 
L 419.196996 66.22401 
L 431.117061 66.22401 
L 431.117061 55.776695 
L 438.779125 55.776695 
L 438.779125 53.726816 
L 440.253049 53.726816 
" clip-path="url(#p7423cc5645)" style="fill: none; stroke: #006428; stroke-opacity: 0.25; stroke-linecap: square"/>
   </g>
   <g id="line2d_21">
    <path d="M 89.318826 94.883185 
L 89.318826 94.883185 
L 170.852544 94.883185 
L 170.852544 117.941783 
L 201.149865 117.941783 
L 201.149865 153.271277 
L 253.439064 153.271277 
L 253.439064 167.575494 
L 278.58935 167.575494 
L 278.58935 178.645702 
L 304.207549 178.645702 
L 304.207549 183.022256 
L 355.490736 183.022256 
L 355.490736 164.418661 
L 377.868642 164.418661 
L 377.868642 129.082434 
L 398.140942 129.082434 
L 398.140942 101.52825 
L 410.072706 101.52825 
L 410.072706 76.822713 
L 419.196996 76.822713 
L 419.196996 41.45605 
L 431.117061 41.45605 
L 431.117061 16.758387 
L 438.779125 16.758387 
L 438.779125 12.077003 
L 440.253049 12.077003 
" clip-path="url(#p7423cc5645)" style="fill: none; stroke: #006428; stroke-opacity: 0.25; stroke-linecap: square"/>
   </g>
   <g id="line2d_22">
    <path d="M 89.318826 104.991818 
L 89.318826 104.991818 
L 170.852544 104.991818 
L 170.852544 116.505677 
L 201.149865 116.505677 
L 201.149865 142.98362 
L 253.439064 142.98362 
L 253.439064 160.26401 
L 278.58935 160.26401 
L 278.58935 180.53079 
L 304.207549 180.53079 
L 304.207549 216.382007 
L 355.490736 216.382007 
L 355.490736 212.170372 
L 377.868642 212.170372 
L 377.868642 155.920475 
L 398.140942 155.920475 
L 398.140942 114.533117 
L 410.072706 114.533117 
L 410.072706 90.760062 
L 419.196996 90.760062 
L 419.196996 68.760747 
L 431.117061 68.760747 
L 431.117061 59.640136 
L 438.779125 59.640136 
L 438.779125 58.203809 
L 440.253049 58.203809 
" clip-path="url(#p7423cc5645)" style="fill: none; stroke: #006428; stroke-opacity: 0.25; stroke-linecap: square"/>
   </g>
   <g id="line2d_23">
    <path d="M 89.318826 130.20985 
L 89.318826 130.20985 
L 170.852544 130.20985 
L 170.852544 135.921921 
L 201.149865 135.921921 
L 201.149865 151.226834 
L 253.439064 151.226834 
L 253.439064 162.215652 
L 278.58935 162.215652 
L 278.58935 176.323954 
L 304.207549 176.323954 
L 304.207549 205.080728 
L 355.490736 205.080728 
L 355.490736 193.827579 
L 377.868642 193.827579 
L 377.868642 151.271369 
L 398.140942 151.271369 
L 398.140942 130.892709 
L 410.072706 130.892709 
L 410.072706 120.358984 
L 419.196996 120.358984 
L 419.196996 111.073449 
L 431.117061 111.073449 
L 431.117061 107.141658 
L 438.779125 107.141658 
L 438.779125 106.494744 
L 440.253049 106.494744 
" clip-path="url(#p7423cc5645)" style="fill: none; stroke: #006428; stroke-opacity: 0.25; stroke-linecap: square"/>
   </g>
   <g id="line2d_24">
    <path d="M 89.318826 101.286629 
L 89.318826 101.286629 
L 170.852544 101.286629 
L 170.852544 113.982865 
L 201.149865 113.982865 
L 201.149865 141.806221 
L 253.439064 141.806221 
L 253.439064 158.202232 
L 278.58935 158.202232 
L 278.58935 175.5987 
L 304.207549 175.5987 
L 304.207549 185.420986 
L 355.490736 185.420986 
L 355.490736 160.66929 
L 377.868642 160.66929 
L 377.868642 118.303971 
L 398.140942 118.303971 
L 398.140942 91.643627 
L 410.072706 91.643627 
L 410.072706 73.104662 
L 419.196996 73.104662 
L 419.196996 52.698166 
L 431.117061 52.698166 
L 431.117061 42.110393 
L 438.779125 42.110393 
L 438.779125 40.242884 
L 440.253049 40.242884 
" clip-path="url(#p7423cc5645)" style="fill: none; stroke: #006428; stroke-opacity: 0.25; stroke-linecap: square"/>
   </g>
   <g id="line2d_25">
    <path d="M 89.318826 85.064478 
L 89.318826 85.064478 
L 170.852544 85.064478 
L 170.852544 103.008603 
L 201.149865 103.008603 
L 201.149865 143.754709 
L 253.439064 143.754709 
L 253.439064 166.569215 
L 278.58935 166.569215 
L 278.58935 190.998179 
L 304.207549 190.998179 
L 304.207549 218.567441 
L 355.490736 218.567441 
L 355.490736 197.448924 
L 377.868642 197.448924 
L 377.868642 139.019946 
L 398.140942 139.019946 
L 398.140942 105.049576 
L 410.072706 105.049576 
L 410.072706 86.014007 
L 419.196996 86.014007 
L 419.196996 68.503898 
L 431.117061 68.503898 
L 431.117061 61.405437 
L 438.779125 61.405437 
L 438.779125 60.502984 
L 440.253049 60.502984 
" clip-path="url(#p7423cc5645)" style="fill: none; stroke: #006428; stroke-opacity: 0.25; stroke-linecap: square"/>
   </g>
   <g id="line2d_26">
    <path d="M 89.318826 107.680574 
L 89.318826 107.680574 
L 170.852544 107.680574 
L 170.852544 123.300239 
L 201.149865 123.300239 
L 201.149865 156.536707 
L 253.439064 156.536707 
L 253.439064 173.69884 
L 278.58935 173.69884 
L 278.58935 192.273019 
L 304.207549 192.273019 
L 304.207549 206.308398 
L 355.490736 206.308398 
L 355.490736 180.873783 
L 377.868642 180.873783 
L 377.868642 132.146654 
L 398.140942 132.146654 
L 398.140942 102.081833 
L 410.072706 102.081833 
L 410.072706 81.325856 
L 419.196996 81.325856 
L 419.196996 57.629863 
L 431.117061 57.629863 
L 431.117061 44.021727 
L 438.779125 44.021727 
L 438.779125 41.521995 
L 440.253049 41.521995 
" clip-path="url(#p7423cc5645)" style="fill: none; stroke: #006428; stroke-opacity: 0.25; stroke-linecap: square"/>
   </g>
   <g id="line2d_27">
    <path d="M 89.318826 99.350298 
L 89.318826 99.350298 
L 170.852544 99.350298 
L 170.852544 120.632139 
L 201.149865 120.632139 
L 201.149865 159.628456 
L 253.439064 159.628456 
L 253.439064 175.549998 
L 278.58935 175.549998 
L 278.58935 190.931818 
L 304.207549 190.931818 
L 304.207549 191.764564 
L 355.490736 191.764564 
L 355.490736 166.407597 
L 377.868642 166.407597 
L 377.868642 128.640649 
L 398.140942 128.640649 
L 398.140942 106.185373 
L 410.072706 106.185373 
L 410.072706 89.409678 
L 419.196996 89.409678 
L 419.196996 68.7223 
L 431.117061 68.7223 
L 431.117061 56.065168 
L 438.779125 56.065168 
L 438.779125 53.701695 
L 440.253049 53.701695 
" clip-path="url(#p7423cc5645)" style="fill: none; stroke: #006428; stroke-opacity: 0.25; stroke-linecap: square"/>
   </g>
   <g id="line2d_28">
    <path d="M 89.318826 110.752737 
L 89.318826 110.752737 
L 170.852544 110.752737 
L 170.852544 120.657222 
L 201.149865 120.657222 
L 201.149865 146.301946 
L 253.439064 146.301946 
L 253.439064 162.265397 
L 278.58935 162.265397 
L 278.58935 177.950683 
L 304.207549 177.950683 
L 304.207549 200.350833 
L 355.490736 200.350833 
L 355.490736 188.266451 
L 377.868642 188.266451 
L 377.868642 141.443344 
L 398.140942 141.443344 
L 398.140942 110.612945 
L 410.072706 110.612945 
L 410.072706 90.885767 
L 419.196996 90.885767 
L 419.196996 72.446244 
L 431.117061 72.446244 
L 431.117061 64.18949 
L 438.779125 64.18949 
L 438.779125 62.853554 
L 440.253049 62.853554 
" clip-path="url(#p7423cc5645)" style="fill: none; stroke: #006428; stroke-opacity: 0.25; stroke-linecap: square"/>
   </g>
   <g id="line2d_29">
    <path d="M 89.318826 94.121522 
L 89.318826 94.121522 
L 170.852544 94.121522 
L 170.852544 118.675073 
L 201.149865 118.675073 
L 201.149865 151.049695 
L 253.439064 151.049695 
L 253.439064 162.046496 
L 278.58935 162.046496 
L 278.58935 167.484294 
L 304.207549 167.484294 
L 304.207549 153.760709 
L 355.490736 153.760709 
L 355.490736 133.007415 
L 377.868642 133.007415 
L 377.868642 109.887344 
L 398.140942 109.887344 
L 398.140942 95.401482 
L 410.072706 95.401482 
L 410.072706 84.041161 
L 419.196996 84.041161 
L 419.196996 69.205828 
L 431.117061 69.205828 
L 431.117061 59.528221 
L 438.779125 59.528221 
L 438.779125 57.80853 
L 440.253049 57.80853 
" clip-path="url(#p7423cc5645)" style="fill: none; stroke: #006428; stroke-opacity: 0.25; stroke-linecap: square"/>
   </g>
   <g id="line2d_30">
    <path d="M 89.318826 109.286804 
L 89.318826 109.286804 
L 170.852544 109.286804 
L 170.852544 125.436267 
L 201.149865 125.436267 
L 201.149865 152.237156 
L 253.439064 152.237156 
L 253.439064 162.78118 
L 278.58935 162.78118 
L 278.58935 170.123672 
L 304.207549 170.123672 
L 304.207549 158.201289 
L 355.490736 158.201289 
L 355.490736 136.052698 
L 377.868642 136.052698 
L 377.868642 112.753257 
L 398.140942 112.753257 
L 398.140942 99.349248 
L 410.072706 99.349248 
L 410.072706 88.972776 
L 419.196996 88.972776 
L 419.196996 77.161543 
L 431.117061 77.161543 
L 431.117061 69.837791 
L 438.779125 69.837791 
L 438.779125 68.659875 
L 440.253049 68.659875 
" clip-path="url(#p7423cc5645)" style="fill: none; stroke: #006428; stroke-opacity: 0.25; stroke-linecap: square"/>
   </g>
   <g id="line2d_31">
    <path d="M 89.318826 118.332486 
L 89.318826 118.332486 
L 170.852544 118.332486 
L 170.852544 131.553444 
L 201.149865 131.553444 
L 201.149865 152.417803 
L 253.439064 152.417803 
L 253.439064 160.545407 
L 278.58935 160.545407 
L 278.58935 166.517068 
L 304.207549 166.517068 
L 304.207549 163.387328 
L 355.490736 163.387328 
L 355.490736 148.000458 
L 377.868642 148.000458 
L 377.868642 124.024566 
L 398.140942 124.024566 
L 398.140942 108.139066 
L 410.072706 108.139066 
L 410.072706 95.186247 
L 419.196996 95.186247 
L 419.196996 78.13632 
L 431.117061 78.13632 
L 431.117061 67.084027 
L 438.779125 67.084027 
L 438.779125 65.115944 
L 440.253049 65.115944 
" clip-path="url(#p7423cc5645)" style="fill: none; stroke: #006428; stroke-opacity: 0.25; stroke-linecap: square"/>
   </g>
   <g id="line2d_32">
    <path d="M 89.318826 106.223947 
L 89.318826 106.223947 
L 170.852544 106.223947 
L 170.852544 118.153576 
L 201.149865 118.153576 
L 201.149865 143.164114 
L 253.439064 143.164114 
L 253.439064 157.467011 
L 278.58935 157.467011 
L 278.58935 168.743785 
L 304.207549 168.743785 
L 304.207549 166.570108 
L 355.490736 166.570108 
L 355.490736 145.20077 
L 377.868642 145.20077 
L 377.868642 115.442936 
L 398.140942 115.442936 
L 398.140942 96.844942 
L 410.072706 96.844942 
L 410.072706 82.939457 
L 419.196996 82.939457 
L 419.196996 66.296688 
L 431.117061 66.296688 
L 431.117061 56.480722 
L 438.779125 56.480722 
L 438.779125 54.733212 
L 440.253049 54.733212 
" clip-path="url(#p7423cc5645)" style="fill: none; stroke: #006428; stroke-opacity: 0.25; stroke-linecap: square"/>
   </g>
   <g id="line2d_33">
    <path d="M 89.318826 88.161733 
L 89.318826 88.161733 
L 170.852544 88.161733 
L 170.852544 100.935355 
L 201.149865 100.935355 
L 201.149865 131.732778 
L 253.439064 131.732778 
L 253.439064 149.369366 
L 278.58935 149.369366 
L 278.58935 169.443553 
L 304.207549 169.443553 
L 304.207549 198.814305 
L 355.490736 198.814305 
L 355.490736 181.492693 
L 377.868642 181.492693 
L 377.868642 134.042617 
L 398.140942 134.042617 
L 398.140942 103.307923 
L 410.072706 103.307923 
L 410.072706 83.741743 
L 419.196996 83.741743 
L 419.196996 63.106604 
L 431.117061 63.106604 
L 431.117061 53.214836 
L 438.779125 53.214836 
L 438.779125 51.514029 
L 440.253049 51.514029 
" clip-path="url(#p7423cc5645)" style="fill: none; stroke: #006428; stroke-opacity: 0.25; stroke-linecap: square"/>
   </g>
   <g id="line2d_34">
    <path d="M 89.318826 114.139971 
L 89.318826 114.139971 
L 170.852544 114.139971 
L 170.852544 124.432427 
L 201.149865 124.432427 
L 201.149865 149.215529 
L 253.439064 149.215529 
L 253.439064 165.059753 
L 278.58935 165.059753 
L 278.58935 182.523196 
L 304.207549 182.523196 
L 304.207549 202.927657 
L 355.490736 202.927657 
L 355.490736 175.513972 
L 377.868642 175.513972 
L 377.868642 129.418303 
L 398.140942 129.418303 
L 398.140942 106.209088 
L 410.072706 106.209088 
L 410.072706 92.172638 
L 419.196996 92.172638 
L 419.196996 77.606169 
L 431.117061 77.606169 
L 431.117061 70.894175 
L 438.779125 70.894175 
L 438.779125 69.706603 
L 440.253049 69.706603 
" clip-path="url(#p7423cc5645)" style="fill: none; stroke: #006428; stroke-opacity: 0.25; stroke-linecap: square"/>
   </g>
   <g id="line2d_35">
    <path d="M 89.318826 88.675982 
L 89.318826 88.675982 
L 170.852544 88.675982 
L 170.852544 106.544239 
L 201.149865 106.544239 
L 201.149865 136.966189 
L 253.439064 136.966189 
L 253.439064 152.18059 
L 278.58935 152.18059 
L 278.58935 165.375445 
L 304.207549 165.375445 
L 304.207549 177.18197 
L 355.490736 177.18197 
L 355.490736 159.790275 
L 377.868642 159.790275 
L 377.868642 125.480748 
L 398.140942 125.480748 
L 398.140942 105.860531 
L 410.072706 105.860531 
L 410.072706 92.605635 
L 419.196996 92.605635 
L 419.196996 77.094713 
L 431.117061 77.094713 
L 431.117061 68.704993 
L 438.779125 68.704993 
L 438.779125 67.174858 
L 440.253049 67.174858 
" clip-path="url(#p7423cc5645)" style="fill: none; stroke: #006428; stroke-opacity: 0.25; stroke-linecap: square"/>
   </g>
   <g id="line2d_36">
    <path d="M 89.318826 97.402054 
L 89.318826 97.402054 
L 170.852544 97.402054 
L 170.852544 106.454944 
L 201.149865 106.454944 
L 201.149865 129.177258 
L 253.439064 129.177258 
L 253.439064 143.038041 
L 278.58935 143.038041 
L 278.58935 158.503151 
L 304.207549 158.503151 
L 304.207549 176.472667 
L 355.490736 176.472667 
L 355.490736 156.768766 
L 377.868642 156.768766 
L 377.868642 116.34695 
L 398.140942 116.34695 
L 398.140942 90.624398 
L 410.072706 90.624398 
L 410.072706 73.797457 
L 419.196996 73.797457 
L 419.196996 54.974869 
L 431.117061 54.974869 
L 431.117061 44.932015 
L 438.779125 44.932015 
L 438.779125 43.260159 
L 440.253049 43.260159 
" clip-path="url(#p7423cc5645)" style="fill: none; stroke: #006428; stroke-opacity: 0.25; stroke-linecap: square"/>
   </g>
   <g id="line2d_37">
    <path d="M 89.318826 105.043889 
L 89.318826 105.043889 
L 170.852544 105.043889 
L 170.852544 123.14532 
L 201.149865 123.14532 
L 201.149865 153.576056 
L 253.439064 153.576056 
L 253.439064 167.738638 
L 278.58935 167.738638 
L 278.58935 180.611433 
L 304.207549 180.611433 
L 304.207549 182.44401 
L 355.490736 182.44401 
L 355.490736 156.687605 
L 377.868642 156.687605 
L 377.868642 124.008373 
L 398.140942 124.008373 
L 398.140942 105.378939 
L 410.072706 105.378939 
L 410.072706 92.065259 
L 419.196996 92.065259 
L 419.196996 76.20112 
L 431.117061 76.20112 
L 431.117061 66.802735 
L 438.779125 66.802735 
L 438.779125 65.193719 
L 440.253049 65.193719 
" clip-path="url(#p7423cc5645)" style="fill: none; stroke: #006428; stroke-opacity: 0.25; stroke-linecap: square"/>
   </g>
   <g id="line2d_38">
    <path d="M 89.318826 102.510584 
L 89.318826 102.510584 
L 170.852544 102.510584 
L 170.852544 111.504496 
L 201.149865 111.504496 
L 201.149865 135.684065 
L 253.439064 135.684065 
L 253.439064 152.117906 
L 278.58935 152.117906 
L 278.58935 169.682377 
L 304.207549 169.682377 
L 304.207549 178.958561 
L 355.490736 178.958561 
L 355.490736 151.560655 
L 377.868642 151.560655 
L 377.868642 112.699898 
L 398.140942 112.699898 
L 398.140942 89.486503 
L 410.072706 89.486503 
L 410.072706 73.504956 
L 419.196996 73.504956 
L 419.196996 54.293386 
L 431.117061 54.293386 
L 431.117061 44.23592 
L 438.779125 44.23592 
L 438.779125 42.286913 
L 440.253049 42.286913 
" clip-path="url(#p7423cc5645)" style="fill: none; stroke: #006428; stroke-opacity: 0.25; stroke-linecap: square"/>
   </g>
   <g id="line2d_39">
    <path d="M 89.318826 80.215151 
L 89.318826 80.215151 
L 170.852544 80.215151 
L 170.852544 100.62989 
L 201.149865 100.62989 
L 201.149865 138.574645 
L 253.439064 138.574645 
L 253.439064 154.44849 
L 278.58935 154.44849 
L 278.58935 165.94246 
L 304.207549 165.94246 
L 304.207549 157.327622 
L 355.490736 157.327622 
L 355.490736 132.358921 
L 377.868642 132.358921 
L 377.868642 105.444829 
L 398.140942 105.444829 
L 398.140942 89.334114 
L 410.072706 89.334114 
L 410.072706 77.108767 
L 419.196996 77.108767 
L 419.196996 61.4763 
L 431.117061 61.4763 
L 431.117061 51.688522 
L 438.779125 51.688522 
L 438.779125 49.751328 
L 440.253049 49.751328 
" clip-path="url(#p7423cc5645)" style="fill: none; stroke: #006428; stroke-opacity: 0.25; stroke-linecap: square"/>
   </g>
   <g id="line2d_40">
    <path d="M 89.318826 130.942891 
L 89.318826 130.942891 
L 170.852544 130.942891 
L 170.852544 136.900408 
L 201.149865 136.900408 
L 201.149865 151.281941 
L 253.439064 151.281941 
L 253.439064 160.041262 
L 278.58935 160.041262 
L 278.58935 167.220312 
L 304.207549 167.220312 
L 304.207549 161.536342 
L 355.490736 161.536342 
L 355.490736 139.48821 
L 377.868642 139.48821 
L 377.868642 109.329165 
L 398.140942 109.329165 
L 398.140942 87.471726 
L 410.072706 87.471726 
L 410.072706 71.803358 
L 419.196996 71.803358 
L 419.196996 52.112688 
L 431.117061 52.112688 
L 431.117061 40.992528 
L 438.779125 40.992528 
L 438.779125 39.027866 
L 440.253049 39.027866 
" clip-path="url(#p7423cc5645)" style="fill: none; stroke: #006428; stroke-opacity: 0.25; stroke-linecap: square"/>
   </g>
   <g id="line2d_41">
    <path d="M 89.318826 126.128572 
L 89.318826 126.128572 
L 170.852544 126.128572 
L 170.852544 149.552116 
L 201.149865 149.552116 
L 201.149865 183.395172 
L 253.439064 183.395172 
L 253.439064 193.106948 
L 278.58935 193.106948 
L 278.58935 195.007913 
L 304.207549 195.007913 
L 304.207549 177.511861 
L 355.490736 177.511861 
L 355.490736 157.926281 
L 377.868642 157.926281 
L 377.868642 135.071979 
L 398.140942 135.071979 
L 398.140942 120.535677 
L 410.072706 120.535677 
L 410.072706 109.3933 
L 419.196996 109.3933 
L 419.196996 95.923468 
L 431.117061 95.923468 
L 431.117061 87.862287 
L 438.779125 87.862287 
L 438.779125 86.551489 
L 440.253049 86.551489 
" clip-path="url(#p7423cc5645)" style="fill: none; stroke: #006428; stroke-opacity: 0.25; stroke-linecap: square"/>
   </g>
   <g id="line2d_42">
    <path d="M 89.318826 85.955872 
L 89.318826 85.955872 
L 170.852544 85.955872 
L 170.852544 103.454692 
L 201.149865 103.454692 
L 201.149865 135.051623 
L 253.439064 135.051623 
L 253.439064 151.471225 
L 278.58935 151.471225 
L 278.58935 170.260766 
L 304.207549 170.260766 
L 304.207549 204.976127 
L 355.490736 204.976127 
L 355.490736 197.019377 
L 377.868642 197.019377 
L 377.868642 148.933422 
L 398.140942 148.933422 
L 398.140942 119.086752 
L 410.072706 119.086752 
L 410.072706 100.781366 
L 419.196996 100.781366 
L 419.196996 83.034796 
L 431.117061 83.034796 
L 431.117061 74.411848 
L 438.779125 74.411848 
L 438.779125 72.929981 
L 440.253049 72.929981 
" clip-path="url(#p7423cc5645)" style="fill: none; stroke: #006428; stroke-opacity: 0.25; stroke-linecap: square"/>
   </g>
   <g id="line2d_43">
    <path d="M 89.318826 91.449739 
L 89.318826 91.449739 
L 170.852544 91.449739 
L 170.852544 105.149896 
L 201.149865 105.149896 
L 201.149865 137.223024 
L 253.439064 137.223024 
L 253.439064 153.313952 
L 278.58935 153.313952 
L 278.58935 167.71291 
L 304.207549 167.71291 
L 304.207549 166.745681 
L 355.490736 166.745681 
L 355.490736 145.812329 
L 377.868642 145.812329 
L 377.868642 119.476581 
L 398.140942 119.476581 
L 398.140942 104.435937 
L 410.072706 104.435937 
L 410.072706 93.644268 
L 419.196996 93.644268 
L 419.196996 81.42368 
L 431.117061 81.42368 
L 431.117061 74.687124 
L 438.779125 74.687124 
L 438.779125 73.550788 
L 440.253049 73.550788 
" clip-path="url(#p7423cc5645)" style="fill: none; stroke: #006428; stroke-opacity: 0.25; stroke-linecap: square"/>
   </g>
   <g id="line2d_44">
    <path d="M 89.318826 122.29765 
L 89.318826 122.29765 
L 170.852544 122.29765 
L 170.852544 128.010661 
L 201.149865 128.010661 
L 201.149865 143.848709 
L 253.439064 143.848709 
L 253.439064 153.457678 
L 278.58935 153.457678 
L 278.58935 163.555754 
L 304.207549 163.555754 
L 304.207549 171.87183 
L 355.490736 171.87183 
L 355.490736 158.439089 
L 377.868642 158.439089 
L 377.868642 128.842828 
L 398.140942 128.842828 
L 398.140942 108.911268 
L 410.072706 108.911268 
L 410.072706 93.244512 
L 419.196996 93.244512 
L 419.196996 74.685801 
L 431.117061 74.685801 
L 431.117061 63.709495 
L 438.779125 63.709495 
L 438.779125 61.767081 
L 440.253049 61.767081 
" clip-path="url(#p7423cc5645)" style="fill: none; stroke: #006428; stroke-opacity: 0.25; stroke-linecap: square"/>
   </g>
   <g id="line2d_45">
    <path d="M 89.318826 145.401746 
L 89.318826 145.401746 
L 170.852544 145.401746 
L 170.852544 150.467867 
L 201.149865 150.467867 
L 201.149865 159.003646 
L 253.439064 159.003646 
L 253.439064 162.093905 
L 278.58935 162.093905 
L 278.58935 163.913504 
L 304.207549 163.913504 
L 304.207549 154.987481 
L 355.490736 154.987481 
L 355.490736 141.752096 
L 377.868642 141.752096 
L 377.868642 124.222192 
L 398.140942 124.222192 
L 398.140942 112.012342 
L 410.072706 112.012342 
L 410.072706 102.52044 
L 419.196996 102.52044 
L 419.196996 89.553931 
L 431.117061 89.553931 
L 431.117061 81.432666 
L 438.779125 81.432666 
L 438.779125 79.969784 
L 440.253049 79.969784 
" clip-path="url(#p7423cc5645)" style="fill: none; stroke: #006428; stroke-opacity: 0.25; stroke-linecap: square"/>
   </g>
   <g id="line2d_46">
    <path d="M 89.318826 78.90848 
L 89.318826 78.90848 
L 170.852544 78.90848 
L 170.852544 112.165011 
L 201.149865 112.165011 
L 201.149865 156.984293 
L 253.439064 156.984293 
L 253.439064 168.533096 
L 278.58935 168.533096 
L 278.58935 173.694817 
L 304.207549 173.694817 
L 304.207549 159.517216 
L 355.490736 159.517216 
L 355.490736 139.969681 
L 377.868642 139.969681 
L 377.868642 115.32585 
L 398.140942 115.32585 
L 398.140942 97.984892 
L 410.072706 97.984892 
L 410.072706 83.155301 
L 419.196996 83.155301 
L 419.196996 61.960417 
L 431.117061 61.960417 
L 431.117061 47.167315 
L 438.779125 47.167315 
L 438.779125 44.375187 
L 440.253049 44.375187 
" clip-path="url(#p7423cc5645)" style="fill: none; stroke: #006428; stroke-opacity: 0.25; stroke-linecap: square"/>
   </g>
   <g id="line2d_47">
    <path d="M 89.318826 105.404345 
L 89.318826 105.404345 
L 170.852544 105.404345 
L 170.852544 116.975144 
L 201.149865 116.975144 
L 201.149865 144.432211 
L 253.439064 144.432211 
L 253.439064 160.677698 
L 278.58935 160.677698 
L 278.58935 177.279353 
L 304.207549 177.279353 
L 304.207549 189.453127 
L 355.490736 189.453127 
L 355.490736 159.535212 
L 377.868642 159.535212 
L 377.868642 118.270064 
L 398.140942 118.270064 
L 398.140942 101.005755 
L 410.072706 101.005755 
L 410.072706 91.657948 
L 419.196996 91.657948 
L 419.196996 82.708463 
L 431.117061 82.708463 
L 431.117061 78.675729 
L 438.779125 78.675729 
L 438.779125 78.060365 
L 440.253049 78.060365 
" clip-path="url(#p7423cc5645)" style="fill: none; stroke: #006428; stroke-opacity: 0.25; stroke-linecap: square"/>
   </g>
   <g id="line2d_48">
    <path d="M 89.318826 103.554162 
L 89.318826 103.554162 
L 170.852544 103.554162 
L 170.852544 114.805029 
L 201.149865 114.805029 
L 201.149865 144.792404 
L 253.439064 144.792404 
L 253.439064 164.897605 
L 278.58935 164.897605 
L 278.58935 187.052021 
L 304.207549 187.052021 
L 304.207549 214.806288 
L 355.490736 214.806288 
L 355.490736 199.169562 
L 377.868642 199.169562 
L 377.868642 146.385292 
L 398.140942 146.385292 
L 398.140942 115.481878 
L 410.072706 115.481878 
L 410.072706 97.042149 
L 419.196996 97.042149 
L 419.196996 80.654425 
L 431.117061 80.654425 
L 431.117061 73.885321 
L 438.779125 73.885321 
L 438.779125 72.759622 
L 440.253049 72.759622 
" clip-path="url(#p7423cc5645)" style="fill: none; stroke: #006428; stroke-opacity: 0.25; stroke-linecap: square"/>
   </g>
   <g id="line2d_49">
    <path d="M 89.318826 72.241626 
L 89.318826 72.241626 
L 170.852544 72.241626 
L 170.852544 88.312247 
L 201.149865 88.312247 
L 201.149865 121.741906 
L 253.439064 121.741906 
L 253.439064 138.230125 
L 278.58935 138.230125 
L 278.58935 153.95185 
L 304.207549 153.95185 
L 304.207549 168.591312 
L 355.490736 168.591312 
L 355.490736 151.255111 
L 377.868642 151.255111 
L 377.868642 120.271793 
L 398.140942 120.271793 
L 398.140942 98.198601 
L 410.072706 98.198601 
L 410.072706 80.04214 
L 419.196996 80.04214 
L 419.196996 55.375603 
L 431.117061 55.375603 
L 431.117061 39.370752 
L 438.779125 39.370752 
L 438.779125 36.299294 
L 440.253049 36.299294 
" clip-path="url(#p7423cc5645)" style="fill: none; stroke: #006428; stroke-opacity: 0.25; stroke-linecap: square"/>
   </g>
   <g id="line2d_50">
    <path d="M 89.318826 82.882958 
L 89.318826 82.882958 
L 170.852544 82.882958 
L 170.852544 93.129208 
L 201.149865 93.129208 
L 201.149865 119.02771 
L 253.439064 119.02771 
L 253.439064 132.919141 
L 278.58935 132.919141 
L 278.58935 147.118962 
L 304.207549 147.118962 
L 304.207549 159.280461 
L 355.490736 159.280461 
L 355.490736 142.782148 
L 377.868642 142.782148 
L 377.868642 115.913223 
L 398.140942 115.913223 
L 398.140942 98.220127 
L 410.072706 98.220127 
L 410.072706 84.926503 
L 419.196996 84.926503 
L 419.196996 67.877893 
L 431.117061 67.877893 
L 431.117061 57.842071 
L 438.779125 57.842071 
L 438.779125 56.141035 
L 440.253049 56.141035 
" clip-path="url(#p7423cc5645)" style="fill: none; stroke: #006428; stroke-opacity: 0.25; stroke-linecap: square"/>
   </g>
   <g id="line2d_51">
    <path d="M 89.318826 133.990514 
L 89.318826 133.990514 
L 170.852544 133.990514 
L 170.852544 147.07338 
L 201.149865 147.07338 
L 201.149865 176.556253 
L 253.439064 176.556253 
L 253.439064 190.893145 
L 278.58935 190.893145 
L 278.58935 203.665879 
L 304.207549 203.665879 
L 304.207549 202.466201 
L 355.490736 202.466201 
L 355.490736 167.004715 
L 377.868642 167.004715 
L 377.868642 115.558251 
L 398.140942 115.558251 
L 398.140942 93.426734 
L 410.072706 93.426734 
L 410.072706 80.908125 
L 419.196996 80.908125 
L 419.196996 69.713077 
L 431.117061 69.713077 
L 431.117061 65.126092 
L 438.779125 65.126092 
L 438.779125 64.283551 
L 440.253049 64.283551 
" clip-path="url(#p7423cc5645)" style="fill: none; stroke: #006428; stroke-opacity: 0.25; stroke-linecap: square"/>
   </g>
   <g id="line2d_52">
    <path d="M 89.318826 88.685112 
L 89.318826 88.685112 
L 170.852544 88.685112 
L 170.852544 100.519884 
L 201.149865 100.519884 
L 201.149865 133.468794 
L 253.439064 133.468794 
L 253.439064 156.639567 
L 278.58935 156.639567 
L 278.58935 182.60152 
L 304.207549 182.60152 
L 304.207549 218.028036 
L 355.490736 218.028036 
L 355.490736 191.87448 
L 377.868642 191.87448 
L 377.868642 135.447557 
L 398.140942 135.447557 
L 398.140942 107.127468 
L 410.072706 107.127468 
L 410.072706 90.598338 
L 419.196996 90.598338 
L 419.196996 74.412446 
L 431.117061 74.412446 
L 431.117061 67.300755 
L 438.779125 67.300755 
L 438.779125 66.182722 
L 440.253049 66.182722 
" clip-path="url(#p7423cc5645)" style="fill: none; stroke: #006428; stroke-opacity: 0.25; stroke-linecap: square"/>
   </g>
   <g id="line2d_53">
    <path d="M 89.318826 96.655468 
L 89.318826 96.655468 
L 170.852544 96.655468 
L 170.852544 117.298449 
L 201.149865 117.298449 
L 201.149865 157.495301 
L 253.439064 157.495301 
L 253.439064 178.264159 
L 278.58935 178.264159 
L 278.58935 199.389577 
L 304.207549 199.389577 
L 304.207549 217.789048 
L 355.490736 217.789048 
L 355.490736 187.469445 
L 377.868642 187.469445 
L 377.868642 132.01795 
L 398.140942 132.01795 
L 398.140942 100.975174 
L 410.072706 100.975174 
L 410.072706 80.867381 
L 419.196996 80.867381 
L 419.196996 60.077285 
L 431.117061 60.077285 
L 431.117061 49.358502 
L 438.779125 49.358502 
L 438.779125 47.166011 
L 440.253049 47.166011 
" clip-path="url(#p7423cc5645)" style="fill: none; stroke: #006428; stroke-opacity: 0.25; stroke-linecap: square"/>
   </g>
   <g id="line2d_54">
    <path d="M 89.318826 64.812445 
L 89.318826 64.812445 
L 170.852544 64.812445 
L 170.852544 96.476765 
L 201.149865 96.476765 
L 201.149865 147.656059 
L 253.439064 147.656059 
L 253.439064 169.260106 
L 278.58935 169.260106 
L 278.58935 185.967227 
L 304.207549 185.967227 
L 304.207549 191.574948 
L 355.490736 191.574948 
L 355.490736 172.563723 
L 377.868642 172.563723 
L 377.868642 139.735263 
L 398.140942 139.735263 
L 398.140942 118.40546 
L 410.072706 118.40546 
L 410.072706 103.29622 
L 419.196996 103.29622 
L 419.196996 85.65932 
L 431.117061 85.65932 
L 431.117061 76.222664 
L 438.779125 76.222664 
L 438.779125 74.400981 
L 440.253049 74.400981 
" clip-path="url(#p7423cc5645)" style="fill: none; stroke: #006428; stroke-opacity: 0.25; stroke-linecap: square"/>
   </g>
   <g id="line2d_55">
    <path d="M 89.318826 82.733165 
L 89.318826 82.733165 
L 170.852544 82.733165 
L 170.852544 93.204205 
L 201.149865 93.204205 
L 201.149865 122.346436 
L 253.439064 122.346436 
L 253.439064 140.261135 
L 278.58935 140.261135 
L 278.58935 159.543323 
L 304.207549 159.543323 
L 304.207549 186.360361 
L 355.490736 186.360361 
L 355.490736 164.310598 
L 377.868642 164.310598 
L 377.868642 118.129488 
L 398.140942 118.129488 
L 398.140942 92.714203 
L 410.072706 92.714203 
L 410.072706 75.590163 
L 419.196996 75.590163 
L 419.196996 56.230565 
L 431.117061 56.230565 
L 431.117061 45.520576 
L 438.779125 45.520576 
L 438.779125 43.658137 
L 440.253049 43.658137 
" clip-path="url(#p7423cc5645)" style="fill: none; stroke: #006428; stroke-opacity: 0.25; stroke-linecap: square"/>
   </g>
   <g id="line2d_56">
    <path d="M 89.318826 96.065826 
L 89.318826 96.065826 
L 170.852544 96.065826 
L 170.852544 110.607654 
L 201.149865 110.607654 
L 201.149865 142.865454 
L 253.439064 142.865454 
L 253.439064 160.408216 
L 278.58935 160.408216 
L 278.58935 178.890722 
L 304.207549 178.890722 
L 304.207549 199.167393 
L 355.490736 199.167393 
L 355.490736 178.81783 
L 377.868642 178.81783 
L 377.868642 135.901106 
L 398.140942 135.901106 
L 398.140942 113.120715 
L 410.072706 113.120715 
L 410.072706 99.060405 
L 419.196996 99.060405 
L 419.196996 85.239884 
L 431.117061 85.239884 
L 431.117061 79.01662 
L 438.779125 79.01662 
L 438.779125 78.104635 
L 440.253049 78.104635 
" clip-path="url(#p7423cc5645)" style="fill: none; stroke: #006428; stroke-opacity: 0.25; stroke-linecap: square"/>
   </g>
   <g id="line2d_57">
    <path d="M 89.318826 105.328715 
L 89.318826 105.328715 
L 170.852544 105.328715 
L 170.852544 122.995032 
L 201.149865 122.995032 
L 201.149865 154.267852 
L 253.439064 154.267852 
L 253.439064 168.797499 
L 278.58935 168.797499 
L 278.58935 182.397149 
L 304.207549 182.397149 
L 304.207549 190.271567 
L 355.490736 190.271567 
L 355.490736 170.205034 
L 377.868642 170.205034 
L 377.868642 131.748724 
L 398.140942 131.748724 
L 398.140942 105.844317 
L 410.072706 105.844317 
L 410.072706 87.641156 
L 419.196996 87.641156 
L 419.196996 67.086165 
L 431.117061 67.086165 
L 431.117061 55.384611 
L 438.779125 55.384611 
L 438.779125 53.315091 
L 440.253049 53.315091 
" clip-path="url(#p7423cc5645)" style="fill: none; stroke: #006428; stroke-opacity: 0.25; stroke-linecap: square"/>
   </g>
   <g id="line2d_58">
    <path d="M 89.318826 125.643072 
L 89.318826 125.643072 
L 170.852544 125.643072 
L 170.852544 137.742173 
L 201.149865 137.742173 
L 201.149865 161.702325 
L 253.439064 161.702325 
L 253.439064 173.787226 
L 278.58935 173.787226 
L 278.58935 186.243922 
L 304.207549 186.243922 
L 304.207549 199.252109 
L 355.490736 199.252109 
L 355.490736 184.408268 
L 377.868642 184.408268 
L 377.868642 138.739343 
L 398.140942 138.739343 
L 398.140942 105.979949 
L 410.072706 105.979949 
L 410.072706 83.143411 
L 419.196996 83.143411 
L 419.196996 59.224325 
L 431.117061 59.224325 
L 431.117061 46.177423 
L 438.779125 46.177423 
L 438.779125 44.059194 
L 440.253049 44.059194 
" clip-path="url(#p7423cc5645)" style="fill: none; stroke: #006428; stroke-opacity: 0.25; stroke-linecap: square"/>
   </g>
   <g id="line2d_59">
    <path d="M 89.318826 80.69309 
L 89.318826 80.69309 
L 170.852544 80.69309 
L 170.852544 87.347623 
L 201.149865 87.347623 
L 201.149865 110.07512 
L 253.439064 110.07512 
L 253.439064 127.235273 
L 278.58935 127.235273 
L 278.58935 148.402262 
L 304.207549 148.402262 
L 304.207549 193.476213 
L 355.490736 193.476213 
L 355.490736 186.813015 
L 377.868642 186.813015 
L 377.868642 138.920443 
L 398.140942 138.920443 
L 398.140942 110.221602 
L 410.072706 110.221602 
L 410.072706 93.021683 
L 419.196996 93.021683 
L 419.196996 75.957486 
L 431.117061 75.957486 
L 431.117061 67.850925 
L 438.779125 67.850925 
L 438.779125 66.586256 
L 440.253049 66.586256 
" clip-path="url(#p7423cc5645)" style="fill: none; stroke: #006428; stroke-opacity: 0.25; stroke-linecap: square"/>
   </g>
   <g id="line2d_60">
    <path d="M 89.318826 46.354294 
L 89.318826 46.354294 
L 170.852544 46.354294 
L 170.852544 65.819579 
L 201.149865 65.819579 
L 201.149865 110.002043 
L 253.439064 110.002043 
L 253.439064 136.572404 
L 278.58935 136.572404 
L 278.58935 166.635406 
L 304.207549 166.635406 
L 304.207549 212.932382 
L 355.490736 212.932382 
L 355.490736 194.798468 
L 377.868642 194.798468 
L 377.868642 137.03117 
L 398.140942 137.03117 
L 398.140942 106.321092 
L 410.072706 106.321092 
L 410.072706 87.588497 
L 419.196996 87.588497 
L 419.196996 69.272794 
L 431.117061 69.272794 
L 431.117061 60.628432 
L 438.779125 60.628432 
L 438.779125 58.90728 
L 440.253049 58.90728 
" clip-path="url(#p7423cc5645)" style="fill: none; stroke: #006428; stroke-opacity: 0.25; stroke-linecap: square"/>
   </g>
   <g id="line2d_61">
    <path d="M 89.318826 98.923944 
L 89.318826 98.923944 
L 170.852544 98.923944 
L 170.852544 114.646364 
L 201.149865 114.646364 
L 201.149865 147.224046 
L 253.439064 147.224046 
L 253.439064 163.917838 
L 278.58935 163.917838 
L 278.58935 179.302069 
L 304.207549 179.302069 
L 304.207549 183.426559 
L 355.490736 183.426559 
L 355.490736 150.751137 
L 377.868642 150.751137 
L 377.868642 109.206514 
L 398.140942 109.206514 
L 398.140942 86.577164 
L 410.072706 86.577164 
L 410.072706 70.91209 
L 419.196996 70.91209 
L 419.196996 53.855153 
L 431.117061 53.855153 
L 431.117061 44.753316 
L 438.779125 44.753316 
L 438.779125 42.991513 
L 440.253049 42.991513 
" clip-path="url(#p7423cc5645)" style="fill: none; stroke: #006428; stroke-opacity: 0.25; stroke-linecap: square"/>
   </g>
   <g id="line2d_62">
    <path d="M 89.318826 113.307175 
L 89.318826 113.307175 
L 170.852544 113.307175 
L 170.852544 119.053962 
L 201.149865 119.053962 
L 201.149865 140.305816 
L 253.439064 140.305816 
L 253.439064 155.696943 
L 278.58935 155.696943 
L 278.58935 173.232267 
L 304.207549 173.232267 
L 304.207549 194.627619 
L 355.490736 194.627619 
L 355.490736 169.664444 
L 377.868642 169.664444 
L 377.868642 122.074445 
L 398.140942 122.074445 
L 398.140942 101.546317 
L 410.072706 101.546317 
L 410.072706 90.420597 
L 419.196996 90.420597 
L 419.196996 81.087114 
L 431.117061 81.087114 
L 431.117061 77.437162 
L 438.779125 77.437162 
L 438.779125 76.947819 
L 440.253049 76.947819 
" clip-path="url(#p7423cc5645)" style="fill: none; stroke: #006428; stroke-opacity: 0.25; stroke-linecap: square"/>
   </g>
   <g id="line2d_63">
    <path d="M 89.318826 76.893541 
L 89.318826 76.893541 
L 170.852544 76.893541 
L 170.852544 100.416562 
L 201.149865 100.416562 
L 201.149865 150.514182 
L 253.439064 150.514182 
L 253.439064 176.289842 
L 278.58935 176.289842 
L 278.58935 200.263699 
L 304.207549 200.263699 
L 304.207549 228.484317 
L 355.490736 228.484317 
L 355.490736 196.274121 
L 377.868642 196.274121 
L 377.868642 130.77045 
L 398.140942 130.77045 
L 398.140942 103.879897 
L 410.072706 103.879897 
L 410.072706 90.28294 
L 419.196996 90.28294 
L 419.196996 78.908571 
L 431.117061 78.908571 
L 431.117061 74.111943 
L 438.779125 74.111943 
L 438.779125 73.474368 
L 440.253049 73.474368 
" clip-path="url(#p7423cc5645)" style="fill: none; stroke: #006428; stroke-opacity: 0.25; stroke-linecap: square"/>
   </g>
   <g id="line2d_64">
    <path d="M 89.318826 94.758549 
L 89.318826 94.758549 
L 170.852544 94.758549 
L 170.852544 100.223046 
L 201.149865 100.223046 
L 201.149865 117.737131 
L 253.439064 117.737131 
L 253.439064 131.697551 
L 278.58935 131.697551 
L 278.58935 149.536069 
L 304.207549 149.536069 
L 304.207549 189.247152 
L 355.490736 189.247152 
L 355.490736 187.982407 
L 377.868642 187.982407 
L 377.868642 141.788524 
L 398.140942 141.788524 
L 398.140942 107.370374 
L 410.072706 107.370374 
L 410.072706 84.893128 
L 419.196996 84.893128 
L 419.196996 62.03588 
L 431.117061 62.03588 
L 431.117061 51.037241 
L 438.779125 51.037241 
L 438.779125 49.193624 
L 440.253049 49.193624 
" clip-path="url(#p7423cc5645)" style="fill: none; stroke: #006428; stroke-opacity: 0.25; stroke-linecap: square"/>
   </g>
   <g id="line2d_65">
    <path d="M 89.318826 100.868814 
L 89.318826 100.868814 
L 170.852544 100.868814 
L 170.852544 116.768874 
L 201.149865 116.768874 
L 201.149865 148.208538 
L 253.439064 148.208538 
L 253.439064 163.815952 
L 278.58935 163.815952 
L 278.58935 179.108233 
L 304.207549 179.108233 
L 304.207549 198.916046 
L 355.490736 198.916046 
L 355.490736 180.745224 
L 377.868642 180.745224 
L 377.868642 131.611968 
L 398.140942 131.611968 
L 398.140942 105.095545 
L 410.072706 105.095545 
L 410.072706 89.056922 
L 419.196996 89.056922 
L 419.196996 73.413858 
L 431.117061 73.413858 
L 431.117061 65.752549 
L 438.779125 65.752549 
L 438.779125 64.631434 
L 440.253049 64.631434 
" clip-path="url(#p7423cc5645)" style="fill: none; stroke: #006428; stroke-opacity: 0.25; stroke-linecap: square"/>
   </g>
   <g id="line2d_66">
    <path d="M 89.318826 99.708035 
L 89.318826 99.708035 
L 170.852544 99.708035 
L 170.852544 112.473493 
L 201.149865 112.473493 
L 201.149865 140.20117 
L 253.439064 140.20117 
L 253.439064 155.614529 
L 278.58935 155.614529 
L 278.58935 174.344326 
L 304.207549 174.344326 
L 304.207549 200.238407 
L 355.490736 200.238407 
L 355.490736 185.973901 
L 377.868642 185.973901 
L 377.868642 139.220353 
L 398.140942 139.220353 
L 398.140942 111.160206 
L 410.072706 111.160206 
L 410.072706 94.985554 
L 419.196996 94.985554 
L 419.196996 79.660296 
L 431.117061 79.660296 
L 431.117061 72.739831 
L 438.779125 72.739831 
L 438.779125 71.749823 
L 440.253049 71.749823 
" clip-path="url(#p7423cc5645)" style="fill: none; stroke: #006428; stroke-opacity: 0.25; stroke-linecap: square"/>
   </g>
   <g id="line2d_67">
    <path d="M 89.318826 100.594743 
L 89.318826 100.594743 
L 170.852544 100.594743 
L 170.852544 110.651692 
L 201.149865 110.651692 
L 201.149865 136.844009 
L 253.439064 136.844009 
L 253.439064 150.226764 
L 278.58935 150.226764 
L 278.58935 162.661897 
L 304.207549 162.661897 
L 304.207549 171.012566 
L 355.490736 171.012566 
L 355.490736 155.433273 
L 377.868642 155.433273 
L 377.868642 126.312607 
L 398.140942 126.312607 
L 398.140942 105.369403 
L 410.072706 105.369403 
L 410.072706 88.993623 
L 419.196996 88.993623 
L 419.196996 68.353468 
L 431.117061 68.353468 
L 431.117061 56.590513 
L 438.779125 56.590513 
L 438.779125 54.295844 
L 440.253049 54.295844 
" clip-path="url(#p7423cc5645)" style="fill: none; stroke: #006428; stroke-opacity: 0.25; stroke-linecap: square"/>
   </g>
   <g id="line2d_68">
    <path d="M 89.318826 142.330286 
L 89.318826 142.330286 
L 170.852544 142.330286 
L 170.852544 156.082409 
L 201.149865 156.082409 
L 201.149865 180.886016 
L 253.439064 180.886016 
L 253.439064 191.841857 
L 278.58935 191.841857 
L 278.58935 200.20462 
L 304.207549 200.20462 
L 304.207549 192.023341 
L 355.490736 192.023341 
L 355.490736 166.246461 
L 377.868642 166.246461 
L 377.868642 134.059477 
L 398.140942 134.059477 
L 398.140942 117.37525 
L 410.072706 117.37525 
L 410.072706 106.049474 
L 419.196996 106.049474 
L 419.196996 92.999916 
L 431.117061 92.999916 
L 431.117061 86.052515 
L 438.779125 86.052515 
L 438.779125 84.874462 
L 440.253049 84.874462 
" clip-path="url(#p7423cc5645)" style="fill: none; stroke: #006428; stroke-opacity: 0.25; stroke-linecap: square"/>
   </g>
   <g id="line2d_69">
    <path d="M 89.318826 116.436468 
L 89.318826 116.436468 
L 170.852544 116.436468 
L 170.852544 119.330314 
L 201.149865 119.330314 
L 201.149865 145.340955 
L 253.439064 145.340955 
L 253.439064 165.105217 
L 278.58935 165.105217 
L 278.58935 185.293508 
L 304.207549 185.293508 
L 304.207549 199.336969 
L 355.490736 199.336969 
L 355.490736 176.288968 
L 377.868642 176.288968 
L 377.868642 133.981229 
L 398.140942 133.981229 
L 398.140942 107.238679 
L 410.072706 107.238679 
L 410.072706 88.984089 
L 419.196996 88.984089 
L 419.196996 67.576729 
L 431.117061 67.576729 
L 431.117061 55.811112 
L 438.779125 55.811112 
L 438.779125 53.79861 
L 440.253049 53.79861 
" clip-path="url(#p7423cc5645)" style="fill: none; stroke: #006428; stroke-opacity: 0.25; stroke-linecap: square"/>
   </g>
   <g id="line2d_70">
    <path d="M 89.318826 101.276843 
L 89.318826 101.276843 
L 170.852544 101.276843 
L 170.852544 118.44101 
L 201.149865 118.44101 
L 201.149865 154.101522 
L 253.439064 154.101522 
L 253.439064 172.004912 
L 278.58935 172.004912 
L 278.58935 187.488608 
L 304.207549 187.488608 
L 304.207549 182.555728 
L 355.490736 182.555728 
L 355.490736 148.193705 
L 377.868642 148.193705 
L 377.868642 112.427635 
L 398.140942 112.427635 
L 398.140942 95.998502 
L 410.072706 95.998502 
L 410.072706 85.923027 
L 419.196996 85.923027 
L 419.196996 76.525284 
L 431.117061 76.525284 
L 431.117061 71.920164 
L 438.779125 71.920164 
L 438.779125 71.080056 
L 440.253049 71.080056 
" clip-path="url(#p7423cc5645)" style="fill: none; stroke: #006428; stroke-opacity: 0.25; stroke-linecap: square"/>
   </g>
   <g id="line2d_71">
    <path d="M 89.318826 101.142353 
L 89.318826 101.142353 
L 170.852544 101.142353 
L 170.852544 108.385618 
L 201.149865 108.385618 
L 201.149865 127.456073 
L 253.439064 127.456073 
L 253.439064 139.817399 
L 278.58935 139.817399 
L 278.58935 153.885563 
L 304.207549 153.885563 
L 304.207549 176.967436 
L 355.490736 176.967436 
L 355.490736 165.298524 
L 377.868642 165.298524 
L 377.868642 131.545694 
L 398.140942 131.545694 
L 398.140942 110.731565 
L 410.072706 110.731565 
L 410.072706 97.087208 
L 419.196996 97.087208 
L 419.196996 83.026407 
L 431.117061 83.026407 
L 431.117061 75.428663 
L 438.779125 75.428663 
L 438.779125 74.24323 
L 440.253049 74.24323 
" clip-path="url(#p7423cc5645)" style="fill: none; stroke: #006428; stroke-opacity: 0.25; stroke-linecap: square"/>
   </g>
   <g id="line2d_72">
    <path d="M 89.318826 95.956747 
L 89.318826 95.956747 
L 170.852544 95.956747 
L 170.852544 102.588148 
L 201.149865 102.588148 
L 201.149865 124.262038 
L 253.439064 124.262038 
L 253.439064 140.039908 
L 278.58935 140.039908 
L 278.58935 158.218843 
L 304.207549 158.218843 
L 304.207549 184.450404 
L 355.490736 184.450404 
L 355.490736 164.442505 
L 377.868642 164.442505 
L 377.868642 124.468864 
L 398.140942 124.468864 
L 398.140942 101.694058 
L 410.072706 101.694058 
L 410.072706 86.192713 
L 419.196996 86.192713 
L 419.196996 69.754357 
L 431.117061 69.754357 
L 431.117061 61.536126 
L 438.779125 61.536126 
L 438.779125 60.093977 
L 440.253049 60.093977 
" clip-path="url(#p7423cc5645)" style="fill: none; stroke: #006428; stroke-opacity: 0.25; stroke-linecap: square"/>
   </g>
   <g id="line2d_73">
    <path d="M 89.318826 132.775492 
L 89.318826 132.775492 
L 170.852544 132.775492 
L 170.852544 136.498116 
L 201.149865 136.498116 
L 201.149865 146.358223 
L 253.439064 146.358223 
L 253.439064 152.515637 
L 278.58935 152.515637 
L 278.58935 157.951165 
L 304.207549 157.951165 
L 304.207549 155.389561 
L 355.490736 155.389561 
L 355.490736 143.786082 
L 377.868642 143.786082 
L 377.868642 124.395855 
L 398.140942 124.395855 
L 398.140942 110.302662 
L 410.072706 110.302662 
L 410.072706 97.96184 
L 419.196996 97.96184 
L 419.196996 80.612725 
L 431.117061 80.612725 
L 431.117061 69.29469 
L 438.779125 69.29469 
L 438.779125 67.082612 
L 440.253049 67.082612 
" clip-path="url(#p7423cc5645)" style="fill: none; stroke: #006428; stroke-opacity: 0.25; stroke-linecap: square"/>
   </g>
   <g id="line2d_74">
    <path d="M 89.318826 105.62192 
L 89.318826 105.62192 
L 170.852544 105.62192 
L 170.852544 111.531173 
L 201.149865 111.531173 
L 201.149865 128.532082 
L 253.439064 128.532082 
L 253.439064 140.681699 
L 278.58935 140.681699 
L 278.58935 154.00549 
L 304.207549 154.00549 
L 304.207549 162.68319 
L 355.490736 162.68319 
L 355.490736 143.717111 
L 377.868642 143.717111 
L 377.868642 118.306777 
L 398.140942 118.306777 
L 398.140942 103.452519 
L 410.072706 103.452519 
L 410.072706 92.116642 
L 419.196996 92.116642 
L 419.196996 78.193952 
L 431.117061 78.193952 
L 431.117061 69.776958 
L 438.779125 69.776958 
L 438.779125 68.168934 
L 440.253049 68.168934 
" clip-path="url(#p7423cc5645)" style="fill: none; stroke: #006428; stroke-opacity: 0.25; stroke-linecap: square"/>
   </g>
   <g id="line2d_75">
    <path d="M 89.318826 82.394035 
L 89.318826 82.394035 
L 170.852544 82.394035 
L 170.852544 102.535459 
L 201.149865 102.535459 
L 201.149865 136.526354 
L 253.439064 136.526354 
L 253.439064 152.77711 
L 278.58935 152.77711 
L 278.58935 166.992245 
L 304.207549 166.992245 
L 304.207549 178.500151 
L 355.490736 178.500151 
L 355.490736 161.085956 
L 377.868642 161.085956 
L 377.868642 128.900049 
L 398.140942 128.900049 
L 398.140942 105.255941 
L 410.072706 105.255941 
L 410.072706 85.828584 
L 419.196996 85.828584 
L 419.196996 58.737213 
L 431.117061 58.737213 
L 431.117061 41.432037 
L 438.779125 41.432037 
L 438.779125 37.716366 
L 440.253049 37.716366 
" clip-path="url(#p7423cc5645)" style="fill: none; stroke: #006428; stroke-opacity: 0.25; stroke-linecap: square"/>
   </g>
   <g id="line2d_76">
    <path d="M 89.318826 108.345537 
L 89.318826 108.345537 
L 170.852544 108.345537 
L 170.852544 128.546533 
L 201.149865 128.546533 
L 201.149865 159.743055 
L 253.439064 159.743055 
L 253.439064 170.298456 
L 278.58935 170.298456 
L 278.58935 175.950715 
L 304.207549 175.950715 
L 304.207549 159.879662 
L 355.490736 159.879662 
L 355.490736 136.482212 
L 377.868642 136.482212 
L 377.868642 108.054735 
L 398.140942 108.054735 
L 398.140942 89.227587 
L 410.072706 89.227587 
L 410.072706 74.274216 
L 419.196996 74.274216 
L 419.196996 54.744671 
L 431.117061 54.744671 
L 431.117061 42.605742 
L 438.779125 42.605742 
L 438.779125 40.316124 
L 440.253049 40.316124 
" clip-path="url(#p7423cc5645)" style="fill: none; stroke: #006428; stroke-opacity: 0.25; stroke-linecap: square"/>
   </g>
   <g id="line2d_77">
    <path d="M 89.318826 104.128136 
L 89.318826 104.128136 
L 170.852544 104.128136 
L 170.852544 110.598712 
L 201.149865 110.598712 
L 201.149865 132.900742 
L 253.439064 132.900742 
L 253.439064 148.336982 
L 278.58935 148.336982 
L 278.58935 165.121529 
L 304.207549 165.121529 
L 304.207549 183.083124 
L 355.490736 183.083124 
L 355.490736 165.568926 
L 377.868642 165.568926 
L 377.868642 135.171516 
L 398.140942 135.171516 
L 398.140942 118.930793 
L 410.072706 118.930793 
L 410.072706 109.431589 
L 419.196996 109.431589 
L 419.196996 99.972606 
L 431.117061 99.972606 
L 431.117061 96.027887 
L 438.779125 96.027887 
L 438.779125 95.40119 
L 440.253049 95.40119 
" clip-path="url(#p7423cc5645)" style="fill: none; stroke: #006428; stroke-opacity: 0.25; stroke-linecap: square"/>
   </g>
   <g id="line2d_78">
    <path d="M 89.318826 125.022206 
L 89.318826 125.022206 
L 170.852544 125.022206 
L 170.852544 135.420679 
L 201.149865 135.420679 
L 201.149865 156.621097 
L 253.439064 156.621097 
L 253.439064 169.97683 
L 278.58935 169.97683 
L 278.58935 185.084243 
L 304.207549 185.084243 
L 304.207549 211.043728 
L 355.490736 211.043728 
L 355.490736 198.641842 
L 377.868642 198.641842 
L 377.868642 144.254512 
L 398.140942 144.254512 
L 398.140942 111.461897 
L 410.072706 111.461897 
L 410.072706 91.694951 
L 419.196996 91.694951 
L 419.196996 74.60268 
L 431.117061 74.60268 
L 431.117061 66.949213 
L 438.779125 66.949213 
L 438.779125 65.714854 
L 440.253049 65.714854 
" clip-path="url(#p7423cc5645)" style="fill: none; stroke: #006428; stroke-opacity: 0.25; stroke-linecap: square"/>
   </g>
   <g id="line2d_79">
    <path d="M 89.318826 154.931248 
L 89.318826 154.931248 
L 170.852544 154.931248 
L 170.852544 165.128299 
L 201.149865 165.128299 
L 201.149865 183.150544 
L 253.439064 183.150544 
L 253.439064 192.999685 
L 278.58935 192.999685 
L 278.58935 201.14356 
L 304.207549 201.14356 
L 304.207549 190.152039 
L 355.490736 190.152039 
L 355.490736 160.795254 
L 377.868642 160.795254 
L 377.868642 121.36864 
L 398.140942 121.36864 
L 398.140942 98.228354 
L 410.072706 98.228354 
L 410.072706 81.911459 
L 419.196996 81.911459 
L 419.196996 63.886119 
L 431.117061 63.886119 
L 431.117061 53.563456 
L 438.779125 53.563456 
L 438.779125 51.849492 
L 440.253049 51.849492 
" clip-path="url(#p7423cc5645)" style="fill: none; stroke: #006428; stroke-opacity: 0.25; stroke-linecap: square"/>
   </g>
   <g id="line2d_80">
    <path d="M 89.318826 55.957266 
L 89.318826 55.957266 
L 170.852544 55.957266 
L 170.852544 84.675511 
L 201.149865 84.675511 
L 201.149865 145.345118 
L 253.439064 145.345118 
L 253.439064 176.338073 
L 278.58935 176.338073 
L 278.58935 202.502988 
L 304.207549 202.502988 
L 304.207549 217.131484 
L 355.490736 217.131484 
L 355.490736 186.981922 
L 377.868642 186.981922 
L 377.868642 133.933384 
L 398.140942 133.933384 
L 398.140942 102.782227 
L 410.072706 102.782227 
L 410.072706 83.819505 
L 419.196996 83.819505 
L 419.196996 64.121643 
L 431.117061 64.121643 
L 431.117061 54.855333 
L 438.779125 54.855333 
L 438.779125 53.430518 
L 440.253049 53.430518 
" clip-path="url(#p7423cc5645)" style="fill: none; stroke: #006428; stroke-opacity: 0.25; stroke-linecap: square"/>
   </g>
   <g id="line2d_81">
    <path d="M 89.318826 113.946125 
L 89.318826 113.946125 
L 170.852544 113.946125 
L 170.852544 132.51439 
L 201.149865 132.51439 
L 201.149865 161.840662 
L 253.439064 161.840662 
L 253.439064 173.407292 
L 278.58935 173.407292 
L 278.58935 181.688359 
L 304.207549 181.688359 
L 304.207549 181.006976 
L 355.490736 181.006976 
L 355.490736 163.419343 
L 377.868642 163.419343 
L 377.868642 137.836149 
L 398.140942 137.836149 
L 398.140942 121.195695 
L 410.072706 121.195695 
L 410.072706 109.353386 
L 419.196996 109.353386 
L 419.196996 95.013989 
L 431.117061 95.013989 
L 431.117061 86.932366 
L 438.779125 86.932366 
L 438.779125 85.527567 
L 440.253049 85.527567 
" clip-path="url(#p7423cc5645)" style="fill: none; stroke: #006428; stroke-opacity: 0.25; stroke-linecap: square"/>
   </g>
   <g id="line2d_82">
    <path d="M 89.318826 119.414849 
L 89.318826 119.414849 
L 170.852544 119.414849 
L 170.852544 130.790787 
L 201.149865 130.790787 
L 201.149865 152.631833 
L 253.439064 152.631833 
L 253.439064 163.433778 
L 278.58935 163.433778 
L 278.58935 173.060789 
L 304.207549 173.060789 
L 304.207549 178.311234 
L 355.490736 178.311234 
L 355.490736 161.709282 
L 377.868642 161.709282 
L 377.868642 134.067481 
L 398.140942 134.067481 
L 398.140942 117.121495 
L 410.072706 117.121495 
L 410.072706 105.012042 
L 419.196996 105.012042 
L 419.196996 91.228346 
L 431.117061 91.228346 
L 431.117061 83.913429 
L 438.779125 83.913429 
L 438.779125 82.572443 
L 440.253049 82.572443 
" clip-path="url(#p7423cc5645)" style="fill: none; stroke: #006428; stroke-opacity: 0.25; stroke-linecap: square"/>
   </g>
   <g id="line2d_83">
    <path d="M 89.318826 103.900822 
L 89.318826 103.900822 
L 170.852544 103.900822 
L 170.852544 117.653009 
L 201.149865 117.653009 
L 201.149865 150.050161 
L 253.439064 150.050161 
L 253.439064 168.079109 
L 278.58935 168.079109 
L 278.58935 186.272381 
L 304.207549 186.272381 
L 304.207549 201.404795 
L 355.490736 201.404795 
L 355.490736 177.269406 
L 377.868642 177.269406 
L 377.868642 134.759292 
L 398.140942 134.759292 
L 398.140942 114.276291 
L 410.072706 114.276291 
L 410.072706 102.146036 
L 419.196996 102.146036 
L 419.196996 90.351596 
L 431.117061 90.351596 
L 431.117061 84.876007 
L 438.779125 84.876007 
L 438.779125 84.084184 
L 440.253049 84.084184 
" clip-path="url(#p7423cc5645)" style="fill: none; stroke: #006428; stroke-opacity: 0.25; stroke-linecap: square"/>
   </g>
   <g id="line2d_84">
    <path d="M 89.318826 107.63171 
L 89.318826 107.63171 
L 170.852544 107.63171 
L 170.852544 126.540345 
L 201.149865 126.540345 
L 201.149865 163.138762 
L 253.439064 163.138762 
L 253.439064 177.068062 
L 278.58935 177.068062 
L 278.58935 188.400358 
L 304.207549 188.400358 
L 304.207549 182.53685 
L 355.490736 182.53685 
L 355.490736 154.629285 
L 377.868642 154.629285 
L 377.868642 118.76606 
L 398.140942 118.76606 
L 398.140942 99.027412 
L 410.072706 99.027412 
L 410.072706 86.505278 
L 419.196996 86.505278 
L 419.196996 72.748526 
L 431.117061 72.748526 
L 431.117061 65.705667 
L 438.779125 65.705667 
L 438.779125 64.474247 
L 440.253049 64.474247 
" clip-path="url(#p7423cc5645)" style="fill: none; stroke: #006428; stroke-opacity: 0.25; stroke-linecap: square"/>
   </g>
   <g id="line2d_85">
    <path d="M 89.318826 96.448501 
L 89.318826 96.448501 
L 170.852544 96.448501 
L 170.852544 108.51785 
L 201.149865 108.51785 
L 201.149865 136.056716 
L 253.439064 136.056716 
L 253.439064 150.76986 
L 278.58935 150.76986 
L 278.58935 166.133252 
L 304.207549 166.133252 
L 304.207549 181.835541 
L 355.490736 181.835541 
L 355.490736 161.003954 
L 377.868642 161.003954 
L 377.868642 125.131676 
L 398.140942 125.131676 
L 398.140942 105.827731 
L 410.072706 105.827731 
L 410.072706 93.407514 
L 419.196996 93.407514 
L 419.196996 80.207719 
L 431.117061 80.207719 
L 431.117061 73.729912 
L 438.779125 73.729912 
L 438.779125 72.822069 
L 440.253049 72.822069 
" clip-path="url(#p7423cc5645)" style="fill: none; stroke: #006428; stroke-opacity: 0.25; stroke-linecap: square"/>
   </g>
   <g id="line2d_86">
    <path d="M 89.318826 97.663333 
L 89.318826 97.663333 
L 170.852544 97.663333 
L 170.852544 110.815307 
L 201.149865 110.815307 
L 201.149865 144.833992 
L 253.439064 144.833992 
L 253.439064 164.073363 
L 278.58935 164.073363 
L 278.58935 181.051688 
L 304.207549 181.051688 
L 304.207549 175.286225 
L 355.490736 175.286225 
L 355.490736 146.723746 
L 377.868642 146.723746 
L 377.868642 115.881784 
L 398.140942 115.881784 
L 398.140942 99.995211 
L 410.072706 99.995211 
L 410.072706 89.759559 
L 419.196996 89.759559 
L 419.196996 78.255801 
L 431.117061 78.255801 
L 431.117061 72.401829 
L 438.779125 72.401829 
L 438.779125 71.401866 
L 440.253049 71.401866 
" clip-path="url(#p7423cc5645)" style="fill: none; stroke: #006428; stroke-opacity: 0.25; stroke-linecap: square"/>
   </g>
   <g id="line2d_87">
    <path d="M 89.318826 72.391587 
L 89.318826 72.391587 
L 170.852544 72.391587 
L 170.852544 80.055521 
L 201.149865 80.055521 
L 201.149865 105.172501 
L 253.439064 105.172501 
L 253.439064 124.061497 
L 278.58935 124.061497 
L 278.58935 146.757532 
L 304.207549 146.757532 
L 304.207549 192.050032 
L 355.490736 192.050032 
L 355.490736 186.204883 
L 377.868642 186.204883 
L 377.868642 132.774923 
L 398.140942 132.774923 
L 398.140942 99.883481 
L 410.072706 99.883481 
L 410.072706 79.327212 
L 419.196996 79.327212 
L 419.196996 59.21113 
L 431.117061 59.21113 
L 431.117061 49.614791 
L 438.779125 49.614791 
L 438.779125 47.893212 
L 440.253049 47.893212 
" clip-path="url(#p7423cc5645)" style="fill: none; stroke: #006428; stroke-opacity: 0.25; stroke-linecap: square"/>
   </g>
   <g id="line2d_88">
    <path d="M 89.318826 104.494382 
L 89.318826 104.494382 
L 170.852544 104.494382 
L 170.852544 114.365363 
L 201.149865 114.365363 
L 201.149865 145.616001 
L 253.439064 145.616001 
L 253.439064 169.222513 
L 278.58935 169.222513 
L 278.58935 198.036618 
L 304.207549 198.036618 
L 304.207549 244.635185 
L 355.490736 244.635185 
L 355.490736 204.879381 
L 377.868642 204.879381 
L 377.868642 137.33434 
L 398.140942 137.33434 
L 398.140942 108.511973 
L 410.072706 108.511973 
L 410.072706 93.430546 
L 419.196996 93.430546 
L 419.196996 80.494456 
L 431.117061 80.494456 
L 431.117061 75.098296 
L 438.779125 75.098296 
L 438.779125 74.365131 
L 440.253049 74.365131 
" clip-path="url(#p7423cc5645)" style="fill: none; stroke: #006428; stroke-opacity: 0.25; stroke-linecap: square"/>
   </g>
   <g id="line2d_89">
    <path d="M 89.318826 116.699251 
L 89.318826 116.699251 
L 170.852544 116.699251 
L 170.852544 123.376821 
L 201.149865 123.376821 
L 201.149865 139.805572 
L 253.439064 139.805572 
L 253.439064 150.000188 
L 278.58935 150.000188 
L 278.58935 161.912084 
L 304.207549 161.912084 
L 304.207549 170.061222 
L 355.490736 170.061222 
L 355.490736 147.473099 
L 377.868642 147.473099 
L 377.868642 118.121922 
L 398.140942 118.121922 
L 398.140942 101.733188 
L 410.072706 101.733188 
L 410.072706 89.485516 
L 419.196996 89.485516 
L 419.196996 74.63202 
L 431.117061 74.63202 
L 431.117061 66.16509 
L 438.779125 66.16509 
L 438.779125 64.499977 
L 440.253049 64.499977 
" clip-path="url(#p7423cc5645)" style="fill: none; stroke: #006428; stroke-opacity: 0.25; stroke-linecap: square"/>
   </g>
   <g id="line2d_90">
    <path d="M 89.318826 134.694007 
L 89.318826 134.694007 
L 170.852544 134.694007 
L 170.852544 133.370291 
L 201.149865 133.370291 
L 201.149865 147.634394 
L 253.439064 147.634394 
L 253.439064 164.971051 
L 278.58935 164.971051 
L 278.58935 183.465185 
L 304.207549 183.465185 
L 304.207549 188.507725 
L 355.490736 188.507725 
L 355.490736 160.725466 
L 377.868642 160.725466 
L 377.868642 114.923863 
L 398.140942 114.923863 
L 398.140942 86.711093 
L 410.072706 86.711093 
L 410.072706 66.319376 
L 419.196996 66.319376 
L 419.196996 43.073624 
L 431.117061 43.073624 
L 431.117061 31.288913 
L 438.779125 31.288913 
L 438.779125 29.195776 
L 440.253049 29.195776 
" clip-path="url(#p7423cc5645)" style="fill: none; stroke: #006428; stroke-opacity: 0.25; stroke-linecap: square"/>
   </g>
   <g id="line2d_91">
    <path d="M 89.318826 136.687713 
L 89.318826 136.687713 
L 170.852544 136.687713 
L 170.852544 141.165448 
L 201.149865 141.165448 
L 201.149865 151.745689 
L 253.439064 151.745689 
L 253.439064 158.138707 
L 278.58935 158.138707 
L 278.58935 166.245409 
L 304.207549 166.245409 
L 304.207549 172.640346 
L 355.490736 172.640346 
L 355.490736 149.722791 
L 377.868642 149.722791 
L 377.868642 121.024509 
L 398.140942 121.024509 
L 398.140942 105.525961 
L 410.072706 105.525961 
L 410.072706 95.129612 
L 419.196996 95.129612 
L 419.196996 83.50169 
L 431.117061 83.50169 
L 431.117061 76.944908 
L 438.779125 76.944908 
L 438.779125 75.707417 
L 440.253049 75.707417 
" clip-path="url(#p7423cc5645)" style="fill: none; stroke: #006428; stroke-opacity: 0.25; stroke-linecap: square"/>
   </g>
   <g id="line2d_92">
    <path d="M 89.318826 109.302371 
L 89.318826 109.302371 
L 170.852544 109.302371 
L 170.852544 121.601869 
L 201.149865 121.601869 
L 201.149865 146.625007 
L 253.439064 146.625007 
L 253.439064 159.299534 
L 278.58935 159.299534 
L 278.58935 170.403505 
L 304.207549 170.403505 
L 304.207549 177.607274 
L 355.490736 177.607274 
L 355.490736 160.544508 
L 377.868642 160.544508 
L 377.868642 128.579007 
L 398.140942 128.579007 
L 398.140942 105.108874 
L 410.072706 105.108874 
L 410.072706 85.836997 
L 419.196996 85.836997 
L 419.196996 59.166217 
L 431.117061 59.166217 
L 431.117061 41.406066 
L 438.779125 41.406066 
L 438.779125 38.012037 
L 440.253049 38.012037 
" clip-path="url(#p7423cc5645)" style="fill: none; stroke: #006428; stroke-opacity: 0.25; stroke-linecap: square"/>
   </g>
   <g id="line2d_93">
    <path d="M 89.318826 100.365271 
L 89.318826 100.365271 
L 170.852544 100.365271 
L 170.852544 105.207499 
L 201.149865 105.207499 
L 201.149865 119.79932 
L 253.439064 119.79932 
L 253.439064 135.966084 
L 278.58935 135.966084 
L 278.58935 157.440784 
L 304.207549 157.440784 
L 304.207549 194.960753 
L 355.490736 194.960753 
L 355.490736 176.673258 
L 377.868642 176.673258 
L 377.868642 133.631568 
L 398.140942 133.631568 
L 398.140942 109.620129 
L 410.072706 109.620129 
L 410.072706 95.154395 
L 419.196996 95.154395 
L 419.196996 81.59154 
L 431.117061 81.59154 
L 431.117061 75.221338 
L 438.779125 75.221338 
L 438.779125 74.254462 
L 440.253049 74.254462 
" clip-path="url(#p7423cc5645)" style="fill: none; stroke: #006428; stroke-opacity: 0.25; stroke-linecap: square"/>
   </g>
   <g id="line2d_94">
    <path d="M 89.318826 96.135633 
L 89.318826 96.135633 
L 170.852544 96.135633 
L 170.852544 103.595473 
L 201.149865 103.595473 
L 201.149865 124.240375 
L 253.439064 124.240375 
L 253.439064 138.748006 
L 278.58935 138.748006 
L 278.58935 156.052859 
L 304.207549 156.052859 
L 304.207549 185.04704 
L 355.490736 185.04704 
L 355.490736 171.429139 
L 377.868642 171.429139 
L 377.868642 133.603948 
L 398.140942 133.603948 
L 398.140942 108.906742 
L 410.072706 108.906742 
L 410.072706 91.673084 
L 419.196996 91.673084 
L 419.196996 71.902233 
L 431.117061 71.902233 
L 431.117061 61.02234 
L 438.779125 61.02234 
L 438.779125 59.078928 
L 440.253049 59.078928 
" clip-path="url(#p7423cc5645)" style="fill: none; stroke: #006428; stroke-opacity: 0.25; stroke-linecap: square"/>
   </g>
   <g id="line2d_95">
    <path d="M 89.318826 98.217534 
L 89.318826 98.217534 
L 170.852544 98.217534 
L 170.852544 108.467443 
L 201.149865 108.467443 
L 201.149865 135.092506 
L 253.439064 135.092506 
L 253.439064 150.066459 
L 278.58935 150.066459 
L 278.58935 164.576845 
L 304.207549 164.576845 
L 304.207549 174.646708 
L 355.490736 174.646708 
L 355.490736 157.223409 
L 377.868642 157.223409 
L 377.868642 127.168547 
L 398.140942 127.168547 
L 398.140942 107.413859 
L 410.072706 107.413859 
L 410.072706 92.299152 
L 419.196996 92.299152 
L 419.196996 73.366278 
L 431.117061 73.366278 
L 431.117061 62.545514 
L 438.779125 62.545514 
L 438.779125 60.592094 
L 440.253049 60.592094 
" clip-path="url(#p7423cc5645)" style="fill: none; stroke: #006428; stroke-opacity: 0.25; stroke-linecap: square"/>
   </g>
   <g id="line2d_96">
    <path d="M 89.318826 52.071863 
L 89.318826 52.071863 
L 170.852544 52.071863 
L 170.852544 80.046332 
L 201.149865 80.046332 
L 201.149865 136.928485 
L 253.439064 136.928485 
L 253.439064 166.645648 
L 278.58935 166.645648 
L 278.58935 197.279239 
L 304.207549 197.279239 
L 304.207549 231.430804 
L 355.490736 231.430804 
L 355.490736 194.248494 
L 377.868642 194.248494 
L 377.868642 131.155985 
L 398.140942 131.155985 
L 398.140942 104.10937 
L 410.072706 104.10937 
L 410.072706 89.149431 
L 419.196996 89.149431 
L 419.196996 76.620525 
L 431.117061 76.620525 
L 431.117061 71.477773 
L 438.779125 71.477773 
L 438.779125 70.678135 
L 440.253049 70.678135 
" clip-path="url(#p7423cc5645)" style="fill: none; stroke: #006428; stroke-opacity: 0.25; stroke-linecap: square"/>
   </g>
   <g id="line2d_97">
    <path d="M 89.318826 133.364921 
L 89.318826 133.364921 
L 170.852544 133.364921 
L 170.852544 136.066624 
L 201.149865 136.066624 
L 201.149865 147.74325 
L 253.439064 147.74325 
L 253.439064 157.854933 
L 278.58935 157.854933 
L 278.58935 170.142878 
L 304.207549 170.142878 
L 304.207549 179.322293 
L 355.490736 179.322293 
L 355.490736 157.671875 
L 377.868642 157.671875 
L 377.868642 121.543727 
L 398.140942 121.543727 
L 398.140942 101.526015 
L 410.072706 101.526015 
L 410.072706 88.16751 
L 419.196996 88.16751 
L 419.196996 73.972984 
L 431.117061 73.972984 
L 431.117061 66.423007 
L 438.779125 66.423007 
L 438.779125 65.075465 
L 440.253049 65.075465 
" clip-path="url(#p7423cc5645)" style="fill: none; stroke: #006428; stroke-opacity: 0.25; stroke-linecap: square"/>
   </g>
   <g id="line2d_98">
    <path d="M 89.318826 102.39034 
L 89.318826 102.39034 
L 170.852544 102.39034 
L 170.852544 111.191641 
L 201.149865 111.191641 
L 201.149865 134.474795 
L 253.439064 134.474795 
L 253.439064 150.154883 
L 278.58935 150.154883 
L 278.58935 167.195514 
L 304.207549 167.195514 
L 304.207549 189.552099 
L 355.490736 189.552099 
L 355.490736 169.561572 
L 377.868642 169.561572 
L 377.868642 126.619971 
L 398.140942 126.619971 
L 398.140942 104.248041 
L 410.072706 104.248041 
L 410.072706 90.825622 
L 419.196996 90.825622 
L 419.196996 77.837743 
L 431.117061 77.837743 
L 431.117061 71.281891 
L 438.779125 71.281891 
L 438.779125 70.238439 
L 440.253049 70.238439 
" clip-path="url(#p7423cc5645)" style="fill: none; stroke: #006428; stroke-opacity: 0.25; stroke-linecap: square"/>
   </g>
   <g id="line2d_99">
    <path d="M 89.318826 103.720741 
L 89.318826 103.720741 
L 170.852544 103.720741 
L 170.852544 109.538516 
L 201.149865 109.538516 
L 201.149865 127.566461 
L 253.439064 127.566461 
L 253.439064 140.350056 
L 278.58935 140.350056 
L 278.58935 155.329395 
L 304.207549 155.329395 
L 304.207549 180.023493 
L 355.490736 180.023493 
L 355.490736 168.955929 
L 377.868642 168.955929 
L 377.868642 131.523001 
L 398.140942 131.523001 
L 398.140942 106.577753 
L 410.072706 106.577753 
L 410.072706 89.959522 
L 419.196996 89.959522 
L 419.196996 72.56971 
L 431.117061 72.56971 
L 431.117061 64.335093 
L 438.779125 64.335093 
L 438.779125 62.917782 
L 440.253049 62.917782 
" clip-path="url(#p7423cc5645)" style="fill: none; stroke: #006428; stroke-opacity: 0.25; stroke-linecap: square"/>
   </g>
   <g id="line2d_100">
    <path d="M 89.318826 102.270571 
L 89.318826 102.270571 
L 170.852544 102.270571 
L 170.852544 110.324498 
L 201.149865 110.324498 
L 201.149865 134.868655 
L 253.439064 134.868655 
L 253.439064 152.511803 
L 278.58935 152.511803 
L 278.58935 174.293901 
L 304.207549 174.293901 
L 304.207549 213.727774 
L 355.490736 213.727774 
L 355.490736 196.672833 
L 377.868642 196.672833 
L 377.868642 130.45263 
L 398.140942 130.45263 
L 398.140942 97.614761 
L 410.072706 97.614761 
L 410.072706 79.918573 
L 419.196996 79.918573 
L 419.196996 64.097691 
L 431.117061 64.097691 
L 431.117061 57.564638 
L 438.779125 57.564638 
L 438.779125 56.550489 
L 440.253049 56.550489 
" clip-path="url(#p7423cc5645)" style="fill: none; stroke: #006428; stroke-opacity: 0.25; stroke-linecap: square"/>
   </g>
   <g id="line2d_101">
    <path d="M 89.318826 107.085589 
L 89.318826 107.085589 
L 170.852544 107.085589 
L 170.852544 115.488543 
L 201.149865 115.488543 
L 201.149865 136.955146 
L 253.439064 136.955146 
L 253.439064 149.488514 
L 278.58935 149.488514 
L 278.58935 162.258041 
L 304.207549 162.258041 
L 304.207549 175.201876 
L 355.490736 175.201876 
L 355.490736 160.289691 
L 377.868642 160.289691 
L 377.868642 128.034518 
L 398.140942 128.034518 
L 398.140942 106.672227 
L 410.072706 106.672227 
L 410.072706 91.166025 
L 419.196996 91.166025 
L 419.196996 73.162395 
L 431.117061 73.162395 
L 431.117061 62.890565 
L 438.779125 62.890565 
L 438.779125 61.104261 
L 440.253049 61.104261 
" clip-path="url(#p7423cc5645)" style="fill: none; stroke: #006428; stroke-opacity: 0.25; stroke-linecap: square"/>
   </g>
   <g id="line2d_102">
    <path d="M 89.318826 102.095354 
L 89.318826 102.095354 
L 170.852544 102.095354 
L 170.852544 111.050291 
L 201.149865 111.050291 
L 201.149865 133.801095 
L 253.439064 133.801095 
L 253.439064 148.955151 
L 278.58935 148.955151 
L 278.58935 167.022301 
L 304.207549 167.022301 
L 304.207549 184.799535 
L 355.490736 184.799535 
L 355.490736 156.212506 
L 377.868642 156.212506 
L 377.868642 122.31283 
L 398.140942 122.31283 
L 398.140942 106.954476 
L 410.072706 106.954476 
L 410.072706 97.92598 
L 419.196996 97.92598 
L 419.196996 89.353516 
L 431.117061 89.353516 
L 431.117061 85.497882 
L 438.779125 85.497882 
L 438.779125 84.795521 
L 440.253049 84.795521 
" clip-path="url(#p7423cc5645)" style="fill: none; stroke: #006428; stroke-opacity: 0.25; stroke-linecap: square"/>
   </g>
   <g id="line2d_103">
    <path d="M 89.318826 110.04305 
L 89.318826 110.04305 
L 170.852544 110.04305 
L 170.852544 119.976454 
L 201.149865 119.976454 
L 201.149865 142.397299 
L 253.439064 142.397299 
L 253.439064 155.062654 
L 278.58935 155.062654 
L 278.58935 168.443524 
L 304.207549 168.443524 
L 304.207549 182.799039 
L 355.490736 182.799039 
L 355.490736 168.027009 
L 377.868642 168.027009 
L 377.868642 129.168053 
L 398.140942 129.168053 
L 398.140942 106.220319 
L 410.072706 106.220319 
L 410.072706 91.830861 
L 419.196996 91.830861 
L 419.196996 77.841329 
L 431.117061 77.841329 
L 431.117061 71.169479 
L 438.779125 71.169479 
L 438.779125 70.124337 
L 440.253049 70.124337 
" clip-path="url(#p7423cc5645)" style="fill: none; stroke: #006428; stroke-opacity: 0.25; stroke-linecap: square"/>
   </g>
   <g id="line2d_104">
    <path d="M 89.318826 141.325502 
L 89.318826 141.325502 
L 170.852544 141.325502 
L 170.852544 147.56042 
L 201.149865 147.56042 
L 201.149865 171.445972 
L 253.439064 171.445972 
L 253.439064 185.075907 
L 278.58935 185.075907 
L 278.58935 199.145998 
L 304.207549 199.145998 
L 304.207549 208.211954 
L 355.490736 208.211954 
L 355.490736 185.381957 
L 377.868642 185.381957 
L 377.868642 129.747299 
L 398.140942 129.747299 
L 398.140942 96.684759 
L 410.072706 96.684759 
L 410.072706 75.156278 
L 419.196996 75.156278 
L 419.196996 51.320473 
L 431.117061 51.320473 
L 431.117061 39.499503 
L 438.779125 39.499503 
L 438.779125 37.471184 
L 440.253049 37.471184 
" clip-path="url(#p7423cc5645)" style="fill: none; stroke: #006428; stroke-opacity: 0.25; stroke-linecap: square"/>
   </g>
   <g id="line2d_105">
    <path d="M 89.318826 117.02144 
L 89.318826 117.02144 
L 170.852544 117.02144 
L 170.852544 125.299323 
L 201.149865 125.299323 
L 201.149865 148.258925 
L 253.439064 148.258925 
L 253.439064 164.930125 
L 278.58935 164.930125 
L 278.58935 186.759 
L 304.207549 186.759 
L 304.207549 213.179068 
L 355.490736 213.179068 
L 355.490736 190.002623 
L 377.868642 190.002623 
L 377.868642 130.077088 
L 398.140942 130.077088 
L 398.140942 102.228528 
L 410.072706 102.228528 
L 410.072706 86.41004 
L 419.196996 86.41004 
L 419.196996 72.33878 
L 431.117061 72.33878 
L 431.117061 66.671428 
L 438.779125 66.671428 
L 438.779125 65.616396 
L 440.253049 65.616396 
" clip-path="url(#p7423cc5645)" style="fill: none; stroke: #006428; stroke-opacity: 0.25; stroke-linecap: square"/>
   </g>
   <g id="line2d_106">
    <path d="M 89.318826 109.403759 
L 89.318826 109.403759 
L 170.852544 109.403759 
L 170.852544 122.274969 
L 201.149865 122.274969 
L 201.149865 148.838957 
L 253.439064 148.838957 
L 253.439064 162.61009 
L 278.58935 162.61009 
L 278.58935 175.716439 
L 304.207549 175.716439 
L 304.207549 190.74849 
L 355.490736 190.74849 
L 355.490736 176.071386 
L 377.868642 176.071386 
L 377.868642 137.025762 
L 398.140942 137.025762 
L 398.140942 110.791168 
L 410.072706 110.791168 
L 410.072706 92.754403 
L 419.196996 92.754403 
L 419.196996 71.695215 
L 431.117061 71.695215 
L 431.117061 60.473531 
L 438.779125 60.473531 
L 438.779125 58.305328 
L 440.253049 58.305328 
" clip-path="url(#p7423cc5645)" style="fill: none; stroke: #006428; stroke-opacity: 0.25; stroke-linecap: square"/>
   </g>
   <g id="line2d_107">
    <path d="M 89.318826 95.588888 
L 89.318826 95.588888 
L 170.852544 95.588888 
L 170.852544 98.623056 
L 201.149865 98.623056 
L 201.149865 114.438306 
L 253.439064 114.438306 
L 253.439064 128.089501 
L 278.58935 128.089501 
L 278.58935 146.280213 
L 304.207549 146.280213 
L 304.207549 187.345683 
L 355.490736 187.345683 
L 355.490736 178.580537 
L 377.868642 178.580537 
L 377.868642 127.890228 
L 398.140942 127.890228 
L 398.140942 93.032065 
L 410.072706 93.032065 
L 410.072706 70.231026 
L 419.196996 70.231026 
L 419.196996 46.27934 
L 431.117061 46.27934 
L 431.117061 33.990609 
L 438.779125 33.990609 
L 438.779125 31.624509 
L 440.253049 31.624509 
" clip-path="url(#p7423cc5645)" style="fill: none; stroke: #006428; stroke-opacity: 0.25; stroke-linecap: square"/>
   </g>
   <g id="line2d_108">
    <path d="M 89.318826 113.757293 
L 89.318826 113.757293 
L 170.852544 113.757293 
L 170.852544 128.527293 
L 201.149865 128.527293 
L 201.149865 151.862098 
L 253.439064 151.862098 
L 253.439064 161.888861 
L 278.58935 161.888861 
L 278.58935 169.4269 
L 304.207549 169.4269 
L 304.207549 160.242972 
L 355.490736 160.242972 
L 355.490736 140.457581 
L 377.868642 140.457581 
L 377.868642 120.304612 
L 398.140942 120.304612 
L 398.140942 107.745846 
L 410.072706 107.745846 
L 410.072706 98.471059 
L 419.196996 98.471059 
L 419.196996 86.460429 
L 431.117061 86.460429 
L 431.117061 79.441711 
L 438.779125 79.441711 
L 438.779125 78.08325 
L 440.253049 78.08325 
" clip-path="url(#p7423cc5645)" style="fill: none; stroke: #006428; stroke-opacity: 0.25; stroke-linecap: square"/>
   </g>
   <g id="line2d_109">
    <path d="M 89.318826 103.032373 
L 89.318826 103.032373 
L 170.852544 103.032373 
L 170.852544 116.637275 
L 201.149865 116.637275 
L 201.149865 144.612308 
L 253.439064 144.612308 
L 253.439064 160.152636 
L 278.58935 160.152636 
L 278.58935 173.007677 
L 304.207549 173.007677 
L 304.207549 185.234013 
L 355.490736 185.234013 
L 355.490736 164.870515 
L 377.868642 164.870515 
L 377.868642 128.741739 
L 398.140942 128.741739 
L 398.140942 105.102209 
L 410.072706 105.102209 
L 410.072706 89.622537 
L 419.196996 89.622537 
L 419.196996 73.342212 
L 431.117061 73.342212 
L 431.117061 65.41588 
L 438.779125 65.41588 
L 438.779125 64.378899 
L 440.253049 64.378899 
" clip-path="url(#p7423cc5645)" style="fill: none; stroke: #006428; stroke-width: 4; stroke-linecap: square"/>
   </g>
   <g id="patch_3">
    <path d="M 71.772115 294.540385 
L 71.772115 3.00024 
" style="fill: none; stroke: #000000; stroke-width: 0.8; stroke-linejoin: miter; stroke-linecap: square"/>
   </g>
   <g id="patch_4">
    <path d="M 457.79976 294.540385 
L 457.79976 3.00024 
" style="fill: none; stroke: #000000; stroke-width: 0.8; stroke-linejoin: miter; stroke-linecap: square"/>
   </g>
   <g id="patch_5">
    <path d="M 71.772115 294.540385 
L 457.79976 294.540385 
" style="fill: none; stroke: #000000; stroke-width: 0.8; stroke-linejoin: miter; stroke-linecap: square"/>
   </g>
   <g id="patch_6">
    <path d="M 71.772115 3.00024 
L 457.79976 3.00024 
" style="fill: none; stroke: #000000; stroke-width: 0.8; stroke-linejoin: miter; stroke-linecap: square"/>
   </g>
  </g>
 </g>
 <defs>
  <clipPath id="p7423cc5645">
   <rect x="71.772115" y="3.00024" width="386.027645" height="291.540145"/>
  </clipPath>
 </defs>
</svg>
