<?xml version="1.0" encoding="utf-8" standalone="no"?>
<!DOCTYPE svg PUBLIC "-//W3C//DTD SVG 1.1//EN"
  "http://www.w3.org/Graphics/SVG/1.1/DTD/svg11.dtd">
<svg xmlns:xlink="http://www.w3.org/1999/xlink" width="460.8pt" height="345.6pt" viewBox="0 0 460.8 345.6" xmlns="http://www.w3.org/2000/svg" version="1.1">
 <metadata>
  <rdf:RDF xmlns:dc="http://purl.org/dc/elements/1.1/" xmlns:cc="http://creativecommons.org/ns#" xmlns:rdf="http://www.w3.org/1999/02/22-rdf-syntax-ns#">
   <cc:Work>
    <dc:type rdf:resource="http://purl.org/dc/dcmitype/StillImage"/>
    <dc:date>2025-12-29T14:13:43.530643</dc:date>
    <dc:format>image/svg+xml</dc:format>
    <dc:creator>
     <cc:Agent>
      <dc:title>Matplotlib v3.10.7, https://matplotlib.org/</dc:title>
     </cc:Agent>
    </dc:creator>
   </cc:Work>
  </rdf:RDF>
 </metadata>
 <defs>
  <style type="text/css">*{stroke-linejoin: round; stroke-linecap: butt}</style>
 </defs>
 <g id="figure_1">
  <g id="patch_1">
   <path d="M 0 345.6 
L 460.8 345.6 
L 460.8 0 
L 0 0 
z
" style="fill: #ffffff"/>
  </g>
  <g id="axes_1">
   <g id="patch_2">
    <path d="M 71.772115 294.540385 
L 457.79976 294.540385 
L 457.79976 3.00024 
L 71.772115 3.00024 
z
" style="fill: #ffffff"/>
   </g>
   <g id="FillBetweenPolyCollection_1">
    <defs>
     <path id="m62a9b99d2a" d="M 89.318826 -224.531761 
L 89.318826 -171.532609 
L 89.318826 -171.532609 
L 170.852544 -171.532609 
L 170.852544 -174.71066 
L 201.149865 -174.71066 
L 201.149865 -173.411624 
L 253.439064 -173.411624 
L 253.439064 -171.828487 
L 278.58935 -171.828487 
L 278.58935 -169.447223 
L 304.207549 -169.447223 
L 304.207549 -175.88721 
L 355.490736 -175.88721 
L 355.490736 -211.373513 
L 377.868642 -211.373513 
L 377.868642 -235.504934 
L 398.140942 -235.504934 
L 398.140942 -245.516556 
L 410.072706 -245.516556 
L 410.072706 -250.329902 
L 419.196996 -250.329902 
L 419.196996 -257.13022 
L 431.117061 -257.13022 
L 431.117061 -260.739924 
L 438.779125 -260.739924 
L 438.779125 -261.033118 
L 440.253049 -261.033118 
L 440.253049 -312.554502 
L 440.253049 -312.554502 
L 438.779125 -312.554502 
L 438.779125 -310.055684 
L 431.117061 -310.055684 
L 431.117061 -298.665638 
L 419.196996 -298.665638 
L 419.196996 -280.56914 
L 410.072706 -280.56914 
L 410.072706 -269.660026 
L 398.140942 -269.660026 
L 398.140942 -259.325347 
L 377.868642 -259.325347 
L 377.868642 -237.74231 
L 355.490736 -237.74231 
L 355.490736 -220.493489 
L 304.207549 -220.493489 
L 304.207549 -200.118684 
L 278.58935 -200.118684 
L 278.58935 -198.711869 
L 253.439064 -198.711869 
L 253.439064 -205.212988 
L 201.149865 -205.212988 
L 201.149865 -218.065925 
L 170.852544 -218.065925 
L 170.852544 -224.531761 
L 89.318826 -224.531761 
L 89.318826 -224.531761 
z
" style="stroke: #98d594; stroke-opacity: 0.25"/>
    </defs>
    <g clip-path="url(#pf27848e522)">
     <use xlink:href="#m62a9b99d2a" x="0" y="345.6" style="fill: #98d594; fill-opacity: 0.25; stroke: #98d594; stroke-opacity: 0.25"/>
    </g>
   </g>
   <g id="matplotlib.axis_1">
    <g id="xtick_1">
     <g id="line2d_1">
      <defs>
       <path id="m3e54ba1beb" d="M 0 0 
L 0 3.5 
" style="stroke: #000000; stroke-width: 0.8"/>
      </defs>
      <g>
       <use xlink:href="#m3e54ba1beb" x="440.253049" y="294.540385" style="stroke: #000000; stroke-width: 0.8"/>
      </g>
     </g>
     <g id="text_1">
      <!-- 0 -->
      <g transform="translate(434.692111 315.85601) scale(0.2 -0.2)">
       <defs>
        <path id="ArialMT-30" d="M 266 2259 
Q 266 3072 433 3567 
Q 600 4063 929 4331 
Q 1259 4600 1759 4600 
Q 2128 4600 2406 4451 
Q 2684 4303 2865 4023 
Q 3047 3744 3150 3342 
Q 3253 2941 3253 2259 
Q 3253 1453 3087 958 
Q 2922 463 2592 192 
Q 2263 -78 1759 -78 
Q 1097 -78 719 397 
Q 266 969 266 2259 
z
M 844 2259 
Q 844 1131 1108 757 
Q 1372 384 1759 384 
Q 2147 384 2411 759 
Q 2675 1134 2675 2259 
Q 2675 3391 2411 3762 
Q 2147 4134 1753 4134 
Q 1366 4134 1134 3806 
Q 844 3388 844 2259 
z
" transform="scale(0.015625)"/>
       </defs>
       <use xlink:href="#ArialMT-30"/>
      </g>
     </g>
    </g>
    <g id="xtick_2">
     <g id="line2d_2">
      <g>
       <use xlink:href="#m3e54ba1beb" x="323.274975" y="294.540385" style="stroke: #000000; stroke-width: 0.8"/>
      </g>
     </g>
     <g id="text_2">
      <!-- 10 -->
      <g transform="translate(312.1531 315.85601) scale(0.2 -0.2)">
       <defs>
        <path id="ArialMT-31" d="M 2384 0 
L 1822 0 
L 1822 3584 
Q 1619 3391 1289 3197 
Q 959 3003 697 2906 
L 697 3450 
Q 1169 3672 1522 3987 
Q 1875 4303 2022 4600 
L 2384 4600 
L 2384 0 
z
" transform="scale(0.015625)"/>
       </defs>
       <use xlink:href="#ArialMT-31"/>
       <use xlink:href="#ArialMT-30" transform="translate(55.615234 0)"/>
      </g>
     </g>
    </g>
    <g id="xtick_3">
     <g id="line2d_3">
      <g>
       <use xlink:href="#m3e54ba1beb" x="206.2969" y="294.540385" style="stroke: #000000; stroke-width: 0.8"/>
      </g>
     </g>
     <g id="text_3">
      <!-- 20 -->
      <g transform="translate(195.175025 315.85601) scale(0.2 -0.2)">
       <defs>
        <path id="ArialMT-32" d="M 3222 541 
L 3222 0 
L 194 0 
Q 188 203 259 391 
Q 375 700 629 1000 
Q 884 1300 1366 1694 
Q 2113 2306 2375 2664 
Q 2638 3022 2638 3341 
Q 2638 3675 2398 3904 
Q 2159 4134 1775 4134 
Q 1369 4134 1125 3890 
Q 881 3647 878 3216 
L 300 3275 
Q 359 3922 746 4261 
Q 1134 4600 1788 4600 
Q 2447 4600 2831 4234 
Q 3216 3869 3216 3328 
Q 3216 3053 3103 2787 
Q 2991 2522 2730 2228 
Q 2469 1934 1863 1422 
Q 1356 997 1212 845 
Q 1069 694 975 541 
L 3222 541 
z
" transform="scale(0.015625)"/>
       </defs>
       <use xlink:href="#ArialMT-32"/>
       <use xlink:href="#ArialMT-30" transform="translate(55.615234 0)"/>
      </g>
     </g>
    </g>
    <g id="xtick_4">
     <g id="line2d_4">
      <g>
       <use xlink:href="#m3e54ba1beb" x="89.318826" y="294.540385" style="stroke: #000000; stroke-width: 0.8"/>
      </g>
     </g>
     <g id="text_4">
      <!-- 30 -->
      <g transform="translate(78.196951 315.85601) scale(0.2 -0.2)">
       <defs>
        <path id="ArialMT-33" d="M 269 1209 
L 831 1284 
Q 928 806 1161 595 
Q 1394 384 1728 384 
Q 2125 384 2398 659 
Q 2672 934 2672 1341 
Q 2672 1728 2419 1979 
Q 2166 2231 1775 2231 
Q 1616 2231 1378 2169 
L 1441 2663 
Q 1497 2656 1531 2656 
Q 1891 2656 2178 2843 
Q 2466 3031 2466 3422 
Q 2466 3731 2256 3934 
Q 2047 4138 1716 4138 
Q 1388 4138 1169 3931 
Q 950 3725 888 3313 
L 325 3413 
Q 428 3978 793 4289 
Q 1159 4600 1703 4600 
Q 2078 4600 2393 4439 
Q 2709 4278 2876 4000 
Q 3044 3722 3044 3409 
Q 3044 3113 2884 2869 
Q 2725 2625 2413 2481 
Q 2819 2388 3044 2092 
Q 3269 1797 3269 1353 
Q 3269 753 2831 336 
Q 2394 -81 1725 -81 
Q 1122 -81 723 278 
Q 325 638 269 1209 
z
" transform="scale(0.015625)"/>
       </defs>
       <use xlink:href="#ArialMT-33"/>
       <use xlink:href="#ArialMT-30" transform="translate(55.615234 0)"/>
      </g>
     </g>
    </g>
    <g id="text_5">
     <!-- Time (mya) -->
     <g transform="translate(214.6125 338.390385) scale(0.2 -0.2)">
      <defs>
       <path id="ArialMT-54" d="M 1659 0 
L 1659 4041 
L 150 4041 
L 150 4581 
L 3781 4581 
L 3781 4041 
L 2266 4041 
L 2266 0 
L 1659 0 
z
" transform="scale(0.015625)"/>
       <path id="ArialMT-69" d="M 425 3934 
L 425 4581 
L 988 4581 
L 988 3934 
L 425 3934 
z
M 425 0 
L 425 3319 
L 988 3319 
L 988 0 
L 425 0 
z
" transform="scale(0.015625)"/>
       <path id="ArialMT-6d" d="M 422 0 
L 422 3319 
L 925 3319 
L 925 2853 
Q 1081 3097 1340 3245 
Q 1600 3394 1931 3394 
Q 2300 3394 2536 3241 
Q 2772 3088 2869 2813 
Q 3263 3394 3894 3394 
Q 4388 3394 4653 3120 
Q 4919 2847 4919 2278 
L 4919 0 
L 4359 0 
L 4359 2091 
Q 4359 2428 4304 2576 
Q 4250 2725 4106 2815 
Q 3963 2906 3769 2906 
Q 3419 2906 3187 2673 
Q 2956 2441 2956 1928 
L 2956 0 
L 2394 0 
L 2394 2156 
Q 2394 2531 2256 2718 
Q 2119 2906 1806 2906 
Q 1569 2906 1367 2781 
Q 1166 2656 1075 2415 
Q 984 2175 984 1722 
L 984 0 
L 422 0 
z
" transform="scale(0.015625)"/>
       <path id="ArialMT-65" d="M 2694 1069 
L 3275 997 
Q 3138 488 2766 206 
Q 2394 -75 1816 -75 
Q 1088 -75 661 373 
Q 234 822 234 1631 
Q 234 2469 665 2931 
Q 1097 3394 1784 3394 
Q 2450 3394 2872 2941 
Q 3294 2488 3294 1666 
Q 3294 1616 3291 1516 
L 816 1516 
Q 847 969 1125 678 
Q 1403 388 1819 388 
Q 2128 388 2347 550 
Q 2566 713 2694 1069 
z
M 847 1978 
L 2700 1978 
Q 2663 2397 2488 2606 
Q 2219 2931 1791 2931 
Q 1403 2931 1139 2672 
Q 875 2413 847 1978 
z
" transform="scale(0.015625)"/>
       <path id="ArialMT-20" transform="scale(0.015625)"/>
       <path id="ArialMT-28" d="M 1497 -1347 
Q 1031 -759 709 28 
Q 388 816 388 1659 
Q 388 2403 628 3084 
Q 909 3875 1497 4659 
L 1900 4659 
Q 1522 4009 1400 3731 
Q 1209 3300 1100 2831 
Q 966 2247 966 1656 
Q 966 153 1900 -1347 
L 1497 -1347 
z
" transform="scale(0.015625)"/>
       <path id="ArialMT-79" d="M 397 -1278 
L 334 -750 
Q 519 -800 656 -800 
Q 844 -800 956 -737 
Q 1069 -675 1141 -563 
Q 1194 -478 1313 -144 
Q 1328 -97 1363 -6 
L 103 3319 
L 709 3319 
L 1400 1397 
Q 1534 1031 1641 628 
Q 1738 1016 1872 1384 
L 2581 3319 
L 3144 3319 
L 1881 -56 
Q 1678 -603 1566 -809 
Q 1416 -1088 1222 -1217 
Q 1028 -1347 759 -1347 
Q 597 -1347 397 -1278 
z
" transform="scale(0.015625)"/>
       <path id="ArialMT-61" d="M 2588 409 
Q 2275 144 1986 34 
Q 1697 -75 1366 -75 
Q 819 -75 525 192 
Q 231 459 231 875 
Q 231 1119 342 1320 
Q 453 1522 633 1644 
Q 813 1766 1038 1828 
Q 1203 1872 1538 1913 
Q 2219 1994 2541 2106 
Q 2544 2222 2544 2253 
Q 2544 2597 2384 2738 
Q 2169 2928 1744 2928 
Q 1347 2928 1158 2789 
Q 969 2650 878 2297 
L 328 2372 
Q 403 2725 575 2942 
Q 747 3159 1072 3276 
Q 1397 3394 1825 3394 
Q 2250 3394 2515 3294 
Q 2781 3194 2906 3042 
Q 3031 2891 3081 2659 
Q 3109 2516 3109 2141 
L 3109 1391 
Q 3109 606 3145 398 
Q 3181 191 3288 0 
L 2700 0 
Q 2613 175 2588 409 
z
M 2541 1666 
Q 2234 1541 1622 1453 
Q 1275 1403 1131 1340 
Q 988 1278 909 1158 
Q 831 1038 831 891 
Q 831 666 1001 516 
Q 1172 366 1500 366 
Q 1825 366 2078 508 
Q 2331 650 2450 897 
Q 2541 1088 2541 1459 
L 2541 1666 
z
" transform="scale(0.015625)"/>
       <path id="ArialMT-29" d="M 791 -1347 
L 388 -1347 
Q 1322 153 1322 1656 
Q 1322 2244 1188 2822 
Q 1081 3291 891 3722 
Q 769 4003 388 4659 
L 791 4659 
Q 1378 3875 1659 3084 
Q 1900 2403 1900 1659 
Q 1900 816 1576 28 
Q 1253 -759 791 -1347 
z
" transform="scale(0.015625)"/>
      </defs>
      <use xlink:href="#ArialMT-54"/>
      <use xlink:href="#ArialMT-69" transform="translate(57.333984 0)"/>
      <use xlink:href="#ArialMT-6d" transform="translate(79.550781 0)"/>
      <use xlink:href="#ArialMT-65" transform="translate(162.851562 0)"/>
      <use xlink:href="#ArialMT-20" transform="translate(218.466797 0)"/>
      <use xlink:href="#ArialMT-28" transform="translate(246.25 0)"/>
      <use xlink:href="#ArialMT-6d" transform="translate(279.550781 0)"/>
      <use xlink:href="#ArialMT-79" transform="translate(362.851562 0)"/>
      <use xlink:href="#ArialMT-61" transform="translate(412.851562 0)"/>
      <use xlink:href="#ArialMT-29" transform="translate(468.466797 0)"/>
     </g>
    </g>
   </g>
   <g id="matplotlib.axis_2">
    <g id="ytick_1">
     <g id="line2d_5">
      <defs>
       <path id="m1518f950de" d="M 0 0 
L -3.5 0 
" style="stroke: #000000; stroke-width: 0.8"/>
      </defs>
      <g>
       <use xlink:href="#m1518f950de" x="71.772115" y="258.097867" style="stroke: #000000; stroke-width: 0.8"/>
      </g>
     </g>
     <g id="text_6">
      <!-- −0.2 -->
      <g transform="translate(25.290865 265.255679) scale(0.2 -0.2)">
       <defs>
        <path id="ArialMT-2212" d="M 3381 1997 
L 356 1997 
L 356 2522 
L 3381 2522 
L 3381 1997 
z
" transform="scale(0.015625)"/>
        <path id="ArialMT-2e" d="M 581 0 
L 581 641 
L 1222 641 
L 1222 0 
L 581 0 
z
" transform="scale(0.015625)"/>
       </defs>
       <use xlink:href="#ArialMT-2212"/>
       <use xlink:href="#ArialMT-30" transform="translate(58.398438 0)"/>
       <use xlink:href="#ArialMT-2e" transform="translate(114.013672 0)"/>
       <use xlink:href="#ArialMT-32" transform="translate(141.796875 0)"/>
      </g>
     </g>
    </g>
    <g id="ytick_2">
     <g id="line2d_6">
      <g>
       <use xlink:href="#m1518f950de" x="71.772115" y="185.212831" style="stroke: #000000; stroke-width: 0.8"/>
      </g>
     </g>
     <g id="text_7">
      <!-- 0.0 -->
      <g transform="translate(36.972115 192.370643) scale(0.2 -0.2)">
       <use xlink:href="#ArialMT-30"/>
       <use xlink:href="#ArialMT-2e" transform="translate(55.615234 0)"/>
       <use xlink:href="#ArialMT-30" transform="translate(83.398438 0)"/>
      </g>
     </g>
    </g>
    <g id="ytick_3">
     <g id="line2d_7">
      <g>
       <use xlink:href="#m1518f950de" x="71.772115" y="112.327794" style="stroke: #000000; stroke-width: 0.8"/>
      </g>
     </g>
     <g id="text_8">
      <!-- 0.2 -->
      <g transform="translate(36.972115 119.485607) scale(0.2 -0.2)">
       <use xlink:href="#ArialMT-30"/>
       <use xlink:href="#ArialMT-2e" transform="translate(55.615234 0)"/>
       <use xlink:href="#ArialMT-32" transform="translate(83.398438 0)"/>
      </g>
     </g>
    </g>
    <g id="ytick_4">
     <g id="line2d_8">
      <g>
       <use xlink:href="#m1518f950de" x="71.772115" y="39.442758" style="stroke: #000000; stroke-width: 0.8"/>
      </g>
     </g>
     <g id="text_9">
      <!-- 0.4 -->
      <g transform="translate(36.972115 46.600571) scale(0.2 -0.2)">
       <defs>
        <path id="ArialMT-34" d="M 2069 0 
L 2069 1097 
L 81 1097 
L 81 1613 
L 2172 4581 
L 2631 4581 
L 2631 1613 
L 3250 1613 
L 3250 1097 
L 2631 1097 
L 2631 0 
L 2069 0 
z
M 2069 1613 
L 2069 3678 
L 634 1613 
L 2069 1613 
z
" transform="scale(0.015625)"/>
       </defs>
       <use xlink:href="#ArialMT-30"/>
       <use xlink:href="#ArialMT-2e" transform="translate(55.615234 0)"/>
       <use xlink:href="#ArialMT-34" transform="translate(83.398438 0)"/>
      </g>
     </g>
    </g>
    <g id="text_10">
     <!-- $d$ -->
     <g transform="translate(17.315865 155.170312) rotate(-90) scale(0.2 -0.2)">
      <defs>
       <path id="DejaVuSans-Oblique-64" d="M 2675 525 
Q 2444 222 2128 65 
Q 1813 -91 1428 -91 
Q 903 -91 598 267 
Q 294 625 294 1247 
Q 294 1766 478 2236 
Q 663 2706 1013 3078 
Q 1244 3325 1534 3454 
Q 1825 3584 2144 3584 
Q 2481 3584 2739 3421 
Q 2997 3259 3138 2956 
L 3513 4863 
L 4091 4863 
L 3144 0 
L 2566 0 
L 2675 525 
z
M 891 1350 
Q 891 897 1095 644 
Q 1300 391 1663 391 
Q 1931 391 2161 520 
Q 2391 650 2566 903 
Q 2750 1166 2856 1509 
Q 2963 1853 2963 2188 
Q 2963 2622 2758 2865 
Q 2553 3109 2194 3109 
Q 1922 3109 1687 2981 
Q 1453 2853 1288 2613 
Q 1106 2353 998 2009 
Q 891 1666 891 1350 
z
" transform="scale(0.015625)"/>
      </defs>
      <use xlink:href="#DejaVuSans-Oblique-64" transform="translate(0 0.015625)"/>
     </g>
    </g>
   </g>
   <g id="line2d_9">
    <path d="M 89.318826 134.662043 
L 89.318826 134.662043 
L 170.852544 134.662043 
L 170.852544 141.711735 
L 201.149865 141.711735 
L 201.149865 151.132381 
L 253.439064 151.132381 
L 253.439064 155.086283 
L 278.58935 155.086283 
L 278.58935 157.906486 
L 304.207549 157.906486 
L 304.207549 146.039799 
L 355.490736 146.039799 
L 355.490736 127.384634 
L 377.868642 127.384634 
L 377.868642 105.176122 
L 398.140942 105.176122 
L 398.140942 90.413314 
L 410.072706 90.413314 
L 410.072706 78.294604 
L 419.196996 78.294604 
L 419.196996 61.229538 
L 431.117061 61.229538 
L 431.117061 49.844669 
L 438.779125 49.844669 
L 438.779125 47.573429 
L 440.253049 47.573429 
" clip-path="url(#pf27848e522)" style="fill: none; stroke: #98d594; stroke-opacity: 0.25; stroke-linecap: square"/>
   </g>
   <g id="line2d_10">
    <path d="M 89.318826 160.799805 
L 89.318826 160.799805 
L 170.852544 160.799805 
L 170.852544 161.2588 
L 201.149865 161.2588 
L 201.149865 157.614821 
L 253.439064 157.614821 
L 253.439064 156.312678 
L 278.58935 156.312678 
L 278.58935 153.422147 
L 304.207549 153.422147 
L 304.207549 133.092334 
L 355.490736 133.092334 
L 355.490736 114.740195 
L 377.868642 114.740195 
L 377.868642 92.45289 
L 398.140942 92.45289 
L 398.140942 77.847688 
L 410.072706 77.847688 
L 410.072706 64.846805 
L 419.196996 64.846805 
L 419.196996 46.540819 
L 431.117061 46.540819 
L 431.117061 33.865321 
L 438.779125 33.865321 
L 438.779125 31.471466 
L 440.253049 31.471466 
" clip-path="url(#pf27848e522)" style="fill: none; stroke: #98d594; stroke-opacity: 0.25; stroke-linecap: square"/>
   </g>
   <g id="line2d_11">
    <path d="M 89.318826 130.44541 
L 89.318826 130.44541 
L 170.852544 130.44541 
L 170.852544 136.416809 
L 201.149865 136.416809 
L 201.149865 147.405875 
L 253.439064 147.405875 
L 253.439064 156.02016 
L 278.58935 156.02016 
L 278.58935 165.614324 
L 304.207549 165.614324 
L 304.207549 151.844236 
L 355.490736 151.844236 
L 355.490736 118.383824 
L 377.868642 118.383824 
L 377.868642 96.691413 
L 398.140942 96.691413 
L 398.140942 88.063803 
L 410.072706 88.063803 
L 410.072706 83.029671 
L 419.196996 83.029671 
L 419.196996 78.150647 
L 431.117061 78.150647 
L 431.117061 75.958623 
L 438.779125 75.958623 
L 438.779125 75.583785 
L 440.253049 75.583785 
" clip-path="url(#pf27848e522)" style="fill: none; stroke: #98d594; stroke-opacity: 0.25; stroke-linecap: square"/>
   </g>
   <g id="line2d_12">
    <path d="M 89.318826 162.144968 
L 89.318826 162.144968 
L 170.852544 162.144968 
L 170.852544 163.170473 
L 201.149865 163.170473 
L 201.149865 165.412453 
L 253.439064 165.412453 
L 253.439064 170.685497 
L 278.58935 170.685497 
L 278.58935 177.187769 
L 304.207549 177.187769 
L 304.207549 165.528114 
L 355.490736 165.528114 
L 355.490736 126.69077 
L 377.868642 126.69077 
L 377.868642 100.981976 
L 398.140942 100.981976 
L 398.140942 92.450363 
L 410.072706 92.450363 
L 410.072706 87.602862 
L 419.196996 87.602862 
L 419.196996 83.485959 
L 431.117061 83.485959 
L 431.117061 81.948407 
L 438.779125 81.948407 
L 438.779125 81.686921 
L 440.253049 81.686921 
" clip-path="url(#pf27848e522)" style="fill: none; stroke: #98d594; stroke-opacity: 0.25; stroke-linecap: square"/>
   </g>
   <g id="line2d_13">
    <path d="M 89.318826 162.714011 
L 89.318826 162.714011 
L 170.852544 162.714011 
L 170.852544 166.231674 
L 201.149865 166.231674 
L 201.149865 169.668384 
L 253.439064 169.668384 
L 253.439064 172.547813 
L 278.58935 172.547813 
L 278.58935 176.184343 
L 304.207549 176.184343 
L 304.207549 157.419479 
L 355.490736 157.419479 
L 355.490736 119.708093 
L 377.868642 119.708093 
L 377.868642 93.333691 
L 398.140942 93.333691 
L 398.140942 81.95103 
L 410.072706 81.95103 
L 410.072706 74.892221 
L 419.196996 74.892221 
L 419.196996 67.186536 
L 431.117061 67.186536 
L 431.117061 63.075126 
L 438.779125 63.075126 
L 438.779125 62.53845 
L 440.253049 62.53845 
" clip-path="url(#pf27848e522)" style="fill: none; stroke: #98d594; stroke-opacity: 0.25; stroke-linecap: square"/>
   </g>
   <g id="line2d_14">
    <path d="M 89.318826 128.892011 
L 89.318826 128.892011 
L 170.852544 128.892011 
L 170.852544 134.346371 
L 201.149865 134.346371 
L 201.149865 145.830108 
L 253.439064 145.830108 
L 253.439064 151.998655 
L 278.58935 151.998655 
L 278.58935 158.698681 
L 304.207549 158.698681 
L 304.207549 152.375857 
L 355.490736 152.375857 
L 355.490736 124.083908 
L 377.868642 124.083908 
L 377.868642 101.467179 
L 398.140942 101.467179 
L 398.140942 92.106496 
L 410.072706 92.106496 
L 410.072706 86.321231 
L 419.196996 86.321231 
L 419.196996 80.492367 
L 431.117061 80.492367 
L 431.117061 77.34905 
L 438.779125 77.34905 
L 438.779125 76.737067 
L 440.253049 76.737067 
" clip-path="url(#pf27848e522)" style="fill: none; stroke: #98d594; stroke-opacity: 0.25; stroke-linecap: square"/>
   </g>
   <g id="line2d_15">
    <path d="M 89.318826 145.769432 
L 89.318826 145.769432 
L 170.852544 145.769432 
L 170.852544 148.503955 
L 201.149865 148.503955 
L 201.149865 154.551934 
L 253.439064 154.551934 
L 253.439064 158.349685 
L 278.58935 158.349685 
L 278.58935 164.806486 
L 304.207549 164.806486 
L 304.207549 151.176554 
L 355.490736 151.176554 
L 355.490736 118.868234 
L 377.868642 118.868234 
L 377.868642 94.378637 
L 398.140942 94.378637 
L 398.140942 85.057381 
L 410.072706 85.057381 
L 410.072706 79.85456 
L 419.196996 79.85456 
L 419.196996 74.496846 
L 431.117061 74.496846 
L 431.117061 72.255289 
L 438.779125 72.255289 
L 438.779125 71.767617 
L 440.253049 71.767617 
" clip-path="url(#pf27848e522)" style="fill: none; stroke: #98d594; stroke-opacity: 0.25; stroke-linecap: square"/>
   </g>
   <g id="line2d_16">
    <path d="M 89.318826 175.626857 
L 89.318826 175.626857 
L 170.852544 175.626857 
L 170.852544 177.089483 
L 201.149865 177.089483 
L 201.149865 173.443879 
L 253.439064 173.443879 
L 253.439064 167.808102 
L 278.58935 167.808102 
L 278.58935 158.163996 
L 304.207549 158.163996 
L 304.207549 125.261098 
L 355.490736 125.261098 
L 355.490736 104.53828 
L 377.868642 104.53828 
L 377.868642 86.050508 
L 398.140942 86.050508 
L 398.140942 75.170063 
L 410.072706 75.170063 
L 410.072706 66.959573 
L 419.196996 66.959573 
L 419.196996 56.83568 
L 431.117061 56.83568 
L 431.117061 50.497181 
L 438.779125 50.497181 
L 438.779125 49.391585 
L 440.253049 49.391585 
" clip-path="url(#pf27848e522)" style="fill: none; stroke: #98d594; stroke-opacity: 0.25; stroke-linecap: square"/>
   </g>
   <g id="line2d_17">
    <path d="M 89.318826 146.826332 
L 89.318826 146.826332 
L 170.852544 146.826332 
L 170.852544 152.856203 
L 201.149865 152.856203 
L 201.149865 161.487602 
L 253.439064 161.487602 
L 253.439064 167.29221 
L 278.58935 167.29221 
L 278.58935 173.48855 
L 304.207549 173.48855 
L 304.207549 155.085119 
L 355.490736 155.085119 
L 355.490736 117.346361 
L 377.868642 117.346361 
L 377.868642 91.447378 
L 398.140942 91.447378 
L 398.140942 81.584543 
L 410.072706 81.584543 
L 410.072706 76.245126 
L 419.196996 76.245126 
L 419.196996 70.650642 
L 431.117061 70.650642 
L 431.117061 67.865195 
L 438.779125 67.865195 
L 438.779125 67.405671 
L 440.253049 67.405671 
" clip-path="url(#pf27848e522)" style="fill: none; stroke: #98d594; stroke-opacity: 0.25; stroke-linecap: square"/>
   </g>
   <g id="line2d_18">
    <path d="M 89.318826 148.676013 
L 89.318826 148.676013 
L 170.852544 148.676013 
L 170.852544 150.403399 
L 201.149865 150.403399 
L 201.149865 151.514356 
L 253.439064 151.514356 
L 253.439064 151.325076 
L 278.58935 151.325076 
L 278.58935 150.619053 
L 304.207549 150.619053 
L 304.207549 134.817781 
L 355.490736 134.817781 
L 355.490736 115.664708 
L 377.868642 115.664708 
L 377.868642 93.366782 
L 398.140942 93.366782 
L 398.140942 78.46807 
L 410.072706 78.46807 
L 410.072706 65.23429 
L 419.196996 65.23429 
L 419.196996 46.962582 
L 431.117061 46.962582 
L 431.117061 34.484966 
L 438.779125 34.484966 
L 438.779125 32.104608 
L 440.253049 32.104608 
" clip-path="url(#pf27848e522)" style="fill: none; stroke: #98d594; stroke-opacity: 0.25; stroke-linecap: square"/>
   </g>
   <g id="line2d_19">
    <path d="M 89.318826 145.644722 
L 89.318826 145.644722 
L 170.852544 145.644722 
L 170.852544 148.240237 
L 201.149865 148.240237 
L 201.149865 149.805395 
L 253.439064 149.805395 
L 253.439064 150.496975 
L 278.58935 150.496975 
L 278.58935 149.690136 
L 304.207549 149.690136 
L 304.207549 132.399473 
L 355.490736 132.399473 
L 355.490736 113.862596 
L 377.868642 113.862596 
L 377.868642 92.360372 
L 398.140942 92.360372 
L 398.140942 78.509427 
L 410.072706 78.509427 
L 410.072706 66.475318 
L 419.196996 66.475318 
L 419.196996 50.628349 
L 431.117061 50.628349 
L 431.117061 40.594209 
L 438.779125 40.594209 
L 438.779125 38.73442 
L 440.253049 38.73442 
" clip-path="url(#pf27848e522)" style="fill: none; stroke: #98d594; stroke-opacity: 0.25; stroke-linecap: square"/>
   </g>
   <g id="line2d_20">
    <path d="M 89.318826 145.229895 
L 89.318826 145.229895 
L 170.852544 145.229895 
L 170.852544 148.707837 
L 201.149865 148.707837 
L 201.149865 153.021944 
L 253.439064 153.021944 
L 253.439064 154.816891 
L 278.58935 154.816891 
L 278.58935 153.77555 
L 304.207549 153.77555 
L 304.207549 134.563036 
L 355.490736 134.563036 
L 355.490736 117.625806 
L 377.868642 117.625806 
L 377.868642 100.865689 
L 398.140942 100.865689 
L 398.140942 90.895332 
L 410.072706 90.895332 
L 410.072706 82.689405 
L 419.196996 82.689405 
L 419.196996 70.977246 
L 431.117061 70.977246 
L 431.117061 63.907555 
L 438.779125 63.907555 
L 438.779125 62.713174 
L 440.253049 62.713174 
" clip-path="url(#pf27848e522)" style="fill: none; stroke: #98d594; stroke-opacity: 0.25; stroke-linecap: square"/>
   </g>
   <g id="line2d_21">
    <path d="M 89.318826 158.417305 
L 89.318826 158.417305 
L 170.852544 158.417305 
L 170.852544 162.239326 
L 201.149865 162.239326 
L 201.149865 163.452876 
L 253.439064 163.452876 
L 253.439064 163.590341 
L 278.58935 163.590341 
L 278.58935 162.174639 
L 304.207549 162.174639 
L 304.207549 144.961806 
L 355.490736 144.961806 
L 355.490736 129.173955 
L 377.868642 129.173955 
L 377.868642 110.268905 
L 398.140942 110.268905 
L 398.140942 95.896846 
L 410.072706 95.896846 
L 410.072706 82.340031 
L 419.196996 82.340031 
L 419.196996 61.471493 
L 431.117061 61.471493 
L 431.117061 46.755893 
L 438.779125 46.755893 
L 438.779125 43.774183 
L 440.253049 43.774183 
" clip-path="url(#pf27848e522)" style="fill: none; stroke: #98d594; stroke-opacity: 0.25; stroke-linecap: square"/>
   </g>
   <g id="line2d_22">
    <path d="M 89.318826 157.234285 
L 89.318826 157.234285 
L 170.852544 157.234285 
L 170.852544 157.934826 
L 201.149865 157.934826 
L 201.149865 160.920681 
L 253.439064 160.920681 
L 253.439064 165.384074 
L 278.58935 165.384074 
L 278.58935 171.876848 
L 304.207549 171.876848 
L 304.207549 160.642477 
L 355.490736 160.642477 
L 355.490736 122.221829 
L 377.868642 122.221829 
L 377.868642 93.658009 
L 398.140942 93.658009 
L 398.140942 82.85964 
L 410.072706 82.85964 
L 410.072706 77.035797 
L 419.196996 77.035797 
L 419.196996 71.601209 
L 431.117061 71.601209 
L 431.117061 68.714991 
L 438.779125 68.714991 
L 438.779125 68.297604 
L 440.253049 68.297604 
" clip-path="url(#pf27848e522)" style="fill: none; stroke: #98d594; stroke-opacity: 0.25; stroke-linecap: square"/>
   </g>
   <g id="line2d_23">
    <path d="M 89.318826 146.789447 
L 89.318826 146.789447 
L 170.852544 146.789447 
L 170.852544 149.829791 
L 201.149865 149.829791 
L 201.149865 157.256658 
L 253.439064 157.256658 
L 253.439064 163.411132 
L 278.58935 163.411132 
L 278.58935 171.236407 
L 304.207549 171.236407 
L 304.207549 167.032813 
L 355.490736 167.032813 
L 355.490736 134.892391 
L 377.868642 134.892391 
L 377.868642 111.108821 
L 398.140942 111.108821 
L 398.140942 101.950499 
L 410.072706 101.950499 
L 410.072706 96.527919 
L 419.196996 96.527919 
L 419.196996 91.593574 
L 431.117061 91.593574 
L 431.117061 89.293193 
L 438.779125 89.293193 
L 438.779125 88.850971 
L 440.253049 88.850971 
" clip-path="url(#pf27848e522)" style="fill: none; stroke: #98d594; stroke-opacity: 0.25; stroke-linecap: square"/>
   </g>
   <g id="line2d_24">
    <path d="M 89.318826 135.370327 
L 89.318826 135.370327 
L 170.852544 135.370327 
L 170.852544 140.042606 
L 201.149865 140.042606 
L 201.149865 148.059373 
L 253.439064 148.059373 
L 253.439064 150.585147 
L 278.58935 150.585147 
L 278.58935 151.195774 
L 304.207549 151.195774 
L 304.207549 132.715892 
L 355.490736 132.715892 
L 355.490736 113.774016 
L 377.868642 113.774016 
L 377.868642 97.413486 
L 398.140942 97.413486 
L 398.140942 88.088133 
L 410.072706 88.088133 
L 410.072706 80.951226 
L 419.196996 80.951226 
L 419.196996 72.151919 
L 431.117061 72.151919 
L 431.117061 66.794853 
L 438.779125 66.794853 
L 438.779125 65.795072 
L 440.253049 65.795072 
" clip-path="url(#pf27848e522)" style="fill: none; stroke: #98d594; stroke-opacity: 0.25; stroke-linecap: square"/>
   </g>
   <g id="line2d_25">
    <path d="M 89.318826 145.055513 
L 89.318826 145.055513 
L 170.852544 145.055513 
L 170.852544 152.021349 
L 201.149865 152.021349 
L 201.149865 164.38699 
L 253.439064 164.38699 
L 253.439064 172.451953 
L 278.58935 172.451953 
L 278.58935 183.386199 
L 304.207549 183.386199 
L 304.207549 175.459045 
L 355.490736 175.459045 
L 355.490736 131.530705 
L 377.868642 131.530705 
L 377.868642 96.959488 
L 398.140942 96.959488 
L 398.140942 83.509895 
L 410.072706 83.509895 
L 410.072706 76.094988 
L 419.196996 76.094988 
L 419.196996 69.69711 
L 431.117061 69.69711 
L 431.117061 66.837119 
L 438.779125 66.837119 
L 438.779125 66.426606 
L 440.253049 66.426606 
" clip-path="url(#pf27848e522)" style="fill: none; stroke: #98d594; stroke-opacity: 0.25; stroke-linecap: square"/>
   </g>
   <g id="line2d_26">
    <path d="M 89.318826 145.956944 
L 89.318826 145.956944 
L 170.852544 145.956944 
L 170.852544 150.863252 
L 201.149865 150.863252 
L 201.149865 156.582459 
L 253.439064 156.582459 
L 253.439064 157.722456 
L 278.58935 157.722456 
L 278.58935 159.136057 
L 304.207549 159.136057 
L 304.207549 138.377714 
L 355.490736 138.377714 
L 355.490736 114.906192 
L 377.868642 114.906192 
L 377.868642 91.773713 
L 398.140942 91.773713 
L 398.140942 78.340279 
L 410.072706 78.340279 
L 410.072706 68.651996 
L 419.196996 68.651996 
L 419.196996 56.8033 
L 431.117061 56.8033 
L 431.117061 49.776403 
L 438.779125 49.776403 
L 438.779125 48.668137 
L 440.253049 48.668137 
" clip-path="url(#pf27848e522)" style="fill: none; stroke: #98d594; stroke-opacity: 0.25; stroke-linecap: square"/>
   </g>
   <g id="line2d_27">
    <path d="M 89.318826 148.898159 
L 89.318826 148.898159 
L 170.852544 148.898159 
L 170.852544 153.294373 
L 201.149865 153.294373 
L 201.149865 157.957688 
L 253.439064 157.957688 
L 253.439064 160.200155 
L 278.58935 160.200155 
L 278.58935 160.321603 
L 304.207549 160.321603 
L 304.207549 136.201723 
L 355.490736 136.201723 
L 355.490736 114.857218 
L 377.868642 114.857218 
L 377.868642 93.695506 
L 398.140942 93.695506 
L 398.140942 80.704591 
L 410.072706 80.704591 
L 410.072706 70.201907 
L 419.196996 70.201907 
L 419.196996 55.546427 
L 431.117061 55.546427 
L 431.117061 46.462163 
L 438.779125 46.462163 
L 438.779125 44.61838 
L 440.253049 44.61838 
" clip-path="url(#pf27848e522)" style="fill: none; stroke: #98d594; stroke-opacity: 0.25; stroke-linecap: square"/>
   </g>
   <g id="line2d_28">
    <path d="M 89.318826 151.595235 
L 89.318826 151.595235 
L 170.852544 151.595235 
L 170.852544 153.228242 
L 201.149865 153.228242 
L 201.149865 157.534196 
L 253.439064 157.534196 
L 253.439064 161.486321 
L 278.58935 161.486321 
L 278.58935 164.882538 
L 304.207549 164.882538 
L 304.207549 149.04791 
L 355.490736 149.04791 
L 355.490736 120.789103 
L 377.868642 120.789103 
L 377.868642 99.123637 
L 398.140942 99.123637 
L 398.140942 89.001357 
L 410.072706 89.001357 
L 410.072706 82.39528 
L 419.196996 82.39528 
L 419.196996 75.742385 
L 431.117061 75.742385 
L 431.117061 71.88876 
L 438.779125 71.88876 
L 438.779125 71.128486 
L 440.253049 71.128486 
" clip-path="url(#pf27848e522)" style="fill: none; stroke: #98d594; stroke-opacity: 0.25; stroke-linecap: square"/>
   </g>
   <g id="line2d_29">
    <path d="M 89.318826 135.960219 
L 89.318826 135.960219 
L 170.852544 135.960219 
L 170.852544 148.921852 
L 201.149865 148.921852 
L 201.149865 160.683987 
L 253.439064 160.683987 
L 253.439064 163.236249 
L 278.58935 163.236249 
L 278.58935 161.494877 
L 304.207549 161.494877 
L 304.207549 137.145584 
L 355.490736 137.145584 
L 355.490736 117.673371 
L 377.868642 117.673371 
L 377.868642 97.685401 
L 398.140942 97.685401 
L 398.140942 85.299639 
L 410.072706 85.299639 
L 410.072706 75.306054 
L 419.196996 75.306054 
L 419.196996 61.40445 
L 431.117061 61.40445 
L 431.117061 52.386931 
L 438.779125 52.386931 
L 438.779125 50.44666 
L 440.253049 50.44666 
" clip-path="url(#pf27848e522)" style="fill: none; stroke: #98d594; stroke-opacity: 0.25; stroke-linecap: square"/>
   </g>
   <g id="line2d_30">
    <path d="M 89.318826 137.253187 
L 89.318826 137.253187 
L 170.852544 137.253187 
L 170.852544 144.498565 
L 201.149865 144.498565 
L 201.149865 154.543012 
L 253.439064 154.543012 
L 253.439064 160.810536 
L 278.58935 160.810536 
L 278.58935 166.23032 
L 304.207549 166.23032 
L 304.207549 156.389666 
L 355.490736 156.389666 
L 355.490736 127.701282 
L 377.868642 127.701282 
L 377.868642 100.560428 
L 398.140942 100.560428 
L 398.140942 85.413534 
L 410.072706 85.413534 
L 410.072706 74.540528 
L 419.196996 74.540528 
L 419.196996 61.983853 
L 431.117061 61.983853 
L 431.117061 55.037436 
L 438.779125 55.037436 
L 438.779125 53.667714 
L 440.253049 53.667714 
" clip-path="url(#pf27848e522)" style="fill: none; stroke: #98d594; stroke-opacity: 0.25; stroke-linecap: square"/>
   </g>
   <g id="line2d_31">
    <path d="M 89.318826 130.680943 
L 89.318826 130.680943 
L 170.852544 130.680943 
L 170.852544 137.544055 
L 201.149865 137.544055 
L 201.149865 141.628041 
L 253.439064 141.628041 
L 253.439064 139.673021 
L 278.58935 139.673021 
L 278.58935 136.418481 
L 304.207549 136.418481 
L 304.207549 122.485642 
L 355.490736 122.485642 
L 355.490736 110.864123 
L 377.868642 110.864123 
L 377.868642 96.532578 
L 398.140942 96.532578 
L 398.140942 86.202431 
L 410.072706 86.202431 
L 410.072706 77.518622 
L 419.196996 77.518622 
L 419.196996 65.372427 
L 431.117061 65.372427 
L 431.117061 57.231422 
L 438.779125 57.231422 
L 438.779125 55.738436 
L 440.253049 55.738436 
" clip-path="url(#pf27848e522)" style="fill: none; stroke: #98d594; stroke-opacity: 0.25; stroke-linecap: square"/>
   </g>
   <g id="line2d_32">
    <path d="M 89.318826 156.939506 
L 89.318826 156.939506 
L 170.852544 156.939506 
L 170.852544 158.381096 
L 201.149865 158.381096 
L 201.149865 158.22767 
L 253.439064 158.22767 
L 253.439064 161.506525 
L 278.58935 161.506525 
L 278.58935 166.149633 
L 304.207549 166.149633 
L 304.207549 156.759682 
L 355.490736 156.759682 
L 355.490736 129.132992 
L 377.868642 129.132992 
L 377.868642 101.833372 
L 398.140942 101.833372 
L 398.140942 86.831379 
L 410.072706 86.831379 
L 410.072706 76.099219 
L 419.196996 76.099219 
L 419.196996 62.402326 
L 431.117061 62.402326 
L 431.117061 53.960173 
L 438.779125 53.960173 
L 438.779125 52.482234 
L 440.253049 52.482234 
" clip-path="url(#pf27848e522)" style="fill: none; stroke: #98d594; stroke-opacity: 0.25; stroke-linecap: square"/>
   </g>
   <g id="line2d_33">
    <path d="M 89.318826 147.370805 
L 89.318826 147.370805 
L 170.852544 147.370805 
L 170.852544 150.802163 
L 201.149865 150.802163 
L 201.149865 157.483984 
L 253.439064 157.483984 
L 253.439064 163.785291 
L 278.58935 163.785291 
L 278.58935 172.61132 
L 304.207549 172.61132 
L 304.207549 164.210657 
L 355.490736 164.210657 
L 355.490736 125.405617 
L 377.868642 125.405617 
L 377.868642 94.67335 
L 398.140942 94.67335 
L 398.140942 81.190663 
L 410.072706 81.190663 
L 410.072706 72.831761 
L 419.196996 72.831761 
L 419.196996 63.409363 
L 431.117061 63.409363 
L 431.117061 58.425887 
L 438.779125 58.425887 
L 438.779125 57.541271 
L 440.253049 57.541271 
" clip-path="url(#pf27848e522)" style="fill: none; stroke: #98d594; stroke-opacity: 0.25; stroke-linecap: square"/>
   </g>
   <g id="line2d_34">
    <path d="M 89.318826 158.527658 
L 89.318826 158.527658 
L 170.852544 158.527658 
L 170.852544 160.512369 
L 201.149865 160.512369 
L 201.149865 156.75992 
L 253.439064 156.75992 
L 253.439064 153.169801 
L 278.58935 153.169801 
L 278.58935 148.224369 
L 304.207549 148.224369 
L 304.207549 125.403428 
L 355.490736 125.403428 
L 355.490736 111.649866 
L 377.868642 111.649866 
L 377.868642 100.296381 
L 398.140942 100.296381 
L 398.140942 93.80538 
L 410.072706 93.80538 
L 410.072706 89.315064 
L 419.196996 89.315064 
L 419.196996 83.87014 
L 431.117061 83.87014 
L 431.117061 80.815559 
L 438.779125 80.815559 
L 438.779125 80.237548 
L 440.253049 80.237548 
" clip-path="url(#pf27848e522)" style="fill: none; stroke: #98d594; stroke-opacity: 0.25; stroke-linecap: square"/>
   </g>
   <g id="line2d_35">
    <path d="M 89.318826 147.296153 
L 89.318826 147.296153 
L 170.852544 147.296153 
L 170.852544 152.617288 
L 201.149865 152.617288 
L 201.149865 158.727739 
L 253.439064 158.727739 
L 253.439064 161.833109 
L 278.58935 161.833109 
L 278.58935 163.316517 
L 304.207549 163.316517 
L 304.207549 141.913697 
L 355.490736 141.913697 
L 355.490736 116.602986 
L 377.868642 116.602986 
L 377.868642 97.095134 
L 398.140942 97.095134 
L 398.140942 87.954136 
L 410.072706 87.954136 
L 410.072706 81.835389 
L 419.196996 81.835389 
L 419.196996 73.610607 
L 431.117061 73.610607 
L 431.117061 69.120007 
L 438.779125 69.120007 
L 438.779125 68.256463 
L 440.253049 68.256463 
" clip-path="url(#pf27848e522)" style="fill: none; stroke: #98d594; stroke-opacity: 0.25; stroke-linecap: square"/>
   </g>
   <g id="line2d_36">
    <path d="M 89.318826 168.778878 
L 89.318826 168.778878 
L 170.852544 168.778878 
L 170.852544 167.478122 
L 201.149865 167.478122 
L 201.149865 165.607801 
L 253.439064 165.607801 
L 253.439064 166.584441 
L 278.58935 166.584441 
L 278.58935 170.124428 
L 304.207549 170.124428 
L 304.207549 157.889444 
L 355.490736 157.889444 
L 355.490736 122.71933 
L 377.868642 122.71933 
L 377.868642 92.026817 
L 398.140942 92.026817 
L 398.140942 78.024926 
L 410.072706 78.024926 
L 410.072706 67.457819 
L 419.196996 67.457819 
L 419.196996 55.118034 
L 431.117061 55.118034 
L 431.117061 48.380373 
L 438.779125 48.380373 
L 438.779125 47.006053 
L 440.253049 47.006053 
" clip-path="url(#pf27848e522)" style="fill: none; stroke: #98d594; stroke-opacity: 0.25; stroke-linecap: square"/>
   </g>
   <g id="line2d_37">
    <path d="M 89.318826 149.035566 
L 89.318826 149.035566 
L 170.852544 149.035566 
L 170.852544 153.542098 
L 201.149865 153.542098 
L 201.149865 160.589942 
L 253.439064 160.589942 
L 253.439064 164.14048 
L 278.58935 164.14048 
L 278.58935 166.497758 
L 304.207549 166.497758 
L 304.207549 147.873774 
L 355.490736 147.873774 
L 355.490736 126.220042 
L 377.868642 126.220042 
L 377.868642 106.024766 
L 398.140942 106.024766 
L 398.140942 94.583602 
L 410.072706 94.583602 
L 410.072706 86.432992 
L 419.196996 86.432992 
L 419.196996 76.723939 
L 431.117061 76.723939 
L 431.117061 70.888787 
L 438.779125 70.888787 
L 438.779125 69.936367 
L 440.253049 69.936367 
" clip-path="url(#pf27848e522)" style="fill: none; stroke: #98d594; stroke-opacity: 0.25; stroke-linecap: square"/>
   </g>
   <g id="line2d_38">
    <path d="M 89.318826 124.080213 
L 89.318826 124.080213 
L 170.852544 124.080213 
L 170.852544 130.198837 
L 201.149865 130.198837 
L 201.149865 142.393067 
L 253.439064 142.393067 
L 253.439064 148.365607 
L 278.58935 148.365607 
L 278.58935 152.358935 
L 304.207549 152.358935 
L 304.207549 139.40425 
L 355.490736 139.40425 
L 355.490736 115.905396 
L 377.868642 115.905396 
L 377.868642 92.285676 
L 398.140942 92.285676 
L 398.140942 79.003795 
L 410.072706 79.003795 
L 410.072706 68.839411 
L 419.196996 68.839411 
L 419.196996 56.428859 
L 431.117061 56.428859 
L 431.117061 49.323727 
L 438.779125 49.323727 
L 438.779125 47.962872 
L 440.253049 47.962872 
" clip-path="url(#pf27848e522)" style="fill: none; stroke: #98d594; stroke-opacity: 0.25; stroke-linecap: square"/>
   </g>
   <g id="line2d_39">
    <path d="M 89.318826 137.277148 
L 89.318826 137.277148 
L 170.852544 137.277148 
L 170.852544 143.524604 
L 201.149865 143.524604 
L 201.149865 150.063048 
L 253.439064 150.063048 
L 253.439064 151.126155 
L 278.58935 151.126155 
L 278.58935 149.389352 
L 304.207549 149.389352 
L 304.207549 130.617238 
L 355.490736 130.617238 
L 355.490736 113.531735 
L 377.868642 113.531735 
L 377.868642 94.411184 
L 398.140942 94.411184 
L 398.140942 81.929854 
L 410.072706 81.929854 
L 410.072706 71.625419 
L 419.196996 71.625419 
L 419.196996 57.061318 
L 431.117061 57.061318 
L 431.117061 47.364343 
L 438.779125 47.364343 
L 438.779125 45.552667 
L 440.253049 45.552667 
" clip-path="url(#pf27848e522)" style="fill: none; stroke: #98d594; stroke-opacity: 0.25; stroke-linecap: square"/>
   </g>
   <g id="line2d_40">
    <path d="M 89.318826 173.730172 
L 89.318826 173.730172 
L 170.852544 173.730172 
L 170.852544 170.75504 
L 201.149865 170.75504 
L 201.149865 163.295059 
L 253.439064 163.295059 
L 253.439064 159.556805 
L 278.58935 159.556805 
L 278.58935 156.641877 
L 304.207549 156.641877 
L 304.207549 137.859059 
L 355.490736 137.859059 
L 355.490736 114.505495 
L 377.868642 114.505495 
L 377.868642 91.636414 
L 398.140942 91.636414 
L 398.140942 78.962761 
L 410.072706 78.962761 
L 410.072706 69.028883 
L 419.196996 69.028883 
L 419.196996 56.356559 
L 431.117061 56.356559 
L 431.117061 48.909795 
L 438.779125 48.909795 
L 438.779125 47.956669 
L 440.253049 47.956669 
" clip-path="url(#pf27848e522)" style="fill: none; stroke: #98d594; stroke-opacity: 0.25; stroke-linecap: square"/>
   </g>
   <g id="line2d_41">
    <path d="M 89.318826 121.252658 
L 89.318826 121.252658 
L 170.852544 121.252658 
L 170.852544 133.271547 
L 201.149865 133.271547 
L 201.149865 146.83252 
L 253.439064 146.83252 
L 253.439064 150.347944 
L 278.58935 150.347944 
L 278.58935 151.707187 
L 304.207549 151.707187 
L 304.207549 135.298912 
L 355.490736 135.298912 
L 355.490736 117.163219 
L 377.868642 117.163219 
L 377.868642 96.977309 
L 398.140942 96.977309 
L 398.140942 83.639653 
L 410.072706 83.639653 
L 410.072706 72.880214 
L 419.196996 72.880214 
L 419.196996 58.956917 
L 431.117061 58.956917 
L 431.117061 50.19964 
L 438.779125 50.19964 
L 438.779125 48.495993 
L 440.253049 48.495993 
" clip-path="url(#pf27848e522)" style="fill: none; stroke: #98d594; stroke-opacity: 0.25; stroke-linecap: square"/>
   </g>
   <g id="line2d_42">
    <path d="M 89.318826 163.451115 
L 89.318826 163.451115 
L 170.852544 163.451115 
L 170.852544 166.931931 
L 201.149865 166.931931 
L 201.149865 170.7123 
L 253.439064 170.7123 
L 253.439064 174.086674 
L 278.58935 174.086674 
L 278.58935 175.582807 
L 304.207549 175.582807 
L 304.207549 150.090839 
L 355.490736 150.090839 
L 355.490736 123.632729 
L 377.868642 123.632729 
L 377.868642 106.438461 
L 398.140942 106.438461 
L 398.140942 98.946839 
L 410.072706 98.946839 
L 410.072706 93.879875 
L 419.196996 93.879875 
L 419.196996 87.984557 
L 431.117061 87.984557 
L 431.117061 84.472565 
L 438.779125 84.472565 
L 438.779125 83.970358 
L 440.253049 83.970358 
" clip-path="url(#pf27848e522)" style="fill: none; stroke: #98d594; stroke-opacity: 0.25; stroke-linecap: square"/>
   </g>
   <g id="line2d_43">
    <path d="M 89.318826 164.24094 
L 89.318826 164.24094 
L 170.852544 164.24094 
L 170.852544 162.683735 
L 201.149865 162.683735 
L 201.149865 158.939772 
L 253.439064 158.939772 
L 253.439064 158.310867 
L 278.58935 158.310867 
L 278.58935 158.133391 
L 304.207549 158.133391 
L 304.207549 141.274152 
L 355.490736 141.274152 
L 355.490736 119.684368 
L 377.868642 119.684368 
L 377.868642 97.2259 
L 398.140942 97.2259 
L 398.140942 85.058361 
L 410.072706 85.058361 
L 410.072706 76.42138 
L 419.196996 76.42138 
L 419.196996 66.558344 
L 431.117061 66.558344 
L 431.117061 60.527764 
L 438.779125 60.527764 
L 438.779125 59.585065 
L 440.253049 59.585065 
" clip-path="url(#pf27848e522)" style="fill: none; stroke: #98d594; stroke-opacity: 0.25; stroke-linecap: square"/>
   </g>
   <g id="line2d_44">
    <path d="M 89.318826 165.195506 
L 89.318826 165.195506 
L 170.852544 165.195506 
L 170.852544 167.597935 
L 201.149865 167.597935 
L 201.149865 168.621134 
L 253.439064 168.621134 
L 253.439064 169.260622 
L 278.58935 169.260622 
L 278.58935 170.604861 
L 304.207549 170.604861 
L 304.207549 149.220405 
L 355.490736 149.220405 
L 355.490736 120.753313 
L 377.868642 120.753313 
L 377.868642 97.385342 
L 398.140942 97.385342 
L 398.140942 84.365208 
L 410.072706 84.365208 
L 410.072706 74.334798 
L 419.196996 74.334798 
L 419.196996 61.963651 
L 431.117061 61.963651 
L 431.117061 54.640937 
L 438.779125 54.640937 
L 438.779125 53.225524 
L 440.253049 53.225524 
" clip-path="url(#pf27848e522)" style="fill: none; stroke: #98d594; stroke-opacity: 0.25; stroke-linecap: square"/>
   </g>
   <g id="line2d_45">
    <path d="M 89.318826 170.642628 
L 89.318826 170.642628 
L 170.852544 170.642628 
L 170.852544 171.010849 
L 201.149865 171.010849 
L 201.149865 167.710813 
L 253.439064 167.710813 
L 253.439064 166.153389 
L 278.58935 166.153389 
L 278.58935 165.0238 
L 304.207549 165.0238 
L 304.207549 148.588575 
L 355.490736 148.588575 
L 355.490736 129.569636 
L 377.868642 129.569636 
L 377.868642 109.902927 
L 398.140942 109.902927 
L 398.140942 97.698571 
L 410.072706 97.698571 
L 410.072706 88.24013 
L 419.196996 88.24013 
L 419.196996 75.807638 
L 431.117061 75.807638 
L 431.117061 67.647843 
L 438.779125 67.647843 
L 438.779125 66.156273 
L 440.253049 66.156273 
" clip-path="url(#pf27848e522)" style="fill: none; stroke: #98d594; stroke-opacity: 0.25; stroke-linecap: square"/>
   </g>
   <g id="line2d_46">
    <path d="M 89.318826 148.996922 
L 89.318826 148.996922 
L 170.852544 148.996922 
L 170.852544 156.624904 
L 201.149865 156.624904 
L 201.149865 160.463893 
L 253.439064 160.463893 
L 253.439064 160.664756 
L 278.58935 160.664756 
L 278.58935 158.551691 
L 304.207549 158.551691 
L 304.207549 140.868618 
L 355.490736 140.868618 
L 355.490736 125.134242 
L 377.868642 125.134242 
L 377.868642 104.470224 
L 398.140942 104.470224 
L 398.140942 88.481327 
L 410.072706 88.481327 
L 410.072706 74.835613 
L 419.196996 74.835613 
L 419.196996 54.704138 
L 431.117061 54.704138 
L 431.117061 40.724895 
L 438.779125 40.724895 
L 438.779125 37.974229 
L 440.253049 37.974229 
" clip-path="url(#pf27848e522)" style="fill: none; stroke: #98d594; stroke-opacity: 0.25; stroke-linecap: square"/>
   </g>
   <g id="line2d_47">
    <path d="M 89.318826 145.531194 
L 89.318826 145.531194 
L 170.852544 145.531194 
L 170.852544 151.82248 
L 201.149865 151.82248 
L 201.149865 160.932408 
L 253.439064 160.932408 
L 253.439064 164.442058 
L 278.58935 164.442058 
L 278.58935 166.194998 
L 304.207549 166.194998 
L 304.207549 142.219082 
L 355.490736 142.219082 
L 355.490736 120.123843 
L 377.868642 120.123843 
L 377.868642 104.025357 
L 398.140942 104.025357 
L 398.140942 96.751172 
L 410.072706 96.751172 
L 410.072706 91.759832 
L 419.196996 91.759832 
L 419.196996 85.868039 
L 431.117061 85.868039 
L 431.117061 82.614186 
L 438.779125 82.614186 
L 438.779125 82.030142 
L 440.253049 82.030142 
" clip-path="url(#pf27848e522)" style="fill: none; stroke: #98d594; stroke-opacity: 0.25; stroke-linecap: square"/>
   </g>
   <g id="line2d_48">
    <path d="M 89.318826 164.336221 
L 89.318826 164.336221 
L 170.852544 164.336221 
L 170.852544 163.450788 
L 201.149865 163.450788 
L 201.149865 161.94051 
L 253.439064 161.94051 
L 253.439064 160.423369 
L 278.58935 160.423369 
L 278.58935 158.020433 
L 304.207549 158.020433 
L 304.207549 134.30223 
L 355.490736 134.30223 
L 355.490736 113.743701 
L 377.868642 113.743701 
L 377.868642 99.765245 
L 398.140942 99.765245 
L 398.140942 93.315437 
L 410.072706 93.315437 
L 410.072706 88.768977 
L 419.196996 88.768977 
L 419.196996 83.468641 
L 431.117061 83.468641 
L 431.117061 80.311247 
L 438.779125 80.311247 
L 438.779125 79.866312 
L 440.253049 79.866312 
" clip-path="url(#pf27848e522)" style="fill: none; stroke: #98d594; stroke-opacity: 0.25; stroke-linecap: square"/>
   </g>
   <g id="line2d_49">
    <path d="M 89.318826 124.085148 
L 89.318826 124.085148 
L 170.852544 124.085148 
L 170.852544 133.859972 
L 201.149865 133.859972 
L 201.149865 150.535517 
L 253.439064 150.535517 
L 253.439064 158.262862 
L 278.58935 158.262862 
L 278.58935 164.636757 
L 304.207549 164.636757 
L 304.207549 151.873711 
L 355.490736 151.873711 
L 355.490736 125.363255 
L 377.868642 125.363255 
L 377.868642 97.759486 
L 398.140942 97.759486 
L 398.140942 80.248435 
L 410.072706 80.248435 
L 410.072706 65.781357 
L 419.196996 65.781357 
L 419.196996 45.684364 
L 431.117061 45.684364 
L 431.117061 32.470708 
L 438.779125 32.470708 
L 438.779125 30.038848 
L 440.253049 30.038848 
" clip-path="url(#pf27848e522)" style="fill: none; stroke: #98d594; stroke-opacity: 0.25; stroke-linecap: square"/>
   </g>
   <g id="line2d_50">
    <path d="M 89.318826 134.948388 
L 89.318826 134.948388 
L 170.852544 134.948388 
L 170.852544 142.929597 
L 201.149865 142.929597 
L 201.149865 156.290415 
L 253.439064 156.290415 
L 253.439064 161.732594 
L 278.58935 161.732594 
L 278.58935 167.674055 
L 304.207549 167.674055 
L 304.207549 150.2029 
L 355.490736 150.2029 
L 355.490736 122.747232 
L 377.868642 122.747232 
L 377.868642 97.850187 
L 398.140942 97.850187 
L 398.140942 85.157427 
L 410.072706 85.157427 
L 410.072706 76.430302 
L 419.196996 76.430302 
L 419.196996 65.758061 
L 431.117061 65.758061 
L 431.117061 59.672035 
L 438.779125 59.672035 
L 438.779125 58.62876 
L 440.253049 58.62876 
" clip-path="url(#pf27848e522)" style="fill: none; stroke: #98d594; stroke-opacity: 0.25; stroke-linecap: square"/>
   </g>
   <g id="line2d_51">
    <path d="M 89.318826 156.181782 
L 89.318826 156.181782 
L 170.852544 156.181782 
L 170.852544 155.230585 
L 201.149865 155.230585 
L 201.149865 154.656768 
L 253.439064 154.656768 
L 253.439064 157.989608 
L 278.58935 157.989608 
L 278.58935 161.777964 
L 304.207549 161.777964 
L 304.207549 152.166664 
L 355.490736 152.166664 
L 355.490736 120.701505 
L 377.868642 120.701505 
L 377.868642 94.922655 
L 398.140942 94.922655 
L 398.140942 84.561231 
L 410.072706 84.561231 
L 410.072706 78.241005 
L 419.196996 78.241005 
L 419.196996 71.718783 
L 431.117061 71.718783 
L 431.117061 68.362264 
L 438.779125 68.362264 
L 438.779125 67.855175 
L 440.253049 67.855175 
" clip-path="url(#pf27848e522)" style="fill: none; stroke: #98d594; stroke-opacity: 0.25; stroke-linecap: square"/>
   </g>
   <g id="line2d_52">
    <path d="M 89.318826 138.550311 
L 89.318826 138.550311 
L 170.852544 138.550311 
L 170.852544 142.655942 
L 201.149865 142.655942 
L 201.149865 149.89821 
L 253.439064 149.89821 
L 253.439064 156.187186 
L 278.58935 156.187186 
L 278.58935 162.556324 
L 304.207549 162.556324 
L 304.207549 155.605513 
L 355.490736 155.605513 
L 355.490736 128.062527 
L 377.868642 128.062527 
L 377.868642 105.339429 
L 398.140942 105.339429 
L 398.140942 94.957895 
L 410.072706 94.957895 
L 410.072706 88.176992 
L 419.196996 88.176992 
L 419.196996 80.534758 
L 431.117061 80.534758 
L 431.117061 76.297869 
L 438.779125 76.297869 
L 438.779125 75.422435 
L 440.253049 75.422435 
" clip-path="url(#pf27848e522)" style="fill: none; stroke: #98d594; stroke-opacity: 0.25; stroke-linecap: square"/>
   </g>
   <g id="line2d_53">
    <path d="M 89.318826 109.520011 
L 89.318826 109.520011 
L 170.852544 109.520011 
L 170.852544 119.977721 
L 201.149865 119.977721 
L 201.149865 137.755064 
L 253.439064 137.755064 
L 253.439064 146.401406 
L 278.58935 146.401406 
L 278.58935 155.826568 
L 304.207549 155.826568 
L 304.207549 152.119015 
L 355.490736 152.119015 
L 355.490736 125.151394 
L 377.868642 125.151394 
L 377.868642 100.227081 
L 398.140942 100.227081 
L 398.140942 87.814011 
L 410.072706 87.814011 
L 410.072706 79.321571 
L 419.196996 79.321571 
L 419.196996 69.193546 
L 431.117061 69.193546 
L 431.117061 63.404009 
L 438.779125 63.404009 
L 438.779125 62.380903 
L 440.253049 62.380903 
" clip-path="url(#pf27848e522)" style="fill: none; stroke: #98d594; stroke-opacity: 0.25; stroke-linecap: square"/>
   </g>
   <g id="line2d_54">
    <path d="M 89.318826 158.477107 
L 89.318826 158.477107 
L 170.852544 158.477107 
L 170.852544 167.060771 
L 201.149865 167.060771 
L 201.149865 175.195083 
L 253.439064 175.195083 
L 253.439064 176.46076 
L 278.58935 176.46076 
L 278.58935 175.774678 
L 304.207549 175.774678 
L 304.207549 145.854156 
L 355.490736 145.854156 
L 355.490736 121.142748 
L 377.868642 121.142748 
L 377.868642 100.611782 
L 398.140942 100.611782 
L 398.140942 89.369492 
L 410.072706 89.369492 
L 410.072706 81.302592 
L 419.196996 81.302592 
L 419.196996 71.225663 
L 431.117061 71.225663 
L 431.117061 65.41593 
L 438.779125 65.41593 
L 438.779125 64.315091 
L 440.253049 64.315091 
" clip-path="url(#pf27848e522)" style="fill: none; stroke: #98d594; stroke-opacity: 0.25; stroke-linecap: square"/>
   </g>
   <g id="line2d_55">
    <path d="M 89.318826 136.698191 
L 89.318826 136.698191 
L 170.852544 136.698191 
L 170.852544 143.907591 
L 201.149865 143.907591 
L 201.149865 154.513401 
L 253.439064 154.513401 
L 253.439064 159.955715 
L 278.58935 159.955715 
L 278.58935 165.311929 
L 304.207549 165.311929 
L 304.207549 150.285822 
L 355.490736 150.285822 
L 355.490736 119.024505 
L 377.868642 119.024505 
L 377.868642 90.779193 
L 398.140942 90.779193 
L 398.140942 75.223933 
L 410.072706 75.223933 
L 410.072706 62.902638 
L 419.196996 62.902638 
L 419.196996 46.908829 
L 431.117061 46.908829 
L 431.117061 36.715175 
L 438.779125 36.715175 
L 438.779125 34.88579 
L 440.253049 34.88579 
" clip-path="url(#pf27848e522)" style="fill: none; stroke: #98d594; stroke-opacity: 0.25; stroke-linecap: square"/>
   </g>
   <g id="line2d_56">
    <path d="M 89.318826 159.466328 
L 89.318826 159.466328 
L 170.852544 159.466328 
L 170.852544 164.202089 
L 201.149865 164.202089 
L 201.149865 163.899562 
L 253.439064 163.899562 
L 253.439064 159.656932 
L 278.58935 159.656932 
L 278.58935 152.622286 
L 304.207549 152.622286 
L 304.207549 120.588026 
L 355.490736 120.588026 
L 355.490736 99.417656 
L 377.868642 99.417656 
L 377.868642 85.570455 
L 398.140942 85.570455 
L 398.140942 79.527563 
L 410.072706 79.527563 
L 410.072706 75.59396 
L 419.196996 75.59396 
L 419.196996 71.534037 
L 431.117061 71.534037 
L 431.117061 69.416499 
L 438.779125 69.416499 
L 438.779125 69.092623 
L 440.253049 69.092623 
" clip-path="url(#pf27848e522)" style="fill: none; stroke: #98d594; stroke-opacity: 0.25; stroke-linecap: square"/>
   </g>
   <g id="line2d_57">
    <path d="M 89.318826 154.401435 
L 89.318826 154.401435 
L 170.852544 154.401435 
L 170.852544 160.908012 
L 201.149865 160.908012 
L 201.149865 168.36447 
L 253.439064 168.36447 
L 253.439064 168.29894 
L 278.58935 168.29894 
L 278.58935 165.060854 
L 304.207549 165.060854 
L 304.207549 137.413283 
L 355.490736 137.413283 
L 355.490736 117.447503 
L 377.868642 117.447503 
L 377.868642 96.951958 
L 398.140942 96.951958 
L 398.140942 83.99999 
L 410.072706 83.99999 
L 410.072706 73.034538 
L 419.196996 73.034538 
L 419.196996 58.745531 
L 431.117061 58.745531 
L 431.117061 49.40882 
L 438.779125 49.40882 
L 438.779125 47.531376 
L 440.253049 47.531376 
" clip-path="url(#pf27848e522)" style="fill: none; stroke: #98d594; stroke-opacity: 0.25; stroke-linecap: square"/>
   </g>
   <g id="line2d_58">
    <path d="M 89.318826 154.466547 
L 89.318826 154.466547 
L 170.852544 154.466547 
L 170.852544 157.712085 
L 201.149865 157.712085 
L 201.149865 162.707538 
L 253.439064 162.707538 
L 253.439064 164.698048 
L 278.58935 164.698048 
L 278.58935 166.723179 
L 304.207549 166.723179 
L 304.207549 153.188136 
L 355.490736 153.188136 
L 355.490736 125.859757 
L 377.868642 125.859757 
L 377.868642 102.077323 
L 398.140942 102.077323 
L 398.140942 90.474821 
L 410.072706 90.474821 
L 410.072706 82.762953 
L 419.196996 82.762953 
L 419.196996 73.342408 
L 431.117061 73.342408 
L 431.117061 68.093257 
L 438.779125 68.093257 
L 438.779125 67.251436 
L 440.253049 67.251436 
" clip-path="url(#pf27848e522)" style="fill: none; stroke: #98d594; stroke-opacity: 0.25; stroke-linecap: square"/>
   </g>
   <g id="line2d_59">
    <path d="M 89.318826 130.771367 
L 89.318826 130.771367 
L 170.852544 130.771367 
L 170.852544 133.721844 
L 201.149865 133.721844 
L 201.149865 143.576939 
L 253.439064 143.576939 
L 253.439064 153.412389 
L 278.58935 153.412389 
L 278.58935 167.734538 
L 304.207549 167.734538 
L 304.207549 170.137769 
L 355.490736 170.137769 
L 355.490736 128.816964 
L 377.868642 128.816964 
L 377.868642 98.464505 
L 398.140942 98.464505 
L 398.140942 86.440544 
L 410.072706 86.440544 
L 410.072706 78.944724 
L 419.196996 78.944724 
L 419.196996 70.988906 
L 431.117061 70.988906 
L 431.117061 66.71813 
L 438.779125 66.71813 
L 438.779125 65.888386 
L 440.253049 65.888386 
" clip-path="url(#pf27848e522)" style="fill: none; stroke: #98d594; stroke-opacity: 0.25; stroke-linecap: square"/>
   </g>
   <g id="line2d_60">
    <path d="M 89.318826 129.634097 
L 89.318826 129.634097 
L 170.852544 129.634097 
L 170.852544 137.953323 
L 201.149865 137.953323 
L 201.149865 150.421085 
L 253.439064 150.421085 
L 253.439064 157.555518 
L 278.58935 157.555518 
L 278.58935 165.395542 
L 304.207549 165.395542 
L 304.207549 150.81847 
L 355.490736 150.81847 
L 355.490736 120.65589 
L 377.868642 120.65589 
L 377.868642 98.204666 
L 398.140942 98.204666 
L 398.140942 88.248341 
L 410.072706 88.248341 
L 410.072706 81.673665 
L 419.196996 81.673665 
L 419.196996 73.914248 
L 431.117061 73.914248 
L 431.117061 69.144253 
L 438.779125 69.144253 
L 438.779125 68.347871 
L 440.253049 68.347871 
" clip-path="url(#pf27848e522)" style="fill: none; stroke: #98d594; stroke-opacity: 0.25; stroke-linecap: square"/>
   </g>
   <g id="line2d_61">
    <path d="M 89.318826 148.37505 
L 89.318826 148.37505 
L 170.852544 148.37505 
L 170.852544 151.242693 
L 201.149865 151.242693 
L 201.149865 150.371848 
L 253.439064 150.371848 
L 253.439064 147.60222 
L 278.58935 147.60222 
L 278.58935 144.575248 
L 304.207549 144.575248 
L 304.207549 124.966646 
L 355.490736 124.966646 
L 355.490736 107.925421 
L 377.868642 107.925421 
L 377.868642 92.196525 
L 398.140942 92.196525 
L 398.140942 81.86682 
L 410.072706 81.86682 
L 410.072706 73.567933 
L 419.196996 73.567933 
L 419.196996 62.896921 
L 431.117061 62.896921 
L 431.117061 56.184698 
L 438.779125 56.184698 
L 438.779125 55.05961 
L 440.253049 55.05961 
" clip-path="url(#pf27848e522)" style="fill: none; stroke: #98d594; stroke-opacity: 0.25; stroke-linecap: square"/>
   </g>
   <g id="line2d_62">
    <path d="M 89.318826 162.489651 
L 89.318826 162.489651 
L 170.852544 162.489651 
L 170.852544 161.629873 
L 201.149865 161.629873 
L 201.149865 160.882523 
L 253.439064 160.882523 
L 253.439064 164.121723 
L 278.58935 164.121723 
L 278.58935 169.987291 
L 304.207549 169.987291 
L 304.207549 156.523598 
L 355.490736 156.523598 
L 355.490736 121.020377 
L 377.868642 121.020377 
L 377.868642 97.052791 
L 398.140942 97.052791 
L 398.140942 87.923858 
L 410.072706 87.923858 
L 410.072706 82.820645 
L 419.196996 82.820645 
L 419.196996 77.55463 
L 431.117061 77.55463 
L 431.117061 75.218019 
L 438.779125 75.218019 
L 438.779125 74.792819 
L 440.253049 74.792819 
" clip-path="url(#pf27848e522)" style="fill: none; stroke: #98d594; stroke-opacity: 0.25; stroke-linecap: square"/>
   </g>
   <g id="line2d_63">
    <path d="M 89.318826 128.943083 
L 89.318826 128.943083 
L 170.852544 128.943083 
L 170.852544 136.968808 
L 201.149865 136.968808 
L 201.149865 151.665338 
L 253.439064 151.665338 
L 253.439064 159.577968 
L 278.58935 159.577968 
L 278.58935 169.983692 
L 304.207549 169.983692 
L 304.207549 164.427526 
L 355.490736 164.427526 
L 355.490736 127.308785 
L 377.868642 127.308785 
L 377.868642 101.043982 
L 398.140942 101.043982 
L 398.140942 91.284328 
L 410.072706 91.284328 
L 410.072706 85.645527 
L 419.196996 85.645527 
L 419.196996 80.191912 
L 431.117061 80.191912 
L 431.117061 77.277756 
L 438.779125 77.277756 
L 438.779125 76.817511 
L 440.253049 76.817511 
" clip-path="url(#pf27848e522)" style="fill: none; stroke: #98d594; stroke-opacity: 0.25; stroke-linecap: square"/>
   </g>
   <g id="line2d_64">
    <path d="M 89.318826 137.714125 
L 89.318826 137.714125 
L 170.852544 137.714125 
L 170.852544 141.469344 
L 201.149865 141.469344 
L 201.149865 150.956023 
L 253.439064 150.956023 
L 253.439064 158.716173 
L 278.58935 158.716173 
L 278.58935 169.557105 
L 304.207549 169.557105 
L 304.207549 166.708821 
L 355.490736 166.708821 
L 355.490736 125.10018 
L 377.868642 125.10018 
L 377.868642 96.812653 
L 398.140942 96.812653 
L 398.140942 84.680526 
L 410.072706 84.680526 
L 410.072706 77.171492 
L 419.196996 77.171492 
L 419.196996 68.759889 
L 431.117061 68.759889 
L 431.117061 63.980445 
L 438.779125 63.980445 
L 438.779125 63.211972 
L 440.253049 63.211972 
" clip-path="url(#pf27848e522)" style="fill: none; stroke: #98d594; stroke-opacity: 0.25; stroke-linecap: square"/>
   </g>
   <g id="line2d_65">
    <path d="M 89.318826 132.919191 
L 89.318826 132.919191 
L 170.852544 132.919191 
L 170.852544 139.398704 
L 201.149865 139.398704 
L 201.149865 149.719672 
L 253.439064 149.719672 
L 253.439064 155.389684 
L 278.58935 155.389684 
L 278.58935 160.206716 
L 304.207549 160.206716 
L 304.207549 144.0234 
L 355.490736 144.0234 
L 355.490736 118.151052 
L 377.868642 118.151052 
L 377.868642 95.420451 
L 398.140942 95.420451 
L 398.140942 84.428642 
L 410.072706 84.428642 
L 410.072706 76.559387 
L 419.196996 76.559387 
L 419.196996 67.955694 
L 431.117061 67.955694 
L 431.117061 63.270444 
L 438.779125 63.270444 
L 438.779125 62.403012 
L 440.253049 62.403012 
" clip-path="url(#pf27848e522)" style="fill: none; stroke: #98d594; stroke-opacity: 0.25; stroke-linecap: square"/>
   </g>
   <g id="line2d_66">
    <path d="M 89.318826 125.237696 
L 89.318826 125.237696 
L 170.852544 125.237696 
L 170.852544 130.941528 
L 201.149865 130.941528 
L 201.149865 141.496497 
L 253.439064 141.496497 
L 253.439064 150.038104 
L 278.58935 150.038104 
L 278.58935 161.014937 
L 304.207549 161.014937 
L 304.207549 163.250699 
L 355.490736 163.250699 
L 355.490736 126.8463 
L 377.868642 126.8463 
L 377.868642 96.330796 
L 398.140942 96.330796 
L 398.140942 84.685876 
L 410.072706 84.685876 
L 410.072706 78.535301 
L 419.196996 78.535301 
L 419.196996 72.180378 
L 431.117061 72.180378 
L 431.117061 69.532407 
L 438.779125 69.532407 
L 438.779125 69.041553 
L 440.253049 69.041553 
" clip-path="url(#pf27848e522)" style="fill: none; stroke: #98d594; stroke-opacity: 0.25; stroke-linecap: square"/>
   </g>
   <g id="line2d_67">
    <path d="M 89.318826 157.830605 
L 89.318826 157.830605 
L 170.852544 157.830605 
L 170.852544 156.501646 
L 201.149865 156.501646 
L 201.149865 154.94026 
L 253.439064 154.94026 
L 253.439064 154.969886 
L 278.58935 154.969886 
L 278.58935 152.883384 
L 304.207549 152.883384 
L 304.207549 132.589932 
L 355.490736 132.589932 
L 355.490736 108.753005 
L 377.868642 108.753005 
L 377.868642 85.224617 
L 398.140942 85.224617 
L 398.140942 71.581285 
L 410.072706 71.581285 
L 410.072706 61.831823 
L 419.196996 61.831823 
L 419.196996 48.860808 
L 431.117061 48.860808 
L 431.117061 41.423436 
L 438.779125 41.423436 
L 438.779125 39.883158 
L 440.253049 39.883158 
" clip-path="url(#pf27848e522)" style="fill: none; stroke: #98d594; stroke-opacity: 0.25; stroke-linecap: square"/>
   </g>
   <g id="line2d_68">
    <path d="M 89.318826 144.135734 
L 89.318826 144.135734 
L 170.852544 144.135734 
L 170.852544 150.30226 
L 201.149865 150.30226 
L 201.149865 160.192611 
L 253.439064 160.192611 
L 253.439064 163.317798 
L 278.58935 163.317798 
L 278.58935 163.756869 
L 304.207549 163.756869 
L 304.207549 143.568273 
L 355.490736 143.568273 
L 355.490736 123.582484 
L 377.868642 123.582484 
L 377.868642 105.20052 
L 398.140942 105.20052 
L 398.140942 94.276199 
L 410.072706 94.276199 
L 410.072706 86.329355 
L 419.196996 86.329355 
L 419.196996 76.574237 
L 431.117061 76.574237 
L 431.117061 71.024438 
L 438.779125 71.024438 
L 438.779125 69.940489 
L 440.253049 69.940489 
" clip-path="url(#pf27848e522)" style="fill: none; stroke: #98d594; stroke-opacity: 0.25; stroke-linecap: square"/>
   </g>
   <g id="line2d_69">
    <path d="M 89.318826 165.842375 
L 89.318826 165.842375 
L 170.852544 165.842375 
L 170.852544 161.653267 
L 201.149865 161.653267 
L 201.149865 153.788963 
L 253.439064 153.788963 
L 253.439064 150.177508 
L 278.58935 150.177508 
L 278.58935 149.189223 
L 304.207549 149.189223 
L 304.207549 139.854622 
L 355.490736 139.854622 
L 355.490736 119.106973 
L 377.868642 119.106973 
L 377.868642 94.496908 
L 398.140942 94.496908 
L 398.140942 80.031569 
L 410.072706 80.031569 
L 410.072706 68.174471 
L 419.196996 68.174471 
L 419.196996 53.32994 
L 431.117061 53.32994 
L 431.117061 44.715441 
L 438.779125 44.715441 
L 438.779125 43.21972 
L 440.253049 43.21972 
" clip-path="url(#pf27848e522)" style="fill: none; stroke: #98d594; stroke-opacity: 0.25; stroke-linecap: square"/>
   </g>
   <g id="line2d_70">
    <path d="M 89.318826 133.276843 
L 89.318826 133.276843 
L 170.852544 133.276843 
L 170.852544 138.412778 
L 201.149865 138.412778 
L 201.149865 149.007076 
L 253.439064 149.007076 
L 253.439064 156.885223 
L 278.58935 156.885223 
L 278.58935 166.499504 
L 304.207549 166.499504 
L 304.207549 162.991269 
L 355.490736 162.991269 
L 355.490736 133.711477 
L 377.868642 133.711477 
L 377.868642 108.671339 
L 398.140942 108.671339 
L 398.140942 97.681152 
L 410.072706 97.681152 
L 410.072706 90.673897 
L 419.196996 90.673897 
L 419.196996 82.496988 
L 431.117061 82.496988 
L 431.117061 78.47831 
L 438.779125 78.47831 
L 438.779125 77.712834 
L 440.253049 77.712834 
" clip-path="url(#pf27848e522)" style="fill: none; stroke: #98d594; stroke-opacity: 0.25; stroke-linecap: square"/>
   </g>
   <g id="line2d_71">
    <path d="M 89.318826 139.369224 
L 89.318826 139.369224 
L 170.852544 139.369224 
L 170.852544 142.825534 
L 201.149865 142.825534 
L 201.149865 146.8652 
L 253.439064 146.8652 
L 253.439064 150.804783 
L 278.58935 150.804783 
L 278.58935 156.660644 
L 304.207549 156.660644 
L 304.207549 149.07882 
L 355.490736 149.07882 
L 355.490736 123.676577 
L 377.868642 123.676577 
L 377.868642 101.823668 
L 398.140942 101.823668 
L 398.140942 92.885007 
L 410.072706 92.885007 
L 410.072706 87.139589 
L 419.196996 87.139589 
L 419.196996 81.17701 
L 431.117061 81.17701 
L 431.117061 77.783322 
L 438.779125 77.783322 
L 438.779125 77.228471 
L 440.253049 77.228471 
" clip-path="url(#pf27848e522)" style="fill: none; stroke: #98d594; stroke-opacity: 0.25; stroke-linecap: square"/>
   </g>
   <g id="line2d_72">
    <path d="M 89.318826 145.163164 
L 89.318826 145.163164 
L 170.852544 145.163164 
L 170.852544 150.442376 
L 201.149865 150.442376 
L 201.149865 156.135629 
L 253.439064 156.135629 
L 253.439064 158.231683 
L 278.58935 158.231683 
L 278.58935 161.719757 
L 304.207549 161.719757 
L 304.207549 141.637053 
L 355.490736 141.637053 
L 355.490736 115.132209 
L 377.868642 115.132209 
L 377.868642 94.353921 
L 398.140942 94.353921 
L 398.140942 85.596544 
L 410.072706 85.596544 
L 410.072706 80.063288 
L 419.196996 80.063288 
L 419.196996 73.901018 
L 431.117061 73.901018 
L 431.117061 70.538585 
L 438.779125 70.538585 
L 438.779125 69.860816 
L 440.253049 69.860816 
" clip-path="url(#pf27848e522)" style="fill: none; stroke: #98d594; stroke-opacity: 0.25; stroke-linecap: square"/>
   </g>
   <g id="line2d_73">
    <path d="M 89.318826 159.69891 
L 89.318826 159.69891 
L 170.852544 159.69891 
L 170.852544 158.49309 
L 201.149865 158.49309 
L 201.149865 153.286937 
L 253.439064 153.286937 
L 253.439064 150.29506 
L 278.58935 150.29506 
L 278.58935 146.48276 
L 304.207549 146.48276 
L 304.207549 130.460526 
L 355.490736 130.460526 
L 355.490736 116.889296 
L 377.868642 116.889296 
L 377.868642 98.349644 
L 398.140942 98.349644 
L 398.140942 84.51137 
L 410.072706 84.51137 
L 410.072706 70.906893 
L 419.196996 70.906893 
L 419.196996 51.0063 
L 431.117061 51.0063 
L 431.117061 37.115399 
L 438.779125 37.115399 
L 438.779125 34.316886 
L 440.253049 34.316886 
" clip-path="url(#pf27848e522)" style="fill: none; stroke: #98d594; stroke-opacity: 0.25; stroke-linecap: square"/>
   </g>
   <g id="line2d_74">
    <path d="M 89.318826 165.937084 
L 89.318826 165.937084 
L 170.852544 165.937084 
L 170.852544 166.314487 
L 201.149865 166.314487 
L 201.149865 163.621842 
L 253.439064 163.621842 
L 253.439064 162.569827 
L 278.58935 162.569827 
L 278.58935 163.046491 
L 304.207549 163.046491 
L 304.207549 146.443503 
L 355.490736 146.443503 
L 355.490736 127.861592 
L 377.868642 127.861592 
L 377.868642 111.490803 
L 398.140942 111.490803 
L 398.140942 102.833788 
L 410.072706 102.833788 
L 410.072706 96.909894 
L 419.196996 96.909894 
L 419.196996 88.908791 
L 431.117061 88.908791 
L 431.117061 83.803163 
L 438.779125 83.803163 
L 438.779125 82.927746 
L 440.253049 82.927746 
" clip-path="url(#pf27848e522)" style="fill: none; stroke: #98d594; stroke-opacity: 0.25; stroke-linecap: square"/>
   </g>
   <g id="line2d_75">
    <path d="M 89.318826 154.344129 
L 89.318826 154.344129 
L 170.852544 154.344129 
L 170.852544 160.053711 
L 201.149865 160.053711 
L 201.149865 167.416012 
L 253.439064 167.416012 
L 253.439064 169.270091 
L 278.58935 169.270091 
L 278.58935 169.535558 
L 304.207549 169.535558 
L 304.207549 150.369848 
L 355.490736 150.369848 
L 355.490736 127.56548 
L 377.868642 127.56548 
L 377.868642 102.380374 
L 398.140942 102.380374 
L 398.140942 85.341727 
L 410.072706 85.341727 
L 410.072706 70.840923 
L 419.196996 70.840923 
L 419.196996 50.628743 
L 431.117061 50.628743 
L 431.117061 36.853879 
L 438.779125 36.853879 
L 438.779125 34.085429 
L 440.253049 34.085429 
" clip-path="url(#pf27848e522)" style="fill: none; stroke: #98d594; stroke-opacity: 0.25; stroke-linecap: square"/>
   </g>
   <g id="line2d_76">
    <path d="M 89.318826 162.44669 
L 89.318826 162.44669 
L 170.852544 162.44669 
L 170.852544 165.071432 
L 201.149865 165.071432 
L 201.149865 162.445844 
L 253.439064 162.445844 
L 253.439064 158.469966 
L 278.58935 158.469966 
L 278.58935 151.23633 
L 304.207549 151.23633 
L 304.207549 129.320146 
L 355.490736 129.320146 
L 355.490736 113.511863 
L 377.868642 113.511863 
L 377.868642 96.826291 
L 398.140942 96.826291 
L 398.140942 85.889574 
L 410.072706 85.889574 
L 410.072706 77.028724 
L 419.196996 77.028724 
L 419.196996 65.108669 
L 431.117061 65.108669 
L 431.117061 57.601613 
L 438.779125 57.601613 
L 438.779125 56.090857 
L 440.253049 56.090857 
" clip-path="url(#pf27848e522)" style="fill: none; stroke: #98d594; stroke-opacity: 0.25; stroke-linecap: square"/>
   </g>
   <g id="line2d_77">
    <path d="M 89.318826 137.825815 
L 89.318826 137.825815 
L 170.852544 137.825815 
L 170.852544 140.477057 
L 201.149865 140.477057 
L 201.149865 143.041727 
L 253.439064 143.041727 
L 253.439064 143.675814 
L 278.58935 143.675814 
L 278.58935 142.908576 
L 304.207549 142.908576 
L 304.207549 127.152403 
L 355.490736 127.152403 
L 355.490736 114.249535 
L 377.868642 114.249535 
L 377.868642 105.259565 
L 398.140942 105.259565 
L 398.140942 101.1118 
L 410.072706 101.1118 
L 410.072706 98.54 
L 419.196996 98.54 
L 419.196996 95.755028 
L 431.117061 95.755028 
L 431.117061 94.545522 
L 438.779125 94.545522 
L 438.779125 94.300389 
L 440.253049 94.300389 
" clip-path="url(#pf27848e522)" style="fill: none; stroke: #98d594; stroke-opacity: 0.25; stroke-linecap: square"/>
   </g>
   <g id="line2d_78">
    <path d="M 89.318826 137.904288 
L 89.318826 137.904288 
L 170.852544 137.904288 
L 170.852544 142.527351 
L 201.149865 142.527351 
L 201.149865 151.170775 
L 253.439064 151.170775 
L 253.439064 156.409886 
L 278.58935 156.409886 
L 278.58935 162.887748 
L 304.207549 162.887748 
L 304.207549 159.973724 
L 355.490736 159.973724 
L 355.490736 129.323598 
L 377.868642 129.323598 
L 377.868642 99.195599 
L 398.140942 99.195599 
L 398.140942 86.243524 
L 410.072706 86.243524 
L 410.072706 78.643701 
L 419.196996 78.643701 
L 419.196996 70.714096 
L 431.117061 70.714096 
L 431.117061 66.825595 
L 438.779125 66.825595 
L 438.779125 66.147898 
L 440.253049 66.147898 
" clip-path="url(#pf27848e522)" style="fill: none; stroke: #98d594; stroke-opacity: 0.25; stroke-linecap: square"/>
   </g>
   <g id="line2d_79">
    <path d="M 89.318826 156.273024 
L 89.318826 156.273024 
L 170.852544 156.273024 
L 170.852544 158.989632 
L 201.149865 158.989632 
L 201.149865 159.692183 
L 253.439064 159.692183 
L 253.439064 158.597739 
L 278.58935 158.597739 
L 278.58935 154.871257 
L 304.207549 154.871257 
L 304.207549 131.904385 
L 355.490736 131.904385 
L 355.490736 113.159799 
L 377.868642 113.159799 
L 377.868642 94.34567 
L 398.140942 94.34567 
L 398.140942 82.467379 
L 410.072706 82.467379 
L 410.072706 72.603024 
L 419.196996 72.603024 
L 419.196996 60.161959 
L 431.117061 60.161959 
L 431.117061 52.230512 
L 438.779125 52.230512 
L 438.779125 50.602178 
L 440.253049 50.602178 
" clip-path="url(#pf27848e522)" style="fill: none; stroke: #98d594; stroke-opacity: 0.25; stroke-linecap: square"/>
   </g>
   <g id="line2d_80">
    <path d="M 89.318826 148.386767 
L 89.318826 148.386767 
L 170.852544 148.386767 
L 170.852544 151.607807 
L 201.149865 151.607807 
L 201.149865 156.53661 
L 253.439064 156.53661 
L 253.439064 160.494265 
L 278.58935 160.494265 
L 278.58935 165.283003 
L 304.207549 165.283003 
L 304.207549 149.118351 
L 355.490736 149.118351 
L 355.490736 120.148494 
L 377.868642 120.148494 
L 377.868642 97.115301 
L 398.140942 97.115301 
L 398.140942 85.430025 
L 410.072706 85.430025 
L 410.072706 76.672458 
L 419.196996 76.672458 
L 419.196996 67.040093 
L 431.117061 67.040093 
L 431.117061 61.770533 
L 438.779125 61.770533 
L 438.779125 60.856818 
L 440.253049 60.856818 
" clip-path="url(#pf27848e522)" style="fill: none; stroke: #98d594; stroke-opacity: 0.25; stroke-linecap: square"/>
   </g>
   <g id="line2d_81">
    <path d="M 89.318826 154.361366 
L 89.318826 154.361366 
L 170.852544 154.361366 
L 170.852544 164.267972 
L 201.149865 164.267972 
L 201.149865 172.856306 
L 253.439064 172.856306 
L 253.439064 175.165899 
L 278.58935 175.165899 
L 278.58935 176.117888 
L 304.207549 176.117888 
L 304.207549 146.072753 
L 355.490736 146.072753 
L 355.490736 118.633358 
L 377.868642 118.633358 
L 377.868642 96.455172 
L 398.140942 96.455172 
L 398.140942 84.086517 
L 410.072706 84.086517 
L 410.072706 75.099422 
L 419.196996 75.099422 
L 419.196996 63.851382 
L 431.117061 63.851382 
L 431.117061 57.256952 
L 438.779125 57.256952 
L 438.779125 56.094667 
L 440.253049 56.094667 
" clip-path="url(#pf27848e522)" style="fill: none; stroke: #98d594; stroke-opacity: 0.25; stroke-linecap: square"/>
   </g>
   <g id="line2d_82">
    <path d="M 89.318826 157.653364 
L 89.318826 157.653364 
L 170.852544 157.653364 
L 170.852544 164.112729 
L 201.149865 164.112729 
L 201.149865 171.450138 
L 253.439064 171.450138 
L 253.439064 173.423177 
L 278.58935 173.423177 
L 278.58935 173.32389 
L 304.207549 173.32389 
L 304.207549 147.607744 
L 355.490736 147.607744 
L 355.490736 120.760873 
L 377.868642 120.760873 
L 377.868642 99.250522 
L 398.140942 99.250522 
L 398.140942 87.523787 
L 410.072706 87.523787 
L 410.072706 78.637185 
L 419.196996 78.637185 
L 419.196996 67.086545 
L 431.117061 67.086545 
L 431.117061 60.136479 
L 438.779125 60.136479 
L 438.779125 58.965588 
L 440.253049 58.965588 
" clip-path="url(#pf27848e522)" style="fill: none; stroke: #98d594; stroke-opacity: 0.25; stroke-linecap: square"/>
   </g>
   <g id="line2d_83">
    <path d="M 89.318826 135.377191 
L 89.318826 135.377191 
L 170.852544 135.377191 
L 170.852544 142.457471 
L 201.149865 142.457471 
L 201.149865 155.146665 
L 253.439064 155.146665 
L 253.439064 161.703146 
L 278.58935 161.703146 
L 278.58935 167.386436 
L 304.207549 167.386436 
L 304.207549 148.790142 
L 355.490736 148.790142 
L 355.490736 121.748961 
L 377.868642 121.748961 
L 377.868642 102.703449 
L 398.140942 102.703449 
L 398.140942 95.271062 
L 410.072706 95.271062 
L 410.072706 91.162981 
L 419.196996 91.162981 
L 419.196996 87.210725 
L 431.117061 87.210725 
L 431.117061 85.126689 
L 438.779125 85.126689 
L 438.779125 84.761957 
L 440.253049 84.761957 
" clip-path="url(#pf27848e522)" style="fill: none; stroke: #98d594; stroke-opacity: 0.25; stroke-linecap: square"/>
   </g>
   <g id="line2d_84">
    <path d="M 89.318826 147.840476 
L 89.318826 147.840476 
L 170.852544 147.840476 
L 170.852544 154.569991 
L 201.149865 154.569991 
L 201.149865 161.723196 
L 253.439064 161.723196 
L 253.439064 164.723596 
L 278.58935 164.723596 
L 278.58935 166.355604 
L 304.207549 166.355604 
L 304.207549 144.563947 
L 355.490736 144.563947 
L 355.490736 118.270432 
L 377.868642 118.270432 
L 377.868642 96.196499 
L 398.140942 96.196499 
L 398.140942 84.614376 
L 410.072706 84.614376 
L 410.072706 76.584697 
L 419.196996 76.584697 
L 419.196996 67.025004 
L 431.117061 67.025004 
L 431.117061 61.717091 
L 438.779125 61.717091 
L 438.779125 60.740211 
L 440.253049 60.740211 
" clip-path="url(#pf27848e522)" style="fill: none; stroke: #98d594; stroke-opacity: 0.25; stroke-linecap: square"/>
   </g>
   <g id="line2d_85">
    <path d="M 89.318826 135.317968 
L 89.318826 135.317968 
L 170.852544 135.317968 
L 170.852544 140.633894 
L 201.149865 140.633894 
L 201.149865 150.709901 
L 253.439064 150.709901 
L 253.439064 156.357525 
L 278.58935 156.357525 
L 278.58935 165.303754 
L 304.207549 165.303754 
L 304.207549 159.454473 
L 355.490736 159.454473 
L 355.490736 124.025981 
L 377.868642 124.025981 
L 377.868642 92.310473 
L 398.140942 92.310473 
L 398.140942 78.314335 
L 410.072706 78.314335 
L 410.072706 69.355524 
L 419.196996 69.355524 
L 419.196996 59.795642 
L 431.117061 59.795642 
L 431.117061 55.161982 
L 438.779125 55.161982 
L 438.779125 54.31717 
L 440.253049 54.31717 
" clip-path="url(#pf27848e522)" style="fill: none; stroke: #98d594; stroke-opacity: 0.25; stroke-linecap: square"/>
   </g>
   <g id="line2d_86">
    <path d="M 89.318826 147.226043 
L 89.318826 147.226043 
L 170.852544 147.226043 
L 170.852544 152.758133 
L 201.149865 152.758133 
L 201.149865 157.513811 
L 253.439064 157.513811 
L 253.439064 158.134813 
L 278.58935 158.134813 
L 278.58935 155.5704 
L 304.207549 155.5704 
L 304.207549 132.889382 
L 355.490736 132.889382 
L 355.490736 113.393 
L 377.868642 113.393 
L 377.868642 97.190832 
L 398.140942 97.190832 
L 398.140942 89.97234 
L 410.072706 89.97234 
L 410.072706 84.623089 
L 419.196996 84.623089 
L 419.196996 78.84822 
L 431.117061 78.84822 
L 431.117061 75.250433 
L 438.779125 75.250433 
L 438.779125 74.623991 
L 440.253049 74.623991 
" clip-path="url(#pf27848e522)" style="fill: none; stroke: #98d594; stroke-opacity: 0.25; stroke-linecap: square"/>
   </g>
   <g id="line2d_87">
    <path d="M 89.318826 127.313248 
L 89.318826 127.313248 
L 170.852544 127.313248 
L 170.852544 131.400398 
L 201.149865 131.400398 
L 201.149865 140.383209 
L 253.439064 140.383209 
L 253.439064 148.858733 
L 278.58935 148.858733 
L 278.58935 159.750684 
L 304.207549 159.750684 
L 304.207549 161.170507 
L 355.490736 161.170507 
L 355.490736 128.824308 
L 377.868642 128.824308 
L 377.868642 98.804821 
L 398.140942 98.804821 
L 398.140942 84.984003 
L 410.072706 84.984003 
L 410.072706 75.877822 
L 419.196996 75.877822 
L 419.196996 65.488985 
L 431.117061 65.488985 
L 431.117061 59.571439 
L 438.779125 59.571439 
L 438.779125 58.433807 
L 440.253049 58.433807 
" clip-path="url(#pf27848e522)" style="fill: none; stroke: #98d594; stroke-opacity: 0.25; stroke-linecap: square"/>
   </g>
   <g id="line2d_88">
    <path d="M 89.318826 130.792519 
L 89.318826 130.792519 
L 170.852544 130.792519 
L 170.852544 134.172158 
L 201.149865 134.172158 
L 201.149865 141.959047 
L 253.439064 141.959047 
L 253.439064 148.186188 
L 278.58935 148.186188 
L 278.58935 153.357351 
L 304.207549 153.357351 
L 304.207549 145.420328 
L 355.490736 145.420328 
L 355.490736 119.068789 
L 377.868642 119.068789 
L 377.868642 96.853796 
L 398.140942 96.853796 
L 398.140942 87.357132 
L 410.072706 87.357132 
L 410.072706 81.046428 
L 419.196996 81.046428 
L 419.196996 74.572454 
L 431.117061 74.572454 
L 431.117061 70.957976 
L 438.779125 70.957976 
L 438.779125 70.259292 
L 440.253049 70.259292 
" clip-path="url(#pf27848e522)" style="fill: none; stroke: #98d594; stroke-opacity: 0.25; stroke-linecap: square"/>
   </g>
   <g id="line2d_89">
    <path d="M 89.318826 122.384288 
L 89.318826 122.384288 
L 170.852544 122.384288 
L 170.852544 127.296984 
L 201.149865 127.296984 
L 201.149865 139.68012 
L 253.439064 139.68012 
L 253.439064 149.086506 
L 278.58935 149.086506 
L 278.58935 160.010976 
L 304.207549 160.010976 
L 304.207549 162.715054 
L 355.490736 162.715054 
L 355.490736 134.692448 
L 377.868642 134.692448 
L 377.868642 109.401944 
L 398.140942 109.401944 
L 398.140942 95.884776 
L 410.072706 95.884776 
L 410.072706 86.284143 
L 419.196996 86.284143 
L 419.196996 74.542042 
L 431.117061 74.542042 
L 431.117061 67.47449 
L 438.779125 67.47449 
L 438.779125 66.077772 
L 440.253049 66.077772 
" clip-path="url(#pf27848e522)" style="fill: none; stroke: #98d594; stroke-opacity: 0.25; stroke-linecap: square"/>
   </g>
   <g id="line2d_90">
    <path d="M 89.318826 174.372493 
L 89.318826 174.372493 
L 170.852544 174.372493 
L 170.852544 167.93945 
L 201.149865 167.93945 
L 201.149865 162.641794 
L 253.439064 162.641794 
L 253.439064 165.028147 
L 278.58935 165.028147 
L 278.58935 168.22952 
L 304.207549 168.22952 
L 304.207549 148.364533 
L 355.490736 148.364533 
L 355.490736 121.530312 
L 377.868642 121.530312 
L 377.868642 94.587696 
L 398.140942 94.587696 
L 398.140942 78.314957 
L 410.072706 78.314957 
L 410.072706 65.685191 
L 419.196996 65.685191 
L 419.196996 49.588752 
L 431.117061 49.588752 
L 431.117061 39.548128 
L 438.779125 39.548128 
L 438.779125 37.742958 
L 440.253049 37.742958 
" clip-path="url(#pf27848e522)" style="fill: none; stroke: #98d594; stroke-opacity: 0.25; stroke-linecap: square"/>
   </g>
   <g id="line2d_91">
    <path d="M 89.318826 120.901384 
L 89.318826 120.901384 
L 170.852544 120.901384 
L 170.852544 127.796123 
L 201.149865 127.796123 
L 201.149865 140.391215 
L 253.439064 140.391215 
L 253.439064 147.42609 
L 278.58935 147.42609 
L 278.58935 156.255831 
L 304.207549 156.255831 
L 304.207549 150.943046 
L 355.490736 150.943046 
L 355.490736 122.030415 
L 377.868642 122.030415 
L 377.868642 95.251689 
L 398.140942 95.251689 
L 398.140942 81.248422 
L 410.072706 81.248422 
L 410.072706 71.634251 
L 419.196996 71.634251 
L 419.196996 59.669125 
L 431.117061 59.669125 
L 431.117061 53.057569 
L 438.779125 53.057569 
L 438.779125 51.830804 
L 440.253049 51.830804 
" clip-path="url(#pf27848e522)" style="fill: none; stroke: #98d594; stroke-opacity: 0.25; stroke-linecap: square"/>
   </g>
   <g id="line2d_92">
    <path d="M 89.318826 151.764121 
L 89.318826 151.764121 
L 170.852544 151.764121 
L 170.852544 153.109598 
L 201.149865 153.109598 
L 201.149865 156.201395 
L 253.439064 156.201395 
L 253.439064 157.680332 
L 278.58935 157.680332 
L 278.58935 157.100737 
L 304.207549 157.100737 
L 304.207549 142.671021 
L 355.490736 142.671021 
L 355.490736 124.917178 
L 377.868642 124.917178 
L 377.868642 104.72695 
L 398.140942 104.72695 
L 398.140942 92.3617 
L 410.072706 92.3617 
L 410.072706 82.420939 
L 419.196996 82.420939 
L 419.196996 68.462534 
L 431.117061 68.462534 
L 431.117061 59.062415 
L 438.779125 59.062415 
L 438.779125 57.195493 
L 440.253049 57.195493 
" clip-path="url(#pf27848e522)" style="fill: none; stroke: #98d594; stroke-opacity: 0.25; stroke-linecap: square"/>
   </g>
   <g id="line2d_93">
    <path d="M 89.318826 164.912268 
L 89.318826 164.912268 
L 170.852544 164.912268 
L 170.852544 164.403151 
L 201.149865 164.403151 
L 201.149865 164.643051 
L 253.439064 164.643051 
L 253.439064 168.140383 
L 278.58935 168.140383 
L 278.58935 171.48288 
L 304.207549 171.48288 
L 304.207549 148.326092 
L 355.490736 148.326092 
L 355.490736 118.967151 
L 377.868642 118.967151 
L 377.868642 99.683776 
L 398.140942 99.683776 
L 398.140942 91.529183 
L 410.072706 91.529183 
L 410.072706 85.739846 
L 419.196996 85.739846 
L 419.196996 79.01519 
L 431.117061 79.01519 
L 431.117061 75.330917 
L 438.779125 75.330917 
L 438.779125 74.793727 
L 440.253049 74.793727 
" clip-path="url(#pf27848e522)" style="fill: none; stroke: #98d594; stroke-opacity: 0.25; stroke-linecap: square"/>
   </g>
   <g id="line2d_94">
    <path d="M 89.318826 131.748351 
L 89.318826 131.748351 
L 170.852544 131.748351 
L 170.852544 137.571376 
L 201.149865 137.571376 
L 201.149865 150.33764 
L 253.439064 150.33764 
L 253.439064 156.600519 
L 278.58935 156.600519 
L 278.58935 158.611932 
L 304.207549 158.611932 
L 304.207549 137.107364 
L 355.490736 137.107364 
L 355.490736 112.700466 
L 377.868642 112.700466 
L 377.868642 90.051306 
L 398.140942 90.051306 
L 398.140942 76.754533 
L 410.072706 76.754533 
L 410.072706 66.636131 
L 419.196996 66.636131 
L 419.196996 53.305784 
L 431.117061 53.305784 
L 431.117061 44.991753 
L 438.779125 44.991753 
L 438.779125 43.494868 
L 440.253049 43.494868 
" clip-path="url(#pf27848e522)" style="fill: none; stroke: #98d594; stroke-opacity: 0.25; stroke-linecap: square"/>
   </g>
   <g id="line2d_95">
    <path d="M 89.318826 180.614701 
L 89.318826 180.614701 
L 170.852544 180.614701 
L 170.852544 177.35932 
L 201.149865 177.35932 
L 201.149865 168.965054 
L 253.439064 168.965054 
L 253.439064 166.119046 
L 278.58935 166.119046 
L 278.58935 167.420381 
L 304.207549 167.420381 
L 304.207549 154.363672 
L 355.490736 154.363672 
L 355.490736 126.835477 
L 377.868642 126.835477 
L 377.868642 98.676346 
L 398.140942 98.676346 
L 398.140942 82.410634 
L 410.072706 82.410634 
L 410.072706 70.281505 
L 419.196996 70.281505 
L 419.196996 54.390533 
L 431.117061 54.390533 
L 431.117061 44.619564 
L 438.779125 44.619564 
L 438.779125 42.847888 
L 440.253049 42.847888 
" clip-path="url(#pf27848e522)" style="fill: none; stroke: #98d594; stroke-opacity: 0.25; stroke-linecap: square"/>
   </g>
   <g id="line2d_96">
    <path d="M 89.318826 110.856856 
L 89.318826 110.856856 
L 170.852544 110.856856 
L 170.852544 125.171209 
L 201.149865 125.171209 
L 201.149865 142.672752 
L 253.439064 142.672752 
L 253.439064 149.940511 
L 278.58935 149.940511 
L 278.58935 155.689802 
L 304.207549 155.689802 
L 304.207549 138.28623 
L 355.490736 138.28623 
L 355.490736 107.79641 
L 377.868642 107.79641 
L 377.868642 87.863379 
L 398.140942 87.863379 
L 398.140942 80.402342 
L 410.072706 80.402342 
L 410.072706 75.844531 
L 419.196996 75.844531 
L 419.196996 71.407959 
L 431.117061 71.407959 
L 431.117061 69.313428 
L 438.779125 69.313428 
L 438.779125 68.964851 
L 440.253049 68.964851 
" clip-path="url(#pf27848e522)" style="fill: none; stroke: #98d594; stroke-opacity: 0.25; stroke-linecap: square"/>
   </g>
   <g id="line2d_97">
    <path d="M 89.318826 163.17739 
L 89.318826 163.17739 
L 170.852544 163.17739 
L 170.852544 162.975622 
L 201.149865 162.975622 
L 201.149865 162.783315 
L 253.439064 162.783315 
L 253.439064 164.325963 
L 278.58935 164.325963 
L 278.58935 166.311883 
L 304.207549 166.311883 
L 304.207549 151.097133 
L 355.490736 151.097133 
L 355.490736 121.105601 
L 377.868642 121.105601 
L 377.868642 97.680977 
L 398.140942 97.680977 
L 398.140942 85.993181 
L 410.072706 85.993181 
L 410.072706 77.728065 
L 419.196996 77.728065 
L 419.196996 68.132129 
L 431.117061 68.132129 
L 431.117061 63.166438 
L 438.779125 63.166438 
L 438.779125 62.085618 
L 440.253049 62.085618 
" clip-path="url(#pf27848e522)" style="fill: none; stroke: #98d594; stroke-opacity: 0.25; stroke-linecap: square"/>
   </g>
   <g id="line2d_98">
    <path d="M 89.318826 140.20008 
L 89.318826 140.20008 
L 170.852544 140.20008 
L 170.852544 147.141054 
L 201.149865 147.141054 
L 201.149865 155.620237 
L 253.439064 155.620237 
L 253.439064 159.430996 
L 278.58935 159.430996 
L 278.58935 161.656939 
L 304.207549 161.656939 
L 304.207549 143.25979 
L 355.490736 143.25979 
L 355.490736 120.512847 
L 377.868642 120.512847 
L 377.868642 103.654564 
L 398.140942 103.654564 
L 398.140942 95.502746 
L 410.072706 95.502746 
L 410.072706 90.043765 
L 419.196996 90.043765 
L 419.196996 84.022594 
L 431.117061 84.022594 
L 431.117061 80.754369 
L 438.779125 80.754369 
L 438.779125 80.092061 
L 440.253049 80.092061 
" clip-path="url(#pf27848e522)" style="fill: none; stroke: #98d594; stroke-opacity: 0.25; stroke-linecap: square"/>
   </g>
   <g id="line2d_99">
    <path d="M 89.318826 152.011145 
L 89.318826 152.011145 
L 170.852544 152.011145 
L 170.852544 153.655172 
L 201.149865 153.655172 
L 201.149865 158.658123 
L 253.439064 158.658123 
L 253.439064 163.995593 
L 278.58935 163.995593 
L 278.58935 170.885166 
L 304.207549 170.885166 
L 304.207549 167.77895 
L 355.490736 167.77895 
L 355.490736 129.450848 
L 377.868642 129.450848 
L 377.868642 96.39702 
L 398.140942 96.39702 
L 398.140942 81.742508 
L 410.072706 81.742508 
L 410.072706 72.920209 
L 419.196996 72.920209 
L 419.196996 64.153665 
L 431.117061 64.153665 
L 431.117061 60.016795 
L 438.779125 60.016795 
L 438.779125 59.265294 
L 440.253049 59.265294 
" clip-path="url(#pf27848e522)" style="fill: none; stroke: #98d594; stroke-opacity: 0.25; stroke-linecap: square"/>
   </g>
   <g id="line2d_100">
    <path d="M 89.318826 131.237482 
L 89.318826 131.237482 
L 170.852544 131.237482 
L 170.852544 133.872096 
L 201.149865 133.872096 
L 201.149865 140.749508 
L 253.439064 140.749508 
L 253.439064 148.414677 
L 278.58935 148.414677 
L 278.58935 159.151325 
L 304.207549 159.151325 
L 304.207549 166.239067 
L 355.490736 166.239067 
L 355.490736 128.379149 
L 377.868642 128.379149 
L 377.868642 95.309848 
L 398.140942 95.309848 
L 398.140942 81.592594 
L 410.072706 81.592594 
L 410.072706 73.216371 
L 419.196996 73.216371 
L 419.196996 64.853576 
L 431.117061 64.853576 
L 431.117061 60.883251 
L 438.779125 60.883251 
L 438.779125 60.259349 
L 440.253049 60.259349 
" clip-path="url(#pf27848e522)" style="fill: none; stroke: #98d594; stroke-opacity: 0.25; stroke-linecap: square"/>
   </g>
   <g id="line2d_101">
    <path d="M 89.318826 141.281011 
L 89.318826 141.281011 
L 170.852544 141.281011 
L 170.852544 147.669741 
L 201.149865 147.669741 
L 201.149865 157.081532 
L 253.439064 157.081532 
L 253.439064 162.4537 
L 278.58935 162.4537 
L 278.58935 165.464517 
L 304.207549 165.464517 
L 304.207549 146.664407 
L 355.490736 146.664407 
L 355.490736 121.513661 
L 377.868642 121.513661 
L 377.868642 101.550044 
L 398.140942 101.550044 
L 398.140942 90.697822 
L 410.072706 90.697822 
L 410.072706 82.666068 
L 419.196996 82.666068 
L 419.196996 71.496901 
L 431.117061 71.496901 
L 431.117061 64.510575 
L 438.779125 64.510575 
L 438.779125 63.333974 
L 440.253049 63.333974 
" clip-path="url(#pf27848e522)" style="fill: none; stroke: #98d594; stroke-opacity: 0.25; stroke-linecap: square"/>
   </g>
   <g id="line2d_102">
    <path d="M 89.318826 131.452868 
L 89.318826 131.452868 
L 170.852544 131.452868 
L 170.852544 134.626858 
L 201.149865 134.626858 
L 201.149865 142.658592 
L 253.439064 142.658592 
L 253.439064 151.772311 
L 278.58935 151.772311 
L 278.58935 163.334315 
L 304.207549 163.334315 
L 304.207549 169.243077 
L 355.490736 169.243077 
L 355.490736 132.680089 
L 377.868642 132.680089 
L 377.868642 105.937705 
L 398.140942 105.937705 
L 398.140942 96.281491 
L 410.072706 96.281491 
L 410.072706 91.091664 
L 419.196996 91.091664 
L 419.196996 86.466662 
L 431.117061 86.466662 
L 431.117061 84.565399 
L 438.779125 84.565399 
L 438.779125 84.351273 
L 440.253049 84.351273 
" clip-path="url(#pf27848e522)" style="fill: none; stroke: #98d594; stroke-opacity: 0.25; stroke-linecap: square"/>
   </g>
   <g id="line2d_103">
    <path d="M 89.318826 141.104422 
L 89.318826 141.104422 
L 170.852544 141.104422 
L 170.852544 146.8896 
L 201.149865 146.8896 
L 201.149865 154.555506 
L 253.439064 154.555506 
L 253.439064 157.621157 
L 278.58935 157.621157 
L 278.58935 159.606096 
L 304.207549 159.606096 
L 304.207549 139.931994 
L 355.490736 139.931994 
L 355.490736 111.940385 
L 377.868642 111.940385 
L 377.868642 89.589143 
L 398.140942 89.589143 
L 398.140942 79.208886 
L 410.072706 79.208886 
L 410.072706 71.762057 
L 419.196996 71.762057 
L 419.196996 62.857378 
L 431.117061 62.857378 
L 431.117061 58.550959 
L 438.779125 58.550959 
L 438.779125 57.74034 
L 440.253049 57.74034 
" clip-path="url(#pf27848e522)" style="fill: none; stroke: #98d594; stroke-opacity: 0.25; stroke-linecap: square"/>
   </g>
   <g id="line2d_104">
    <path d="M 89.318826 157.133488 
L 89.318826 157.133488 
L 170.852544 157.133488 
L 170.852544 156.753236 
L 201.149865 156.753236 
L 201.149865 158.951814 
L 253.439064 158.951814 
L 253.439064 163.636125 
L 278.58935 163.636125 
L 278.58935 166.939187 
L 304.207549 166.939187 
L 304.207549 147.721214 
L 355.490736 147.721214 
L 355.490736 116.548662 
L 377.868642 116.548662 
L 377.868642 91.889273 
L 398.140942 91.889273 
L 398.140942 79.361976 
L 410.072706 79.361976 
L 410.072706 70.294583 
L 419.196996 70.294583 
L 419.196996 59.234538 
L 431.117061 59.234538 
L 431.117061 53.165713 
L 438.779125 53.165713 
L 438.779125 52.177632 
L 440.253049 52.177632 
" clip-path="url(#pf27848e522)" style="fill: none; stroke: #98d594; stroke-opacity: 0.25; stroke-linecap: square"/>
   </g>
   <g id="line2d_105">
    <path d="M 89.318826 131.784943 
L 89.318826 131.784943 
L 170.852544 131.784943 
L 170.852544 133.11786 
L 201.149865 133.11786 
L 201.149865 142.411344 
L 253.439064 142.411344 
L 253.439064 153.95527 
L 278.58935 153.95527 
L 278.58935 170.068961 
L 304.207549 170.068961 
L 304.207549 178.338737 
L 355.490736 178.338737 
L 355.490736 135.161521 
L 377.868642 135.161521 
L 377.868642 100.535796 
L 398.140942 100.535796 
L 398.140942 87.118237 
L 410.072706 87.118237 
L 410.072706 79.482369 
L 419.196996 79.482369 
L 419.196996 71.871343 
L 431.117061 71.871343 
L 431.117061 68.39733 
L 438.779125 68.39733 
L 438.779125 67.62157 
L 440.253049 67.62157 
" clip-path="url(#pf27848e522)" style="fill: none; stroke: #98d594; stroke-opacity: 0.25; stroke-linecap: square"/>
   </g>
   <g id="line2d_106">
    <path d="M 89.318826 157.73046 
L 89.318826 157.73046 
L 170.852544 157.73046 
L 170.852544 160.561535 
L 201.149865 160.561535 
L 201.149865 164.482022 
L 253.439064 164.482022 
L 253.439064 167.838359 
L 278.58935 167.838359 
L 278.58935 172.720875 
L 304.207549 172.720875 
L 304.207549 160.057253 
L 355.490736 160.057253 
L 355.490736 130.966505 
L 377.868642 130.966505 
L 377.868642 102.615428 
L 398.140942 102.615428 
L 398.140942 87.290102 
L 410.072706 87.290102 
L 410.072706 75.403855 
L 419.196996 75.403855 
L 419.196996 60.778889 
L 431.117061 60.778889 
L 431.117061 51.890116 
L 438.779125 51.890116 
L 438.779125 50.116055 
L 440.253049 50.116055 
" clip-path="url(#pf27848e522)" style="fill: none; stroke: #98d594; stroke-opacity: 0.25; stroke-linecap: square"/>
   </g>
   <g id="line2d_107">
    <path d="M 89.318826 137.795255 
L 89.318826 137.795255 
L 170.852544 137.795255 
L 170.852544 142.654862 
L 201.149865 142.654862 
L 201.149865 152.788099 
L 253.439064 152.788099 
L 253.439064 158.762221 
L 278.58935 158.762221 
L 278.58935 163.819969 
L 304.207549 163.819969 
L 304.207549 138.734942 
L 355.490736 138.734942 
L 355.490736 108.046136 
L 377.868642 108.046136 
L 377.868642 86.522392 
L 398.140942 86.522392 
L 398.140942 76.731387 
L 410.072706 76.731387 
L 410.072706 70.51613 
L 419.196996 70.51613 
L 419.196996 62.930235 
L 431.117061 62.930235 
L 431.117061 58.169325 
L 438.779125 58.169325 
L 438.779125 57.312134 
L 440.253049 57.312134 
" clip-path="url(#pf27848e522)" style="fill: none; stroke: #98d594; stroke-opacity: 0.25; stroke-linecap: square"/>
   </g>
   <g id="line2d_108">
    <path d="M 89.318826 153.343651 
L 89.318826 153.343651 
L 170.852544 153.343651 
L 170.852544 157.142385 
L 201.149865 157.142385 
L 201.149865 156.791754 
L 253.439064 156.791754 
L 253.439064 156.035748 
L 278.58935 156.035748 
L 278.58935 151.828887 
L 304.207549 151.828887 
L 304.207549 135.595902 
L 355.490736 135.595902 
L 355.490736 120.688713 
L 377.868642 120.688713 
L 377.868642 105.514326 
L 398.140942 105.514326 
L 398.140942 96.735508 
L 410.072706 96.735508 
L 410.072706 89.907504 
L 419.196996 89.907504 
L 419.196996 80.923591 
L 431.117061 80.923591 
L 431.117061 74.985738 
L 438.779125 74.985738 
L 438.779125 73.952066 
L 440.253049 73.952066 
" clip-path="url(#pf27848e522)" style="fill: none; stroke: #98d594; stroke-opacity: 0.25; stroke-linecap: square"/>
   </g>
   <g id="line2d_109">
    <path d="M 89.318826 147.026187 
L 89.318826 147.026187 
L 170.852544 147.026187 
L 170.852544 151.42525 
L 201.149865 151.42525 
L 201.149865 156.559534 
L 253.439064 156.559534 
L 253.439064 158.739197 
L 278.58935 158.739197 
L 278.58935 163.181504 
L 304.207549 163.181504 
L 304.207549 147.797494 
L 355.490736 147.797494 
L 355.490736 120.727409 
L 377.868642 120.727409 
L 377.868642 97.305621 
L 398.140942 97.305621 
L 398.140942 85.421779 
L 410.072706 85.421779 
L 410.072706 77.032261 
L 419.196996 77.032261 
L 419.196996 68.043912 
L 431.117061 68.043912 
L 431.117061 63.120782 
L 438.779125 63.120782 
L 438.779125 62.233261 
L 440.253049 62.233261 
" clip-path="url(#pf27848e522)" style="fill: none; stroke: #98d594; stroke-width: 4; stroke-linecap: square"/>
   </g>
   <g id="patch_3">
    <path d="M 71.772115 294.540385 
L 71.772115 3.00024 
" style="fill: none; stroke: #000000; stroke-width: 0.8; stroke-linejoin: miter; stroke-linecap: square"/>
   </g>
   <g id="patch_4">
    <path d="M 457.79976 294.540385 
L 457.79976 3.00024 
" style="fill: none; stroke: #000000; stroke-width: 0.8; stroke-linejoin: miter; stroke-linecap: square"/>
   </g>
   <g id="patch_5">
    <path d="M 71.772115 294.540385 
L 457.79976 294.540385 
" style="fill: none; stroke: #000000; stroke-width: 0.8; stroke-linejoin: miter; stroke-linecap: square"/>
   </g>
   <g id="patch_6">
    <path d="M 71.772115 3.00024 
L 457.79976 3.00024 
" style="fill: none; stroke: #000000; stroke-width: 0.8; stroke-linejoin: miter; stroke-linecap: square"/>
   </g>
  </g>
 </g>
 <defs>
  <clipPath id="pf27848e522">
   <rect x="71.772115" y="3.00024" width="386.027645" height="291.540145"/>
  </clipPath>
 </defs>
</svg>
