<?xml version="1.0" encoding="utf-8" standalone="no"?>
<!DOCTYPE svg PUBLIC "-//W3C//DTD SVG 1.1//EN"
  "http://www.w3.org/Graphics/SVG/1.1/DTD/svg11.dtd">
<svg xmlns:xlink="http://www.w3.org/1999/xlink" width="460.8pt" height="345.6pt" viewBox="0 0 460.8 345.6" xmlns="http://www.w3.org/2000/svg" version="1.1">
 <metadata>
  <rdf:RDF xmlns:dc="http://purl.org/dc/elements/1.1/" xmlns:cc="http://creativecommons.org/ns#" xmlns:rdf="http://www.w3.org/1999/02/22-rdf-syntax-ns#">
   <cc:Work>
    <dc:type rdf:resource="http://purl.org/dc/dcmitype/StillImage"/>
    <dc:date>2026-01-27T15:41:30.910705</dc:date>
    <dc:format>image/svg+xml</dc:format>
    <dc:creator>
     <cc:Agent>
      <dc:title>Matplotlib v3.10.8, https://matplotlib.org/</dc:title>
     </cc:Agent>
    </dc:creator>
   </cc:Work>
  </rdf:RDF>
 </metadata>
 <defs>
  <style type="text/css">*{stroke-linejoin: round; stroke-linecap: butt}</style>
 </defs>
 <g id="figure_1">
  <g id="patch_1">
   <path d="M 0 345.6 
L 460.8 345.6 
L 460.8 0 
L 0 0 
z
" style="fill: #ffffff"/>
  </g>
  <g id="axes_1">
   <g id="patch_2">
    <path d="M 60.090865 294.540385 
L 457.79976 294.540385 
L 457.79976 3.00024 
L 60.090865 3.00024 
z
" style="fill: #ffffff"/>
   </g>
   <g id="FillBetweenPolyCollection_1">
    <defs>
     <path id="m85a4914598" d="M 78.168542 -213.008985 
L 78.168542 -142.494122 
L 78.168542 -142.494122 
L 162.169481 -142.494122 
L 162.169481 -122.900433 
L 193.383604 -122.900433 
L 193.383604 -102.291384 
L 247.255081 -102.291384 
L 247.255081 -71.670066 
L 273.166418 -71.670066 
L 273.166418 -70.355993 
L 299.559827 -70.355993 
L 299.559827 -105.830793 
L 352.394851 -105.830793 
L 352.394851 -159.962483 
L 375.449915 -159.962483 
L 375.449915 -198.392051 
L 396.335658 -198.392051 
L 396.335658 -216.213803 
L 408.628478 -216.213803 
L 408.628478 -216.436735 
L 418.02887 -216.436735 
L 418.02887 -226.461753 
L 430.309639 -226.461753 
L 430.309639 -230.981658 
L 438.203558 -230.981658 
L 438.203558 -229.730344 
L 439.722083 -229.730344 
L 439.722083 -302.290652 
L 439.722083 -302.290652 
L 438.203558 -302.290652 
L 438.203558 -304.665584 
L 430.309639 -304.665584 
L 430.309639 -290.791254 
L 418.02887 -290.791254 
L 418.02887 -277.594107 
L 408.628478 -277.594107 
L 408.628478 -258.509056 
L 396.335658 -258.509056 
L 396.335658 -237.68811 
L 375.449915 -237.68811 
L 375.449915 -213.845237 
L 352.394851 -213.845237 
L 352.394851 -164.893916 
L 299.559827 -164.893916 
L 299.559827 -126.019643 
L 273.166418 -126.019643 
L 273.166418 -137.998068 
L 247.255081 -137.998068 
L 247.255081 -148.492564 
L 193.383604 -148.492564 
L 193.383604 -181.012993 
L 162.169481 -181.012993 
L 162.169481 -213.008985 
L 78.168542 -213.008985 
L 78.168542 -213.008985 
z
" style="stroke: #46a05b; stroke-opacity: 0.25"/>
    </defs>
    <g clip-path="url(#p308f77b863)">
     <use xlink:href="#m85a4914598" x="0" y="345.6" style="fill: #46a05b; fill-opacity: 0.25; stroke: #46a05b; stroke-opacity: 0.25"/>
    </g>
   </g>
   <g id="matplotlib.axis_1">
    <g id="xtick_1">
     <g id="line2d_1">
      <defs>
       <path id="m485e11462a" d="M 0 0 
L 0 3.5 
" style="stroke: #000000; stroke-width: 0.8"/>
      </defs>
      <g>
       <use xlink:href="#m485e11462a" x="439.722083" y="294.540385" style="stroke: #000000; stroke-width: 0.8"/>
      </g>
     </g>
     <g id="text_1">
      <!-- 0 -->
      <g transform="translate(434.161145 315.85601) scale(0.2 -0.2)">
       <defs>
        <path id="ArialMT-30" d="M 266 2259 
Q 266 3072 433 3567 
Q 600 4063 929 4331 
Q 1259 4600 1759 4600 
Q 2128 4600 2406 4451 
Q 2684 4303 2865 4023 
Q 3047 3744 3150 3342 
Q 3253 2941 3253 2259 
Q 3253 1453 3087 958 
Q 2922 463 2592 192 
Q 2263 -78 1759 -78 
Q 1097 -78 719 397 
Q 266 969 266 2259 
z
M 844 2259 
Q 844 1131 1108 757 
Q 1372 384 1759 384 
Q 2147 384 2411 759 
Q 2675 1134 2675 2259 
Q 2675 3391 2411 3762 
Q 2147 4134 1753 4134 
Q 1366 4134 1134 3806 
Q 844 3388 844 2259 
z
" transform="scale(0.015625)"/>
       </defs>
       <use xlink:href="#ArialMT-30"/>
      </g>
     </g>
    </g>
    <g id="xtick_2">
     <g id="line2d_2">
      <g>
       <use xlink:href="#m485e11462a" x="319.204236" y="294.540385" style="stroke: #000000; stroke-width: 0.8"/>
      </g>
     </g>
     <g id="text_2">
      <!-- 10 -->
      <g transform="translate(308.082361 315.85601) scale(0.2 -0.2)">
       <defs>
        <path id="ArialMT-31" d="M 2384 0 
L 1822 0 
L 1822 3584 
Q 1619 3391 1289 3197 
Q 959 3003 697 2906 
L 697 3450 
Q 1169 3672 1522 3987 
Q 1875 4303 2022 4600 
L 2384 4600 
L 2384 0 
z
" transform="scale(0.015625)"/>
       </defs>
       <use xlink:href="#ArialMT-31"/>
       <use xlink:href="#ArialMT-30" transform="translate(55.615234 0)"/>
      </g>
     </g>
    </g>
    <g id="xtick_3">
     <g id="line2d_3">
      <g>
       <use xlink:href="#m485e11462a" x="198.686389" y="294.540385" style="stroke: #000000; stroke-width: 0.8"/>
      </g>
     </g>
     <g id="text_3">
      <!-- 20 -->
      <g transform="translate(187.564514 315.85601) scale(0.2 -0.2)">
       <defs>
        <path id="ArialMT-32" d="M 3222 541 
L 3222 0 
L 194 0 
Q 188 203 259 391 
Q 375 700 629 1000 
Q 884 1300 1366 1694 
Q 2113 2306 2375 2664 
Q 2638 3022 2638 3341 
Q 2638 3675 2398 3904 
Q 2159 4134 1775 4134 
Q 1369 4134 1125 3890 
Q 881 3647 878 3216 
L 300 3275 
Q 359 3922 746 4261 
Q 1134 4600 1788 4600 
Q 2447 4600 2831 4234 
Q 3216 3869 3216 3328 
Q 3216 3053 3103 2787 
Q 2991 2522 2730 2228 
Q 2469 1934 1863 1422 
Q 1356 997 1212 845 
Q 1069 694 975 541 
L 3222 541 
z
" transform="scale(0.015625)"/>
       </defs>
       <use xlink:href="#ArialMT-32"/>
       <use xlink:href="#ArialMT-30" transform="translate(55.615234 0)"/>
      </g>
     </g>
    </g>
    <g id="xtick_4">
     <g id="line2d_4">
      <g>
       <use xlink:href="#m485e11462a" x="78.168542" y="294.540385" style="stroke: #000000; stroke-width: 0.8"/>
      </g>
     </g>
     <g id="text_4">
      <!-- 30 -->
      <g transform="translate(67.046667 315.85601) scale(0.2 -0.2)">
       <defs>
        <path id="ArialMT-33" d="M 269 1209 
L 831 1284 
Q 928 806 1161 595 
Q 1394 384 1728 384 
Q 2125 384 2398 659 
Q 2672 934 2672 1341 
Q 2672 1728 2419 1979 
Q 2166 2231 1775 2231 
Q 1616 2231 1378 2169 
L 1441 2663 
Q 1497 2656 1531 2656 
Q 1891 2656 2178 2843 
Q 2466 3031 2466 3422 
Q 2466 3731 2256 3934 
Q 2047 4138 1716 4138 
Q 1388 4138 1169 3931 
Q 950 3725 888 3313 
L 325 3413 
Q 428 3978 793 4289 
Q 1159 4600 1703 4600 
Q 2078 4600 2393 4439 
Q 2709 4278 2876 4000 
Q 3044 3722 3044 3409 
Q 3044 3113 2884 2869 
Q 2725 2625 2413 2481 
Q 2819 2388 3044 2092 
Q 3269 1797 3269 1353 
Q 3269 753 2831 336 
Q 2394 -81 1725 -81 
Q 1122 -81 723 278 
Q 325 638 269 1209 
z
" transform="scale(0.015625)"/>
       </defs>
       <use xlink:href="#ArialMT-33"/>
       <use xlink:href="#ArialMT-30" transform="translate(55.615234 0)"/>
      </g>
     </g>
    </g>
    <g id="text_5">
     <!-- Time (mya) -->
     <g transform="translate(208.771875 338.390385) scale(0.2 -0.2)">
      <defs>
       <path id="ArialMT-54" d="M 1659 0 
L 1659 4041 
L 150 4041 
L 150 4581 
L 3781 4581 
L 3781 4041 
L 2266 4041 
L 2266 0 
L 1659 0 
z
" transform="scale(0.015625)"/>
       <path id="ArialMT-69" d="M 425 3934 
L 425 4581 
L 988 4581 
L 988 3934 
L 425 3934 
z
M 425 0 
L 425 3319 
L 988 3319 
L 988 0 
L 425 0 
z
" transform="scale(0.015625)"/>
       <path id="ArialMT-6d" d="M 422 0 
L 422 3319 
L 925 3319 
L 925 2853 
Q 1081 3097 1340 3245 
Q 1600 3394 1931 3394 
Q 2300 3394 2536 3241 
Q 2772 3088 2869 2813 
Q 3263 3394 3894 3394 
Q 4388 3394 4653 3120 
Q 4919 2847 4919 2278 
L 4919 0 
L 4359 0 
L 4359 2091 
Q 4359 2428 4304 2576 
Q 4250 2725 4106 2815 
Q 3963 2906 3769 2906 
Q 3419 2906 3187 2673 
Q 2956 2441 2956 1928 
L 2956 0 
L 2394 0 
L 2394 2156 
Q 2394 2531 2256 2718 
Q 2119 2906 1806 2906 
Q 1569 2906 1367 2781 
Q 1166 2656 1075 2415 
Q 984 2175 984 1722 
L 984 0 
L 422 0 
z
" transform="scale(0.015625)"/>
       <path id="ArialMT-65" d="M 2694 1069 
L 3275 997 
Q 3138 488 2766 206 
Q 2394 -75 1816 -75 
Q 1088 -75 661 373 
Q 234 822 234 1631 
Q 234 2469 665 2931 
Q 1097 3394 1784 3394 
Q 2450 3394 2872 2941 
Q 3294 2488 3294 1666 
Q 3294 1616 3291 1516 
L 816 1516 
Q 847 969 1125 678 
Q 1403 388 1819 388 
Q 2128 388 2347 550 
Q 2566 713 2694 1069 
z
M 847 1978 
L 2700 1978 
Q 2663 2397 2488 2606 
Q 2219 2931 1791 2931 
Q 1403 2931 1139 2672 
Q 875 2413 847 1978 
z
" transform="scale(0.015625)"/>
       <path id="ArialMT-20" transform="scale(0.015625)"/>
       <path id="ArialMT-28" d="M 1497 -1347 
Q 1031 -759 709 28 
Q 388 816 388 1659 
Q 388 2403 628 3084 
Q 909 3875 1497 4659 
L 1900 4659 
Q 1522 4009 1400 3731 
Q 1209 3300 1100 2831 
Q 966 2247 966 1656 
Q 966 153 1900 -1347 
L 1497 -1347 
z
" transform="scale(0.015625)"/>
       <path id="ArialMT-79" d="M 397 -1278 
L 334 -750 
Q 519 -800 656 -800 
Q 844 -800 956 -737 
Q 1069 -675 1141 -563 
Q 1194 -478 1313 -144 
Q 1328 -97 1363 -6 
L 103 3319 
L 709 3319 
L 1400 1397 
Q 1534 1031 1641 628 
Q 1738 1016 1872 1384 
L 2581 3319 
L 3144 3319 
L 1881 -56 
Q 1678 -603 1566 -809 
Q 1416 -1088 1222 -1217 
Q 1028 -1347 759 -1347 
Q 597 -1347 397 -1278 
z
" transform="scale(0.015625)"/>
       <path id="ArialMT-61" d="M 2588 409 
Q 2275 144 1986 34 
Q 1697 -75 1366 -75 
Q 819 -75 525 192 
Q 231 459 231 875 
Q 231 1119 342 1320 
Q 453 1522 633 1644 
Q 813 1766 1038 1828 
Q 1203 1872 1538 1913 
Q 2219 1994 2541 2106 
Q 2544 2222 2544 2253 
Q 2544 2597 2384 2738 
Q 2169 2928 1744 2928 
Q 1347 2928 1158 2789 
Q 969 2650 878 2297 
L 328 2372 
Q 403 2725 575 2942 
Q 747 3159 1072 3276 
Q 1397 3394 1825 3394 
Q 2250 3394 2515 3294 
Q 2781 3194 2906 3042 
Q 3031 2891 3081 2659 
Q 3109 2516 3109 2141 
L 3109 1391 
Q 3109 606 3145 398 
Q 3181 191 3288 0 
L 2700 0 
Q 2613 175 2588 409 
z
M 2541 1666 
Q 2234 1541 1622 1453 
Q 1275 1403 1131 1340 
Q 988 1278 909 1158 
Q 831 1038 831 891 
Q 831 666 1001 516 
Q 1172 366 1500 366 
Q 1825 366 2078 508 
Q 2331 650 2450 897 
Q 2541 1088 2541 1459 
L 2541 1666 
z
" transform="scale(0.015625)"/>
       <path id="ArialMT-29" d="M 791 -1347 
L 388 -1347 
Q 1322 153 1322 1656 
Q 1322 2244 1188 2822 
Q 1081 3291 891 3722 
Q 769 4003 388 4659 
L 791 4659 
Q 1378 3875 1659 3084 
Q 1900 2403 1900 1659 
Q 1900 816 1576 28 
Q 1253 -759 791 -1347 
z
" transform="scale(0.015625)"/>
      </defs>
      <use xlink:href="#ArialMT-54"/>
      <use xlink:href="#ArialMT-69" transform="translate(57.333984 0)"/>
      <use xlink:href="#ArialMT-6d" transform="translate(79.550781 0)"/>
      <use xlink:href="#ArialMT-65" transform="translate(162.851562 0)"/>
      <use xlink:href="#ArialMT-20" transform="translate(218.466797 0)"/>
      <use xlink:href="#ArialMT-28" transform="translate(246.25 0)"/>
      <use xlink:href="#ArialMT-6d" transform="translate(279.550781 0)"/>
      <use xlink:href="#ArialMT-79" transform="translate(362.851562 0)"/>
      <use xlink:href="#ArialMT-61" transform="translate(412.851562 0)"/>
      <use xlink:href="#ArialMT-29" transform="translate(468.466797 0)"/>
     </g>
    </g>
   </g>
   <g id="matplotlib.axis_2">
    <g id="ytick_1">
     <g id="line2d_5">
      <defs>
       <path id="me4d4bb669f" d="M 0 0 
L -3.5 0 
" style="stroke: #000000; stroke-width: 0.8"/>
      </defs>
      <g>
       <use xlink:href="#me4d4bb669f" x="60.090865" y="267.945951" style="stroke: #000000; stroke-width: 0.8"/>
      </g>
     </g>
     <g id="text_6">
      <!-- 0.0 -->
      <g transform="translate(25.290865 275.103764) scale(0.2 -0.2)">
       <defs>
        <path id="ArialMT-2e" d="M 581 0 
L 581 641 
L 1222 641 
L 1222 0 
L 581 0 
z
" transform="scale(0.015625)"/>
       </defs>
       <use xlink:href="#ArialMT-30"/>
       <use xlink:href="#ArialMT-2e" transform="translate(55.615234 0)"/>
       <use xlink:href="#ArialMT-30" transform="translate(83.398438 0)"/>
      </g>
     </g>
    </g>
    <g id="ytick_2">
     <g id="line2d_6">
      <g>
       <use xlink:href="#me4d4bb669f" x="60.090865" y="210.803411" style="stroke: #000000; stroke-width: 0.8"/>
      </g>
     </g>
     <g id="text_7">
      <!-- 0.1 -->
      <g transform="translate(25.290865 217.961223) scale(0.2 -0.2)">
       <use xlink:href="#ArialMT-30"/>
       <use xlink:href="#ArialMT-2e" transform="translate(55.615234 0)"/>
       <use xlink:href="#ArialMT-31" transform="translate(83.398438 0)"/>
      </g>
     </g>
    </g>
    <g id="ytick_3">
     <g id="line2d_7">
      <g>
       <use xlink:href="#me4d4bb669f" x="60.090865" y="153.66087" style="stroke: #000000; stroke-width: 0.8"/>
      </g>
     </g>
     <g id="text_8">
      <!-- 0.2 -->
      <g transform="translate(25.290865 160.818682) scale(0.2 -0.2)">
       <use xlink:href="#ArialMT-30"/>
       <use xlink:href="#ArialMT-2e" transform="translate(55.615234 0)"/>
       <use xlink:href="#ArialMT-32" transform="translate(83.398438 0)"/>
      </g>
     </g>
    </g>
    <g id="ytick_4">
     <g id="line2d_8">
      <g>
       <use xlink:href="#me4d4bb669f" x="60.090865" y="96.518329" style="stroke: #000000; stroke-width: 0.8"/>
      </g>
     </g>
     <g id="text_9">
      <!-- 0.3 -->
      <g transform="translate(25.290865 103.676141) scale(0.2 -0.2)">
       <use xlink:href="#ArialMT-30"/>
       <use xlink:href="#ArialMT-2e" transform="translate(55.615234 0)"/>
       <use xlink:href="#ArialMT-33" transform="translate(83.398438 0)"/>
      </g>
     </g>
    </g>
    <g id="ytick_5">
     <g id="line2d_9">
      <g>
       <use xlink:href="#me4d4bb669f" x="60.090865" y="39.375788" style="stroke: #000000; stroke-width: 0.8"/>
      </g>
     </g>
     <g id="text_10">
      <!-- 0.4 -->
      <g transform="translate(25.290865 46.533601) scale(0.2 -0.2)">
       <defs>
        <path id="ArialMT-34" d="M 2069 0 
L 2069 1097 
L 81 1097 
L 81 1613 
L 2172 4581 
L 2631 4581 
L 2631 1613 
L 3250 1613 
L 3250 1097 
L 2631 1097 
L 2631 0 
L 2069 0 
z
M 2069 1613 
L 2069 3678 
L 634 1613 
L 2069 1613 
z
" transform="scale(0.015625)"/>
       </defs>
       <use xlink:href="#ArialMT-30"/>
       <use xlink:href="#ArialMT-2e" transform="translate(55.615234 0)"/>
       <use xlink:href="#ArialMT-34" transform="translate(83.398438 0)"/>
      </g>
     </g>
    </g>
    <g id="text_11">
     <!-- $d$ -->
     <g transform="translate(17.315865 155.170313) rotate(-90) scale(0.2 -0.2)">
      <defs>
       <path id="DejaVuSans-Oblique-64" d="M 2675 525 
Q 2444 222 2128 65 
Q 1813 -91 1428 -91 
Q 903 -91 598 267 
Q 294 625 294 1247 
Q 294 1766 478 2236 
Q 663 2706 1013 3078 
Q 1244 3325 1534 3454 
Q 1825 3584 2144 3584 
Q 2481 3584 2739 3421 
Q 2997 3259 3138 2956 
L 3513 4863 
L 4091 4863 
L 3144 0 
L 2566 0 
L 2675 525 
z
M 891 1350 
Q 891 897 1095 644 
Q 1300 391 1663 391 
Q 1931 391 2161 520 
Q 2391 650 2566 903 
Q 2750 1166 2856 1509 
Q 2963 1853 2963 2188 
Q 2963 2622 2758 2865 
Q 2553 3109 2194 3109 
Q 1922 3109 1687 2981 
Q 1453 2853 1288 2613 
Q 1106 2353 998 2009 
Q 891 1666 891 1350 
z
" transform="scale(0.015625)"/>
      </defs>
      <use xlink:href="#DejaVuSans-Oblique-64" transform="translate(0 0.015625)"/>
     </g>
    </g>
   </g>
   <g id="line2d_10">
    <path d="M 78.168542 162.593247 
L 78.168542 162.593247 
L 162.169481 162.593247 
L 162.169481 183.391841 
L 193.383604 183.391841 
L 193.383604 214.532579 
L 247.255081 214.532579 
L 247.255081 237.348214 
L 273.166418 237.348214 
L 273.166418 243.112741 
L 299.559827 243.112741 
L 299.559827 219.610662 
L 352.394851 219.610662 
L 352.394851 146.890722 
L 375.449915 146.890722 
L 375.449915 114.363635 
L 396.335658 114.363635 
L 396.335658 90.43041 
L 408.628478 90.43041 
L 408.628478 69.900699 
L 418.02887 69.900699 
L 418.02887 53.742719 
L 430.309639 53.742719 
L 430.309639 44.549626 
L 438.203558 44.549626 
L 438.203558 45.151013 
L 439.722083 45.151013 
" clip-path="url(#p308f77b863)" style="fill: none; stroke: #46a05b; stroke-opacity: 0.25; stroke-linecap: square"/>
   </g>
   <g id="line2d_11">
    <path d="M 78.168542 149.863687 
L 78.168542 149.863687 
L 162.169481 149.863687 
L 162.169481 185.230122 
L 193.383604 185.230122 
L 193.383604 211.542669 
L 247.255081 211.542669 
L 247.255081 227.45924 
L 273.166418 227.45924 
L 273.166418 243.977459 
L 299.559827 243.977459 
L 299.559827 217.151884 
L 352.394851 217.151884 
L 352.394851 159.015063 
L 375.449915 159.015063 
L 375.449915 132.469354 
L 396.335658 132.469354 
L 396.335658 106.294137 
L 408.628478 106.294137 
L 408.628478 101.944437 
L 418.02887 101.944437 
L 418.02887 88.884706 
L 430.309639 88.884706 
L 430.309639 90.644133 
L 438.203558 90.644133 
L 438.203558 87.095628 
L 439.722083 87.095628 
" clip-path="url(#p308f77b863)" style="fill: none; stroke: #46a05b; stroke-opacity: 0.25; stroke-linecap: square"/>
   </g>
   <g id="line2d_12">
    <path d="M 78.168542 171.086017 
L 78.168542 171.086017 
L 162.169481 171.086017 
L 162.169481 174.73854 
L 193.383604 174.73854 
L 193.383604 212.998632 
L 247.255081 212.998632 
L 247.255081 191.744018 
L 273.166418 191.744018 
L 273.166418 230.928641 
L 299.559827 230.928641 
L 299.559827 201.937007 
L 352.394851 201.937007 
L 352.394851 153.557405 
L 375.449915 153.557405 
L 375.449915 133.068127 
L 396.335658 133.068127 
L 396.335658 103.474177 
L 408.628478 103.474177 
L 408.628478 90.314538 
L 418.02887 90.314538 
L 418.02887 80.56505 
L 430.309639 80.56505 
L 430.309639 75.074156 
L 438.203558 75.074156 
L 438.203558 74.016646 
L 439.722083 74.016646 
" clip-path="url(#p308f77b863)" style="fill: none; stroke: #46a05b; stroke-opacity: 0.25; stroke-linecap: square"/>
   </g>
   <g id="line2d_13">
    <path d="M 78.168542 120.806291 
L 78.168542 120.806291 
L 162.169481 120.806291 
L 162.169481 188.996938 
L 193.383604 188.996938 
L 193.383604 238.69282 
L 247.255081 238.69282 
L 247.255081 235.679306 
L 273.166418 235.679306 
L 273.166418 281.28856 
L 299.559827 281.28856 
L 299.559827 218.239386 
L 352.394851 218.239386 
L 352.394851 164.30066 
L 375.449915 164.30066 
L 375.449915 122.653459 
L 396.335658 122.653459 
L 396.335658 114.952171 
L 408.628478 114.952171 
L 408.628478 101.696368 
L 418.02887 101.696368 
L 418.02887 100.609857 
L 430.309639 100.609857 
L 430.309639 89.259447 
L 438.203558 89.259447 
L 438.203558 93.623762 
L 439.722083 93.623762 
" clip-path="url(#p308f77b863)" style="fill: none; stroke: #46a05b; stroke-opacity: 0.25; stroke-linecap: square"/>
   </g>
   <g id="line2d_14">
    <path d="M 78.168542 153.305067 
L 78.168542 153.305067 
L 162.169481 153.305067 
L 162.169481 208.61948 
L 193.383604 208.61948 
L 193.383604 236.663888 
L 247.255081 236.663888 
L 247.255081 261.712391 
L 273.166418 261.712391 
L 273.166418 243.199907 
L 299.559827 243.199907 
L 299.559827 186.857028 
L 352.394851 186.857028 
L 352.394851 129.38758 
L 375.449915 129.38758 
L 375.449915 115.933488 
L 396.335658 115.933488 
L 396.335658 91.24334 
L 408.628478 91.24334 
L 408.628478 74.501496 
L 418.02887 74.501496 
L 418.02887 62.158608 
L 430.309639 62.158608 
L 430.309639 47.351384 
L 438.203558 47.351384 
L 438.203558 49.278071 
L 439.722083 49.278071 
" clip-path="url(#p308f77b863)" style="fill: none; stroke: #46a05b; stroke-opacity: 0.25; stroke-linecap: square"/>
   </g>
   <g id="line2d_15">
    <path d="M 78.168542 162.78508 
L 78.168542 162.78508 
L 162.169481 162.78508 
L 162.169481 196.326583 
L 193.383604 196.326583 
L 193.383604 227.735275 
L 247.255081 227.735275 
L 247.255081 241.079927 
L 273.166418 241.079927 
L 273.166418 244.792664 
L 299.559827 244.792664 
L 299.559827 202.397146 
L 352.394851 202.397146 
L 352.394851 143.508151 
L 375.449915 143.508151 
L 375.449915 111.376398 
L 396.335658 111.376398 
L 396.335658 91.383198 
L 408.628478 91.383198 
L 408.628478 82.363596 
L 418.02887 82.363596 
L 418.02887 70.030145 
L 430.309639 70.030145 
L 430.309639 63.372497 
L 438.203558 63.372497 
L 438.203558 64.60748 
L 439.722083 64.60748 
" clip-path="url(#p308f77b863)" style="fill: none; stroke: #46a05b; stroke-opacity: 0.25; stroke-linecap: square"/>
   </g>
   <g id="line2d_16">
    <path d="M 78.168542 170.399553 
L 78.168542 170.399553 
L 162.169481 170.399553 
L 162.169481 194.150567 
L 193.383604 194.150567 
L 193.383604 218.052492 
L 247.255081 218.052492 
L 247.255081 235.162345 
L 273.166418 235.162345 
L 273.166418 231.46762 
L 299.559827 231.46762 
L 299.559827 196.090003 
L 352.394851 196.090003 
L 352.394851 157.652794 
L 375.449915 157.652794 
L 375.449915 124.529983 
L 396.335658 124.529983 
L 396.335658 111.506606 
L 408.628478 111.506606 
L 408.628478 97.623142 
L 418.02887 97.623142 
L 418.02887 90.70104 
L 430.309639 90.70104 
L 430.309639 80.626692 
L 438.203558 80.626692 
L 438.203558 82.438792 
L 439.722083 82.438792 
" clip-path="url(#p308f77b863)" style="fill: none; stroke: #46a05b; stroke-opacity: 0.25; stroke-linecap: square"/>
   </g>
   <g id="line2d_17">
    <path d="M 78.168542 204.692864 
L 78.168542 204.692864 
L 162.169481 204.692864 
L 162.169481 209.792188 
L 193.383604 209.792188 
L 193.383604 237.142268 
L 247.255081 237.142268 
L 247.255081 222.858038 
L 273.166418 222.858038 
L 273.166418 245.640087 
L 299.559827 245.640087 
L 299.559827 213.532492 
L 352.394851 213.532492 
L 352.394851 157.413649 
L 375.449915 157.413649 
L 375.449915 130.192018 
L 396.335658 130.192018 
L 396.335658 118.447036 
L 408.628478 118.447036 
L 408.628478 102.355424 
L 418.02887 102.355424 
L 418.02887 95.349134 
L 430.309639 95.349134 
L 430.309639 91.845281 
L 438.203558 91.845281 
L 438.203558 92.741031 
L 439.722083 92.741031 
" clip-path="url(#p308f77b863)" style="fill: none; stroke: #46a05b; stroke-opacity: 0.25; stroke-linecap: square"/>
   </g>
   <g id="line2d_18">
    <path d="M 78.168542 174.66007 
L 78.168542 174.66007 
L 162.169481 174.66007 
L 162.169481 189.208763 
L 193.383604 189.208763 
L 193.383604 218.117656 
L 247.255081 218.117656 
L 247.255081 242.875007 
L 273.166418 242.875007 
L 273.166418 242.34516 
L 299.559827 242.34516 
L 299.559827 194.996542 
L 352.394851 194.996542 
L 352.394851 155.571691 
L 375.449915 155.571691 
L 375.449915 132.971018 
L 396.335658 132.971018 
L 396.335658 109.306054 
L 408.628478 109.306054 
L 408.628478 98.589297 
L 418.02887 98.589297 
L 418.02887 90.680359 
L 430.309639 90.680359 
L 430.309639 83.752701 
L 438.203558 83.752701 
L 438.203558 83.943755 
L 439.722083 83.943755 
" clip-path="url(#p308f77b863)" style="fill: none; stroke: #46a05b; stroke-opacity: 0.25; stroke-linecap: square"/>
   </g>
   <g id="line2d_19">
    <path d="M 78.168542 156.535041 
L 78.168542 156.535041 
L 162.169481 156.535041 
L 162.169481 158.42403 
L 193.383604 158.42403 
L 193.383604 192.206058 
L 247.255081 192.206058 
L 247.255081 238.047765 
L 273.166418 238.047765 
L 273.166418 223.279626 
L 299.559827 223.279626 
L 299.559827 209.433574 
L 352.394851 209.433574 
L 352.394851 145.361745 
L 375.449915 145.361745 
L 375.449915 114.751823 
L 396.335658 114.751823 
L 396.335658 93.291488 
L 408.628478 93.291488 
L 408.628478 77.143394 
L 418.02887 77.143394 
L 418.02887 66.277046 
L 430.309639 66.277046 
L 430.309639 55.596023 
L 438.203558 55.596023 
L 438.203558 58.501544 
L 439.722083 58.501544 
" clip-path="url(#p308f77b863)" style="fill: none; stroke: #46a05b; stroke-opacity: 0.25; stroke-linecap: square"/>
   </g>
   <g id="line2d_20">
    <path d="M 78.168542 146.676773 
L 78.168542 146.676773 
L 162.169481 146.676773 
L 162.169481 170.994275 
L 193.383604 170.994275 
L 193.383604 206.455087 
L 247.255081 206.455087 
L 247.255081 225.751227 
L 273.166418 225.751227 
L 273.166418 224.907506 
L 299.559827 224.907506 
L 299.559827 186.205933 
L 352.394851 186.205933 
L 352.394851 158.191053 
L 375.449915 158.191053 
L 375.449915 120.394899 
L 396.335658 120.394899 
L 396.335658 103.758369 
L 408.628478 103.758369 
L 408.628478 91.888096 
L 418.02887 91.888096 
L 418.02887 79.442156 
L 430.309639 79.442156 
L 430.309639 72.286019 
L 438.203558 72.286019 
L 438.203558 72.470414 
L 439.722083 72.470414 
" clip-path="url(#p308f77b863)" style="fill: none; stroke: #46a05b; stroke-opacity: 0.25; stroke-linecap: square"/>
   </g>
   <g id="line2d_21">
    <path d="M 78.168542 181.813602 
L 78.168542 181.813602 
L 162.169481 181.813602 
L 162.169481 211.169789 
L 193.383604 211.169789 
L 193.383604 233.916956 
L 247.255081 233.916956 
L 247.255081 245.137789 
L 273.166418 245.137789 
L 273.166418 246.540598 
L 299.559827 246.540598 
L 299.559827 190.312981 
L 352.394851 190.312981 
L 352.394851 168.765827 
L 375.449915 168.765827 
L 375.449915 132.801844 
L 396.335658 132.801844 
L 396.335658 108.732057 
L 408.628478 108.732057 
L 408.628478 96.196585 
L 418.02887 96.196585 
L 418.02887 90.404271 
L 430.309639 90.404271 
L 430.309639 80.440815 
L 438.203558 80.440815 
L 438.203558 82.619505 
L 439.722083 82.619505 
" clip-path="url(#p308f77b863)" style="fill: none; stroke: #46a05b; stroke-opacity: 0.25; stroke-linecap: square"/>
   </g>
   <g id="line2d_22">
    <path d="M 78.168542 142.605328 
L 78.168542 142.605328 
L 162.169481 142.605328 
L 162.169481 172.046814 
L 193.383604 172.046814 
L 193.383604 221.022469 
L 247.255081 221.022469 
L 247.255081 229.826612 
L 273.166418 229.826612 
L 273.166418 272.673572 
L 299.559827 272.673572 
L 299.559827 222.707733 
L 352.394851 222.707733 
L 352.394851 168.259638 
L 375.449915 168.259638 
L 375.449915 125.930673 
L 396.335658 125.930673 
L 396.335658 103.622805 
L 408.628478 103.622805 
L 408.628478 89.486086 
L 418.02887 89.486086 
L 418.02887 80.096961 
L 430.309639 80.096961 
L 430.309639 76.454417 
L 438.203558 76.454417 
L 438.203558 75.706889 
L 439.722083 75.706889 
" clip-path="url(#p308f77b863)" style="fill: none; stroke: #46a05b; stroke-opacity: 0.25; stroke-linecap: square"/>
   </g>
   <g id="line2d_23">
    <path d="M 78.168542 182.484624 
L 78.168542 182.484624 
L 162.169481 182.484624 
L 162.169481 194.901144 
L 193.383604 194.901144 
L 193.383604 217.401712 
L 247.255081 217.401712 
L 247.255081 233.356465 
L 273.166418 233.356465 
L 273.166418 219.134088 
L 299.559827 219.134088 
L 299.559827 188.658981 
L 352.394851 188.658981 
L 352.394851 144.794357 
L 375.449915 144.794357 
L 375.449915 116.864248 
L 396.335658 116.864248 
L 396.335658 88.64635 
L 408.628478 88.64635 
L 408.628478 74.563034 
L 418.02887 74.563034 
L 418.02887 60.104088 
L 430.309639 60.104088 
L 430.309639 51.03712 
L 438.203558 51.03712 
L 438.203558 50.87526 
L 439.722083 50.87526 
" clip-path="url(#p308f77b863)" style="fill: none; stroke: #46a05b; stroke-opacity: 0.25; stroke-linecap: square"/>
   </g>
   <g id="line2d_24">
    <path d="M 78.168542 133.486413 
L 78.168542 133.486413 
L 162.169481 133.486413 
L 162.169481 148.993392 
L 193.383604 148.993392 
L 193.383604 194.757066 
L 247.255081 194.757066 
L 247.255081 217.277629 
L 273.166418 217.277629 
L 273.166418 235.150694 
L 299.559827 235.150694 
L 299.559827 213.380817 
L 352.394851 213.380817 
L 352.394851 194.974857 
L 375.449915 194.974857 
L 375.449915 120.339129 
L 396.335658 120.339129 
L 396.335658 92.767155 
L 408.628478 92.767155 
L 408.628478 83.896087 
L 418.02887 83.896087 
L 418.02887 71.34266 
L 430.309639 71.34266 
L 430.309639 59.42523 
L 438.203558 59.42523 
L 438.203558 62.791036 
L 439.722083 62.791036 
" clip-path="url(#p308f77b863)" style="fill: none; stroke: #46a05b; stroke-opacity: 0.25; stroke-linecap: square"/>
   </g>
   <g id="line2d_25">
    <path d="M 78.168542 199.744816 
L 78.168542 199.744816 
L 162.169481 199.744816 
L 162.169481 203.860143 
L 193.383604 203.860143 
L 193.383604 211.222524 
L 247.255081 211.222524 
L 247.255081 206.607381 
L 273.166418 206.607381 
L 273.166418 206.310561 
L 299.559827 206.310561 
L 299.559827 174.130574 
L 352.394851 174.130574 
L 352.394851 156.382864 
L 375.449915 156.382864 
L 375.449915 112.878079 
L 396.335658 112.878079 
L 396.335658 110.81242 
L 408.628478 110.81242 
L 408.628478 98.88715 
L 418.02887 98.88715 
L 418.02887 80.31976 
L 430.309639 80.31976 
L 430.309639 67.662346 
L 438.203558 67.662346 
L 438.203558 73.742591 
L 439.722083 73.742591 
" clip-path="url(#p308f77b863)" style="fill: none; stroke: #46a05b; stroke-opacity: 0.25; stroke-linecap: square"/>
   </g>
   <g id="line2d_26">
    <path d="M 78.168542 184.356461 
L 78.168542 184.356461 
L 162.169481 184.356461 
L 162.169481 200.613263 
L 193.383604 200.613263 
L 193.383604 237.845419 
L 247.255081 237.845419 
L 247.255081 259.096644 
L 273.166418 259.096644 
L 273.166418 240.761648 
L 299.559827 240.761648 
L 299.559827 186.045429 
L 352.394851 186.045429 
L 352.394851 140.622593 
L 375.449915 140.622593 
L 375.449915 118.642004 
L 396.335658 118.642004 
L 396.335658 94.05108 
L 408.628478 94.05108 
L 408.628478 80.588173 
L 418.02887 80.588173 
L 418.02887 70.260959 
L 430.309639 70.260959 
L 430.309639 55.64575 
L 438.203558 55.64575 
L 438.203558 60.139464 
L 439.722083 60.139464 
" clip-path="url(#p308f77b863)" style="fill: none; stroke: #46a05b; stroke-opacity: 0.25; stroke-linecap: square"/>
   </g>
   <g id="line2d_27">
    <path d="M 78.168542 162.32659 
L 78.168542 162.32659 
L 162.169481 162.32659 
L 162.169481 164.775363 
L 193.383604 164.775363 
L 193.383604 212.152173 
L 247.255081 212.152173 
L 247.255081 243.075612 
L 273.166418 243.075612 
L 273.166418 261.774467 
L 299.559827 261.774467 
L 299.559827 239.620353 
L 352.394851 239.620353 
L 352.394851 166.385446 
L 375.449915 166.385446 
L 375.449915 144.933267 
L 396.335658 144.933267 
L 396.335658 122.999103 
L 408.628478 122.999103 
L 408.628478 116.166531 
L 418.02887 116.166531 
L 418.02887 106.52302 
L 430.309639 106.52302 
L 430.309639 106.156908 
L 438.203558 106.156908 
L 438.203558 105.378137 
L 439.722083 105.378137 
" clip-path="url(#p308f77b863)" style="fill: none; stroke: #46a05b; stroke-opacity: 0.25; stroke-linecap: square"/>
   </g>
   <g id="line2d_28">
    <path d="M 78.168542 165.972396 
L 78.168542 165.972396 
L 162.169481 165.972396 
L 162.169481 189.758252 
L 193.383604 189.758252 
L 193.383604 229.853 
L 247.255081 229.853 
L 247.255081 239.046844 
L 273.166418 239.046844 
L 273.166418 241.952512 
L 299.559827 241.952512 
L 299.559827 214.286594 
L 352.394851 214.286594 
L 352.394851 165.758029 
L 375.449915 165.758029 
L 375.449915 121.339316 
L 396.335658 121.339316 
L 396.335658 100.186147 
L 408.628478 100.186147 
L 408.628478 85.581306 
L 418.02887 85.581306 
L 418.02887 66.977052 
L 430.309639 66.977052 
L 430.309639 67.115951 
L 438.203558 67.115951 
L 438.203558 61.744571 
L 439.722083 61.744571 
" clip-path="url(#p308f77b863)" style="fill: none; stroke: #46a05b; stroke-opacity: 0.25; stroke-linecap: square"/>
   </g>
   <g id="line2d_29">
    <path d="M 78.168542 165.867989 
L 78.168542 165.867989 
L 162.169481 165.867989 
L 162.169481 197.725838 
L 193.383604 197.725838 
L 193.383604 234.175603 
L 247.255081 234.175603 
L 247.255081 239.421266 
L 273.166418 239.421266 
L 273.166418 254.672064 
L 299.559827 254.672064 
L 299.559827 221.907556 
L 352.394851 221.907556 
L 352.394851 138.401111 
L 375.449915 138.401111 
L 375.449915 112.238947 
L 396.335658 112.238947 
L 396.335658 87.591498 
L 408.628478 87.591498 
L 408.628478 72.0605 
L 418.02887 72.0605 
L 418.02887 60.396897 
L 430.309639 60.396897 
L 430.309639 48.953608 
L 438.203558 48.953608 
L 438.203558 50.793167 
L 439.722083 50.793167 
" clip-path="url(#p308f77b863)" style="fill: none; stroke: #46a05b; stroke-opacity: 0.25; stroke-linecap: square"/>
   </g>
   <g id="line2d_30">
    <path d="M 78.168542 167.405669 
L 78.168542 167.405669 
L 162.169481 167.405669 
L 162.169481 191.197468 
L 193.383604 191.197468 
L 193.383604 222.9266 
L 247.255081 222.9266 
L 247.255081 236.677531 
L 273.166418 236.677531 
L 273.166418 258.361005 
L 299.559827 258.361005 
L 299.559827 210.113574 
L 352.394851 210.113574 
L 352.394851 168.29248 
L 375.449915 168.29248 
L 375.449915 128.836301 
L 396.335658 128.836301 
L 396.335658 119.044722 
L 408.628478 119.044722 
L 408.628478 111.819949 
L 418.02887 111.819949 
L 418.02887 103.356376 
L 430.309639 103.356376 
L 430.309639 98.201836 
L 438.203558 98.201836 
L 438.203558 100.565564 
L 439.722083 100.565564 
" clip-path="url(#p308f77b863)" style="fill: none; stroke: #46a05b; stroke-opacity: 0.25; stroke-linecap: square"/>
   </g>
   <g id="line2d_31">
    <path d="M 78.168542 174.218834 
L 78.168542 174.218834 
L 162.169481 174.218834 
L 162.169481 194.673751 
L 193.383604 194.673751 
L 193.383604 212.46036 
L 247.255081 212.46036 
L 247.255081 237.029782 
L 273.166418 237.029782 
L 273.166418 236.559449 
L 299.559827 236.559449 
L 299.559827 208.013563 
L 352.394851 208.013563 
L 352.394851 169.870735 
L 375.449915 169.870735 
L 375.449915 125.910685 
L 396.335658 125.910685 
L 396.335658 105.295284 
L 408.628478 105.295284 
L 408.628478 99.13207 
L 418.02887 99.13207 
L 418.02887 88.570147 
L 430.309639 88.570147 
L 430.309639 80.096965 
L 438.203558 80.096965 
L 438.203558 81.219023 
L 439.722083 81.219023 
" clip-path="url(#p308f77b863)" style="fill: none; stroke: #46a05b; stroke-opacity: 0.25; stroke-linecap: square"/>
   </g>
   <g id="line2d_32">
    <path d="M 78.168542 167.420434 
L 78.168542 167.420434 
L 162.169481 167.420434 
L 162.169481 196.082164 
L 193.383604 196.082164 
L 193.383604 236.696885 
L 247.255081 236.696885 
L 247.255081 246.267246 
L 273.166418 246.267246 
L 273.166418 239.930152 
L 299.559827 239.930152 
L 299.559827 216.962678 
L 352.394851 216.962678 
L 352.394851 147.38291 
L 375.449915 147.38291 
L 375.449915 117.840077 
L 396.335658 117.840077 
L 396.335658 88.844565 
L 408.628478 88.844565 
L 408.628478 70.395632 
L 418.02887 70.395632 
L 418.02887 58.778293 
L 430.309639 58.778293 
L 430.309639 47.070508 
L 438.203558 47.070508 
L 438.203558 47.670579 
L 439.722083 47.670579 
" clip-path="url(#p308f77b863)" style="fill: none; stroke: #46a05b; stroke-opacity: 0.25; stroke-linecap: square"/>
   </g>
   <g id="line2d_33">
    <path d="M 78.168542 167.766783 
L 78.168542 167.766783 
L 162.169481 167.766783 
L 162.169481 207.817411 
L 193.383604 207.817411 
L 193.383604 242.52363 
L 247.255081 242.52363 
L 247.255081 213.05671 
L 273.166418 213.05671 
L 273.166418 252.797317 
L 299.559827 252.797317 
L 299.559827 201.85685 
L 352.394851 201.85685 
L 352.394851 145.737083 
L 375.449915 145.737083 
L 375.449915 118.310014 
L 396.335658 118.310014 
L 396.335658 90.471093 
L 408.628478 90.471093 
L 408.628478 64.950586 
L 418.02887 64.950586 
L 418.02887 46.441563 
L 430.309639 46.441563 
L 430.309639 16.252065 
L 438.203558 16.252065 
L 438.203558 28.540751 
L 439.722083 28.540751 
" clip-path="url(#p308f77b863)" style="fill: none; stroke: #46a05b; stroke-opacity: 0.25; stroke-linecap: square"/>
   </g>
   <g id="line2d_34">
    <path d="M 78.168542 156.111519 
L 78.168542 156.111519 
L 162.169481 156.111519 
L 162.169481 219.06731 
L 193.383604 219.06731 
L 193.383604 244.171839 
L 247.255081 244.171839 
L 247.255081 269.793979 
L 273.166418 269.793979 
L 273.166418 248.521223 
L 299.559827 248.521223 
L 299.559827 195.196638 
L 352.394851 195.196638 
L 352.394851 151.693429 
L 375.449915 151.693429 
L 375.449915 131.367521 
L 396.335658 131.367521 
L 396.335658 125.086759 
L 408.628478 125.086759 
L 408.628478 104.666723 
L 418.02887 104.666723 
L 418.02887 93.894196 
L 430.309639 93.894196 
L 430.309639 88.250426 
L 438.203558 88.250426 
L 438.203558 90.935746 
L 439.722083 90.935746 
" clip-path="url(#p308f77b863)" style="fill: none; stroke: #46a05b; stroke-opacity: 0.25; stroke-linecap: square"/>
   </g>
   <g id="line2d_35">
    <path d="M 78.168542 176.402698 
L 78.168542 176.402698 
L 162.169481 176.402698 
L 162.169481 215.924471 
L 193.383604 215.924471 
L 193.383604 236.382655 
L 247.255081 236.382655 
L 247.255081 243.110444 
L 273.166418 243.110444 
L 273.166418 260.410696 
L 299.559827 260.410696 
L 299.559827 207.516324 
L 352.394851 207.516324 
L 352.394851 161.394893 
L 375.449915 161.394893 
L 375.449915 130.885521 
L 396.335658 130.885521 
L 396.335658 116.174801 
L 408.628478 116.174801 
L 408.628478 109.899878 
L 418.02887 109.899878 
L 418.02887 103.032949 
L 430.309639 103.032949 
L 430.309639 98.818956 
L 438.203558 98.818956 
L 438.203558 99.471294 
L 439.722083 99.471294 
" clip-path="url(#p308f77b863)" style="fill: none; stroke: #46a05b; stroke-opacity: 0.25; stroke-linecap: square"/>
   </g>
   <g id="line2d_36">
    <path d="M 78.168542 144.804075 
L 78.168542 144.804075 
L 162.169481 144.804075 
L 162.169481 203.025118 
L 193.383604 203.025118 
L 193.383604 233.180756 
L 247.255081 233.180756 
L 247.255081 237.957909 
L 273.166418 237.957909 
L 273.166418 254.755617 
L 299.559827 254.755617 
L 299.559827 223.709964 
L 352.394851 223.709964 
L 352.394851 169.826079 
L 375.449915 169.826079 
L 375.449915 128.766877 
L 396.335658 128.766877 
L 396.335658 102.619151 
L 408.628478 102.619151 
L 408.628478 96.822226 
L 418.02887 96.822226 
L 418.02887 85.512085 
L 430.309639 85.512085 
L 430.309639 70.959182 
L 438.203558 70.959182 
L 438.203558 78.373007 
L 439.722083 78.373007 
" clip-path="url(#p308f77b863)" style="fill: none; stroke: #46a05b; stroke-opacity: 0.25; stroke-linecap: square"/>
   </g>
   <g id="line2d_37">
    <path d="M 78.168542 170.308641 
L 78.168542 170.308641 
L 162.169481 170.308641 
L 162.169481 185.131732 
L 193.383604 185.131732 
L 193.383604 233.365031 
L 247.255081 233.365031 
L 247.255081 218.295084 
L 273.166418 218.295084 
L 273.166418 256.091491 
L 299.559827 256.091491 
L 299.559827 239.903885 
L 352.394851 239.903885 
L 352.394851 164.73074 
L 375.449915 164.73074 
L 375.449915 129.275178 
L 396.335658 129.275178 
L 396.335658 99.070277 
L 408.628478 99.070277 
L 408.628478 89.798466 
L 418.02887 89.798466 
L 418.02887 79.721481 
L 430.309639 79.721481 
L 430.309639 75.049772 
L 438.203558 75.049772 
L 438.203558 75.076623 
L 439.722083 75.076623 
" clip-path="url(#p308f77b863)" style="fill: none; stroke: #46a05b; stroke-opacity: 0.25; stroke-linecap: square"/>
   </g>
   <g id="line2d_38">
    <path d="M 78.168542 185.947329 
L 78.168542 185.947329 
L 162.169481 185.947329 
L 162.169481 204.180242 
L 193.383604 204.180242 
L 193.383604 228.783597 
L 247.255081 228.783597 
L 247.255081 236.224557 
L 273.166418 236.224557 
L 273.166418 252.324508 
L 299.559827 252.324508 
L 299.559827 199.973231 
L 352.394851 199.973231 
L 352.394851 139.033342 
L 375.449915 139.033342 
L 375.449915 127.569614 
L 396.335658 127.569614 
L 396.335658 102.363327 
L 408.628478 102.363327 
L 408.628478 91.707537 
L 418.02887 91.707537 
L 418.02887 80.421228 
L 430.309639 80.421228 
L 430.309639 64.727037 
L 438.203558 64.727037 
L 438.203558 71.622553 
L 439.722083 71.622553 
" clip-path="url(#p308f77b863)" style="fill: none; stroke: #46a05b; stroke-opacity: 0.25; stroke-linecap: square"/>
   </g>
   <g id="line2d_39">
    <path d="M 78.168542 156.365198 
L 78.168542 156.365198 
L 162.169481 156.365198 
L 162.169481 188.141958 
L 193.383604 188.141958 
L 193.383604 220.632957 
L 247.255081 220.632957 
L 247.255081 229.227074 
L 273.166418 229.227074 
L 273.166418 264.653819 
L 299.559827 264.653819 
L 299.559827 227.190342 
L 352.394851 227.190342 
L 352.394851 148.924384 
L 375.449915 148.924384 
L 375.449915 135.223012 
L 396.335658 135.223012 
L 396.335658 116.061722 
L 408.628478 116.061722 
L 408.628478 101.884866 
L 418.02887 101.884866 
L 418.02887 93.380784 
L 430.309639 93.380784 
L 430.309639 87.957603 
L 438.203558 87.957603 
L 438.203558 89.458638 
L 439.722083 89.458638 
" clip-path="url(#p308f77b863)" style="fill: none; stroke: #46a05b; stroke-opacity: 0.25; stroke-linecap: square"/>
   </g>
   <g id="line2d_40">
    <path d="M 78.168542 162.191679 
L 78.168542 162.191679 
L 162.169481 162.191679 
L 162.169481 170.744689 
L 193.383604 170.744689 
L 193.383604 193.422261 
L 247.255081 193.422261 
L 247.255081 225.813599 
L 273.166418 225.813599 
L 273.166418 242.725974 
L 299.559827 242.725974 
L 299.559827 230.171631 
L 352.394851 230.171631 
L 352.394851 174.411566 
L 375.449915 174.411566 
L 375.449915 116.390896 
L 396.335658 116.390896 
L 396.335658 97.023906 
L 408.628478 97.023906 
L 408.628478 87.243621 
L 418.02887 87.243621 
L 418.02887 76.362311 
L 430.309639 76.362311 
L 430.309639 72.269211 
L 438.203558 72.269211 
L 438.203558 71.909527 
L 439.722083 71.909527 
" clip-path="url(#p308f77b863)" style="fill: none; stroke: #46a05b; stroke-opacity: 0.25; stroke-linecap: square"/>
   </g>
   <g id="line2d_41">
    <path d="M 78.168542 165.786828 
L 78.168542 165.786828 
L 162.169481 165.786828 
L 162.169481 180.037832 
L 193.383604 180.037832 
L 193.383604 216.599436 
L 247.255081 216.599436 
L 247.255081 215.458571 
L 273.166418 215.458571 
L 273.166418 234.765219 
L 299.559827 234.765219 
L 299.559827 199.160061 
L 352.394851 199.160061 
L 352.394851 145.121147 
L 375.449915 145.121147 
L 375.449915 107.800475 
L 396.335658 107.800475 
L 396.335658 86.334189 
L 408.628478 86.334189 
L 408.628478 73.272979 
L 418.02887 73.272979 
L 418.02887 62.063626 
L 430.309639 62.063626 
L 430.309639 49.634362 
L 438.203558 49.634362 
L 438.203558 52.312574 
L 439.722083 52.312574 
" clip-path="url(#p308f77b863)" style="fill: none; stroke: #46a05b; stroke-opacity: 0.25; stroke-linecap: square"/>
   </g>
   <g id="line2d_42">
    <path d="M 78.168542 168.907855 
L 78.168542 168.907855 
L 162.169481 168.907855 
L 162.169481 207.285146 
L 193.383604 207.285146 
L 193.383604 237.292794 
L 247.255081 237.292794 
L 247.255081 246.106033 
L 273.166418 246.106033 
L 273.166418 258.278094 
L 299.559827 258.278094 
L 299.559827 203.095849 
L 352.394851 203.095849 
L 352.394851 166.638009 
L 375.449915 166.638009 
L 375.449915 129.19862 
L 396.335658 129.19862 
L 396.335658 115.776209 
L 408.628478 115.776209 
L 408.628478 112.252338 
L 418.02887 112.252338 
L 418.02887 103.630469 
L 430.309639 103.630469 
L 430.309639 101.972439 
L 438.203558 101.972439 
L 438.203558 100.554959 
L 439.722083 100.554959 
" clip-path="url(#p308f77b863)" style="fill: none; stroke: #46a05b; stroke-opacity: 0.25; stroke-linecap: square"/>
   </g>
   <g id="line2d_43">
    <path d="M 78.168542 181.570919 
L 78.168542 181.570919 
L 162.169481 181.570919 
L 162.169481 187.336037 
L 193.383604 187.336037 
L 193.383604 213.519251 
L 247.255081 213.519251 
L 247.255081 227.299994 
L 273.166418 227.299994 
L 273.166418 227.852875 
L 299.559827 227.852875 
L 299.559827 213.947026 
L 352.394851 213.947026 
L 352.394851 143.536448 
L 375.449915 143.536448 
L 375.449915 108.035034 
L 396.335658 108.035034 
L 396.335658 92.517743 
L 408.628478 92.517743 
L 408.628478 76.532313 
L 418.02887 76.532313 
L 418.02887 65.826855 
L 430.309639 65.826855 
L 430.309639 57.946612 
L 438.203558 57.946612 
L 438.203558 58.644445 
L 439.722083 58.644445 
" clip-path="url(#p308f77b863)" style="fill: none; stroke: #46a05b; stroke-opacity: 0.25; stroke-linecap: square"/>
   </g>
   <g id="line2d_44">
    <path d="M 78.168542 201.351842 
L 78.168542 201.351842 
L 162.169481 201.351842 
L 162.169481 207.927236 
L 193.383604 207.927236 
L 193.383604 232.557911 
L 247.255081 232.557911 
L 247.255081 229.020482 
L 273.166418 229.020482 
L 273.166418 239.077037 
L 299.559827 239.077037 
L 299.559827 184.297485 
L 352.394851 184.297485 
L 352.394851 134.371124 
L 375.449915 134.371124 
L 375.449915 104.002173 
L 396.335658 104.002173 
L 396.335658 95.119436 
L 408.628478 95.119436 
L 408.628478 76.868138 
L 418.02887 76.868138 
L 418.02887 63.435487 
L 430.309639 63.435487 
L 430.309639 50.469545 
L 438.203558 50.469545 
L 438.203558 55.221035 
L 439.722083 55.221035 
" clip-path="url(#p308f77b863)" style="fill: none; stroke: #46a05b; stroke-opacity: 0.25; stroke-linecap: square"/>
   </g>
   <g id="line2d_45">
    <path d="M 78.168542 167.119424 
L 78.168542 167.119424 
L 162.169481 167.119424 
L 162.169481 204.402217 
L 193.383604 204.402217 
L 193.383604 224.959812 
L 247.255081 224.959812 
L 247.255081 261.314098 
L 273.166418 261.314098 
L 273.166418 261.609474 
L 299.559827 261.609474 
L 299.559827 215.776927 
L 352.394851 215.776927 
L 352.394851 172.13319 
L 375.449915 172.13319 
L 375.449915 137.478453 
L 396.335658 137.478453 
L 396.335658 125.764261 
L 408.628478 125.764261 
L 408.628478 113.926973 
L 418.02887 113.926973 
L 418.02887 112.538071 
L 430.309639 112.538071 
L 430.309639 108.351721 
L 438.203558 108.351721 
L 438.203558 108.848998 
L 439.722083 108.848998 
" clip-path="url(#p308f77b863)" style="fill: none; stroke: #46a05b; stroke-opacity: 0.25; stroke-linecap: square"/>
   </g>
   <g id="line2d_46">
    <path d="M 78.168542 200.710489 
L 78.168542 200.710489 
L 162.169481 200.710489 
L 162.169481 211.294983 
L 193.383604 211.294983 
L 193.383604 221.469528 
L 247.255081 221.469528 
L 247.255081 217.342957 
L 273.166418 217.342957 
L 273.166418 247.88892 
L 299.559827 247.88892 
L 299.559827 207.972483 
L 352.394851 207.972483 
L 352.394851 172.018641 
L 375.449915 172.018641 
L 375.449915 123.159446 
L 396.335658 123.159446 
L 396.335658 105.921641 
L 408.628478 105.921641 
L 408.628478 104.442811 
L 418.02887 104.442811 
L 418.02887 89.876185 
L 430.309639 89.876185 
L 430.309639 82.531384 
L 438.203558 82.531384 
L 438.203558 84.584572 
L 439.722083 84.584572 
" clip-path="url(#p308f77b863)" style="fill: none; stroke: #46a05b; stroke-opacity: 0.25; stroke-linecap: square"/>
   </g>
   <g id="line2d_47">
    <path d="M 78.168542 192.992102 
L 78.168542 192.992102 
L 162.169481 192.992102 
L 162.169481 202.274415 
L 193.383604 202.274415 
L 193.383604 221.47684 
L 247.255081 221.47684 
L 247.255081 203.083202 
L 273.166418 203.083202 
L 273.166418 222.039861 
L 299.559827 222.039861 
L 299.559827 198.143407 
L 352.394851 198.143407 
L 352.394851 127.89777 
L 375.449915 127.89777 
L 375.449915 95.274331 
L 396.335658 95.274331 
L 396.335658 88.428143 
L 408.628478 88.428143 
L 408.628478 66.291545 
L 418.02887 66.291545 
L 418.02887 56.270828 
L 430.309639 56.270828 
L 430.309639 42.619654 
L 438.203558 42.619654 
L 438.203558 44.48853 
L 439.722083 44.48853 
" clip-path="url(#p308f77b863)" style="fill: none; stroke: #46a05b; stroke-opacity: 0.25; stroke-linecap: square"/>
   </g>
   <g id="line2d_48">
    <path d="M 78.168542 167.255217 
L 78.168542 167.255217 
L 162.169481 167.255217 
L 162.169481 183.047636 
L 193.383604 183.047636 
L 193.383604 229.719371 
L 247.255081 229.719371 
L 247.255081 210.085137 
L 273.166418 210.085137 
L 273.166418 235.13169 
L 299.559827 235.13169 
L 299.559827 209.684924 
L 352.394851 209.684924 
L 352.394851 182.069354 
L 375.449915 182.069354 
L 375.449915 150.438793 
L 396.335658 150.438793 
L 396.335658 143.070608 
L 408.628478 143.070608 
L 408.628478 134.988266 
L 418.02887 134.988266 
L 418.02887 132.968298 
L 430.309639 132.968298 
L 430.309639 131.764057 
L 438.203558 131.764057 
L 438.203558 130.336205 
L 439.722083 130.336205 
" clip-path="url(#p308f77b863)" style="fill: none; stroke: #46a05b; stroke-opacity: 0.25; stroke-linecap: square"/>
   </g>
   <g id="line2d_49">
    <path d="M 78.168542 132.2592 
L 78.168542 132.2592 
L 162.169481 132.2592 
L 162.169481 174.18109 
L 193.383604 174.18109 
L 193.383604 213.346974 
L 247.255081 213.346974 
L 247.255081 242.99172 
L 273.166418 242.99172 
L 273.166418 245.884999 
L 299.559827 245.884999 
L 299.559827 227.541805 
L 352.394851 227.541805 
L 352.394851 173.25197 
L 375.449915 173.25197 
L 375.449915 138.695 
L 396.335658 138.695 
L 396.335658 122.056094 
L 408.628478 122.056094 
L 408.628478 113.49179 
L 418.02887 113.49179 
L 418.02887 109.057522 
L 430.309639 109.057522 
L 430.309639 105.687936 
L 438.203558 105.687936 
L 438.203558 105.973636 
L 439.722083 105.973636 
" clip-path="url(#p308f77b863)" style="fill: none; stroke: #46a05b; stroke-opacity: 0.25; stroke-linecap: square"/>
   </g>
   <g id="line2d_50">
    <path d="M 78.168542 150.271459 
L 78.168542 150.271459 
L 162.169481 150.271459 
L 162.169481 180.404721 
L 193.383604 180.404721 
L 193.383604 215.928622 
L 247.255081 215.928622 
L 247.255081 217.834512 
L 273.166418 217.834512 
L 273.166418 234.265913 
L 299.559827 234.265913 
L 299.559827 194.946802 
L 352.394851 194.946802 
L 352.394851 135.898959 
L 375.449915 135.898959 
L 375.449915 116.309809 
L 396.335658 116.309809 
L 396.335658 88.508012 
L 408.628478 88.508012 
L 408.628478 70.506818 
L 418.02887 70.506818 
L 418.02887 55.991632 
L 430.309639 55.991632 
L 430.309639 44.69567 
L 438.203558 44.69567 
L 438.203558 42.80658 
L 439.722083 42.80658 
" clip-path="url(#p308f77b863)" style="fill: none; stroke: #46a05b; stroke-opacity: 0.25; stroke-linecap: square"/>
   </g>
   <g id="line2d_51">
    <path d="M 78.168542 196.496206 
L 78.168542 196.496206 
L 162.169481 196.496206 
L 162.169481 213.408554 
L 193.383604 213.408554 
L 193.383604 216.455289 
L 247.255081 216.455289 
L 247.255081 237.40753 
L 273.166418 237.40753 
L 273.166418 224.109764 
L 299.559827 224.109764 
L 299.559827 198.358425 
L 352.394851 198.358425 
L 352.394851 146.428616 
L 375.449915 146.428616 
L 375.449915 128.627645 
L 396.335658 128.627645 
L 396.335658 104.360887 
L 408.628478 104.360887 
L 408.628478 98.383267 
L 418.02887 98.383267 
L 418.02887 83.177142 
L 430.309639 83.177142 
L 430.309639 77.581103 
L 438.203558 77.581103 
L 438.203558 76.310217 
L 439.722083 76.310217 
" clip-path="url(#p308f77b863)" style="fill: none; stroke: #46a05b; stroke-opacity: 0.25; stroke-linecap: square"/>
   </g>
   <g id="line2d_52">
    <path d="M 78.168542 173.519981 
L 78.168542 173.519981 
L 162.169481 173.519981 
L 162.169481 207.788503 
L 193.383604 207.788503 
L 193.383604 223.858929 
L 247.255081 223.858929 
L 247.255081 255.68012 
L 273.166418 255.68012 
L 273.166418 270.284989 
L 299.559827 270.284989 
L 299.559827 248.475361 
L 352.394851 248.475361 
L 352.394851 178.291164 
L 375.449915 178.291164 
L 375.449915 136.163949 
L 396.335658 136.163949 
L 396.335658 117.323237 
L 408.628478 117.323237 
L 408.628478 108.011886 
L 418.02887 108.011886 
L 418.02887 99.898009 
L 430.309639 99.898009 
L 430.309639 94.747643 
L 438.203558 94.747643 
L 438.203558 96.728149 
L 439.722083 96.728149 
" clip-path="url(#p308f77b863)" style="fill: none; stroke: #46a05b; stroke-opacity: 0.25; stroke-linecap: square"/>
   </g>
   <g id="line2d_53">
    <path d="M 78.168542 177.338447 
L 78.168542 177.338447 
L 162.169481 177.338447 
L 162.169481 212.402404 
L 193.383604 212.402404 
L 193.383604 225.766617 
L 247.255081 225.766617 
L 247.255081 262.485678 
L 273.166418 262.485678 
L 273.166418 243.369949 
L 299.559827 243.369949 
L 299.559827 207.295877 
L 352.394851 207.295877 
L 352.394851 151.251129 
L 375.449915 151.251129 
L 375.449915 125.541465 
L 396.335658 125.541465 
L 396.335658 106.232212 
L 408.628478 106.232212 
L 408.628478 95.748858 
L 418.02887 95.748858 
L 418.02887 84.809631 
L 430.309639 84.809631 
L 430.309639 73.772069 
L 438.203558 73.772069 
L 438.203558 78.040803 
L 439.722083 78.040803 
" clip-path="url(#p308f77b863)" style="fill: none; stroke: #46a05b; stroke-opacity: 0.25; stroke-linecap: square"/>
   </g>
   <g id="line2d_54">
    <path d="M 78.168542 145.048769 
L 78.168542 145.048769 
L 162.169481 145.048769 
L 162.169481 176.550999 
L 193.383604 176.550999 
L 193.383604 213.368902 
L 247.255081 213.368902 
L 247.255081 228.335182 
L 273.166418 228.335182 
L 273.166418 249.647731 
L 299.559827 249.647731 
L 299.559827 213.513809 
L 352.394851 213.513809 
L 352.394851 160.471243 
L 375.449915 160.471243 
L 375.449915 130.633315 
L 396.335658 130.633315 
L 396.335658 109.877176 
L 408.628478 109.877176 
L 408.628478 97.585475 
L 418.02887 97.585475 
L 418.02887 90.363184 
L 430.309639 90.363184 
L 430.309639 83.627505 
L 438.203558 83.627505 
L 438.203558 86.253272 
L 439.722083 86.253272 
" clip-path="url(#p308f77b863)" style="fill: none; stroke: #46a05b; stroke-opacity: 0.25; stroke-linecap: square"/>
   </g>
   <g id="line2d_55">
    <path d="M 78.168542 175.844734 
L 78.168542 175.844734 
L 162.169481 175.844734 
L 162.169481 182.787396 
L 193.383604 182.787396 
L 193.383604 224.198682 
L 247.255081 224.198682 
L 247.255081 230.82608 
L 273.166418 230.82608 
L 273.166418 243.33889 
L 299.559827 243.33889 
L 299.559827 212.049653 
L 352.394851 212.049653 
L 352.394851 152.064535 
L 375.449915 152.064535 
L 375.449915 138.127622 
L 396.335658 138.127622 
L 396.335658 113.05493 
L 408.628478 113.05493 
L 408.628478 107.472592 
L 418.02887 107.472592 
L 418.02887 90.701281 
L 430.309639 90.701281 
L 430.309639 84.54806 
L 438.203558 84.54806 
L 438.203558 88.222353 
L 439.722083 88.222353 
" clip-path="url(#p308f77b863)" style="fill: none; stroke: #46a05b; stroke-opacity: 0.25; stroke-linecap: square"/>
   </g>
   <g id="line2d_56">
    <path d="M 78.168542 176.298552 
L 78.168542 176.298552 
L 162.169481 176.298552 
L 162.169481 198.102068 
L 193.383604 198.102068 
L 193.383604 225.676004 
L 247.255081 225.676004 
L 247.255081 230.6671 
L 273.166418 230.6671 
L 273.166418 255.74079 
L 299.559827 255.74079 
L 299.559827 210.496296 
L 352.394851 210.496296 
L 352.394851 160.282623 
L 375.449915 160.282623 
L 375.449915 139.992392 
L 396.335658 139.992392 
L 396.335658 122.89896 
L 408.628478 122.89896 
L 408.628478 112.103495 
L 418.02887 112.103495 
L 418.02887 109.748554 
L 430.309639 109.748554 
L 430.309639 101.831308 
L 438.203558 101.831308 
L 438.203558 103.458389 
L 439.722083 103.458389 
" clip-path="url(#p308f77b863)" style="fill: none; stroke: #46a05b; stroke-opacity: 0.25; stroke-linecap: square"/>
   </g>
   <g id="line2d_57">
    <path d="M 78.168542 178.358109 
L 78.168542 178.358109 
L 162.169481 178.358109 
L 162.169481 195.502327 
L 193.383604 195.502327 
L 193.383604 222.047637 
L 247.255081 222.047637 
L 247.255081 224.164509 
L 273.166418 224.164509 
L 273.166418 240.052203 
L 299.559827 240.052203 
L 299.559827 193.447418 
L 352.394851 193.447418 
L 352.394851 148.150243 
L 375.449915 148.150243 
L 375.449915 109.706305 
L 396.335658 109.706305 
L 396.335658 90.372442 
L 408.628478 90.372442 
L 408.628478 72.292864 
L 418.02887 72.292864 
L 418.02887 58.162817 
L 430.309639 58.162817 
L 430.309639 39.409676 
L 438.203558 39.409676 
L 438.203558 44.729605 
L 439.722083 44.729605 
" clip-path="url(#p308f77b863)" style="fill: none; stroke: #46a05b; stroke-opacity: 0.25; stroke-linecap: square"/>
   </g>
   <g id="line2d_58">
    <path d="M 78.168542 210.292923 
L 78.168542 210.292923 
L 162.169481 210.292923 
L 162.169481 226.601439 
L 193.383604 226.601439 
L 193.383604 237.914046 
L 247.255081 237.914046 
L 247.255081 232.009538 
L 273.166418 232.009538 
L 273.166418 219.653166 
L 299.559827 219.653166 
L 299.559827 188.040525 
L 352.394851 188.040525 
L 352.394851 156.579451 
L 375.449915 156.579451 
L 375.449915 131.347785 
L 396.335658 131.347785 
L 396.335658 119.060026 
L 408.628478 119.060026 
L 408.628478 114.147881 
L 418.02887 114.147881 
L 418.02887 103.484669 
L 430.309639 103.484669 
L 430.309639 97.214185 
L 438.203558 97.214185 
L 438.203558 96.751083 
L 439.722083 96.751083 
" clip-path="url(#p308f77b863)" style="fill: none; stroke: #46a05b; stroke-opacity: 0.25; stroke-linecap: square"/>
   </g>
   <g id="line2d_59">
    <path d="M 78.168542 142.40805 
L 78.168542 142.40805 
L 162.169481 142.40805 
L 162.169481 195.441024 
L 193.383604 195.441024 
L 193.383604 238.815926 
L 247.255081 238.815926 
L 247.255081 241.797274 
L 273.166418 241.797274 
L 273.166418 245.294853 
L 299.559827 245.294853 
L 299.559827 195.012521 
L 352.394851 195.012521 
L 352.394851 149.342526 
L 375.449915 149.342526 
L 375.449915 116.064647 
L 396.335658 116.064647 
L 396.335658 86.638062 
L 408.628478 86.638062 
L 408.628478 78.60116 
L 418.02887 78.60116 
L 418.02887 65.57262 
L 430.309639 65.57262 
L 430.309639 56.673077 
L 438.203558 56.673077 
L 438.203558 55.983764 
L 439.722083 55.983764 
" clip-path="url(#p308f77b863)" style="fill: none; stroke: #46a05b; stroke-opacity: 0.25; stroke-linecap: square"/>
   </g>
   <g id="line2d_60">
    <path d="M 78.168542 181.433251 
L 78.168542 181.433251 
L 162.169481 181.433251 
L 162.169481 212.395956 
L 193.383604 212.395956 
L 193.383604 239.310965 
L 247.255081 239.310965 
L 247.255081 235.065129 
L 273.166418 235.065129 
L 273.166418 257.912916 
L 299.559827 257.912916 
L 299.559827 187.035286 
L 352.394851 187.035286 
L 352.394851 170.179789 
L 375.449915 170.179789 
L 375.449915 122.77782 
L 396.335658 122.77782 
L 396.335658 101.346438 
L 408.628478 101.346438 
L 408.628478 94.633199 
L 418.02887 94.633199 
L 418.02887 79.313191 
L 430.309639 79.313191 
L 430.309639 67.486021 
L 438.203558 67.486021 
L 438.203558 72.022443 
L 439.722083 72.022443 
" clip-path="url(#p308f77b863)" style="fill: none; stroke: #46a05b; stroke-opacity: 0.25; stroke-linecap: square"/>
   </g>
   <g id="line2d_61">
    <path d="M 78.168542 168.379846 
L 78.168542 168.379846 
L 162.169481 168.379846 
L 162.169481 180.153806 
L 193.383604 180.153806 
L 193.383604 215.448023 
L 247.255081 215.448023 
L 247.255081 232.292863 
L 273.166418 232.292863 
L 273.166418 240.323446 
L 299.559827 240.323446 
L 299.559827 200.398907 
L 352.394851 200.398907 
L 352.394851 163.954973 
L 375.449915 163.954973 
L 375.449915 114.396723 
L 396.335658 114.396723 
L 396.335658 96.096234 
L 408.628478 96.096234 
L 408.628478 79.348109 
L 418.02887 79.348109 
L 418.02887 69.099978 
L 430.309639 69.099978 
L 430.309639 61.532093 
L 438.203558 61.532093 
L 438.203558 60.530986 
L 439.722083 60.530986 
" clip-path="url(#p308f77b863)" style="fill: none; stroke: #46a05b; stroke-opacity: 0.25; stroke-linecap: square"/>
   </g>
   <g id="line2d_62">
    <path d="M 78.168542 169.767782 
L 78.168542 169.767782 
L 162.169481 169.767782 
L 162.169481 179.169112 
L 193.383604 179.169112 
L 193.383604 227.46919 
L 247.255081 227.46919 
L 247.255081 257.717466 
L 273.166418 257.717466 
L 273.166418 252.398366 
L 299.559827 252.398366 
L 299.559827 202.970173 
L 352.394851 202.970173 
L 352.394851 163.289971 
L 375.449915 163.289971 
L 375.449915 127.378441 
L 396.335658 127.378441 
L 396.335658 108.065753 
L 408.628478 108.065753 
L 408.628478 96.044885 
L 418.02887 96.044885 
L 418.02887 95.918395 
L 430.309639 95.918395 
L 430.309639 93.784188 
L 438.203558 93.784188 
L 438.203558 91.303847 
L 439.722083 91.303847 
" clip-path="url(#p308f77b863)" style="fill: none; stroke: #46a05b; stroke-opacity: 0.25; stroke-linecap: square"/>
   </g>
   <g id="line2d_63">
    <path d="M 78.168542 178.665441 
L 78.168542 178.665441 
L 162.169481 178.665441 
L 162.169481 186.596951 
L 193.383604 186.596951 
L 193.383604 202.865299 
L 247.255081 202.865299 
L 247.255081 249.34775 
L 273.166418 249.34775 
L 273.166418 241.322853 
L 299.559827 241.322853 
L 299.559827 221.877168 
L 352.394851 221.877168 
L 352.394851 171.109697 
L 375.449915 171.109697 
L 375.449915 127.788961 
L 396.335658 127.788961 
L 396.335658 104.654527 
L 408.628478 104.654527 
L 408.628478 93.085365 
L 418.02887 93.085365 
L 418.02887 80.201155 
L 430.309639 80.201155 
L 430.309639 72.382905 
L 438.203558 72.382905 
L 438.203558 72.791655 
L 439.722083 72.791655 
" clip-path="url(#p308f77b863)" style="fill: none; stroke: #46a05b; stroke-opacity: 0.25; stroke-linecap: square"/>
   </g>
   <g id="line2d_64">
    <path d="M 78.168542 171.579289 
L 78.168542 171.579289 
L 162.169481 171.579289 
L 162.169481 194.249154 
L 193.383604 194.249154 
L 193.383604 210.352145 
L 247.255081 210.352145 
L 247.255081 240.017303 
L 273.166418 240.017303 
L 273.166418 267.407464 
L 299.559827 267.407464 
L 299.559827 227.224834 
L 352.394851 227.224834 
L 352.394851 161.916397 
L 375.449915 161.916397 
L 375.449915 131.583014 
L 396.335658 131.583014 
L 396.335658 117.913315 
L 408.628478 117.913315 
L 408.628478 107.277116 
L 418.02887 107.277116 
L 418.02887 97.394491 
L 430.309639 97.394491 
L 430.309639 95.459183 
L 438.203558 95.459183 
L 438.203558 94.301708 
L 439.722083 94.301708 
" clip-path="url(#p308f77b863)" style="fill: none; stroke: #46a05b; stroke-opacity: 0.25; stroke-linecap: square"/>
   </g>
   <g id="line2d_65">
    <path d="M 78.168542 167.171164 
L 78.168542 167.171164 
L 162.169481 167.171164 
L 162.169481 184.84976 
L 193.383604 184.84976 
L 193.383604 209.485776 
L 247.255081 209.485776 
L 247.255081 227.423622 
L 273.166418 227.423622 
L 273.166418 239.107989 
L 299.559827 239.107989 
L 299.559827 202.237437 
L 352.394851 202.237437 
L 352.394851 158.030152 
L 375.449915 158.030152 
L 375.449915 123.034547 
L 396.335658 123.034547 
L 396.335658 97.445315 
L 408.628478 97.445315 
L 408.628478 89.981719 
L 418.02887 89.981719 
L 418.02887 85.944821 
L 430.309639 85.944821 
L 430.309639 66.368278 
L 438.203558 66.368278 
L 438.203558 75.190231 
L 439.722083 75.190231 
" clip-path="url(#p308f77b863)" style="fill: none; stroke: #46a05b; stroke-opacity: 0.25; stroke-linecap: square"/>
   </g>
   <g id="line2d_66">
    <path d="M 78.168542 164.407501 
L 78.168542 164.407501 
L 162.169481 164.407501 
L 162.169481 199.645027 
L 193.383604 199.645027 
L 193.383604 227.943269 
L 247.255081 227.943269 
L 247.255081 216.681138 
L 273.166418 216.681138 
L 273.166418 241.013631 
L 299.559827 241.013631 
L 299.559827 197.957533 
L 352.394851 197.957533 
L 352.394851 143.404977 
L 375.449915 143.404977 
L 375.449915 108.698706 
L 396.335658 108.698706 
L 396.335658 95.074533 
L 408.628478 95.074533 
L 408.628478 84.702202 
L 418.02887 84.702202 
L 418.02887 71.84785 
L 430.309639 71.84785 
L 430.309639 58.522739 
L 438.203558 58.522739 
L 438.203558 61.88128 
L 439.722083 61.88128 
" clip-path="url(#p308f77b863)" style="fill: none; stroke: #46a05b; stroke-opacity: 0.25; stroke-linecap: square"/>
   </g>
   <g id="line2d_67">
    <path d="M 78.168542 169.382899 
L 78.168542 169.382899 
L 162.169481 169.382899 
L 162.169481 189.32524 
L 193.383604 189.32524 
L 193.383604 205.301252 
L 247.255081 205.301252 
L 247.255081 220.584301 
L 273.166418 220.584301 
L 273.166418 238.777887 
L 299.559827 238.777887 
L 299.559827 213.387864 
L 352.394851 213.387864 
L 352.394851 162.088767 
L 375.449915 162.088767 
L 375.449915 126.72689 
L 396.335658 126.72689 
L 396.335658 110.084391 
L 408.628478 110.084391 
L 408.628478 99.911733 
L 418.02887 99.911733 
L 418.02887 90.998703 
L 430.309639 90.998703 
L 430.309639 83.955918 
L 438.203558 83.955918 
L 438.203558 86.601563 
L 439.722083 86.601563 
" clip-path="url(#p308f77b863)" style="fill: none; stroke: #46a05b; stroke-opacity: 0.25; stroke-linecap: square"/>
   </g>
   <g id="line2d_68">
    <path d="M 78.168542 180.829898 
L 78.168542 180.829898 
L 162.169481 180.829898 
L 162.169481 204.794967 
L 193.383604 204.794967 
L 193.383604 240.300125 
L 247.255081 240.300125 
L 247.255081 277.671989 
L 273.166418 277.671989 
L 273.166418 254.373008 
L 299.559827 254.373008 
L 299.559827 207.080245 
L 352.394851 207.080245 
L 352.394851 145.011824 
L 375.449915 145.011824 
L 375.449915 123.190857 
L 396.335658 123.190857 
L 396.335658 103.690009 
L 408.628478 103.690009 
L 408.628478 94.027983 
L 418.02887 94.027983 
L 418.02887 88.105258 
L 430.309639 88.105258 
L 430.309639 82.053836 
L 438.203558 82.053836 
L 438.203558 82.257691 
L 439.722083 82.257691 
" clip-path="url(#p308f77b863)" style="fill: none; stroke: #46a05b; stroke-opacity: 0.25; stroke-linecap: square"/>
   </g>
   <g id="line2d_69">
    <path d="M 78.168542 207.542487 
L 78.168542 207.542487 
L 162.169481 207.542487 
L 162.169481 217.460424 
L 193.383604 217.460424 
L 193.383604 226.414089 
L 247.255081 226.414089 
L 247.255081 233.982375 
L 273.166418 233.982375 
L 273.166418 244.082081 
L 299.559827 244.082081 
L 299.559827 226.130798 
L 352.394851 226.130798 
L 352.394851 190.532659 
L 375.449915 190.532659 
L 375.449915 159.429409 
L 396.335658 159.429409 
L 396.335658 149.634902 
L 408.628478 149.634902 
L 408.628478 140.126922 
L 418.02887 140.126922 
L 418.02887 136.798169 
L 430.309639 136.798169 
L 430.309639 130.023847 
L 438.203558 130.023847 
L 438.203558 134.413746 
L 439.722083 134.413746 
" clip-path="url(#p308f77b863)" style="fill: none; stroke: #46a05b; stroke-opacity: 0.25; stroke-linecap: square"/>
   </g>
   <g id="line2d_70">
    <path d="M 78.168542 166.66134 
L 78.168542 166.66134 
L 162.169481 166.66134 
L 162.169481 192.727948 
L 193.383604 192.727948 
L 193.383604 223.479211 
L 247.255081 223.479211 
L 247.255081 243.008622 
L 273.166418 243.008622 
L 273.166418 230.505342 
L 299.559827 230.505342 
L 299.559827 194.129271 
L 352.394851 194.129271 
L 352.394851 137.768336 
L 375.449915 137.768336 
L 375.449915 117.064035 
L 396.335658 117.064035 
L 396.335658 93.001917 
L 408.628478 93.001917 
L 408.628478 72.535602 
L 418.02887 72.535602 
L 418.02887 55.986987 
L 430.309639 55.986987 
L 430.309639 44.749048 
L 438.203558 44.749048 
L 438.203558 43.865038 
L 439.722083 43.865038 
" clip-path="url(#p308f77b863)" style="fill: none; stroke: #46a05b; stroke-opacity: 0.25; stroke-linecap: square"/>
   </g>
   <g id="line2d_71">
    <path d="M 78.168542 198.231904 
L 78.168542 198.231904 
L 162.169481 198.231904 
L 162.169481 207.766553 
L 193.383604 207.766553 
L 193.383604 220.888834 
L 247.255081 220.888834 
L 247.255081 231.33227 
L 273.166418 231.33227 
L 273.166418 231.720272 
L 299.559827 231.720272 
L 299.559827 177.882045 
L 352.394851 177.882045 
L 352.394851 149.155482 
L 375.449915 149.155482 
L 375.449915 120.154798 
L 396.335658 120.154798 
L 396.335658 111.85392 
L 408.628478 111.85392 
L 408.628478 97.171387 
L 418.02887 97.171387 
L 418.02887 92.760045 
L 430.309639 92.760045 
L 430.309639 81.680778 
L 438.203558 81.680778 
L 438.203558 85.118853 
L 439.722083 85.118853 
" clip-path="url(#p308f77b863)" style="fill: none; stroke: #46a05b; stroke-opacity: 0.25; stroke-linecap: square"/>
   </g>
   <g id="line2d_72">
    <path d="M 78.168542 132.957757 
L 78.168542 132.957757 
L 162.169481 132.957757 
L 162.169481 164.41659 
L 193.383604 164.41659 
L 193.383604 199.705213 
L 247.255081 199.705213 
L 247.255081 209.251896 
L 273.166418 209.251896 
L 273.166418 242.90496 
L 299.559827 242.90496 
L 299.559827 223.227712 
L 352.394851 223.227712 
L 352.394851 177.763001 
L 375.449915 177.763001 
L 375.449915 135.494362 
L 396.335658 135.494362 
L 396.335658 113.624591 
L 408.628478 113.624591 
L 408.628478 100.538063 
L 418.02887 100.538063 
L 418.02887 91.480549 
L 430.309639 91.480549 
L 430.309639 83.99581 
L 438.203558 83.99581 
L 438.203558 85.559338 
L 439.722083 85.559338 
" clip-path="url(#p308f77b863)" style="fill: none; stroke: #46a05b; stroke-opacity: 0.25; stroke-linecap: square"/>
   </g>
   <g id="line2d_73">
    <path d="M 78.168542 181.268207 
L 78.168542 181.268207 
L 162.169481 181.268207 
L 162.169481 191.333909 
L 193.383604 191.333909 
L 193.383604 220.983161 
L 247.255081 220.983161 
L 247.255081 227.574577 
L 273.166418 227.574577 
L 273.166418 241.302394 
L 299.559827 241.302394 
L 299.559827 226.664791 
L 352.394851 226.664791 
L 352.394851 180.768203 
L 375.449915 180.768203 
L 375.449915 139.860893 
L 396.335658 139.860893 
L 396.335658 120.813571 
L 408.628478 120.813571 
L 408.628478 113.150367 
L 418.02887 113.150367 
L 418.02887 106.369302 
L 430.309639 106.369302 
L 430.309639 99.546099 
L 438.203558 99.546099 
L 438.203558 103.201508 
L 439.722083 103.201508 
" clip-path="url(#p308f77b863)" style="fill: none; stroke: #46a05b; stroke-opacity: 0.25; stroke-linecap: square"/>
   </g>
   <g id="line2d_74">
    <path d="M 78.168542 148.028588 
L 78.168542 148.028588 
L 162.169481 148.028588 
L 162.169481 183.704032 
L 193.383604 183.704032 
L 193.383604 242.344967 
L 247.255081 242.344967 
L 247.255081 261.014436 
L 273.166418 261.014436 
L 273.166418 275.682334 
L 299.559827 275.682334 
L 299.559827 208.540993 
L 352.394851 208.540993 
L 352.394851 158.292639 
L 375.449915 158.292639 
L 375.449915 134.285001 
L 396.335658 134.285001 
L 396.335658 117.195873 
L 408.628478 117.195873 
L 408.628478 106.02848 
L 418.02887 106.02848 
L 418.02887 94.496532 
L 430.309639 94.496532 
L 430.309639 91.193759 
L 438.203558 91.193759 
L 438.203558 89.290392 
L 439.722083 89.290392 
" clip-path="url(#p308f77b863)" style="fill: none; stroke: #46a05b; stroke-opacity: 0.25; stroke-linecap: square"/>
   </g>
   <g id="line2d_75">
    <path d="M 78.168542 195.153561 
L 78.168542 195.153561 
L 162.169481 195.153561 
L 162.169481 230.00462 
L 193.383604 230.00462 
L 193.383604 248.304901 
L 247.255081 248.304901 
L 247.255081 255.331853 
L 273.166418 255.331853 
L 273.166418 272.597378 
L 299.559827 272.597378 
L 299.559827 206.308399 
L 352.394851 206.308399 
L 352.394851 175.891639 
L 375.449915 175.891639 
L 375.449915 141.379488 
L 396.335658 141.379488 
L 396.335658 125.072276 
L 408.628478 125.072276 
L 408.628478 128.974406 
L 418.02887 128.974406 
L 418.02887 113.56651 
L 430.309639 113.56651 
L 430.309639 114.019763 
L 438.203558 114.019763 
L 438.203558 112.598772 
L 439.722083 112.598772 
" clip-path="url(#p308f77b863)" style="fill: none; stroke: #46a05b; stroke-opacity: 0.25; stroke-linecap: square"/>
   </g>
   <g id="line2d_76">
    <path d="M 78.168542 176.914744 
L 78.168542 176.914744 
L 162.169481 176.914744 
L 162.169481 213.32151 
L 193.383604 213.32151 
L 193.383604 234.098931 
L 247.255081 234.098931 
L 247.255081 263.952205 
L 273.166418 263.952205 
L 273.166418 256.952327 
L 299.559827 256.952327 
L 299.559827 221.166932 
L 352.394851 221.166932 
L 352.394851 169.727241 
L 375.449915 169.727241 
L 375.449915 141.62041 
L 396.335658 141.62041 
L 396.335658 127.492023 
L 408.628478 127.492023 
L 408.628478 123.553755 
L 418.02887 123.553755 
L 418.02887 112.912315 
L 430.309639 112.912315 
L 430.309639 106.109694 
L 438.203558 106.109694 
L 438.203558 109.783325 
L 439.722083 109.783325 
" clip-path="url(#p308f77b863)" style="fill: none; stroke: #46a05b; stroke-opacity: 0.25; stroke-linecap: square"/>
   </g>
   <g id="line2d_77">
    <path d="M 78.168542 191.060063 
L 78.168542 191.060063 
L 162.169481 191.060063 
L 162.169481 203.601212 
L 193.383604 203.601212 
L 193.383604 243.010888 
L 247.255081 243.010888 
L 247.255081 251.882984 
L 273.166418 251.882984 
L 273.166418 256.473291 
L 299.559827 256.473291 
L 299.559827 192.30323 
L 352.394851 192.30323 
L 352.394851 150.626716 
L 375.449915 150.626716 
L 375.449915 111.642372 
L 396.335658 111.642372 
L 396.335658 89.648419 
L 408.628478 89.648419 
L 408.628478 72.326225 
L 418.02887 72.326225 
L 418.02887 60.683187 
L 430.309639 60.683187 
L 430.309639 50.700102 
L 438.203558 50.700102 
L 438.203558 51.685453 
L 439.722083 51.685453 
" clip-path="url(#p308f77b863)" style="fill: none; stroke: #46a05b; stroke-opacity: 0.25; stroke-linecap: square"/>
   </g>
   <g id="line2d_78">
    <path d="M 78.168542 177.110278 
L 78.168542 177.110278 
L 162.169481 177.110278 
L 162.169481 199.558418 
L 193.383604 199.558418 
L 193.383604 230.488055 
L 247.255081 230.488055 
L 247.255081 244.10624 
L 273.166418 244.10624 
L 273.166418 254.651503 
L 299.559827 254.651503 
L 299.559827 215.154198 
L 352.394851 215.154198 
L 352.394851 169.705208 
L 375.449915 169.705208 
L 375.449915 137.982158 
L 396.335658 137.982158 
L 396.335658 111.206626 
L 408.628478 111.206626 
L 408.628478 102.274517 
L 418.02887 102.274517 
L 418.02887 91.809728 
L 430.309639 91.809728 
L 430.309639 87.223743 
L 438.203558 87.223743 
L 438.203558 87.419915 
L 439.722083 87.419915 
" clip-path="url(#p308f77b863)" style="fill: none; stroke: #46a05b; stroke-opacity: 0.25; stroke-linecap: square"/>
   </g>
   <g id="line2d_79">
    <path d="M 78.168542 188.823417 
L 78.168542 188.823417 
L 162.169481 188.823417 
L 162.169481 186.102414 
L 193.383604 186.102414 
L 193.383604 208.641349 
L 247.255081 208.641349 
L 247.255081 214.948951 
L 273.166418 214.948951 
L 273.166418 256.954443 
L 299.559827 256.954443 
L 299.559827 229.127495 
L 352.394851 229.127495 
L 352.394851 167.580254 
L 375.449915 167.580254 
L 375.449915 142.064682 
L 396.335658 142.064682 
L 396.335658 125.21087 
L 408.628478 125.21087 
L 408.628478 116.342045 
L 418.02887 116.342045 
L 418.02887 110.227022 
L 430.309639 110.227022 
L 430.309639 101.979272 
L 438.203558 101.979272 
L 438.203558 103.917967 
L 439.722083 103.917967 
" clip-path="url(#p308f77b863)" style="fill: none; stroke: #46a05b; stroke-opacity: 0.25; stroke-linecap: square"/>
   </g>
   <g id="line2d_80">
    <path d="M 78.168542 163.994709 
L 78.168542 163.994709 
L 162.169481 163.994709 
L 162.169481 195.32448 
L 193.383604 195.32448 
L 193.383604 221.812326 
L 247.255081 221.812326 
L 247.255081 230.725626 
L 273.166418 230.725626 
L 273.166418 245.457017 
L 299.559827 245.457017 
L 299.559827 219.55594 
L 352.394851 219.55594 
L 352.394851 168.136422 
L 375.449915 168.136422 
L 375.449915 145.442292 
L 396.335658 145.442292 
L 396.335658 126.608586 
L 408.628478 126.608586 
L 408.628478 116.263305 
L 418.02887 116.263305 
L 418.02887 109.212721 
L 430.309639 109.212721 
L 430.309639 98.956463 
L 438.203558 98.956463 
L 438.203558 104.169785 
L 439.722083 104.169785 
" clip-path="url(#p308f77b863)" style="fill: none; stroke: #46a05b; stroke-opacity: 0.25; stroke-linecap: square"/>
   </g>
   <g id="line2d_81">
    <path d="M 78.168542 182.406237 
L 78.168542 182.406237 
L 162.169481 182.406237 
L 162.169481 197.32261 
L 193.383604 197.32261 
L 193.383604 214.602974 
L 247.255081 214.602974 
L 247.255081 224.744097 
L 273.166418 224.744097 
L 273.166418 231.763251 
L 299.559827 231.763251 
L 299.559827 207.777668 
L 352.394851 207.777668 
L 352.394851 155.082788 
L 375.449915 155.082788 
L 375.449915 114.44718 
L 396.335658 114.44718 
L 396.335658 94.272981 
L 408.628478 94.272981 
L 408.628478 87.120343 
L 418.02887 87.120343 
L 418.02887 71.552896 
L 430.309639 71.552896 
L 430.309639 64.822492 
L 438.203558 64.822492 
L 438.203558 64.11931 
L 439.722083 64.11931 
" clip-path="url(#p308f77b863)" style="fill: none; stroke: #46a05b; stroke-opacity: 0.25; stroke-linecap: square"/>
   </g>
   <g id="line2d_82">
    <path d="M 78.168542 181.340012 
L 78.168542 181.340012 
L 162.169481 181.340012 
L 162.169481 214.452325 
L 193.383604 214.452325 
L 193.383604 238.224557 
L 247.255081 238.224557 
L 247.255081 242.989343 
L 273.166418 242.989343 
L 273.166418 250.543934 
L 299.559827 250.543934 
L 299.559827 193.435793 
L 352.394851 193.435793 
L 352.394851 163.700003 
L 375.449915 163.700003 
L 375.449915 124.877326 
L 396.335658 124.877326 
L 396.335658 121.215056 
L 408.628478 121.215056 
L 408.628478 118.213353 
L 418.02887 118.213353 
L 418.02887 98.543982 
L 430.309639 98.543982 
L 430.309639 84.99255 
L 438.203558 84.99255 
L 438.203558 93.472232 
L 439.722083 93.472232 
" clip-path="url(#p308f77b863)" style="fill: none; stroke: #46a05b; stroke-opacity: 0.25; stroke-linecap: square"/>
   </g>
   <g id="line2d_83">
    <path d="M 78.168542 152.518536 
L 78.168542 152.518536 
L 162.169481 152.518536 
L 162.169481 191.933666 
L 193.383604 191.933666 
L 193.383604 226.965665 
L 247.255081 226.965665 
L 247.255081 231.510109 
L 273.166418 231.510109 
L 273.166418 252.606708 
L 299.559827 252.606708 
L 299.559827 195.206113 
L 352.394851 195.206113 
L 352.394851 153.888882 
L 375.449915 153.888882 
L 375.449915 124.276321 
L 396.335658 124.276321 
L 396.335658 109.280971 
L 408.628478 109.280971 
L 408.628478 104.105579 
L 418.02887 104.105579 
L 418.02887 90.57455 
L 430.309639 90.57455 
L 430.309639 85.16119 
L 438.203558 85.16119 
L 438.203558 85.351395 
L 439.722083 85.351395 
" clip-path="url(#p308f77b863)" style="fill: none; stroke: #46a05b; stroke-opacity: 0.25; stroke-linecap: square"/>
   </g>
   <g id="line2d_84">
    <path d="M 78.168542 176.503226 
L 78.168542 176.503226 
L 162.169481 176.503226 
L 162.169481 197.846896 
L 193.383604 197.846896 
L 193.383604 227.454942 
L 247.255081 227.454942 
L 247.255081 278.084043 
L 273.166418 278.084043 
L 273.166418 258.199815 
L 299.559827 258.199815 
L 299.559827 223.392714 
L 352.394851 223.392714 
L 352.394851 176.756589 
L 375.449915 176.756589 
L 375.449915 139.722062 
L 396.335658 139.722062 
L 396.335658 127.821013 
L 408.628478 127.821013 
L 408.628478 121.367368 
L 418.02887 121.367368 
L 418.02887 117.125772 
L 430.309639 117.125772 
L 430.309639 115.159914 
L 438.203558 115.159914 
L 438.203558 113.805045 
L 439.722083 113.805045 
" clip-path="url(#p308f77b863)" style="fill: none; stroke: #46a05b; stroke-opacity: 0.25; stroke-linecap: square"/>
   </g>
   <g id="line2d_85">
    <path d="M 78.168542 152.892297 
L 78.168542 152.892297 
L 162.169481 152.892297 
L 162.169481 191.95914 
L 193.383604 191.95914 
L 193.383604 233.774838 
L 247.255081 233.774838 
L 247.255081 253.970309 
L 273.166418 253.970309 
L 273.166418 261.663412 
L 299.559827 261.663412 
L 299.559827 233.451218 
L 352.394851 233.451218 
L 352.394851 174.420488 
L 375.449915 174.420488 
L 375.449915 134.64737 
L 396.335658 134.64737 
L 396.335658 111.744983 
L 408.628478 111.744983 
L 408.628478 107.555648 
L 418.02887 107.555648 
L 418.02887 101.244415 
L 430.309639 101.244415 
L 430.309639 97.194773 
L 438.203558 97.194773 
L 438.203558 97.18853 
L 439.722083 97.18853 
" clip-path="url(#p308f77b863)" style="fill: none; stroke: #46a05b; stroke-opacity: 0.25; stroke-linecap: square"/>
   </g>
   <g id="line2d_86">
    <path d="M 78.168542 180.708586 
L 78.168542 180.708586 
L 162.169481 180.708586 
L 162.169481 202.395433 
L 193.383604 202.395433 
L 193.383604 224.386272 
L 247.255081 224.386272 
L 247.255081 256.522859 
L 273.166418 256.522859 
L 273.166418 249.578747 
L 299.559827 249.578747 
L 299.559827 242.484436 
L 352.394851 242.484436 
L 352.394851 166.115595 
L 375.449915 166.115595 
L 375.449915 118.318104 
L 396.335658 118.318104 
L 396.335658 109.279711 
L 408.628478 109.279711 
L 408.628478 97.511946 
L 418.02887 97.511946 
L 418.02887 92.702326 
L 430.309639 92.702326 
L 430.309639 86.558873 
L 438.203558 86.558873 
L 438.203558 89.090265 
L 439.722083 89.090265 
" clip-path="url(#p308f77b863)" style="fill: none; stroke: #46a05b; stroke-opacity: 0.25; stroke-linecap: square"/>
   </g>
   <g id="line2d_87">
    <path d="M 78.168542 145.207581 
L 78.168542 145.207581 
L 162.169481 145.207581 
L 162.169481 169.665148 
L 193.383604 169.665148 
L 193.383604 210.419512 
L 247.255081 210.419512 
L 247.255081 230.678905 
L 273.166418 230.678905 
L 273.166418 252.841633 
L 299.559827 252.841633 
L 299.559827 222.47829 
L 352.394851 222.47829 
L 352.394851 168.285323 
L 375.449915 168.285323 
L 375.449915 133.422186 
L 396.335658 133.422186 
L 396.335658 115.029021 
L 408.628478 115.029021 
L 408.628478 106.28439 
L 418.02887 106.28439 
L 418.02887 99.445256 
L 430.309639 99.445256 
L 430.309639 96.185567 
L 438.203558 96.185567 
L 438.203558 95.577033 
L 439.722083 95.577033 
" clip-path="url(#p308f77b863)" style="fill: none; stroke: #46a05b; stroke-opacity: 0.25; stroke-linecap: square"/>
   </g>
   <g id="line2d_88">
    <path d="M 78.168542 181.920054 
L 78.168542 181.920054 
L 162.169481 181.920054 
L 162.169481 186.449909 
L 193.383604 186.449909 
L 193.383604 218.757419 
L 247.255081 218.757419 
L 247.255081 225.794761 
L 273.166418 225.794761 
L 273.166418 244.912419 
L 299.559827 244.912419 
L 299.559827 223.934309 
L 352.394851 223.934309 
L 352.394851 143.17581 
L 375.449915 143.17581 
L 375.449915 114.57149 
L 396.335658 114.57149 
L 396.335658 72.064808 
L 408.628478 72.064808 
L 408.628478 61.324891 
L 418.02887 61.324891 
L 418.02887 43.088797 
L 430.309639 43.088797 
L 430.309639 34.023018 
L 438.203558 34.023018 
L 438.203558 33.340729 
L 439.722083 33.340729 
" clip-path="url(#p308f77b863)" style="fill: none; stroke: #46a05b; stroke-opacity: 0.25; stroke-linecap: square"/>
   </g>
   <g id="line2d_89">
    <path d="M 78.168542 139.83943 
L 78.168542 139.83943 
L 162.169481 139.83943 
L 162.169481 175.362947 
L 193.383604 175.362947 
L 193.383604 222.836553 
L 247.255081 222.836553 
L 247.255081 226.542394 
L 273.166418 226.542394 
L 273.166418 258.601626 
L 299.559827 258.601626 
L 299.559827 223.994487 
L 352.394851 223.994487 
L 352.394851 162.989955 
L 375.449915 162.989955 
L 375.449915 123.057742 
L 396.335658 123.057742 
L 396.335658 103.749093 
L 408.628478 103.749093 
L 408.628478 86.5158 
L 418.02887 86.5158 
L 418.02887 79.368529 
L 430.309639 79.368529 
L 430.309639 73.456939 
L 438.203558 73.456939 
L 438.203558 73.949463 
L 439.722083 73.949463 
" clip-path="url(#p308f77b863)" style="fill: none; stroke: #46a05b; stroke-opacity: 0.25; stroke-linecap: square"/>
   </g>
   <g id="line2d_90">
    <path d="M 78.168542 187.970256 
L 78.168542 187.970256 
L 162.169481 187.970256 
L 162.169481 225.985894 
L 193.383604 225.985894 
L 193.383604 235.481857 
L 247.255081 235.481857 
L 247.255081 228.127299 
L 273.166418 228.127299 
L 273.166418 228.621784 
L 299.559827 228.621784 
L 299.559827 186.498434 
L 352.394851 186.498434 
L 352.394851 160.214087 
L 375.449915 160.214087 
L 375.449915 132.183247 
L 396.335658 132.183247 
L 396.335658 111.589604 
L 408.628478 111.589604 
L 408.628478 106.00193 
L 418.02887 106.00193 
L 418.02887 90.812319 
L 430.309639 90.812319 
L 430.309639 82.888912 
L 438.203558 82.888912 
L 438.203558 85.567994 
L 439.722083 85.567994 
" clip-path="url(#p308f77b863)" style="fill: none; stroke: #46a05b; stroke-opacity: 0.25; stroke-linecap: square"/>
   </g>
   <g id="line2d_91">
    <path d="M 78.168542 170.696661 
L 78.168542 170.696661 
L 162.169481 170.696661 
L 162.169481 181.899825 
L 193.383604 181.899825 
L 193.383604 223.510335 
L 247.255081 223.510335 
L 247.255081 242.303483 
L 273.166418 242.303483 
L 273.166418 266.678109 
L 299.559827 266.678109 
L 299.559827 234.510061 
L 352.394851 234.510061 
L 352.394851 188.865855 
L 375.449915 188.865855 
L 375.449915 136.171317 
L 396.335658 136.171317 
L 396.335658 115.120128 
L 408.628478 115.120128 
L 408.628478 109.130079 
L 418.02887 109.130079 
L 418.02887 96.211294 
L 430.309639 96.211294 
L 430.309639 91.126859 
L 438.203558 91.126859 
L 438.203558 93.108932 
L 439.722083 93.108932 
" clip-path="url(#p308f77b863)" style="fill: none; stroke: #46a05b; stroke-opacity: 0.25; stroke-linecap: square"/>
   </g>
   <g id="line2d_92">
    <path d="M 78.168542 136.040993 
L 78.168542 136.040993 
L 162.169481 136.040993 
L 162.169481 165.278484 
L 193.383604 165.278484 
L 193.383604 208.957374 
L 247.255081 208.957374 
L 247.255081 232.138761 
L 273.166418 232.138761 
L 273.166418 250.935475 
L 299.559827 250.935475 
L 299.559827 212.271124 
L 352.394851 212.271124 
L 352.394851 163.501108 
L 375.449915 163.501108 
L 375.449915 132.55693 
L 396.335658 132.55693 
L 396.335658 108.389303 
L 408.628478 108.389303 
L 408.628478 97.63208 
L 418.02887 97.63208 
L 418.02887 87.928738 
L 430.309639 87.928738 
L 430.309639 82.119096 
L 438.203558 82.119096 
L 438.203558 82.236107 
L 439.722083 82.236107 
" clip-path="url(#p308f77b863)" style="fill: none; stroke: #46a05b; stroke-opacity: 0.25; stroke-linecap: square"/>
   </g>
   <g id="line2d_93">
    <path d="M 78.168542 143.063513 
L 78.168542 143.063513 
L 162.169481 143.063513 
L 162.169481 173.736237 
L 193.383604 173.736237 
L 193.383604 211.051276 
L 247.255081 211.051276 
L 247.255081 216.475279 
L 273.166418 216.475279 
L 273.166418 226.715447 
L 299.559827 226.715447 
L 299.559827 195.81532 
L 352.394851 195.81532 
L 352.394851 142.322964 
L 375.449915 142.322964 
L 375.449915 116.935703 
L 396.335658 116.935703 
L 396.335658 103.01272 
L 408.628478 103.01272 
L 408.628478 90.551449 
L 418.02887 90.551449 
L 418.02887 73.88848 
L 430.309639 73.88848 
L 430.309639 70.584658 
L 438.203558 70.584658 
L 438.203558 67.743031 
L 439.722083 67.743031 
" clip-path="url(#p308f77b863)" style="fill: none; stroke: #46a05b; stroke-opacity: 0.25; stroke-linecap: square"/>
   </g>
   <g id="line2d_94">
    <path d="M 78.168542 173.652631 
L 78.168542 173.652631 
L 162.169481 173.652631 
L 162.169481 204.794653 
L 193.383604 204.794653 
L 193.383604 225.116561 
L 247.255081 225.116561 
L 247.255081 239.412483 
L 273.166418 239.412483 
L 273.166418 259.566114 
L 299.559827 259.566114 
L 299.559827 239.156472 
L 352.394851 239.156472 
L 352.394851 175.467821 
L 375.449915 175.467821 
L 375.449915 127.716535 
L 396.335658 127.716535 
L 396.335658 110.167399 
L 408.628478 110.167399 
L 408.628478 100.753627 
L 418.02887 100.753627 
L 418.02887 92.095824 
L 430.309639 92.095824 
L 430.309639 86.095526 
L 438.203558 86.095526 
L 438.203558 87.514938 
L 439.722083 87.514938 
" clip-path="url(#p308f77b863)" style="fill: none; stroke: #46a05b; stroke-opacity: 0.25; stroke-linecap: square"/>
   </g>
   <g id="line2d_95">
    <path d="M 78.168542 168.441461 
L 78.168542 168.441461 
L 162.169481 168.441461 
L 162.169481 209.739262 
L 193.383604 209.739262 
L 193.383604 241.9771 
L 247.255081 241.9771 
L 247.255081 249.057871 
L 273.166418 249.057871 
L 273.166418 257.564069 
L 299.559827 257.564069 
L 299.559827 190.974112 
L 352.394851 190.974112 
L 352.394851 146.178743 
L 375.449915 146.178743 
L 375.449915 132.147355 
L 396.335658 132.147355 
L 396.335658 107.938342 
L 408.628478 107.938342 
L 408.628478 95.806323 
L 418.02887 95.806323 
L 418.02887 86.895946 
L 430.309639 86.895946 
L 430.309639 79.455064 
L 438.203558 79.455064 
L 438.203558 78.864965 
L 439.722083 78.864965 
" clip-path="url(#p308f77b863)" style="fill: none; stroke: #46a05b; stroke-opacity: 0.25; stroke-linecap: square"/>
   </g>
   <g id="line2d_96">
    <path d="M 78.168542 162.133115 
L 78.168542 162.133115 
L 162.169481 162.133115 
L 162.169481 206.457274 
L 193.383604 206.457274 
L 193.383604 239.107806 
L 247.255081 239.107806 
L 247.255081 236.345942 
L 273.166418 236.345942 
L 273.166418 239.58678 
L 299.559827 239.58678 
L 299.559827 197.046364 
L 352.394851 197.046364 
L 352.394851 154.217613 
L 375.449915 154.217613 
L 375.449915 119.17906 
L 396.335658 119.17906 
L 396.335658 101.921258 
L 408.628478 101.921258 
L 408.628478 89.725292 
L 418.02887 89.725292 
L 418.02887 78.281826 
L 430.309639 78.281826 
L 430.309639 68.371232 
L 438.203558 68.371232 
L 438.203558 69.631153 
L 439.722083 69.631153 
" clip-path="url(#p308f77b863)" style="fill: none; stroke: #46a05b; stroke-opacity: 0.25; stroke-linecap: square"/>
   </g>
   <g id="line2d_97">
    <path d="M 78.168542 172.217276 
L 78.168542 172.217276 
L 162.169481 172.217276 
L 162.169481 194.257774 
L 193.383604 194.257774 
L 193.383604 222.479575 
L 247.255081 222.479575 
L 247.255081 210.554118 
L 273.166418 210.554118 
L 273.166418 274.75954 
L 299.559827 274.75954 
L 299.559827 217.413977 
L 352.394851 217.413977 
L 352.394851 178.24068 
L 375.449915 178.24068 
L 375.449915 148.805449 
L 396.335658 148.805449 
L 396.335658 130.770609 
L 408.628478 130.770609 
L 408.628478 129.334137 
L 418.02887 129.334137 
L 418.02887 120.959058 
L 430.309639 120.959058 
L 430.309639 112.655027 
L 438.203558 112.655027 
L 438.203558 117.737638 
L 439.722083 117.737638 
" clip-path="url(#p308f77b863)" style="fill: none; stroke: #46a05b; stroke-opacity: 0.25; stroke-linecap: square"/>
   </g>
   <g id="line2d_98">
    <path d="M 78.168542 170.142411 
L 78.168542 170.142411 
L 162.169481 170.142411 
L 162.169481 182.423544 
L 193.383604 182.423544 
L 193.383604 222.406181 
L 247.255081 222.406181 
L 247.255081 234.902157 
L 273.166418 234.902157 
L 273.166418 247.995297 
L 299.559827 247.995297 
L 299.559827 231.90091 
L 352.394851 231.90091 
L 352.394851 166.548342 
L 375.449915 166.548342 
L 375.449915 134.036138 
L 396.335658 134.036138 
L 396.335658 121.125189 
L 408.628478 121.125189 
L 408.628478 110.934297 
L 418.02887 110.934297 
L 418.02887 104.368416 
L 430.309639 104.368416 
L 430.309639 100.355298 
L 438.203558 100.355298 
L 438.203558 102.672068 
L 439.722083 102.672068 
" clip-path="url(#p308f77b863)" style="fill: none; stroke: #46a05b; stroke-opacity: 0.25; stroke-linecap: square"/>
   </g>
   <g id="line2d_99">
    <path d="M 78.168542 167.135655 
L 78.168542 167.135655 
L 162.169481 167.135655 
L 162.169481 199.937118 
L 193.383604 199.937118 
L 193.383604 243.132469 
L 247.255081 243.132469 
L 247.255081 243.678791 
L 273.166418 243.678791 
L 273.166418 237.952613 
L 299.559827 237.952613 
L 299.559827 179.607214 
L 352.394851 179.607214 
L 352.394851 123.476455 
L 375.449915 123.476455 
L 375.449915 124.219863 
L 396.335658 124.219863 
L 396.335658 97.843511 
L 408.628478 97.843511 
L 408.628478 82.09103 
L 418.02887 82.09103 
L 418.02887 72.04286 
L 430.309639 72.04286 
L 430.309639 64.681914 
L 438.203558 64.681914 
L 438.203558 65.973281 
L 439.722083 65.973281 
" clip-path="url(#p308f77b863)" style="fill: none; stroke: #46a05b; stroke-opacity: 0.25; stroke-linecap: square"/>
   </g>
   <g id="line2d_100">
    <path d="M 78.168542 185.089217 
L 78.168542 185.089217 
L 162.169481 185.089217 
L 162.169481 208.814411 
L 193.383604 208.814411 
L 193.383604 241.6697 
L 247.255081 241.6697 
L 247.255081 279.461325 
L 273.166418 279.461325 
L 273.166418 258.06474 
L 299.559827 258.06474 
L 299.559827 194.189505 
L 352.394851 194.189505 
L 352.394851 175.189302 
L 375.449915 175.189302 
L 375.449915 137.037775 
L 396.335658 137.037775 
L 396.335658 117.607714 
L 408.628478 117.607714 
L 408.628478 108.659462 
L 418.02887 108.659462 
L 418.02887 101.665763 
L 430.309639 101.665763 
L 430.309639 95.019907 
L 438.203558 95.019907 
L 438.203558 95.180796 
L 439.722083 95.180796 
" clip-path="url(#p308f77b863)" style="fill: none; stroke: #46a05b; stroke-opacity: 0.25; stroke-linecap: square"/>
   </g>
   <g id="line2d_101">
    <path d="M 78.168542 102.772876 
L 78.168542 102.772876 
L 162.169481 102.772876 
L 162.169481 168.578044 
L 193.383604 168.578044 
L 193.383604 228.444171 
L 247.255081 228.444171 
L 247.255081 211.712249 
L 273.166418 211.712249 
L 273.166418 276.359228 
L 299.559827 276.359228 
L 299.559827 220.426143 
L 352.394851 220.426143 
L 352.394851 146.464812 
L 375.449915 146.464812 
L 375.449915 126.667142 
L 396.335658 126.667142 
L 396.335658 96.274975 
L 408.628478 96.274975 
L 408.628478 83.519264 
L 418.02887 83.519264 
L 418.02887 74.128983 
L 430.309639 74.128983 
L 430.309639 67.799565 
L 438.203558 67.799565 
L 438.203558 66.578325 
L 439.722083 66.578325 
" clip-path="url(#p308f77b863)" style="fill: none; stroke: #46a05b; stroke-opacity: 0.25; stroke-linecap: square"/>
   </g>
   <g id="line2d_102">
    <path d="M 78.168542 162.907187 
L 78.168542 162.907187 
L 162.169481 162.907187 
L 162.169481 175.801367 
L 193.383604 175.801367 
L 193.383604 200.897938 
L 247.255081 200.897938 
L 247.255081 209.400048 
L 273.166418 209.400048 
L 273.166418 233.376598 
L 299.559827 233.376598 
L 299.559827 189.128865 
L 352.394851 189.128865 
L 352.394851 151.023783 
L 375.449915 151.023783 
L 375.449915 117.562058 
L 396.335658 117.562058 
L 396.335658 100.655215 
L 408.628478 100.655215 
L 408.628478 88.010876 
L 418.02887 88.010876 
L 418.02887 73.027959 
L 430.309639 73.027959 
L 430.309639 59.46631 
L 438.203558 59.46631 
L 438.203558 64.448538 
L 439.722083 64.448538 
" clip-path="url(#p308f77b863)" style="fill: none; stroke: #46a05b; stroke-opacity: 0.25; stroke-linecap: square"/>
   </g>
   <g id="line2d_103">
    <path d="M 78.168542 166.302621 
L 78.168542 166.302621 
L 162.169481 166.302621 
L 162.169481 205.526909 
L 193.383604 205.526909 
L 193.383604 234.613368 
L 247.255081 234.613368 
L 247.255081 245.410699 
L 273.166418 245.410699 
L 273.166418 243.004959 
L 299.559827 243.004959 
L 299.559827 202.744115 
L 352.394851 202.744115 
L 352.394851 164.327821 
L 375.449915 164.327821 
L 375.449915 130.831406 
L 396.335658 130.831406 
L 396.335658 109.997864 
L 408.628478 109.997864 
L 408.628478 97.852054 
L 418.02887 97.852054 
L 418.02887 88.193854 
L 430.309639 88.193854 
L 430.309639 84.798417 
L 438.203558 84.798417 
L 438.203558 84.309244 
L 439.722083 84.309244 
" clip-path="url(#p308f77b863)" style="fill: none; stroke: #46a05b; stroke-opacity: 0.25; stroke-linecap: square"/>
   </g>
   <g id="line2d_104">
    <path d="M 78.168542 193.458609 
L 78.168542 193.458609 
L 162.169481 193.458609 
L 162.169481 216.704905 
L 193.383604 216.704905 
L 193.383604 243.467986 
L 247.255081 243.467986 
L 247.255081 266.052363 
L 273.166418 266.052363 
L 273.166418 242.727076 
L 299.559827 242.727076 
L 299.559827 213.759943 
L 352.394851 213.759943 
L 352.394851 161.624036 
L 375.449915 161.624036 
L 375.449915 129.329862 
L 396.335658 129.329862 
L 396.335658 106.308138 
L 408.628478 106.308138 
L 408.628478 86.136217 
L 418.02887 86.136217 
L 418.02887 81.72409 
L 430.309639 81.72409 
L 430.309639 65.564105 
L 438.203558 65.564105 
L 438.203558 70.290177 
L 439.722083 70.290177 
" clip-path="url(#p308f77b863)" style="fill: none; stroke: #46a05b; stroke-opacity: 0.25; stroke-linecap: square"/>
   </g>
   <g id="line2d_105">
    <path d="M 78.168542 188.126801 
L 78.168542 188.126801 
L 162.169481 188.126801 
L 162.169481 205.39679 
L 193.383604 205.39679 
L 193.383604 229.06509 
L 247.255081 229.06509 
L 247.255081 254.878049 
L 273.166418 254.878049 
L 273.166418 238.195804 
L 299.559827 238.195804 
L 299.559827 181.920625 
L 352.394851 181.920625 
L 352.394851 168.196276 
L 375.449915 168.196276 
L 375.449915 130.645484 
L 396.335658 130.645484 
L 396.335658 117.218035 
L 408.628478 117.218035 
L 408.628478 112.374205 
L 418.02887 112.374205 
L 418.02887 103.755382 
L 430.309639 103.755382 
L 430.309639 97.212807 
L 438.203558 97.212807 
L 438.203558 96.828227 
L 439.722083 96.828227 
" clip-path="url(#p308f77b863)" style="fill: none; stroke: #46a05b; stroke-opacity: 0.25; stroke-linecap: square"/>
   </g>
   <g id="line2d_106">
    <path d="M 78.168542 174.131138 
L 78.168542 174.131138 
L 162.169481 174.131138 
L 162.169481 189.055521 
L 193.383604 189.055521 
L 193.383604 231.279131 
L 247.255081 231.279131 
L 247.255081 242.908413 
L 273.166418 242.908413 
L 273.166418 245.724724 
L 299.559827 245.724724 
L 299.559827 213.672657 
L 352.394851 213.672657 
L 352.394851 158.030629 
L 375.449915 158.030629 
L 375.449915 115.969682 
L 396.335658 115.969682 
L 396.335658 99.530704 
L 408.628478 99.530704 
L 408.628478 87.384365 
L 418.02887 87.384365 
L 418.02887 74.907823 
L 430.309639 74.907823 
L 430.309639 65.534094 
L 438.203558 65.534094 
L 438.203558 67.881631 
L 439.722083 67.881631 
" clip-path="url(#p308f77b863)" style="fill: none; stroke: #46a05b; stroke-opacity: 0.25; stroke-linecap: square"/>
   </g>
   <g id="line2d_107">
    <path d="M 78.168542 183.565257 
L 78.168542 183.565257 
L 162.169481 183.565257 
L 162.169481 218.144926 
L 193.383604 218.144926 
L 193.383604 240.361346 
L 247.255081 240.361346 
L 247.255081 208.701172 
L 273.166418 208.701172 
L 273.166418 260.201478 
L 299.559827 260.201478 
L 299.559827 214.984321 
L 352.394851 214.984321 
L 352.394851 153.599583 
L 375.449915 153.599583 
L 375.449915 138.4228 
L 396.335658 138.4228 
L 396.335658 103.51488 
L 408.628478 103.51488 
L 408.628478 88.285766 
L 418.02887 88.285766 
L 418.02887 78.262599 
L 430.309639 78.262599 
L 430.309639 69.696517 
L 438.203558 69.696517 
L 438.203558 68.410842 
L 439.722083 68.410842 
" clip-path="url(#p308f77b863)" style="fill: none; stroke: #46a05b; stroke-opacity: 0.25; stroke-linecap: square"/>
   </g>
   <g id="line2d_108">
    <path d="M 78.168542 185.963331 
L 78.168542 185.963331 
L 162.169481 185.963331 
L 162.169481 212.499705 
L 193.383604 212.499705 
L 193.383604 215.524811 
L 247.255081 215.524811 
L 247.255081 234.064925 
L 273.166418 234.064925 
L 273.166418 238.531487 
L 299.559827 238.531487 
L 299.559827 197.131367 
L 352.394851 197.131367 
L 352.394851 174.231525 
L 375.449915 174.231525 
L 375.449915 142.296016 
L 396.335658 142.296016 
L 396.335658 127.856057 
L 408.628478 127.856057 
L 408.628478 116.706899 
L 418.02887 116.706899 
L 418.02887 106.241603 
L 430.309639 106.241603 
L 430.309639 100.288507 
L 438.203558 100.288507 
L 438.203558 105.114253 
L 439.722083 105.114253 
" clip-path="url(#p308f77b863)" style="fill: none; stroke: #46a05b; stroke-opacity: 0.25; stroke-linecap: square"/>
   </g>
   <g id="line2d_109">
    <path d="M 78.168542 181.858634 
L 78.168542 181.858634 
L 162.169481 181.858634 
L 162.169481 186.854998 
L 193.383604 186.854998 
L 193.383604 209.689164 
L 247.255081 209.689164 
L 247.255081 225.046304 
L 273.166418 225.046304 
L 273.166418 219.514482 
L 299.559827 219.514482 
L 299.559827 200.840421 
L 352.394851 200.840421 
L 352.394851 161.471118 
L 375.449915 161.471118 
L 375.449915 136.589517 
L 396.335658 136.589517 
L 396.335658 120.239942 
L 408.628478 120.239942 
L 408.628478 113.71028 
L 418.02887 113.71028 
L 418.02887 105.492774 
L 430.309639 105.492774 
L 430.309639 100.123333 
L 438.203558 100.123333 
L 438.203558 100.677196 
L 439.722083 100.677196 
" clip-path="url(#p308f77b863)" style="fill: none; stroke: #46a05b; stroke-opacity: 0.25; stroke-linecap: square"/>
   </g>
   <g id="line2d_110">
    <path d="M 78.168542 170.354097 
L 78.168542 170.354097 
L 162.169481 170.354097 
L 162.169481 195.112812 
L 193.383604 195.112812 
L 193.383604 224.292477 
L 247.255081 224.292477 
L 247.255081 235.113737 
L 273.166418 235.113737 
L 273.166418 245.103636 
L 299.559827 245.103636 
L 299.559827 208.277278 
L 352.394851 208.277278 
L 352.394851 160.376933 
L 375.449915 160.376933 
L 375.449915 127.643074 
L 396.335658 127.643074 
L 396.335658 108.002048 
L 408.628478 108.002048 
L 408.628478 97.54871 
L 418.02887 97.54871 
L 418.02887 88.382 
L 430.309639 88.382 
L 430.309639 81.153735 
L 438.203558 81.153735 
L 438.203558 82.348241 
L 439.722083 82.348241 
" clip-path="url(#p308f77b863)" style="fill: none; stroke: #46a05b; stroke-width: 4; stroke-linecap: square"/>
   </g>
   <g id="patch_3">
    <path d="M 60.090865 294.540385 
L 60.090865 3.00024 
" style="fill: none; stroke: #000000; stroke-width: 0.8; stroke-linejoin: miter; stroke-linecap: square"/>
   </g>
   <g id="patch_4">
    <path d="M 457.79976 294.540385 
L 457.79976 3.00024 
" style="fill: none; stroke: #000000; stroke-width: 0.8; stroke-linejoin: miter; stroke-linecap: square"/>
   </g>
   <g id="patch_5">
    <path d="M 60.090865 294.540385 
L 457.79976 294.540385 
" style="fill: none; stroke: #000000; stroke-width: 0.8; stroke-linejoin: miter; stroke-linecap: square"/>
   </g>
   <g id="patch_6">
    <path d="M 60.090865 3.00024 
L 457.79976 3.00024 
" style="fill: none; stroke: #000000; stroke-width: 0.8; stroke-linejoin: miter; stroke-linecap: square"/>
   </g>
  </g>
 </g>
 <defs>
  <clipPath id="p308f77b863">
   <rect x="60.090865" y="3.00024" width="397.708895" height="291.540145"/>
  </clipPath>
 </defs>
</svg>
