<?xml version="1.0" encoding="utf-8" standalone="no"?>
<!DOCTYPE svg PUBLIC "-//W3C//DTD SVG 1.1//EN"
  "http://www.w3.org/Graphics/SVG/1.1/DTD/svg11.dtd">
<svg xmlns:xlink="http://www.w3.org/1999/xlink" width="460.8pt" height="345.6pt" viewBox="0 0 460.8 345.6" xmlns="http://www.w3.org/2000/svg" version="1.1">
 <metadata>
  <rdf:RDF xmlns:dc="http://purl.org/dc/elements/1.1/" xmlns:cc="http://creativecommons.org/ns#" xmlns:rdf="http://www.w3.org/1999/02/22-rdf-syntax-ns#">
   <cc:Work>
    <dc:type rdf:resource="http://purl.org/dc/dcmitype/StillImage"/>
    <dc:date>2025-12-06T02:07:35.546454</dc:date>
    <dc:format>image/svg+xml</dc:format>
    <dc:creator>
     <cc:Agent>
      <dc:title>Matplotlib v3.10.7, https://matplotlib.org/</dc:title>
     </cc:Agent>
    </dc:creator>
   </cc:Work>
  </rdf:RDF>
 </metadata>
 <defs>
  <style type="text/css">*{stroke-linejoin: round; stroke-linecap: butt}</style>
 </defs>
 <g id="figure_1">
  <g id="patch_1">
   <path d="M 0 345.6 
L 460.8 345.6 
L 460.8 0 
L 0 0 
z
" style="fill: #ffffff"/>
  </g>
  <g id="axes_1">
   <g id="patch_2">
    <path d="M 60.090865 295.01851 
L 457.79976 295.01851 
L 457.79976 3.00024 
L 60.090865 3.00024 
z
" style="fill: #ffffff"/>
   </g>
   <g id="FillBetweenPolyCollection_1">
    <defs>
     <path id="m1dcfd8551b" d="M 115.341779 -126.297729 
L 104.267175 -126.297729 
L 103.819545 -128.348522 
L 103.394793 -130.399314 
L 103.001703 -132.450107 
L 102.648549 -134.5009 
L 102.342731 -136.551692 
L 102.09041 -138.602485 
L 101.896173 -140.653278 
L 101.762733 -142.70407 
L 101.690692 -144.754863 
L 101.67838 -146.805655 
L 101.721781 -148.856448 
L 101.814563 -150.907241 
L 101.948204 -152.958033 
L 102.112224 -155.008826 
L 102.294504 -157.059619 
L 102.481677 -159.110411 
L 102.659581 -161.161204 
L 102.81373 -163.211997 
L 102.929805 -165.262789 
L 102.994126 -167.313582 
L 102.994091 -169.364375 
L 102.918568 -171.415167 
L 102.758239 -173.46596 
L 102.505878 -175.516753 
L 102.156572 -177.567545 
L 101.707878 -179.618338 
L 101.159916 -181.669131 
L 100.515391 -183.719923 
L 99.779535 -185.770716 
L 98.959965 -187.821509 
L 98.066439 -189.872301 
L 97.110507 -191.923094 
L 96.105054 -193.973887 
L 95.063744 -196.024679 
L 94.000382 -198.075472 
L 92.928231 -200.126265 
L 91.859325 -202.177057 
L 90.803829 -204.22785 
L 89.76951 -206.278643 
L 88.761357 -208.329435 
L 87.781415 -210.380228 
L 86.828844 -212.431021 
L 85.900214 -214.481813 
L 84.990033 -216.532606 
L 84.091448 -218.583399 
L 83.197085 -220.634191 
L 82.299938 -222.684984 
L 81.394233 -224.735777 
L 80.476199 -226.786569 
L 79.544664 -228.837362 
L 78.601439 -230.888155 
L 77.651453 -232.938947 
L 76.702642 -234.98974 
L 75.765604 -237.040533 
L 74.853073 -239.091325 
L 73.979253 -241.142118 
L 73.15909 -243.192911 
L 72.407537 -245.243703 
L 71.738886 -247.294496 
L 71.166197 -249.345289 
L 70.700873 -251.396081 
L 70.352388 -253.446874 
L 70.128165 -255.497666 
L 70.033587 -257.548459 
L 70.072107 -259.599252 
L 70.245425 -261.650044 
L 70.553689 -263.700837 
L 70.995686 -265.75163 
L 71.568997 -267.802422 
L 72.270099 -269.853215 
L 73.094403 -271.904008 
L 74.03625 -273.9548 
L 75.088865 -276.005593 
L 76.244293 -278.056386 
L 77.493361 -280.107178 
L 78.825656 -282.157971 
L 80.229567 -284.208764 
L 81.692397 -286.259556 
L 83.200534 -288.310349 
L 84.739699 -290.361142 
L 86.295249 -292.411934 
L 87.852515 -294.462727 
L 89.397171 -296.51352 
L 90.915591 -298.564312 
L 92.395193 -300.615105 
L 93.824745 -302.665898 
L 95.194606 -304.71669 
L 96.496908 -306.767483 
L 97.725666 -308.818276 
L 98.876805 -310.869068 
L 99.94811 -312.919861 
L 100.939115 -314.970654 
L 101.850921 -317.021446 
L 102.685964 -319.072239 
L 103.447757 -321.123032 
L 104.140604 -323.173824 
L 104.769315 -325.224617 
L 105.338941 -327.27541 
L 105.854536 -329.326202 
L 113.754418 -329.326202 
L 113.754418 -329.326202 
L 114.270013 -327.27541 
L 114.839639 -325.224617 
L 115.46835 -323.173824 
L 116.161196 -321.123032 
L 116.922989 -319.072239 
L 117.758033 -317.021446 
L 118.669838 -314.970654 
L 119.660844 -312.919861 
L 120.732149 -310.869068 
L 121.883287 -308.818276 
L 123.112046 -306.767483 
L 124.414348 -304.71669 
L 125.784208 -302.665898 
L 127.21376 -300.615105 
L 128.693363 -298.564312 
L 130.211783 -296.51352 
L 131.756438 -294.462727 
L 133.313705 -292.411934 
L 134.869254 -290.361142 
L 136.40842 -288.310349 
L 137.916557 -286.259556 
L 139.379386 -284.208764 
L 140.783298 -282.157971 
L 142.115592 -280.107178 
L 143.36466 -278.056386 
L 144.520089 -276.005593 
L 145.572703 -273.9548 
L 146.514551 -271.904008 
L 147.338855 -269.853215 
L 148.039956 -267.802422 
L 148.613268 -265.75163 
L 149.055265 -263.700837 
L 149.363529 -261.650044 
L 149.536847 -259.599252 
L 149.575366 -257.548459 
L 149.480788 -255.497666 
L 149.256566 -253.446874 
L 148.908081 -251.396081 
L 148.442757 -249.345289 
L 147.870067 -247.294496 
L 147.201416 -245.243703 
L 146.449864 -243.192911 
L 145.6297 -241.142118 
L 144.755881 -239.091325 
L 143.84335 -237.040533 
L 142.906312 -234.98974 
L 141.9575 -232.938947 
L 141.007515 -230.888155 
L 140.06429 -228.837362 
L 139.132755 -226.786569 
L 138.214721 -224.735777 
L 137.309016 -222.684984 
L 136.411869 -220.634191 
L 135.517506 -218.583399 
L 134.618921 -216.532606 
L 133.708739 -214.481813 
L 132.78011 -212.431021 
L 131.827538 -210.380228 
L 130.847597 -208.329435 
L 129.839444 -206.278643 
L 128.805125 -204.22785 
L 127.749629 -202.177057 
L 126.680723 -200.126265 
L 125.608572 -198.075472 
L 124.54521 -196.024679 
L 123.5039 -193.973887 
L 122.498447 -191.923094 
L 121.542515 -189.872301 
L 120.648989 -187.821509 
L 119.829419 -185.770716 
L 119.093563 -183.719923 
L 118.449038 -181.669131 
L 117.901076 -179.618338 
L 117.452382 -177.567545 
L 117.103076 -175.516753 
L 116.850715 -173.46596 
L 116.690386 -171.415167 
L 116.614863 -169.364375 
L 116.614827 -167.313582 
L 116.679149 -165.262789 
L 116.795224 -163.211997 
L 116.949373 -161.161204 
L 117.127276 -159.110411 
L 117.31445 -157.059619 
L 117.49673 -155.008826 
L 117.66075 -152.958033 
L 117.794391 -150.907241 
L 117.887172 -148.856448 
L 117.930574 -146.805655 
L 117.918262 -144.754863 
L 117.846221 -142.70407 
L 117.712781 -140.653278 
L 117.518543 -138.602485 
L 117.266223 -136.551692 
L 116.960404 -134.5009 
L 116.607251 -132.450107 
L 116.214161 -130.399314 
L 115.789409 -128.348522 
L 115.341779 -126.297729 
z
" style="stroke: #4c4c4c; stroke-width: 1.25"/>
    </defs>
    <g clip-path="url(#pf87c572c8c)">
     <use xlink:href="#m1dcfd8551b" x="0" y="345.6" style="fill: #df2020; stroke: #4c4c4c; stroke-width: 1.25"/>
    </g>
   </g>
   <g id="FillBetweenPolyCollection_2">
    <defs>
     <path id="m1db15a846d" d="M 230.155395 -63.855048 
L 188.308006 -63.855048 
L 185.436978 -65.716649 
L 182.593283 -67.57825 
L 179.858469 -69.439852 
L 177.313224 -71.301453 
L 175.033001 -73.163054 
L 173.084141 -75.024655 
L 171.520745 -76.886257 
L 170.382465 -78.747858 
L 169.693218 -80.609459 
L 169.460811 -82.47106 
L 169.677347 -84.332662 
L 170.320318 -86.194263 
L 171.354265 -88.055864 
L 172.732892 -89.917465 
L 174.401543 -91.779067 
L 176.299922 -93.640668 
L 178.364927 -95.502269 
L 180.533448 -97.36387 
L 182.744983 -99.225472 
L 184.943905 -101.087073 
L 187.081282 -102.948674 
L 189.116183 -104.810276 
L 191.016445 -106.671877 
L 192.758954 -108.533478 
L 194.329505 -110.395079 
L 195.722337 -112.256681 
L 196.939408 -114.118282 
L 197.989479 -115.979883 
L 198.887027 -117.841484 
L 199.651004 -119.703086 
L 200.303437 -121.564687 
L 200.867901 -123.426288 
L 201.367916 -125.287889 
L 201.825346 -127.149491 
L 202.258944 -129.011092 
L 202.683166 -130.872693 
L 203.107388 -132.734295 
L 203.535619 -134.595896 
L 203.966759 -136.457497 
L 204.395343 -138.319098 
L 204.812701 -140.1807 
L 205.208352 -142.042301 
L 205.571479 -143.903902 
L 205.892301 -145.765503 
L 206.163195 -147.627105 
L 206.379485 -149.488706 
L 206.539838 -151.350307 
L 206.646307 -153.211908 
L 206.704039 -155.07351 
L 206.720745 -156.935111 
L 206.705991 -158.796712 
L 206.670414 -160.658313 
L 206.624898 -162.519915 
L 206.579805 -164.381516 
L 206.54429 -166.243117 
L 206.525745 -168.104719 
L 206.52942 -169.96632 
L 206.558239 -171.827921 
L 206.612818 -173.689522 
L 206.691679 -175.551124 
L 206.791645 -177.412725 
L 206.908348 -179.274326 
L 207.036811 -181.135927 
L 207.172021 -182.997529 
L 207.30944 -184.85913 
L 207.445393 -186.720731 
L 207.577293 -188.582332 
L 207.703702 -190.443934 
L 207.824217 -192.305535 
L 207.939234 -194.167136 
L 208.049634 -196.028738 
L 208.156434 -197.890339 
L 208.260478 -199.75194 
L 208.362211 -201.613541 
L 208.461543 -203.475143 
L 208.55784 -205.336744 
L 208.649999 -207.198345 
L 208.7366 -209.059946 
L 208.816082 -210.921548 
L 208.886917 -212.783149 
L 208.947748 -214.64475 
L 208.997477 -216.506351 
L 209.035302 -218.367953 
L 209.060719 -220.229554 
L 209.073495 -222.091155 
L 209.073656 -223.952756 
L 209.061486 -225.814358 
L 209.037557 -227.675959 
L 209.002795 -229.53756 
L 208.95855 -231.399162 
L 208.906663 -233.260763 
L 208.8495 -235.122364 
L 208.789925 -236.983965 
L 208.731193 -238.845567 
L 208.676771 -240.707168 
L 208.630082 -242.568769 
L 208.594221 -244.43037 
L 208.57166 -246.291972 
L 208.564003 -248.153573 
L 209.899399 -248.153573 
L 209.899399 -248.153573 
L 209.891742 -246.291972 
L 209.86918 -244.43037 
L 209.833319 -242.568769 
L 209.78663 -240.707168 
L 209.732208 -238.845567 
L 209.673476 -236.983965 
L 209.613901 -235.122364 
L 209.556739 -233.260763 
L 209.504852 -231.399162 
L 209.460606 -229.53756 
L 209.425844 -227.675959 
L 209.401916 -225.814358 
L 209.389745 -223.952756 
L 209.389906 -222.091155 
L 209.402682 -220.229554 
L 209.428099 -218.367953 
L 209.465924 -216.506351 
L 209.515653 -214.64475 
L 209.576484 -212.783149 
L 209.647319 -210.921548 
L 209.726801 -209.059946 
L 209.813402 -207.198345 
L 209.905561 -205.336744 
L 210.001858 -203.475143 
L 210.10119 -201.613541 
L 210.202923 -199.75194 
L 210.306968 -197.890339 
L 210.413767 -196.028738 
L 210.524167 -194.167136 
L 210.639185 -192.305535 
L 210.759699 -190.443934 
L 210.886108 -188.582332 
L 211.018008 -186.720731 
L 211.153961 -184.85913 
L 211.29138 -182.997529 
L 211.42659 -181.135927 
L 211.555053 -179.274326 
L 211.671756 -177.412725 
L 211.771722 -175.551124 
L 211.850584 -173.689522 
L 211.905162 -171.827921 
L 211.933981 -169.96632 
L 211.937657 -168.104719 
L 211.919111 -166.243117 
L 211.883596 -164.381516 
L 211.838504 -162.519915 
L 211.792988 -160.658313 
L 211.75741 -158.796712 
L 211.742656 -156.935111 
L 211.759362 -155.07351 
L 211.817095 -153.211908 
L 211.923564 -151.350307 
L 212.083917 -149.488706 
L 212.300206 -147.627105 
L 212.571101 -145.765503 
L 212.891923 -143.903902 
L 213.25505 -142.042301 
L 213.6507 -140.1807 
L 214.068058 -138.319098 
L 214.496643 -136.457497 
L 214.927782 -134.595896 
L 215.356014 -132.734295 
L 215.780235 -130.872693 
L 216.204457 -129.011092 
L 216.638056 -127.149491 
L 217.095485 -125.287889 
L 217.5955 -123.426288 
L 218.159964 -121.564687 
L 218.812397 -119.703086 
L 219.576374 -117.841484 
L 220.473923 -115.979883 
L 221.523993 -114.118282 
L 222.741064 -112.256681 
L 224.133896 -110.395079 
L 225.704447 -108.533478 
L 227.446956 -106.671877 
L 229.347218 -104.810276 
L 231.382119 -102.948674 
L 233.519497 -101.087073 
L 235.718418 -99.225472 
L 237.929953 -97.36387 
L 240.098475 -95.502269 
L 242.163479 -93.640668 
L 244.061858 -91.779067 
L 245.73051 -89.917465 
L 247.109137 -88.055864 
L 248.143084 -86.194263 
L 248.786055 -84.332662 
L 249.00259 -82.47106 
L 248.770183 -80.609459 
L 248.080936 -78.747858 
L 246.942656 -76.886257 
L 245.379261 -75.024655 
L 243.4304 -73.163054 
L 241.150177 -71.301453 
L 238.604932 -69.439852 
L 235.870118 -67.57825 
L 233.026423 -65.716649 
L 230.155395 -63.855048 
z
" style="stroke: #4d4d4d; stroke-width: 1.25"/>
    </defs>
    <g clip-path="url(#pf87c572c8c)">
     <use xlink:href="#m1db15a846d" x="0" y="345.6" style="fill: #808080; stroke: #4d4d4d; stroke-width: 1.25"/>
    </g>
   </g>
   <g id="FillBetweenPolyCollection_3">
    <defs>
     <path id="m590c8d236b" d="M 318.461874 -120.588024 
L 298.855974 -120.588024 
L 297.623649 -122.467163 
L 296.344463 -124.346302 
L 295.025459 -126.22544 
L 293.671947 -128.104579 
L 292.287311 -129.983718 
L 290.873168 -131.862857 
L 289.429876 -133.741995 
L 287.957351 -135.621134 
L 286.4561 -137.500273 
L 284.928327 -139.379412 
L 283.37898 -141.25855 
L 281.816563 -143.137689 
L 280.253617 -145.016828 
L 278.70677 -146.895966 
L 277.196341 -148.775105 
L 275.745507 -150.654244 
L 274.379129 -152.533383 
L 273.122323 -154.412521 
L 271.998928 -156.29166 
L 271.029973 -158.170799 
L 270.232287 -160.049938 
L 269.617339 -161.929076 
L 269.190389 -163.808215 
L 268.950012 -165.687354 
L 268.888035 -167.566492 
L 268.989902 -169.445631 
L 269.235472 -171.32477 
L 269.600222 -173.203909 
L 270.056814 -175.083047 
L 270.576915 -176.962186 
L 271.133173 -178.841325 
L 271.701174 -180.720463 
L 272.261211 -182.599602 
L 272.799685 -184.478741 
L 273.309992 -186.35788 
L 273.792757 -188.237018 
L 274.255401 -190.116157 
L 274.711034 -191.995296 
L 275.176806 -193.874435 
L 275.671881 -195.753573 
L 276.215262 -197.632712 
L 276.823717 -199.511851 
L 277.510027 -201.390989 
L 278.281767 -203.270128 
L 279.140714 -205.149267 
L 280.082937 -207.028406 
L 281.099494 -208.907544 
L 282.177624 -210.786683 
L 283.302228 -212.665822 
L 284.457436 -214.544961 
L 285.628041 -216.424099 
L 286.800639 -218.303238 
L 287.964349 -220.182377 
L 289.111068 -222.061515 
L 290.235302 -223.940654 
L 291.333645 -225.819793 
L 292.404058 -227.698932 
L 293.445073 -229.57807 
L 294.455093 -231.457209 
L 295.431877 -233.336348 
L 296.3723 -235.215486 
L 297.272391 -237.094625 
L 298.127628 -238.973764 
L 298.933409 -240.852903 
L 299.685621 -242.732041 
L 300.381183 -244.61118 
L 301.018492 -246.490319 
L 301.597691 -248.369458 
L 302.120734 -250.248596 
L 302.591242 -252.127735 
L 303.014185 -254.006874 
L 303.395434 -255.886012 
L 303.741272 -257.765151 
L 304.057901 -259.64429 
L 304.35102 -261.523429 
L 304.625509 -263.402567 
L 304.885233 -265.281706 
L 305.132963 -267.160845 
L 305.370412 -269.039984 
L 305.598333 -270.919122 
L 305.816677 -272.798261 
L 306.024767 -274.6774 
L 306.221477 -276.556538 
L 306.405407 -278.435677 
L 306.575051 -280.314816 
L 306.72896 -282.193955 
L 306.865898 -284.073093 
L 306.985004 -285.952232 
L 307.085937 -287.831371 
L 307.169 -289.71051 
L 307.235235 -291.589648 
L 307.286444 -293.468787 
L 307.325161 -295.347926 
L 307.354533 -297.227064 
L 307.378129 -299.106203 
L 307.3997 -300.985342 
L 307.422892 -302.864481 
L 307.450962 -304.743619 
L 307.486527 -306.622758 
L 309.831322 -306.622758 
L 309.831322 -306.622758 
L 309.866887 -304.743619 
L 309.894957 -302.864481 
L 309.918148 -300.985342 
L 309.939719 -299.106203 
L 309.963316 -297.227064 
L 309.992687 -295.347926 
L 310.031405 -293.468787 
L 310.082614 -291.589648 
L 310.148848 -289.71051 
L 310.231912 -287.831371 
L 310.332845 -285.952232 
L 310.451951 -284.073093 
L 310.588889 -282.193955 
L 310.742798 -280.314816 
L 310.912442 -278.435677 
L 311.096372 -276.556538 
L 311.293082 -274.6774 
L 311.501172 -272.798261 
L 311.719516 -270.919122 
L 311.947437 -269.039984 
L 312.184886 -267.160845 
L 312.432616 -265.281706 
L 312.692339 -263.402567 
L 312.966829 -261.523429 
L 313.259948 -259.64429 
L 313.576577 -257.765151 
L 313.922415 -255.886012 
L 314.303664 -254.006874 
L 314.726606 -252.127735 
L 315.197115 -250.248596 
L 315.720158 -248.369458 
L 316.299357 -246.490319 
L 316.936665 -244.61118 
L 317.632227 -242.732041 
L 318.384439 -240.852903 
L 319.190221 -238.973764 
L 320.045458 -237.094625 
L 320.945549 -235.215486 
L 321.885972 -233.336348 
L 322.862756 -231.457209 
L 323.872776 -229.57807 
L 324.913791 -227.698932 
L 325.984204 -225.819793 
L 327.082547 -223.940654 
L 328.206781 -222.061515 
L 329.3535 -220.182377 
L 330.517209 -218.303238 
L 331.689808 -216.424099 
L 332.860413 -214.544961 
L 334.015621 -212.665822 
L 335.140225 -210.786683 
L 336.218355 -208.907544 
L 337.234912 -207.028406 
L 338.177135 -205.149267 
L 339.036082 -203.270128 
L 339.807822 -201.390989 
L 340.494132 -199.511851 
L 341.102586 -197.632712 
L 341.645968 -195.753573 
L 342.141043 -193.874435 
L 342.606815 -191.995296 
L 343.062447 -190.116157 
L 343.525091 -188.237018 
L 344.007857 -186.35788 
L 344.518163 -184.478741 
L 345.056638 -182.599602 
L 345.616674 -180.720463 
L 346.184676 -178.841325 
L 346.740934 -176.962186 
L 347.261035 -175.083047 
L 347.717626 -173.203909 
L 348.082377 -171.32477 
L 348.327947 -169.445631 
L 348.429814 -167.566492 
L 348.367837 -165.687354 
L 348.12746 -163.808215 
L 347.700509 -161.929076 
L 347.085561 -160.049938 
L 346.287876 -158.170799 
L 345.318921 -156.29166 
L 344.195526 -154.412521 
L 342.93872 -152.533383 
L 341.572341 -150.654244 
L 340.121507 -148.775105 
L 338.611078 -146.895966 
L 337.064232 -145.016828 
L 335.501286 -143.137689 
L 333.938868 -141.25855 
L 332.389521 -139.379412 
L 330.861749 -137.500273 
L 329.360498 -135.621134 
L 327.887973 -133.741995 
L 326.444681 -131.862857 
L 325.030538 -129.983718 
L 323.645902 -128.104579 
L 322.29239 -126.22544 
L 320.973385 -124.346302 
L 319.694199 -122.467163 
L 318.461874 -120.588024 
z
" style="stroke: #4c4c4c; stroke-width: 1.25"/>
    </defs>
    <g clip-path="url(#pf87c572c8c)">
     <use xlink:href="#m590c8d236b" x="0" y="345.6" style="fill: #df2020; stroke: #4c4c4c; stroke-width: 1.25"/>
    </g>
   </g>
   <g id="FillBetweenPolyCollection_4">
    <defs>
     <path id="m4a0a754aa9" d="M 428.77584 -64.32606 
L 387.396457 -64.32606 
L 385.042716 -65.246946 
L 382.700212 -66.167832 
L 380.415684 -67.088718 
L 378.235558 -68.009604 
L 376.203693 -68.93049 
L 374.359206 -69.851376 
L 372.734554 -70.772262 
L 371.354021 -71.693148 
L 370.232712 -72.614035 
L 369.376162 -73.534921 
L 368.780539 -74.455807 
L 368.433455 -75.376693 
L 368.315259 -76.297579 
L 368.400726 -77.218465 
L 368.660961 -78.139351 
L 369.065368 -79.060237 
L 369.583523 -79.981123 
L 370.186817 -80.90201 
L 370.849758 -81.822896 
L 371.550892 -82.743782 
L 372.273305 -83.664668 
L 373.004763 -84.585554 
L 373.737522 -85.50644 
L 374.467911 -86.427326 
L 375.195767 -87.348212 
L 375.923806 -88.269098 
L 376.656985 -89.189984 
L 377.401911 -90.110871 
L 378.166295 -91.031757 
L 378.958456 -91.952643 
L 379.786843 -92.873529 
L 380.659562 -93.794415 
L 381.583879 -94.715301 
L 382.565701 -95.636187 
L 383.609049 -96.557073 
L 384.715555 -97.477959 
L 385.884036 -98.398845 
L 387.110202 -99.319732 
L 388.386542 -100.240618 
L 389.702435 -101.161504 
L 391.044496 -102.08239 
L 392.397149 -103.003276 
L 393.743382 -103.924162 
L 395.065631 -104.845048 
L 396.346703 -105.765934 
L 397.570668 -106.68682 
L 398.72363 -107.607706 
L 399.794332 -108.528593 
L 400.774538 -109.449479 
L 401.659182 -110.370365 
L 402.446303 -111.291251 
L 403.136778 -112.212137 
L 403.733915 -113.133023 
L 404.242948 -114.053909 
L 404.670496 -114.974795 
L 405.024028 -115.895681 
L 405.311392 -116.816568 
L 405.540415 -117.737454 
L 405.718622 -118.65834 
L 405.853046 -119.579226 
L 405.95016 -120.500112 
L 406.015878 -121.420998 
L 406.055635 -122.341884 
L 406.074498 -123.26277 
L 406.077278 -124.183656 
L 406.068634 -125.104542 
L 406.053112 -126.025429 
L 406.035134 -126.946315 
L 406.018911 -127.867201 
L 406.008296 -128.788087 
L 406.00658 -129.708973 
L 406.016275 -130.629859 
L 406.0389 -131.550745 
L 406.074813 -132.471631 
L 406.123111 -133.392517 
L 406.181637 -134.313403 
L 406.24708 -135.23429 
L 406.315197 -136.155176 
L 406.381123 -137.076062 
L 406.439749 -137.996948 
L 406.486137 -138.917834 
L 406.515943 -139.83872 
L 406.525791 -140.759606 
L 406.513586 -141.680492 
L 406.478731 -142.601378 
L 406.422225 -143.522264 
L 406.346651 -144.443151 
L 406.256036 -145.364037 
L 406.155611 -146.284923 
L 406.051484 -147.205809 
L 405.950244 -148.126695 
L 405.858541 -149.047581 
L 405.782656 -149.968467 
L 405.728107 -150.889353 
L 405.699305 -151.810239 
L 405.699297 -152.731126 
L 405.729609 -153.652012 
L 405.790191 -154.572898 
L 405.879479 -155.493784 
L 410.292817 -155.493784 
L 410.292817 -155.493784 
L 410.382105 -154.572898 
L 410.442687 -153.652012 
L 410.472999 -152.731126 
L 410.472991 -151.810239 
L 410.444189 -150.889353 
L 410.38964 -149.968467 
L 410.313756 -149.047581 
L 410.222052 -148.126695 
L 410.120812 -147.205809 
L 410.016685 -146.284923 
L 409.91626 -145.364037 
L 409.825645 -144.443151 
L 409.750071 -143.522264 
L 409.693566 -142.601378 
L 409.65871 -141.680492 
L 409.646505 -140.759606 
L 409.656353 -139.83872 
L 409.686159 -138.917834 
L 409.732548 -137.996948 
L 409.791173 -137.076062 
L 409.857099 -136.155176 
L 409.925217 -135.23429 
L 409.990659 -134.313403 
L 410.049185 -133.392517 
L 410.097484 -132.471631 
L 410.133396 -131.550745 
L 410.156022 -130.629859 
L 410.165717 -129.708973 
L 410.164 -128.788087 
L 410.153385 -127.867201 
L 410.137162 -126.946315 
L 410.119184 -126.025429 
L 410.103662 -125.104542 
L 410.095018 -124.183656 
L 410.097799 -123.26277 
L 410.116661 -122.341884 
L 410.156418 -121.420998 
L 410.222136 -120.500112 
L 410.31925 -119.579226 
L 410.453675 -118.65834 
L 410.631881 -117.737454 
L 410.860905 -116.816568 
L 411.148268 -115.895681 
L 411.501801 -114.974795 
L 411.929348 -114.053909 
L 412.438382 -113.133023 
L 413.035519 -112.212137 
L 413.725993 -111.291251 
L 414.513114 -110.370365 
L 415.397758 -109.449479 
L 416.377964 -108.528593 
L 417.448666 -107.607706 
L 418.601629 -106.68682 
L 419.825593 -105.765934 
L 421.106665 -104.845048 
L 422.428914 -103.924162 
L 423.775148 -103.003276 
L 425.1278 -102.08239 
L 426.469861 -101.161504 
L 427.785754 -100.240618 
L 429.062094 -99.319732 
L 430.28826 -98.398845 
L 431.456742 -97.477959 
L 432.563247 -96.557073 
L 433.606595 -95.636187 
L 434.588417 -94.715301 
L 435.512734 -93.794415 
L 436.385453 -92.873529 
L 437.21384 -91.952643 
L 438.006001 -91.031757 
L 438.770385 -90.110871 
L 439.515311 -89.189984 
L 440.24849 -88.269098 
L 440.976529 -87.348212 
L 441.704386 -86.427326 
L 442.434775 -85.50644 
L 443.167533 -84.585554 
L 443.898991 -83.664668 
L 444.621405 -82.743782 
L 445.322538 -81.822896 
L 445.98548 -80.90201 
L 446.588773 -79.981123 
L 447.106929 -79.060237 
L 447.511336 -78.139351 
L 447.77157 -77.218465 
L 447.857038 -76.297579 
L 447.738842 -75.376693 
L 447.391757 -74.455807 
L 446.796134 -73.534921 
L 445.939584 -72.614035 
L 444.818276 -71.693148 
L 443.437742 -70.772262 
L 441.813091 -69.851376 
L 439.968603 -68.93049 
L 437.936738 -68.009604 
L 435.756612 -67.088718 
L 433.472084 -66.167832 
L 431.129581 -65.246946 
L 428.77584 -64.32606 
z
" style="stroke: #4d4d4d; stroke-width: 1.25"/>
    </defs>
    <g clip-path="url(#pf87c572c8c)">
     <use xlink:href="#m4a0a754aa9" x="0" y="345.6" style="fill: #808080; stroke: #4d4d4d; stroke-width: 1.25"/>
    </g>
   </g>
   <g id="matplotlib.axis_1">
    <g id="xtick_1">
     <g id="line2d_1">
      <defs>
       <path id="m7bce95a10e" d="M 0 0 
L 0 3.5 
" style="stroke: #000000; stroke-width: 0.8"/>
      </defs>
      <g>
       <use xlink:href="#m7bce95a10e" x="109.804477" y="295.01851" style="stroke: #000000; stroke-width: 0.8"/>
      </g>
     </g>
     <g id="text_1">
      <!-- Time -->
      <g transform="translate(87.959164 316.334135) scale(0.2 -0.2)">
       <defs>
        <path id="ArialMT-54" d="M 1659 0 
L 1659 4041 
L 150 4041 
L 150 4581 
L 3781 4581 
L 3781 4041 
L 2266 4041 
L 2266 0 
L 1659 0 
z
" transform="scale(0.015625)"/>
        <path id="ArialMT-69" d="M 425 3934 
L 425 4581 
L 988 4581 
L 988 3934 
L 425 3934 
z
M 425 0 
L 425 3319 
L 988 3319 
L 988 0 
L 425 0 
z
" transform="scale(0.015625)"/>
        <path id="ArialMT-6d" d="M 422 0 
L 422 3319 
L 925 3319 
L 925 2853 
Q 1081 3097 1340 3245 
Q 1600 3394 1931 3394 
Q 2300 3394 2536 3241 
Q 2772 3088 2869 2813 
Q 3263 3394 3894 3394 
Q 4388 3394 4653 3120 
Q 4919 2847 4919 2278 
L 4919 0 
L 4359 0 
L 4359 2091 
Q 4359 2428 4304 2576 
Q 4250 2725 4106 2815 
Q 3963 2906 3769 2906 
Q 3419 2906 3187 2673 
Q 2956 2441 2956 1928 
L 2956 0 
L 2394 0 
L 2394 2156 
Q 2394 2531 2256 2718 
Q 2119 2906 1806 2906 
Q 1569 2906 1367 2781 
Q 1166 2656 1075 2415 
Q 984 2175 984 1722 
L 984 0 
L 422 0 
z
" transform="scale(0.015625)"/>
        <path id="ArialMT-65" d="M 2694 1069 
L 3275 997 
Q 3138 488 2766 206 
Q 2394 -75 1816 -75 
Q 1088 -75 661 373 
Q 234 822 234 1631 
Q 234 2469 665 2931 
Q 1097 3394 1784 3394 
Q 2450 3394 2872 2941 
Q 3294 2488 3294 1666 
Q 3294 1616 3291 1516 
L 816 1516 
Q 847 969 1125 678 
Q 1403 388 1819 388 
Q 2128 388 2347 550 
Q 2566 713 2694 1069 
z
M 847 1978 
L 2700 1978 
Q 2663 2397 2488 2606 
Q 2219 2931 1791 2931 
Q 1403 2931 1139 2672 
Q 875 2413 847 1978 
z
" transform="scale(0.015625)"/>
       </defs>
       <use xlink:href="#ArialMT-54"/>
       <use xlink:href="#ArialMT-69" transform="translate(57.333984 0)"/>
       <use xlink:href="#ArialMT-6d" transform="translate(79.550781 0)"/>
       <use xlink:href="#ArialMT-65" transform="translate(162.851562 0)"/>
      </g>
     </g>
    </g>
    <g id="xtick_2">
     <g id="line2d_2">
      <g>
       <use xlink:href="#m7bce95a10e" x="209.231701" y="295.01851" style="stroke: #000000; stroke-width: 0.8"/>
      </g>
     </g>
     <g id="text_2">
      <!-- Random -->
      <g transform="translate(171.436388 316.334135) scale(0.2 -0.2)">
       <defs>
        <path id="ArialMT-52" d="M 503 0 
L 503 4581 
L 2534 4581 
Q 3147 4581 3465 4457 
Q 3784 4334 3975 4021 
Q 4166 3709 4166 3331 
Q 4166 2844 3850 2509 
Q 3534 2175 2875 2084 
Q 3116 1969 3241 1856 
Q 3506 1613 3744 1247 
L 4541 0 
L 3778 0 
L 3172 953 
Q 2906 1366 2734 1584 
Q 2563 1803 2427 1890 
Q 2291 1978 2150 2013 
Q 2047 2034 1813 2034 
L 1109 2034 
L 1109 0 
L 503 0 
z
M 1109 2559 
L 2413 2559 
Q 2828 2559 3062 2645 
Q 3297 2731 3419 2920 
Q 3541 3109 3541 3331 
Q 3541 3656 3305 3865 
Q 3069 4075 2559 4075 
L 1109 4075 
L 1109 2559 
z
" transform="scale(0.015625)"/>
        <path id="ArialMT-61" d="M 2588 409 
Q 2275 144 1986 34 
Q 1697 -75 1366 -75 
Q 819 -75 525 192 
Q 231 459 231 875 
Q 231 1119 342 1320 
Q 453 1522 633 1644 
Q 813 1766 1038 1828 
Q 1203 1872 1538 1913 
Q 2219 1994 2541 2106 
Q 2544 2222 2544 2253 
Q 2544 2597 2384 2738 
Q 2169 2928 1744 2928 
Q 1347 2928 1158 2789 
Q 969 2650 878 2297 
L 328 2372 
Q 403 2725 575 2942 
Q 747 3159 1072 3276 
Q 1397 3394 1825 3394 
Q 2250 3394 2515 3294 
Q 2781 3194 2906 3042 
Q 3031 2891 3081 2659 
Q 3109 2516 3109 2141 
L 3109 1391 
Q 3109 606 3145 398 
Q 3181 191 3288 0 
L 2700 0 
Q 2613 175 2588 409 
z
M 2541 1666 
Q 2234 1541 1622 1453 
Q 1275 1403 1131 1340 
Q 988 1278 909 1158 
Q 831 1038 831 891 
Q 831 666 1001 516 
Q 1172 366 1500 366 
Q 1825 366 2078 508 
Q 2331 650 2450 897 
Q 2541 1088 2541 1459 
L 2541 1666 
z
" transform="scale(0.015625)"/>
        <path id="ArialMT-6e" d="M 422 0 
L 422 3319 
L 928 3319 
L 928 2847 
Q 1294 3394 1984 3394 
Q 2284 3394 2536 3286 
Q 2788 3178 2913 3003 
Q 3038 2828 3088 2588 
Q 3119 2431 3119 2041 
L 3119 0 
L 2556 0 
L 2556 2019 
Q 2556 2363 2490 2533 
Q 2425 2703 2258 2804 
Q 2091 2906 1866 2906 
Q 1506 2906 1245 2678 
Q 984 2450 984 1813 
L 984 0 
L 422 0 
z
" transform="scale(0.015625)"/>
        <path id="ArialMT-64" d="M 2575 0 
L 2575 419 
Q 2259 -75 1647 -75 
Q 1250 -75 917 144 
Q 584 363 401 755 
Q 219 1147 219 1656 
Q 219 2153 384 2558 
Q 550 2963 881 3178 
Q 1213 3394 1622 3394 
Q 1922 3394 2156 3267 
Q 2391 3141 2538 2938 
L 2538 4581 
L 3097 4581 
L 3097 0 
L 2575 0 
z
M 797 1656 
Q 797 1019 1065 703 
Q 1334 388 1700 388 
Q 2069 388 2326 689 
Q 2584 991 2584 1609 
Q 2584 2291 2321 2609 
Q 2059 2928 1675 2928 
Q 1300 2928 1048 2622 
Q 797 2316 797 1656 
z
" transform="scale(0.015625)"/>
        <path id="ArialMT-6f" d="M 213 1659 
Q 213 2581 725 3025 
Q 1153 3394 1769 3394 
Q 2453 3394 2887 2945 
Q 3322 2497 3322 1706 
Q 3322 1066 3130 698 
Q 2938 331 2570 128 
Q 2203 -75 1769 -75 
Q 1072 -75 642 372 
Q 213 819 213 1659 
z
M 791 1659 
Q 791 1022 1069 705 
Q 1347 388 1769 388 
Q 2188 388 2466 706 
Q 2744 1025 2744 1678 
Q 2744 2294 2464 2611 
Q 2184 2928 1769 2928 
Q 1347 2928 1069 2612 
Q 791 2297 791 1659 
z
" transform="scale(0.015625)"/>
       </defs>
       <use xlink:href="#ArialMT-52"/>
       <use xlink:href="#ArialMT-61" transform="translate(72.216797 0)"/>
       <use xlink:href="#ArialMT-6e" transform="translate(127.832031 0)"/>
       <use xlink:href="#ArialMT-64" transform="translate(183.447266 0)"/>
       <use xlink:href="#ArialMT-6f" transform="translate(239.0625 0)"/>
       <use xlink:href="#ArialMT-6d" transform="translate(294.677734 0)"/>
      </g>
     </g>
    </g>
    <g id="xtick_3">
     <g id="line2d_3">
      <g>
       <use xlink:href="#m7bce95a10e" x="308.658924" y="295.01851" style="stroke: #000000; stroke-width: 0.8"/>
      </g>
     </g>
     <g id="text_3">
      <!-- Trait 1 -->
      <g transform="translate(280.696424 316.334135) scale(0.2 -0.2)">
       <defs>
        <path id="ArialMT-72" d="M 416 0 
L 416 3319 
L 922 3319 
L 922 2816 
Q 1116 3169 1280 3281 
Q 1444 3394 1641 3394 
Q 1925 3394 2219 3213 
L 2025 2691 
Q 1819 2813 1613 2813 
Q 1428 2813 1281 2702 
Q 1134 2591 1072 2394 
Q 978 2094 978 1738 
L 978 0 
L 416 0 
z
" transform="scale(0.015625)"/>
        <path id="ArialMT-74" d="M 1650 503 
L 1731 6 
Q 1494 -44 1306 -44 
Q 1000 -44 831 53 
Q 663 150 594 308 
Q 525 466 525 972 
L 525 2881 
L 113 2881 
L 113 3319 
L 525 3319 
L 525 4141 
L 1084 4478 
L 1084 3319 
L 1650 3319 
L 1650 2881 
L 1084 2881 
L 1084 941 
Q 1084 700 1114 631 
Q 1144 563 1211 522 
Q 1278 481 1403 481 
Q 1497 481 1650 503 
z
" transform="scale(0.015625)"/>
        <path id="ArialMT-20" transform="scale(0.015625)"/>
        <path id="ArialMT-31" d="M 2384 0 
L 1822 0 
L 1822 3584 
Q 1619 3391 1289 3197 
Q 959 3003 697 2906 
L 697 3450 
Q 1169 3672 1522 3987 
Q 1875 4303 2022 4600 
L 2384 4600 
L 2384 0 
z
" transform="scale(0.015625)"/>
       </defs>
       <use xlink:href="#ArialMT-54"/>
       <use xlink:href="#ArialMT-72" transform="translate(57.333984 0)"/>
       <use xlink:href="#ArialMT-61" transform="translate(90.634766 0)"/>
       <use xlink:href="#ArialMT-69" transform="translate(146.25 0)"/>
       <use xlink:href="#ArialMT-74" transform="translate(168.466797 0)"/>
       <use xlink:href="#ArialMT-20" transform="translate(196.25 0)"/>
       <use xlink:href="#ArialMT-31" transform="translate(224.033203 0)"/>
      </g>
     </g>
    </g>
    <g id="xtick_4">
     <g id="line2d_4">
      <g>
       <use xlink:href="#m7bce95a10e" x="408.086148" y="295.01851" style="stroke: #000000; stroke-width: 0.8"/>
      </g>
     </g>
     <g id="text_4">
      <!-- Trait 2 -->
      <g transform="translate(380.123648 316.334135) scale(0.2 -0.2)">
       <defs>
        <path id="ArialMT-32" d="M 3222 541 
L 3222 0 
L 194 0 
Q 188 203 259 391 
Q 375 700 629 1000 
Q 884 1300 1366 1694 
Q 2113 2306 2375 2664 
Q 2638 3022 2638 3341 
Q 2638 3675 2398 3904 
Q 2159 4134 1775 4134 
Q 1369 4134 1125 3890 
Q 881 3647 878 3216 
L 300 3275 
Q 359 3922 746 4261 
Q 1134 4600 1788 4600 
Q 2447 4600 2831 4234 
Q 3216 3869 3216 3328 
Q 3216 3053 3103 2787 
Q 2991 2522 2730 2228 
Q 2469 1934 1863 1422 
Q 1356 997 1212 845 
Q 1069 694 975 541 
L 3222 541 
z
" transform="scale(0.015625)"/>
       </defs>
       <use xlink:href="#ArialMT-54"/>
       <use xlink:href="#ArialMT-72" transform="translate(57.333984 0)"/>
       <use xlink:href="#ArialMT-61" transform="translate(90.634766 0)"/>
       <use xlink:href="#ArialMT-69" transform="translate(146.25 0)"/>
       <use xlink:href="#ArialMT-74" transform="translate(168.466797 0)"/>
       <use xlink:href="#ArialMT-20" transform="translate(196.25 0)"/>
       <use xlink:href="#ArialMT-32" transform="translate(224.033203 0)"/>
      </g>
     </g>
    </g>
    <g id="text_5">
     <!-- Predictor -->
     <g transform="translate(218.932813 338.62476) scale(0.2 -0.2)">
      <defs>
       <path id="ArialMT-50" d="M 494 0 
L 494 4581 
L 2222 4581 
Q 2678 4581 2919 4538 
Q 3256 4481 3484 4323 
Q 3713 4166 3852 3881 
Q 3991 3597 3991 3256 
Q 3991 2672 3619 2267 
Q 3247 1863 2275 1863 
L 1100 1863 
L 1100 0 
L 494 0 
z
M 1100 2403 
L 2284 2403 
Q 2872 2403 3119 2622 
Q 3366 2841 3366 3238 
Q 3366 3525 3220 3729 
Q 3075 3934 2838 4000 
Q 2684 4041 2272 4041 
L 1100 4041 
L 1100 2403 
z
" transform="scale(0.015625)"/>
       <path id="ArialMT-63" d="M 2588 1216 
L 3141 1144 
Q 3050 572 2676 248 
Q 2303 -75 1759 -75 
Q 1078 -75 664 370 
Q 250 816 250 1647 
Q 250 2184 428 2587 
Q 606 2991 970 3192 
Q 1334 3394 1763 3394 
Q 2303 3394 2647 3120 
Q 2991 2847 3088 2344 
L 2541 2259 
Q 2463 2594 2264 2762 
Q 2066 2931 1784 2931 
Q 1359 2931 1093 2626 
Q 828 2322 828 1663 
Q 828 994 1084 691 
Q 1341 388 1753 388 
Q 2084 388 2306 591 
Q 2528 794 2588 1216 
z
" transform="scale(0.015625)"/>
      </defs>
      <use xlink:href="#ArialMT-50"/>
      <use xlink:href="#ArialMT-72" transform="translate(66.699219 0)"/>
      <use xlink:href="#ArialMT-65" transform="translate(100 0)"/>
      <use xlink:href="#ArialMT-64" transform="translate(155.615234 0)"/>
      <use xlink:href="#ArialMT-69" transform="translate(211.230469 0)"/>
      <use xlink:href="#ArialMT-63" transform="translate(233.447266 0)"/>
      <use xlink:href="#ArialMT-74" transform="translate(283.447266 0)"/>
      <use xlink:href="#ArialMT-6f" transform="translate(311.230469 0)"/>
      <use xlink:href="#ArialMT-72" transform="translate(366.845703 0)"/>
     </g>
    </g>
   </g>
   <g id="matplotlib.axis_2">
    <g id="ytick_1">
     <g id="line2d_5">
      <defs>
       <path id="mb6b5fb60de" d="M 0 0 
L -3.5 0 
" style="stroke: #000000; stroke-width: 0.8"/>
      </defs>
      <g>
       <use xlink:href="#mb6b5fb60de" x="60.090865" y="265.130322" style="stroke: #000000; stroke-width: 0.8"/>
      </g>
     </g>
     <g id="text_6">
      <!-- 0.1 -->
      <g transform="translate(25.290865 272.288134) scale(0.2 -0.2)">
       <defs>
        <path id="ArialMT-30" d="M 266 2259 
Q 266 3072 433 3567 
Q 600 4063 929 4331 
Q 1259 4600 1759 4600 
Q 2128 4600 2406 4451 
Q 2684 4303 2865 4023 
Q 3047 3744 3150 3342 
Q 3253 2941 3253 2259 
Q 3253 1453 3087 958 
Q 2922 463 2592 192 
Q 2263 -78 1759 -78 
Q 1097 -78 719 397 
Q 266 969 266 2259 
z
M 844 2259 
Q 844 1131 1108 757 
Q 1372 384 1759 384 
Q 2147 384 2411 759 
Q 2675 1134 2675 2259 
Q 2675 3391 2411 3762 
Q 2147 4134 1753 4134 
Q 1366 4134 1134 3806 
Q 844 3388 844 2259 
z
" transform="scale(0.015625)"/>
        <path id="ArialMT-2e" d="M 581 0 
L 581 641 
L 1222 641 
L 1222 0 
L 581 0 
z
" transform="scale(0.015625)"/>
       </defs>
       <use xlink:href="#ArialMT-30"/>
       <use xlink:href="#ArialMT-2e" transform="translate(55.615234 0)"/>
       <use xlink:href="#ArialMT-31" transform="translate(83.398438 0)"/>
      </g>
     </g>
    </g>
    <g id="ytick_2">
     <g id="line2d_6">
      <g>
       <use xlink:href="#mb6b5fb60de" x="60.090865" y="217.893907" style="stroke: #000000; stroke-width: 0.8"/>
      </g>
     </g>
     <g id="text_7">
      <!-- 0.2 -->
      <g transform="translate(25.290865 225.05172) scale(0.2 -0.2)">
       <use xlink:href="#ArialMT-30"/>
       <use xlink:href="#ArialMT-2e" transform="translate(55.615234 0)"/>
       <use xlink:href="#ArialMT-32" transform="translate(83.398438 0)"/>
      </g>
     </g>
    </g>
    <g id="ytick_3">
     <g id="line2d_7">
      <g>
       <use xlink:href="#mb6b5fb60de" x="60.090865" y="170.657493" style="stroke: #000000; stroke-width: 0.8"/>
      </g>
     </g>
     <g id="text_8">
      <!-- 0.3 -->
      <g transform="translate(25.290865 177.815305) scale(0.2 -0.2)">
       <defs>
        <path id="ArialMT-33" d="M 269 1209 
L 831 1284 
Q 928 806 1161 595 
Q 1394 384 1728 384 
Q 2125 384 2398 659 
Q 2672 934 2672 1341 
Q 2672 1728 2419 1979 
Q 2166 2231 1775 2231 
Q 1616 2231 1378 2169 
L 1441 2663 
Q 1497 2656 1531 2656 
Q 1891 2656 2178 2843 
Q 2466 3031 2466 3422 
Q 2466 3731 2256 3934 
Q 2047 4138 1716 4138 
Q 1388 4138 1169 3931 
Q 950 3725 888 3313 
L 325 3413 
Q 428 3978 793 4289 
Q 1159 4600 1703 4600 
Q 2078 4600 2393 4439 
Q 2709 4278 2876 4000 
Q 3044 3722 3044 3409 
Q 3044 3113 2884 2869 
Q 2725 2625 2413 2481 
Q 2819 2388 3044 2092 
Q 3269 1797 3269 1353 
Q 3269 753 2831 336 
Q 2394 -81 1725 -81 
Q 1122 -81 723 278 
Q 325 638 269 1209 
z
" transform="scale(0.015625)"/>
       </defs>
       <use xlink:href="#ArialMT-30"/>
       <use xlink:href="#ArialMT-2e" transform="translate(55.615234 0)"/>
       <use xlink:href="#ArialMT-33" transform="translate(83.398438 0)"/>
      </g>
     </g>
    </g>
    <g id="ytick_4">
     <g id="line2d_8">
      <g>
       <use xlink:href="#mb6b5fb60de" x="60.090865" y="123.421078" style="stroke: #000000; stroke-width: 0.8"/>
      </g>
     </g>
     <g id="text_9">
      <!-- 0.4 -->
      <g transform="translate(25.290865 130.578891) scale(0.2 -0.2)">
       <defs>
        <path id="ArialMT-34" d="M 2069 0 
L 2069 1097 
L 81 1097 
L 81 1613 
L 2172 4581 
L 2631 4581 
L 2631 1613 
L 3250 1613 
L 3250 1097 
L 2631 1097 
L 2631 0 
L 2069 0 
z
M 2069 1613 
L 2069 3678 
L 634 1613 
L 2069 1613 
z
" transform="scale(0.015625)"/>
       </defs>
       <use xlink:href="#ArialMT-30"/>
       <use xlink:href="#ArialMT-2e" transform="translate(55.615234 0)"/>
       <use xlink:href="#ArialMT-34" transform="translate(83.398438 0)"/>
      </g>
     </g>
    </g>
    <g id="ytick_5">
     <g id="line2d_9">
      <g>
       <use xlink:href="#mb6b5fb60de" x="60.090865" y="76.184663" style="stroke: #000000; stroke-width: 0.8"/>
      </g>
     </g>
     <g id="text_10">
      <!-- 0.5 -->
      <g transform="translate(25.290865 83.342476) scale(0.2 -0.2)">
       <defs>
        <path id="ArialMT-35" d="M 266 1200 
L 856 1250 
Q 922 819 1161 601 
Q 1400 384 1738 384 
Q 2144 384 2425 690 
Q 2706 997 2706 1503 
Q 2706 1984 2436 2262 
Q 2166 2541 1728 2541 
Q 1456 2541 1237 2417 
Q 1019 2294 894 2097 
L 366 2166 
L 809 4519 
L 3088 4519 
L 3088 3981 
L 1259 3981 
L 1013 2750 
Q 1425 3038 1878 3038 
Q 2478 3038 2890 2622 
Q 3303 2206 3303 1553 
Q 3303 931 2941 478 
Q 2500 -78 1738 -78 
Q 1113 -78 717 272 
Q 322 622 266 1200 
z
" transform="scale(0.015625)"/>
       </defs>
       <use xlink:href="#ArialMT-30"/>
       <use xlink:href="#ArialMT-2e" transform="translate(55.615234 0)"/>
       <use xlink:href="#ArialMT-35" transform="translate(83.398438 0)"/>
      </g>
     </g>
    </g>
    <g id="ytick_6">
     <g id="line2d_10">
      <g>
       <use xlink:href="#mb6b5fb60de" x="60.090865" y="28.948249" style="stroke: #000000; stroke-width: 0.8"/>
      </g>
     </g>
     <g id="text_11">
      <!-- 0.6 -->
      <g transform="translate(25.290865 36.106061) scale(0.2 -0.2)">
       <defs>
        <path id="ArialMT-36" d="M 3184 3459 
L 2625 3416 
Q 2550 3747 2413 3897 
Q 2184 4138 1850 4138 
Q 1581 4138 1378 3988 
Q 1113 3794 959 3422 
Q 806 3050 800 2363 
Q 1003 2672 1297 2822 
Q 1591 2972 1913 2972 
Q 2475 2972 2870 2558 
Q 3266 2144 3266 1488 
Q 3266 1056 3080 686 
Q 2894 316 2569 119 
Q 2244 -78 1831 -78 
Q 1128 -78 684 439 
Q 241 956 241 2144 
Q 241 3472 731 4075 
Q 1159 4600 1884 4600 
Q 2425 4600 2770 4297 
Q 3116 3994 3184 3459 
z
M 888 1484 
Q 888 1194 1011 928 
Q 1134 663 1356 523 
Q 1578 384 1822 384 
Q 2178 384 2434 671 
Q 2691 959 2691 1453 
Q 2691 1928 2437 2201 
Q 2184 2475 1800 2475 
Q 1419 2475 1153 2201 
Q 888 1928 888 1484 
z
" transform="scale(0.015625)"/>
       </defs>
       <use xlink:href="#ArialMT-30"/>
       <use xlink:href="#ArialMT-2e" transform="translate(55.615234 0)"/>
       <use xlink:href="#ArialMT-36" transform="translate(83.398438 0)"/>
      </g>
     </g>
    </g>
    <g id="text_12">
     <!-- Importance -->
     <g transform="translate(17.315865 199.029688) rotate(-90) scale(0.2 -0.2)">
      <defs>
       <path id="ArialMT-49" d="M 597 0 
L 597 4581 
L 1203 4581 
L 1203 0 
L 597 0 
z
" transform="scale(0.015625)"/>
       <path id="ArialMT-70" d="M 422 -1272 
L 422 3319 
L 934 3319 
L 934 2888 
Q 1116 3141 1344 3267 
Q 1572 3394 1897 3394 
Q 2322 3394 2647 3175 
Q 2972 2956 3137 2557 
Q 3303 2159 3303 1684 
Q 3303 1175 3120 767 
Q 2938 359 2589 142 
Q 2241 -75 1856 -75 
Q 1575 -75 1351 44 
Q 1128 163 984 344 
L 984 -1272 
L 422 -1272 
z
M 931 1641 
Q 931 1000 1190 694 
Q 1450 388 1819 388 
Q 2194 388 2461 705 
Q 2728 1022 2728 1688 
Q 2728 2322 2467 2637 
Q 2206 2953 1844 2953 
Q 1484 2953 1207 2617 
Q 931 2281 931 1641 
z
" transform="scale(0.015625)"/>
      </defs>
      <use xlink:href="#ArialMT-49"/>
      <use xlink:href="#ArialMT-6d" transform="translate(27.783203 0)"/>
      <use xlink:href="#ArialMT-70" transform="translate(111.083984 0)"/>
      <use xlink:href="#ArialMT-6f" transform="translate(166.699219 0)"/>
      <use xlink:href="#ArialMT-72" transform="translate(222.314453 0)"/>
      <use xlink:href="#ArialMT-74" transform="translate(255.615234 0)"/>
      <use xlink:href="#ArialMT-61" transform="translate(283.398438 0)"/>
      <use xlink:href="#ArialMT-6e" transform="translate(339.013672 0)"/>
      <use xlink:href="#ArialMT-63" transform="translate(394.628906 0)"/>
      <use xlink:href="#ArialMT-65" transform="translate(444.628906 0)"/>
     </g>
    </g>
   </g>
   <g id="line2d_11">
    <path d="M 109.804477 214.434652 
L 109.804477 16.273798 
" clip-path="url(#pf87c572c8c)" style="fill: none; stroke: #4c4c4c; stroke-width: 1.875; stroke-linecap: square"/>
   </g>
   <g id="line2d_12">
    <path d="M 109.804477 130.911371 
L 109.804477 73.358427 
" clip-path="url(#pf87c572c8c)" style="fill: none; stroke: #4c4c4c; stroke-width: 5.625; stroke-linecap: square"/>
   </g>
   <g id="line2d_13">
    <path d="M 109.804477 95.588341 
" clip-path="url(#pf87c572c8c)" style="fill: none; stroke: #4c4c4c; stroke-width: 4; stroke-linecap: square"/>
    <defs>
     <path id="mfec812a714" d="M 2.34375 0 
L -2.34375 -0 
" style="stroke: #ffffff; stroke-width: 1.125"/>
    </defs>
    <g clip-path="url(#pf87c572c8c)">
     <use xlink:href="#mfec812a714" x="109.804477" y="95.588341" style="fill: #ffffff; stroke: #ffffff; stroke-width: 1.125"/>
    </g>
   </g>
   <g id="line2d_14">
    <path d="M 209.231701 281.744952 
L 209.231701 209.219214 
" clip-path="url(#pf87c572c8c)" style="fill: none; stroke: #4d4d4d; stroke-width: 1.875; stroke-linecap: square"/>
   </g>
   <g id="line2d_15">
    <path d="M 209.231701 268.381536 
L 209.231701 244.698031 
" clip-path="url(#pf87c572c8c)" style="fill: none; stroke: #4d4d4d; stroke-width: 5.625; stroke-linecap: square"/>
   </g>
   <g id="line2d_16">
    <path d="M 209.231701 259.130244 
" clip-path="url(#pf87c572c8c)" style="fill: none; stroke: #4d4d4d; stroke-width: 4; stroke-linecap: square"/>
    <g clip-path="url(#pf87c572c8c)">
     <use xlink:href="#mfec812a714" x="209.231701" y="259.130244" style="fill: #ffffff; stroke: #ffffff; stroke-width: 1.125"/>
    </g>
   </g>
   <g id="line2d_17">
    <path d="M 308.658924 225.011976 
L 308.658924 83.858273 
" clip-path="url(#pf87c572c8c)" style="fill: none; stroke: #4c4c4c; stroke-width: 1.875; stroke-linecap: square"/>
   </g>
   <g id="line2d_18">
    <path d="M 308.658924 188.520338 
L 308.658924 141.006239 
" clip-path="url(#pf87c572c8c)" style="fill: none; stroke: #4c4c4c; stroke-width: 5.625; stroke-linecap: square"/>
   </g>
   <g id="line2d_19">
    <path d="M 308.658924 168.009844 
" clip-path="url(#pf87c572c8c)" style="fill: none; stroke: #4c4c4c; stroke-width: 4; stroke-linecap: square"/>
    <g clip-path="url(#pf87c572c8c)">
     <use xlink:href="#mfec812a714" x="308.658924" y="168.009844" style="fill: #ffffff; stroke: #ffffff; stroke-width: 1.125"/>
    </g>
   </g>
   <g id="line2d_20">
    <path d="M 408.086148 281.27394 
L 408.086148 224.583187 
" clip-path="url(#pf87c572c8c)" style="fill: none; stroke: #4d4d4d; stroke-width: 1.875; stroke-linecap: square"/>
   </g>
   <g id="line2d_21">
    <path d="M 408.086148 272.221169 
L 408.086148 251.829254 
" clip-path="url(#pf87c572c8c)" style="fill: none; stroke: #4d4d4d; stroke-width: 5.625; stroke-linecap: square"/>
   </g>
   <g id="line2d_22">
    <path d="M 408.086148 263.443395 
" clip-path="url(#pf87c572c8c)" style="fill: none; stroke: #4d4d4d; stroke-width: 4; stroke-linecap: square"/>
    <g clip-path="url(#pf87c572c8c)">
     <use xlink:href="#mfec812a714" x="408.086148" y="263.443395" style="fill: #ffffff; stroke: #ffffff; stroke-width: 1.125"/>
    </g>
   </g>
   <g id="patch_3">
    <path d="M 60.090865 295.01851 
L 60.090865 3.00024 
" style="fill: none; stroke: #000000; stroke-width: 0.8; stroke-linejoin: miter; stroke-linecap: square"/>
   </g>
   <g id="patch_4">
    <path d="M 457.79976 295.01851 
L 457.79976 3.00024 
" style="fill: none; stroke: #000000; stroke-width: 0.8; stroke-linejoin: miter; stroke-linecap: square"/>
   </g>
   <g id="patch_5">
    <path d="M 60.090865 295.01851 
L 457.79976 295.01851 
" style="fill: none; stroke: #000000; stroke-width: 0.8; stroke-linejoin: miter; stroke-linecap: square"/>
   </g>
   <g id="patch_6">
    <path d="M 60.090865 3.00024 
L 457.79976 3.00024 
" style="fill: none; stroke: #000000; stroke-width: 0.8; stroke-linejoin: miter; stroke-linecap: square"/>
   </g>
  </g>
 </g>
 <defs>
  <clipPath id="pf87c572c8c">
   <rect x="60.090865" y="3.00024" width="397.708895" height="292.01827"/>
  </clipPath>
 </defs>
</svg>
