<?xml version="1.0" encoding="utf-8" standalone="no"?>
<!DOCTYPE svg PUBLIC "-//W3C//DTD SVG 1.1//EN"
  "http://www.w3.org/Graphics/SVG/1.1/DTD/svg11.dtd">
<svg xmlns:xlink="http://www.w3.org/1999/xlink" width="460.8pt" height="345.6pt" viewBox="0 0 460.8 345.6" xmlns="http://www.w3.org/2000/svg" version="1.1">
 <metadata>
  <rdf:RDF xmlns:dc="http://purl.org/dc/elements/1.1/" xmlns:cc="http://creativecommons.org/ns#" xmlns:rdf="http://www.w3.org/1999/02/22-rdf-syntax-ns#">
   <cc:Work>
    <dc:type rdf:resource="http://purl.org/dc/dcmitype/StillImage"/>
    <dc:date>2025-12-06T02:10:55.145256</dc:date>
    <dc:format>image/svg+xml</dc:format>
    <dc:creator>
     <cc:Agent>
      <dc:title>Matplotlib v3.10.7, https://matplotlib.org/</dc:title>
     </cc:Agent>
    </dc:creator>
   </cc:Work>
  </rdf:RDF>
 </metadata>
 <defs>
  <style type="text/css">*{stroke-linejoin: round; stroke-linecap: butt}</style>
 </defs>
 <g id="figure_1">
  <g id="patch_1">
   <path d="M 0 345.6 
L 460.8 345.6 
L 460.8 0 
L 0 0 
z
" style="fill: #ffffff"/>
  </g>
  <g id="axes_1">
   <g id="patch_2">
    <path d="M 60.090865 295.01851 
L 457.79976 295.01851 
L 457.79976 3.00024 
L 60.090865 3.00024 
z
" style="fill: #ffffff"/>
   </g>
   <g id="FillBetweenPolyCollection_1">
    <defs>
     <path id="m3439f7d64a" d="M 120.354484 -96.475431 
L 99.254469 -96.475431 
L 98.303389 -98.827459 
L 97.348005 -101.179487 
L 96.396399 -103.531515 
L 95.456083 -105.883543 
L 94.533742 -108.235571 
L 93.635011 -110.587599 
L 92.764272 -112.939627 
L 91.924494 -115.291655 
L 91.117107 -117.643683 
L 90.34191 -119.995711 
L 89.597032 -122.347739 
L 88.878937 -124.699767 
L 88.182498 -127.051795 
L 87.501147 -129.403823 
L 86.827096 -131.755851 
L 86.151668 -134.107879 
L 85.46571 -136.459907 
L 84.760101 -138.811935 
L 84.026329 -141.163963 
L 83.257118 -143.515991 
L 82.447064 -145.868019 
L 81.593238 -148.220047 
L 80.695696 -150.572075 
L 79.757866 -152.924103 
L 78.786739 -155.276131 
L 77.792843 -157.628159 
L 76.78998 -159.980187 
L 75.794705 -162.332215 
L 74.825585 -164.684243 
L 73.90226 -167.036271 
L 73.044368 -169.388299 
L 72.270414 -171.740327 
L 71.596655 -174.092354 
L 71.036091 -176.444382 
L 70.597647 -178.79641 
L 70.285616 -181.148438 
L 70.099398 -183.500466 
L 70.033587 -185.852494 
L 70.078389 -188.204522 
L 70.220348 -190.55655 
L 70.443331 -192.908578 
L 70.729699 -195.260606 
L 71.061571 -197.612634 
L 71.422084 -199.964662 
L 71.796559 -202.31669 
L 72.173477 -204.668718 
L 72.545196 -207.020746 
L 72.908356 -209.372774 
L 73.263947 -211.724802 
L 73.61704 -214.07683 
L 73.976205 -216.428858 
L 74.352685 -218.780886 
L 74.759368 -221.132914 
L 75.209668 -223.484942 
L 75.716393 -225.83697 
L 76.290682 -228.188998 
L 76.941102 -230.541026 
L 77.672958 -232.893054 
L 78.487862 -235.245082 
L 79.383587 -237.59711 
L 80.354192 -239.949138 
L 81.390399 -242.301166 
L 82.480183 -244.653194 
L 83.609511 -247.005222 
L 84.763158 -249.35725 
L 85.925556 -251.709278 
L 87.081583 -254.061306 
L 88.217259 -256.413334 
L 89.320305 -258.765362 
L 90.380535 -261.11739 
L 91.390075 -263.469418 
L 92.343419 -265.821446 
L 93.237339 -268.173474 
L 94.070681 -270.525502 
L 94.844079 -272.87753 
L 95.559622 -275.229558 
L 96.220508 -277.581586 
L 96.83072 -279.933614 
L 97.394733 -282.285642 
L 97.917266 -284.63767 
L 98.4031 -286.989698 
L 98.856932 -289.341726 
L 99.283292 -291.693754 
L 99.686483 -294.045782 
L 100.070555 -296.39781 
L 100.439284 -298.749838 
L 100.796175 -301.101866 
L 101.144442 -303.453894 
L 101.487004 -305.805922 
L 101.826461 -308.15795 
L 102.165069 -310.509978 
L 102.504709 -312.862006 
L 102.846853 -315.214034 
L 103.192531 -317.566062 
L 103.542306 -319.91809 
L 103.896251 -322.270118 
L 104.253945 -324.622146 
L 104.614481 -326.974174 
L 104.976493 -329.326202 
L 114.63246 -329.326202 
L 114.63246 -329.326202 
L 114.994472 -326.974174 
L 115.355009 -324.622146 
L 115.712703 -322.270118 
L 116.066648 -319.91809 
L 116.416423 -317.566062 
L 116.762101 -315.214034 
L 117.104245 -312.862006 
L 117.443885 -310.509978 
L 117.782493 -308.15795 
L 118.12195 -305.805922 
L 118.464512 -303.453894 
L 118.812779 -301.101866 
L 119.169669 -298.749838 
L 119.538399 -296.39781 
L 119.92247 -294.045782 
L 120.325662 -291.693754 
L 120.752022 -289.341726 
L 121.205854 -286.989698 
L 121.691687 -284.63767 
L 122.214221 -282.285642 
L 122.778233 -279.933614 
L 123.388446 -277.581586 
L 124.049332 -275.229558 
L 124.764874 -272.87753 
L 125.538272 -270.525502 
L 126.371615 -268.173474 
L 127.265535 -265.821446 
L 128.218879 -263.469418 
L 129.228419 -261.11739 
L 130.288649 -258.765362 
L 131.391695 -256.413334 
L 132.527371 -254.061306 
L 133.683397 -251.709278 
L 134.845796 -249.35725 
L 135.999443 -247.005222 
L 137.128771 -244.653194 
L 138.218555 -242.301166 
L 139.254762 -239.949138 
L 140.225367 -237.59711 
L 141.121092 -235.245082 
L 141.935996 -232.893054 
L 142.667852 -230.541026 
L 143.318271 -228.188998 
L 143.892561 -225.83697 
L 144.399286 -223.484942 
L 144.849586 -221.132914 
L 145.256269 -218.780886 
L 145.632749 -216.428858 
L 145.991914 -214.07683 
L 146.345006 -211.724802 
L 146.700597 -209.372774 
L 147.063758 -207.020746 
L 147.435477 -204.668718 
L 147.812394 -202.31669 
L 148.186869 -199.964662 
L 148.547382 -197.612634 
L 148.879254 -195.260606 
L 149.165623 -192.908578 
L 149.388606 -190.55655 
L 149.530565 -188.204522 
L 149.575366 -185.852494 
L 149.509556 -183.500466 
L 149.323338 -181.148438 
L 149.011306 -178.79641 
L 148.572863 -176.444382 
L 148.012299 -174.092354 
L 147.338539 -171.740327 
L 146.564586 -169.388299 
L 145.706694 -167.036271 
L 144.783369 -164.684243 
L 143.814249 -162.332215 
L 142.818974 -159.980187 
L 141.816111 -157.628159 
L 140.822215 -155.276131 
L 139.851087 -152.924103 
L 138.913258 -150.572075 
L 138.015716 -148.220047 
L 137.161889 -145.868019 
L 136.351836 -143.515991 
L 135.582625 -141.163963 
L 134.848853 -138.811935 
L 134.143244 -136.459907 
L 133.457286 -134.107879 
L 132.781858 -131.755851 
L 132.107807 -129.403823 
L 131.426455 -127.051795 
L 130.730017 -124.699767 
L 130.011922 -122.347739 
L 129.267043 -119.995711 
L 128.491847 -117.643683 
L 127.68446 -115.291655 
L 126.844682 -112.939627 
L 125.973943 -110.587599 
L 125.075211 -108.235571 
L 124.152871 -105.883543 
L 123.212555 -103.531515 
L 122.260949 -101.179487 
L 121.305565 -98.827459 
L 120.354484 -96.475431 
z
" style="stroke: #4c4c4c; stroke-width: 1.25"/>
    </defs>
    <g clip-path="url(#p43e047b462)">
     <use xlink:href="#m3439f7d64a" x="0" y="345.6" style="fill: #df2020; stroke: #4c4c4c; stroke-width: 1.25"/>
    </g>
   </g>
   <g id="FillBetweenPolyCollection_2">
    <defs>
     <path id="mc9bb7025a8" d="M 222.533849 -63.855048 
L 195.929552 -63.855048 
L 194.230013 -66.097291 
L 192.46978 -68.339535 
L 190.671383 -70.581778 
L 188.859143 -72.824022 
L 187.058123 -75.066266 
L 185.292947 -77.308509 
L 183.586572 -79.550753 
L 181.959121 -81.792996 
L 180.42689 -84.03524 
L 179.001626 -86.277483 
L 177.690178 -88.519727 
L 176.494572 -90.76197 
L 175.412517 -93.004214 
L 174.438321 -95.246457 
L 173.564125 -97.488701 
L 172.781325 -99.730945 
L 172.082043 -101.973188 
L 171.46045 -104.215432 
L 170.913811 -106.457675 
L 170.4431 -108.699919 
L 170.053113 -110.942162 
L 169.752055 -113.184406 
L 169.550637 -115.426649 
L 169.460811 -117.668893 
L 169.494277 -119.911137 
L 169.66097 -122.15338 
L 169.967703 -124.395624 
L 170.417156 -126.637867 
L 171.007319 -128.880111 
L 171.731458 -131.122354 
L 172.578593 -133.364598 
L 173.534402 -135.606841 
L 174.582417 -137.849085 
L 175.705338 -140.091329 
L 176.88628 -142.333572 
L 178.1098 -144.575816 
L 179.362589 -146.818059 
L 180.633765 -149.060303 
L 181.914788 -151.302546 
L 183.199059 -153.54479 
L 184.481316 -155.787033 
L 185.756965 -158.029277 
L 187.021462 -160.271521 
L 188.269872 -162.513764 
L 189.496637 -164.756008 
L 190.695602 -166.998251 
L 191.860233 -169.240495 
L 192.983989 -171.482738 
L 194.060753 -173.724982 
L 195.085233 -175.967225 
L 196.05328 -178.209469 
L 196.962065 -180.451713 
L 197.810112 -182.693956 
L 198.597199 -184.9362 
L 199.324167 -187.178443 
L 199.992672 -189.420687 
L 200.604941 -191.66293 
L 201.163551 -193.905174 
L 201.671253 -196.147417 
L 202.130862 -198.389661 
L 202.545179 -200.631905 
L 202.916956 -202.874148 
L 203.248874 -205.116392 
L 203.543533 -207.358635 
L 203.803449 -209.600879 
L 204.031051 -211.843122 
L 204.228712 -214.085366 
L 204.398799 -216.327609 
L 204.543748 -218.569853 
L 204.666184 -220.812097 
L 204.769037 -223.05434 
L 204.855662 -225.296584 
L 204.92991 -227.538827 
L 204.996147 -229.781071 
L 205.059172 -232.023314 
L 205.124043 -234.265558 
L 205.195808 -236.507801 
L 205.279165 -238.750045 
L 205.378083 -240.992289 
L 205.495438 -243.234532 
L 205.63271 -245.476776 
L 205.789788 -247.719019 
L 205.964918 -249.961263 
L 206.15481 -252.203506 
L 206.354899 -254.44575 
L 206.559738 -256.687993 
L 206.763484 -258.930237 
L 206.960412 -261.172481 
L 207.145419 -263.414724 
L 207.314442 -265.656968 
L 207.464771 -267.899211 
L 207.595204 -270.141455 
L 207.706051 -272.383698 
L 207.798991 -274.625942 
L 207.8768 -276.868185 
L 207.942999 -279.110429 
L 208.001458 -281.352673 
L 208.055994 -283.594916 
L 208.110029 -285.83716 
L 210.353373 -285.83716 
L 210.353373 -285.83716 
L 210.407407 -283.594916 
L 210.461943 -281.352673 
L 210.520402 -279.110429 
L 210.586602 -276.868185 
L 210.664411 -274.625942 
L 210.75735 -272.383698 
L 210.868197 -270.141455 
L 210.99863 -267.899211 
L 211.148959 -265.656968 
L 211.317983 -263.414724 
L 211.502989 -261.172481 
L 211.699917 -258.930237 
L 211.903663 -256.687993 
L 212.108502 -254.44575 
L 212.308591 -252.203506 
L 212.498483 -249.961263 
L 212.673613 -247.719019 
L 212.830691 -245.476776 
L 212.967963 -243.234532 
L 213.085318 -240.992289 
L 213.184236 -238.750045 
L 213.267593 -236.507801 
L 213.339358 -234.265558 
L 213.404229 -232.023314 
L 213.467254 -229.781071 
L 213.533491 -227.538827 
L 213.607739 -225.296584 
L 213.694364 -223.05434 
L 213.797217 -220.812097 
L 213.919653 -218.569853 
L 214.064603 -216.327609 
L 214.234689 -214.085366 
L 214.432351 -211.843122 
L 214.659953 -209.600879 
L 214.919868 -207.358635 
L 215.214527 -205.116392 
L 215.546445 -202.874148 
L 215.918222 -200.631905 
L 216.332539 -198.389661 
L 216.792148 -196.147417 
L 217.299851 -193.905174 
L 217.85846 -191.66293 
L 218.47073 -189.420687 
L 219.139235 -187.178443 
L 219.866202 -184.9362 
L 220.653289 -182.693956 
L 221.501336 -180.451713 
L 222.410121 -178.209469 
L 223.378168 -175.967225 
L 224.402649 -173.724982 
L 225.479412 -171.482738 
L 226.603168 -169.240495 
L 227.767799 -166.998251 
L 228.966764 -164.756008 
L 230.19353 -162.513764 
L 231.441939 -160.271521 
L 232.706436 -158.029277 
L 233.982085 -155.787033 
L 235.264342 -153.54479 
L 236.548613 -151.302546 
L 237.829636 -149.060303 
L 239.100812 -146.818059 
L 240.353601 -144.575816 
L 241.577121 -142.333572 
L 242.758063 -140.091329 
L 243.880984 -137.849085 
L 244.929 -135.606841 
L 245.884809 -133.364598 
L 246.731943 -131.122354 
L 247.456082 -128.880111 
L 248.046245 -126.637867 
L 248.495699 -124.395624 
L 248.802431 -122.15338 
L 248.969124 -119.911137 
L 249.00259 -117.668893 
L 248.912764 -115.426649 
L 248.711346 -113.184406 
L 248.410288 -110.942162 
L 248.020302 -108.699919 
L 247.549591 -106.457675 
L 247.002951 -104.215432 
L 246.381358 -101.973188 
L 245.682076 -99.730945 
L 244.899277 -97.488701 
L 244.02508 -95.246457 
L 243.050884 -93.004214 
L 241.968829 -90.76197 
L 240.773223 -88.519727 
L 239.461775 -86.277483 
L 238.036511 -84.03524 
L 236.50428 -81.792996 
L 234.876829 -79.550753 
L 233.170454 -77.308509 
L 231.405278 -75.066266 
L 229.604258 -72.824022 
L 227.792018 -70.581778 
L 225.993621 -68.339535 
L 224.233388 -66.097291 
L 222.533849 -63.855048 
z
" style="stroke: #4d4d4d; stroke-width: 1.25"/>
    </defs>
    <g clip-path="url(#p43e047b462)">
     <use xlink:href="#mc9bb7025a8" x="0" y="345.6" style="fill: #808080; stroke: #4d4d4d; stroke-width: 1.25"/>
    </g>
   </g>
   <g id="FillBetweenPolyCollection_3">
    <defs>
     <path id="m088ff9969e" d="M 311.564355 -97.785215 
L 305.753494 -97.785215 
L 305.436981 -100.004203 
L 305.091115 -102.223191 
L 304.710665 -104.442179 
L 304.289851 -106.661167 
L 303.822629 -108.880155 
L 303.303033 -111.099143 
L 302.725562 -113.318131 
L 302.085562 -115.53712 
L 301.379589 -117.756108 
L 300.605704 -119.975096 
L 299.763681 -122.194084 
L 298.855114 -124.413072 
L 297.883396 -126.63206 
L 296.853589 -128.851048 
L 295.772186 -131.070036 
L 294.646786 -133.289025 
L 293.485722 -135.508013 
L 292.29766 -137.727001 
L 291.091203 -139.945989 
L 289.874537 -142.164977 
L 288.655141 -144.383965 
L 287.439564 -146.602953 
L 286.233304 -148.821942 
L 285.040763 -151.04093 
L 283.865299 -153.259918 
L 282.70935 -155.478906 
L 281.574632 -157.697894 
L 280.462381 -159.916882 
L 279.373647 -162.13587 
L 278.309609 -164.354858 
L 277.271893 -166.573847 
L 276.262894 -168.792835 
L 275.286054 -171.011823 
L 274.346097 -173.230811 
L 273.449184 -175.449799 
L 272.602964 -177.668787 
L 271.816506 -179.887775 
L 271.100093 -182.106763 
L 270.464876 -184.325752 
L 269.922386 -186.54474 
L 269.483936 -188.763728 
L 269.159932 -190.982716 
L 268.959153 -193.201704 
L 268.888035 -195.420692 
L 268.950042 -197.63968 
L 269.145155 -199.858669 
L 269.469552 -202.077657 
L 269.91551 -204.296645 
L 270.471544 -206.515633 
L 271.122809 -208.734621 
L 271.851721 -210.953609 
L 272.638783 -213.172597 
L 273.463544 -215.391585 
L 274.30563 -217.610574 
L 275.145776 -219.829562 
L 275.966765 -222.04855 
L 276.754229 -224.267538 
L 277.497225 -226.486526 
L 278.18858 -228.705514 
L 278.824966 -230.924502 
L 279.406728 -233.14349 
L 279.937487 -235.362479 
L 280.423585 -237.581467 
L 280.873421 -239.800455 
L 281.296745 -242.019443 
L 281.703994 -244.238431 
L 282.105699 -246.457419 
L 282.51201 -248.676407 
L 282.932359 -250.895396 
L 283.375234 -253.114384 
L 283.84807 -255.333372 
L 284.357198 -257.55236 
L 284.907821 -259.771348 
L 285.503987 -261.990336 
L 286.14853 -264.209324 
L 286.842974 -266.428312 
L 287.587405 -268.647301 
L 288.380341 -270.866289 
L 289.21862 -273.085277 
L 290.097367 -275.304265 
L 291.010046 -277.523253 
L 291.948639 -279.742241 
L 292.903943 -281.961229 
L 293.865982 -284.180217 
L 294.8245 -286.399206 
L 295.769489 -288.618194 
L 296.691708 -290.837182 
L 297.583131 -293.05617 
L 298.437296 -295.275158 
L 299.249515 -297.494146 
L 300.016924 -299.713134 
L 300.738398 -301.932123 
L 301.414335 -304.151111 
L 302.046338 -306.370099 
L 302.636854 -308.589087 
L 303.18879 -310.808075 
L 303.705165 -313.027063 
L 304.188814 -315.246051 
L 304.642167 -317.465039 
L 312.675682 -317.465039 
L 312.675682 -317.465039 
L 313.129035 -315.246051 
L 313.612683 -313.027063 
L 314.129059 -310.808075 
L 314.680995 -308.589087 
L 315.271511 -306.370099 
L 315.903514 -304.151111 
L 316.579451 -301.932123 
L 317.300925 -299.713134 
L 318.068334 -297.494146 
L 318.880552 -295.275158 
L 319.734718 -293.05617 
L 320.626141 -290.837182 
L 321.548359 -288.618194 
L 322.493349 -286.399206 
L 323.451867 -284.180217 
L 324.413906 -281.961229 
L 325.369209 -279.742241 
L 326.307803 -277.523253 
L 327.220482 -275.304265 
L 328.099229 -273.085277 
L 328.937508 -270.866289 
L 329.730443 -268.647301 
L 330.474875 -266.428312 
L 331.169319 -264.209324 
L 331.813862 -261.990336 
L 332.410027 -259.771348 
L 332.96065 -257.55236 
L 333.469778 -255.333372 
L 333.942615 -253.114384 
L 334.38549 -250.895396 
L 334.805838 -248.676407 
L 335.21215 -246.457419 
L 335.613855 -244.238431 
L 336.021104 -242.019443 
L 336.444428 -239.800455 
L 336.894263 -237.581467 
L 337.380362 -235.362479 
L 337.911121 -233.14349 
L 338.492882 -230.924502 
L 339.129269 -228.705514 
L 339.820624 -226.486526 
L 340.56362 -224.267538 
L 341.351083 -222.04855 
L 342.172073 -219.829562 
L 343.012219 -217.610574 
L 343.854305 -215.391585 
L 344.679066 -213.172597 
L 345.466127 -210.953609 
L 346.19504 -208.734621 
L 346.846305 -206.515633 
L 347.402339 -204.296645 
L 347.848296 -202.077657 
L 348.172694 -199.858669 
L 348.367807 -197.63968 
L 348.429814 -195.420692 
L 348.358696 -193.201704 
L 348.157917 -190.982716 
L 347.833913 -188.763728 
L 347.395463 -186.54474 
L 346.852973 -184.325752 
L 346.217756 -182.106763 
L 345.501343 -179.887775 
L 344.714885 -177.668787 
L 343.868665 -175.449799 
L 342.971752 -173.230811 
L 342.031795 -171.011823 
L 341.054955 -168.792835 
L 340.045955 -166.573847 
L 339.00824 -164.354858 
L 337.944201 -162.13587 
L 336.855468 -159.916882 
L 335.743217 -157.697894 
L 334.608499 -155.478906 
L 333.45255 -153.259918 
L 332.277086 -151.04093 
L 331.084545 -148.821942 
L 329.878285 -146.602953 
L 328.662708 -144.383965 
L 327.443312 -142.164977 
L 326.226646 -139.945989 
L 325.020189 -137.727001 
L 323.832126 -135.508013 
L 322.671063 -133.289025 
L 321.545663 -131.070036 
L 320.464259 -128.851048 
L 319.434453 -126.63206 
L 318.462735 -124.413072 
L 317.554168 -122.194084 
L 316.712145 -119.975096 
L 315.938259 -117.756108 
L 315.232286 -115.53712 
L 314.592287 -113.318131 
L 314.014816 -111.099143 
L 313.49522 -108.880155 
L 313.027998 -106.661167 
L 312.607184 -104.442179 
L 312.226734 -102.223191 
L 311.880868 -100.004203 
L 311.564355 -97.785215 
z
" style="stroke: #4c4c4c; stroke-width: 1.25"/>
    </defs>
    <g clip-path="url(#p43e047b462)">
     <use xlink:href="#m088ff9969e" x="0" y="345.6" style="fill: #df2020; stroke: #4c4c4c; stroke-width: 1.25"/>
    </g>
   </g>
   <g id="FillBetweenPolyCollection_4">
    <defs>
     <path id="mc6790f6a03" d="M 414.995304 -68.196617 
L 401.176992 -68.196617 
L 400.298493 -69.342929 
L 399.359301 -70.48924 
L 398.36258 -71.635552 
L 397.312902 -72.781863 
L 396.216353 -73.928175 
L 395.080577 -75.074486 
L 393.914754 -76.220798 
L 392.729478 -77.36711 
L 391.536548 -78.513421 
L 390.348645 -79.659733 
L 389.178921 -80.806044 
L 388.040499 -81.952356 
L 386.945913 -83.098667 
L 385.906526 -84.244979 
L 384.931941 -85.39129 
L 384.029467 -86.537602 
L 383.203659 -87.683914 
L 382.455982 -88.830225 
L 381.784613 -89.976537 
L 381.184423 -91.122848 
L 380.647132 -92.26916 
L 380.161653 -93.415471 
L 379.714601 -94.561783 
L 379.290971 -95.708094 
L 378.874926 -96.854406 
L 378.450678 -98.000718 
L 378.003407 -99.147029 
L 377.520179 -100.293341 
L 376.990793 -101.439652 
L 376.408527 -102.585964 
L 375.770733 -103.732275 
L 375.079232 -104.878587 
L 374.340494 -106.024898 
L 373.565575 -107.17121 
L 372.769813 -108.317522 
L 371.972287 -109.463833 
L 371.195068 -110.610145 
L 370.462287 -111.756456 
L 369.799068 -112.902768 
L 369.230394 -114.049079 
L 368.779939 -115.195391 
L 368.468955 -116.341702 
L 368.315259 -117.488014 
L 368.332383 -118.634326 
L 368.528946 -119.780637 
L 368.908269 -120.926949 
L 369.468277 -122.07326 
L 370.201682 -123.219572 
L 371.096439 -124.365883 
L 372.136449 -125.512195 
L 373.302443 -126.658507 
L 374.573008 -127.804818 
L 375.925648 -128.95113 
L 377.337832 -130.097441 
L 378.787924 -131.243753 
L 380.255965 -132.390064 
L 381.724223 -133.536376 
L 383.177522 -134.682687 
L 384.603329 -135.828999 
L 385.991631 -136.975311 
L 387.334647 -138.121622 
L 388.626435 -139.267934 
L 389.862451 -140.414245 
L 391.039133 -141.560557 
L 392.153549 -142.706868 
L 393.203156 -143.85318 
L 394.185683 -144.999491 
L 395.099133 -146.145803 
L 395.941882 -147.292115 
L 396.712857 -148.438426 
L 397.411727 -149.584738 
L 398.039097 -150.731049 
L 398.596635 -151.877361 
L 399.087145 -153.023672 
L 399.514539 -154.169984 
L 399.883729 -155.316295 
L 400.200446 -156.462607 
L 400.471004 -157.608919 
L 400.702038 -158.75523 
L 400.90024 -159.901542 
L 401.072129 -161.047853 
L 401.223857 -162.194165 
L 401.361073 -163.340476 
L 401.488842 -164.486788 
L 401.61163 -165.633099 
L 401.733318 -166.779411 
L 401.857255 -167.925723 
L 401.986324 -169.072034 
L 402.123004 -170.218346 
L 402.269424 -171.364657 
L 402.427388 -172.510969 
L 402.598383 -173.65728 
L 402.783552 -174.803592 
L 402.983654 -175.949904 
L 403.199008 -177.096215 
L 403.429436 -178.242527 
L 403.674218 -179.388838 
L 403.932059 -180.53515 
L 404.201094 -181.681461 
L 411.971203 -181.681461 
L 411.971203 -181.681461 
L 412.240237 -180.53515 
L 412.498079 -179.388838 
L 412.74286 -178.242527 
L 412.973289 -177.096215 
L 413.188642 -175.949904 
L 413.388744 -174.803592 
L 413.573913 -173.65728 
L 413.744908 -172.510969 
L 413.902872 -171.364657 
L 414.049292 -170.218346 
L 414.185972 -169.072034 
L 414.315041 -167.925723 
L 414.438978 -166.779411 
L 414.560666 -165.633099 
L 414.683454 -164.486788 
L 414.811224 -163.340476 
L 414.948439 -162.194165 
L 415.100167 -161.047853 
L 415.272057 -159.901542 
L 415.470259 -158.75523 
L 415.701292 -157.608919 
L 415.97185 -156.462607 
L 416.288567 -155.316295 
L 416.657757 -154.169984 
L 417.085151 -153.023672 
L 417.575661 -151.877361 
L 418.133199 -150.731049 
L 418.760569 -149.584738 
L 419.45944 -148.438426 
L 420.230414 -147.292115 
L 421.073164 -146.145803 
L 421.986613 -144.999491 
L 422.96914 -143.85318 
L 424.018748 -142.706868 
L 425.133163 -141.560557 
L 426.309845 -140.414245 
L 427.545862 -139.267934 
L 428.83765 -138.121622 
L 430.180666 -136.975311 
L 431.568967 -135.828999 
L 432.994774 -134.682687 
L 434.448074 -133.536376 
L 435.916331 -132.390064 
L 437.384372 -131.243753 
L 438.834465 -130.097441 
L 440.246648 -128.95113 
L 441.599289 -127.804818 
L 442.869853 -126.658507 
L 444.035848 -125.512195 
L 445.075857 -124.365883 
L 445.970614 -123.219572 
L 446.704019 -122.07326 
L 447.264027 -120.926949 
L 447.64335 -119.780637 
L 447.839913 -118.634326 
L 447.857038 -117.488014 
L 447.703341 -116.341702 
L 447.392357 -115.195391 
L 446.941903 -114.049079 
L 446.373228 -112.902768 
L 445.71001 -111.756456 
L 444.977228 -110.610145 
L 444.200009 -109.463833 
L 443.402484 -108.317522 
L 442.606721 -107.17121 
L 441.831802 -106.024898 
L 441.093064 -104.878587 
L 440.401564 -103.732275 
L 439.76377 -102.585964 
L 439.181504 -101.439652 
L 438.652117 -100.293341 
L 438.168889 -99.147029 
L 437.721619 -98.000718 
L 437.29737 -96.854406 
L 436.881325 -95.708094 
L 436.457695 -94.561783 
L 436.010644 -93.415471 
L 435.525164 -92.26916 
L 434.987873 -91.122848 
L 434.387684 -89.976537 
L 433.716315 -88.830225 
L 432.968637 -87.683914 
L 432.142829 -86.537602 
L 431.240355 -85.39129 
L 430.26577 -84.244979 
L 429.226383 -83.098667 
L 428.131798 -81.952356 
L 426.993375 -80.806044 
L 425.823651 -79.659733 
L 424.635748 -78.513421 
L 423.442818 -77.36711 
L 422.257542 -76.220798 
L 421.091719 -75.074486 
L 419.955944 -73.928175 
L 418.859394 -72.781863 
L 417.809717 -71.635552 
L 416.812995 -70.48924 
L 415.873803 -69.342929 
L 414.995304 -68.196617 
z
" style="stroke: #4d4d4d; stroke-width: 1.25"/>
    </defs>
    <g clip-path="url(#p43e047b462)">
     <use xlink:href="#mc6790f6a03" x="0" y="345.6" style="fill: #808080; stroke: #4d4d4d; stroke-width: 1.25"/>
    </g>
   </g>
   <g id="matplotlib.axis_1">
    <g id="xtick_1">
     <g id="line2d_1">
      <defs>
       <path id="m5e6231b02c" d="M 0 0 
L 0 3.5 
" style="stroke: #000000; stroke-width: 0.8"/>
      </defs>
      <g>
       <use xlink:href="#m5e6231b02c" x="109.804477" y="295.01851" style="stroke: #000000; stroke-width: 0.8"/>
      </g>
     </g>
     <g id="text_1">
      <!-- Time -->
      <g transform="translate(87.959164 316.334135) scale(0.2 -0.2)">
       <defs>
        <path id="ArialMT-54" d="M 1659 0 
L 1659 4041 
L 150 4041 
L 150 4581 
L 3781 4581 
L 3781 4041 
L 2266 4041 
L 2266 0 
L 1659 0 
z
" transform="scale(0.015625)"/>
        <path id="ArialMT-69" d="M 425 3934 
L 425 4581 
L 988 4581 
L 988 3934 
L 425 3934 
z
M 425 0 
L 425 3319 
L 988 3319 
L 988 0 
L 425 0 
z
" transform="scale(0.015625)"/>
        <path id="ArialMT-6d" d="M 422 0 
L 422 3319 
L 925 3319 
L 925 2853 
Q 1081 3097 1340 3245 
Q 1600 3394 1931 3394 
Q 2300 3394 2536 3241 
Q 2772 3088 2869 2813 
Q 3263 3394 3894 3394 
Q 4388 3394 4653 3120 
Q 4919 2847 4919 2278 
L 4919 0 
L 4359 0 
L 4359 2091 
Q 4359 2428 4304 2576 
Q 4250 2725 4106 2815 
Q 3963 2906 3769 2906 
Q 3419 2906 3187 2673 
Q 2956 2441 2956 1928 
L 2956 0 
L 2394 0 
L 2394 2156 
Q 2394 2531 2256 2718 
Q 2119 2906 1806 2906 
Q 1569 2906 1367 2781 
Q 1166 2656 1075 2415 
Q 984 2175 984 1722 
L 984 0 
L 422 0 
z
" transform="scale(0.015625)"/>
        <path id="ArialMT-65" d="M 2694 1069 
L 3275 997 
Q 3138 488 2766 206 
Q 2394 -75 1816 -75 
Q 1088 -75 661 373 
Q 234 822 234 1631 
Q 234 2469 665 2931 
Q 1097 3394 1784 3394 
Q 2450 3394 2872 2941 
Q 3294 2488 3294 1666 
Q 3294 1616 3291 1516 
L 816 1516 
Q 847 969 1125 678 
Q 1403 388 1819 388 
Q 2128 388 2347 550 
Q 2566 713 2694 1069 
z
M 847 1978 
L 2700 1978 
Q 2663 2397 2488 2606 
Q 2219 2931 1791 2931 
Q 1403 2931 1139 2672 
Q 875 2413 847 1978 
z
" transform="scale(0.015625)"/>
       </defs>
       <use xlink:href="#ArialMT-54"/>
       <use xlink:href="#ArialMT-69" transform="translate(57.333984 0)"/>
       <use xlink:href="#ArialMT-6d" transform="translate(79.550781 0)"/>
       <use xlink:href="#ArialMT-65" transform="translate(162.851562 0)"/>
      </g>
     </g>
    </g>
    <g id="xtick_2">
     <g id="line2d_2">
      <g>
       <use xlink:href="#m5e6231b02c" x="209.231701" y="295.01851" style="stroke: #000000; stroke-width: 0.8"/>
      </g>
     </g>
     <g id="text_2">
      <!-- Random -->
      <g transform="translate(171.436388 316.334135) scale(0.2 -0.2)">
       <defs>
        <path id="ArialMT-52" d="M 503 0 
L 503 4581 
L 2534 4581 
Q 3147 4581 3465 4457 
Q 3784 4334 3975 4021 
Q 4166 3709 4166 3331 
Q 4166 2844 3850 2509 
Q 3534 2175 2875 2084 
Q 3116 1969 3241 1856 
Q 3506 1613 3744 1247 
L 4541 0 
L 3778 0 
L 3172 953 
Q 2906 1366 2734 1584 
Q 2563 1803 2427 1890 
Q 2291 1978 2150 2013 
Q 2047 2034 1813 2034 
L 1109 2034 
L 1109 0 
L 503 0 
z
M 1109 2559 
L 2413 2559 
Q 2828 2559 3062 2645 
Q 3297 2731 3419 2920 
Q 3541 3109 3541 3331 
Q 3541 3656 3305 3865 
Q 3069 4075 2559 4075 
L 1109 4075 
L 1109 2559 
z
" transform="scale(0.015625)"/>
        <path id="ArialMT-61" d="M 2588 409 
Q 2275 144 1986 34 
Q 1697 -75 1366 -75 
Q 819 -75 525 192 
Q 231 459 231 875 
Q 231 1119 342 1320 
Q 453 1522 633 1644 
Q 813 1766 1038 1828 
Q 1203 1872 1538 1913 
Q 2219 1994 2541 2106 
Q 2544 2222 2544 2253 
Q 2544 2597 2384 2738 
Q 2169 2928 1744 2928 
Q 1347 2928 1158 2789 
Q 969 2650 878 2297 
L 328 2372 
Q 403 2725 575 2942 
Q 747 3159 1072 3276 
Q 1397 3394 1825 3394 
Q 2250 3394 2515 3294 
Q 2781 3194 2906 3042 
Q 3031 2891 3081 2659 
Q 3109 2516 3109 2141 
L 3109 1391 
Q 3109 606 3145 398 
Q 3181 191 3288 0 
L 2700 0 
Q 2613 175 2588 409 
z
M 2541 1666 
Q 2234 1541 1622 1453 
Q 1275 1403 1131 1340 
Q 988 1278 909 1158 
Q 831 1038 831 891 
Q 831 666 1001 516 
Q 1172 366 1500 366 
Q 1825 366 2078 508 
Q 2331 650 2450 897 
Q 2541 1088 2541 1459 
L 2541 1666 
z
" transform="scale(0.015625)"/>
        <path id="ArialMT-6e" d="M 422 0 
L 422 3319 
L 928 3319 
L 928 2847 
Q 1294 3394 1984 3394 
Q 2284 3394 2536 3286 
Q 2788 3178 2913 3003 
Q 3038 2828 3088 2588 
Q 3119 2431 3119 2041 
L 3119 0 
L 2556 0 
L 2556 2019 
Q 2556 2363 2490 2533 
Q 2425 2703 2258 2804 
Q 2091 2906 1866 2906 
Q 1506 2906 1245 2678 
Q 984 2450 984 1813 
L 984 0 
L 422 0 
z
" transform="scale(0.015625)"/>
        <path id="ArialMT-64" d="M 2575 0 
L 2575 419 
Q 2259 -75 1647 -75 
Q 1250 -75 917 144 
Q 584 363 401 755 
Q 219 1147 219 1656 
Q 219 2153 384 2558 
Q 550 2963 881 3178 
Q 1213 3394 1622 3394 
Q 1922 3394 2156 3267 
Q 2391 3141 2538 2938 
L 2538 4581 
L 3097 4581 
L 3097 0 
L 2575 0 
z
M 797 1656 
Q 797 1019 1065 703 
Q 1334 388 1700 388 
Q 2069 388 2326 689 
Q 2584 991 2584 1609 
Q 2584 2291 2321 2609 
Q 2059 2928 1675 2928 
Q 1300 2928 1048 2622 
Q 797 2316 797 1656 
z
" transform="scale(0.015625)"/>
        <path id="ArialMT-6f" d="M 213 1659 
Q 213 2581 725 3025 
Q 1153 3394 1769 3394 
Q 2453 3394 2887 2945 
Q 3322 2497 3322 1706 
Q 3322 1066 3130 698 
Q 2938 331 2570 128 
Q 2203 -75 1769 -75 
Q 1072 -75 642 372 
Q 213 819 213 1659 
z
M 791 1659 
Q 791 1022 1069 705 
Q 1347 388 1769 388 
Q 2188 388 2466 706 
Q 2744 1025 2744 1678 
Q 2744 2294 2464 2611 
Q 2184 2928 1769 2928 
Q 1347 2928 1069 2612 
Q 791 2297 791 1659 
z
" transform="scale(0.015625)"/>
       </defs>
       <use xlink:href="#ArialMT-52"/>
       <use xlink:href="#ArialMT-61" transform="translate(72.216797 0)"/>
       <use xlink:href="#ArialMT-6e" transform="translate(127.832031 0)"/>
       <use xlink:href="#ArialMT-64" transform="translate(183.447266 0)"/>
       <use xlink:href="#ArialMT-6f" transform="translate(239.0625 0)"/>
       <use xlink:href="#ArialMT-6d" transform="translate(294.677734 0)"/>
      </g>
     </g>
    </g>
    <g id="xtick_3">
     <g id="line2d_3">
      <g>
       <use xlink:href="#m5e6231b02c" x="308.658924" y="295.01851" style="stroke: #000000; stroke-width: 0.8"/>
      </g>
     </g>
     <g id="text_3">
      <!-- Trait 1 -->
      <g transform="translate(280.696424 316.334135) scale(0.2 -0.2)">
       <defs>
        <path id="ArialMT-72" d="M 416 0 
L 416 3319 
L 922 3319 
L 922 2816 
Q 1116 3169 1280 3281 
Q 1444 3394 1641 3394 
Q 1925 3394 2219 3213 
L 2025 2691 
Q 1819 2813 1613 2813 
Q 1428 2813 1281 2702 
Q 1134 2591 1072 2394 
Q 978 2094 978 1738 
L 978 0 
L 416 0 
z
" transform="scale(0.015625)"/>
        <path id="ArialMT-74" d="M 1650 503 
L 1731 6 
Q 1494 -44 1306 -44 
Q 1000 -44 831 53 
Q 663 150 594 308 
Q 525 466 525 972 
L 525 2881 
L 113 2881 
L 113 3319 
L 525 3319 
L 525 4141 
L 1084 4478 
L 1084 3319 
L 1650 3319 
L 1650 2881 
L 1084 2881 
L 1084 941 
Q 1084 700 1114 631 
Q 1144 563 1211 522 
Q 1278 481 1403 481 
Q 1497 481 1650 503 
z
" transform="scale(0.015625)"/>
        <path id="ArialMT-20" transform="scale(0.015625)"/>
        <path id="ArialMT-31" d="M 2384 0 
L 1822 0 
L 1822 3584 
Q 1619 3391 1289 3197 
Q 959 3003 697 2906 
L 697 3450 
Q 1169 3672 1522 3987 
Q 1875 4303 2022 4600 
L 2384 4600 
L 2384 0 
z
" transform="scale(0.015625)"/>
       </defs>
       <use xlink:href="#ArialMT-54"/>
       <use xlink:href="#ArialMT-72" transform="translate(57.333984 0)"/>
       <use xlink:href="#ArialMT-61" transform="translate(90.634766 0)"/>
       <use xlink:href="#ArialMT-69" transform="translate(146.25 0)"/>
       <use xlink:href="#ArialMT-74" transform="translate(168.466797 0)"/>
       <use xlink:href="#ArialMT-20" transform="translate(196.25 0)"/>
       <use xlink:href="#ArialMT-31" transform="translate(224.033203 0)"/>
      </g>
     </g>
    </g>
    <g id="xtick_4">
     <g id="line2d_4">
      <g>
       <use xlink:href="#m5e6231b02c" x="408.086148" y="295.01851" style="stroke: #000000; stroke-width: 0.8"/>
      </g>
     </g>
     <g id="text_4">
      <!-- Trait 2 -->
      <g transform="translate(380.123648 316.334135) scale(0.2 -0.2)">
       <defs>
        <path id="ArialMT-32" d="M 3222 541 
L 3222 0 
L 194 0 
Q 188 203 259 391 
Q 375 700 629 1000 
Q 884 1300 1366 1694 
Q 2113 2306 2375 2664 
Q 2638 3022 2638 3341 
Q 2638 3675 2398 3904 
Q 2159 4134 1775 4134 
Q 1369 4134 1125 3890 
Q 881 3647 878 3216 
L 300 3275 
Q 359 3922 746 4261 
Q 1134 4600 1788 4600 
Q 2447 4600 2831 4234 
Q 3216 3869 3216 3328 
Q 3216 3053 3103 2787 
Q 2991 2522 2730 2228 
Q 2469 1934 1863 1422 
Q 1356 997 1212 845 
Q 1069 694 975 541 
L 3222 541 
z
" transform="scale(0.015625)"/>
       </defs>
       <use xlink:href="#ArialMT-54"/>
       <use xlink:href="#ArialMT-72" transform="translate(57.333984 0)"/>
       <use xlink:href="#ArialMT-61" transform="translate(90.634766 0)"/>
       <use xlink:href="#ArialMT-69" transform="translate(146.25 0)"/>
       <use xlink:href="#ArialMT-74" transform="translate(168.466797 0)"/>
       <use xlink:href="#ArialMT-20" transform="translate(196.25 0)"/>
       <use xlink:href="#ArialMT-32" transform="translate(224.033203 0)"/>
      </g>
     </g>
    </g>
    <g id="text_5">
     <!-- Predictor -->
     <g transform="translate(218.932813 338.62476) scale(0.2 -0.2)">
      <defs>
       <path id="ArialMT-50" d="M 494 0 
L 494 4581 
L 2222 4581 
Q 2678 4581 2919 4538 
Q 3256 4481 3484 4323 
Q 3713 4166 3852 3881 
Q 3991 3597 3991 3256 
Q 3991 2672 3619 2267 
Q 3247 1863 2275 1863 
L 1100 1863 
L 1100 0 
L 494 0 
z
M 1100 2403 
L 2284 2403 
Q 2872 2403 3119 2622 
Q 3366 2841 3366 3238 
Q 3366 3525 3220 3729 
Q 3075 3934 2838 4000 
Q 2684 4041 2272 4041 
L 1100 4041 
L 1100 2403 
z
" transform="scale(0.015625)"/>
       <path id="ArialMT-63" d="M 2588 1216 
L 3141 1144 
Q 3050 572 2676 248 
Q 2303 -75 1759 -75 
Q 1078 -75 664 370 
Q 250 816 250 1647 
Q 250 2184 428 2587 
Q 606 2991 970 3192 
Q 1334 3394 1763 3394 
Q 2303 3394 2647 3120 
Q 2991 2847 3088 2344 
L 2541 2259 
Q 2463 2594 2264 2762 
Q 2066 2931 1784 2931 
Q 1359 2931 1093 2626 
Q 828 2322 828 1663 
Q 828 994 1084 691 
Q 1341 388 1753 388 
Q 2084 388 2306 591 
Q 2528 794 2588 1216 
z
" transform="scale(0.015625)"/>
      </defs>
      <use xlink:href="#ArialMT-50"/>
      <use xlink:href="#ArialMT-72" transform="translate(66.699219 0)"/>
      <use xlink:href="#ArialMT-65" transform="translate(100 0)"/>
      <use xlink:href="#ArialMT-64" transform="translate(155.615234 0)"/>
      <use xlink:href="#ArialMT-69" transform="translate(211.230469 0)"/>
      <use xlink:href="#ArialMT-63" transform="translate(233.447266 0)"/>
      <use xlink:href="#ArialMT-74" transform="translate(283.447266 0)"/>
      <use xlink:href="#ArialMT-6f" transform="translate(311.230469 0)"/>
      <use xlink:href="#ArialMT-72" transform="translate(366.845703 0)"/>
     </g>
    </g>
   </g>
   <g id="matplotlib.axis_2">
    <g id="ytick_1">
     <g id="line2d_5">
      <defs>
       <path id="m8a67b107d9" d="M 0 0 
L -3.5 0 
" style="stroke: #000000; stroke-width: 0.8"/>
      </defs>
      <g>
       <use xlink:href="#m8a67b107d9" x="60.090865" y="271.250368" style="stroke: #000000; stroke-width: 0.8"/>
      </g>
     </g>
     <g id="text_6">
      <!-- 0.1 -->
      <g transform="translate(25.290865 278.40818) scale(0.2 -0.2)">
       <defs>
        <path id="ArialMT-30" d="M 266 2259 
Q 266 3072 433 3567 
Q 600 4063 929 4331 
Q 1259 4600 1759 4600 
Q 2128 4600 2406 4451 
Q 2684 4303 2865 4023 
Q 3047 3744 3150 3342 
Q 3253 2941 3253 2259 
Q 3253 1453 3087 958 
Q 2922 463 2592 192 
Q 2263 -78 1759 -78 
Q 1097 -78 719 397 
Q 266 969 266 2259 
z
M 844 2259 
Q 844 1131 1108 757 
Q 1372 384 1759 384 
Q 2147 384 2411 759 
Q 2675 1134 2675 2259 
Q 2675 3391 2411 3762 
Q 2147 4134 1753 4134 
Q 1366 4134 1134 3806 
Q 844 3388 844 2259 
z
" transform="scale(0.015625)"/>
        <path id="ArialMT-2e" d="M 581 0 
L 581 641 
L 1222 641 
L 1222 0 
L 581 0 
z
" transform="scale(0.015625)"/>
       </defs>
       <use xlink:href="#ArialMT-30"/>
       <use xlink:href="#ArialMT-2e" transform="translate(55.615234 0)"/>
       <use xlink:href="#ArialMT-31" transform="translate(83.398438 0)"/>
      </g>
     </g>
    </g>
    <g id="ytick_2">
     <g id="line2d_6">
      <g>
       <use xlink:href="#m8a67b107d9" x="60.090865" y="212.449932" style="stroke: #000000; stroke-width: 0.8"/>
      </g>
     </g>
     <g id="text_7">
      <!-- 0.2 -->
      <g transform="translate(25.290865 219.607745) scale(0.2 -0.2)">
       <use xlink:href="#ArialMT-30"/>
       <use xlink:href="#ArialMT-2e" transform="translate(55.615234 0)"/>
       <use xlink:href="#ArialMT-32" transform="translate(83.398438 0)"/>
      </g>
     </g>
    </g>
    <g id="ytick_3">
     <g id="line2d_7">
      <g>
       <use xlink:href="#m8a67b107d9" x="60.090865" y="153.649496" style="stroke: #000000; stroke-width: 0.8"/>
      </g>
     </g>
     <g id="text_8">
      <!-- 0.3 -->
      <g transform="translate(25.290865 160.807309) scale(0.2 -0.2)">
       <defs>
        <path id="ArialMT-33" d="M 269 1209 
L 831 1284 
Q 928 806 1161 595 
Q 1394 384 1728 384 
Q 2125 384 2398 659 
Q 2672 934 2672 1341 
Q 2672 1728 2419 1979 
Q 2166 2231 1775 2231 
Q 1616 2231 1378 2169 
L 1441 2663 
Q 1497 2656 1531 2656 
Q 1891 2656 2178 2843 
Q 2466 3031 2466 3422 
Q 2466 3731 2256 3934 
Q 2047 4138 1716 4138 
Q 1388 4138 1169 3931 
Q 950 3725 888 3313 
L 325 3413 
Q 428 3978 793 4289 
Q 1159 4600 1703 4600 
Q 2078 4600 2393 4439 
Q 2709 4278 2876 4000 
Q 3044 3722 3044 3409 
Q 3044 3113 2884 2869 
Q 2725 2625 2413 2481 
Q 2819 2388 3044 2092 
Q 3269 1797 3269 1353 
Q 3269 753 2831 336 
Q 2394 -81 1725 -81 
Q 1122 -81 723 278 
Q 325 638 269 1209 
z
" transform="scale(0.015625)"/>
       </defs>
       <use xlink:href="#ArialMT-30"/>
       <use xlink:href="#ArialMT-2e" transform="translate(55.615234 0)"/>
       <use xlink:href="#ArialMT-33" transform="translate(83.398438 0)"/>
      </g>
     </g>
    </g>
    <g id="ytick_4">
     <g id="line2d_8">
      <g>
       <use xlink:href="#m8a67b107d9" x="60.090865" y="94.849061" style="stroke: #000000; stroke-width: 0.8"/>
      </g>
     </g>
     <g id="text_9">
      <!-- 0.4 -->
      <g transform="translate(25.290865 102.006873) scale(0.2 -0.2)">
       <defs>
        <path id="ArialMT-34" d="M 2069 0 
L 2069 1097 
L 81 1097 
L 81 1613 
L 2172 4581 
L 2631 4581 
L 2631 1613 
L 3250 1613 
L 3250 1097 
L 2631 1097 
L 2631 0 
L 2069 0 
z
M 2069 1613 
L 2069 3678 
L 634 1613 
L 2069 1613 
z
" transform="scale(0.015625)"/>
       </defs>
       <use xlink:href="#ArialMT-30"/>
       <use xlink:href="#ArialMT-2e" transform="translate(55.615234 0)"/>
       <use xlink:href="#ArialMT-34" transform="translate(83.398438 0)"/>
      </g>
     </g>
    </g>
    <g id="ytick_5">
     <g id="line2d_9">
      <g>
       <use xlink:href="#m8a67b107d9" x="60.090865" y="36.048625" style="stroke: #000000; stroke-width: 0.8"/>
      </g>
     </g>
     <g id="text_10">
      <!-- 0.5 -->
      <g transform="translate(25.290865 43.206438) scale(0.2 -0.2)">
       <defs>
        <path id="ArialMT-35" d="M 266 1200 
L 856 1250 
Q 922 819 1161 601 
Q 1400 384 1738 384 
Q 2144 384 2425 690 
Q 2706 997 2706 1503 
Q 2706 1984 2436 2262 
Q 2166 2541 1728 2541 
Q 1456 2541 1237 2417 
Q 1019 2294 894 2097 
L 366 2166 
L 809 4519 
L 3088 4519 
L 3088 3981 
L 1259 3981 
L 1013 2750 
Q 1425 3038 1878 3038 
Q 2478 3038 2890 2622 
Q 3303 2206 3303 1553 
Q 3303 931 2941 478 
Q 2500 -78 1738 -78 
Q 1113 -78 717 272 
Q 322 622 266 1200 
z
" transform="scale(0.015625)"/>
       </defs>
       <use xlink:href="#ArialMT-30"/>
       <use xlink:href="#ArialMT-2e" transform="translate(55.615234 0)"/>
       <use xlink:href="#ArialMT-35" transform="translate(83.398438 0)"/>
      </g>
     </g>
    </g>
    <g id="text_11">
     <!-- Importance -->
     <g transform="translate(17.315865 199.029688) rotate(-90) scale(0.2 -0.2)">
      <defs>
       <path id="ArialMT-49" d="M 597 0 
L 597 4581 
L 1203 4581 
L 1203 0 
L 597 0 
z
" transform="scale(0.015625)"/>
       <path id="ArialMT-70" d="M 422 -1272 
L 422 3319 
L 934 3319 
L 934 2888 
Q 1116 3141 1344 3267 
Q 1572 3394 1897 3394 
Q 2322 3394 2647 3175 
Q 2972 2956 3137 2557 
Q 3303 2159 3303 1684 
Q 3303 1175 3120 767 
Q 2938 359 2589 142 
Q 2241 -75 1856 -75 
Q 1575 -75 1351 44 
Q 1128 163 984 344 
L 984 -1272 
L 422 -1272 
z
M 931 1641 
Q 931 1000 1190 694 
Q 1450 388 1819 388 
Q 2194 388 2461 705 
Q 2728 1022 2728 1688 
Q 2728 2322 2467 2637 
Q 2206 2953 1844 2953 
Q 1484 2953 1207 2617 
Q 931 2281 931 1641 
z
" transform="scale(0.015625)"/>
      </defs>
      <use xlink:href="#ArialMT-49"/>
      <use xlink:href="#ArialMT-6d" transform="translate(27.783203 0)"/>
      <use xlink:href="#ArialMT-70" transform="translate(111.083984 0)"/>
      <use xlink:href="#ArialMT-6f" transform="translate(166.699219 0)"/>
      <use xlink:href="#ArialMT-72" transform="translate(222.314453 0)"/>
      <use xlink:href="#ArialMT-74" transform="translate(255.615234 0)"/>
      <use xlink:href="#ArialMT-61" transform="translate(283.398438 0)"/>
      <use xlink:href="#ArialMT-6e" transform="translate(339.013672 0)"/>
      <use xlink:href="#ArialMT-63" transform="translate(394.628906 0)"/>
      <use xlink:href="#ArialMT-65" transform="translate(444.628906 0)"/>
     </g>
    </g>
   </g>
   <g id="line2d_10">
    <path d="M 109.804477 249.124569 
L 109.804477 16.273798 
" clip-path="url(#p43e047b462)" style="fill: none; stroke: #4c4c4c; stroke-width: 1.875; stroke-linecap: square"/>
   </g>
   <g id="line2d_11">
    <path d="M 109.804477 182.206596 
L 109.804477 111.830018 
" clip-path="url(#p43e047b462)" style="fill: none; stroke: #4c4c4c; stroke-width: 5.625; stroke-linecap: square"/>
   </g>
   <g id="line2d_12">
    <path d="M 109.804477 154.710596 
" clip-path="url(#p43e047b462)" style="fill: none; stroke: #4c4c4c; stroke-width: 4; stroke-linecap: square"/>
    <defs>
     <path id="m260fe61949" d="M 2.34375 0 
L -2.34375 -0 
" style="stroke: #ffffff; stroke-width: 1.125"/>
    </defs>
    <g clip-path="url(#p43e047b462)">
     <use xlink:href="#m260fe61949" x="109.804477" y="154.710596" style="fill: #ffffff; stroke: #ffffff; stroke-width: 1.125"/>
    </g>
   </g>
   <g id="line2d_13">
    <path d="M 209.231701 281.744952 
L 209.231701 121.177471 
" clip-path="url(#p43e047b462)" style="fill: none; stroke: #4d4d4d; stroke-width: 1.875; stroke-linecap: square"/>
   </g>
   <g id="line2d_14">
    <path d="M 209.231701 247.222466 
L 209.231701 191.638695 
" clip-path="url(#p43e047b462)" style="fill: none; stroke: #4d4d4d; stroke-width: 5.625; stroke-linecap: square"/>
   </g>
   <g id="line2d_15">
    <path d="M 209.231701 222.559315 
" clip-path="url(#p43e047b462)" style="fill: none; stroke: #4d4d4d; stroke-width: 4; stroke-linecap: square"/>
    <g clip-path="url(#p43e047b462)">
     <use xlink:href="#m260fe61949" x="209.231701" y="222.559315" style="fill: #ffffff; stroke: #ffffff; stroke-width: 1.125"/>
    </g>
   </g>
   <g id="line2d_16">
    <path d="M 308.658924 247.814785 
L 308.658924 28.134961 
" clip-path="url(#p43e047b462)" style="fill: none; stroke: #4c4c4c; stroke-width: 1.875; stroke-linecap: square"/>
   </g>
   <g id="line2d_17">
    <path d="M 308.658924 172.452758 
L 308.658924 102.768163 
" clip-path="url(#p43e047b462)" style="fill: none; stroke: #4c4c4c; stroke-width: 5.625; stroke-linecap: square"/>
   </g>
   <g id="line2d_18">
    <path d="M 308.658924 141.768804 
" clip-path="url(#p43e047b462)" style="fill: none; stroke: #4c4c4c; stroke-width: 4; stroke-linecap: square"/>
    <g clip-path="url(#p43e047b462)">
     <use xlink:href="#m260fe61949" x="308.658924" y="141.768804" style="fill: #ffffff; stroke: #ffffff; stroke-width: 1.125"/>
    </g>
   </g>
   <g id="line2d_19">
    <path d="M 408.086148 277.403383 
L 408.086148 178.678563 
" clip-path="url(#p43e047b462)" style="fill: none; stroke: #4d4d4d; stroke-width: 1.875; stroke-linecap: square"/>
   </g>
   <g id="line2d_20">
    <path d="M 408.086148 249.323207 
L 408.086148 219.591133 
" clip-path="url(#p43e047b462)" style="fill: none; stroke: #4d4d4d; stroke-width: 5.625; stroke-linecap: square"/>
   </g>
   <g id="line2d_21">
    <path d="M 408.086148 229.976261 
" clip-path="url(#p43e047b462)" style="fill: none; stroke: #4d4d4d; stroke-width: 4; stroke-linecap: square"/>
    <g clip-path="url(#p43e047b462)">
     <use xlink:href="#m260fe61949" x="408.086148" y="229.976261" style="fill: #ffffff; stroke: #ffffff; stroke-width: 1.125"/>
    </g>
   </g>
   <g id="patch_3">
    <path d="M 60.090865 295.01851 
L 60.090865 3.00024 
" style="fill: none; stroke: #000000; stroke-width: 0.8; stroke-linejoin: miter; stroke-linecap: square"/>
   </g>
   <g id="patch_4">
    <path d="M 457.79976 295.01851 
L 457.79976 3.00024 
" style="fill: none; stroke: #000000; stroke-width: 0.8; stroke-linejoin: miter; stroke-linecap: square"/>
   </g>
   <g id="patch_5">
    <path d="M 60.090865 295.01851 
L 457.79976 295.01851 
" style="fill: none; stroke: #000000; stroke-width: 0.8; stroke-linejoin: miter; stroke-linecap: square"/>
   </g>
   <g id="patch_6">
    <path d="M 60.090865 3.00024 
L 457.79976 3.00024 
" style="fill: none; stroke: #000000; stroke-width: 0.8; stroke-linejoin: miter; stroke-linecap: square"/>
   </g>
  </g>
 </g>
 <defs>
  <clipPath id="p43e047b462">
   <rect x="60.090865" y="3.00024" width="397.708895" height="292.01827"/>
  </clipPath>
 </defs>
</svg>
