<?xml version="1.0" encoding="utf-8" standalone="no"?>
<!DOCTYPE svg PUBLIC "-//W3C//DTD SVG 1.1//EN"
  "http://www.w3.org/Graphics/SVG/1.1/DTD/svg11.dtd">
<svg xmlns:xlink="http://www.w3.org/1999/xlink" width="460.8pt" height="345.6pt" viewBox="0 0 460.8 345.6" xmlns="http://www.w3.org/2000/svg" version="1.1">
 <metadata>
  <rdf:RDF xmlns:dc="http://purl.org/dc/elements/1.1/" xmlns:cc="http://creativecommons.org/ns#" xmlns:rdf="http://www.w3.org/1999/02/22-rdf-syntax-ns#">
   <cc:Work>
    <dc:type rdf:resource="http://purl.org/dc/dcmitype/StillImage"/>
    <dc:date>2025-12-22T10:15:01.649166</dc:date>
    <dc:format>image/svg+xml</dc:format>
    <dc:creator>
     <cc:Agent>
      <dc:title>Matplotlib v3.10.7, https://matplotlib.org/</dc:title>
     </cc:Agent>
    </dc:creator>
   </cc:Work>
  </rdf:RDF>
 </metadata>
 <defs>
  <style type="text/css">*{stroke-linejoin: round; stroke-linecap: butt}</style>
 </defs>
 <g id="figure_1">
  <g id="patch_1">
   <path d="M 0 345.6 
L 460.8 345.6 
L 460.8 0 
L 0 0 
z
" style="fill: #ffffff"/>
  </g>
  <g id="axes_1">
   <g id="patch_2">
    <path d="M 60.090865 294.784135 
L 457.79976 294.784135 
L 457.79976 3.00024 
L 60.090865 3.00024 
z
" style="fill: #ffffff"/>
   </g>
   <g id="FillBetweenPolyCollection_1">
    <defs>
     <path id="m00c1ca118d" d="M 173.053577 -161.722766 
L 145.982601 -161.722766 
L 144.534262 -163.415837 
L 143.044781 -165.108909 
L 141.527025 -166.801981 
L 139.994009 -168.495052 
L 138.458294 -170.188124 
L 136.93136 -171.881195 
L 135.422981 -173.574267 
L 133.940631 -175.267339 
L 132.488968 -176.96041 
L 131.069405 -178.653482 
L 129.679828 -180.346553 
L 128.314459 -182.039625 
L 126.963911 -183.732697 
L 125.615435 -185.425768 
L 124.253375 -187.11884 
L 122.85984 -188.811912 
L 121.415568 -190.504983 
L 119.900972 -192.198055 
L 118.297333 -193.891126 
L 116.588072 -195.584198 
L 114.76007 -197.27727 
L 112.804916 -198.970341 
L 110.720037 -200.663413 
L 108.509595 -202.356484 
L 106.185076 -204.049556 
L 103.765499 -205.742628 
L 101.277196 -207.435699 
L 98.753132 -209.128771 
L 96.231795 -210.821843 
L 93.755685 -212.514914 
L 91.369504 -214.207986 
L 89.118155 -215.901057 
L 87.044686 -217.594129 
L 85.188333 -219.287201 
L 83.582796 -220.980272 
L 82.254871 -222.673344 
L 81.223537 -224.366415 
L 80.499538 -226.059487 
L 80.085465 -227.752559 
L 79.97631 -229.44563 
L 80.160381 -231.138702 
L 80.620498 -232.831774 
L 81.33531 -234.524845 
L 82.280622 -236.217917 
L 83.430599 -237.910988 
L 84.758764 -239.60406 
L 86.238722 -241.297132 
L 87.844604 -242.990203 
L 89.551246 -244.683275 
L 91.334161 -246.376346 
L 93.169383 -248.069418 
L 95.033279 -249.76249 
L 96.902419 -251.455561 
L 98.753583 -253.148633 
L 100.563951 -254.841705 
L 102.311517 -256.534776 
L 103.975689 -258.227848 
L 105.538064 -259.920919 
L 106.983275 -261.613991 
L 108.29985 -263.307063 
L 109.480973 -265.000134 
L 110.525056 -266.693206 
L 111.436058 -268.386278 
L 112.223486 -270.079349 
L 112.902062 -271.772421 
L 113.491058 -273.465492 
L 114.013355 -275.158564 
L 114.494269 -276.851636 
L 114.960244 -278.544707 
L 115.437509 -280.237779 
L 115.950783 -281.93085 
L 116.522125 -283.623922 
L 117.170002 -285.316994 
L 117.908613 -287.010065 
L 118.747506 -288.703137 
L 119.691487 -290.396209 
L 120.740784 -292.08928 
L 121.891449 -293.782352 
L 123.135925 -295.475423 
L 124.463739 -297.168495 
L 125.862241 -298.861567 
L 127.317363 -300.554638 
L 128.814333 -302.24771 
L 130.338321 -303.940781 
L 131.874991 -305.633853 
L 133.410953 -307.326925 
L 134.934101 -309.019996 
L 136.433848 -310.713068 
L 137.901256 -312.40614 
L 139.329084 -314.099211 
L 140.711745 -315.792283 
L 142.045202 -317.485354 
L 143.326805 -319.178426 
L 144.555084 -320.871498 
L 145.729514 -322.564569 
L 146.850272 -324.257641 
L 147.917988 -325.950712 
L 148.933519 -327.643784 
L 149.89776 -329.336856 
L 169.138418 -329.336856 
L 169.138418 -329.336856 
L 170.102659 -327.643784 
L 171.11819 -325.950712 
L 172.185905 -324.257641 
L 173.306663 -322.564569 
L 174.481094 -320.871498 
L 175.709373 -319.178426 
L 176.990975 -317.485354 
L 178.324433 -315.792283 
L 179.707094 -314.099211 
L 181.134921 -312.40614 
L 182.60233 -310.713068 
L 184.102076 -309.019996 
L 185.625225 -307.326925 
L 187.161187 -305.633853 
L 188.697857 -303.940781 
L 190.221844 -302.24771 
L 191.718814 -300.554638 
L 193.173937 -298.861567 
L 194.572439 -297.168495 
L 195.900252 -295.475423 
L 197.144729 -293.782352 
L 198.295393 -292.08928 
L 199.34469 -290.396209 
L 200.288671 -288.703137 
L 201.127565 -287.010065 
L 201.866175 -285.316994 
L 202.514052 -283.623922 
L 203.085395 -281.93085 
L 203.598668 -280.237779 
L 204.075934 -278.544707 
L 204.541909 -276.851636 
L 205.022822 -275.158564 
L 205.54512 -273.465492 
L 206.134116 -271.772421 
L 206.812691 -270.079349 
L 207.600119 -268.386278 
L 208.511122 -266.693206 
L 209.555205 -265.000134 
L 210.736328 -263.307063 
L 212.052903 -261.613991 
L 213.498114 -259.920919 
L 215.060489 -258.227848 
L 216.724661 -256.534776 
L 218.472226 -254.841705 
L 220.282594 -253.148633 
L 222.133758 -251.455561 
L 224.002899 -249.76249 
L 225.866795 -248.069418 
L 227.702017 -246.376346 
L 229.484932 -244.683275 
L 231.191574 -242.990203 
L 232.797456 -241.297132 
L 234.277413 -239.60406 
L 235.605578 -237.910988 
L 236.755556 -236.217917 
L 237.700868 -234.524845 
L 238.41568 -232.831774 
L 238.875797 -231.138702 
L 239.059868 -229.44563 
L 238.950712 -227.752559 
L 238.53664 -226.059487 
L 237.81264 -224.366415 
L 236.781307 -222.673344 
L 235.453382 -220.980272 
L 233.847845 -219.287201 
L 231.991492 -217.594129 
L 229.918023 -215.901057 
L 227.666673 -214.207986 
L 225.280493 -212.514914 
L 222.804383 -210.821843 
L 220.283046 -209.128771 
L 217.758982 -207.435699 
L 215.270678 -205.742628 
L 212.851102 -204.049556 
L 210.526582 -202.356484 
L 208.316141 -200.663413 
L 206.231262 -198.970341 
L 204.276108 -197.27727 
L 202.448105 -195.584198 
L 200.738845 -193.891126 
L 199.135205 -192.198055 
L 197.62061 -190.504983 
L 196.176338 -188.811912 
L 194.782803 -187.11884 
L 193.420743 -185.425768 
L 192.072266 -183.732697 
L 190.721719 -182.039625 
L 189.35635 -180.346553 
L 187.966773 -178.653482 
L 186.54721 -176.96041 
L 185.095546 -175.267339 
L 183.613197 -173.574267 
L 182.104817 -171.881195 
L 180.577884 -170.188124 
L 179.042168 -168.495052 
L 177.509152 -166.801981 
L 175.991396 -165.108909 
L 174.501915 -163.415837 
L 173.053577 -161.722766 
z
" style="stroke: #3f3f3f; stroke-width: 1.25"/>
    </defs>
    <g clip-path="url(#p2c3eb763c7)">
     <use xlink:href="#m00c1ca118d" x="0" y="345.6" style="fill: #3274a1; stroke: #3f3f3f; stroke-width: 1.25"/>
    </g>
   </g>
   <g id="FillBetweenPolyCollection_2">
    <defs>
     <path id="m30de4d27a7" d="M 367.992865 -64.078769 
L 348.752207 -64.078769 
L 347.787966 -65.771841 
L 346.772435 -67.464913 
L 345.70472 -69.157984 
L 344.583962 -70.851056 
L 343.409531 -72.544127 
L 342.181252 -74.237199 
L 340.89965 -75.930271 
L 339.566192 -77.623342 
L 338.183531 -79.316414 
L 336.755704 -81.009485 
L 335.288295 -82.702557 
L 333.788549 -84.395629 
L 332.2654 -86.0887 
L 330.729438 -87.781772 
L 329.192768 -89.474844 
L 327.668781 -91.167915 
L 326.171811 -92.860987 
L 324.716688 -94.554058 
L 323.318186 -96.24713 
L 321.990373 -97.940202 
L 320.745896 -99.633273 
L 319.595232 -101.326345 
L 318.545935 -103.019416 
L 317.601954 -104.712488 
L 316.76306 -106.40556 
L 316.02445 -108.098631 
L 315.376573 -109.791703 
L 314.80523 -111.484775 
L 314.291957 -113.177846 
L 313.814691 -114.870918 
L 313.348716 -116.563989 
L 312.867803 -118.257061 
L 312.345505 -119.950133 
L 311.756509 -121.643204 
L 311.077934 -123.336276 
L 310.290506 -125.029347 
L 309.379503 -126.722419 
L 308.33542 -128.415491 
L 307.154297 -130.108562 
L 305.837722 -131.801634 
L 304.392511 -133.494706 
L 302.830136 -135.187777 
L 301.165964 -136.880849 
L 299.418399 -138.57392 
L 297.608031 -140.266992 
L 295.756867 -141.960064 
L 293.887726 -143.653135 
L 292.02383 -145.346207 
L 290.188608 -147.039279 
L 288.405693 -148.73235 
L 286.699051 -150.425422 
L 285.093169 -152.118493 
L 283.613212 -153.811565 
L 282.285047 -155.504637 
L 281.135069 -157.197708 
L 280.189757 -158.89078 
L 279.474945 -160.583851 
L 279.014828 -162.276923 
L 278.830757 -163.969995 
L 278.939913 -165.663066 
L 279.353985 -167.356138 
L 280.077985 -169.04921 
L 281.109318 -170.742281 
L 282.437243 -172.435353 
L 284.04278 -174.128424 
L 285.899133 -175.821496 
L 287.972602 -177.514568 
L 290.223952 -179.207639 
L 292.610132 -180.900711 
L 295.086242 -182.593782 
L 297.607579 -184.286854 
L 300.131643 -185.979926 
L 302.619947 -187.672997 
L 305.039523 -189.366069 
L 307.364043 -191.059141 
L 309.574484 -192.752212 
L 311.659363 -194.445284 
L 313.614517 -196.138355 
L 315.44252 -197.831427 
L 317.15178 -199.524499 
L 318.75542 -201.21757 
L 320.270015 -202.910642 
L 321.714287 -204.603713 
L 323.107822 -206.296785 
L 324.469882 -207.989857 
L 325.818359 -209.682928 
L 327.168906 -211.376 
L 328.534275 -213.069072 
L 329.923852 -214.762143 
L 331.343415 -216.455215 
L 332.795079 -218.148286 
L 334.277428 -219.841358 
L 335.785808 -221.53443 
L 337.312741 -223.227501 
L 338.848457 -224.920573 
L 340.381473 -226.613644 
L 341.899229 -228.306716 
L 343.38871 -229.999788 
L 344.837048 -231.692859 
L 371.908024 -231.692859 
L 371.908024 -231.692859 
L 373.356363 -229.999788 
L 374.845844 -228.306716 
L 376.3636 -226.613644 
L 377.896616 -224.920573 
L 379.432331 -223.227501 
L 380.959265 -221.53443 
L 382.467644 -219.841358 
L 383.949994 -218.148286 
L 385.401657 -216.455215 
L 386.82122 -214.762143 
L 388.210797 -213.069072 
L 389.576166 -211.376 
L 390.926714 -209.682928 
L 392.27519 -207.989857 
L 393.63725 -206.296785 
L 395.030785 -204.603713 
L 396.475057 -202.910642 
L 397.989653 -201.21757 
L 399.593292 -199.524499 
L 401.302553 -197.831427 
L 403.130555 -196.138355 
L 405.085709 -194.445284 
L 407.170588 -192.752212 
L 409.38103 -191.059141 
L 411.705549 -189.366069 
L 414.125126 -187.672997 
L 416.613429 -185.979926 
L 419.137493 -184.286854 
L 421.65883 -182.593782 
L 424.13494 -180.900711 
L 426.521121 -179.207639 
L 428.77247 -177.514568 
L 430.845939 -175.821496 
L 432.702292 -174.128424 
L 434.307829 -172.435353 
L 435.635754 -170.742281 
L 436.667088 -169.04921 
L 437.391087 -167.356138 
L 437.80516 -165.663066 
L 437.914315 -163.969995 
L 437.730244 -162.276923 
L 437.270127 -160.583851 
L 436.555315 -158.89078 
L 435.610003 -157.197708 
L 434.460026 -155.504637 
L 433.131861 -153.811565 
L 431.651903 -152.118493 
L 430.046021 -150.425422 
L 428.339379 -148.73235 
L 426.556464 -147.039279 
L 424.721242 -145.346207 
L 422.857346 -143.653135 
L 420.988206 -141.960064 
L 419.137042 -140.266992 
L 417.326674 -138.57392 
L 415.579108 -136.880849 
L 413.914936 -135.187777 
L 412.352561 -133.494706 
L 410.90735 -131.801634 
L 409.590775 -130.108562 
L 408.409652 -128.415491 
L 407.365569 -126.722419 
L 406.454567 -125.029347 
L 405.667139 -123.336276 
L 404.988563 -121.643204 
L 404.399567 -119.950133 
L 403.87727 -118.257061 
L 403.396356 -116.563989 
L 402.930381 -114.870918 
L 402.453116 -113.177846 
L 401.939842 -111.484775 
L 401.3685 -109.791703 
L 400.720623 -108.098631 
L 399.982012 -106.40556 
L 399.143119 -104.712488 
L 398.199138 -103.019416 
L 397.149841 -101.326345 
L 395.999176 -99.633273 
L 394.7547 -97.940202 
L 393.426886 -96.24713 
L 392.028384 -94.554058 
L 390.573262 -92.860987 
L 389.076292 -91.167915 
L 387.552304 -89.474844 
L 386.015634 -87.781772 
L 384.479672 -86.0887 
L 382.956524 -84.395629 
L 381.456777 -82.702557 
L 379.989369 -81.009485 
L 378.561541 -79.316414 
L 377.17888 -77.623342 
L 375.845423 -75.930271 
L 374.56382 -74.237199 
L 373.335541 -72.544127 
L 372.161111 -70.851056 
L 371.040353 -69.157984 
L 369.972637 -67.464913 
L 368.957106 -65.771841 
L 367.992865 -64.078769 
z
" style="stroke: #3f3f3f; stroke-width: 1.25"/>
    </defs>
    <g clip-path="url(#p2c3eb763c7)">
     <use xlink:href="#m30de4d27a7" x="0" y="345.6" style="fill: #3274a1; stroke: #3f3f3f; stroke-width: 1.25"/>
    </g>
   </g>
   <g id="matplotlib.axis_1">
    <g id="xtick_1">
     <g id="line2d_1">
      <defs>
       <path id="m44f08e561b" d="M 0 0 
L 0 3.5 
" style="stroke: #000000; stroke-width: 0.8"/>
      </defs>
      <g>
       <use xlink:href="#m44f08e561b" x="159.518089" y="294.784135" style="stroke: #000000; stroke-width: 0.8"/>
      </g>
     </g>
     <g id="text_1">
      <!-- Time -->
      <g transform="translate(137.672776 316.09976) scale(0.2 -0.2)">
       <defs>
        <path id="ArialMT-54" d="M 1659 0 
L 1659 4041 
L 150 4041 
L 150 4581 
L 3781 4581 
L 3781 4041 
L 2266 4041 
L 2266 0 
L 1659 0 
z
" transform="scale(0.015625)"/>
        <path id="ArialMT-69" d="M 425 3934 
L 425 4581 
L 988 4581 
L 988 3934 
L 425 3934 
z
M 425 0 
L 425 3319 
L 988 3319 
L 988 0 
L 425 0 
z
" transform="scale(0.015625)"/>
        <path id="ArialMT-6d" d="M 422 0 
L 422 3319 
L 925 3319 
L 925 2853 
Q 1081 3097 1340 3245 
Q 1600 3394 1931 3394 
Q 2300 3394 2536 3241 
Q 2772 3088 2869 2813 
Q 3263 3394 3894 3394 
Q 4388 3394 4653 3120 
Q 4919 2847 4919 2278 
L 4919 0 
L 4359 0 
L 4359 2091 
Q 4359 2428 4304 2576 
Q 4250 2725 4106 2815 
Q 3963 2906 3769 2906 
Q 3419 2906 3187 2673 
Q 2956 2441 2956 1928 
L 2956 0 
L 2394 0 
L 2394 2156 
Q 2394 2531 2256 2718 
Q 2119 2906 1806 2906 
Q 1569 2906 1367 2781 
Q 1166 2656 1075 2415 
Q 984 2175 984 1722 
L 984 0 
L 422 0 
z
" transform="scale(0.015625)"/>
        <path id="ArialMT-65" d="M 2694 1069 
L 3275 997 
Q 3138 488 2766 206 
Q 2394 -75 1816 -75 
Q 1088 -75 661 373 
Q 234 822 234 1631 
Q 234 2469 665 2931 
Q 1097 3394 1784 3394 
Q 2450 3394 2872 2941 
Q 3294 2488 3294 1666 
Q 3294 1616 3291 1516 
L 816 1516 
Q 847 969 1125 678 
Q 1403 388 1819 388 
Q 2128 388 2347 550 
Q 2566 713 2694 1069 
z
M 847 1978 
L 2700 1978 
Q 2663 2397 2488 2606 
Q 2219 2931 1791 2931 
Q 1403 2931 1139 2672 
Q 875 2413 847 1978 
z
" transform="scale(0.015625)"/>
       </defs>
       <use xlink:href="#ArialMT-54"/>
       <use xlink:href="#ArialMT-69" transform="translate(57.333984 0)"/>
       <use xlink:href="#ArialMT-6d" transform="translate(79.550781 0)"/>
       <use xlink:href="#ArialMT-65" transform="translate(162.851562 0)"/>
      </g>
     </g>
    </g>
    <g id="xtick_2">
     <g id="line2d_2">
      <g>
       <use xlink:href="#m44f08e561b" x="358.372536" y="294.784135" style="stroke: #000000; stroke-width: 0.8"/>
      </g>
     </g>
     <g id="text_2">
      <!-- Body mass -->
      <g transform="translate(308.911599 316.09976) scale(0.2 -0.2)">
       <defs>
        <path id="ArialMT-42" d="M 469 0 
L 469 4581 
L 2188 4581 
Q 2713 4581 3030 4442 
Q 3347 4303 3526 4014 
Q 3706 3725 3706 3409 
Q 3706 3116 3547 2856 
Q 3388 2597 3066 2438 
Q 3481 2316 3704 2022 
Q 3928 1728 3928 1328 
Q 3928 1006 3792 729 
Q 3656 453 3456 303 
Q 3256 153 2954 76 
Q 2653 0 2216 0 
L 469 0 
z
M 1075 2656 
L 2066 2656 
Q 2469 2656 2644 2709 
Q 2875 2778 2992 2937 
Q 3109 3097 3109 3338 
Q 3109 3566 3000 3739 
Q 2891 3913 2687 3977 
Q 2484 4041 1991 4041 
L 1075 4041 
L 1075 2656 
z
M 1075 541 
L 2216 541 
Q 2509 541 2628 563 
Q 2838 600 2978 687 
Q 3119 775 3209 942 
Q 3300 1109 3300 1328 
Q 3300 1584 3169 1773 
Q 3038 1963 2805 2039 
Q 2572 2116 2134 2116 
L 1075 2116 
L 1075 541 
z
" transform="scale(0.015625)"/>
        <path id="ArialMT-6f" d="M 213 1659 
Q 213 2581 725 3025 
Q 1153 3394 1769 3394 
Q 2453 3394 2887 2945 
Q 3322 2497 3322 1706 
Q 3322 1066 3130 698 
Q 2938 331 2570 128 
Q 2203 -75 1769 -75 
Q 1072 -75 642 372 
Q 213 819 213 1659 
z
M 791 1659 
Q 791 1022 1069 705 
Q 1347 388 1769 388 
Q 2188 388 2466 706 
Q 2744 1025 2744 1678 
Q 2744 2294 2464 2611 
Q 2184 2928 1769 2928 
Q 1347 2928 1069 2612 
Q 791 2297 791 1659 
z
" transform="scale(0.015625)"/>
        <path id="ArialMT-64" d="M 2575 0 
L 2575 419 
Q 2259 -75 1647 -75 
Q 1250 -75 917 144 
Q 584 363 401 755 
Q 219 1147 219 1656 
Q 219 2153 384 2558 
Q 550 2963 881 3178 
Q 1213 3394 1622 3394 
Q 1922 3394 2156 3267 
Q 2391 3141 2538 2938 
L 2538 4581 
L 3097 4581 
L 3097 0 
L 2575 0 
z
M 797 1656 
Q 797 1019 1065 703 
Q 1334 388 1700 388 
Q 2069 388 2326 689 
Q 2584 991 2584 1609 
Q 2584 2291 2321 2609 
Q 2059 2928 1675 2928 
Q 1300 2928 1048 2622 
Q 797 2316 797 1656 
z
" transform="scale(0.015625)"/>
        <path id="ArialMT-79" d="M 397 -1278 
L 334 -750 
Q 519 -800 656 -800 
Q 844 -800 956 -737 
Q 1069 -675 1141 -563 
Q 1194 -478 1313 -144 
Q 1328 -97 1363 -6 
L 103 3319 
L 709 3319 
L 1400 1397 
Q 1534 1031 1641 628 
Q 1738 1016 1872 1384 
L 2581 3319 
L 3144 3319 
L 1881 -56 
Q 1678 -603 1566 -809 
Q 1416 -1088 1222 -1217 
Q 1028 -1347 759 -1347 
Q 597 -1347 397 -1278 
z
" transform="scale(0.015625)"/>
        <path id="ArialMT-20" transform="scale(0.015625)"/>
        <path id="ArialMT-61" d="M 2588 409 
Q 2275 144 1986 34 
Q 1697 -75 1366 -75 
Q 819 -75 525 192 
Q 231 459 231 875 
Q 231 1119 342 1320 
Q 453 1522 633 1644 
Q 813 1766 1038 1828 
Q 1203 1872 1538 1913 
Q 2219 1994 2541 2106 
Q 2544 2222 2544 2253 
Q 2544 2597 2384 2738 
Q 2169 2928 1744 2928 
Q 1347 2928 1158 2789 
Q 969 2650 878 2297 
L 328 2372 
Q 403 2725 575 2942 
Q 747 3159 1072 3276 
Q 1397 3394 1825 3394 
Q 2250 3394 2515 3294 
Q 2781 3194 2906 3042 
Q 3031 2891 3081 2659 
Q 3109 2516 3109 2141 
L 3109 1391 
Q 3109 606 3145 398 
Q 3181 191 3288 0 
L 2700 0 
Q 2613 175 2588 409 
z
M 2541 1666 
Q 2234 1541 1622 1453 
Q 1275 1403 1131 1340 
Q 988 1278 909 1158 
Q 831 1038 831 891 
Q 831 666 1001 516 
Q 1172 366 1500 366 
Q 1825 366 2078 508 
Q 2331 650 2450 897 
Q 2541 1088 2541 1459 
L 2541 1666 
z
" transform="scale(0.015625)"/>
        <path id="ArialMT-73" d="M 197 991 
L 753 1078 
Q 800 744 1014 566 
Q 1228 388 1613 388 
Q 2000 388 2187 545 
Q 2375 703 2375 916 
Q 2375 1106 2209 1216 
Q 2094 1291 1634 1406 
Q 1016 1563 777 1677 
Q 538 1791 414 1992 
Q 291 2194 291 2438 
Q 291 2659 392 2848 
Q 494 3038 669 3163 
Q 800 3259 1026 3326 
Q 1253 3394 1513 3394 
Q 1903 3394 2198 3281 
Q 2494 3169 2634 2976 
Q 2775 2784 2828 2463 
L 2278 2388 
Q 2241 2644 2061 2787 
Q 1881 2931 1553 2931 
Q 1166 2931 1000 2803 
Q 834 2675 834 2503 
Q 834 2394 903 2306 
Q 972 2216 1119 2156 
Q 1203 2125 1616 2013 
Q 2213 1853 2448 1751 
Q 2684 1650 2818 1456 
Q 2953 1263 2953 975 
Q 2953 694 2789 445 
Q 2625 197 2315 61 
Q 2006 -75 1616 -75 
Q 969 -75 630 194 
Q 291 463 197 991 
z
" transform="scale(0.015625)"/>
       </defs>
       <use xlink:href="#ArialMT-42"/>
       <use xlink:href="#ArialMT-6f" transform="translate(66.699219 0)"/>
       <use xlink:href="#ArialMT-64" transform="translate(122.314453 0)"/>
       <use xlink:href="#ArialMT-79" transform="translate(177.929688 0)"/>
       <use xlink:href="#ArialMT-20" transform="translate(227.929688 0)"/>
       <use xlink:href="#ArialMT-6d" transform="translate(255.712891 0)"/>
       <use xlink:href="#ArialMT-61" transform="translate(339.013672 0)"/>
       <use xlink:href="#ArialMT-73" transform="translate(394.628906 0)"/>
       <use xlink:href="#ArialMT-73" transform="translate(444.628906 0)"/>
      </g>
     </g>
    </g>
    <g id="text_3">
     <!-- Predictor -->
     <g transform="translate(218.932813 338.62476) scale(0.2 -0.2)">
      <defs>
       <path id="ArialMT-50" d="M 494 0 
L 494 4581 
L 2222 4581 
Q 2678 4581 2919 4538 
Q 3256 4481 3484 4323 
Q 3713 4166 3852 3881 
Q 3991 3597 3991 3256 
Q 3991 2672 3619 2267 
Q 3247 1863 2275 1863 
L 1100 1863 
L 1100 0 
L 494 0 
z
M 1100 2403 
L 2284 2403 
Q 2872 2403 3119 2622 
Q 3366 2841 3366 3238 
Q 3366 3525 3220 3729 
Q 3075 3934 2838 4000 
Q 2684 4041 2272 4041 
L 1100 4041 
L 1100 2403 
z
" transform="scale(0.015625)"/>
       <path id="ArialMT-72" d="M 416 0 
L 416 3319 
L 922 3319 
L 922 2816 
Q 1116 3169 1280 3281 
Q 1444 3394 1641 3394 
Q 1925 3394 2219 3213 
L 2025 2691 
Q 1819 2813 1613 2813 
Q 1428 2813 1281 2702 
Q 1134 2591 1072 2394 
Q 978 2094 978 1738 
L 978 0 
L 416 0 
z
" transform="scale(0.015625)"/>
       <path id="ArialMT-63" d="M 2588 1216 
L 3141 1144 
Q 3050 572 2676 248 
Q 2303 -75 1759 -75 
Q 1078 -75 664 370 
Q 250 816 250 1647 
Q 250 2184 428 2587 
Q 606 2991 970 3192 
Q 1334 3394 1763 3394 
Q 2303 3394 2647 3120 
Q 2991 2847 3088 2344 
L 2541 2259 
Q 2463 2594 2264 2762 
Q 2066 2931 1784 2931 
Q 1359 2931 1093 2626 
Q 828 2322 828 1663 
Q 828 994 1084 691 
Q 1341 388 1753 388 
Q 2084 388 2306 591 
Q 2528 794 2588 1216 
z
" transform="scale(0.015625)"/>
       <path id="ArialMT-74" d="M 1650 503 
L 1731 6 
Q 1494 -44 1306 -44 
Q 1000 -44 831 53 
Q 663 150 594 308 
Q 525 466 525 972 
L 525 2881 
L 113 2881 
L 113 3319 
L 525 3319 
L 525 4141 
L 1084 4478 
L 1084 3319 
L 1650 3319 
L 1650 2881 
L 1084 2881 
L 1084 941 
Q 1084 700 1114 631 
Q 1144 563 1211 522 
Q 1278 481 1403 481 
Q 1497 481 1650 503 
z
" transform="scale(0.015625)"/>
      </defs>
      <use xlink:href="#ArialMT-50"/>
      <use xlink:href="#ArialMT-72" transform="translate(66.699219 0)"/>
      <use xlink:href="#ArialMT-65" transform="translate(100 0)"/>
      <use xlink:href="#ArialMT-64" transform="translate(155.615234 0)"/>
      <use xlink:href="#ArialMT-69" transform="translate(211.230469 0)"/>
      <use xlink:href="#ArialMT-63" transform="translate(233.447266 0)"/>
      <use xlink:href="#ArialMT-74" transform="translate(283.447266 0)"/>
      <use xlink:href="#ArialMT-6f" transform="translate(311.230469 0)"/>
      <use xlink:href="#ArialMT-72" transform="translate(366.845703 0)"/>
     </g>
    </g>
   </g>
   <g id="matplotlib.axis_2">
    <g id="ytick_1">
     <g id="line2d_3">
      <defs>
       <path id="m57738559b6" d="M 0 0 
L -3.5 0 
" style="stroke: #000000; stroke-width: 0.8"/>
      </defs>
      <g>
       <use xlink:href="#m57738559b6" x="60.090865" y="256.698947" style="stroke: #000000; stroke-width: 0.8"/>
      </g>
     </g>
     <g id="text_4">
      <!-- 0.3 -->
      <g transform="translate(25.290865 263.856759) scale(0.2 -0.2)">
       <defs>
        <path id="ArialMT-30" d="M 266 2259 
Q 266 3072 433 3567 
Q 600 4063 929 4331 
Q 1259 4600 1759 4600 
Q 2128 4600 2406 4451 
Q 2684 4303 2865 4023 
Q 3047 3744 3150 3342 
Q 3253 2941 3253 2259 
Q 3253 1453 3087 958 
Q 2922 463 2592 192 
Q 2263 -78 1759 -78 
Q 1097 -78 719 397 
Q 266 969 266 2259 
z
M 844 2259 
Q 844 1131 1108 757 
Q 1372 384 1759 384 
Q 2147 384 2411 759 
Q 2675 1134 2675 2259 
Q 2675 3391 2411 3762 
Q 2147 4134 1753 4134 
Q 1366 4134 1134 3806 
Q 844 3388 844 2259 
z
" transform="scale(0.015625)"/>
        <path id="ArialMT-2e" d="M 581 0 
L 581 641 
L 1222 641 
L 1222 0 
L 581 0 
z
" transform="scale(0.015625)"/>
        <path id="ArialMT-33" d="M 269 1209 
L 831 1284 
Q 928 806 1161 595 
Q 1394 384 1728 384 
Q 2125 384 2398 659 
Q 2672 934 2672 1341 
Q 2672 1728 2419 1979 
Q 2166 2231 1775 2231 
Q 1616 2231 1378 2169 
L 1441 2663 
Q 1497 2656 1531 2656 
Q 1891 2656 2178 2843 
Q 2466 3031 2466 3422 
Q 2466 3731 2256 3934 
Q 2047 4138 1716 4138 
Q 1388 4138 1169 3931 
Q 950 3725 888 3313 
L 325 3413 
Q 428 3978 793 4289 
Q 1159 4600 1703 4600 
Q 2078 4600 2393 4439 
Q 2709 4278 2876 4000 
Q 3044 3722 3044 3409 
Q 3044 3113 2884 2869 
Q 2725 2625 2413 2481 
Q 2819 2388 3044 2092 
Q 3269 1797 3269 1353 
Q 3269 753 2831 336 
Q 2394 -81 1725 -81 
Q 1122 -81 723 278 
Q 325 638 269 1209 
z
" transform="scale(0.015625)"/>
       </defs>
       <use xlink:href="#ArialMT-30"/>
       <use xlink:href="#ArialMT-2e" transform="translate(55.615234 0)"/>
       <use xlink:href="#ArialMT-33" transform="translate(83.398438 0)"/>
      </g>
     </g>
    </g>
    <g id="ytick_2">
     <g id="line2d_4">
      <g>
       <use xlink:href="#m57738559b6" x="60.090865" y="202.795567" style="stroke: #000000; stroke-width: 0.8"/>
      </g>
     </g>
     <g id="text_5">
      <!-- 0.4 -->
      <g transform="translate(25.290865 209.95338) scale(0.2 -0.2)">
       <defs>
        <path id="ArialMT-34" d="M 2069 0 
L 2069 1097 
L 81 1097 
L 81 1613 
L 2172 4581 
L 2631 4581 
L 2631 1613 
L 3250 1613 
L 3250 1097 
L 2631 1097 
L 2631 0 
L 2069 0 
z
M 2069 1613 
L 2069 3678 
L 634 1613 
L 2069 1613 
z
" transform="scale(0.015625)"/>
       </defs>
       <use xlink:href="#ArialMT-30"/>
       <use xlink:href="#ArialMT-2e" transform="translate(55.615234 0)"/>
       <use xlink:href="#ArialMT-34" transform="translate(83.398438 0)"/>
      </g>
     </g>
    </g>
    <g id="ytick_3">
     <g id="line2d_5">
      <g>
       <use xlink:href="#m57738559b6" x="60.090865" y="148.892188" style="stroke: #000000; stroke-width: 0.8"/>
      </g>
     </g>
     <g id="text_6">
      <!-- 0.5 -->
      <g transform="translate(25.290865 156.05) scale(0.2 -0.2)">
       <defs>
        <path id="ArialMT-35" d="M 266 1200 
L 856 1250 
Q 922 819 1161 601 
Q 1400 384 1738 384 
Q 2144 384 2425 690 
Q 2706 997 2706 1503 
Q 2706 1984 2436 2262 
Q 2166 2541 1728 2541 
Q 1456 2541 1237 2417 
Q 1019 2294 894 2097 
L 366 2166 
L 809 4519 
L 3088 4519 
L 3088 3981 
L 1259 3981 
L 1013 2750 
Q 1425 3038 1878 3038 
Q 2478 3038 2890 2622 
Q 3303 2206 3303 1553 
Q 3303 931 2941 478 
Q 2500 -78 1738 -78 
Q 1113 -78 717 272 
Q 322 622 266 1200 
z
" transform="scale(0.015625)"/>
       </defs>
       <use xlink:href="#ArialMT-30"/>
       <use xlink:href="#ArialMT-2e" transform="translate(55.615234 0)"/>
       <use xlink:href="#ArialMT-35" transform="translate(83.398438 0)"/>
      </g>
     </g>
    </g>
    <g id="ytick_4">
     <g id="line2d_6">
      <g>
       <use xlink:href="#m57738559b6" x="60.090865" y="94.988808" style="stroke: #000000; stroke-width: 0.8"/>
      </g>
     </g>
     <g id="text_7">
      <!-- 0.6 -->
      <g transform="translate(25.290865 102.14662) scale(0.2 -0.2)">
       <defs>
        <path id="ArialMT-36" d="M 3184 3459 
L 2625 3416 
Q 2550 3747 2413 3897 
Q 2184 4138 1850 4138 
Q 1581 4138 1378 3988 
Q 1113 3794 959 3422 
Q 806 3050 800 2363 
Q 1003 2672 1297 2822 
Q 1591 2972 1913 2972 
Q 2475 2972 2870 2558 
Q 3266 2144 3266 1488 
Q 3266 1056 3080 686 
Q 2894 316 2569 119 
Q 2244 -78 1831 -78 
Q 1128 -78 684 439 
Q 241 956 241 2144 
Q 241 3472 731 4075 
Q 1159 4600 1884 4600 
Q 2425 4600 2770 4297 
Q 3116 3994 3184 3459 
z
M 888 1484 
Q 888 1194 1011 928 
Q 1134 663 1356 523 
Q 1578 384 1822 384 
Q 2178 384 2434 671 
Q 2691 959 2691 1453 
Q 2691 1928 2437 2201 
Q 2184 2475 1800 2475 
Q 1419 2475 1153 2201 
Q 888 1928 888 1484 
z
" transform="scale(0.015625)"/>
       </defs>
       <use xlink:href="#ArialMT-30"/>
       <use xlink:href="#ArialMT-2e" transform="translate(55.615234 0)"/>
       <use xlink:href="#ArialMT-36" transform="translate(83.398438 0)"/>
      </g>
     </g>
    </g>
    <g id="ytick_5">
     <g id="line2d_7">
      <g>
       <use xlink:href="#m57738559b6" x="60.090865" y="41.085428" style="stroke: #000000; stroke-width: 0.8"/>
      </g>
     </g>
     <g id="text_8">
      <!-- 0.7 -->
      <g transform="translate(25.290865 48.243241) scale(0.2 -0.2)">
       <defs>
        <path id="ArialMT-37" d="M 303 3981 
L 303 4522 
L 3269 4522 
L 3269 4084 
Q 2831 3619 2401 2847 
Q 1972 2075 1738 1259 
Q 1569 684 1522 0 
L 944 0 
Q 953 541 1156 1306 
Q 1359 2072 1739 2783 
Q 2119 3494 2547 3981 
L 303 3981 
z
" transform="scale(0.015625)"/>
       </defs>
       <use xlink:href="#ArialMT-30"/>
       <use xlink:href="#ArialMT-2e" transform="translate(55.615234 0)"/>
       <use xlink:href="#ArialMT-37" transform="translate(83.398438 0)"/>
      </g>
     </g>
    </g>
    <g id="text_9">
     <!-- Importance -->
     <g transform="translate(17.315865 198.9125) rotate(-90) scale(0.2 -0.2)">
      <defs>
       <path id="ArialMT-49" d="M 597 0 
L 597 4581 
L 1203 4581 
L 1203 0 
L 597 0 
z
" transform="scale(0.015625)"/>
       <path id="ArialMT-70" d="M 422 -1272 
L 422 3319 
L 934 3319 
L 934 2888 
Q 1116 3141 1344 3267 
Q 1572 3394 1897 3394 
Q 2322 3394 2647 3175 
Q 2972 2956 3137 2557 
Q 3303 2159 3303 1684 
Q 3303 1175 3120 767 
Q 2938 359 2589 142 
Q 2241 -75 1856 -75 
Q 1575 -75 1351 44 
Q 1128 163 984 344 
L 984 -1272 
L 422 -1272 
z
M 931 1641 
Q 931 1000 1190 694 
Q 1450 388 1819 388 
Q 2194 388 2461 705 
Q 2728 1022 2728 1688 
Q 2728 2322 2467 2637 
Q 2206 2953 1844 2953 
Q 1484 2953 1207 2617 
Q 931 2281 931 1641 
z
" transform="scale(0.015625)"/>
       <path id="ArialMT-6e" d="M 422 0 
L 422 3319 
L 928 3319 
L 928 2847 
Q 1294 3394 1984 3394 
Q 2284 3394 2536 3286 
Q 2788 3178 2913 3003 
Q 3038 2828 3088 2588 
Q 3119 2431 3119 2041 
L 3119 0 
L 2556 0 
L 2556 2019 
Q 2556 2363 2490 2533 
Q 2425 2703 2258 2804 
Q 2091 2906 1866 2906 
Q 1506 2906 1245 2678 
Q 984 2450 984 1813 
L 984 0 
L 422 0 
z
" transform="scale(0.015625)"/>
      </defs>
      <use xlink:href="#ArialMT-49"/>
      <use xlink:href="#ArialMT-6d" transform="translate(27.783203 0)"/>
      <use xlink:href="#ArialMT-70" transform="translate(111.083984 0)"/>
      <use xlink:href="#ArialMT-6f" transform="translate(166.699219 0)"/>
      <use xlink:href="#ArialMT-72" transform="translate(222.314453 0)"/>
      <use xlink:href="#ArialMT-74" transform="translate(255.615234 0)"/>
      <use xlink:href="#ArialMT-61" transform="translate(283.398438 0)"/>
      <use xlink:href="#ArialMT-6e" transform="translate(339.013672 0)"/>
      <use xlink:href="#ArialMT-63" transform="translate(394.628906 0)"/>
      <use xlink:href="#ArialMT-65" transform="translate(444.628906 0)"/>
     </g>
    </g>
   </g>
   <g id="line2d_8">
    <path d="M 159.518089 183.877234 
L 159.518089 16.263144 
" clip-path="url(#p2c3eb763c7)" style="fill: none; stroke: #3f3f3f; stroke-width: 1.875; stroke-linecap: square"/>
   </g>
   <g id="line2d_9">
    <path d="M 159.518089 129.089592 
L 159.518089 76.46019 
" clip-path="url(#p2c3eb763c7)" style="fill: none; stroke: #3f3f3f; stroke-width: 5.625; stroke-linecap: square"/>
   </g>
   <g id="line2d_10">
    <path d="M 159.518089 110.578176 
" clip-path="url(#p2c3eb763c7)" style="fill: none; stroke: #3f3f3f; stroke-width: 4; stroke-linecap: square"/>
    <defs>
     <path id="m987fa35896" d="M 2.34375 0 
L -2.34375 -0 
" style="stroke: #ffffff; stroke-width: 1.125"/>
    </defs>
    <g clip-path="url(#p2c3eb763c7)">
     <use xlink:href="#m987fa35896" x="159.518089" y="110.578176" style="fill: #ffffff; stroke: #ffffff; stroke-width: 1.125"/>
    </g>
   </g>
   <g id="line2d_11">
    <path d="M 358.372536 281.521231 
L 358.372536 113.907141 
" clip-path="url(#p2c3eb763c7)" style="fill: none; stroke: #3f3f3f; stroke-width: 1.875; stroke-linecap: square"/>
   </g>
   <g id="line2d_12">
    <path d="M 358.372536 221.324185 
L 358.372536 168.694783 
" clip-path="url(#p2c3eb763c7)" style="fill: none; stroke: #3f3f3f; stroke-width: 5.625; stroke-linecap: square"/>
   </g>
   <g id="line2d_13">
    <path d="M 358.372536 187.206199 
" clip-path="url(#p2c3eb763c7)" style="fill: none; stroke: #3f3f3f; stroke-width: 4; stroke-linecap: square"/>
    <g clip-path="url(#p2c3eb763c7)">
     <use xlink:href="#m987fa35896" x="358.372536" y="187.206199" style="fill: #ffffff; stroke: #ffffff; stroke-width: 1.125"/>
    </g>
   </g>
   <g id="patch_3">
    <path d="M 60.090865 294.784135 
L 60.090865 3.00024 
" style="fill: none; stroke: #000000; stroke-width: 0.8; stroke-linejoin: miter; stroke-linecap: square"/>
   </g>
   <g id="patch_4">
    <path d="M 457.79976 294.784135 
L 457.79976 3.00024 
" style="fill: none; stroke: #000000; stroke-width: 0.8; stroke-linejoin: miter; stroke-linecap: square"/>
   </g>
   <g id="patch_5">
    <path d="M 60.090865 294.784135 
L 457.79976 294.784135 
" style="fill: none; stroke: #000000; stroke-width: 0.8; stroke-linejoin: miter; stroke-linecap: square"/>
   </g>
   <g id="patch_6">
    <path d="M 60.090865 3.00024 
L 457.79976 3.00024 
" style="fill: none; stroke: #000000; stroke-width: 0.8; stroke-linejoin: miter; stroke-linecap: square"/>
   </g>
  </g>
 </g>
 <defs>
  <clipPath id="p2c3eb763c7">
   <rect x="60.090865" y="3.00024" width="397.708895" height="291.783895"/>
  </clipPath>
 </defs>
</svg>
