<?xml version="1.0" encoding="utf-8" standalone="no"?>
<!DOCTYPE svg PUBLIC "-//W3C//DTD SVG 1.1//EN"
  "http://www.w3.org/Graphics/SVG/1.1/DTD/svg11.dtd">
<svg xmlns:xlink="http://www.w3.org/1999/xlink" width="460.8pt" height="345.6pt" viewBox="0 0 460.8 345.6" xmlns="http://www.w3.org/2000/svg" version="1.1">
 <metadata>
  <rdf:RDF xmlns:dc="http://purl.org/dc/elements/1.1/" xmlns:cc="http://creativecommons.org/ns#" xmlns:rdf="http://www.w3.org/1999/02/22-rdf-syntax-ns#">
   <cc:Work>
    <dc:type rdf:resource="http://purl.org/dc/dcmitype/StillImage"/>
    <dc:date>2025-12-22T10:15:17.180959</dc:date>
    <dc:format>image/svg+xml</dc:format>
    <dc:creator>
     <cc:Agent>
      <dc:title>Matplotlib v3.10.7, https://matplotlib.org/</dc:title>
     </cc:Agent>
    </dc:creator>
   </cc:Work>
  </rdf:RDF>
 </metadata>
 <defs>
  <style type="text/css">*{stroke-linejoin: round; stroke-linecap: butt}</style>
 </defs>
 <g id="figure_1">
  <g id="patch_1">
   <path d="M 0 345.6 
L 460.8 345.6 
L 460.8 0 
L 0 0 
z
" style="fill: #ffffff"/>
  </g>
  <g id="axes_1">
   <g id="patch_2">
    <path d="M 60.090865 294.784135 
L 457.79976 294.784135 
L 457.79976 4.978625 
L 60.090865 4.978625 
z
" style="fill: #ffffff"/>
   </g>
   <g id="FillBetweenPolyCollection_1">
    <defs>
     <path id="mc6f826985d" d="M 161.314761 -170.243053 
L 157.721417 -170.243053 
L 157.74082 -171.830986 
L 157.798392 -173.418919 
L 157.890103 -175.006851 
L 158.009732 -176.594784 
L 158.149441 -178.182717 
L 158.300457 -179.77065 
L 158.453767 -181.358583 
L 158.600736 -182.946515 
L 158.733581 -184.534448 
L 158.845674 -186.122381 
L 158.931673 -187.710314 
L 158.987513 -189.298246 
L 159.010312 -190.886179 
L 158.998234 -192.474112 
L 158.950366 -194.062045 
L 158.866624 -195.649977 
L 158.7477 -197.23791 
L 158.59502 -198.825843 
L 158.410701 -200.413776 
L 158.197453 -202.001709 
L 157.958408 -203.589641 
L 157.696883 -205.177574 
L 157.416071 -206.765507 
L 157.118709 -208.35344 
L 156.806765 -209.941372 
L 156.481184 -211.529305 
L 156.141732 -213.117238 
L 155.786926 -214.705171 
L 155.414048 -216.293104 
L 155.019201 -217.881036 
L 154.597366 -219.468969 
L 154.142436 -221.056902 
L 153.647237 -222.644835 
L 153.103559 -224.232767 
L 152.502255 -225.8207 
L 151.833495 -227.408633 
L 151.087201 -228.996566 
L 150.253717 -230.584498 
L 149.324677 -232.172431 
L 148.294002 -233.760364 
L 147.158941 -235.348297 
L 145.921016 -236.93623 
L 144.586779 -238.524162 
L 143.168263 -240.112095 
L 141.683061 -241.700028 
L 140.153959 -243.287961 
L 138.608091 -244.875893 
L 137.075547 -246.463826 
L 135.587442 -248.051759 
L 134.173435 -249.639692 
L 132.858805 -251.227624 
L 131.661266 -252.815557 
L 130.587817 -254.40349 
L 129.632034 -255.991423 
L 128.772247 -257.579356 
L 127.971044 -259.167288 
L 127.176429 -260.755221 
L 126.324783 -262.343154 
L 125.345542 -263.931087 
L 124.167225 -265.519019 
L 122.724247 -267.106952 
L 120.963782 -268.694885 
L 118.851875 -270.282818 
L 116.378079 -271.870751 
L 113.558044 -273.458683 
L 110.433715 -275.046616 
L 107.071104 -276.634549 
L 103.555856 -278.222482 
L 99.987117 -279.810414 
L 96.470367 -281.398347 
L 93.110012 -282.98628 
L 90.002499 -284.574213 
L 87.230649 -286.162145 
L 84.859699 -287.750078 
L 82.935313 -289.338011 
L 81.483578 -290.925944 
L 80.512722 -292.513877 
L 80.016163 -294.101809 
L 79.97631 -295.689742 
L 80.368583 -297.277675 
L 81.165135 -298.865608 
L 82.337873 -300.45354 
L 83.860554 -302.041473 
L 85.709868 -303.629406 
L 87.865553 -305.217339 
L 90.30971 -306.805272 
L 93.025541 -308.393204 
L 95.99576 -309.981137 
L 99.20093 -311.56907 
L 102.617941 -313.157003 
L 106.218841 -314.744935 
L 109.970131 -316.332868 
L 113.832627 -317.920801 
L 117.761923 -319.508734 
L 121.709431 -321.096666 
L 125.623918 -322.684599 
L 129.453444 -324.272532 
L 133.147523 -325.860465 
L 136.659349 -327.448398 
L 182.376828 -327.448398 
L 182.376828 -327.448398 
L 185.888654 -325.860465 
L 189.582733 -324.272532 
L 193.412259 -322.684599 
L 197.326747 -321.096666 
L 201.274254 -319.508734 
L 205.203551 -317.920801 
L 209.066046 -316.332868 
L 212.817336 -314.744935 
L 216.418237 -313.157003 
L 219.835248 -311.56907 
L 223.040417 -309.981137 
L 226.010637 -308.393204 
L 228.726468 -306.805272 
L 231.170625 -305.217339 
L 233.326309 -303.629406 
L 235.175624 -302.041473 
L 236.698305 -300.45354 
L 237.871042 -298.865608 
L 238.667594 -297.277675 
L 239.059868 -295.689742 
L 239.020014 -294.101809 
L 238.523455 -292.513877 
L 237.5526 -290.925944 
L 236.100864 -289.338011 
L 234.176479 -287.750078 
L 231.805528 -286.162145 
L 229.033679 -284.574213 
L 225.926165 -282.98628 
L 222.56581 -281.398347 
L 219.049061 -279.810414 
L 215.480322 -278.222482 
L 211.965074 -276.634549 
L 208.602463 -275.046616 
L 205.478134 -273.458683 
L 202.658099 -271.870751 
L 200.184303 -270.282818 
L 198.072396 -268.694885 
L 196.311931 -267.106952 
L 194.868953 -265.519019 
L 193.690635 -263.931087 
L 192.711394 -262.343154 
L 191.859749 -260.755221 
L 191.065133 -259.167288 
L 190.26393 -257.579356 
L 189.404144 -255.991423 
L 188.448361 -254.40349 
L 187.374912 -252.815557 
L 186.177372 -251.227624 
L 184.862742 -249.639692 
L 183.448735 -248.051759 
L 181.96063 -246.463826 
L 180.428087 -244.875893 
L 178.882218 -243.287961 
L 177.353117 -241.700028 
L 175.867914 -240.112095 
L 174.449399 -238.524162 
L 173.115162 -236.93623 
L 171.877237 -235.348297 
L 170.742175 -233.760364 
L 169.711501 -232.172431 
L 168.782461 -230.584498 
L 167.948977 -228.996566 
L 167.202683 -227.408633 
L 166.533922 -225.8207 
L 165.932619 -224.232767 
L 165.38894 -222.644835 
L 164.893742 -221.056902 
L 164.438812 -219.468969 
L 164.016976 -217.881036 
L 163.622129 -216.293104 
L 163.249251 -214.705171 
L 162.894445 -213.117238 
L 162.554993 -211.529305 
L 162.229413 -209.941372 
L 161.917468 -208.35344 
L 161.620106 -206.765507 
L 161.339294 -205.177574 
L 161.07777 -203.589641 
L 160.838725 -202.001709 
L 160.625476 -200.413776 
L 160.441158 -198.825843 
L 160.288478 -197.23791 
L 160.169553 -195.649977 
L 160.085811 -194.062045 
L 160.037943 -192.474112 
L 160.025866 -190.886179 
L 160.048664 -189.298246 
L 160.104505 -187.710314 
L 160.190503 -186.122381 
L 160.302596 -184.534448 
L 160.435441 -182.946515 
L 160.582411 -181.358583 
L 160.735721 -179.77065 
L 160.886737 -178.182717 
L 161.026445 -176.594784 
L 161.146074 -175.006851 
L 161.237785 -173.418919 
L 161.295357 -171.830986 
L 161.314761 -170.243053 
z
" style="stroke: #515151; stroke-width: 1.25"/>
    </defs>
    <g clip-path="url(#p3b659d30fa)">
     <use xlink:href="#mc6f826985d" x="0" y="345.6" style="fill: #e1812c; stroke: #515151; stroke-width: 1.25"/>
    </g>
   </g>
   <g id="FillBetweenPolyCollection_2">
    <defs>
     <path id="mc090a25690" d="M 381.231276 -63.988843 
L 335.513797 -63.988843 
L 332.001971 -65.576776 
L 328.307892 -67.164708 
L 324.478366 -68.752641 
L 320.563878 -70.340574 
L 316.616371 -71.928507 
L 312.687074 -73.516439 
L 308.824579 -75.104372 
L 305.073289 -76.692305 
L 301.472388 -78.280238 
L 298.055377 -79.86817 
L 294.850208 -81.456103 
L 291.879988 -83.044036 
L 289.164157 -84.631969 
L 286.72 -86.219902 
L 284.564316 -87.807834 
L 282.715001 -89.395767 
L 281.19232 -90.9837 
L 280.019583 -92.571633 
L 279.223031 -94.159565 
L 278.830757 -95.747498 
L 278.870611 -97.335431 
L 279.36717 -98.923364 
L 280.338025 -100.511296 
L 281.789761 -102.099229 
L 283.714146 -103.687162 
L 286.085097 -105.275095 
L 288.856946 -106.863028 
L 291.96446 -108.45096 
L 295.324815 -110.038893 
L 298.841564 -111.626826 
L 302.410303 -113.214759 
L 305.925551 -114.802691 
L 309.288162 -116.390624 
L 312.412491 -117.978557 
L 315.232526 -119.56649 
L 317.706322 -121.154423 
L 319.818229 -122.742355 
L 321.578694 -124.330288 
L 323.021672 -125.918221 
L 324.19999 -127.506154 
L 325.179231 -129.094086 
L 326.030876 -130.682019 
L 326.825492 -132.269952 
L 327.626695 -133.857885 
L 328.486481 -135.445817 
L 329.442264 -137.03375 
L 330.515713 -138.621683 
L 331.713253 -140.209616 
L 333.027883 -141.797549 
L 334.44189 -143.385481 
L 335.929995 -144.973414 
L 337.462538 -146.561347 
L 339.008407 -148.14928 
L 340.537508 -149.737212 
L 342.022711 -151.325145 
L 343.441226 -152.913078 
L 344.775463 -154.501011 
L 346.013388 -156.088944 
L 347.14845 -157.676876 
L 348.179124 -159.264809 
L 349.108164 -160.852742 
L 349.941648 -162.440675 
L 350.687942 -164.028607 
L 351.356703 -165.61654 
L 351.958006 -167.204473 
L 352.501685 -168.792406 
L 352.996883 -170.380338 
L 353.451813 -171.968271 
L 353.873649 -173.556204 
L 354.268496 -175.144137 
L 354.641374 -176.73207 
L 354.99618 -178.320002 
L 355.335632 -179.907935 
L 355.661212 -181.495868 
L 355.973157 -183.083801 
L 356.270519 -184.671733 
L 356.551331 -186.259666 
L 356.812855 -187.847599 
L 357.0519 -189.435532 
L 357.265149 -191.023464 
L 357.449467 -192.611397 
L 357.602147 -194.19933 
L 357.721072 -195.787263 
L 357.804814 -197.375196 
L 357.852682 -198.963128 
L 357.864759 -200.551061 
L 357.841961 -202.138994 
L 357.78612 -203.726927 
L 357.700122 -205.314859 
L 357.588029 -206.902792 
L 357.455184 -208.490725 
L 357.308214 -210.078658 
L 357.154904 -211.666591 
L 357.003888 -213.254523 
L 356.86418 -214.842456 
L 356.744551 -216.430389 
L 356.65284 -218.018322 
L 356.595268 -219.606254 
L 356.575864 -221.194187 
L 360.169208 -221.194187 
L 360.169208 -221.194187 
L 360.149805 -219.606254 
L 360.092233 -218.018322 
L 360.000522 -216.430389 
L 359.880893 -214.842456 
L 359.741184 -213.254523 
L 359.590168 -211.666591 
L 359.436858 -210.078658 
L 359.289889 -208.490725 
L 359.157044 -206.902792 
L 359.044951 -205.314859 
L 358.958952 -203.726927 
L 358.903112 -202.138994 
L 358.880313 -200.551061 
L 358.892391 -198.963128 
L 358.940259 -197.375196 
L 359.024001 -195.787263 
L 359.142925 -194.19933 
L 359.295605 -192.611397 
L 359.479924 -191.023464 
L 359.693172 -189.435532 
L 359.932217 -187.847599 
L 360.193742 -186.259666 
L 360.474554 -184.671733 
L 360.771916 -183.083801 
L 361.08386 -181.495868 
L 361.409441 -179.907935 
L 361.748893 -178.320002 
L 362.103699 -176.73207 
L 362.476577 -175.144137 
L 362.871424 -173.556204 
L 363.293259 -171.968271 
L 363.748189 -170.380338 
L 364.243388 -168.792406 
L 364.787066 -167.204473 
L 365.38837 -165.61654 
L 366.05713 -164.028607 
L 366.803424 -162.440675 
L 367.636908 -160.852742 
L 368.565948 -159.264809 
L 369.596623 -157.676876 
L 370.731684 -156.088944 
L 371.969609 -154.501011 
L 373.303846 -152.913078 
L 374.722362 -151.325145 
L 376.207564 -149.737212 
L 377.736666 -148.14928 
L 379.282534 -146.561347 
L 380.815078 -144.973414 
L 382.303183 -143.385481 
L 383.71719 -141.797549 
L 385.03182 -140.209616 
L 386.229359 -138.621683 
L 387.302808 -137.03375 
L 388.258591 -135.445817 
L 389.118378 -133.857885 
L 389.919581 -132.269952 
L 390.714196 -130.682019 
L 391.565842 -129.094086 
L 392.545083 -127.506154 
L 393.7234 -125.918221 
L 395.166378 -124.330288 
L 396.926843 -122.742355 
L 399.03875 -121.154423 
L 401.512546 -119.56649 
L 404.332581 -117.978557 
L 407.45691 -116.390624 
L 410.819521 -114.802691 
L 414.334769 -113.214759 
L 417.903508 -111.626826 
L 421.420258 -110.038893 
L 424.780613 -108.45096 
L 427.888126 -106.863028 
L 430.659976 -105.275095 
L 433.030926 -103.687162 
L 434.955312 -102.099229 
L 436.407047 -100.511296 
L 437.377903 -98.923364 
L 437.874462 -97.335431 
L 437.914315 -95.747498 
L 437.522042 -94.159565 
L 436.72549 -92.571633 
L 435.552752 -90.9837 
L 434.030071 -89.395767 
L 432.180757 -87.807834 
L 430.025072 -86.219902 
L 427.580915 -84.631969 
L 424.865084 -83.044036 
L 421.894865 -81.456103 
L 418.689695 -79.86817 
L 415.272684 -78.280238 
L 411.671784 -76.692305 
L 407.920494 -75.104372 
L 404.057998 -73.516439 
L 400.128702 -71.928507 
L 396.181194 -70.340574 
L 392.266707 -68.752641 
L 388.437181 -67.164708 
L 384.743102 -65.576776 
L 381.231276 -63.988843 
z
" style="stroke: #515151; stroke-width: 1.25"/>
    </defs>
    <g clip-path="url(#p3b659d30fa)">
     <use xlink:href="#mc090a25690" x="0" y="345.6" style="fill: #e1812c; stroke: #515151; stroke-width: 1.25"/>
    </g>
   </g>
   <g id="matplotlib.axis_1">
    <g id="xtick_1">
     <g id="line2d_1">
      <defs>
       <path id="m0aa3dca612" d="M 0 0 
L 0 3.5 
" style="stroke: #000000; stroke-width: 0.8"/>
      </defs>
      <g>
       <use xlink:href="#m0aa3dca612" x="159.518089" y="294.784135" style="stroke: #000000; stroke-width: 0.8"/>
      </g>
     </g>
     <g id="text_1">
      <!-- Time -->
      <g transform="translate(137.672776 316.09976) scale(0.2 -0.2)">
       <defs>
        <path id="ArialMT-54" d="M 1659 0 
L 1659 4041 
L 150 4041 
L 150 4581 
L 3781 4581 
L 3781 4041 
L 2266 4041 
L 2266 0 
L 1659 0 
z
" transform="scale(0.015625)"/>
        <path id="ArialMT-69" d="M 425 3934 
L 425 4581 
L 988 4581 
L 988 3934 
L 425 3934 
z
M 425 0 
L 425 3319 
L 988 3319 
L 988 0 
L 425 0 
z
" transform="scale(0.015625)"/>
        <path id="ArialMT-6d" d="M 422 0 
L 422 3319 
L 925 3319 
L 925 2853 
Q 1081 3097 1340 3245 
Q 1600 3394 1931 3394 
Q 2300 3394 2536 3241 
Q 2772 3088 2869 2813 
Q 3263 3394 3894 3394 
Q 4388 3394 4653 3120 
Q 4919 2847 4919 2278 
L 4919 0 
L 4359 0 
L 4359 2091 
Q 4359 2428 4304 2576 
Q 4250 2725 4106 2815 
Q 3963 2906 3769 2906 
Q 3419 2906 3187 2673 
Q 2956 2441 2956 1928 
L 2956 0 
L 2394 0 
L 2394 2156 
Q 2394 2531 2256 2718 
Q 2119 2906 1806 2906 
Q 1569 2906 1367 2781 
Q 1166 2656 1075 2415 
Q 984 2175 984 1722 
L 984 0 
L 422 0 
z
" transform="scale(0.015625)"/>
        <path id="ArialMT-65" d="M 2694 1069 
L 3275 997 
Q 3138 488 2766 206 
Q 2394 -75 1816 -75 
Q 1088 -75 661 373 
Q 234 822 234 1631 
Q 234 2469 665 2931 
Q 1097 3394 1784 3394 
Q 2450 3394 2872 2941 
Q 3294 2488 3294 1666 
Q 3294 1616 3291 1516 
L 816 1516 
Q 847 969 1125 678 
Q 1403 388 1819 388 
Q 2128 388 2347 550 
Q 2566 713 2694 1069 
z
M 847 1978 
L 2700 1978 
Q 2663 2397 2488 2606 
Q 2219 2931 1791 2931 
Q 1403 2931 1139 2672 
Q 875 2413 847 1978 
z
" transform="scale(0.015625)"/>
       </defs>
       <use xlink:href="#ArialMT-54"/>
       <use xlink:href="#ArialMT-69" transform="translate(57.333984 0)"/>
       <use xlink:href="#ArialMT-6d" transform="translate(79.550781 0)"/>
       <use xlink:href="#ArialMT-65" transform="translate(162.851562 0)"/>
      </g>
     </g>
    </g>
    <g id="xtick_2">
     <g id="line2d_2">
      <g>
       <use xlink:href="#m0aa3dca612" x="358.372536" y="294.784135" style="stroke: #000000; stroke-width: 0.8"/>
      </g>
     </g>
     <g id="text_2">
      <!-- Body mass -->
      <g transform="translate(308.911599 316.09976) scale(0.2 -0.2)">
       <defs>
        <path id="ArialMT-42" d="M 469 0 
L 469 4581 
L 2188 4581 
Q 2713 4581 3030 4442 
Q 3347 4303 3526 4014 
Q 3706 3725 3706 3409 
Q 3706 3116 3547 2856 
Q 3388 2597 3066 2438 
Q 3481 2316 3704 2022 
Q 3928 1728 3928 1328 
Q 3928 1006 3792 729 
Q 3656 453 3456 303 
Q 3256 153 2954 76 
Q 2653 0 2216 0 
L 469 0 
z
M 1075 2656 
L 2066 2656 
Q 2469 2656 2644 2709 
Q 2875 2778 2992 2937 
Q 3109 3097 3109 3338 
Q 3109 3566 3000 3739 
Q 2891 3913 2687 3977 
Q 2484 4041 1991 4041 
L 1075 4041 
L 1075 2656 
z
M 1075 541 
L 2216 541 
Q 2509 541 2628 563 
Q 2838 600 2978 687 
Q 3119 775 3209 942 
Q 3300 1109 3300 1328 
Q 3300 1584 3169 1773 
Q 3038 1963 2805 2039 
Q 2572 2116 2134 2116 
L 1075 2116 
L 1075 541 
z
" transform="scale(0.015625)"/>
        <path id="ArialMT-6f" d="M 213 1659 
Q 213 2581 725 3025 
Q 1153 3394 1769 3394 
Q 2453 3394 2887 2945 
Q 3322 2497 3322 1706 
Q 3322 1066 3130 698 
Q 2938 331 2570 128 
Q 2203 -75 1769 -75 
Q 1072 -75 642 372 
Q 213 819 213 1659 
z
M 791 1659 
Q 791 1022 1069 705 
Q 1347 388 1769 388 
Q 2188 388 2466 706 
Q 2744 1025 2744 1678 
Q 2744 2294 2464 2611 
Q 2184 2928 1769 2928 
Q 1347 2928 1069 2612 
Q 791 2297 791 1659 
z
" transform="scale(0.015625)"/>
        <path id="ArialMT-64" d="M 2575 0 
L 2575 419 
Q 2259 -75 1647 -75 
Q 1250 -75 917 144 
Q 584 363 401 755 
Q 219 1147 219 1656 
Q 219 2153 384 2558 
Q 550 2963 881 3178 
Q 1213 3394 1622 3394 
Q 1922 3394 2156 3267 
Q 2391 3141 2538 2938 
L 2538 4581 
L 3097 4581 
L 3097 0 
L 2575 0 
z
M 797 1656 
Q 797 1019 1065 703 
Q 1334 388 1700 388 
Q 2069 388 2326 689 
Q 2584 991 2584 1609 
Q 2584 2291 2321 2609 
Q 2059 2928 1675 2928 
Q 1300 2928 1048 2622 
Q 797 2316 797 1656 
z
" transform="scale(0.015625)"/>
        <path id="ArialMT-79" d="M 397 -1278 
L 334 -750 
Q 519 -800 656 -800 
Q 844 -800 956 -737 
Q 1069 -675 1141 -563 
Q 1194 -478 1313 -144 
Q 1328 -97 1363 -6 
L 103 3319 
L 709 3319 
L 1400 1397 
Q 1534 1031 1641 628 
Q 1738 1016 1872 1384 
L 2581 3319 
L 3144 3319 
L 1881 -56 
Q 1678 -603 1566 -809 
Q 1416 -1088 1222 -1217 
Q 1028 -1347 759 -1347 
Q 597 -1347 397 -1278 
z
" transform="scale(0.015625)"/>
        <path id="ArialMT-20" transform="scale(0.015625)"/>
        <path id="ArialMT-61" d="M 2588 409 
Q 2275 144 1986 34 
Q 1697 -75 1366 -75 
Q 819 -75 525 192 
Q 231 459 231 875 
Q 231 1119 342 1320 
Q 453 1522 633 1644 
Q 813 1766 1038 1828 
Q 1203 1872 1538 1913 
Q 2219 1994 2541 2106 
Q 2544 2222 2544 2253 
Q 2544 2597 2384 2738 
Q 2169 2928 1744 2928 
Q 1347 2928 1158 2789 
Q 969 2650 878 2297 
L 328 2372 
Q 403 2725 575 2942 
Q 747 3159 1072 3276 
Q 1397 3394 1825 3394 
Q 2250 3394 2515 3294 
Q 2781 3194 2906 3042 
Q 3031 2891 3081 2659 
Q 3109 2516 3109 2141 
L 3109 1391 
Q 3109 606 3145 398 
Q 3181 191 3288 0 
L 2700 0 
Q 2613 175 2588 409 
z
M 2541 1666 
Q 2234 1541 1622 1453 
Q 1275 1403 1131 1340 
Q 988 1278 909 1158 
Q 831 1038 831 891 
Q 831 666 1001 516 
Q 1172 366 1500 366 
Q 1825 366 2078 508 
Q 2331 650 2450 897 
Q 2541 1088 2541 1459 
L 2541 1666 
z
" transform="scale(0.015625)"/>
        <path id="ArialMT-73" d="M 197 991 
L 753 1078 
Q 800 744 1014 566 
Q 1228 388 1613 388 
Q 2000 388 2187 545 
Q 2375 703 2375 916 
Q 2375 1106 2209 1216 
Q 2094 1291 1634 1406 
Q 1016 1563 777 1677 
Q 538 1791 414 1992 
Q 291 2194 291 2438 
Q 291 2659 392 2848 
Q 494 3038 669 3163 
Q 800 3259 1026 3326 
Q 1253 3394 1513 3394 
Q 1903 3394 2198 3281 
Q 2494 3169 2634 2976 
Q 2775 2784 2828 2463 
L 2278 2388 
Q 2241 2644 2061 2787 
Q 1881 2931 1553 2931 
Q 1166 2931 1000 2803 
Q 834 2675 834 2503 
Q 834 2394 903 2306 
Q 972 2216 1119 2156 
Q 1203 2125 1616 2013 
Q 2213 1853 2448 1751 
Q 2684 1650 2818 1456 
Q 2953 1263 2953 975 
Q 2953 694 2789 445 
Q 2625 197 2315 61 
Q 2006 -75 1616 -75 
Q 969 -75 630 194 
Q 291 463 197 991 
z
" transform="scale(0.015625)"/>
       </defs>
       <use xlink:href="#ArialMT-42"/>
       <use xlink:href="#ArialMT-6f" transform="translate(66.699219 0)"/>
       <use xlink:href="#ArialMT-64" transform="translate(122.314453 0)"/>
       <use xlink:href="#ArialMT-79" transform="translate(177.929688 0)"/>
       <use xlink:href="#ArialMT-20" transform="translate(227.929688 0)"/>
       <use xlink:href="#ArialMT-6d" transform="translate(255.712891 0)"/>
       <use xlink:href="#ArialMT-61" transform="translate(339.013672 0)"/>
       <use xlink:href="#ArialMT-73" transform="translate(394.628906 0)"/>
       <use xlink:href="#ArialMT-73" transform="translate(444.628906 0)"/>
      </g>
     </g>
    </g>
    <g id="text_3">
     <!-- Predictor -->
     <g transform="translate(218.932813 338.62476) scale(0.2 -0.2)">
      <defs>
       <path id="ArialMT-50" d="M 494 0 
L 494 4581 
L 2222 4581 
Q 2678 4581 2919 4538 
Q 3256 4481 3484 4323 
Q 3713 4166 3852 3881 
Q 3991 3597 3991 3256 
Q 3991 2672 3619 2267 
Q 3247 1863 2275 1863 
L 1100 1863 
L 1100 0 
L 494 0 
z
M 1100 2403 
L 2284 2403 
Q 2872 2403 3119 2622 
Q 3366 2841 3366 3238 
Q 3366 3525 3220 3729 
Q 3075 3934 2838 4000 
Q 2684 4041 2272 4041 
L 1100 4041 
L 1100 2403 
z
" transform="scale(0.015625)"/>
       <path id="ArialMT-72" d="M 416 0 
L 416 3319 
L 922 3319 
L 922 2816 
Q 1116 3169 1280 3281 
Q 1444 3394 1641 3394 
Q 1925 3394 2219 3213 
L 2025 2691 
Q 1819 2813 1613 2813 
Q 1428 2813 1281 2702 
Q 1134 2591 1072 2394 
Q 978 2094 978 1738 
L 978 0 
L 416 0 
z
" transform="scale(0.015625)"/>
       <path id="ArialMT-63" d="M 2588 1216 
L 3141 1144 
Q 3050 572 2676 248 
Q 2303 -75 1759 -75 
Q 1078 -75 664 370 
Q 250 816 250 1647 
Q 250 2184 428 2587 
Q 606 2991 970 3192 
Q 1334 3394 1763 3394 
Q 2303 3394 2647 3120 
Q 2991 2847 3088 2344 
L 2541 2259 
Q 2463 2594 2264 2762 
Q 2066 2931 1784 2931 
Q 1359 2931 1093 2626 
Q 828 2322 828 1663 
Q 828 994 1084 691 
Q 1341 388 1753 388 
Q 2084 388 2306 591 
Q 2528 794 2588 1216 
z
" transform="scale(0.015625)"/>
       <path id="ArialMT-74" d="M 1650 503 
L 1731 6 
Q 1494 -44 1306 -44 
Q 1000 -44 831 53 
Q 663 150 594 308 
Q 525 466 525 972 
L 525 2881 
L 113 2881 
L 113 3319 
L 525 3319 
L 525 4141 
L 1084 4478 
L 1084 3319 
L 1650 3319 
L 1650 2881 
L 1084 2881 
L 1084 941 
Q 1084 700 1114 631 
Q 1144 563 1211 522 
Q 1278 481 1403 481 
Q 1497 481 1650 503 
z
" transform="scale(0.015625)"/>
      </defs>
      <use xlink:href="#ArialMT-50"/>
      <use xlink:href="#ArialMT-72" transform="translate(66.699219 0)"/>
      <use xlink:href="#ArialMT-65" transform="translate(100 0)"/>
      <use xlink:href="#ArialMT-64" transform="translate(155.615234 0)"/>
      <use xlink:href="#ArialMT-69" transform="translate(211.230469 0)"/>
      <use xlink:href="#ArialMT-63" transform="translate(233.447266 0)"/>
      <use xlink:href="#ArialMT-74" transform="translate(283.447266 0)"/>
      <use xlink:href="#ArialMT-6f" transform="translate(311.230469 0)"/>
      <use xlink:href="#ArialMT-72" transform="translate(366.845703 0)"/>
     </g>
    </g>
   </g>
   <g id="matplotlib.axis_2">
    <g id="ytick_1">
     <g id="line2d_3">
      <defs>
       <path id="mcde3f5b5b6" d="M 0 0 
L -3.5 0 
" style="stroke: #000000; stroke-width: 0.8"/>
      </defs>
      <g>
       <use xlink:href="#mcde3f5b5b6" x="60.090865" y="289.597251" style="stroke: #000000; stroke-width: 0.8"/>
      </g>
     </g>
     <g id="text_4">
      <!-- 0.2 -->
      <g transform="translate(25.290865 296.755063) scale(0.2 -0.2)">
       <defs>
        <path id="ArialMT-30" d="M 266 2259 
Q 266 3072 433 3567 
Q 600 4063 929 4331 
Q 1259 4600 1759 4600 
Q 2128 4600 2406 4451 
Q 2684 4303 2865 4023 
Q 3047 3744 3150 3342 
Q 3253 2941 3253 2259 
Q 3253 1453 3087 958 
Q 2922 463 2592 192 
Q 2263 -78 1759 -78 
Q 1097 -78 719 397 
Q 266 969 266 2259 
z
M 844 2259 
Q 844 1131 1108 757 
Q 1372 384 1759 384 
Q 2147 384 2411 759 
Q 2675 1134 2675 2259 
Q 2675 3391 2411 3762 
Q 2147 4134 1753 4134 
Q 1366 4134 1134 3806 
Q 844 3388 844 2259 
z
" transform="scale(0.015625)"/>
        <path id="ArialMT-2e" d="M 581 0 
L 581 641 
L 1222 641 
L 1222 0 
L 581 0 
z
" transform="scale(0.015625)"/>
        <path id="ArialMT-32" d="M 3222 541 
L 3222 0 
L 194 0 
Q 188 203 259 391 
Q 375 700 629 1000 
Q 884 1300 1366 1694 
Q 2113 2306 2375 2664 
Q 2638 3022 2638 3341 
Q 2638 3675 2398 3904 
Q 2159 4134 1775 4134 
Q 1369 4134 1125 3890 
Q 881 3647 878 3216 
L 300 3275 
Q 359 3922 746 4261 
Q 1134 4600 1788 4600 
Q 2447 4600 2831 4234 
Q 3216 3869 3216 3328 
Q 3216 3053 3103 2787 
Q 2991 2522 2730 2228 
Q 2469 1934 1863 1422 
Q 1356 997 1212 845 
Q 1069 694 975 541 
L 3222 541 
z
" transform="scale(0.015625)"/>
       </defs>
       <use xlink:href="#ArialMT-30"/>
       <use xlink:href="#ArialMT-2e" transform="translate(55.615234 0)"/>
       <use xlink:href="#ArialMT-32" transform="translate(83.398438 0)"/>
      </g>
     </g>
    </g>
    <g id="ytick_2">
     <g id="line2d_4">
      <g>
       <use xlink:href="#mcde3f5b5b6" x="60.090865" y="243.025294" style="stroke: #000000; stroke-width: 0.8"/>
      </g>
     </g>
     <g id="text_5">
      <!-- 0.3 -->
      <g transform="translate(25.290865 250.183106) scale(0.2 -0.2)">
       <defs>
        <path id="ArialMT-33" d="M 269 1209 
L 831 1284 
Q 928 806 1161 595 
Q 1394 384 1728 384 
Q 2125 384 2398 659 
Q 2672 934 2672 1341 
Q 2672 1728 2419 1979 
Q 2166 2231 1775 2231 
Q 1616 2231 1378 2169 
L 1441 2663 
Q 1497 2656 1531 2656 
Q 1891 2656 2178 2843 
Q 2466 3031 2466 3422 
Q 2466 3731 2256 3934 
Q 2047 4138 1716 4138 
Q 1388 4138 1169 3931 
Q 950 3725 888 3313 
L 325 3413 
Q 428 3978 793 4289 
Q 1159 4600 1703 4600 
Q 2078 4600 2393 4439 
Q 2709 4278 2876 4000 
Q 3044 3722 3044 3409 
Q 3044 3113 2884 2869 
Q 2725 2625 2413 2481 
Q 2819 2388 3044 2092 
Q 3269 1797 3269 1353 
Q 3269 753 2831 336 
Q 2394 -81 1725 -81 
Q 1122 -81 723 278 
Q 325 638 269 1209 
z
" transform="scale(0.015625)"/>
       </defs>
       <use xlink:href="#ArialMT-30"/>
       <use xlink:href="#ArialMT-2e" transform="translate(55.615234 0)"/>
       <use xlink:href="#ArialMT-33" transform="translate(83.398438 0)"/>
      </g>
     </g>
    </g>
    <g id="ytick_3">
     <g id="line2d_5">
      <g>
       <use xlink:href="#mcde3f5b5b6" x="60.090865" y="196.453337" style="stroke: #000000; stroke-width: 0.8"/>
      </g>
     </g>
     <g id="text_6">
      <!-- 0.4 -->
      <g transform="translate(25.290865 203.611149) scale(0.2 -0.2)">
       <defs>
        <path id="ArialMT-34" d="M 2069 0 
L 2069 1097 
L 81 1097 
L 81 1613 
L 2172 4581 
L 2631 4581 
L 2631 1613 
L 3250 1613 
L 3250 1097 
L 2631 1097 
L 2631 0 
L 2069 0 
z
M 2069 1613 
L 2069 3678 
L 634 1613 
L 2069 1613 
z
" transform="scale(0.015625)"/>
       </defs>
       <use xlink:href="#ArialMT-30"/>
       <use xlink:href="#ArialMT-2e" transform="translate(55.615234 0)"/>
       <use xlink:href="#ArialMT-34" transform="translate(83.398438 0)"/>
      </g>
     </g>
    </g>
    <g id="ytick_4">
     <g id="line2d_6">
      <g>
       <use xlink:href="#mcde3f5b5b6" x="60.090865" y="149.88138" style="stroke: #000000; stroke-width: 0.8"/>
      </g>
     </g>
     <g id="text_7">
      <!-- 0.5 -->
      <g transform="translate(25.290865 157.039192) scale(0.2 -0.2)">
       <defs>
        <path id="ArialMT-35" d="M 266 1200 
L 856 1250 
Q 922 819 1161 601 
Q 1400 384 1738 384 
Q 2144 384 2425 690 
Q 2706 997 2706 1503 
Q 2706 1984 2436 2262 
Q 2166 2541 1728 2541 
Q 1456 2541 1237 2417 
Q 1019 2294 894 2097 
L 366 2166 
L 809 4519 
L 3088 4519 
L 3088 3981 
L 1259 3981 
L 1013 2750 
Q 1425 3038 1878 3038 
Q 2478 3038 2890 2622 
Q 3303 2206 3303 1553 
Q 3303 931 2941 478 
Q 2500 -78 1738 -78 
Q 1113 -78 717 272 
Q 322 622 266 1200 
z
" transform="scale(0.015625)"/>
       </defs>
       <use xlink:href="#ArialMT-30"/>
       <use xlink:href="#ArialMT-2e" transform="translate(55.615234 0)"/>
       <use xlink:href="#ArialMT-35" transform="translate(83.398438 0)"/>
      </g>
     </g>
    </g>
    <g id="ytick_5">
     <g id="line2d_7">
      <g>
       <use xlink:href="#mcde3f5b5b6" x="60.090865" y="103.309423" style="stroke: #000000; stroke-width: 0.8"/>
      </g>
     </g>
     <g id="text_8">
      <!-- 0.6 -->
      <g transform="translate(25.290865 110.467235) scale(0.2 -0.2)">
       <defs>
        <path id="ArialMT-36" d="M 3184 3459 
L 2625 3416 
Q 2550 3747 2413 3897 
Q 2184 4138 1850 4138 
Q 1581 4138 1378 3988 
Q 1113 3794 959 3422 
Q 806 3050 800 2363 
Q 1003 2672 1297 2822 
Q 1591 2972 1913 2972 
Q 2475 2972 2870 2558 
Q 3266 2144 3266 1488 
Q 3266 1056 3080 686 
Q 2894 316 2569 119 
Q 2244 -78 1831 -78 
Q 1128 -78 684 439 
Q 241 956 241 2144 
Q 241 3472 731 4075 
Q 1159 4600 1884 4600 
Q 2425 4600 2770 4297 
Q 3116 3994 3184 3459 
z
M 888 1484 
Q 888 1194 1011 928 
Q 1134 663 1356 523 
Q 1578 384 1822 384 
Q 2178 384 2434 671 
Q 2691 959 2691 1453 
Q 2691 1928 2437 2201 
Q 2184 2475 1800 2475 
Q 1419 2475 1153 2201 
Q 888 1928 888 1484 
z
" transform="scale(0.015625)"/>
       </defs>
       <use xlink:href="#ArialMT-30"/>
       <use xlink:href="#ArialMT-2e" transform="translate(55.615234 0)"/>
       <use xlink:href="#ArialMT-36" transform="translate(83.398438 0)"/>
      </g>
     </g>
    </g>
    <g id="ytick_6">
     <g id="line2d_8">
      <g>
       <use xlink:href="#mcde3f5b5b6" x="60.090865" y="56.737466" style="stroke: #000000; stroke-width: 0.8"/>
      </g>
     </g>
     <g id="text_9">
      <!-- 0.7 -->
      <g transform="translate(25.290865 63.895278) scale(0.2 -0.2)">
       <defs>
        <path id="ArialMT-37" d="M 303 3981 
L 303 4522 
L 3269 4522 
L 3269 4084 
Q 2831 3619 2401 2847 
Q 1972 2075 1738 1259 
Q 1569 684 1522 0 
L 944 0 
Q 953 541 1156 1306 
Q 1359 2072 1739 2783 
Q 2119 3494 2547 3981 
L 303 3981 
z
" transform="scale(0.015625)"/>
       </defs>
       <use xlink:href="#ArialMT-30"/>
       <use xlink:href="#ArialMT-2e" transform="translate(55.615234 0)"/>
       <use xlink:href="#ArialMT-37" transform="translate(83.398438 0)"/>
      </g>
     </g>
    </g>
    <g id="ytick_7">
     <g id="line2d_9">
      <g>
       <use xlink:href="#mcde3f5b5b6" x="60.090865" y="10.165509" style="stroke: #000000; stroke-width: 0.8"/>
      </g>
     </g>
     <g id="text_10">
      <!-- 0.8 -->
      <g transform="translate(25.290865 17.323321) scale(0.2 -0.2)">
       <defs>
        <path id="ArialMT-38" d="M 1131 2484 
Q 781 2613 612 2850 
Q 444 3088 444 3419 
Q 444 3919 803 4259 
Q 1163 4600 1759 4600 
Q 2359 4600 2725 4251 
Q 3091 3903 3091 3403 
Q 3091 3084 2923 2848 
Q 2756 2613 2416 2484 
Q 2838 2347 3058 2040 
Q 3278 1734 3278 1309 
Q 3278 722 2862 322 
Q 2447 -78 1769 -78 
Q 1091 -78 675 323 
Q 259 725 259 1325 
Q 259 1772 486 2073 
Q 713 2375 1131 2484 
z
M 1019 3438 
Q 1019 3113 1228 2906 
Q 1438 2700 1772 2700 
Q 2097 2700 2305 2904 
Q 2513 3109 2513 3406 
Q 2513 3716 2298 3927 
Q 2084 4138 1766 4138 
Q 1444 4138 1231 3931 
Q 1019 3725 1019 3438 
z
M 838 1322 
Q 838 1081 952 856 
Q 1066 631 1291 507 
Q 1516 384 1775 384 
Q 2178 384 2440 643 
Q 2703 903 2703 1303 
Q 2703 1709 2433 1975 
Q 2163 2241 1756 2241 
Q 1359 2241 1098 1978 
Q 838 1716 838 1322 
z
" transform="scale(0.015625)"/>
       </defs>
       <use xlink:href="#ArialMT-30"/>
       <use xlink:href="#ArialMT-2e" transform="translate(55.615234 0)"/>
       <use xlink:href="#ArialMT-38" transform="translate(83.398438 0)"/>
      </g>
     </g>
    </g>
    <g id="text_11">
     <!-- Importance -->
     <g transform="translate(17.315865 199.901692) rotate(-90) scale(0.2 -0.2)">
      <defs>
       <path id="ArialMT-49" d="M 597 0 
L 597 4581 
L 1203 4581 
L 1203 0 
L 597 0 
z
" transform="scale(0.015625)"/>
       <path id="ArialMT-70" d="M 422 -1272 
L 422 3319 
L 934 3319 
L 934 2888 
Q 1116 3141 1344 3267 
Q 1572 3394 1897 3394 
Q 2322 3394 2647 3175 
Q 2972 2956 3137 2557 
Q 3303 2159 3303 1684 
Q 3303 1175 3120 767 
Q 2938 359 2589 142 
Q 2241 -75 1856 -75 
Q 1575 -75 1351 44 
Q 1128 163 984 344 
L 984 -1272 
L 422 -1272 
z
M 931 1641 
Q 931 1000 1190 694 
Q 1450 388 1819 388 
Q 2194 388 2461 705 
Q 2728 1022 2728 1688 
Q 2728 2322 2467 2637 
Q 2206 2953 1844 2953 
Q 1484 2953 1207 2617 
Q 931 2281 931 1641 
z
" transform="scale(0.015625)"/>
       <path id="ArialMT-6e" d="M 422 0 
L 422 3319 
L 928 3319 
L 928 2847 
Q 1294 3394 1984 3394 
Q 2284 3394 2536 3286 
Q 2788 3178 2913 3003 
Q 3038 2828 3088 2588 
Q 3119 2431 3119 2041 
L 3119 0 
L 2556 0 
L 2556 2019 
Q 2556 2363 2490 2533 
Q 2425 2703 2258 2804 
Q 2091 2906 1866 2906 
Q 1506 2906 1245 2678 
Q 984 2450 984 1813 
L 984 0 
L 422 0 
z
" transform="scale(0.015625)"/>
      </defs>
      <use xlink:href="#ArialMT-49"/>
      <use xlink:href="#ArialMT-6d" transform="translate(27.783203 0)"/>
      <use xlink:href="#ArialMT-70" transform="translate(111.083984 0)"/>
      <use xlink:href="#ArialMT-6f" transform="translate(166.699219 0)"/>
      <use xlink:href="#ArialMT-72" transform="translate(222.314453 0)"/>
      <use xlink:href="#ArialMT-74" transform="translate(255.615234 0)"/>
      <use xlink:href="#ArialMT-61" transform="translate(283.398438 0)"/>
      <use xlink:href="#ArialMT-6e" transform="translate(339.013672 0)"/>
      <use xlink:href="#ArialMT-63" transform="translate(394.628906 0)"/>
      <use xlink:href="#ArialMT-65" transform="translate(444.628906 0)"/>
     </g>
    </g>
   </g>
   <g id="line2d_10">
    <path d="M 159.518089 105.827852 
L 159.518089 18.151602 
" clip-path="url(#p3b659d30fa)" style="fill: none; stroke: #515151; stroke-width: 1.875; stroke-linecap: square"/>
   </g>
   <g id="line2d_11">
    <path d="M 159.518089 70.329396 
L 159.518089 41.046393 
" clip-path="url(#p3b659d30fa)" style="fill: none; stroke: #515151; stroke-width: 5.625; stroke-linecap: square"/>
   </g>
   <g id="line2d_12">
    <path d="M 159.518089 55.355509 
" clip-path="url(#p3b659d30fa)" style="fill: none; stroke: #515151; stroke-width: 4; stroke-linecap: square"/>
    <defs>
     <path id="me0cb739586" d="M 2.34375 0 
L -2.34375 -0 
" style="stroke: #ffffff; stroke-width: 1.125"/>
    </defs>
    <g clip-path="url(#p3b659d30fa)">
     <use xlink:href="#me0cb739586" x="159.518089" y="55.355509" style="fill: #ffffff; stroke: #ffffff; stroke-width: 1.125"/>
    </g>
   </g>
   <g id="line2d_13">
    <path d="M 358.372536 281.611157 
L 358.372536 193.934908 
" clip-path="url(#p3b659d30fa)" style="fill: none; stroke: #515151; stroke-width: 1.875; stroke-linecap: square"/>
   </g>
   <g id="line2d_14">
    <path d="M 358.372536 258.716367 
L 358.372536 229.433364 
" clip-path="url(#p3b659d30fa)" style="fill: none; stroke: #515151; stroke-width: 5.625; stroke-linecap: square"/>
   </g>
   <g id="line2d_15">
    <path d="M 358.372536 244.40725 
" clip-path="url(#p3b659d30fa)" style="fill: none; stroke: #515151; stroke-width: 4; stroke-linecap: square"/>
    <g clip-path="url(#p3b659d30fa)">
     <use xlink:href="#me0cb739586" x="358.372536" y="244.40725" style="fill: #ffffff; stroke: #ffffff; stroke-width: 1.125"/>
    </g>
   </g>
   <g id="patch_3">
    <path d="M 60.090865 294.784135 
L 60.090865 4.978625 
" style="fill: none; stroke: #000000; stroke-width: 0.8; stroke-linejoin: miter; stroke-linecap: square"/>
   </g>
   <g id="patch_4">
    <path d="M 457.79976 294.784135 
L 457.79976 4.978625 
" style="fill: none; stroke: #000000; stroke-width: 0.8; stroke-linejoin: miter; stroke-linecap: square"/>
   </g>
   <g id="patch_5">
    <path d="M 60.090865 294.784135 
L 457.79976 294.784135 
" style="fill: none; stroke: #000000; stroke-width: 0.8; stroke-linejoin: miter; stroke-linecap: square"/>
   </g>
   <g id="patch_6">
    <path d="M 60.090865 4.978625 
L 457.79976 4.978625 
" style="fill: none; stroke: #000000; stroke-width: 0.8; stroke-linejoin: miter; stroke-linecap: square"/>
   </g>
  </g>
 </g>
 <defs>
  <clipPath id="p3b659d30fa">
   <rect x="60.090865" y="4.978625" width="397.708895" height="289.80551"/>
  </clipPath>
 </defs>
</svg>
