<?xml version="1.0" encoding="utf-8" standalone="no"?>
<!DOCTYPE svg PUBLIC "-//W3C//DTD SVG 1.1//EN"
  "http://www.w3.org/Graphics/SVG/1.1/DTD/svg11.dtd">
<svg xmlns:xlink="http://www.w3.org/1999/xlink" width="460.8pt" height="345.6pt" viewBox="0 0 460.8 345.6" xmlns="http://www.w3.org/2000/svg" version="1.1">
 <metadata>
  <rdf:RDF xmlns:dc="http://purl.org/dc/elements/1.1/" xmlns:cc="http://creativecommons.org/ns#" xmlns:rdf="http://www.w3.org/1999/02/22-rdf-syntax-ns#">
   <cc:Work>
    <dc:type rdf:resource="http://purl.org/dc/dcmitype/StillImage"/>
    <dc:date>2025-12-29T00:48:25.344403</dc:date>
    <dc:format>image/svg+xml</dc:format>
    <dc:creator>
     <cc:Agent>
      <dc:title>Matplotlib v3.10.7, https://matplotlib.org/</dc:title>
     </cc:Agent>
    </dc:creator>
   </cc:Work>
  </rdf:RDF>
 </metadata>
 <defs>
  <style type="text/css">*{stroke-linejoin: round; stroke-linecap: butt}</style>
 </defs>
 <g id="figure_1">
  <g id="patch_1">
   <path d="M 0 345.6 
L 460.8 345.6 
L 460.8 0 
L 0 0 
z
" style="fill: #ffffff"/>
  </g>
  <g id="axes_1">
   <g id="patch_2">
    <path d="M 60.090865 294.784135 
L 457.79976 294.784135 
L 457.79976 3.00024 
L 60.090865 3.00024 
z
" style="fill: #ffffff"/>
   </g>
   <g id="FillBetweenPolyCollection_1">
    <defs>
     <path id="m994a9943ee" d="M 163.800972 -270.374434 
L 155.235206 -270.374434 
L 154.805014 -270.970014 
L 154.349621 -271.565594 
L 153.868417 -272.161174 
L 153.361162 -272.756754 
L 152.828134 -273.352334 
L 152.270237 -273.947914 
L 151.689076 -274.543494 
L 151.086963 -275.139074 
L 150.466868 -275.734654 
L 149.832303 -276.330234 
L 149.18716 -276.925814 
L 148.535495 -277.521394 
L 147.881292 -278.116974 
L 147.228212 -278.712554 
L 146.579343 -279.308134 
L 145.936975 -279.903714 
L 145.302396 -280.499294 
L 144.67573 -281.094874 
L 144.055822 -281.690454 
L 143.440165 -282.286034 
L 142.824886 -282.881614 
L 142.204779 -283.477194 
L 141.573399 -284.072774 
L 140.923208 -284.668354 
L 140.245778 -285.263934 
L 139.532048 -285.859514 
L 138.772625 -286.455094 
L 137.958122 -287.050674 
L 137.079528 -287.646254 
L 136.128564 -288.241834 
L 135.098037 -288.837414 
L 133.982126 -289.432994 
L 132.776609 -290.028574 
L 131.478982 -290.624154 
L 130.088464 -291.219734 
L 128.605879 -291.815314 
L 127.03343 -292.410894 
L 125.374379 -293.006474 
L 123.632675 -293.602054 
L 121.812592 -294.197635 
L 119.918416 -294.793215 
L 117.954253 -295.388795 
L 115.923995 -295.984375 
L 113.831481 -296.579955 
L 111.680851 -297.175535 
L 109.477077 -297.771115 
L 107.226607 -298.366695 
L 104.938058 -298.962275 
L 102.622857 -299.557855 
L 100.295746 -300.153435 
L 97.975056 -300.749015 
L 95.682688 -301.344595 
L 93.443778 -301.940175 
L 91.286039 -302.535755 
L 89.23883 -303.131335 
L 87.332024 -303.726915 
L 85.594773 -304.322495 
L 84.054268 -304.918075 
L 82.734602 -305.513655 
L 81.655818 -306.109235 
L 80.833199 -306.704815 
L 80.276825 -307.300395 
L 79.9914 -307.895975 
L 79.97631 -308.491555 
L 80.225881 -309.087135 
L 80.72977 -309.682715 
L 81.473447 -310.278295 
L 82.438725 -310.873875 
L 83.604319 -311.469455 
L 84.94641 -312.065035 
L 86.439244 -312.660615 
L 88.055751 -313.256195 
L 89.768217 -313.851775 
L 91.549009 -314.447355 
L 93.371361 -315.042935 
L 95.210189 -315.638515 
L 97.042925 -316.234095 
L 98.850311 -316.829675 
L 100.617116 -317.425255 
L 102.332713 -318.020835 
L 103.99147 -318.616415 
L 105.592921 -319.211995 
L 107.141667 -319.807575 
L 108.647019 -320.403155 
L 110.122374 -320.998735 
L 111.584339 -321.594315 
L 113.051664 -322.189895 
L 114.544014 -322.785475 
L 116.080666 -323.381055 
L 117.679196 -323.976636 
L 119.35424 -324.572216 
L 121.116409 -325.167796 
L 122.97143 -325.763376 
L 124.919576 -326.358956 
L 126.955422 -326.954536 
L 129.067959 -327.550116 
L 131.241044 -328.145696 
L 133.454172 -328.741276 
L 135.683508 -329.336856 
L 183.35267 -329.336856 
L 183.35267 -329.336856 
L 185.582005 -328.741276 
L 187.795134 -328.145696 
L 189.968219 -327.550116 
L 192.080756 -326.954536 
L 194.116602 -326.358956 
L 196.064747 -325.763376 
L 197.919768 -325.167796 
L 199.681937 -324.572216 
L 201.356981 -323.976636 
L 202.955511 -323.381055 
L 204.492164 -322.785475 
L 205.984514 -322.189895 
L 207.451839 -321.594315 
L 208.913804 -320.998735 
L 210.389158 -320.403155 
L 211.894511 -319.807575 
L 213.443256 -319.211995 
L 215.044707 -318.616415 
L 216.703465 -318.020835 
L 218.419061 -317.425255 
L 220.185866 -316.829675 
L 221.993252 -316.234095 
L 223.825988 -315.638515 
L 225.664816 -315.042935 
L 227.487168 -314.447355 
L 229.26796 -313.851775 
L 230.980426 -313.256195 
L 232.596933 -312.660615 
L 234.089768 -312.065035 
L 235.431859 -311.469455 
L 236.597452 -310.873875 
L 237.56273 -310.278295 
L 238.306407 -309.682715 
L 238.810296 -309.087135 
L 239.059868 -308.491555 
L 239.044778 -307.895975 
L 238.759353 -307.300395 
L 238.202979 -306.704815 
L 237.38036 -306.109235 
L 236.301576 -305.513655 
L 234.981909 -304.918075 
L 233.441404 -304.322495 
L 231.704153 -303.726915 
L 229.797348 -303.131335 
L 227.750139 -302.535755 
L 225.592399 -301.940175 
L 223.35349 -301.344595 
L 221.061122 -300.749015 
L 218.740432 -300.153435 
L 216.413321 -299.557855 
L 214.09812 -298.962275 
L 211.80957 -298.366695 
L 209.5591 -297.771115 
L 207.355326 -297.175535 
L 205.204697 -296.579955 
L 203.112182 -295.984375 
L 201.081924 -295.388795 
L 199.117761 -294.793215 
L 197.223586 -294.197635 
L 195.403503 -293.602054 
L 193.661799 -293.006474 
L 192.002747 -292.410894 
L 190.430298 -291.815314 
L 188.947713 -291.219734 
L 187.557195 -290.624154 
L 186.259568 -290.028574 
L 185.054052 -289.432994 
L 183.938141 -288.837414 
L 182.907613 -288.241834 
L 181.95665 -287.646254 
L 181.078055 -287.050674 
L 180.263553 -286.455094 
L 179.504129 -285.859514 
L 178.790399 -285.263934 
L 178.11297 -284.668354 
L 177.462779 -284.072774 
L 176.831399 -283.477194 
L 176.211292 -282.881614 
L 175.596012 -282.286034 
L 174.980355 -281.690454 
L 174.360447 -281.094874 
L 173.733782 -280.499294 
L 173.099203 -279.903714 
L 172.456835 -279.308134 
L 171.807966 -278.712554 
L 171.154885 -278.116974 
L 170.500682 -277.521394 
L 169.849017 -276.925814 
L 169.203874 -276.330234 
L 168.56931 -275.734654 
L 167.949214 -275.139074 
L 167.347101 -274.543494 
L 166.76594 -273.947914 
L 166.208044 -273.352334 
L 165.675015 -272.756754 
L 165.16776 -272.161174 
L 164.686556 -271.565594 
L 164.231163 -270.970014 
L 163.800972 -270.374434 
z
" style="stroke: #3d3d3d; stroke-width: 1.25"/>
    </defs>
    <g clip-path="url(#p2b77bbf914)">
     <use xlink:href="#m994a9943ee" x="0" y="345.6" style="fill: #3a923a; stroke: #3d3d3d; stroke-width: 1.25"/>
    </g>
   </g>
   <g id="FillBetweenPolyCollection_2">
    <defs>
     <path id="m163feaa29c" d="M 382.207117 -64.078769 
L 334.537955 -64.078769 
L 332.30862 -64.674349 
L 330.095491 -65.269929 
L 327.922406 -65.865509 
L 325.809869 -66.461089 
L 323.774023 -67.056669 
L 321.825878 -67.652249 
L 319.970857 -68.247829 
L 318.208688 -68.843409 
L 316.533644 -69.438989 
L 314.935114 -70.03457 
L 313.398461 -70.63015 
L 311.906111 -71.22573 
L 310.438786 -71.82131 
L 308.976821 -72.41689 
L 307.501467 -73.01247 
L 305.996114 -73.60805 
L 304.447369 -74.20363 
L 302.845918 -74.79921 
L 301.18716 -75.39479 
L 299.471564 -75.99037 
L 297.704759 -76.58595 
L 295.897373 -77.18153 
L 294.064637 -77.77711 
L 292.225809 -78.37269 
L 290.403457 -78.96827 
L 288.622665 -79.56385 
L 286.910199 -80.15943 
L 285.293692 -80.75501 
L 283.800857 -81.35059 
L 282.458766 -81.94617 
L 281.293173 -82.54175 
L 280.327895 -83.13733 
L 279.584218 -83.73291 
L 279.080329 -84.32849 
L 278.830757 -84.92407 
L 278.845847 -85.51965 
L 279.131272 -86.11523 
L 279.687646 -86.71081 
L 280.510265 -87.30639 
L 281.589049 -87.90197 
L 282.908716 -88.49755 
L 284.449221 -89.09313 
L 286.186472 -89.68871 
L 288.093277 -90.28429 
L 290.140486 -90.87987 
L 292.298226 -91.47545 
L 294.537135 -92.07103 
L 296.829503 -92.66661 
L 299.150193 -93.26219 
L 301.477304 -93.85777 
L 303.792505 -94.45335 
L 306.081055 -95.04893 
L 308.331525 -95.64451 
L 310.535299 -96.24009 
L 312.685928 -96.83567 
L 314.778443 -97.43125 
L 316.808701 -98.02683 
L 318.772864 -98.62241 
L 320.667039 -99.21799 
L 322.487122 -99.813571 
L 324.228826 -100.409151 
L 325.887878 -101.004731 
L 327.460327 -101.600311 
L 328.942912 -102.195891 
L 330.33343 -102.791471 
L 331.631057 -103.387051 
L 332.836573 -103.982631 
L 333.952484 -104.578211 
L 334.983012 -105.173791 
L 335.933975 -105.769371 
L 336.81257 -106.364951 
L 337.627072 -106.960531 
L 338.386496 -107.556111 
L 339.100226 -108.151691 
L 339.777655 -108.747271 
L 340.427846 -109.342851 
L 341.059226 -109.938431 
L 341.679333 -110.534011 
L 342.294613 -111.129591 
L 342.91027 -111.725171 
L 343.530178 -112.320751 
L 344.156843 -112.916331 
L 344.791422 -113.511911 
L 345.43379 -114.107491 
L 346.082659 -114.703071 
L 346.73574 -115.298651 
L 347.389943 -115.894231 
L 348.041608 -116.489811 
L 348.686751 -117.085391 
L 349.321315 -117.680971 
L 349.941411 -118.276551 
L 350.543524 -118.872131 
L 351.124685 -119.467711 
L 351.682581 -120.063291 
L 352.21561 -120.658871 
L 352.722865 -121.254451 
L 353.204069 -121.850031 
L 353.659462 -122.445611 
L 354.089653 -123.041191 
L 362.655419 -123.041191 
L 362.655419 -123.041191 
L 363.085611 -122.445611 
L 363.541004 -121.850031 
L 364.022208 -121.254451 
L 364.529463 -120.658871 
L 365.062491 -120.063291 
L 365.620388 -119.467711 
L 366.201549 -118.872131 
L 366.803662 -118.276551 
L 367.423757 -117.680971 
L 368.058322 -117.085391 
L 368.703465 -116.489811 
L 369.35513 -115.894231 
L 370.009333 -115.298651 
L 370.662413 -114.703071 
L 371.311282 -114.107491 
L 371.95365 -113.511911 
L 372.588229 -112.916331 
L 373.214895 -112.320751 
L 373.834803 -111.725171 
L 374.45046 -111.129591 
L 375.065739 -110.534011 
L 375.685846 -109.938431 
L 376.317226 -109.342851 
L 376.967417 -108.747271 
L 377.644847 -108.151691 
L 378.358577 -107.556111 
L 379.118 -106.960531 
L 379.932503 -106.364951 
L 380.811097 -105.769371 
L 381.762061 -105.173791 
L 382.792588 -104.578211 
L 383.908499 -103.982631 
L 385.114016 -103.387051 
L 386.411643 -102.791471 
L 387.802161 -102.195891 
L 389.284746 -101.600311 
L 390.857195 -101.004731 
L 392.516246 -100.409151 
L 394.25795 -99.813571 
L 396.078033 -99.21799 
L 397.972209 -98.62241 
L 399.936372 -98.02683 
L 401.96663 -97.43125 
L 404.059144 -96.83567 
L 406.209774 -96.24009 
L 408.413548 -95.64451 
L 410.664018 -95.04893 
L 412.952567 -94.45335 
L 415.267768 -93.85777 
L 417.594879 -93.26219 
L 419.915569 -92.66661 
L 422.207937 -92.07103 
L 424.446847 -91.47545 
L 426.604586 -90.87987 
L 428.651795 -90.28429 
L 430.558601 -89.68871 
L 432.295852 -89.09313 
L 433.836357 -88.49755 
L 435.156023 -87.90197 
L 436.234807 -87.30639 
L 437.057426 -86.71081 
L 437.6138 -86.11523 
L 437.899225 -85.51965 
L 437.914315 -84.92407 
L 437.664744 -84.32849 
L 437.160855 -83.73291 
L 436.417178 -83.13733 
L 435.4519 -82.54175 
L 434.286306 -81.94617 
L 432.944215 -81.35059 
L 431.451381 -80.75501 
L 429.834874 -80.15943 
L 428.122408 -79.56385 
L 426.341616 -78.96827 
L 424.519264 -78.37269 
L 422.680436 -77.77711 
L 420.8477 -77.18153 
L 419.040314 -76.58595 
L 417.273509 -75.99037 
L 415.557912 -75.39479 
L 413.899155 -74.79921 
L 412.297704 -74.20363 
L 410.748958 -73.60805 
L 409.243606 -73.01247 
L 407.768251 -72.41689 
L 406.306286 -71.82131 
L 404.838961 -71.22573 
L 403.346611 -70.63015 
L 401.809959 -70.03457 
L 400.211429 -69.438989 
L 398.536385 -68.843409 
L 396.774216 -68.247829 
L 394.919195 -67.652249 
L 392.971049 -67.056669 
L 390.935203 -66.461089 
L 388.822666 -65.865509 
L 386.649581 -65.269929 
L 384.436453 -64.674349 
L 382.207117 -64.078769 
z
" style="stroke: #3d3d3d; stroke-width: 1.25"/>
    </defs>
    <g clip-path="url(#p2b77bbf914)">
     <use xlink:href="#m163feaa29c" x="0" y="345.6" style="fill: #3a923a; stroke: #3d3d3d; stroke-width: 1.25"/>
    </g>
   </g>
   <g id="matplotlib.axis_1">
    <g id="xtick_1">
     <g id="line2d_1">
      <defs>
       <path id="m2c1d8b6fae" d="M 0 0 
L 0 3.5 
" style="stroke: #000000; stroke-width: 0.8"/>
      </defs>
      <g>
       <use xlink:href="#m2c1d8b6fae" x="159.518089" y="294.784135" style="stroke: #000000; stroke-width: 0.8"/>
      </g>
     </g>
     <g id="text_1">
      <!-- Time -->
      <g transform="translate(137.672776 316.09976) scale(0.2 -0.2)">
       <defs>
        <path id="ArialMT-54" d="M 1659 0 
L 1659 4041 
L 150 4041 
L 150 4581 
L 3781 4581 
L 3781 4041 
L 2266 4041 
L 2266 0 
L 1659 0 
z
" transform="scale(0.015625)"/>
        <path id="ArialMT-69" d="M 425 3934 
L 425 4581 
L 988 4581 
L 988 3934 
L 425 3934 
z
M 425 0 
L 425 3319 
L 988 3319 
L 988 0 
L 425 0 
z
" transform="scale(0.015625)"/>
        <path id="ArialMT-6d" d="M 422 0 
L 422 3319 
L 925 3319 
L 925 2853 
Q 1081 3097 1340 3245 
Q 1600 3394 1931 3394 
Q 2300 3394 2536 3241 
Q 2772 3088 2869 2813 
Q 3263 3394 3894 3394 
Q 4388 3394 4653 3120 
Q 4919 2847 4919 2278 
L 4919 0 
L 4359 0 
L 4359 2091 
Q 4359 2428 4304 2576 
Q 4250 2725 4106 2815 
Q 3963 2906 3769 2906 
Q 3419 2906 3187 2673 
Q 2956 2441 2956 1928 
L 2956 0 
L 2394 0 
L 2394 2156 
Q 2394 2531 2256 2718 
Q 2119 2906 1806 2906 
Q 1569 2906 1367 2781 
Q 1166 2656 1075 2415 
Q 984 2175 984 1722 
L 984 0 
L 422 0 
z
" transform="scale(0.015625)"/>
        <path id="ArialMT-65" d="M 2694 1069 
L 3275 997 
Q 3138 488 2766 206 
Q 2394 -75 1816 -75 
Q 1088 -75 661 373 
Q 234 822 234 1631 
Q 234 2469 665 2931 
Q 1097 3394 1784 3394 
Q 2450 3394 2872 2941 
Q 3294 2488 3294 1666 
Q 3294 1616 3291 1516 
L 816 1516 
Q 847 969 1125 678 
Q 1403 388 1819 388 
Q 2128 388 2347 550 
Q 2566 713 2694 1069 
z
M 847 1978 
L 2700 1978 
Q 2663 2397 2488 2606 
Q 2219 2931 1791 2931 
Q 1403 2931 1139 2672 
Q 875 2413 847 1978 
z
" transform="scale(0.015625)"/>
       </defs>
       <use xlink:href="#ArialMT-54"/>
       <use xlink:href="#ArialMT-69" transform="translate(57.333984 0)"/>
       <use xlink:href="#ArialMT-6d" transform="translate(79.550781 0)"/>
       <use xlink:href="#ArialMT-65" transform="translate(162.851562 0)"/>
      </g>
     </g>
    </g>
    <g id="xtick_2">
     <g id="line2d_2">
      <g>
       <use xlink:href="#m2c1d8b6fae" x="358.372536" y="294.784135" style="stroke: #000000; stroke-width: 0.8"/>
      </g>
     </g>
     <g id="text_2">
      <!-- Body mass -->
      <g transform="translate(308.911599 316.09976) scale(0.2 -0.2)">
       <defs>
        <path id="ArialMT-42" d="M 469 0 
L 469 4581 
L 2188 4581 
Q 2713 4581 3030 4442 
Q 3347 4303 3526 4014 
Q 3706 3725 3706 3409 
Q 3706 3116 3547 2856 
Q 3388 2597 3066 2438 
Q 3481 2316 3704 2022 
Q 3928 1728 3928 1328 
Q 3928 1006 3792 729 
Q 3656 453 3456 303 
Q 3256 153 2954 76 
Q 2653 0 2216 0 
L 469 0 
z
M 1075 2656 
L 2066 2656 
Q 2469 2656 2644 2709 
Q 2875 2778 2992 2937 
Q 3109 3097 3109 3338 
Q 3109 3566 3000 3739 
Q 2891 3913 2687 3977 
Q 2484 4041 1991 4041 
L 1075 4041 
L 1075 2656 
z
M 1075 541 
L 2216 541 
Q 2509 541 2628 563 
Q 2838 600 2978 687 
Q 3119 775 3209 942 
Q 3300 1109 3300 1328 
Q 3300 1584 3169 1773 
Q 3038 1963 2805 2039 
Q 2572 2116 2134 2116 
L 1075 2116 
L 1075 541 
z
" transform="scale(0.015625)"/>
        <path id="ArialMT-6f" d="M 213 1659 
Q 213 2581 725 3025 
Q 1153 3394 1769 3394 
Q 2453 3394 2887 2945 
Q 3322 2497 3322 1706 
Q 3322 1066 3130 698 
Q 2938 331 2570 128 
Q 2203 -75 1769 -75 
Q 1072 -75 642 372 
Q 213 819 213 1659 
z
M 791 1659 
Q 791 1022 1069 705 
Q 1347 388 1769 388 
Q 2188 388 2466 706 
Q 2744 1025 2744 1678 
Q 2744 2294 2464 2611 
Q 2184 2928 1769 2928 
Q 1347 2928 1069 2612 
Q 791 2297 791 1659 
z
" transform="scale(0.015625)"/>
        <path id="ArialMT-64" d="M 2575 0 
L 2575 419 
Q 2259 -75 1647 -75 
Q 1250 -75 917 144 
Q 584 363 401 755 
Q 219 1147 219 1656 
Q 219 2153 384 2558 
Q 550 2963 881 3178 
Q 1213 3394 1622 3394 
Q 1922 3394 2156 3267 
Q 2391 3141 2538 2938 
L 2538 4581 
L 3097 4581 
L 3097 0 
L 2575 0 
z
M 797 1656 
Q 797 1019 1065 703 
Q 1334 388 1700 388 
Q 2069 388 2326 689 
Q 2584 991 2584 1609 
Q 2584 2291 2321 2609 
Q 2059 2928 1675 2928 
Q 1300 2928 1048 2622 
Q 797 2316 797 1656 
z
" transform="scale(0.015625)"/>
        <path id="ArialMT-79" d="M 397 -1278 
L 334 -750 
Q 519 -800 656 -800 
Q 844 -800 956 -737 
Q 1069 -675 1141 -563 
Q 1194 -478 1313 -144 
Q 1328 -97 1363 -6 
L 103 3319 
L 709 3319 
L 1400 1397 
Q 1534 1031 1641 628 
Q 1738 1016 1872 1384 
L 2581 3319 
L 3144 3319 
L 1881 -56 
Q 1678 -603 1566 -809 
Q 1416 -1088 1222 -1217 
Q 1028 -1347 759 -1347 
Q 597 -1347 397 -1278 
z
" transform="scale(0.015625)"/>
        <path id="ArialMT-20" transform="scale(0.015625)"/>
        <path id="ArialMT-61" d="M 2588 409 
Q 2275 144 1986 34 
Q 1697 -75 1366 -75 
Q 819 -75 525 192 
Q 231 459 231 875 
Q 231 1119 342 1320 
Q 453 1522 633 1644 
Q 813 1766 1038 1828 
Q 1203 1872 1538 1913 
Q 2219 1994 2541 2106 
Q 2544 2222 2544 2253 
Q 2544 2597 2384 2738 
Q 2169 2928 1744 2928 
Q 1347 2928 1158 2789 
Q 969 2650 878 2297 
L 328 2372 
Q 403 2725 575 2942 
Q 747 3159 1072 3276 
Q 1397 3394 1825 3394 
Q 2250 3394 2515 3294 
Q 2781 3194 2906 3042 
Q 3031 2891 3081 2659 
Q 3109 2516 3109 2141 
L 3109 1391 
Q 3109 606 3145 398 
Q 3181 191 3288 0 
L 2700 0 
Q 2613 175 2588 409 
z
M 2541 1666 
Q 2234 1541 1622 1453 
Q 1275 1403 1131 1340 
Q 988 1278 909 1158 
Q 831 1038 831 891 
Q 831 666 1001 516 
Q 1172 366 1500 366 
Q 1825 366 2078 508 
Q 2331 650 2450 897 
Q 2541 1088 2541 1459 
L 2541 1666 
z
" transform="scale(0.015625)"/>
        <path id="ArialMT-73" d="M 197 991 
L 753 1078 
Q 800 744 1014 566 
Q 1228 388 1613 388 
Q 2000 388 2187 545 
Q 2375 703 2375 916 
Q 2375 1106 2209 1216 
Q 2094 1291 1634 1406 
Q 1016 1563 777 1677 
Q 538 1791 414 1992 
Q 291 2194 291 2438 
Q 291 2659 392 2848 
Q 494 3038 669 3163 
Q 800 3259 1026 3326 
Q 1253 3394 1513 3394 
Q 1903 3394 2198 3281 
Q 2494 3169 2634 2976 
Q 2775 2784 2828 2463 
L 2278 2388 
Q 2241 2644 2061 2787 
Q 1881 2931 1553 2931 
Q 1166 2931 1000 2803 
Q 834 2675 834 2503 
Q 834 2394 903 2306 
Q 972 2216 1119 2156 
Q 1203 2125 1616 2013 
Q 2213 1853 2448 1751 
Q 2684 1650 2818 1456 
Q 2953 1263 2953 975 
Q 2953 694 2789 445 
Q 2625 197 2315 61 
Q 2006 -75 1616 -75 
Q 969 -75 630 194 
Q 291 463 197 991 
z
" transform="scale(0.015625)"/>
       </defs>
       <use xlink:href="#ArialMT-42"/>
       <use xlink:href="#ArialMT-6f" transform="translate(66.699219 0)"/>
       <use xlink:href="#ArialMT-64" transform="translate(122.314453 0)"/>
       <use xlink:href="#ArialMT-79" transform="translate(177.929688 0)"/>
       <use xlink:href="#ArialMT-20" transform="translate(227.929688 0)"/>
       <use xlink:href="#ArialMT-6d" transform="translate(255.712891 0)"/>
       <use xlink:href="#ArialMT-61" transform="translate(339.013672 0)"/>
       <use xlink:href="#ArialMT-73" transform="translate(394.628906 0)"/>
       <use xlink:href="#ArialMT-73" transform="translate(444.628906 0)"/>
      </g>
     </g>
    </g>
    <g id="text_3">
     <!-- Predictor -->
     <g transform="translate(218.932813 338.62476) scale(0.2 -0.2)">
      <defs>
       <path id="ArialMT-50" d="M 494 0 
L 494 4581 
L 2222 4581 
Q 2678 4581 2919 4538 
Q 3256 4481 3484 4323 
Q 3713 4166 3852 3881 
Q 3991 3597 3991 3256 
Q 3991 2672 3619 2267 
Q 3247 1863 2275 1863 
L 1100 1863 
L 1100 0 
L 494 0 
z
M 1100 2403 
L 2284 2403 
Q 2872 2403 3119 2622 
Q 3366 2841 3366 3238 
Q 3366 3525 3220 3729 
Q 3075 3934 2838 4000 
Q 2684 4041 2272 4041 
L 1100 4041 
L 1100 2403 
z
" transform="scale(0.015625)"/>
       <path id="ArialMT-72" d="M 416 0 
L 416 3319 
L 922 3319 
L 922 2816 
Q 1116 3169 1280 3281 
Q 1444 3394 1641 3394 
Q 1925 3394 2219 3213 
L 2025 2691 
Q 1819 2813 1613 2813 
Q 1428 2813 1281 2702 
Q 1134 2591 1072 2394 
Q 978 2094 978 1738 
L 978 0 
L 416 0 
z
" transform="scale(0.015625)"/>
       <path id="ArialMT-63" d="M 2588 1216 
L 3141 1144 
Q 3050 572 2676 248 
Q 2303 -75 1759 -75 
Q 1078 -75 664 370 
Q 250 816 250 1647 
Q 250 2184 428 2587 
Q 606 2991 970 3192 
Q 1334 3394 1763 3394 
Q 2303 3394 2647 3120 
Q 2991 2847 3088 2344 
L 2541 2259 
Q 2463 2594 2264 2762 
Q 2066 2931 1784 2931 
Q 1359 2931 1093 2626 
Q 828 2322 828 1663 
Q 828 994 1084 691 
Q 1341 388 1753 388 
Q 2084 388 2306 591 
Q 2528 794 2588 1216 
z
" transform="scale(0.015625)"/>
       <path id="ArialMT-74" d="M 1650 503 
L 1731 6 
Q 1494 -44 1306 -44 
Q 1000 -44 831 53 
Q 663 150 594 308 
Q 525 466 525 972 
L 525 2881 
L 113 2881 
L 113 3319 
L 525 3319 
L 525 4141 
L 1084 4478 
L 1084 3319 
L 1650 3319 
L 1650 2881 
L 1084 2881 
L 1084 941 
Q 1084 700 1114 631 
Q 1144 563 1211 522 
Q 1278 481 1403 481 
Q 1497 481 1650 503 
z
" transform="scale(0.015625)"/>
      </defs>
      <use xlink:href="#ArialMT-50"/>
      <use xlink:href="#ArialMT-72" transform="translate(66.699219 0)"/>
      <use xlink:href="#ArialMT-65" transform="translate(100 0)"/>
      <use xlink:href="#ArialMT-64" transform="translate(155.615234 0)"/>
      <use xlink:href="#ArialMT-69" transform="translate(211.230469 0)"/>
      <use xlink:href="#ArialMT-63" transform="translate(233.447266 0)"/>
      <use xlink:href="#ArialMT-74" transform="translate(283.447266 0)"/>
      <use xlink:href="#ArialMT-6f" transform="translate(311.230469 0)"/>
      <use xlink:href="#ArialMT-72" transform="translate(366.845703 0)"/>
     </g>
    </g>
   </g>
   <g id="matplotlib.axis_2">
    <g id="ytick_1">
     <g id="line2d_3">
      <defs>
       <path id="mb9ffe0efaf" d="M 0 0 
L -3.5 0 
" style="stroke: #000000; stroke-width: 0.8"/>
      </defs>
      <g>
       <use xlink:href="#mb9ffe0efaf" x="60.090865" y="249.217095" style="stroke: #000000; stroke-width: 0.8"/>
      </g>
     </g>
     <g id="text_4">
      <!-- 0.3 -->
      <g transform="translate(25.290865 256.374907) scale(0.2 -0.2)">
       <defs>
        <path id="ArialMT-30" d="M 266 2259 
Q 266 3072 433 3567 
Q 600 4063 929 4331 
Q 1259 4600 1759 4600 
Q 2128 4600 2406 4451 
Q 2684 4303 2865 4023 
Q 3047 3744 3150 3342 
Q 3253 2941 3253 2259 
Q 3253 1453 3087 958 
Q 2922 463 2592 192 
Q 2263 -78 1759 -78 
Q 1097 -78 719 397 
Q 266 969 266 2259 
z
M 844 2259 
Q 844 1131 1108 757 
Q 1372 384 1759 384 
Q 2147 384 2411 759 
Q 2675 1134 2675 2259 
Q 2675 3391 2411 3762 
Q 2147 4134 1753 4134 
Q 1366 4134 1134 3806 
Q 844 3388 844 2259 
z
" transform="scale(0.015625)"/>
        <path id="ArialMT-2e" d="M 581 0 
L 581 641 
L 1222 641 
L 1222 0 
L 581 0 
z
" transform="scale(0.015625)"/>
        <path id="ArialMT-33" d="M 269 1209 
L 831 1284 
Q 928 806 1161 595 
Q 1394 384 1728 384 
Q 2125 384 2398 659 
Q 2672 934 2672 1341 
Q 2672 1728 2419 1979 
Q 2166 2231 1775 2231 
Q 1616 2231 1378 2169 
L 1441 2663 
Q 1497 2656 1531 2656 
Q 1891 2656 2178 2843 
Q 2466 3031 2466 3422 
Q 2466 3731 2256 3934 
Q 2047 4138 1716 4138 
Q 1388 4138 1169 3931 
Q 950 3725 888 3313 
L 325 3413 
Q 428 3978 793 4289 
Q 1159 4600 1703 4600 
Q 2078 4600 2393 4439 
Q 2709 4278 2876 4000 
Q 3044 3722 3044 3409 
Q 3044 3113 2884 2869 
Q 2725 2625 2413 2481 
Q 2819 2388 3044 2092 
Q 3269 1797 3269 1353 
Q 3269 753 2831 336 
Q 2394 -81 1725 -81 
Q 1122 -81 723 278 
Q 325 638 269 1209 
z
" transform="scale(0.015625)"/>
       </defs>
       <use xlink:href="#ArialMT-30"/>
       <use xlink:href="#ArialMT-2e" transform="translate(55.615234 0)"/>
       <use xlink:href="#ArialMT-33" transform="translate(83.398438 0)"/>
      </g>
     </g>
    </g>
    <g id="ytick_2">
     <g id="line2d_4">
      <g>
       <use xlink:href="#mb9ffe0efaf" x="60.090865" y="199.054641" style="stroke: #000000; stroke-width: 0.8"/>
      </g>
     </g>
     <g id="text_5">
      <!-- 0.4 -->
      <g transform="translate(25.290865 206.212454) scale(0.2 -0.2)">
       <defs>
        <path id="ArialMT-34" d="M 2069 0 
L 2069 1097 
L 81 1097 
L 81 1613 
L 2172 4581 
L 2631 4581 
L 2631 1613 
L 3250 1613 
L 3250 1097 
L 2631 1097 
L 2631 0 
L 2069 0 
z
M 2069 1613 
L 2069 3678 
L 634 1613 
L 2069 1613 
z
" transform="scale(0.015625)"/>
       </defs>
       <use xlink:href="#ArialMT-30"/>
       <use xlink:href="#ArialMT-2e" transform="translate(55.615234 0)"/>
       <use xlink:href="#ArialMT-34" transform="translate(83.398438 0)"/>
      </g>
     </g>
    </g>
    <g id="ytick_3">
     <g id="line2d_5">
      <g>
       <use xlink:href="#mb9ffe0efaf" x="60.090865" y="148.892188" style="stroke: #000000; stroke-width: 0.8"/>
      </g>
     </g>
     <g id="text_6">
      <!-- 0.5 -->
      <g transform="translate(25.290865 156.05) scale(0.2 -0.2)">
       <defs>
        <path id="ArialMT-35" d="M 266 1200 
L 856 1250 
Q 922 819 1161 601 
Q 1400 384 1738 384 
Q 2144 384 2425 690 
Q 2706 997 2706 1503 
Q 2706 1984 2436 2262 
Q 2166 2541 1728 2541 
Q 1456 2541 1237 2417 
Q 1019 2294 894 2097 
L 366 2166 
L 809 4519 
L 3088 4519 
L 3088 3981 
L 1259 3981 
L 1013 2750 
Q 1425 3038 1878 3038 
Q 2478 3038 2890 2622 
Q 3303 2206 3303 1553 
Q 3303 931 2941 478 
Q 2500 -78 1738 -78 
Q 1113 -78 717 272 
Q 322 622 266 1200 
z
" transform="scale(0.015625)"/>
       </defs>
       <use xlink:href="#ArialMT-30"/>
       <use xlink:href="#ArialMT-2e" transform="translate(55.615234 0)"/>
       <use xlink:href="#ArialMT-35" transform="translate(83.398438 0)"/>
      </g>
     </g>
    </g>
    <g id="ytick_4">
     <g id="line2d_6">
      <g>
       <use xlink:href="#mb9ffe0efaf" x="60.090865" y="98.729734" style="stroke: #000000; stroke-width: 0.8"/>
      </g>
     </g>
     <g id="text_7">
      <!-- 0.6 -->
      <g transform="translate(25.290865 105.887546) scale(0.2 -0.2)">
       <defs>
        <path id="ArialMT-36" d="M 3184 3459 
L 2625 3416 
Q 2550 3747 2413 3897 
Q 2184 4138 1850 4138 
Q 1581 4138 1378 3988 
Q 1113 3794 959 3422 
Q 806 3050 800 2363 
Q 1003 2672 1297 2822 
Q 1591 2972 1913 2972 
Q 2475 2972 2870 2558 
Q 3266 2144 3266 1488 
Q 3266 1056 3080 686 
Q 2894 316 2569 119 
Q 2244 -78 1831 -78 
Q 1128 -78 684 439 
Q 241 956 241 2144 
Q 241 3472 731 4075 
Q 1159 4600 1884 4600 
Q 2425 4600 2770 4297 
Q 3116 3994 3184 3459 
z
M 888 1484 
Q 888 1194 1011 928 
Q 1134 663 1356 523 
Q 1578 384 1822 384 
Q 2178 384 2434 671 
Q 2691 959 2691 1453 
Q 2691 1928 2437 2201 
Q 2184 2475 1800 2475 
Q 1419 2475 1153 2201 
Q 888 1928 888 1484 
z
" transform="scale(0.015625)"/>
       </defs>
       <use xlink:href="#ArialMT-30"/>
       <use xlink:href="#ArialMT-2e" transform="translate(55.615234 0)"/>
       <use xlink:href="#ArialMT-36" transform="translate(83.398438 0)"/>
      </g>
     </g>
    </g>
    <g id="ytick_5">
     <g id="line2d_7">
      <g>
       <use xlink:href="#mb9ffe0efaf" x="60.090865" y="48.56728" style="stroke: #000000; stroke-width: 0.8"/>
      </g>
     </g>
     <g id="text_8">
      <!-- 0.7 -->
      <g transform="translate(25.290865 55.725093) scale(0.2 -0.2)">
       <defs>
        <path id="ArialMT-37" d="M 303 3981 
L 303 4522 
L 3269 4522 
L 3269 4084 
Q 2831 3619 2401 2847 
Q 1972 2075 1738 1259 
Q 1569 684 1522 0 
L 944 0 
Q 953 541 1156 1306 
Q 1359 2072 1739 2783 
Q 2119 3494 2547 3981 
L 303 3981 
z
" transform="scale(0.015625)"/>
       </defs>
       <use xlink:href="#ArialMT-30"/>
       <use xlink:href="#ArialMT-2e" transform="translate(55.615234 0)"/>
       <use xlink:href="#ArialMT-37" transform="translate(83.398438 0)"/>
      </g>
     </g>
    </g>
    <g id="text_9">
     <!-- Importance -->
     <g transform="translate(17.315865 198.9125) rotate(-90) scale(0.2 -0.2)">
      <defs>
       <path id="ArialMT-49" d="M 597 0 
L 597 4581 
L 1203 4581 
L 1203 0 
L 597 0 
z
" transform="scale(0.015625)"/>
       <path id="ArialMT-70" d="M 422 -1272 
L 422 3319 
L 934 3319 
L 934 2888 
Q 1116 3141 1344 3267 
Q 1572 3394 1897 3394 
Q 2322 3394 2647 3175 
Q 2972 2956 3137 2557 
Q 3303 2159 3303 1684 
Q 3303 1175 3120 767 
Q 2938 359 2589 142 
Q 2241 -75 1856 -75 
Q 1575 -75 1351 44 
Q 1128 163 984 344 
L 984 -1272 
L 422 -1272 
z
M 931 1641 
Q 931 1000 1190 694 
Q 1450 388 1819 388 
Q 2194 388 2461 705 
Q 2728 1022 2728 1688 
Q 2728 2322 2467 2637 
Q 2206 2953 1844 2953 
Q 1484 2953 1207 2617 
Q 931 2281 931 1641 
z
" transform="scale(0.015625)"/>
       <path id="ArialMT-6e" d="M 422 0 
L 422 3319 
L 928 3319 
L 928 2847 
Q 1294 3394 1984 3394 
Q 2284 3394 2536 3286 
Q 2788 3178 2913 3003 
Q 3038 2828 3088 2588 
Q 3119 2431 3119 2041 
L 3119 0 
L 2556 0 
L 2556 2019 
Q 2556 2363 2490 2533 
Q 2425 2703 2258 2804 
Q 2091 2906 1866 2906 
Q 1506 2906 1245 2678 
Q 984 2450 984 1813 
L 984 0 
L 422 0 
z
" transform="scale(0.015625)"/>
      </defs>
      <use xlink:href="#ArialMT-49"/>
      <use xlink:href="#ArialMT-6d" transform="translate(27.783203 0)"/>
      <use xlink:href="#ArialMT-70" transform="translate(111.083984 0)"/>
      <use xlink:href="#ArialMT-6f" transform="translate(166.699219 0)"/>
      <use xlink:href="#ArialMT-72" transform="translate(222.314453 0)"/>
      <use xlink:href="#ArialMT-74" transform="translate(255.615234 0)"/>
      <use xlink:href="#ArialMT-61" transform="translate(283.398438 0)"/>
      <use xlink:href="#ArialMT-6e" transform="translate(339.013672 0)"/>
      <use xlink:href="#ArialMT-63" transform="translate(394.628906 0)"/>
      <use xlink:href="#ArialMT-65" transform="translate(444.628906 0)"/>
     </g>
    </g>
   </g>
   <g id="line2d_8">
    <path d="M 159.518089 68.653474 
L 159.518089 16.263144 
" clip-path="url(#p2b77bbf914)" style="fill: none; stroke: #3d3d3d; stroke-width: 1.875; stroke-linecap: square"/>
   </g>
   <g id="line2d_9">
    <path d="M 159.518089 46.335836 
L 159.518089 29.808894 
" clip-path="url(#p2b77bbf914)" style="fill: none; stroke: #3d3d3d; stroke-width: 5.625; stroke-linecap: square"/>
   </g>
   <g id="line2d_10">
    <path d="M 159.518089 37.826235 
" clip-path="url(#p2b77bbf914)" style="fill: none; stroke: #3d3d3d; stroke-width: 4; stroke-linecap: square"/>
    <defs>
     <path id="mb7a82c6a6f" d="M 2.34375 0 
L -2.34375 -0 
" style="stroke: #ffffff; stroke-width: 1.125"/>
    </defs>
    <g clip-path="url(#p2b77bbf914)">
     <use xlink:href="#mb7a82c6a6f" x="159.518089" y="37.826235" style="fill: #ffffff; stroke: #ffffff; stroke-width: 1.125"/>
    </g>
   </g>
   <g id="line2d_11">
    <path d="M 358.372536 281.521231 
L 358.372536 229.130901 
" clip-path="url(#p2b77bbf914)" style="fill: none; stroke: #3d3d3d; stroke-width: 1.875; stroke-linecap: square"/>
   </g>
   <g id="line2d_12">
    <path d="M 358.372536 267.975481 
L 358.372536 251.448539 
" clip-path="url(#p2b77bbf914)" style="fill: none; stroke: #3d3d3d; stroke-width: 5.625; stroke-linecap: square"/>
   </g>
   <g id="line2d_13">
    <path d="M 358.372536 259.95814 
" clip-path="url(#p2b77bbf914)" style="fill: none; stroke: #3d3d3d; stroke-width: 4; stroke-linecap: square"/>
    <g clip-path="url(#p2b77bbf914)">
     <use xlink:href="#mb7a82c6a6f" x="358.372536" y="259.95814" style="fill: #ffffff; stroke: #ffffff; stroke-width: 1.125"/>
    </g>
   </g>
   <g id="patch_3">
    <path d="M 60.090865 294.784135 
L 60.090865 3.00024 
" style="fill: none; stroke: #000000; stroke-width: 0.8; stroke-linejoin: miter; stroke-linecap: square"/>
   </g>
   <g id="patch_4">
    <path d="M 457.79976 294.784135 
L 457.79976 3.00024 
" style="fill: none; stroke: #000000; stroke-width: 0.8; stroke-linejoin: miter; stroke-linecap: square"/>
   </g>
   <g id="patch_5">
    <path d="M 60.090865 294.784135 
L 457.79976 294.784135 
" style="fill: none; stroke: #000000; stroke-width: 0.8; stroke-linejoin: miter; stroke-linecap: square"/>
   </g>
   <g id="patch_6">
    <path d="M 60.090865 3.00024 
L 457.79976 3.00024 
" style="fill: none; stroke: #000000; stroke-width: 0.8; stroke-linejoin: miter; stroke-linecap: square"/>
   </g>
  </g>
 </g>
 <defs>
  <clipPath id="p2b77bbf914">
   <rect x="60.090865" y="3.00024" width="397.708895" height="291.783895"/>
  </clipPath>
 </defs>
</svg>
